%TF.GenerationSoftware,KiCad,Pcbnew,(5.1.9)-1*%
%TF.CreationDate,2021-06-11T11:51:17+02:00*%
%TF.ProjectId,08_Main_Gauche,30385f4d-6169-46e5-9f47-61756368652e,rev?*%
%TF.SameCoordinates,Original*%
%TF.FileFunction,Soldermask,Bot*%
%TF.FilePolarity,Negative*%
%FSLAX46Y46*%
G04 Gerber Fmt 4.6, Leading zero omitted, Abs format (unit mm)*
G04 Created by KiCad (PCBNEW (5.1.9)-1) date 2021-06-11 11:51:17*
%MOMM*%
%LPD*%
G01*
G04 APERTURE LIST*
%TA.AperFunction,Profile*%
%ADD10C,0.150000*%
%TD*%
%ADD11C,2.300000*%
%ADD12C,4.100000*%
%ADD13C,1.800000*%
%ADD14C,0.900000*%
%ADD15C,6.500000*%
%ADD16C,1.624000*%
%ADD17O,2.050000X1.800000*%
G04 APERTURE END LIST*
D10*
X165000000Y-25000000D02*
G75*
G02*
X170000000Y-30000000I0J-5000000D01*
G01*
X170050000Y-174950000D02*
G75*
G02*
X165050000Y-179950000I-5000000J0D01*
G01*
X25050000Y-179950000D02*
G75*
G02*
X20050000Y-174950000I0J5000000D01*
G01*
X20050000Y-30000000D02*
G75*
G02*
X25050000Y-25000000I5000000J0D01*
G01*
X20050000Y-174950000D02*
X20050000Y-30000000D01*
X165050000Y-179950000D02*
X25050000Y-179950000D01*
X170000000Y-30000000D02*
X170050000Y-174950000D01*
X25050000Y-25000000D02*
X165000000Y-25000000D01*
D11*
%TO.C,SW4*%
X45050000Y-119950000D03*
X38700000Y-122490000D03*
D12*
X42510000Y-125030000D03*
D13*
X37430000Y-125030000D03*
X47590000Y-125030000D03*
%TD*%
D14*
%TO.C,H2*%
X166747056Y-173252944D03*
X165050000Y-172550000D03*
X163352944Y-173252944D03*
X162650000Y-174950000D03*
X163352944Y-176647056D03*
X165050000Y-177350000D03*
X166747056Y-176647056D03*
X167450000Y-174950000D03*
D15*
X165050000Y-174950000D03*
%TD*%
D14*
%TO.C,H1*%
X26697056Y-28302944D03*
X25000000Y-27600000D03*
X23302944Y-28302944D03*
X22600000Y-30000000D03*
X23302944Y-31697056D03*
X25000000Y-32400000D03*
X26697056Y-31697056D03*
X27400000Y-30000000D03*
D15*
X25000000Y-30000000D03*
%TD*%
D14*
%TO.C,H3*%
X166747056Y-28302944D03*
X165050000Y-27600000D03*
X163352944Y-28302944D03*
X162650000Y-30000000D03*
X163352944Y-31697056D03*
X165050000Y-32400000D03*
X166747056Y-31697056D03*
X167450000Y-30000000D03*
D15*
X165050000Y-30000000D03*
%TD*%
D14*
%TO.C,H4*%
X26747056Y-173252944D03*
X25050000Y-172550000D03*
X23352944Y-173252944D03*
X22650000Y-174950000D03*
X23352944Y-176647056D03*
X25050000Y-177350000D03*
X26747056Y-176647056D03*
X27450000Y-174950000D03*
D15*
X25050000Y-174950000D03*
%TD*%
D13*
%TO.C,SW2*%
X47590000Y-85030000D03*
X37430000Y-85030000D03*
D12*
X42510000Y-85030000D03*
D11*
X38700000Y-82490000D03*
X45050000Y-79950000D03*
%TD*%
D13*
%TO.C,SW3*%
X47590000Y-105030000D03*
X37430000Y-105030000D03*
D12*
X42510000Y-105030000D03*
D11*
X38700000Y-102490000D03*
X45050000Y-99950000D03*
%TD*%
D13*
%TO.C,SW21*%
X137590000Y-125030000D03*
X127430000Y-125030000D03*
D12*
X132510000Y-125030000D03*
D11*
X128700000Y-122490000D03*
X135050000Y-119950000D03*
%TD*%
D13*
%TO.C,SW8*%
X72590000Y-125030000D03*
X62430000Y-125030000D03*
D12*
X67510000Y-125030000D03*
D11*
X63700000Y-122490000D03*
X70050000Y-119950000D03*
%TD*%
D13*
%TO.C,SW12*%
X92590000Y-125030000D03*
X82430000Y-125030000D03*
D12*
X87510000Y-125030000D03*
D11*
X83700000Y-122490000D03*
X90050000Y-119950000D03*
%TD*%
D13*
%TO.C,SW17*%
X112590000Y-125030000D03*
X102430000Y-125030000D03*
D12*
X107510000Y-125030000D03*
D11*
X103700000Y-122490000D03*
X110050000Y-119950000D03*
%TD*%
D13*
%TO.C,SW19*%
X137590000Y-85030000D03*
X127430000Y-85030000D03*
D12*
X132510000Y-85030000D03*
D11*
X128700000Y-82490000D03*
X135050000Y-79950000D03*
%TD*%
D13*
%TO.C,SW6*%
X72590000Y-85030000D03*
X62430000Y-85030000D03*
D12*
X67510000Y-85030000D03*
D11*
X63700000Y-82490000D03*
X70050000Y-79950000D03*
%TD*%
D13*
%TO.C,SW10*%
X92590000Y-85030000D03*
X82430000Y-85030000D03*
D12*
X87510000Y-85030000D03*
D11*
X83700000Y-82490000D03*
X90050000Y-79950000D03*
%TD*%
D13*
%TO.C,SW15*%
X112590000Y-85030000D03*
X102430000Y-85030000D03*
D12*
X107510000Y-85030000D03*
D11*
X103700000Y-82490000D03*
X110050000Y-79950000D03*
%TD*%
D13*
%TO.C,SW20*%
X137590000Y-105030000D03*
X127430000Y-105030000D03*
D12*
X132510000Y-105030000D03*
D11*
X128700000Y-102490000D03*
X135050000Y-99950000D03*
%TD*%
D13*
%TO.C,SW7*%
X72590000Y-105030000D03*
X62430000Y-105030000D03*
D12*
X67510000Y-105030000D03*
D11*
X63700000Y-102490000D03*
X70050000Y-99950000D03*
%TD*%
D13*
%TO.C,SW16*%
X112590000Y-105030000D03*
X102430000Y-105030000D03*
D12*
X107510000Y-105030000D03*
D11*
X103700000Y-102490000D03*
X110050000Y-99950000D03*
%TD*%
%TO.C,SW1*%
X45050000Y-54950000D03*
X38700000Y-57490000D03*
D12*
X42510000Y-60030000D03*
D13*
X37430000Y-60030000D03*
X47590000Y-60030000D03*
%TD*%
%TO.C,SW5*%
X72590000Y-60030000D03*
X62430000Y-60030000D03*
D12*
X67510000Y-60030000D03*
D11*
X63700000Y-57490000D03*
X70050000Y-54950000D03*
%TD*%
%TO.C,SW9*%
X90050000Y-54950000D03*
X83700000Y-57490000D03*
D12*
X87510000Y-60030000D03*
D13*
X82430000Y-60030000D03*
X92590000Y-60030000D03*
%TD*%
D11*
%TO.C,SW11*%
X90050000Y-99950000D03*
X83700000Y-102490000D03*
D12*
X87510000Y-105030000D03*
D13*
X82430000Y-105030000D03*
X92590000Y-105030000D03*
G36*
G01*
X85428000Y-110872000D02*
X85428000Y-109348000D01*
G75*
G02*
X85478000Y-109298000I50000J0D01*
G01*
X87002000Y-109298000D01*
G75*
G02*
X87052000Y-109348000I0J-50000D01*
G01*
X87052000Y-110872000D01*
G75*
G02*
X87002000Y-110922000I-50000J0D01*
G01*
X85478000Y-110922000D01*
G75*
G02*
X85428000Y-110872000I0J50000D01*
G01*
G37*
D16*
X88780000Y-110110000D03*
%TD*%
D13*
%TO.C,SW14*%
X112590000Y-60030000D03*
X102430000Y-60030000D03*
D12*
X107510000Y-60030000D03*
D11*
X103700000Y-57490000D03*
X110050000Y-54950000D03*
%TD*%
%TO.C,SW18*%
X135050000Y-54950000D03*
X128700000Y-57490000D03*
D12*
X132510000Y-60030000D03*
D13*
X127430000Y-60030000D03*
X137590000Y-60030000D03*
%TD*%
%TO.C,J1*%
G36*
G01*
X58060295Y-39100000D02*
X56539705Y-39100000D01*
G75*
G02*
X56275000Y-38835295I0J264705D01*
G01*
X56275000Y-37564705D01*
G75*
G02*
X56539705Y-37300000I264705J0D01*
G01*
X58060295Y-37300000D01*
G75*
G02*
X58325000Y-37564705I0J-264705D01*
G01*
X58325000Y-38835295D01*
G75*
G02*
X58060295Y-39100000I-264705J0D01*
G01*
G37*
D17*
X57300000Y-35700000D03*
X57300000Y-33200000D03*
X57300000Y-30700000D03*
%TD*%
D13*
%TO.C,U1*%
X68500000Y-26490000D03*
X71040000Y-26490000D03*
X73580000Y-26490000D03*
X76120000Y-26490000D03*
X78660000Y-26490000D03*
X81200000Y-26490000D03*
X83740000Y-26490000D03*
X86280000Y-26490000D03*
X88820000Y-26490000D03*
X91360000Y-26490000D03*
X93900000Y-26490000D03*
X96440000Y-26490000D03*
X98980000Y-26490000D03*
X101520000Y-26490000D03*
X104060000Y-26490000D03*
X106600000Y-26490000D03*
X109140000Y-26490000D03*
G36*
G01*
X67600000Y-42596000D02*
X67600000Y-40896000D01*
G75*
G02*
X67650000Y-40846000I50000J0D01*
G01*
X69350000Y-40846000D01*
G75*
G02*
X69400000Y-40896000I0J-50000D01*
G01*
X69400000Y-42596000D01*
G75*
G02*
X69350000Y-42646000I-50000J0D01*
G01*
X67650000Y-42646000D01*
G75*
G02*
X67600000Y-42596000I0J50000D01*
G01*
G37*
X71040000Y-41746000D03*
X73580000Y-41746000D03*
X76120000Y-41746000D03*
X78660000Y-41746000D03*
X81200000Y-41746000D03*
X83740000Y-41746000D03*
X86280000Y-41746000D03*
X88820000Y-41746000D03*
X91360000Y-41746000D03*
X93900000Y-41746000D03*
X96440000Y-41746000D03*
X98980000Y-41746000D03*
X101520000Y-41746000D03*
X104060000Y-41746000D03*
X106600000Y-41746000D03*
X109140000Y-41746000D03*
%TD*%
M02*
