%TF.GenerationSoftware,KiCad,Pcbnew,(5.1.9)-1*%
%TF.CreationDate,2021-06-10T16:35:11+02:00*%
%TF.ProjectId,08_Main_Gauche,30385f4d-6169-46e5-9f47-61756368652e,rev?*%
%TF.SameCoordinates,Original*%
%TF.FileFunction,Legend,Top*%
%TF.FilePolarity,Positive*%
%FSLAX46Y46*%
G04 Gerber Fmt 4.6, Leading zero omitted, Abs format (unit mm)*
G04 Created by KiCad (PCBNEW (5.1.9)-1) date 2021-06-10 16:35:11*
%MOMM*%
%LPD*%
G01*
G04 APERTURE LIST*
%ADD10C,0.150000*%
%ADD11C,0.750000*%
%TA.AperFunction,Profile*%
%ADD12C,0.150000*%
%TD*%
%ADD13C,0.120000*%
G04 APERTURE END LIST*
D10*
X109685714Y-140666666D02*
X110161904Y-140666666D01*
X109590476Y-140952380D02*
X109923809Y-139952380D01*
X110257142Y-140952380D01*
X110542857Y-140047619D02*
X110590476Y-140000000D01*
X110685714Y-139952380D01*
X110923809Y-139952380D01*
X111019047Y-140000000D01*
X111066666Y-140047619D01*
X111114285Y-140142857D01*
X111114285Y-140238095D01*
X111066666Y-140380952D01*
X110495238Y-140952380D01*
X111114285Y-140952380D01*
X109685714Y-136766666D02*
X110161904Y-136766666D01*
X109590476Y-137052380D02*
X109923809Y-136052380D01*
X110257142Y-137052380D01*
X111114285Y-137052380D02*
X110542857Y-137052380D01*
X110828571Y-137052380D02*
X110828571Y-136052380D01*
X110733333Y-136195238D01*
X110638095Y-136290476D01*
X110542857Y-136338095D01*
X109785714Y-133066666D02*
X110261904Y-133066666D01*
X109690476Y-133352380D02*
X110023809Y-132352380D01*
X110357142Y-133352380D01*
X110880952Y-132352380D02*
X110976190Y-132352380D01*
X111071428Y-132400000D01*
X111119047Y-132447619D01*
X111166666Y-132542857D01*
X111214285Y-132733333D01*
X111214285Y-132971428D01*
X111166666Y-133161904D01*
X111119047Y-133257142D01*
X111071428Y-133304761D01*
X110976190Y-133352380D01*
X110880952Y-133352380D01*
X110785714Y-133304761D01*
X110738095Y-133257142D01*
X110690476Y-133161904D01*
X110642857Y-132971428D01*
X110642857Y-132733333D01*
X110690476Y-132542857D01*
X110738095Y-132447619D01*
X110785714Y-132400000D01*
X110880952Y-132352380D01*
X107952380Y-139027380D02*
X108047619Y-139027380D01*
X108142857Y-139075000D01*
X108190476Y-139122619D01*
X108238095Y-139217857D01*
X108285714Y-139408333D01*
X108285714Y-139646428D01*
X108238095Y-139836904D01*
X108190476Y-139932142D01*
X108142857Y-139979761D01*
X108047619Y-140027380D01*
X107952380Y-140027380D01*
X107857142Y-139979761D01*
X107809523Y-139932142D01*
X107761904Y-139836904D01*
X107714285Y-139646428D01*
X107714285Y-139408333D01*
X107761904Y-139217857D01*
X107809523Y-139122619D01*
X107857142Y-139075000D01*
X107952380Y-139027380D01*
X108285714Y-141677380D02*
X107714285Y-141677380D01*
X108000000Y-141677380D02*
X108000000Y-140677380D01*
X107904761Y-140820238D01*
X107809523Y-140915476D01*
X107714285Y-140963095D01*
X107952380Y-135127380D02*
X108047619Y-135127380D01*
X108142857Y-135175000D01*
X108190476Y-135222619D01*
X108238095Y-135317857D01*
X108285714Y-135508333D01*
X108285714Y-135746428D01*
X108238095Y-135936904D01*
X108190476Y-136032142D01*
X108142857Y-136079761D01*
X108047619Y-136127380D01*
X107952380Y-136127380D01*
X107857142Y-136079761D01*
X107809523Y-136032142D01*
X107761904Y-135936904D01*
X107714285Y-135746428D01*
X107714285Y-135508333D01*
X107761904Y-135317857D01*
X107809523Y-135222619D01*
X107857142Y-135175000D01*
X107952380Y-135127380D01*
X108285714Y-137777380D02*
X107714285Y-137777380D01*
X108000000Y-137777380D02*
X108000000Y-136777380D01*
X107904761Y-136920238D01*
X107809523Y-137015476D01*
X107714285Y-137063095D01*
X107952380Y-131427380D02*
X108047619Y-131427380D01*
X108142857Y-131475000D01*
X108190476Y-131522619D01*
X108238095Y-131617857D01*
X108285714Y-131808333D01*
X108285714Y-132046428D01*
X108238095Y-132236904D01*
X108190476Y-132332142D01*
X108142857Y-132379761D01*
X108047619Y-132427380D01*
X107952380Y-132427380D01*
X107857142Y-132379761D01*
X107809523Y-132332142D01*
X107761904Y-132236904D01*
X107714285Y-132046428D01*
X107714285Y-131808333D01*
X107761904Y-131617857D01*
X107809523Y-131522619D01*
X107857142Y-131475000D01*
X107952380Y-131427380D01*
X108285714Y-134077380D02*
X107714285Y-134077380D01*
X108000000Y-134077380D02*
X108000000Y-133077380D01*
X107904761Y-133220238D01*
X107809523Y-133315476D01*
X107714285Y-133363095D01*
X173900000Y-125852380D02*
X173900000Y-124852380D01*
X173900000Y-125804761D02*
X173804761Y-125852380D01*
X173614285Y-125852380D01*
X173519047Y-125804761D01*
X173471428Y-125757142D01*
X173423809Y-125661904D01*
X173423809Y-125376190D01*
X173471428Y-125280952D01*
X173519047Y-125233333D01*
X173614285Y-125185714D01*
X173804761Y-125185714D01*
X173900000Y-125233333D01*
X174376190Y-125852380D02*
X174376190Y-125185714D01*
X174376190Y-125376190D02*
X174423809Y-125280952D01*
X174471428Y-125233333D01*
X174566666Y-125185714D01*
X174661904Y-125185714D01*
X175138095Y-125852380D02*
X175042857Y-125804761D01*
X174995238Y-125757142D01*
X174947619Y-125661904D01*
X174947619Y-125376190D01*
X174995238Y-125280952D01*
X175042857Y-125233333D01*
X175138095Y-125185714D01*
X175280952Y-125185714D01*
X175376190Y-125233333D01*
X175423809Y-125280952D01*
X175471428Y-125376190D01*
X175471428Y-125661904D01*
X175423809Y-125757142D01*
X175376190Y-125804761D01*
X175280952Y-125852380D01*
X175138095Y-125852380D01*
X175900000Y-125852380D02*
X175900000Y-125185714D01*
X175900000Y-124852380D02*
X175852380Y-124900000D01*
X175900000Y-124947619D01*
X175947619Y-124900000D01*
X175900000Y-124852380D01*
X175900000Y-124947619D01*
X176233333Y-125185714D02*
X176614285Y-125185714D01*
X176376190Y-124852380D02*
X176376190Y-125709523D01*
X176423809Y-125804761D01*
X176519047Y-125852380D01*
X176614285Y-125852380D01*
X177328571Y-125804761D02*
X177233333Y-125852380D01*
X177042857Y-125852380D01*
X176947619Y-125804761D01*
X176900000Y-125709523D01*
X176900000Y-125328571D01*
X176947619Y-125233333D01*
X177042857Y-125185714D01*
X177233333Y-125185714D01*
X177328571Y-125233333D01*
X177376190Y-125328571D01*
X177376190Y-125423809D01*
X176900000Y-125519047D01*
X174033333Y-121904761D02*
X173938095Y-121952380D01*
X173747619Y-121952380D01*
X173652380Y-121904761D01*
X173604761Y-121857142D01*
X173557142Y-121761904D01*
X173557142Y-121476190D01*
X173604761Y-121380952D01*
X173652380Y-121333333D01*
X173747619Y-121285714D01*
X173938095Y-121285714D01*
X174033333Y-121333333D01*
X174842857Y-121904761D02*
X174747619Y-121952380D01*
X174557142Y-121952380D01*
X174461904Y-121904761D01*
X174414285Y-121809523D01*
X174414285Y-121428571D01*
X174461904Y-121333333D01*
X174557142Y-121285714D01*
X174747619Y-121285714D01*
X174842857Y-121333333D01*
X174890476Y-121428571D01*
X174890476Y-121523809D01*
X174414285Y-121619047D01*
X175319047Y-121285714D02*
X175319047Y-121952380D01*
X175319047Y-121380952D02*
X175366666Y-121333333D01*
X175461904Y-121285714D01*
X175604761Y-121285714D01*
X175700000Y-121333333D01*
X175747619Y-121428571D01*
X175747619Y-121952380D01*
X176080952Y-121285714D02*
X176461904Y-121285714D01*
X176223809Y-120952380D02*
X176223809Y-121809523D01*
X176271428Y-121904761D01*
X176366666Y-121952380D01*
X176461904Y-121952380D01*
X176795238Y-121952380D02*
X176795238Y-121285714D01*
X176795238Y-121476190D02*
X176842857Y-121380952D01*
X176890476Y-121333333D01*
X176985714Y-121285714D01*
X177080952Y-121285714D01*
X177795238Y-121904761D02*
X177700000Y-121952380D01*
X177509523Y-121952380D01*
X177414285Y-121904761D01*
X177366666Y-121809523D01*
X177366666Y-121428571D01*
X177414285Y-121333333D01*
X177509523Y-121285714D01*
X177700000Y-121285714D01*
X177795238Y-121333333D01*
X177842857Y-121428571D01*
X177842857Y-121523809D01*
X177366666Y-121619047D01*
X152328571Y-128852380D02*
X152328571Y-127852380D01*
X152328571Y-128233333D02*
X152423809Y-128185714D01*
X152614285Y-128185714D01*
X152709523Y-128233333D01*
X152757142Y-128280952D01*
X152804761Y-128376190D01*
X152804761Y-128661904D01*
X152757142Y-128757142D01*
X152709523Y-128804761D01*
X152614285Y-128852380D01*
X152423809Y-128852380D01*
X152328571Y-128804761D01*
X153661904Y-128852380D02*
X153661904Y-128328571D01*
X153614285Y-128233333D01*
X153519047Y-128185714D01*
X153328571Y-128185714D01*
X153233333Y-128233333D01*
X153661904Y-128804761D02*
X153566666Y-128852380D01*
X153328571Y-128852380D01*
X153233333Y-128804761D01*
X153185714Y-128709523D01*
X153185714Y-128614285D01*
X153233333Y-128519047D01*
X153328571Y-128471428D01*
X153566666Y-128471428D01*
X153661904Y-128423809D01*
X154090476Y-128804761D02*
X154185714Y-128852380D01*
X154376190Y-128852380D01*
X154471428Y-128804761D01*
X154519047Y-128709523D01*
X154519047Y-128661904D01*
X154471428Y-128566666D01*
X154376190Y-128519047D01*
X154233333Y-128519047D01*
X154138095Y-128471428D01*
X154090476Y-128376190D01*
X154090476Y-128328571D01*
X154138095Y-128233333D01*
X154233333Y-128185714D01*
X154376190Y-128185714D01*
X154471428Y-128233333D01*
X150000000Y-125385714D02*
X150000000Y-126195238D01*
X149952380Y-126290476D01*
X149904761Y-126338095D01*
X149809523Y-126385714D01*
X149666666Y-126385714D01*
X149571428Y-126338095D01*
X150000000Y-126004761D02*
X149904761Y-126052380D01*
X149714285Y-126052380D01*
X149619047Y-126004761D01*
X149571428Y-125957142D01*
X149523809Y-125861904D01*
X149523809Y-125576190D01*
X149571428Y-125480952D01*
X149619047Y-125433333D01*
X149714285Y-125385714D01*
X149904761Y-125385714D01*
X150000000Y-125433333D01*
X150904761Y-126052380D02*
X150904761Y-125528571D01*
X150857142Y-125433333D01*
X150761904Y-125385714D01*
X150571428Y-125385714D01*
X150476190Y-125433333D01*
X150904761Y-126004761D02*
X150809523Y-126052380D01*
X150571428Y-126052380D01*
X150476190Y-126004761D01*
X150428571Y-125909523D01*
X150428571Y-125814285D01*
X150476190Y-125719047D01*
X150571428Y-125671428D01*
X150809523Y-125671428D01*
X150904761Y-125623809D01*
X151809523Y-125385714D02*
X151809523Y-126052380D01*
X151380952Y-125385714D02*
X151380952Y-125909523D01*
X151428571Y-126004761D01*
X151523809Y-126052380D01*
X151666666Y-126052380D01*
X151761904Y-126004761D01*
X151809523Y-125957142D01*
X152714285Y-126004761D02*
X152619047Y-126052380D01*
X152428571Y-126052380D01*
X152333333Y-126004761D01*
X152285714Y-125957142D01*
X152238095Y-125861904D01*
X152238095Y-125576190D01*
X152285714Y-125480952D01*
X152333333Y-125433333D01*
X152428571Y-125385714D01*
X152619047Y-125385714D01*
X152714285Y-125433333D01*
X153142857Y-126052380D02*
X153142857Y-125052380D01*
X153571428Y-126052380D02*
X153571428Y-125528571D01*
X153523809Y-125433333D01*
X153428571Y-125385714D01*
X153285714Y-125385714D01*
X153190476Y-125433333D01*
X153142857Y-125480952D01*
X154428571Y-126004761D02*
X154333333Y-126052380D01*
X154142857Y-126052380D01*
X154047619Y-126004761D01*
X154000000Y-125909523D01*
X154000000Y-125528571D01*
X154047619Y-125433333D01*
X154142857Y-125385714D01*
X154333333Y-125385714D01*
X154428571Y-125433333D01*
X154476190Y-125528571D01*
X154476190Y-125623809D01*
X154000000Y-125719047D01*
X151395238Y-122052380D02*
X151395238Y-121052380D01*
X151823809Y-122052380D02*
X151823809Y-121528571D01*
X151776190Y-121433333D01*
X151680952Y-121385714D01*
X151538095Y-121385714D01*
X151442857Y-121433333D01*
X151395238Y-121480952D01*
X152728571Y-122052380D02*
X152728571Y-121528571D01*
X152680952Y-121433333D01*
X152585714Y-121385714D01*
X152395238Y-121385714D01*
X152300000Y-121433333D01*
X152728571Y-122004761D02*
X152633333Y-122052380D01*
X152395238Y-122052380D01*
X152300000Y-122004761D01*
X152252380Y-121909523D01*
X152252380Y-121814285D01*
X152300000Y-121719047D01*
X152395238Y-121671428D01*
X152633333Y-121671428D01*
X152728571Y-121623809D01*
X153633333Y-121385714D02*
X153633333Y-122052380D01*
X153204761Y-121385714D02*
X153204761Y-121909523D01*
X153252380Y-122004761D01*
X153347619Y-122052380D01*
X153490476Y-122052380D01*
X153585714Y-122004761D01*
X153633333Y-121957142D01*
X153966666Y-121385714D02*
X154347619Y-121385714D01*
X154109523Y-121052380D02*
X154109523Y-121909523D01*
X154157142Y-122004761D01*
X154252380Y-122052380D01*
X154347619Y-122052380D01*
X151504761Y-101757142D02*
X151457142Y-101804761D01*
X151314285Y-101852380D01*
X151219047Y-101852380D01*
X151076190Y-101804761D01*
X150980952Y-101709523D01*
X150933333Y-101614285D01*
X150885714Y-101423809D01*
X150885714Y-101280952D01*
X150933333Y-101090476D01*
X150980952Y-100995238D01*
X151076190Y-100900000D01*
X151219047Y-100852380D01*
X151314285Y-100852380D01*
X151457142Y-100900000D01*
X151504761Y-100947619D01*
X152123809Y-100852380D02*
X152314285Y-100852380D01*
X152409523Y-100900000D01*
X152504761Y-100995238D01*
X152552380Y-101185714D01*
X152552380Y-101519047D01*
X152504761Y-101709523D01*
X152409523Y-101804761D01*
X152314285Y-101852380D01*
X152123809Y-101852380D01*
X152028571Y-101804761D01*
X151933333Y-101709523D01*
X151885714Y-101519047D01*
X151885714Y-101185714D01*
X151933333Y-100995238D01*
X152028571Y-100900000D01*
X152123809Y-100852380D01*
X153457142Y-101852380D02*
X152980952Y-101852380D01*
X152980952Y-100852380D01*
X154219047Y-101185714D02*
X154219047Y-101852380D01*
X153980952Y-100804761D02*
X153742857Y-101519047D01*
X154361904Y-101519047D01*
X126404761Y-102057142D02*
X126357142Y-102104761D01*
X126214285Y-102152380D01*
X126119047Y-102152380D01*
X125976190Y-102104761D01*
X125880952Y-102009523D01*
X125833333Y-101914285D01*
X125785714Y-101723809D01*
X125785714Y-101580952D01*
X125833333Y-101390476D01*
X125880952Y-101295238D01*
X125976190Y-101200000D01*
X126119047Y-101152380D01*
X126214285Y-101152380D01*
X126357142Y-101200000D01*
X126404761Y-101247619D01*
X127023809Y-101152380D02*
X127214285Y-101152380D01*
X127309523Y-101200000D01*
X127404761Y-101295238D01*
X127452380Y-101485714D01*
X127452380Y-101819047D01*
X127404761Y-102009523D01*
X127309523Y-102104761D01*
X127214285Y-102152380D01*
X127023809Y-102152380D01*
X126928571Y-102104761D01*
X126833333Y-102009523D01*
X126785714Y-101819047D01*
X126785714Y-101485714D01*
X126833333Y-101295238D01*
X126928571Y-101200000D01*
X127023809Y-101152380D01*
X128357142Y-102152380D02*
X127880952Y-102152380D01*
X127880952Y-101152380D01*
X128595238Y-101152380D02*
X129214285Y-101152380D01*
X128880952Y-101533333D01*
X129023809Y-101533333D01*
X129119047Y-101580952D01*
X129166666Y-101628571D01*
X129214285Y-101723809D01*
X129214285Y-101961904D01*
X129166666Y-102057142D01*
X129119047Y-102104761D01*
X129023809Y-102152380D01*
X128738095Y-102152380D01*
X128642857Y-102104761D01*
X128595238Y-102057142D01*
X106804761Y-101957142D02*
X106757142Y-102004761D01*
X106614285Y-102052380D01*
X106519047Y-102052380D01*
X106376190Y-102004761D01*
X106280952Y-101909523D01*
X106233333Y-101814285D01*
X106185714Y-101623809D01*
X106185714Y-101480952D01*
X106233333Y-101290476D01*
X106280952Y-101195238D01*
X106376190Y-101100000D01*
X106519047Y-101052380D01*
X106614285Y-101052380D01*
X106757142Y-101100000D01*
X106804761Y-101147619D01*
X107423809Y-101052380D02*
X107614285Y-101052380D01*
X107709523Y-101100000D01*
X107804761Y-101195238D01*
X107852380Y-101385714D01*
X107852380Y-101719047D01*
X107804761Y-101909523D01*
X107709523Y-102004761D01*
X107614285Y-102052380D01*
X107423809Y-102052380D01*
X107328571Y-102004761D01*
X107233333Y-101909523D01*
X107185714Y-101719047D01*
X107185714Y-101385714D01*
X107233333Y-101195238D01*
X107328571Y-101100000D01*
X107423809Y-101052380D01*
X108757142Y-102052380D02*
X108280952Y-102052380D01*
X108280952Y-101052380D01*
X109042857Y-101147619D02*
X109090476Y-101100000D01*
X109185714Y-101052380D01*
X109423809Y-101052380D01*
X109519047Y-101100000D01*
X109566666Y-101147619D01*
X109614285Y-101242857D01*
X109614285Y-101338095D01*
X109566666Y-101480952D01*
X108995238Y-102052380D01*
X109614285Y-102052380D01*
X85904761Y-102157142D02*
X85857142Y-102204761D01*
X85714285Y-102252380D01*
X85619047Y-102252380D01*
X85476190Y-102204761D01*
X85380952Y-102109523D01*
X85333333Y-102014285D01*
X85285714Y-101823809D01*
X85285714Y-101680952D01*
X85333333Y-101490476D01*
X85380952Y-101395238D01*
X85476190Y-101300000D01*
X85619047Y-101252380D01*
X85714285Y-101252380D01*
X85857142Y-101300000D01*
X85904761Y-101347619D01*
X86523809Y-101252380D02*
X86714285Y-101252380D01*
X86809523Y-101300000D01*
X86904761Y-101395238D01*
X86952380Y-101585714D01*
X86952380Y-101919047D01*
X86904761Y-102109523D01*
X86809523Y-102204761D01*
X86714285Y-102252380D01*
X86523809Y-102252380D01*
X86428571Y-102204761D01*
X86333333Y-102109523D01*
X86285714Y-101919047D01*
X86285714Y-101585714D01*
X86333333Y-101395238D01*
X86428571Y-101300000D01*
X86523809Y-101252380D01*
X87857142Y-102252380D02*
X87380952Y-102252380D01*
X87380952Y-101252380D01*
X88714285Y-102252380D02*
X88142857Y-102252380D01*
X88428571Y-102252380D02*
X88428571Y-101252380D01*
X88333333Y-101395238D01*
X88238095Y-101490476D01*
X88142857Y-101538095D01*
X61504761Y-102357142D02*
X61457142Y-102404761D01*
X61314285Y-102452380D01*
X61219047Y-102452380D01*
X61076190Y-102404761D01*
X60980952Y-102309523D01*
X60933333Y-102214285D01*
X60885714Y-102023809D01*
X60885714Y-101880952D01*
X60933333Y-101690476D01*
X60980952Y-101595238D01*
X61076190Y-101500000D01*
X61219047Y-101452380D01*
X61314285Y-101452380D01*
X61457142Y-101500000D01*
X61504761Y-101547619D01*
X62123809Y-101452380D02*
X62314285Y-101452380D01*
X62409523Y-101500000D01*
X62504761Y-101595238D01*
X62552380Y-101785714D01*
X62552380Y-102119047D01*
X62504761Y-102309523D01*
X62409523Y-102404761D01*
X62314285Y-102452380D01*
X62123809Y-102452380D01*
X62028571Y-102404761D01*
X61933333Y-102309523D01*
X61885714Y-102119047D01*
X61885714Y-101785714D01*
X61933333Y-101595238D01*
X62028571Y-101500000D01*
X62123809Y-101452380D01*
X63457142Y-102452380D02*
X62980952Y-102452380D01*
X62980952Y-101452380D01*
X63980952Y-101452380D02*
X64076190Y-101452380D01*
X64171428Y-101500000D01*
X64219047Y-101547619D01*
X64266666Y-101642857D01*
X64314285Y-101833333D01*
X64314285Y-102071428D01*
X64266666Y-102261904D01*
X64219047Y-102357142D01*
X64171428Y-102404761D01*
X64076190Y-102452380D01*
X63980952Y-102452380D01*
X63885714Y-102404761D01*
X63838095Y-102357142D01*
X63790476Y-102261904D01*
X63742857Y-102071428D01*
X63742857Y-101833333D01*
X63790476Y-101642857D01*
X63838095Y-101547619D01*
X63885714Y-101500000D01*
X63980952Y-101452380D01*
X43938095Y-87852380D02*
X43604761Y-87376190D01*
X43366666Y-87852380D02*
X43366666Y-86852380D01*
X43747619Y-86852380D01*
X43842857Y-86900000D01*
X43890476Y-86947619D01*
X43938095Y-87042857D01*
X43938095Y-87185714D01*
X43890476Y-87280952D01*
X43842857Y-87328571D01*
X43747619Y-87376190D01*
X43366666Y-87376190D01*
X44557142Y-86852380D02*
X44747619Y-86852380D01*
X44842857Y-86900000D01*
X44938095Y-86995238D01*
X44985714Y-87185714D01*
X44985714Y-87519047D01*
X44938095Y-87709523D01*
X44842857Y-87804761D01*
X44747619Y-87852380D01*
X44557142Y-87852380D01*
X44461904Y-87804761D01*
X44366666Y-87709523D01*
X44319047Y-87519047D01*
X44319047Y-87185714D01*
X44366666Y-86995238D01*
X44461904Y-86900000D01*
X44557142Y-86852380D01*
X45319047Y-86852380D02*
X45557142Y-87852380D01*
X45747619Y-87138095D01*
X45938095Y-87852380D01*
X46176190Y-86852380D01*
X46461904Y-86852380D02*
X47080952Y-86852380D01*
X46747619Y-87233333D01*
X46890476Y-87233333D01*
X46985714Y-87280952D01*
X47033333Y-87328571D01*
X47080952Y-87423809D01*
X47080952Y-87661904D01*
X47033333Y-87757142D01*
X46985714Y-87804761D01*
X46890476Y-87852380D01*
X46604761Y-87852380D01*
X46509523Y-87804761D01*
X46461904Y-87757142D01*
X43838095Y-67952380D02*
X43504761Y-67476190D01*
X43266666Y-67952380D02*
X43266666Y-66952380D01*
X43647619Y-66952380D01*
X43742857Y-67000000D01*
X43790476Y-67047619D01*
X43838095Y-67142857D01*
X43838095Y-67285714D01*
X43790476Y-67380952D01*
X43742857Y-67428571D01*
X43647619Y-67476190D01*
X43266666Y-67476190D01*
X44457142Y-66952380D02*
X44647619Y-66952380D01*
X44742857Y-67000000D01*
X44838095Y-67095238D01*
X44885714Y-67285714D01*
X44885714Y-67619047D01*
X44838095Y-67809523D01*
X44742857Y-67904761D01*
X44647619Y-67952380D01*
X44457142Y-67952380D01*
X44361904Y-67904761D01*
X44266666Y-67809523D01*
X44219047Y-67619047D01*
X44219047Y-67285714D01*
X44266666Y-67095238D01*
X44361904Y-67000000D01*
X44457142Y-66952380D01*
X45219047Y-66952380D02*
X45457142Y-67952380D01*
X45647619Y-67238095D01*
X45838095Y-67952380D01*
X46076190Y-66952380D01*
X46409523Y-67047619D02*
X46457142Y-67000000D01*
X46552380Y-66952380D01*
X46790476Y-66952380D01*
X46885714Y-67000000D01*
X46933333Y-67047619D01*
X46980952Y-67142857D01*
X46980952Y-67238095D01*
X46933333Y-67380952D01*
X46361904Y-67952380D01*
X46980952Y-67952380D01*
X44038095Y-47752380D02*
X43704761Y-47276190D01*
X43466666Y-47752380D02*
X43466666Y-46752380D01*
X43847619Y-46752380D01*
X43942857Y-46800000D01*
X43990476Y-46847619D01*
X44038095Y-46942857D01*
X44038095Y-47085714D01*
X43990476Y-47180952D01*
X43942857Y-47228571D01*
X43847619Y-47276190D01*
X43466666Y-47276190D01*
X44657142Y-46752380D02*
X44847619Y-46752380D01*
X44942857Y-46800000D01*
X45038095Y-46895238D01*
X45085714Y-47085714D01*
X45085714Y-47419047D01*
X45038095Y-47609523D01*
X44942857Y-47704761D01*
X44847619Y-47752380D01*
X44657142Y-47752380D01*
X44561904Y-47704761D01*
X44466666Y-47609523D01*
X44419047Y-47419047D01*
X44419047Y-47085714D01*
X44466666Y-46895238D01*
X44561904Y-46800000D01*
X44657142Y-46752380D01*
X45419047Y-46752380D02*
X45657142Y-47752380D01*
X45847619Y-47038095D01*
X46038095Y-47752380D01*
X46276190Y-46752380D01*
X47180952Y-47752380D02*
X46609523Y-47752380D01*
X46895238Y-47752380D02*
X46895238Y-46752380D01*
X46800000Y-46895238D01*
X46704761Y-46990476D01*
X46609523Y-47038095D01*
X44038095Y-27152380D02*
X43704761Y-26676190D01*
X43466666Y-27152380D02*
X43466666Y-26152380D01*
X43847619Y-26152380D01*
X43942857Y-26200000D01*
X43990476Y-26247619D01*
X44038095Y-26342857D01*
X44038095Y-26485714D01*
X43990476Y-26580952D01*
X43942857Y-26628571D01*
X43847619Y-26676190D01*
X43466666Y-26676190D01*
X44657142Y-26152380D02*
X44847619Y-26152380D01*
X44942857Y-26200000D01*
X45038095Y-26295238D01*
X45085714Y-26485714D01*
X45085714Y-26819047D01*
X45038095Y-27009523D01*
X44942857Y-27104761D01*
X44847619Y-27152380D01*
X44657142Y-27152380D01*
X44561904Y-27104761D01*
X44466666Y-27009523D01*
X44419047Y-26819047D01*
X44419047Y-26485714D01*
X44466666Y-26295238D01*
X44561904Y-26200000D01*
X44657142Y-26152380D01*
X45419047Y-26152380D02*
X45657142Y-27152380D01*
X45847619Y-26438095D01*
X46038095Y-27152380D01*
X46276190Y-26152380D01*
X46847619Y-26152380D02*
X46942857Y-26152380D01*
X47038095Y-26200000D01*
X47085714Y-26247619D01*
X47133333Y-26342857D01*
X47180952Y-26533333D01*
X47180952Y-26771428D01*
X47133333Y-26961904D01*
X47085714Y-27057142D01*
X47038095Y-27104761D01*
X46942857Y-27152380D01*
X46847619Y-27152380D01*
X46752380Y-27104761D01*
X46704761Y-27057142D01*
X46657142Y-26961904D01*
X46609523Y-26771428D01*
X46609523Y-26533333D01*
X46657142Y-26342857D01*
X46704761Y-26247619D01*
X46752380Y-26200000D01*
X46847619Y-26152380D01*
D11*
X53085714Y-123332142D02*
X53085714Y-120332142D01*
X54085714Y-122475000D01*
X55085714Y-120332142D01*
X55085714Y-123332142D01*
X57800000Y-123332142D02*
X57800000Y-121760714D01*
X57657142Y-121475000D01*
X57371428Y-121332142D01*
X56800000Y-121332142D01*
X56514285Y-121475000D01*
X57800000Y-123189285D02*
X57514285Y-123332142D01*
X56800000Y-123332142D01*
X56514285Y-123189285D01*
X56371428Y-122903571D01*
X56371428Y-122617857D01*
X56514285Y-122332142D01*
X56800000Y-122189285D01*
X57514285Y-122189285D01*
X57800000Y-122046428D01*
X59228571Y-123332142D02*
X59228571Y-121332142D01*
X59228571Y-120332142D02*
X59085714Y-120475000D01*
X59228571Y-120617857D01*
X59371428Y-120475000D01*
X59228571Y-120332142D01*
X59228571Y-120617857D01*
X60657142Y-121332142D02*
X60657142Y-123332142D01*
X60657142Y-121617857D02*
X60800000Y-121475000D01*
X61085714Y-121332142D01*
X61514285Y-121332142D01*
X61800000Y-121475000D01*
X61942857Y-121760714D01*
X61942857Y-123332142D01*
X67228571Y-120475000D02*
X66942857Y-120332142D01*
X66514285Y-120332142D01*
X66085714Y-120475000D01*
X65800000Y-120760714D01*
X65657142Y-121046428D01*
X65514285Y-121617857D01*
X65514285Y-122046428D01*
X65657142Y-122617857D01*
X65800000Y-122903571D01*
X66085714Y-123189285D01*
X66514285Y-123332142D01*
X66800000Y-123332142D01*
X67228571Y-123189285D01*
X67371428Y-123046428D01*
X67371428Y-122046428D01*
X66800000Y-122046428D01*
X69942857Y-123332142D02*
X69942857Y-121760714D01*
X69800000Y-121475000D01*
X69514285Y-121332142D01*
X68942857Y-121332142D01*
X68657142Y-121475000D01*
X69942857Y-123189285D02*
X69657142Y-123332142D01*
X68942857Y-123332142D01*
X68657142Y-123189285D01*
X68514285Y-122903571D01*
X68514285Y-122617857D01*
X68657142Y-122332142D01*
X68942857Y-122189285D01*
X69657142Y-122189285D01*
X69942857Y-122046428D01*
X72657142Y-121332142D02*
X72657142Y-123332142D01*
X71371428Y-121332142D02*
X71371428Y-122903571D01*
X71514285Y-123189285D01*
X71800000Y-123332142D01*
X72228571Y-123332142D01*
X72514285Y-123189285D01*
X72657142Y-123046428D01*
X75371428Y-123189285D02*
X75085714Y-123332142D01*
X74514285Y-123332142D01*
X74228571Y-123189285D01*
X74085714Y-123046428D01*
X73942857Y-122760714D01*
X73942857Y-121903571D01*
X74085714Y-121617857D01*
X74228571Y-121475000D01*
X74514285Y-121332142D01*
X75085714Y-121332142D01*
X75371428Y-121475000D01*
X76657142Y-123332142D02*
X76657142Y-120332142D01*
X77942857Y-123332142D02*
X77942857Y-121760714D01*
X77800000Y-121475000D01*
X77514285Y-121332142D01*
X77085714Y-121332142D01*
X76800000Y-121475000D01*
X76657142Y-121617857D01*
X80514285Y-123189285D02*
X80228571Y-123332142D01*
X79657142Y-123332142D01*
X79371428Y-123189285D01*
X79228571Y-122903571D01*
X79228571Y-121760714D01*
X79371428Y-121475000D01*
X79657142Y-121332142D01*
X80228571Y-121332142D01*
X80514285Y-121475000D01*
X80657142Y-121760714D01*
X80657142Y-122046428D01*
X79228571Y-122332142D01*
X53657142Y-125867857D02*
X53800000Y-125725000D01*
X54085714Y-125582142D01*
X54800000Y-125582142D01*
X55085714Y-125725000D01*
X55228571Y-125867857D01*
X55371428Y-126153571D01*
X55371428Y-126439285D01*
X55228571Y-126867857D01*
X53514285Y-128582142D01*
X55371428Y-128582142D01*
X57228571Y-125582142D02*
X57514285Y-125582142D01*
X57800000Y-125725000D01*
X57942857Y-125867857D01*
X58085714Y-126153571D01*
X58228571Y-126725000D01*
X58228571Y-127439285D01*
X58085714Y-128010714D01*
X57942857Y-128296428D01*
X57800000Y-128439285D01*
X57514285Y-128582142D01*
X57228571Y-128582142D01*
X56942857Y-128439285D01*
X56800000Y-128296428D01*
X56657142Y-128010714D01*
X56514285Y-127439285D01*
X56514285Y-126725000D01*
X56657142Y-126153571D01*
X56800000Y-125867857D01*
X56942857Y-125725000D01*
X57228571Y-125582142D01*
X59371428Y-125867857D02*
X59514285Y-125725000D01*
X59800000Y-125582142D01*
X60514285Y-125582142D01*
X60800000Y-125725000D01*
X60942857Y-125867857D01*
X61085714Y-126153571D01*
X61085714Y-126439285D01*
X60942857Y-126867857D01*
X59228571Y-128582142D01*
X61085714Y-128582142D01*
X63942857Y-128582142D02*
X62228571Y-128582142D01*
X63085714Y-128582142D02*
X63085714Y-125582142D01*
X62800000Y-126010714D01*
X62514285Y-126296428D01*
X62228571Y-126439285D01*
X68085714Y-125582142D02*
X68371428Y-125582142D01*
X68657142Y-125725000D01*
X68800000Y-125867857D01*
X68942857Y-126153571D01*
X69085714Y-126725000D01*
X69085714Y-127439285D01*
X68942857Y-128010714D01*
X68800000Y-128296428D01*
X68657142Y-128439285D01*
X68371428Y-128582142D01*
X68085714Y-128582142D01*
X67800000Y-128439285D01*
X67657142Y-128296428D01*
X67514285Y-128010714D01*
X67371428Y-127439285D01*
X67371428Y-126725000D01*
X67514285Y-126153571D01*
X67657142Y-125867857D01*
X67800000Y-125725000D01*
X68085714Y-125582142D01*
X71657142Y-125582142D02*
X71085714Y-125582142D01*
X70800000Y-125725000D01*
X70657142Y-125867857D01*
X70371428Y-126296428D01*
X70228571Y-126867857D01*
X70228571Y-128010714D01*
X70371428Y-128296428D01*
X70514285Y-128439285D01*
X70800000Y-128582142D01*
X71371428Y-128582142D01*
X71657142Y-128439285D01*
X71800000Y-128296428D01*
X71942857Y-128010714D01*
X71942857Y-127296428D01*
X71800000Y-127010714D01*
X71657142Y-126867857D01*
X71371428Y-126725000D01*
X70800000Y-126725000D01*
X70514285Y-126867857D01*
X70371428Y-127010714D01*
X70228571Y-127296428D01*
X77085714Y-128582142D02*
X75371428Y-128582142D01*
X76228571Y-128582142D02*
X76228571Y-125582142D01*
X75942857Y-126010714D01*
X75657142Y-126296428D01*
X75371428Y-126439285D01*
X78942857Y-125582142D02*
X79228571Y-125582142D01*
X79514285Y-125725000D01*
X79657142Y-125867857D01*
X79800000Y-126153571D01*
X79942857Y-126725000D01*
X79942857Y-127439285D01*
X79800000Y-128010714D01*
X79657142Y-128296428D01*
X79514285Y-128439285D01*
X79228571Y-128582142D01*
X78942857Y-128582142D01*
X78657142Y-128439285D01*
X78514285Y-128296428D01*
X78371428Y-128010714D01*
X78228571Y-127439285D01*
X78228571Y-126725000D01*
X78371428Y-126153571D01*
X78514285Y-125867857D01*
X78657142Y-125725000D01*
X78942857Y-125582142D01*
D10*
X50571428Y-134852380D02*
X50571428Y-133852380D01*
X50999999Y-134852380D02*
X50999999Y-134328571D01*
X50952380Y-134233333D01*
X50857142Y-134185714D01*
X50714285Y-134185714D01*
X50619047Y-134233333D01*
X50571428Y-134280952D01*
X51333333Y-134185714D02*
X51714285Y-134185714D01*
X51476190Y-133852380D02*
X51476190Y-134709523D01*
X51523809Y-134804761D01*
X51619047Y-134852380D01*
X51714285Y-134852380D01*
X51904761Y-134185714D02*
X52285714Y-134185714D01*
X52047619Y-133852380D02*
X52047619Y-134709523D01*
X52095238Y-134804761D01*
X52190476Y-134852380D01*
X52285714Y-134852380D01*
X52619047Y-134185714D02*
X52619047Y-135185714D01*
X52619047Y-134233333D02*
X52714285Y-134185714D01*
X52904761Y-134185714D01*
X52999999Y-134233333D01*
X53047619Y-134280952D01*
X53095238Y-134376190D01*
X53095238Y-134661904D01*
X53047619Y-134757142D01*
X52999999Y-134804761D01*
X52904761Y-134852380D01*
X52714285Y-134852380D01*
X52619047Y-134804761D01*
X53476190Y-134804761D02*
X53571428Y-134852380D01*
X53761904Y-134852380D01*
X53857142Y-134804761D01*
X53904761Y-134709523D01*
X53904761Y-134661904D01*
X53857142Y-134566666D01*
X53761904Y-134519047D01*
X53619047Y-134519047D01*
X53523809Y-134471428D01*
X53476190Y-134376190D01*
X53476190Y-134328571D01*
X53523809Y-134233333D01*
X53619047Y-134185714D01*
X53761904Y-134185714D01*
X53857142Y-134233333D01*
X54333333Y-134757142D02*
X54380952Y-134804761D01*
X54333333Y-134852380D01*
X54285714Y-134804761D01*
X54333333Y-134757142D01*
X54333333Y-134852380D01*
X54333333Y-134233333D02*
X54380952Y-134280952D01*
X54333333Y-134328571D01*
X54285714Y-134280952D01*
X54333333Y-134233333D01*
X54333333Y-134328571D01*
X55523809Y-133804761D02*
X54666666Y-135090476D01*
X56571428Y-133804761D02*
X55714285Y-135090476D01*
X57333333Y-134185714D02*
X57333333Y-134995238D01*
X57285714Y-135090476D01*
X57238095Y-135138095D01*
X57142857Y-135185714D01*
X56999999Y-135185714D01*
X56904761Y-135138095D01*
X57333333Y-134804761D02*
X57238095Y-134852380D01*
X57047619Y-134852380D01*
X56952380Y-134804761D01*
X56904761Y-134757142D01*
X56857142Y-134661904D01*
X56857142Y-134376190D01*
X56904761Y-134280952D01*
X56952380Y-134233333D01*
X57047619Y-134185714D01*
X57238095Y-134185714D01*
X57333333Y-134233333D01*
X57809523Y-134852380D02*
X57809523Y-134185714D01*
X57809523Y-133852380D02*
X57761904Y-133900000D01*
X57809523Y-133947619D01*
X57857142Y-133900000D01*
X57809523Y-133852380D01*
X57809523Y-133947619D01*
X58142857Y-134185714D02*
X58523809Y-134185714D01*
X58285714Y-133852380D02*
X58285714Y-134709523D01*
X58333333Y-134804761D01*
X58428571Y-134852380D01*
X58523809Y-134852380D01*
X58857142Y-134852380D02*
X58857142Y-133852380D01*
X59285714Y-134852380D02*
X59285714Y-134328571D01*
X59238095Y-134233333D01*
X59142857Y-134185714D01*
X58999999Y-134185714D01*
X58904761Y-134233333D01*
X58857142Y-134280952D01*
X60190476Y-134185714D02*
X60190476Y-134852380D01*
X59761904Y-134185714D02*
X59761904Y-134709523D01*
X59809523Y-134804761D01*
X59904761Y-134852380D01*
X60047619Y-134852380D01*
X60142857Y-134804761D01*
X60190476Y-134757142D01*
X60666666Y-134852380D02*
X60666666Y-133852380D01*
X60666666Y-134233333D02*
X60761904Y-134185714D01*
X60952380Y-134185714D01*
X61047619Y-134233333D01*
X61095238Y-134280952D01*
X61142857Y-134376190D01*
X61142857Y-134661904D01*
X61095238Y-134757142D01*
X61047619Y-134804761D01*
X60952380Y-134852380D01*
X60761904Y-134852380D01*
X60666666Y-134804761D01*
X61571428Y-134757142D02*
X61619047Y-134804761D01*
X61571428Y-134852380D01*
X61523809Y-134804761D01*
X61571428Y-134757142D01*
X61571428Y-134852380D01*
X62476190Y-134804761D02*
X62380952Y-134852380D01*
X62190476Y-134852380D01*
X62095238Y-134804761D01*
X62047619Y-134757142D01*
X61999999Y-134661904D01*
X61999999Y-134376190D01*
X62047619Y-134280952D01*
X62095238Y-134233333D01*
X62190476Y-134185714D01*
X62380952Y-134185714D01*
X62476190Y-134233333D01*
X63047619Y-134852380D02*
X62952380Y-134804761D01*
X62904761Y-134757142D01*
X62857142Y-134661904D01*
X62857142Y-134376190D01*
X62904761Y-134280952D01*
X62952380Y-134233333D01*
X63047619Y-134185714D01*
X63190476Y-134185714D01*
X63285714Y-134233333D01*
X63333333Y-134280952D01*
X63380952Y-134376190D01*
X63380952Y-134661904D01*
X63333333Y-134757142D01*
X63285714Y-134804761D01*
X63190476Y-134852380D01*
X63047619Y-134852380D01*
X63809523Y-134852380D02*
X63809523Y-134185714D01*
X63809523Y-134280952D02*
X63857142Y-134233333D01*
X63952380Y-134185714D01*
X64095238Y-134185714D01*
X64190476Y-134233333D01*
X64238095Y-134328571D01*
X64238095Y-134852380D01*
X64238095Y-134328571D02*
X64285714Y-134233333D01*
X64380952Y-134185714D01*
X64523809Y-134185714D01*
X64619047Y-134233333D01*
X64666666Y-134328571D01*
X64666666Y-134852380D01*
X65857142Y-133804761D02*
X64999999Y-135090476D01*
X66047619Y-133852380D02*
X66619047Y-133852380D01*
X66333333Y-134852380D02*
X66333333Y-133852380D01*
X66952380Y-134852380D02*
X66952380Y-133852380D01*
X67380952Y-134852380D02*
X67380952Y-134328571D01*
X67333333Y-134233333D01*
X67238095Y-134185714D01*
X67095238Y-134185714D01*
X66999999Y-134233333D01*
X66952380Y-134280952D01*
X67857142Y-134852380D02*
X67857142Y-134185714D01*
X67857142Y-133852380D02*
X67809523Y-133900000D01*
X67857142Y-133947619D01*
X67904761Y-133900000D01*
X67857142Y-133852380D01*
X67857142Y-133947619D01*
X68714285Y-134804761D02*
X68619047Y-134852380D01*
X68428571Y-134852380D01*
X68333333Y-134804761D01*
X68285714Y-134709523D01*
X68285714Y-134328571D01*
X68333333Y-134233333D01*
X68428571Y-134185714D01*
X68619047Y-134185714D01*
X68714285Y-134233333D01*
X68761904Y-134328571D01*
X68761904Y-134423809D01*
X68285714Y-134519047D01*
X69190476Y-134852380D02*
X69190476Y-134185714D01*
X69190476Y-134376190D02*
X69238095Y-134280952D01*
X69285714Y-134233333D01*
X69380952Y-134185714D01*
X69476190Y-134185714D01*
X69809523Y-134852380D02*
X69809523Y-134185714D01*
X69809523Y-134376190D02*
X69857142Y-134280952D01*
X69904761Y-134233333D01*
X70000000Y-134185714D01*
X70095238Y-134185714D01*
X70333333Y-134185714D02*
X70571428Y-134852380D01*
X70809523Y-134185714D02*
X70571428Y-134852380D01*
X70476190Y-135090476D01*
X70428571Y-135138095D01*
X70333333Y-135185714D01*
X71380952Y-133852380D02*
X71571428Y-133852380D01*
X71666666Y-133900000D01*
X71761904Y-133995238D01*
X71809523Y-134185714D01*
X71809523Y-134519047D01*
X71761904Y-134709523D01*
X71666666Y-134804761D01*
X71571428Y-134852380D01*
X71380952Y-134852380D01*
X71285714Y-134804761D01*
X71190476Y-134709523D01*
X71142857Y-134519047D01*
X71142857Y-134185714D01*
X71190476Y-133995238D01*
X71285714Y-133900000D01*
X71380952Y-133852380D01*
X72238095Y-134852380D02*
X72238095Y-134185714D01*
X72238095Y-134376190D02*
X72285714Y-134280952D01*
X72333333Y-134233333D01*
X72428571Y-134185714D01*
X72523809Y-134185714D01*
X73000000Y-134852380D02*
X72904761Y-134804761D01*
X72857142Y-134709523D01*
X72857142Y-133852380D01*
X73809523Y-134852380D02*
X73809523Y-134328571D01*
X73761904Y-134233333D01*
X73666666Y-134185714D01*
X73476190Y-134185714D01*
X73380952Y-134233333D01*
X73809523Y-134804761D02*
X73714285Y-134852380D01*
X73476190Y-134852380D01*
X73380952Y-134804761D01*
X73333333Y-134709523D01*
X73333333Y-134614285D01*
X73380952Y-134519047D01*
X73476190Y-134471428D01*
X73714285Y-134471428D01*
X73809523Y-134423809D01*
X74285714Y-134185714D02*
X74285714Y-134852380D01*
X74285714Y-134280952D02*
X74333333Y-134233333D01*
X74428571Y-134185714D01*
X74571428Y-134185714D01*
X74666666Y-134233333D01*
X74714285Y-134328571D01*
X74714285Y-134852380D01*
X75619047Y-134852380D02*
X75619047Y-133852380D01*
X75619047Y-134804761D02*
X75523809Y-134852380D01*
X75333333Y-134852380D01*
X75238095Y-134804761D01*
X75190476Y-134757142D01*
X75142857Y-134661904D01*
X75142857Y-134376190D01*
X75190476Y-134280952D01*
X75238095Y-134233333D01*
X75333333Y-134185714D01*
X75523809Y-134185714D01*
X75619047Y-134233333D01*
X76095238Y-134852380D02*
X76095238Y-134185714D01*
X76095238Y-133852380D02*
X76047619Y-133900000D01*
X76095238Y-133947619D01*
X76142857Y-133900000D01*
X76095238Y-133852380D01*
X76095238Y-133947619D01*
X77285714Y-133804761D02*
X76428571Y-135090476D01*
X77809523Y-133852380D02*
X77904761Y-133852380D01*
X78000000Y-133900000D01*
X78047619Y-133947619D01*
X78095238Y-134042857D01*
X78142857Y-134233333D01*
X78142857Y-134471428D01*
X78095238Y-134661904D01*
X78047619Y-134757142D01*
X78000000Y-134804761D01*
X77904761Y-134852380D01*
X77809523Y-134852380D01*
X77714285Y-134804761D01*
X77666666Y-134757142D01*
X77619047Y-134661904D01*
X77571428Y-134471428D01*
X77571428Y-134233333D01*
X77619047Y-134042857D01*
X77666666Y-133947619D01*
X77714285Y-133900000D01*
X77809523Y-133852380D01*
X78714285Y-134280952D02*
X78619047Y-134233333D01*
X78571428Y-134185714D01*
X78523809Y-134090476D01*
X78523809Y-134042857D01*
X78571428Y-133947619D01*
X78619047Y-133900000D01*
X78714285Y-133852380D01*
X78904761Y-133852380D01*
X79000000Y-133900000D01*
X79047619Y-133947619D01*
X79095238Y-134042857D01*
X79095238Y-134090476D01*
X79047619Y-134185714D01*
X79000000Y-134233333D01*
X78904761Y-134280952D01*
X78714285Y-134280952D01*
X78619047Y-134328571D01*
X78571428Y-134376190D01*
X78523809Y-134471428D01*
X78523809Y-134661904D01*
X78571428Y-134757142D01*
X78619047Y-134804761D01*
X78714285Y-134852380D01*
X78904761Y-134852380D01*
X79000000Y-134804761D01*
X79047619Y-134757142D01*
X79095238Y-134661904D01*
X79095238Y-134471428D01*
X79047619Y-134376190D01*
X79000000Y-134328571D01*
X78904761Y-134280952D01*
X79285714Y-134947619D02*
X80047619Y-134947619D01*
X80285714Y-134852380D02*
X80285714Y-133852380D01*
X80619047Y-134566666D01*
X80952380Y-133852380D01*
X80952380Y-134852380D01*
X81857142Y-134852380D02*
X81857142Y-134328571D01*
X81809523Y-134233333D01*
X81714285Y-134185714D01*
X81523809Y-134185714D01*
X81428571Y-134233333D01*
X81857142Y-134804761D02*
X81761904Y-134852380D01*
X81523809Y-134852380D01*
X81428571Y-134804761D01*
X81380952Y-134709523D01*
X81380952Y-134614285D01*
X81428571Y-134519047D01*
X81523809Y-134471428D01*
X81761904Y-134471428D01*
X81857142Y-134423809D01*
X82333333Y-134852380D02*
X82333333Y-134185714D01*
X82333333Y-133852380D02*
X82285714Y-133900000D01*
X82333333Y-133947619D01*
X82380952Y-133900000D01*
X82333333Y-133852380D01*
X82333333Y-133947619D01*
X82809523Y-134185714D02*
X82809523Y-134852380D01*
X82809523Y-134280952D02*
X82857142Y-134233333D01*
X82952380Y-134185714D01*
X83095238Y-134185714D01*
X83190476Y-134233333D01*
X83238095Y-134328571D01*
X83238095Y-134852380D01*
X83476190Y-134947619D02*
X84238095Y-134947619D01*
X84999999Y-133900000D02*
X84904761Y-133852380D01*
X84761904Y-133852380D01*
X84619047Y-133900000D01*
X84523809Y-133995238D01*
X84476190Y-134090476D01*
X84428571Y-134280952D01*
X84428571Y-134423809D01*
X84476190Y-134614285D01*
X84523809Y-134709523D01*
X84619047Y-134804761D01*
X84761904Y-134852380D01*
X84857142Y-134852380D01*
X84999999Y-134804761D01*
X85047619Y-134757142D01*
X85047619Y-134423809D01*
X84857142Y-134423809D01*
X85904761Y-134852380D02*
X85904761Y-134328571D01*
X85857142Y-134233333D01*
X85761904Y-134185714D01*
X85571428Y-134185714D01*
X85476190Y-134233333D01*
X85904761Y-134804761D02*
X85809523Y-134852380D01*
X85571428Y-134852380D01*
X85476190Y-134804761D01*
X85428571Y-134709523D01*
X85428571Y-134614285D01*
X85476190Y-134519047D01*
X85571428Y-134471428D01*
X85809523Y-134471428D01*
X85904761Y-134423809D01*
X86809523Y-134185714D02*
X86809523Y-134852380D01*
X86380952Y-134185714D02*
X86380952Y-134709523D01*
X86428571Y-134804761D01*
X86523809Y-134852380D01*
X86666666Y-134852380D01*
X86761904Y-134804761D01*
X86809523Y-134757142D01*
X87714285Y-134804761D02*
X87619047Y-134852380D01*
X87428571Y-134852380D01*
X87333333Y-134804761D01*
X87285714Y-134757142D01*
X87238095Y-134661904D01*
X87238095Y-134376190D01*
X87285714Y-134280952D01*
X87333333Y-134233333D01*
X87428571Y-134185714D01*
X87619047Y-134185714D01*
X87714285Y-134233333D01*
X88142857Y-134852380D02*
X88142857Y-133852380D01*
X88571428Y-134852380D02*
X88571428Y-134328571D01*
X88523809Y-134233333D01*
X88428571Y-134185714D01*
X88285714Y-134185714D01*
X88190476Y-134233333D01*
X88142857Y-134280952D01*
X89428571Y-134804761D02*
X89333333Y-134852380D01*
X89142857Y-134852380D01*
X89047619Y-134804761D01*
X88999999Y-134709523D01*
X88999999Y-134328571D01*
X89047619Y-134233333D01*
X89142857Y-134185714D01*
X89333333Y-134185714D01*
X89428571Y-134233333D01*
X89476190Y-134328571D01*
X89476190Y-134423809D01*
X88999999Y-134519047D01*
D12*
X185000000Y-15000000D02*
G75*
G02*
X190000000Y-20000000I0J-5000000D01*
G01*
X190000000Y-140000000D02*
G75*
G02*
X185000000Y-145000000I-5000000J0D01*
G01*
X45000000Y-145000000D02*
G75*
G02*
X40000000Y-140000000I0J5000000D01*
G01*
X40000000Y-20000000D02*
G75*
G02*
X45000000Y-15000000I5000000J0D01*
G01*
X40000000Y-140000000D02*
X40000000Y-20000000D01*
X185000000Y-145000000D02*
X45000000Y-145000000D01*
X190000000Y-20000000D02*
X190000000Y-140000000D01*
X45000000Y-15000000D02*
X185000000Y-15000000D01*
D13*
%TO.C,SW4*%
X55475000Y-97065000D02*
X55475000Y-83095000D01*
X69445000Y-97065000D02*
X55475000Y-97065000D01*
X69445000Y-83095000D02*
X69445000Y-97065000D01*
X55475000Y-83095000D02*
X69445000Y-83095000D01*
%TO.C,J1*%
X95690000Y-123750000D02*
X95690000Y-117440000D01*
X95690000Y-117440000D02*
X107410000Y-117440000D01*
X107410000Y-117440000D02*
X107410000Y-118860000D01*
X107410000Y-118860000D02*
X102910000Y-118860000D01*
X102910000Y-118860000D02*
X102910000Y-123750000D01*
X95690000Y-123750000D02*
X95690000Y-130060000D01*
X95690000Y-130060000D02*
X107410000Y-130060000D01*
X107410000Y-130060000D02*
X107410000Y-128640000D01*
X107410000Y-128640000D02*
X102910000Y-128640000D01*
X102910000Y-128640000D02*
X102910000Y-123750000D01*
X101800000Y-119750000D02*
X96300000Y-119750000D01*
X96300000Y-119750000D02*
X96300000Y-120250000D01*
X96300000Y-120250000D02*
X101800000Y-120250000D01*
X101800000Y-120250000D02*
X101800000Y-119750000D01*
X101800000Y-122250000D02*
X96300000Y-122250000D01*
X96300000Y-122250000D02*
X96300000Y-122750000D01*
X96300000Y-122750000D02*
X101800000Y-122750000D01*
X101800000Y-122750000D02*
X101800000Y-122250000D01*
X101800000Y-124750000D02*
X96300000Y-124750000D01*
X96300000Y-124750000D02*
X96300000Y-125250000D01*
X96300000Y-125250000D02*
X101800000Y-125250000D01*
X101800000Y-125250000D02*
X101800000Y-124750000D01*
X101800000Y-127250000D02*
X96300000Y-127250000D01*
X96300000Y-127250000D02*
X96300000Y-127750000D01*
X96300000Y-127750000D02*
X101800000Y-127750000D01*
X101800000Y-127750000D02*
X101800000Y-127250000D01*
X106500000Y-120000000D02*
X107100000Y-119700000D01*
X107100000Y-119700000D02*
X107100000Y-120300000D01*
X107100000Y-120300000D02*
X106500000Y-120000000D01*
%TO.C,SW2*%
X55475000Y-43095000D02*
X69445000Y-43095000D01*
X69445000Y-43095000D02*
X69445000Y-57065000D01*
X69445000Y-57065000D02*
X55475000Y-57065000D01*
X55475000Y-57065000D02*
X55475000Y-43095000D01*
%TO.C,SW3*%
X55475000Y-63095000D02*
X69445000Y-63095000D01*
X69445000Y-63095000D02*
X69445000Y-77065000D01*
X69445000Y-77065000D02*
X55475000Y-77065000D01*
X55475000Y-77065000D02*
X55475000Y-63095000D01*
%TO.C,U1*%
X113875000Y-124875000D02*
X113875000Y-128735000D01*
X113875000Y-128735000D02*
X114120000Y-128735000D01*
X113875000Y-124875000D02*
X113875000Y-121015000D01*
X113875000Y-121015000D02*
X114120000Y-121015000D01*
X131995000Y-124875000D02*
X131995000Y-128735000D01*
X131995000Y-128735000D02*
X131750000Y-128735000D01*
X131995000Y-124875000D02*
X131995000Y-121015000D01*
X131995000Y-121015000D02*
X131750000Y-121015000D01*
X131750000Y-121015000D02*
X131750000Y-119200000D01*
%TO.C,D4*%
X50250000Y-86500000D02*
X50250000Y-88500000D01*
X50250000Y-88500000D02*
X54150000Y-88500000D01*
X50250000Y-86500000D02*
X54150000Y-86500000D01*
%TO.C,D20*%
X140250000Y-86500000D02*
X140250000Y-88500000D01*
X140250000Y-88500000D02*
X144150000Y-88500000D01*
X140250000Y-86500000D02*
X144150000Y-86500000D01*
%TO.C,D8*%
X75250000Y-86500000D02*
X75250000Y-88500000D01*
X75250000Y-88500000D02*
X79150000Y-88500000D01*
X75250000Y-86500000D02*
X79150000Y-86500000D01*
%TO.C,D12*%
X95250000Y-86500000D02*
X95250000Y-88500000D01*
X95250000Y-88500000D02*
X99150000Y-88500000D01*
X95250000Y-86500000D02*
X99150000Y-86500000D01*
%TO.C,D16*%
X115250000Y-86500000D02*
X115250000Y-88500000D01*
X115250000Y-88500000D02*
X119150000Y-88500000D01*
X115250000Y-86500000D02*
X119150000Y-86500000D01*
%TO.C,D2*%
X50250000Y-46500000D02*
X50250000Y-48500000D01*
X50250000Y-48500000D02*
X54150000Y-48500000D01*
X50250000Y-46500000D02*
X54150000Y-46500000D01*
%TO.C,D18*%
X140250000Y-46500000D02*
X140250000Y-48500000D01*
X140250000Y-48500000D02*
X144150000Y-48500000D01*
X140250000Y-46500000D02*
X144150000Y-46500000D01*
%TO.C,D6*%
X75250000Y-46500000D02*
X75250000Y-48500000D01*
X75250000Y-48500000D02*
X79150000Y-48500000D01*
X75250000Y-46500000D02*
X79150000Y-46500000D01*
%TO.C,D10*%
X95250000Y-46500000D02*
X95250000Y-48500000D01*
X95250000Y-48500000D02*
X99150000Y-48500000D01*
X95250000Y-46500000D02*
X99150000Y-46500000D01*
%TO.C,D14*%
X115250000Y-46500000D02*
X115250000Y-48500000D01*
X115250000Y-48500000D02*
X119150000Y-48500000D01*
X115250000Y-46500000D02*
X119150000Y-46500000D01*
%TO.C,D3*%
X50250000Y-66500000D02*
X50250000Y-68500000D01*
X50250000Y-68500000D02*
X54150000Y-68500000D01*
X50250000Y-66500000D02*
X54150000Y-66500000D01*
%TO.C,D19*%
X140250000Y-66500000D02*
X140250000Y-68500000D01*
X140250000Y-68500000D02*
X144150000Y-68500000D01*
X140250000Y-66500000D02*
X144150000Y-66500000D01*
%TO.C,D7*%
X75250000Y-66500000D02*
X75250000Y-68500000D01*
X75250000Y-68500000D02*
X79150000Y-68500000D01*
X75250000Y-66500000D02*
X79150000Y-66500000D01*
%TO.C,D11*%
X95250000Y-66500000D02*
X95250000Y-68500000D01*
X95250000Y-68500000D02*
X99150000Y-68500000D01*
X95250000Y-66500000D02*
X99150000Y-66500000D01*
%TO.C,D15*%
X115250000Y-66500000D02*
X115250000Y-68500000D01*
X115250000Y-68500000D02*
X119150000Y-68500000D01*
X115250000Y-66500000D02*
X119150000Y-66500000D01*
%TO.C,SW21*%
X145475000Y-83095000D02*
X159445000Y-83095000D01*
X159445000Y-83095000D02*
X159445000Y-97065000D01*
X159445000Y-97065000D02*
X145475000Y-97065000D01*
X145475000Y-97065000D02*
X145475000Y-83095000D01*
%TO.C,SW8*%
X80475000Y-83095000D02*
X94445000Y-83095000D01*
X94445000Y-83095000D02*
X94445000Y-97065000D01*
X94445000Y-97065000D02*
X80475000Y-97065000D01*
X80475000Y-97065000D02*
X80475000Y-83095000D01*
%TO.C,SW12*%
X100475000Y-83095000D02*
X114445000Y-83095000D01*
X114445000Y-83095000D02*
X114445000Y-97065000D01*
X114445000Y-97065000D02*
X100475000Y-97065000D01*
X100475000Y-97065000D02*
X100475000Y-83095000D01*
%TO.C,SW17*%
X120475000Y-83095000D02*
X134445000Y-83095000D01*
X134445000Y-83095000D02*
X134445000Y-97065000D01*
X134445000Y-97065000D02*
X120475000Y-97065000D01*
X120475000Y-97065000D02*
X120475000Y-83095000D01*
%TO.C,SW19*%
X145475000Y-43095000D02*
X159445000Y-43095000D01*
X159445000Y-43095000D02*
X159445000Y-57065000D01*
X159445000Y-57065000D02*
X145475000Y-57065000D01*
X145475000Y-57065000D02*
X145475000Y-43095000D01*
%TO.C,SW6*%
X80475000Y-43095000D02*
X94445000Y-43095000D01*
X94445000Y-43095000D02*
X94445000Y-57065000D01*
X94445000Y-57065000D02*
X80475000Y-57065000D01*
X80475000Y-57065000D02*
X80475000Y-43095000D01*
%TO.C,SW10*%
X100475000Y-43095000D02*
X114445000Y-43095000D01*
X114445000Y-43095000D02*
X114445000Y-57065000D01*
X114445000Y-57065000D02*
X100475000Y-57065000D01*
X100475000Y-57065000D02*
X100475000Y-43095000D01*
%TO.C,SW15*%
X120475000Y-43095000D02*
X134445000Y-43095000D01*
X134445000Y-43095000D02*
X134445000Y-57065000D01*
X134445000Y-57065000D02*
X120475000Y-57065000D01*
X120475000Y-57065000D02*
X120475000Y-43095000D01*
%TO.C,SW20*%
X145475000Y-63095000D02*
X159445000Y-63095000D01*
X159445000Y-63095000D02*
X159445000Y-77065000D01*
X159445000Y-77065000D02*
X145475000Y-77065000D01*
X145475000Y-77065000D02*
X145475000Y-63095000D01*
%TO.C,SW7*%
X80475000Y-63095000D02*
X94445000Y-63095000D01*
X94445000Y-63095000D02*
X94445000Y-77065000D01*
X94445000Y-77065000D02*
X80475000Y-77065000D01*
X80475000Y-77065000D02*
X80475000Y-63095000D01*
%TO.C,SW16*%
X120475000Y-63095000D02*
X134445000Y-63095000D01*
X134445000Y-63095000D02*
X134445000Y-77065000D01*
X134445000Y-77065000D02*
X120475000Y-77065000D01*
X120475000Y-77065000D02*
X120475000Y-63095000D01*
%TO.C,C1*%
X121510000Y-116890580D02*
X121510000Y-116609420D01*
X120490000Y-116890580D02*
X120490000Y-116609420D01*
%TO.C,R7*%
X119022500Y-134637258D02*
X119022500Y-134162742D01*
X117977500Y-134637258D02*
X117977500Y-134162742D01*
%TO.C,R1*%
X105177742Y-140867500D02*
X105652258Y-140867500D01*
X105177742Y-141912500D02*
X105652258Y-141912500D01*
%TO.C,R2*%
X105177742Y-138962500D02*
X105652258Y-138962500D01*
X105177742Y-140007500D02*
X105652258Y-140007500D01*
%TO.C,R3*%
X105177742Y-138102500D02*
X105652258Y-138102500D01*
X105177742Y-137057500D02*
X105652258Y-137057500D01*
%TO.C,R4*%
X105177742Y-135152500D02*
X105652258Y-135152500D01*
X105177742Y-136197500D02*
X105652258Y-136197500D01*
%TO.C,R5*%
X105177742Y-133247500D02*
X105652258Y-133247500D01*
X105177742Y-134292500D02*
X105652258Y-134292500D01*
%TO.C,R6*%
X105177742Y-132387500D02*
X105652258Y-132387500D01*
X105177742Y-131342500D02*
X105652258Y-131342500D01*
%TO.C,D1*%
X50250000Y-21500000D02*
X54150000Y-21500000D01*
X50250000Y-23500000D02*
X54150000Y-23500000D01*
X50250000Y-21500000D02*
X50250000Y-23500000D01*
%TO.C,D5*%
X75250000Y-21500000D02*
X75250000Y-23500000D01*
X75250000Y-23500000D02*
X79150000Y-23500000D01*
X75250000Y-21500000D02*
X79150000Y-21500000D01*
%TO.C,D9*%
X95250000Y-21500000D02*
X99150000Y-21500000D01*
X95250000Y-23500000D02*
X99150000Y-23500000D01*
X95250000Y-21500000D02*
X95250000Y-23500000D01*
%TO.C,D13*%
X115250000Y-21500000D02*
X115250000Y-23500000D01*
X115250000Y-23500000D02*
X119150000Y-23500000D01*
X115250000Y-21500000D02*
X119150000Y-21500000D01*
%TO.C,D17*%
X140250000Y-21500000D02*
X144150000Y-21500000D01*
X140250000Y-23500000D02*
X144150000Y-23500000D01*
X140250000Y-21500000D02*
X140250000Y-23500000D01*
%TO.C,R8*%
X99477500Y-106062258D02*
X99477500Y-105587742D01*
X100522500Y-106062258D02*
X100522500Y-105587742D01*
%TO.C,R9*%
X167037258Y-134577500D02*
X166562742Y-134577500D01*
X167037258Y-135622500D02*
X166562742Y-135622500D01*
%TO.C,SW1*%
X55475000Y-32065000D02*
X55475000Y-18095000D01*
X69445000Y-32065000D02*
X55475000Y-32065000D01*
X69445000Y-18095000D02*
X69445000Y-32065000D01*
X55475000Y-18095000D02*
X69445000Y-18095000D01*
%TO.C,SW5*%
X80475000Y-18095000D02*
X94445000Y-18095000D01*
X94445000Y-18095000D02*
X94445000Y-32065000D01*
X94445000Y-32065000D02*
X80475000Y-32065000D01*
X80475000Y-32065000D02*
X80475000Y-18095000D01*
%TO.C,SW9*%
X100475000Y-32065000D02*
X100475000Y-18095000D01*
X114445000Y-32065000D02*
X100475000Y-32065000D01*
X114445000Y-18095000D02*
X114445000Y-32065000D01*
X100475000Y-18095000D02*
X114445000Y-18095000D01*
%TO.C,SW11*%
X100475000Y-63095000D02*
X114445000Y-63095000D01*
X114445000Y-63095000D02*
X114445000Y-77065000D01*
X114445000Y-77065000D02*
X100475000Y-77065000D01*
X100475000Y-77065000D02*
X100475000Y-63095000D01*
%TO.C,SW14*%
X120475000Y-18095000D02*
X134445000Y-18095000D01*
X134445000Y-18095000D02*
X134445000Y-32065000D01*
X134445000Y-32065000D02*
X120475000Y-32065000D01*
X120475000Y-32065000D02*
X120475000Y-18095000D01*
%TO.C,SW18*%
X145475000Y-32065000D02*
X145475000Y-18095000D01*
X159445000Y-32065000D02*
X145475000Y-32065000D01*
X159445000Y-18095000D02*
X159445000Y-32065000D01*
X145475000Y-18095000D02*
X159445000Y-18095000D01*
%TO.C,R10*%
X121777500Y-134162742D02*
X121777500Y-134637258D01*
X122822500Y-134162742D02*
X122822500Y-134637258D01*
%TO.C,R11*%
X124122500Y-137262742D02*
X124122500Y-137737258D01*
X123077500Y-137262742D02*
X123077500Y-137737258D01*
%TO.C,R12*%
X124277500Y-134162742D02*
X124277500Y-134637258D01*
X125322500Y-134162742D02*
X125322500Y-134637258D01*
%TO.C,R13*%
X126622500Y-137262742D02*
X126622500Y-137737258D01*
X125577500Y-137262742D02*
X125577500Y-137737258D01*
%TO.C,R14*%
X126877500Y-134162742D02*
X126877500Y-134637258D01*
X127922500Y-134162742D02*
X127922500Y-134637258D01*
%TO.C,R15*%
X130422500Y-134162742D02*
X130422500Y-134637258D01*
X129377500Y-134162742D02*
X129377500Y-134637258D01*
%TO.C,R16*%
X128177500Y-137262742D02*
X128177500Y-137737258D01*
X129222500Y-137262742D02*
X129222500Y-137737258D01*
%TO.C,R17*%
X135922500Y-127262742D02*
X135922500Y-127737258D01*
X134877500Y-127262742D02*
X134877500Y-127737258D01*
%TO.C,R18*%
X134877500Y-134162742D02*
X134877500Y-134637258D01*
X135922500Y-134162742D02*
X135922500Y-134637258D01*
%TO.C,R19*%
X120337258Y-112022500D02*
X119862742Y-112022500D01*
X120337258Y-110977500D02*
X119862742Y-110977500D01*
%TD*%
%TO.C,SW4*%
D10*
X61126666Y-82610761D02*
X61269523Y-82658380D01*
X61507619Y-82658380D01*
X61602857Y-82610761D01*
X61650476Y-82563142D01*
X61698095Y-82467904D01*
X61698095Y-82372666D01*
X61650476Y-82277428D01*
X61602857Y-82229809D01*
X61507619Y-82182190D01*
X61317142Y-82134571D01*
X61221904Y-82086952D01*
X61174285Y-82039333D01*
X61126666Y-81944095D01*
X61126666Y-81848857D01*
X61174285Y-81753619D01*
X61221904Y-81706000D01*
X61317142Y-81658380D01*
X61555238Y-81658380D01*
X61698095Y-81706000D01*
X62031428Y-81658380D02*
X62269523Y-82658380D01*
X62460000Y-81944095D01*
X62650476Y-82658380D01*
X62888571Y-81658380D01*
X63698095Y-81991714D02*
X63698095Y-82658380D01*
X63460000Y-81610761D02*
X63221904Y-82325047D01*
X63840952Y-82325047D01*
%TO.C,J1*%
X107952380Y-124083333D02*
X108666666Y-124083333D01*
X108809523Y-124130952D01*
X108904761Y-124226190D01*
X108952380Y-124369047D01*
X108952380Y-124464285D01*
X108952380Y-123083333D02*
X108952380Y-123654761D01*
X108952380Y-123369047D02*
X107952380Y-123369047D01*
X108095238Y-123464285D01*
X108190476Y-123559523D01*
X108238095Y-123654761D01*
%TO.C,SW2*%
X61126666Y-42610761D02*
X61269523Y-42658380D01*
X61507619Y-42658380D01*
X61602857Y-42610761D01*
X61650476Y-42563142D01*
X61698095Y-42467904D01*
X61698095Y-42372666D01*
X61650476Y-42277428D01*
X61602857Y-42229809D01*
X61507619Y-42182190D01*
X61317142Y-42134571D01*
X61221904Y-42086952D01*
X61174285Y-42039333D01*
X61126666Y-41944095D01*
X61126666Y-41848857D01*
X61174285Y-41753619D01*
X61221904Y-41706000D01*
X61317142Y-41658380D01*
X61555238Y-41658380D01*
X61698095Y-41706000D01*
X62031428Y-41658380D02*
X62269523Y-42658380D01*
X62460000Y-41944095D01*
X62650476Y-42658380D01*
X62888571Y-41658380D01*
X63221904Y-41753619D02*
X63269523Y-41706000D01*
X63364761Y-41658380D01*
X63602857Y-41658380D01*
X63698095Y-41706000D01*
X63745714Y-41753619D01*
X63793333Y-41848857D01*
X63793333Y-41944095D01*
X63745714Y-42086952D01*
X63174285Y-42658380D01*
X63793333Y-42658380D01*
%TO.C,SW3*%
X61126666Y-62610761D02*
X61269523Y-62658380D01*
X61507619Y-62658380D01*
X61602857Y-62610761D01*
X61650476Y-62563142D01*
X61698095Y-62467904D01*
X61698095Y-62372666D01*
X61650476Y-62277428D01*
X61602857Y-62229809D01*
X61507619Y-62182190D01*
X61317142Y-62134571D01*
X61221904Y-62086952D01*
X61174285Y-62039333D01*
X61126666Y-61944095D01*
X61126666Y-61848857D01*
X61174285Y-61753619D01*
X61221904Y-61706000D01*
X61317142Y-61658380D01*
X61555238Y-61658380D01*
X61698095Y-61706000D01*
X62031428Y-61658380D02*
X62269523Y-62658380D01*
X62460000Y-61944095D01*
X62650476Y-62658380D01*
X62888571Y-61658380D01*
X63174285Y-61658380D02*
X63793333Y-61658380D01*
X63460000Y-62039333D01*
X63602857Y-62039333D01*
X63698095Y-62086952D01*
X63745714Y-62134571D01*
X63793333Y-62229809D01*
X63793333Y-62467904D01*
X63745714Y-62563142D01*
X63698095Y-62610761D01*
X63602857Y-62658380D01*
X63317142Y-62658380D01*
X63221904Y-62610761D01*
X63174285Y-62563142D01*
%TO.C,U1*%
X132287380Y-125636904D02*
X133096904Y-125636904D01*
X133192142Y-125589285D01*
X133239761Y-125541666D01*
X133287380Y-125446428D01*
X133287380Y-125255952D01*
X133239761Y-125160714D01*
X133192142Y-125113095D01*
X133096904Y-125065476D01*
X132287380Y-125065476D01*
X133287380Y-124065476D02*
X133287380Y-124636904D01*
X133287380Y-124351190D02*
X132287380Y-124351190D01*
X132430238Y-124446428D01*
X132525476Y-124541666D01*
X132573095Y-124636904D01*
%TO.C,D4*%
X51761904Y-85952380D02*
X51761904Y-84952380D01*
X52000000Y-84952380D01*
X52142857Y-85000000D01*
X52238095Y-85095238D01*
X52285714Y-85190476D01*
X52333333Y-85380952D01*
X52333333Y-85523809D01*
X52285714Y-85714285D01*
X52238095Y-85809523D01*
X52142857Y-85904761D01*
X52000000Y-85952380D01*
X51761904Y-85952380D01*
X53190476Y-85285714D02*
X53190476Y-85952380D01*
X52952380Y-84904761D02*
X52714285Y-85619047D01*
X53333333Y-85619047D01*
%TO.C,D20*%
X141285714Y-85952380D02*
X141285714Y-84952380D01*
X141523809Y-84952380D01*
X141666666Y-85000000D01*
X141761904Y-85095238D01*
X141809523Y-85190476D01*
X141857142Y-85380952D01*
X141857142Y-85523809D01*
X141809523Y-85714285D01*
X141761904Y-85809523D01*
X141666666Y-85904761D01*
X141523809Y-85952380D01*
X141285714Y-85952380D01*
X142238095Y-85047619D02*
X142285714Y-85000000D01*
X142380952Y-84952380D01*
X142619047Y-84952380D01*
X142714285Y-85000000D01*
X142761904Y-85047619D01*
X142809523Y-85142857D01*
X142809523Y-85238095D01*
X142761904Y-85380952D01*
X142190476Y-85952380D01*
X142809523Y-85952380D01*
X143428571Y-84952380D02*
X143523809Y-84952380D01*
X143619047Y-85000000D01*
X143666666Y-85047619D01*
X143714285Y-85142857D01*
X143761904Y-85333333D01*
X143761904Y-85571428D01*
X143714285Y-85761904D01*
X143666666Y-85857142D01*
X143619047Y-85904761D01*
X143523809Y-85952380D01*
X143428571Y-85952380D01*
X143333333Y-85904761D01*
X143285714Y-85857142D01*
X143238095Y-85761904D01*
X143190476Y-85571428D01*
X143190476Y-85333333D01*
X143238095Y-85142857D01*
X143285714Y-85047619D01*
X143333333Y-85000000D01*
X143428571Y-84952380D01*
%TO.C,D8*%
X76761904Y-85952380D02*
X76761904Y-84952380D01*
X77000000Y-84952380D01*
X77142857Y-85000000D01*
X77238095Y-85095238D01*
X77285714Y-85190476D01*
X77333333Y-85380952D01*
X77333333Y-85523809D01*
X77285714Y-85714285D01*
X77238095Y-85809523D01*
X77142857Y-85904761D01*
X77000000Y-85952380D01*
X76761904Y-85952380D01*
X77904761Y-85380952D02*
X77809523Y-85333333D01*
X77761904Y-85285714D01*
X77714285Y-85190476D01*
X77714285Y-85142857D01*
X77761904Y-85047619D01*
X77809523Y-85000000D01*
X77904761Y-84952380D01*
X78095238Y-84952380D01*
X78190476Y-85000000D01*
X78238095Y-85047619D01*
X78285714Y-85142857D01*
X78285714Y-85190476D01*
X78238095Y-85285714D01*
X78190476Y-85333333D01*
X78095238Y-85380952D01*
X77904761Y-85380952D01*
X77809523Y-85428571D01*
X77761904Y-85476190D01*
X77714285Y-85571428D01*
X77714285Y-85761904D01*
X77761904Y-85857142D01*
X77809523Y-85904761D01*
X77904761Y-85952380D01*
X78095238Y-85952380D01*
X78190476Y-85904761D01*
X78238095Y-85857142D01*
X78285714Y-85761904D01*
X78285714Y-85571428D01*
X78238095Y-85476190D01*
X78190476Y-85428571D01*
X78095238Y-85380952D01*
%TO.C,D12*%
X96285714Y-85952380D02*
X96285714Y-84952380D01*
X96523809Y-84952380D01*
X96666666Y-85000000D01*
X96761904Y-85095238D01*
X96809523Y-85190476D01*
X96857142Y-85380952D01*
X96857142Y-85523809D01*
X96809523Y-85714285D01*
X96761904Y-85809523D01*
X96666666Y-85904761D01*
X96523809Y-85952380D01*
X96285714Y-85952380D01*
X97809523Y-85952380D02*
X97238095Y-85952380D01*
X97523809Y-85952380D02*
X97523809Y-84952380D01*
X97428571Y-85095238D01*
X97333333Y-85190476D01*
X97238095Y-85238095D01*
X98190476Y-85047619D02*
X98238095Y-85000000D01*
X98333333Y-84952380D01*
X98571428Y-84952380D01*
X98666666Y-85000000D01*
X98714285Y-85047619D01*
X98761904Y-85142857D01*
X98761904Y-85238095D01*
X98714285Y-85380952D01*
X98142857Y-85952380D01*
X98761904Y-85952380D01*
%TO.C,D16*%
X116285714Y-85952380D02*
X116285714Y-84952380D01*
X116523809Y-84952380D01*
X116666666Y-85000000D01*
X116761904Y-85095238D01*
X116809523Y-85190476D01*
X116857142Y-85380952D01*
X116857142Y-85523809D01*
X116809523Y-85714285D01*
X116761904Y-85809523D01*
X116666666Y-85904761D01*
X116523809Y-85952380D01*
X116285714Y-85952380D01*
X117809523Y-85952380D02*
X117238095Y-85952380D01*
X117523809Y-85952380D02*
X117523809Y-84952380D01*
X117428571Y-85095238D01*
X117333333Y-85190476D01*
X117238095Y-85238095D01*
X118666666Y-84952380D02*
X118476190Y-84952380D01*
X118380952Y-85000000D01*
X118333333Y-85047619D01*
X118238095Y-85190476D01*
X118190476Y-85380952D01*
X118190476Y-85761904D01*
X118238095Y-85857142D01*
X118285714Y-85904761D01*
X118380952Y-85952380D01*
X118571428Y-85952380D01*
X118666666Y-85904761D01*
X118714285Y-85857142D01*
X118761904Y-85761904D01*
X118761904Y-85523809D01*
X118714285Y-85428571D01*
X118666666Y-85380952D01*
X118571428Y-85333333D01*
X118380952Y-85333333D01*
X118285714Y-85380952D01*
X118238095Y-85428571D01*
X118190476Y-85523809D01*
%TO.C,D2*%
X51761904Y-45952380D02*
X51761904Y-44952380D01*
X52000000Y-44952380D01*
X52142857Y-45000000D01*
X52238095Y-45095238D01*
X52285714Y-45190476D01*
X52333333Y-45380952D01*
X52333333Y-45523809D01*
X52285714Y-45714285D01*
X52238095Y-45809523D01*
X52142857Y-45904761D01*
X52000000Y-45952380D01*
X51761904Y-45952380D01*
X52714285Y-45047619D02*
X52761904Y-45000000D01*
X52857142Y-44952380D01*
X53095238Y-44952380D01*
X53190476Y-45000000D01*
X53238095Y-45047619D01*
X53285714Y-45142857D01*
X53285714Y-45238095D01*
X53238095Y-45380952D01*
X52666666Y-45952380D01*
X53285714Y-45952380D01*
%TO.C,D18*%
X141285714Y-45952380D02*
X141285714Y-44952380D01*
X141523809Y-44952380D01*
X141666666Y-45000000D01*
X141761904Y-45095238D01*
X141809523Y-45190476D01*
X141857142Y-45380952D01*
X141857142Y-45523809D01*
X141809523Y-45714285D01*
X141761904Y-45809523D01*
X141666666Y-45904761D01*
X141523809Y-45952380D01*
X141285714Y-45952380D01*
X142809523Y-45952380D02*
X142238095Y-45952380D01*
X142523809Y-45952380D02*
X142523809Y-44952380D01*
X142428571Y-45095238D01*
X142333333Y-45190476D01*
X142238095Y-45238095D01*
X143380952Y-45380952D02*
X143285714Y-45333333D01*
X143238095Y-45285714D01*
X143190476Y-45190476D01*
X143190476Y-45142857D01*
X143238095Y-45047619D01*
X143285714Y-45000000D01*
X143380952Y-44952380D01*
X143571428Y-44952380D01*
X143666666Y-45000000D01*
X143714285Y-45047619D01*
X143761904Y-45142857D01*
X143761904Y-45190476D01*
X143714285Y-45285714D01*
X143666666Y-45333333D01*
X143571428Y-45380952D01*
X143380952Y-45380952D01*
X143285714Y-45428571D01*
X143238095Y-45476190D01*
X143190476Y-45571428D01*
X143190476Y-45761904D01*
X143238095Y-45857142D01*
X143285714Y-45904761D01*
X143380952Y-45952380D01*
X143571428Y-45952380D01*
X143666666Y-45904761D01*
X143714285Y-45857142D01*
X143761904Y-45761904D01*
X143761904Y-45571428D01*
X143714285Y-45476190D01*
X143666666Y-45428571D01*
X143571428Y-45380952D01*
%TO.C,D6*%
X76761904Y-45952380D02*
X76761904Y-44952380D01*
X77000000Y-44952380D01*
X77142857Y-45000000D01*
X77238095Y-45095238D01*
X77285714Y-45190476D01*
X77333333Y-45380952D01*
X77333333Y-45523809D01*
X77285714Y-45714285D01*
X77238095Y-45809523D01*
X77142857Y-45904761D01*
X77000000Y-45952380D01*
X76761904Y-45952380D01*
X78190476Y-44952380D02*
X78000000Y-44952380D01*
X77904761Y-45000000D01*
X77857142Y-45047619D01*
X77761904Y-45190476D01*
X77714285Y-45380952D01*
X77714285Y-45761904D01*
X77761904Y-45857142D01*
X77809523Y-45904761D01*
X77904761Y-45952380D01*
X78095238Y-45952380D01*
X78190476Y-45904761D01*
X78238095Y-45857142D01*
X78285714Y-45761904D01*
X78285714Y-45523809D01*
X78238095Y-45428571D01*
X78190476Y-45380952D01*
X78095238Y-45333333D01*
X77904761Y-45333333D01*
X77809523Y-45380952D01*
X77761904Y-45428571D01*
X77714285Y-45523809D01*
%TO.C,D10*%
X96285714Y-45952380D02*
X96285714Y-44952380D01*
X96523809Y-44952380D01*
X96666666Y-45000000D01*
X96761904Y-45095238D01*
X96809523Y-45190476D01*
X96857142Y-45380952D01*
X96857142Y-45523809D01*
X96809523Y-45714285D01*
X96761904Y-45809523D01*
X96666666Y-45904761D01*
X96523809Y-45952380D01*
X96285714Y-45952380D01*
X97809523Y-45952380D02*
X97238095Y-45952380D01*
X97523809Y-45952380D02*
X97523809Y-44952380D01*
X97428571Y-45095238D01*
X97333333Y-45190476D01*
X97238095Y-45238095D01*
X98428571Y-44952380D02*
X98523809Y-44952380D01*
X98619047Y-45000000D01*
X98666666Y-45047619D01*
X98714285Y-45142857D01*
X98761904Y-45333333D01*
X98761904Y-45571428D01*
X98714285Y-45761904D01*
X98666666Y-45857142D01*
X98619047Y-45904761D01*
X98523809Y-45952380D01*
X98428571Y-45952380D01*
X98333333Y-45904761D01*
X98285714Y-45857142D01*
X98238095Y-45761904D01*
X98190476Y-45571428D01*
X98190476Y-45333333D01*
X98238095Y-45142857D01*
X98285714Y-45047619D01*
X98333333Y-45000000D01*
X98428571Y-44952380D01*
%TO.C,D14*%
X116285714Y-45952380D02*
X116285714Y-44952380D01*
X116523809Y-44952380D01*
X116666666Y-45000000D01*
X116761904Y-45095238D01*
X116809523Y-45190476D01*
X116857142Y-45380952D01*
X116857142Y-45523809D01*
X116809523Y-45714285D01*
X116761904Y-45809523D01*
X116666666Y-45904761D01*
X116523809Y-45952380D01*
X116285714Y-45952380D01*
X117809523Y-45952380D02*
X117238095Y-45952380D01*
X117523809Y-45952380D02*
X117523809Y-44952380D01*
X117428571Y-45095238D01*
X117333333Y-45190476D01*
X117238095Y-45238095D01*
X118666666Y-45285714D02*
X118666666Y-45952380D01*
X118428571Y-44904761D02*
X118190476Y-45619047D01*
X118809523Y-45619047D01*
%TO.C,D3*%
X51761904Y-65952380D02*
X51761904Y-64952380D01*
X52000000Y-64952380D01*
X52142857Y-65000000D01*
X52238095Y-65095238D01*
X52285714Y-65190476D01*
X52333333Y-65380952D01*
X52333333Y-65523809D01*
X52285714Y-65714285D01*
X52238095Y-65809523D01*
X52142857Y-65904761D01*
X52000000Y-65952380D01*
X51761904Y-65952380D01*
X52666666Y-64952380D02*
X53285714Y-64952380D01*
X52952380Y-65333333D01*
X53095238Y-65333333D01*
X53190476Y-65380952D01*
X53238095Y-65428571D01*
X53285714Y-65523809D01*
X53285714Y-65761904D01*
X53238095Y-65857142D01*
X53190476Y-65904761D01*
X53095238Y-65952380D01*
X52809523Y-65952380D01*
X52714285Y-65904761D01*
X52666666Y-65857142D01*
%TO.C,D19*%
X141285714Y-65952380D02*
X141285714Y-64952380D01*
X141523809Y-64952380D01*
X141666666Y-65000000D01*
X141761904Y-65095238D01*
X141809523Y-65190476D01*
X141857142Y-65380952D01*
X141857142Y-65523809D01*
X141809523Y-65714285D01*
X141761904Y-65809523D01*
X141666666Y-65904761D01*
X141523809Y-65952380D01*
X141285714Y-65952380D01*
X142809523Y-65952380D02*
X142238095Y-65952380D01*
X142523809Y-65952380D02*
X142523809Y-64952380D01*
X142428571Y-65095238D01*
X142333333Y-65190476D01*
X142238095Y-65238095D01*
X143285714Y-65952380D02*
X143476190Y-65952380D01*
X143571428Y-65904761D01*
X143619047Y-65857142D01*
X143714285Y-65714285D01*
X143761904Y-65523809D01*
X143761904Y-65142857D01*
X143714285Y-65047619D01*
X143666666Y-65000000D01*
X143571428Y-64952380D01*
X143380952Y-64952380D01*
X143285714Y-65000000D01*
X143238095Y-65047619D01*
X143190476Y-65142857D01*
X143190476Y-65380952D01*
X143238095Y-65476190D01*
X143285714Y-65523809D01*
X143380952Y-65571428D01*
X143571428Y-65571428D01*
X143666666Y-65523809D01*
X143714285Y-65476190D01*
X143761904Y-65380952D01*
%TO.C,D7*%
X76761904Y-65952380D02*
X76761904Y-64952380D01*
X77000000Y-64952380D01*
X77142857Y-65000000D01*
X77238095Y-65095238D01*
X77285714Y-65190476D01*
X77333333Y-65380952D01*
X77333333Y-65523809D01*
X77285714Y-65714285D01*
X77238095Y-65809523D01*
X77142857Y-65904761D01*
X77000000Y-65952380D01*
X76761904Y-65952380D01*
X77666666Y-64952380D02*
X78333333Y-64952380D01*
X77904761Y-65952380D01*
%TO.C,D11*%
X96285714Y-65952380D02*
X96285714Y-64952380D01*
X96523809Y-64952380D01*
X96666666Y-65000000D01*
X96761904Y-65095238D01*
X96809523Y-65190476D01*
X96857142Y-65380952D01*
X96857142Y-65523809D01*
X96809523Y-65714285D01*
X96761904Y-65809523D01*
X96666666Y-65904761D01*
X96523809Y-65952380D01*
X96285714Y-65952380D01*
X97809523Y-65952380D02*
X97238095Y-65952380D01*
X97523809Y-65952380D02*
X97523809Y-64952380D01*
X97428571Y-65095238D01*
X97333333Y-65190476D01*
X97238095Y-65238095D01*
X98761904Y-65952380D02*
X98190476Y-65952380D01*
X98476190Y-65952380D02*
X98476190Y-64952380D01*
X98380952Y-65095238D01*
X98285714Y-65190476D01*
X98190476Y-65238095D01*
%TO.C,D15*%
X116285714Y-65952380D02*
X116285714Y-64952380D01*
X116523809Y-64952380D01*
X116666666Y-65000000D01*
X116761904Y-65095238D01*
X116809523Y-65190476D01*
X116857142Y-65380952D01*
X116857142Y-65523809D01*
X116809523Y-65714285D01*
X116761904Y-65809523D01*
X116666666Y-65904761D01*
X116523809Y-65952380D01*
X116285714Y-65952380D01*
X117809523Y-65952380D02*
X117238095Y-65952380D01*
X117523809Y-65952380D02*
X117523809Y-64952380D01*
X117428571Y-65095238D01*
X117333333Y-65190476D01*
X117238095Y-65238095D01*
X118714285Y-64952380D02*
X118238095Y-64952380D01*
X118190476Y-65428571D01*
X118238095Y-65380952D01*
X118333333Y-65333333D01*
X118571428Y-65333333D01*
X118666666Y-65380952D01*
X118714285Y-65428571D01*
X118761904Y-65523809D01*
X118761904Y-65761904D01*
X118714285Y-65857142D01*
X118666666Y-65904761D01*
X118571428Y-65952380D01*
X118333333Y-65952380D01*
X118238095Y-65904761D01*
X118190476Y-65857142D01*
%TO.C,SW21*%
X150650476Y-82610761D02*
X150793333Y-82658380D01*
X151031428Y-82658380D01*
X151126666Y-82610761D01*
X151174285Y-82563142D01*
X151221904Y-82467904D01*
X151221904Y-82372666D01*
X151174285Y-82277428D01*
X151126666Y-82229809D01*
X151031428Y-82182190D01*
X150840952Y-82134571D01*
X150745714Y-82086952D01*
X150698095Y-82039333D01*
X150650476Y-81944095D01*
X150650476Y-81848857D01*
X150698095Y-81753619D01*
X150745714Y-81706000D01*
X150840952Y-81658380D01*
X151079047Y-81658380D01*
X151221904Y-81706000D01*
X151555238Y-81658380D02*
X151793333Y-82658380D01*
X151983809Y-81944095D01*
X152174285Y-82658380D01*
X152412380Y-81658380D01*
X152745714Y-81753619D02*
X152793333Y-81706000D01*
X152888571Y-81658380D01*
X153126666Y-81658380D01*
X153221904Y-81706000D01*
X153269523Y-81753619D01*
X153317142Y-81848857D01*
X153317142Y-81944095D01*
X153269523Y-82086952D01*
X152698095Y-82658380D01*
X153317142Y-82658380D01*
X154269523Y-82658380D02*
X153698095Y-82658380D01*
X153983809Y-82658380D02*
X153983809Y-81658380D01*
X153888571Y-81801238D01*
X153793333Y-81896476D01*
X153698095Y-81944095D01*
%TO.C,SW8*%
X86126666Y-82610761D02*
X86269523Y-82658380D01*
X86507619Y-82658380D01*
X86602857Y-82610761D01*
X86650476Y-82563142D01*
X86698095Y-82467904D01*
X86698095Y-82372666D01*
X86650476Y-82277428D01*
X86602857Y-82229809D01*
X86507619Y-82182190D01*
X86317142Y-82134571D01*
X86221904Y-82086952D01*
X86174285Y-82039333D01*
X86126666Y-81944095D01*
X86126666Y-81848857D01*
X86174285Y-81753619D01*
X86221904Y-81706000D01*
X86317142Y-81658380D01*
X86555238Y-81658380D01*
X86698095Y-81706000D01*
X87031428Y-81658380D02*
X87269523Y-82658380D01*
X87460000Y-81944095D01*
X87650476Y-82658380D01*
X87888571Y-81658380D01*
X88412380Y-82086952D02*
X88317142Y-82039333D01*
X88269523Y-81991714D01*
X88221904Y-81896476D01*
X88221904Y-81848857D01*
X88269523Y-81753619D01*
X88317142Y-81706000D01*
X88412380Y-81658380D01*
X88602857Y-81658380D01*
X88698095Y-81706000D01*
X88745714Y-81753619D01*
X88793333Y-81848857D01*
X88793333Y-81896476D01*
X88745714Y-81991714D01*
X88698095Y-82039333D01*
X88602857Y-82086952D01*
X88412380Y-82086952D01*
X88317142Y-82134571D01*
X88269523Y-82182190D01*
X88221904Y-82277428D01*
X88221904Y-82467904D01*
X88269523Y-82563142D01*
X88317142Y-82610761D01*
X88412380Y-82658380D01*
X88602857Y-82658380D01*
X88698095Y-82610761D01*
X88745714Y-82563142D01*
X88793333Y-82467904D01*
X88793333Y-82277428D01*
X88745714Y-82182190D01*
X88698095Y-82134571D01*
X88602857Y-82086952D01*
%TO.C,SW12*%
X105650476Y-82610761D02*
X105793333Y-82658380D01*
X106031428Y-82658380D01*
X106126666Y-82610761D01*
X106174285Y-82563142D01*
X106221904Y-82467904D01*
X106221904Y-82372666D01*
X106174285Y-82277428D01*
X106126666Y-82229809D01*
X106031428Y-82182190D01*
X105840952Y-82134571D01*
X105745714Y-82086952D01*
X105698095Y-82039333D01*
X105650476Y-81944095D01*
X105650476Y-81848857D01*
X105698095Y-81753619D01*
X105745714Y-81706000D01*
X105840952Y-81658380D01*
X106079047Y-81658380D01*
X106221904Y-81706000D01*
X106555238Y-81658380D02*
X106793333Y-82658380D01*
X106983809Y-81944095D01*
X107174285Y-82658380D01*
X107412380Y-81658380D01*
X108317142Y-82658380D02*
X107745714Y-82658380D01*
X108031428Y-82658380D02*
X108031428Y-81658380D01*
X107936190Y-81801238D01*
X107840952Y-81896476D01*
X107745714Y-81944095D01*
X108698095Y-81753619D02*
X108745714Y-81706000D01*
X108840952Y-81658380D01*
X109079047Y-81658380D01*
X109174285Y-81706000D01*
X109221904Y-81753619D01*
X109269523Y-81848857D01*
X109269523Y-81944095D01*
X109221904Y-82086952D01*
X108650476Y-82658380D01*
X109269523Y-82658380D01*
%TO.C,SW17*%
X125650476Y-82610761D02*
X125793333Y-82658380D01*
X126031428Y-82658380D01*
X126126666Y-82610761D01*
X126174285Y-82563142D01*
X126221904Y-82467904D01*
X126221904Y-82372666D01*
X126174285Y-82277428D01*
X126126666Y-82229809D01*
X126031428Y-82182190D01*
X125840952Y-82134571D01*
X125745714Y-82086952D01*
X125698095Y-82039333D01*
X125650476Y-81944095D01*
X125650476Y-81848857D01*
X125698095Y-81753619D01*
X125745714Y-81706000D01*
X125840952Y-81658380D01*
X126079047Y-81658380D01*
X126221904Y-81706000D01*
X126555238Y-81658380D02*
X126793333Y-82658380D01*
X126983809Y-81944095D01*
X127174285Y-82658380D01*
X127412380Y-81658380D01*
X128317142Y-82658380D02*
X127745714Y-82658380D01*
X128031428Y-82658380D02*
X128031428Y-81658380D01*
X127936190Y-81801238D01*
X127840952Y-81896476D01*
X127745714Y-81944095D01*
X128650476Y-81658380D02*
X129317142Y-81658380D01*
X128888571Y-82658380D01*
%TO.C,SW19*%
X150650476Y-42610761D02*
X150793333Y-42658380D01*
X151031428Y-42658380D01*
X151126666Y-42610761D01*
X151174285Y-42563142D01*
X151221904Y-42467904D01*
X151221904Y-42372666D01*
X151174285Y-42277428D01*
X151126666Y-42229809D01*
X151031428Y-42182190D01*
X150840952Y-42134571D01*
X150745714Y-42086952D01*
X150698095Y-42039333D01*
X150650476Y-41944095D01*
X150650476Y-41848857D01*
X150698095Y-41753619D01*
X150745714Y-41706000D01*
X150840952Y-41658380D01*
X151079047Y-41658380D01*
X151221904Y-41706000D01*
X151555238Y-41658380D02*
X151793333Y-42658380D01*
X151983809Y-41944095D01*
X152174285Y-42658380D01*
X152412380Y-41658380D01*
X153317142Y-42658380D02*
X152745714Y-42658380D01*
X153031428Y-42658380D02*
X153031428Y-41658380D01*
X152936190Y-41801238D01*
X152840952Y-41896476D01*
X152745714Y-41944095D01*
X153793333Y-42658380D02*
X153983809Y-42658380D01*
X154079047Y-42610761D01*
X154126666Y-42563142D01*
X154221904Y-42420285D01*
X154269523Y-42229809D01*
X154269523Y-41848857D01*
X154221904Y-41753619D01*
X154174285Y-41706000D01*
X154079047Y-41658380D01*
X153888571Y-41658380D01*
X153793333Y-41706000D01*
X153745714Y-41753619D01*
X153698095Y-41848857D01*
X153698095Y-42086952D01*
X153745714Y-42182190D01*
X153793333Y-42229809D01*
X153888571Y-42277428D01*
X154079047Y-42277428D01*
X154174285Y-42229809D01*
X154221904Y-42182190D01*
X154269523Y-42086952D01*
%TO.C,SW6*%
X86126666Y-42610761D02*
X86269523Y-42658380D01*
X86507619Y-42658380D01*
X86602857Y-42610761D01*
X86650476Y-42563142D01*
X86698095Y-42467904D01*
X86698095Y-42372666D01*
X86650476Y-42277428D01*
X86602857Y-42229809D01*
X86507619Y-42182190D01*
X86317142Y-42134571D01*
X86221904Y-42086952D01*
X86174285Y-42039333D01*
X86126666Y-41944095D01*
X86126666Y-41848857D01*
X86174285Y-41753619D01*
X86221904Y-41706000D01*
X86317142Y-41658380D01*
X86555238Y-41658380D01*
X86698095Y-41706000D01*
X87031428Y-41658380D02*
X87269523Y-42658380D01*
X87460000Y-41944095D01*
X87650476Y-42658380D01*
X87888571Y-41658380D01*
X88698095Y-41658380D02*
X88507619Y-41658380D01*
X88412380Y-41706000D01*
X88364761Y-41753619D01*
X88269523Y-41896476D01*
X88221904Y-42086952D01*
X88221904Y-42467904D01*
X88269523Y-42563142D01*
X88317142Y-42610761D01*
X88412380Y-42658380D01*
X88602857Y-42658380D01*
X88698095Y-42610761D01*
X88745714Y-42563142D01*
X88793333Y-42467904D01*
X88793333Y-42229809D01*
X88745714Y-42134571D01*
X88698095Y-42086952D01*
X88602857Y-42039333D01*
X88412380Y-42039333D01*
X88317142Y-42086952D01*
X88269523Y-42134571D01*
X88221904Y-42229809D01*
%TO.C,SW10*%
X105650476Y-42610761D02*
X105793333Y-42658380D01*
X106031428Y-42658380D01*
X106126666Y-42610761D01*
X106174285Y-42563142D01*
X106221904Y-42467904D01*
X106221904Y-42372666D01*
X106174285Y-42277428D01*
X106126666Y-42229809D01*
X106031428Y-42182190D01*
X105840952Y-42134571D01*
X105745714Y-42086952D01*
X105698095Y-42039333D01*
X105650476Y-41944095D01*
X105650476Y-41848857D01*
X105698095Y-41753619D01*
X105745714Y-41706000D01*
X105840952Y-41658380D01*
X106079047Y-41658380D01*
X106221904Y-41706000D01*
X106555238Y-41658380D02*
X106793333Y-42658380D01*
X106983809Y-41944095D01*
X107174285Y-42658380D01*
X107412380Y-41658380D01*
X108317142Y-42658380D02*
X107745714Y-42658380D01*
X108031428Y-42658380D02*
X108031428Y-41658380D01*
X107936190Y-41801238D01*
X107840952Y-41896476D01*
X107745714Y-41944095D01*
X108936190Y-41658380D02*
X109031428Y-41658380D01*
X109126666Y-41706000D01*
X109174285Y-41753619D01*
X109221904Y-41848857D01*
X109269523Y-42039333D01*
X109269523Y-42277428D01*
X109221904Y-42467904D01*
X109174285Y-42563142D01*
X109126666Y-42610761D01*
X109031428Y-42658380D01*
X108936190Y-42658380D01*
X108840952Y-42610761D01*
X108793333Y-42563142D01*
X108745714Y-42467904D01*
X108698095Y-42277428D01*
X108698095Y-42039333D01*
X108745714Y-41848857D01*
X108793333Y-41753619D01*
X108840952Y-41706000D01*
X108936190Y-41658380D01*
%TO.C,SW15*%
X125650476Y-42610761D02*
X125793333Y-42658380D01*
X126031428Y-42658380D01*
X126126666Y-42610761D01*
X126174285Y-42563142D01*
X126221904Y-42467904D01*
X126221904Y-42372666D01*
X126174285Y-42277428D01*
X126126666Y-42229809D01*
X126031428Y-42182190D01*
X125840952Y-42134571D01*
X125745714Y-42086952D01*
X125698095Y-42039333D01*
X125650476Y-41944095D01*
X125650476Y-41848857D01*
X125698095Y-41753619D01*
X125745714Y-41706000D01*
X125840952Y-41658380D01*
X126079047Y-41658380D01*
X126221904Y-41706000D01*
X126555238Y-41658380D02*
X126793333Y-42658380D01*
X126983809Y-41944095D01*
X127174285Y-42658380D01*
X127412380Y-41658380D01*
X128317142Y-42658380D02*
X127745714Y-42658380D01*
X128031428Y-42658380D02*
X128031428Y-41658380D01*
X127936190Y-41801238D01*
X127840952Y-41896476D01*
X127745714Y-41944095D01*
X129221904Y-41658380D02*
X128745714Y-41658380D01*
X128698095Y-42134571D01*
X128745714Y-42086952D01*
X128840952Y-42039333D01*
X129079047Y-42039333D01*
X129174285Y-42086952D01*
X129221904Y-42134571D01*
X129269523Y-42229809D01*
X129269523Y-42467904D01*
X129221904Y-42563142D01*
X129174285Y-42610761D01*
X129079047Y-42658380D01*
X128840952Y-42658380D01*
X128745714Y-42610761D01*
X128698095Y-42563142D01*
%TO.C,SW20*%
X150650476Y-62610761D02*
X150793333Y-62658380D01*
X151031428Y-62658380D01*
X151126666Y-62610761D01*
X151174285Y-62563142D01*
X151221904Y-62467904D01*
X151221904Y-62372666D01*
X151174285Y-62277428D01*
X151126666Y-62229809D01*
X151031428Y-62182190D01*
X150840952Y-62134571D01*
X150745714Y-62086952D01*
X150698095Y-62039333D01*
X150650476Y-61944095D01*
X150650476Y-61848857D01*
X150698095Y-61753619D01*
X150745714Y-61706000D01*
X150840952Y-61658380D01*
X151079047Y-61658380D01*
X151221904Y-61706000D01*
X151555238Y-61658380D02*
X151793333Y-62658380D01*
X151983809Y-61944095D01*
X152174285Y-62658380D01*
X152412380Y-61658380D01*
X152745714Y-61753619D02*
X152793333Y-61706000D01*
X152888571Y-61658380D01*
X153126666Y-61658380D01*
X153221904Y-61706000D01*
X153269523Y-61753619D01*
X153317142Y-61848857D01*
X153317142Y-61944095D01*
X153269523Y-62086952D01*
X152698095Y-62658380D01*
X153317142Y-62658380D01*
X153936190Y-61658380D02*
X154031428Y-61658380D01*
X154126666Y-61706000D01*
X154174285Y-61753619D01*
X154221904Y-61848857D01*
X154269523Y-62039333D01*
X154269523Y-62277428D01*
X154221904Y-62467904D01*
X154174285Y-62563142D01*
X154126666Y-62610761D01*
X154031428Y-62658380D01*
X153936190Y-62658380D01*
X153840952Y-62610761D01*
X153793333Y-62563142D01*
X153745714Y-62467904D01*
X153698095Y-62277428D01*
X153698095Y-62039333D01*
X153745714Y-61848857D01*
X153793333Y-61753619D01*
X153840952Y-61706000D01*
X153936190Y-61658380D01*
%TO.C,SW7*%
X86126666Y-62610761D02*
X86269523Y-62658380D01*
X86507619Y-62658380D01*
X86602857Y-62610761D01*
X86650476Y-62563142D01*
X86698095Y-62467904D01*
X86698095Y-62372666D01*
X86650476Y-62277428D01*
X86602857Y-62229809D01*
X86507619Y-62182190D01*
X86317142Y-62134571D01*
X86221904Y-62086952D01*
X86174285Y-62039333D01*
X86126666Y-61944095D01*
X86126666Y-61848857D01*
X86174285Y-61753619D01*
X86221904Y-61706000D01*
X86317142Y-61658380D01*
X86555238Y-61658380D01*
X86698095Y-61706000D01*
X87031428Y-61658380D02*
X87269523Y-62658380D01*
X87460000Y-61944095D01*
X87650476Y-62658380D01*
X87888571Y-61658380D01*
X88174285Y-61658380D02*
X88840952Y-61658380D01*
X88412380Y-62658380D01*
%TO.C,SW16*%
X125650476Y-62610761D02*
X125793333Y-62658380D01*
X126031428Y-62658380D01*
X126126666Y-62610761D01*
X126174285Y-62563142D01*
X126221904Y-62467904D01*
X126221904Y-62372666D01*
X126174285Y-62277428D01*
X126126666Y-62229809D01*
X126031428Y-62182190D01*
X125840952Y-62134571D01*
X125745714Y-62086952D01*
X125698095Y-62039333D01*
X125650476Y-61944095D01*
X125650476Y-61848857D01*
X125698095Y-61753619D01*
X125745714Y-61706000D01*
X125840952Y-61658380D01*
X126079047Y-61658380D01*
X126221904Y-61706000D01*
X126555238Y-61658380D02*
X126793333Y-62658380D01*
X126983809Y-61944095D01*
X127174285Y-62658380D01*
X127412380Y-61658380D01*
X128317142Y-62658380D02*
X127745714Y-62658380D01*
X128031428Y-62658380D02*
X128031428Y-61658380D01*
X127936190Y-61801238D01*
X127840952Y-61896476D01*
X127745714Y-61944095D01*
X129174285Y-61658380D02*
X128983809Y-61658380D01*
X128888571Y-61706000D01*
X128840952Y-61753619D01*
X128745714Y-61896476D01*
X128698095Y-62086952D01*
X128698095Y-62467904D01*
X128745714Y-62563142D01*
X128793333Y-62610761D01*
X128888571Y-62658380D01*
X129079047Y-62658380D01*
X129174285Y-62610761D01*
X129221904Y-62563142D01*
X129269523Y-62467904D01*
X129269523Y-62229809D01*
X129221904Y-62134571D01*
X129174285Y-62086952D01*
X129079047Y-62039333D01*
X128888571Y-62039333D01*
X128793333Y-62086952D01*
X128745714Y-62134571D01*
X128698095Y-62229809D01*
%TO.C,SW13*%
X163090476Y-119604761D02*
X163233333Y-119652380D01*
X163471428Y-119652380D01*
X163566666Y-119604761D01*
X163614285Y-119557142D01*
X163661904Y-119461904D01*
X163661904Y-119366666D01*
X163614285Y-119271428D01*
X163566666Y-119223809D01*
X163471428Y-119176190D01*
X163280952Y-119128571D01*
X163185714Y-119080952D01*
X163138095Y-119033333D01*
X163090476Y-118938095D01*
X163090476Y-118842857D01*
X163138095Y-118747619D01*
X163185714Y-118700000D01*
X163280952Y-118652380D01*
X163519047Y-118652380D01*
X163661904Y-118700000D01*
X163995238Y-118652380D02*
X164233333Y-119652380D01*
X164423809Y-118938095D01*
X164614285Y-119652380D01*
X164852380Y-118652380D01*
X165757142Y-119652380D02*
X165185714Y-119652380D01*
X165471428Y-119652380D02*
X165471428Y-118652380D01*
X165376190Y-118795238D01*
X165280952Y-118890476D01*
X165185714Y-118938095D01*
X166090476Y-118652380D02*
X166709523Y-118652380D01*
X166376190Y-119033333D01*
X166519047Y-119033333D01*
X166614285Y-119080952D01*
X166661904Y-119128571D01*
X166709523Y-119223809D01*
X166709523Y-119461904D01*
X166661904Y-119557142D01*
X166614285Y-119604761D01*
X166519047Y-119652380D01*
X166233333Y-119652380D01*
X166138095Y-119604761D01*
X166090476Y-119557142D01*
%TO.C,C1*%
X119927142Y-116916666D02*
X119974761Y-116964285D01*
X120022380Y-117107142D01*
X120022380Y-117202380D01*
X119974761Y-117345238D01*
X119879523Y-117440476D01*
X119784285Y-117488095D01*
X119593809Y-117535714D01*
X119450952Y-117535714D01*
X119260476Y-117488095D01*
X119165238Y-117440476D01*
X119070000Y-117345238D01*
X119022380Y-117202380D01*
X119022380Y-117107142D01*
X119070000Y-116964285D01*
X119117619Y-116916666D01*
X120022380Y-115964285D02*
X120022380Y-116535714D01*
X120022380Y-116250000D02*
X119022380Y-116250000D01*
X119165238Y-116345238D01*
X119260476Y-116440476D01*
X119308095Y-116535714D01*
%TO.C,R7*%
X119057380Y-137281666D02*
X118581190Y-137615000D01*
X119057380Y-137853095D02*
X118057380Y-137853095D01*
X118057380Y-137472142D01*
X118105000Y-137376904D01*
X118152619Y-137329285D01*
X118247857Y-137281666D01*
X118390714Y-137281666D01*
X118485952Y-137329285D01*
X118533571Y-137376904D01*
X118581190Y-137472142D01*
X118581190Y-137853095D01*
X118057380Y-136948333D02*
X118057380Y-136281666D01*
X119057380Y-136710238D01*
%TO.C,R1*%
X102533333Y-141752380D02*
X102200000Y-141276190D01*
X101961904Y-141752380D02*
X101961904Y-140752380D01*
X102342857Y-140752380D01*
X102438095Y-140800000D01*
X102485714Y-140847619D01*
X102533333Y-140942857D01*
X102533333Y-141085714D01*
X102485714Y-141180952D01*
X102438095Y-141228571D01*
X102342857Y-141276190D01*
X101961904Y-141276190D01*
X103485714Y-141752380D02*
X102914285Y-141752380D01*
X103200000Y-141752380D02*
X103200000Y-140752380D01*
X103104761Y-140895238D01*
X103009523Y-140990476D01*
X102914285Y-141038095D01*
%TO.C,R2*%
X101033333Y-139952380D02*
X100700000Y-139476190D01*
X100461904Y-139952380D02*
X100461904Y-138952380D01*
X100842857Y-138952380D01*
X100938095Y-139000000D01*
X100985714Y-139047619D01*
X101033333Y-139142857D01*
X101033333Y-139285714D01*
X100985714Y-139380952D01*
X100938095Y-139428571D01*
X100842857Y-139476190D01*
X100461904Y-139476190D01*
X101414285Y-139047619D02*
X101461904Y-139000000D01*
X101557142Y-138952380D01*
X101795238Y-138952380D01*
X101890476Y-139000000D01*
X101938095Y-139047619D01*
X101985714Y-139142857D01*
X101985714Y-139238095D01*
X101938095Y-139380952D01*
X101366666Y-139952380D01*
X101985714Y-139952380D01*
%TO.C,R3*%
X102633333Y-138052380D02*
X102300000Y-137576190D01*
X102061904Y-138052380D02*
X102061904Y-137052380D01*
X102442857Y-137052380D01*
X102538095Y-137100000D01*
X102585714Y-137147619D01*
X102633333Y-137242857D01*
X102633333Y-137385714D01*
X102585714Y-137480952D01*
X102538095Y-137528571D01*
X102442857Y-137576190D01*
X102061904Y-137576190D01*
X102966666Y-137052380D02*
X103585714Y-137052380D01*
X103252380Y-137433333D01*
X103395238Y-137433333D01*
X103490476Y-137480952D01*
X103538095Y-137528571D01*
X103585714Y-137623809D01*
X103585714Y-137861904D01*
X103538095Y-137957142D01*
X103490476Y-138004761D01*
X103395238Y-138052380D01*
X103109523Y-138052380D01*
X103014285Y-138004761D01*
X102966666Y-137957142D01*
%TO.C,R4*%
X101033333Y-136152380D02*
X100700000Y-135676190D01*
X100461904Y-136152380D02*
X100461904Y-135152380D01*
X100842857Y-135152380D01*
X100938095Y-135200000D01*
X100985714Y-135247619D01*
X101033333Y-135342857D01*
X101033333Y-135485714D01*
X100985714Y-135580952D01*
X100938095Y-135628571D01*
X100842857Y-135676190D01*
X100461904Y-135676190D01*
X101890476Y-135485714D02*
X101890476Y-136152380D01*
X101652380Y-135104761D02*
X101414285Y-135819047D01*
X102033333Y-135819047D01*
%TO.C,R5*%
X102733333Y-134252380D02*
X102400000Y-133776190D01*
X102161904Y-134252380D02*
X102161904Y-133252380D01*
X102542857Y-133252380D01*
X102638095Y-133300000D01*
X102685714Y-133347619D01*
X102733333Y-133442857D01*
X102733333Y-133585714D01*
X102685714Y-133680952D01*
X102638095Y-133728571D01*
X102542857Y-133776190D01*
X102161904Y-133776190D01*
X103638095Y-133252380D02*
X103161904Y-133252380D01*
X103114285Y-133728571D01*
X103161904Y-133680952D01*
X103257142Y-133633333D01*
X103495238Y-133633333D01*
X103590476Y-133680952D01*
X103638095Y-133728571D01*
X103685714Y-133823809D01*
X103685714Y-134061904D01*
X103638095Y-134157142D01*
X103590476Y-134204761D01*
X103495238Y-134252380D01*
X103257142Y-134252380D01*
X103161904Y-134204761D01*
X103114285Y-134157142D01*
%TO.C,R6*%
X101233333Y-132252380D02*
X100900000Y-131776190D01*
X100661904Y-132252380D02*
X100661904Y-131252380D01*
X101042857Y-131252380D01*
X101138095Y-131300000D01*
X101185714Y-131347619D01*
X101233333Y-131442857D01*
X101233333Y-131585714D01*
X101185714Y-131680952D01*
X101138095Y-131728571D01*
X101042857Y-131776190D01*
X100661904Y-131776190D01*
X102090476Y-131252380D02*
X101900000Y-131252380D01*
X101804761Y-131300000D01*
X101757142Y-131347619D01*
X101661904Y-131490476D01*
X101614285Y-131680952D01*
X101614285Y-132061904D01*
X101661904Y-132157142D01*
X101709523Y-132204761D01*
X101804761Y-132252380D01*
X101995238Y-132252380D01*
X102090476Y-132204761D01*
X102138095Y-132157142D01*
X102185714Y-132061904D01*
X102185714Y-131823809D01*
X102138095Y-131728571D01*
X102090476Y-131680952D01*
X101995238Y-131633333D01*
X101804761Y-131633333D01*
X101709523Y-131680952D01*
X101661904Y-131728571D01*
X101614285Y-131823809D01*
%TO.C,D1*%
X51761904Y-20952380D02*
X51761904Y-19952380D01*
X52000000Y-19952380D01*
X52142857Y-20000000D01*
X52238095Y-20095238D01*
X52285714Y-20190476D01*
X52333333Y-20380952D01*
X52333333Y-20523809D01*
X52285714Y-20714285D01*
X52238095Y-20809523D01*
X52142857Y-20904761D01*
X52000000Y-20952380D01*
X51761904Y-20952380D01*
X53285714Y-20952380D02*
X52714285Y-20952380D01*
X53000000Y-20952380D02*
X53000000Y-19952380D01*
X52904761Y-20095238D01*
X52809523Y-20190476D01*
X52714285Y-20238095D01*
%TO.C,D5*%
X76761904Y-20952380D02*
X76761904Y-19952380D01*
X77000000Y-19952380D01*
X77142857Y-20000000D01*
X77238095Y-20095238D01*
X77285714Y-20190476D01*
X77333333Y-20380952D01*
X77333333Y-20523809D01*
X77285714Y-20714285D01*
X77238095Y-20809523D01*
X77142857Y-20904761D01*
X77000000Y-20952380D01*
X76761904Y-20952380D01*
X78238095Y-19952380D02*
X77761904Y-19952380D01*
X77714285Y-20428571D01*
X77761904Y-20380952D01*
X77857142Y-20333333D01*
X78095238Y-20333333D01*
X78190476Y-20380952D01*
X78238095Y-20428571D01*
X78285714Y-20523809D01*
X78285714Y-20761904D01*
X78238095Y-20857142D01*
X78190476Y-20904761D01*
X78095238Y-20952380D01*
X77857142Y-20952380D01*
X77761904Y-20904761D01*
X77714285Y-20857142D01*
%TO.C,D9*%
X96761904Y-20952380D02*
X96761904Y-19952380D01*
X97000000Y-19952380D01*
X97142857Y-20000000D01*
X97238095Y-20095238D01*
X97285714Y-20190476D01*
X97333333Y-20380952D01*
X97333333Y-20523809D01*
X97285714Y-20714285D01*
X97238095Y-20809523D01*
X97142857Y-20904761D01*
X97000000Y-20952380D01*
X96761904Y-20952380D01*
X97809523Y-20952380D02*
X98000000Y-20952380D01*
X98095238Y-20904761D01*
X98142857Y-20857142D01*
X98238095Y-20714285D01*
X98285714Y-20523809D01*
X98285714Y-20142857D01*
X98238095Y-20047619D01*
X98190476Y-20000000D01*
X98095238Y-19952380D01*
X97904761Y-19952380D01*
X97809523Y-20000000D01*
X97761904Y-20047619D01*
X97714285Y-20142857D01*
X97714285Y-20380952D01*
X97761904Y-20476190D01*
X97809523Y-20523809D01*
X97904761Y-20571428D01*
X98095238Y-20571428D01*
X98190476Y-20523809D01*
X98238095Y-20476190D01*
X98285714Y-20380952D01*
%TO.C,D13*%
X116285714Y-20952380D02*
X116285714Y-19952380D01*
X116523809Y-19952380D01*
X116666666Y-20000000D01*
X116761904Y-20095238D01*
X116809523Y-20190476D01*
X116857142Y-20380952D01*
X116857142Y-20523809D01*
X116809523Y-20714285D01*
X116761904Y-20809523D01*
X116666666Y-20904761D01*
X116523809Y-20952380D01*
X116285714Y-20952380D01*
X117809523Y-20952380D02*
X117238095Y-20952380D01*
X117523809Y-20952380D02*
X117523809Y-19952380D01*
X117428571Y-20095238D01*
X117333333Y-20190476D01*
X117238095Y-20238095D01*
X118142857Y-19952380D02*
X118761904Y-19952380D01*
X118428571Y-20333333D01*
X118571428Y-20333333D01*
X118666666Y-20380952D01*
X118714285Y-20428571D01*
X118761904Y-20523809D01*
X118761904Y-20761904D01*
X118714285Y-20857142D01*
X118666666Y-20904761D01*
X118571428Y-20952380D01*
X118285714Y-20952380D01*
X118190476Y-20904761D01*
X118142857Y-20857142D01*
%TO.C,D17*%
X141285714Y-20952380D02*
X141285714Y-19952380D01*
X141523809Y-19952380D01*
X141666666Y-20000000D01*
X141761904Y-20095238D01*
X141809523Y-20190476D01*
X141857142Y-20380952D01*
X141857142Y-20523809D01*
X141809523Y-20714285D01*
X141761904Y-20809523D01*
X141666666Y-20904761D01*
X141523809Y-20952380D01*
X141285714Y-20952380D01*
X142809523Y-20952380D02*
X142238095Y-20952380D01*
X142523809Y-20952380D02*
X142523809Y-19952380D01*
X142428571Y-20095238D01*
X142333333Y-20190476D01*
X142238095Y-20238095D01*
X143142857Y-19952380D02*
X143809523Y-19952380D01*
X143380952Y-20952380D01*
%TO.C,R8*%
X99022380Y-105991666D02*
X98546190Y-106325000D01*
X99022380Y-106563095D02*
X98022380Y-106563095D01*
X98022380Y-106182142D01*
X98070000Y-106086904D01*
X98117619Y-106039285D01*
X98212857Y-105991666D01*
X98355714Y-105991666D01*
X98450952Y-106039285D01*
X98498571Y-106086904D01*
X98546190Y-106182142D01*
X98546190Y-106563095D01*
X98450952Y-105420238D02*
X98403333Y-105515476D01*
X98355714Y-105563095D01*
X98260476Y-105610714D01*
X98212857Y-105610714D01*
X98117619Y-105563095D01*
X98070000Y-105515476D01*
X98022380Y-105420238D01*
X98022380Y-105229761D01*
X98070000Y-105134523D01*
X98117619Y-105086904D01*
X98212857Y-105039285D01*
X98260476Y-105039285D01*
X98355714Y-105086904D01*
X98403333Y-105134523D01*
X98450952Y-105229761D01*
X98450952Y-105420238D01*
X98498571Y-105515476D01*
X98546190Y-105563095D01*
X98641428Y-105610714D01*
X98831904Y-105610714D01*
X98927142Y-105563095D01*
X98974761Y-105515476D01*
X99022380Y-105420238D01*
X99022380Y-105229761D01*
X98974761Y-105134523D01*
X98927142Y-105086904D01*
X98831904Y-105039285D01*
X98641428Y-105039285D01*
X98546190Y-105086904D01*
X98498571Y-105134523D01*
X98450952Y-105229761D01*
%TO.C,R9*%
X166633333Y-136982380D02*
X166300000Y-136506190D01*
X166061904Y-136982380D02*
X166061904Y-135982380D01*
X166442857Y-135982380D01*
X166538095Y-136030000D01*
X166585714Y-136077619D01*
X166633333Y-136172857D01*
X166633333Y-136315714D01*
X166585714Y-136410952D01*
X166538095Y-136458571D01*
X166442857Y-136506190D01*
X166061904Y-136506190D01*
X167109523Y-136982380D02*
X167300000Y-136982380D01*
X167395238Y-136934761D01*
X167442857Y-136887142D01*
X167538095Y-136744285D01*
X167585714Y-136553809D01*
X167585714Y-136172857D01*
X167538095Y-136077619D01*
X167490476Y-136030000D01*
X167395238Y-135982380D01*
X167204761Y-135982380D01*
X167109523Y-136030000D01*
X167061904Y-136077619D01*
X167014285Y-136172857D01*
X167014285Y-136410952D01*
X167061904Y-136506190D01*
X167109523Y-136553809D01*
X167204761Y-136601428D01*
X167395238Y-136601428D01*
X167490476Y-136553809D01*
X167538095Y-136506190D01*
X167585714Y-136410952D01*
%TO.C,SW1*%
X61126666Y-17610761D02*
X61269523Y-17658380D01*
X61507619Y-17658380D01*
X61602857Y-17610761D01*
X61650476Y-17563142D01*
X61698095Y-17467904D01*
X61698095Y-17372666D01*
X61650476Y-17277428D01*
X61602857Y-17229809D01*
X61507619Y-17182190D01*
X61317142Y-17134571D01*
X61221904Y-17086952D01*
X61174285Y-17039333D01*
X61126666Y-16944095D01*
X61126666Y-16848857D01*
X61174285Y-16753619D01*
X61221904Y-16706000D01*
X61317142Y-16658380D01*
X61555238Y-16658380D01*
X61698095Y-16706000D01*
X62031428Y-16658380D02*
X62269523Y-17658380D01*
X62460000Y-16944095D01*
X62650476Y-17658380D01*
X62888571Y-16658380D01*
X63793333Y-17658380D02*
X63221904Y-17658380D01*
X63507619Y-17658380D02*
X63507619Y-16658380D01*
X63412380Y-16801238D01*
X63317142Y-16896476D01*
X63221904Y-16944095D01*
%TO.C,SW5*%
X86126666Y-17610761D02*
X86269523Y-17658380D01*
X86507619Y-17658380D01*
X86602857Y-17610761D01*
X86650476Y-17563142D01*
X86698095Y-17467904D01*
X86698095Y-17372666D01*
X86650476Y-17277428D01*
X86602857Y-17229809D01*
X86507619Y-17182190D01*
X86317142Y-17134571D01*
X86221904Y-17086952D01*
X86174285Y-17039333D01*
X86126666Y-16944095D01*
X86126666Y-16848857D01*
X86174285Y-16753619D01*
X86221904Y-16706000D01*
X86317142Y-16658380D01*
X86555238Y-16658380D01*
X86698095Y-16706000D01*
X87031428Y-16658380D02*
X87269523Y-17658380D01*
X87460000Y-16944095D01*
X87650476Y-17658380D01*
X87888571Y-16658380D01*
X88745714Y-16658380D02*
X88269523Y-16658380D01*
X88221904Y-17134571D01*
X88269523Y-17086952D01*
X88364761Y-17039333D01*
X88602857Y-17039333D01*
X88698095Y-17086952D01*
X88745714Y-17134571D01*
X88793333Y-17229809D01*
X88793333Y-17467904D01*
X88745714Y-17563142D01*
X88698095Y-17610761D01*
X88602857Y-17658380D01*
X88364761Y-17658380D01*
X88269523Y-17610761D01*
X88221904Y-17563142D01*
%TO.C,SW9*%
X106126666Y-17610761D02*
X106269523Y-17658380D01*
X106507619Y-17658380D01*
X106602857Y-17610761D01*
X106650476Y-17563142D01*
X106698095Y-17467904D01*
X106698095Y-17372666D01*
X106650476Y-17277428D01*
X106602857Y-17229809D01*
X106507619Y-17182190D01*
X106317142Y-17134571D01*
X106221904Y-17086952D01*
X106174285Y-17039333D01*
X106126666Y-16944095D01*
X106126666Y-16848857D01*
X106174285Y-16753619D01*
X106221904Y-16706000D01*
X106317142Y-16658380D01*
X106555238Y-16658380D01*
X106698095Y-16706000D01*
X107031428Y-16658380D02*
X107269523Y-17658380D01*
X107460000Y-16944095D01*
X107650476Y-17658380D01*
X107888571Y-16658380D01*
X108317142Y-17658380D02*
X108507619Y-17658380D01*
X108602857Y-17610761D01*
X108650476Y-17563142D01*
X108745714Y-17420285D01*
X108793333Y-17229809D01*
X108793333Y-16848857D01*
X108745714Y-16753619D01*
X108698095Y-16706000D01*
X108602857Y-16658380D01*
X108412380Y-16658380D01*
X108317142Y-16706000D01*
X108269523Y-16753619D01*
X108221904Y-16848857D01*
X108221904Y-17086952D01*
X108269523Y-17182190D01*
X108317142Y-17229809D01*
X108412380Y-17277428D01*
X108602857Y-17277428D01*
X108698095Y-17229809D01*
X108745714Y-17182190D01*
X108793333Y-17086952D01*
%TO.C,SW11*%
X105650476Y-62610761D02*
X105793333Y-62658380D01*
X106031428Y-62658380D01*
X106126666Y-62610761D01*
X106174285Y-62563142D01*
X106221904Y-62467904D01*
X106221904Y-62372666D01*
X106174285Y-62277428D01*
X106126666Y-62229809D01*
X106031428Y-62182190D01*
X105840952Y-62134571D01*
X105745714Y-62086952D01*
X105698095Y-62039333D01*
X105650476Y-61944095D01*
X105650476Y-61848857D01*
X105698095Y-61753619D01*
X105745714Y-61706000D01*
X105840952Y-61658380D01*
X106079047Y-61658380D01*
X106221904Y-61706000D01*
X106555238Y-61658380D02*
X106793333Y-62658380D01*
X106983809Y-61944095D01*
X107174285Y-62658380D01*
X107412380Y-61658380D01*
X108317142Y-62658380D02*
X107745714Y-62658380D01*
X108031428Y-62658380D02*
X108031428Y-61658380D01*
X107936190Y-61801238D01*
X107840952Y-61896476D01*
X107745714Y-61944095D01*
X109269523Y-62658380D02*
X108698095Y-62658380D01*
X108983809Y-62658380D02*
X108983809Y-61658380D01*
X108888571Y-61801238D01*
X108793333Y-61896476D01*
X108698095Y-61944095D01*
%TO.C,SW14*%
X125650476Y-17610761D02*
X125793333Y-17658380D01*
X126031428Y-17658380D01*
X126126666Y-17610761D01*
X126174285Y-17563142D01*
X126221904Y-17467904D01*
X126221904Y-17372666D01*
X126174285Y-17277428D01*
X126126666Y-17229809D01*
X126031428Y-17182190D01*
X125840952Y-17134571D01*
X125745714Y-17086952D01*
X125698095Y-17039333D01*
X125650476Y-16944095D01*
X125650476Y-16848857D01*
X125698095Y-16753619D01*
X125745714Y-16706000D01*
X125840952Y-16658380D01*
X126079047Y-16658380D01*
X126221904Y-16706000D01*
X126555238Y-16658380D02*
X126793333Y-17658380D01*
X126983809Y-16944095D01*
X127174285Y-17658380D01*
X127412380Y-16658380D01*
X128317142Y-17658380D02*
X127745714Y-17658380D01*
X128031428Y-17658380D02*
X128031428Y-16658380D01*
X127936190Y-16801238D01*
X127840952Y-16896476D01*
X127745714Y-16944095D01*
X129174285Y-16991714D02*
X129174285Y-17658380D01*
X128936190Y-16610761D02*
X128698095Y-17325047D01*
X129317142Y-17325047D01*
%TO.C,SW18*%
X150650476Y-17610761D02*
X150793333Y-17658380D01*
X151031428Y-17658380D01*
X151126666Y-17610761D01*
X151174285Y-17563142D01*
X151221904Y-17467904D01*
X151221904Y-17372666D01*
X151174285Y-17277428D01*
X151126666Y-17229809D01*
X151031428Y-17182190D01*
X150840952Y-17134571D01*
X150745714Y-17086952D01*
X150698095Y-17039333D01*
X150650476Y-16944095D01*
X150650476Y-16848857D01*
X150698095Y-16753619D01*
X150745714Y-16706000D01*
X150840952Y-16658380D01*
X151079047Y-16658380D01*
X151221904Y-16706000D01*
X151555238Y-16658380D02*
X151793333Y-17658380D01*
X151983809Y-16944095D01*
X152174285Y-17658380D01*
X152412380Y-16658380D01*
X153317142Y-17658380D02*
X152745714Y-17658380D01*
X153031428Y-17658380D02*
X153031428Y-16658380D01*
X152936190Y-16801238D01*
X152840952Y-16896476D01*
X152745714Y-16944095D01*
X153888571Y-17086952D02*
X153793333Y-17039333D01*
X153745714Y-16991714D01*
X153698095Y-16896476D01*
X153698095Y-16848857D01*
X153745714Y-16753619D01*
X153793333Y-16706000D01*
X153888571Y-16658380D01*
X154079047Y-16658380D01*
X154174285Y-16706000D01*
X154221904Y-16753619D01*
X154269523Y-16848857D01*
X154269523Y-16896476D01*
X154221904Y-16991714D01*
X154174285Y-17039333D01*
X154079047Y-17086952D01*
X153888571Y-17086952D01*
X153793333Y-17134571D01*
X153745714Y-17182190D01*
X153698095Y-17277428D01*
X153698095Y-17467904D01*
X153745714Y-17563142D01*
X153793333Y-17610761D01*
X153888571Y-17658380D01*
X154079047Y-17658380D01*
X154174285Y-17610761D01*
X154221904Y-17563142D01*
X154269523Y-17467904D01*
X154269523Y-17277428D01*
X154221904Y-17182190D01*
X154174285Y-17134571D01*
X154079047Y-17086952D01*
%TO.C,R10*%
X122752380Y-141142857D02*
X122276190Y-141476190D01*
X122752380Y-141714285D02*
X121752380Y-141714285D01*
X121752380Y-141333333D01*
X121800000Y-141238095D01*
X121847619Y-141190476D01*
X121942857Y-141142857D01*
X122085714Y-141142857D01*
X122180952Y-141190476D01*
X122228571Y-141238095D01*
X122276190Y-141333333D01*
X122276190Y-141714285D01*
X122752380Y-140190476D02*
X122752380Y-140761904D01*
X122752380Y-140476190D02*
X121752380Y-140476190D01*
X121895238Y-140571428D01*
X121990476Y-140666666D01*
X122038095Y-140761904D01*
X121752380Y-139571428D02*
X121752380Y-139476190D01*
X121800000Y-139380952D01*
X121847619Y-139333333D01*
X121942857Y-139285714D01*
X122133333Y-139238095D01*
X122371428Y-139238095D01*
X122561904Y-139285714D01*
X122657142Y-139333333D01*
X122704761Y-139380952D01*
X122752380Y-139476190D01*
X122752380Y-139571428D01*
X122704761Y-139666666D01*
X122657142Y-139714285D01*
X122561904Y-139761904D01*
X122371428Y-139809523D01*
X122133333Y-139809523D01*
X121942857Y-139761904D01*
X121847619Y-139714285D01*
X121800000Y-139666666D01*
X121752380Y-139571428D01*
%TO.C,R11*%
X124052380Y-141142857D02*
X123576190Y-141476190D01*
X124052380Y-141714285D02*
X123052380Y-141714285D01*
X123052380Y-141333333D01*
X123100000Y-141238095D01*
X123147619Y-141190476D01*
X123242857Y-141142857D01*
X123385714Y-141142857D01*
X123480952Y-141190476D01*
X123528571Y-141238095D01*
X123576190Y-141333333D01*
X123576190Y-141714285D01*
X124052380Y-140190476D02*
X124052380Y-140761904D01*
X124052380Y-140476190D02*
X123052380Y-140476190D01*
X123195238Y-140571428D01*
X123290476Y-140666666D01*
X123338095Y-140761904D01*
X124052380Y-139238095D02*
X124052380Y-139809523D01*
X124052380Y-139523809D02*
X123052380Y-139523809D01*
X123195238Y-139619047D01*
X123290476Y-139714285D01*
X123338095Y-139809523D01*
%TO.C,R12*%
X125352380Y-141142857D02*
X124876190Y-141476190D01*
X125352380Y-141714285D02*
X124352380Y-141714285D01*
X124352380Y-141333333D01*
X124400000Y-141238095D01*
X124447619Y-141190476D01*
X124542857Y-141142857D01*
X124685714Y-141142857D01*
X124780952Y-141190476D01*
X124828571Y-141238095D01*
X124876190Y-141333333D01*
X124876190Y-141714285D01*
X125352380Y-140190476D02*
X125352380Y-140761904D01*
X125352380Y-140476190D02*
X124352380Y-140476190D01*
X124495238Y-140571428D01*
X124590476Y-140666666D01*
X124638095Y-140761904D01*
X124447619Y-139809523D02*
X124400000Y-139761904D01*
X124352380Y-139666666D01*
X124352380Y-139428571D01*
X124400000Y-139333333D01*
X124447619Y-139285714D01*
X124542857Y-139238095D01*
X124638095Y-139238095D01*
X124780952Y-139285714D01*
X125352380Y-139857142D01*
X125352380Y-139238095D01*
%TO.C,R13*%
X126652380Y-141142857D02*
X126176190Y-141476190D01*
X126652380Y-141714285D02*
X125652380Y-141714285D01*
X125652380Y-141333333D01*
X125700000Y-141238095D01*
X125747619Y-141190476D01*
X125842857Y-141142857D01*
X125985714Y-141142857D01*
X126080952Y-141190476D01*
X126128571Y-141238095D01*
X126176190Y-141333333D01*
X126176190Y-141714285D01*
X126652380Y-140190476D02*
X126652380Y-140761904D01*
X126652380Y-140476190D02*
X125652380Y-140476190D01*
X125795238Y-140571428D01*
X125890476Y-140666666D01*
X125938095Y-140761904D01*
X125652380Y-139857142D02*
X125652380Y-139238095D01*
X126033333Y-139571428D01*
X126033333Y-139428571D01*
X126080952Y-139333333D01*
X126128571Y-139285714D01*
X126223809Y-139238095D01*
X126461904Y-139238095D01*
X126557142Y-139285714D01*
X126604761Y-139333333D01*
X126652380Y-139428571D01*
X126652380Y-139714285D01*
X126604761Y-139809523D01*
X126557142Y-139857142D01*
%TO.C,R14*%
X127952380Y-141142857D02*
X127476190Y-141476190D01*
X127952380Y-141714285D02*
X126952380Y-141714285D01*
X126952380Y-141333333D01*
X127000000Y-141238095D01*
X127047619Y-141190476D01*
X127142857Y-141142857D01*
X127285714Y-141142857D01*
X127380952Y-141190476D01*
X127428571Y-141238095D01*
X127476190Y-141333333D01*
X127476190Y-141714285D01*
X127952380Y-140190476D02*
X127952380Y-140761904D01*
X127952380Y-140476190D02*
X126952380Y-140476190D01*
X127095238Y-140571428D01*
X127190476Y-140666666D01*
X127238095Y-140761904D01*
X127285714Y-139333333D02*
X127952380Y-139333333D01*
X126904761Y-139571428D02*
X127619047Y-139809523D01*
X127619047Y-139190476D01*
%TO.C,R15*%
X130452380Y-141142857D02*
X129976190Y-141476190D01*
X130452380Y-141714285D02*
X129452380Y-141714285D01*
X129452380Y-141333333D01*
X129500000Y-141238095D01*
X129547619Y-141190476D01*
X129642857Y-141142857D01*
X129785714Y-141142857D01*
X129880952Y-141190476D01*
X129928571Y-141238095D01*
X129976190Y-141333333D01*
X129976190Y-141714285D01*
X130452380Y-140190476D02*
X130452380Y-140761904D01*
X130452380Y-140476190D02*
X129452380Y-140476190D01*
X129595238Y-140571428D01*
X129690476Y-140666666D01*
X129738095Y-140761904D01*
X129452380Y-139285714D02*
X129452380Y-139761904D01*
X129928571Y-139809523D01*
X129880952Y-139761904D01*
X129833333Y-139666666D01*
X129833333Y-139428571D01*
X129880952Y-139333333D01*
X129928571Y-139285714D01*
X130023809Y-139238095D01*
X130261904Y-139238095D01*
X130357142Y-139285714D01*
X130404761Y-139333333D01*
X130452380Y-139428571D01*
X130452380Y-139666666D01*
X130404761Y-139761904D01*
X130357142Y-139809523D01*
%TO.C,R16*%
X129152380Y-141142857D02*
X128676190Y-141476190D01*
X129152380Y-141714285D02*
X128152380Y-141714285D01*
X128152380Y-141333333D01*
X128200000Y-141238095D01*
X128247619Y-141190476D01*
X128342857Y-141142857D01*
X128485714Y-141142857D01*
X128580952Y-141190476D01*
X128628571Y-141238095D01*
X128676190Y-141333333D01*
X128676190Y-141714285D01*
X129152380Y-140190476D02*
X129152380Y-140761904D01*
X129152380Y-140476190D02*
X128152380Y-140476190D01*
X128295238Y-140571428D01*
X128390476Y-140666666D01*
X128438095Y-140761904D01*
X128152380Y-139333333D02*
X128152380Y-139523809D01*
X128200000Y-139619047D01*
X128247619Y-139666666D01*
X128390476Y-139761904D01*
X128580952Y-139809523D01*
X128961904Y-139809523D01*
X129057142Y-139761904D01*
X129104761Y-139714285D01*
X129152380Y-139619047D01*
X129152380Y-139428571D01*
X129104761Y-139333333D01*
X129057142Y-139285714D01*
X128961904Y-139238095D01*
X128723809Y-139238095D01*
X128628571Y-139285714D01*
X128580952Y-139333333D01*
X128533333Y-139428571D01*
X128533333Y-139619047D01*
X128580952Y-139714285D01*
X128628571Y-139761904D01*
X128723809Y-139809523D01*
%TO.C,R17*%
X137282380Y-128142857D02*
X136806190Y-128476190D01*
X137282380Y-128714285D02*
X136282380Y-128714285D01*
X136282380Y-128333333D01*
X136330000Y-128238095D01*
X136377619Y-128190476D01*
X136472857Y-128142857D01*
X136615714Y-128142857D01*
X136710952Y-128190476D01*
X136758571Y-128238095D01*
X136806190Y-128333333D01*
X136806190Y-128714285D01*
X137282380Y-127190476D02*
X137282380Y-127761904D01*
X137282380Y-127476190D02*
X136282380Y-127476190D01*
X136425238Y-127571428D01*
X136520476Y-127666666D01*
X136568095Y-127761904D01*
X136282380Y-126857142D02*
X136282380Y-126190476D01*
X137282380Y-126619047D01*
%TO.C,R18*%
X137282380Y-135042857D02*
X136806190Y-135376190D01*
X137282380Y-135614285D02*
X136282380Y-135614285D01*
X136282380Y-135233333D01*
X136330000Y-135138095D01*
X136377619Y-135090476D01*
X136472857Y-135042857D01*
X136615714Y-135042857D01*
X136710952Y-135090476D01*
X136758571Y-135138095D01*
X136806190Y-135233333D01*
X136806190Y-135614285D01*
X137282380Y-134090476D02*
X137282380Y-134661904D01*
X137282380Y-134376190D02*
X136282380Y-134376190D01*
X136425238Y-134471428D01*
X136520476Y-134566666D01*
X136568095Y-134661904D01*
X136710952Y-133519047D02*
X136663333Y-133614285D01*
X136615714Y-133661904D01*
X136520476Y-133709523D01*
X136472857Y-133709523D01*
X136377619Y-133661904D01*
X136330000Y-133614285D01*
X136282380Y-133519047D01*
X136282380Y-133328571D01*
X136330000Y-133233333D01*
X136377619Y-133185714D01*
X136472857Y-133138095D01*
X136520476Y-133138095D01*
X136615714Y-133185714D01*
X136663333Y-133233333D01*
X136710952Y-133328571D01*
X136710952Y-133519047D01*
X136758571Y-133614285D01*
X136806190Y-133661904D01*
X136901428Y-133709523D01*
X137091904Y-133709523D01*
X137187142Y-133661904D01*
X137234761Y-133614285D01*
X137282380Y-133519047D01*
X137282380Y-133328571D01*
X137234761Y-133233333D01*
X137187142Y-133185714D01*
X137091904Y-133138095D01*
X136901428Y-133138095D01*
X136806190Y-133185714D01*
X136758571Y-133233333D01*
X136710952Y-133328571D01*
%TO.C,R19*%
X119457142Y-113382380D02*
X119123809Y-112906190D01*
X118885714Y-113382380D02*
X118885714Y-112382380D01*
X119266666Y-112382380D01*
X119361904Y-112430000D01*
X119409523Y-112477619D01*
X119457142Y-112572857D01*
X119457142Y-112715714D01*
X119409523Y-112810952D01*
X119361904Y-112858571D01*
X119266666Y-112906190D01*
X118885714Y-112906190D01*
X120409523Y-113382380D02*
X119838095Y-113382380D01*
X120123809Y-113382380D02*
X120123809Y-112382380D01*
X120028571Y-112525238D01*
X119933333Y-112620476D01*
X119838095Y-112668095D01*
X120885714Y-113382380D02*
X121076190Y-113382380D01*
X121171428Y-113334761D01*
X121219047Y-113287142D01*
X121314285Y-113144285D01*
X121361904Y-112953809D01*
X121361904Y-112572857D01*
X121314285Y-112477619D01*
X121266666Y-112430000D01*
X121171428Y-112382380D01*
X120980952Y-112382380D01*
X120885714Y-112430000D01*
X120838095Y-112477619D01*
X120790476Y-112572857D01*
X120790476Y-112810952D01*
X120838095Y-112906190D01*
X120885714Y-112953809D01*
X120980952Y-113001428D01*
X121171428Y-113001428D01*
X121266666Y-112953809D01*
X121314285Y-112906190D01*
X121361904Y-112810952D01*
%TD*%
M02*
