%TF.GenerationSoftware,KiCad,Pcbnew,(5.1.9)-1*%
%TF.CreationDate,2021-06-11T11:51:17+02:00*%
%TF.ProjectId,08_Main_Gauche,30385f4d-6169-46e5-9f47-61756368652e,rev?*%
%TF.SameCoordinates,Original*%
%TF.FileFunction,Soldermask,Top*%
%TF.FilePolarity,Negative*%
%FSLAX46Y46*%
G04 Gerber Fmt 4.6, Leading zero omitted, Abs format (unit mm)*
G04 Created by KiCad (PCBNEW (5.1.9)-1) date 2021-06-11 11:51:17*
%MOMM*%
%LPD*%
G01*
G04 APERTURE LIST*
%TA.AperFunction,Profile*%
%ADD10C,0.150000*%
%TD*%
%ADD11C,2.300000*%
%ADD12C,4.100000*%
%ADD13C,1.800000*%
%ADD14C,0.900000*%
%ADD15C,6.500000*%
%ADD16C,1.624000*%
%ADD17O,2.050000X1.800000*%
G04 APERTURE END LIST*
D10*
X165000000Y-25000000D02*
G75*
G02*
X170000000Y-30000000I0J-5000000D01*
G01*
X170050000Y-174950000D02*
G75*
G02*
X165050000Y-179950000I-5000000J0D01*
G01*
X25050000Y-179950000D02*
G75*
G02*
X20050000Y-174950000I0J5000000D01*
G01*
X20050000Y-30000000D02*
G75*
G02*
X25050000Y-25000000I5000000J0D01*
G01*
X20050000Y-174950000D02*
X20050000Y-30000000D01*
X165050000Y-179950000D02*
X25050000Y-179950000D01*
X170000000Y-30000000D02*
X170050000Y-174950000D01*
X25050000Y-25000000D02*
X165000000Y-25000000D01*
%TO.C,R8*%
G36*
G01*
X87500000Y-48075000D02*
X88100000Y-48075000D01*
G75*
G02*
X88325000Y-48300000I0J-225000D01*
G01*
X88325000Y-48750000D01*
G75*
G02*
X88100000Y-48975000I-225000J0D01*
G01*
X87500000Y-48975000D01*
G75*
G02*
X87275000Y-48750000I0J225000D01*
G01*
X87275000Y-48300000D01*
G75*
G02*
X87500000Y-48075000I225000J0D01*
G01*
G37*
G36*
G01*
X87500000Y-46425000D02*
X88100000Y-46425000D01*
G75*
G02*
X88325000Y-46650000I0J-225000D01*
G01*
X88325000Y-47100000D01*
G75*
G02*
X88100000Y-47325000I-225000J0D01*
G01*
X87500000Y-47325000D01*
G75*
G02*
X87275000Y-47100000I0J225000D01*
G01*
X87275000Y-46650000D01*
G75*
G02*
X87500000Y-46425000I225000J0D01*
G01*
G37*
%TD*%
%TO.C,R27*%
G36*
G01*
X129025000Y-44500000D02*
X129025000Y-43900000D01*
G75*
G02*
X129250000Y-43675000I225000J0D01*
G01*
X129700000Y-43675000D01*
G75*
G02*
X129925000Y-43900000I0J-225000D01*
G01*
X129925000Y-44500000D01*
G75*
G02*
X129700000Y-44725000I-225000J0D01*
G01*
X129250000Y-44725000D01*
G75*
G02*
X129025000Y-44500000I0J225000D01*
G01*
G37*
G36*
G01*
X130675000Y-44500000D02*
X130675000Y-43900000D01*
G75*
G02*
X130900000Y-43675000I225000J0D01*
G01*
X131350000Y-43675000D01*
G75*
G02*
X131575000Y-43900000I0J-225000D01*
G01*
X131575000Y-44500000D01*
G75*
G02*
X131350000Y-44725000I-225000J0D01*
G01*
X130900000Y-44725000D01*
G75*
G02*
X130675000Y-44500000I0J225000D01*
G01*
G37*
%TD*%
D11*
%TO.C,SW4*%
X45050000Y-119950000D03*
X38700000Y-122490000D03*
D12*
X42510000Y-125030000D03*
D13*
X37430000Y-125030000D03*
X47590000Y-125030000D03*
%TD*%
D14*
%TO.C,H2*%
X166747056Y-173252944D03*
X165050000Y-172550000D03*
X163352944Y-173252944D03*
X162650000Y-174950000D03*
X163352944Y-176647056D03*
X165050000Y-177350000D03*
X166747056Y-176647056D03*
X167450000Y-174950000D03*
D15*
X165050000Y-174950000D03*
%TD*%
D14*
%TO.C,H1*%
X26697056Y-28302944D03*
X25000000Y-27600000D03*
X23302944Y-28302944D03*
X22600000Y-30000000D03*
X23302944Y-31697056D03*
X25000000Y-32400000D03*
X26697056Y-31697056D03*
X27400000Y-30000000D03*
D15*
X25000000Y-30000000D03*
%TD*%
D14*
%TO.C,H3*%
X166747056Y-28302944D03*
X165050000Y-27600000D03*
X163352944Y-28302944D03*
X162650000Y-30000000D03*
X163352944Y-31697056D03*
X165050000Y-32400000D03*
X166747056Y-31697056D03*
X167450000Y-30000000D03*
D15*
X165050000Y-30000000D03*
%TD*%
D14*
%TO.C,H4*%
X26747056Y-173252944D03*
X25050000Y-172550000D03*
X23352944Y-173252944D03*
X22650000Y-174950000D03*
X23352944Y-176647056D03*
X25050000Y-177350000D03*
X26747056Y-176647056D03*
X27450000Y-174950000D03*
D15*
X25050000Y-174950000D03*
%TD*%
D13*
%TO.C,SW2*%
X47590000Y-85030000D03*
X37430000Y-85030000D03*
D12*
X42510000Y-85030000D03*
D11*
X38700000Y-82490000D03*
X45050000Y-79950000D03*
%TD*%
D13*
%TO.C,SW3*%
X47590000Y-105030000D03*
X37430000Y-105030000D03*
D12*
X42510000Y-105030000D03*
D11*
X38700000Y-102490000D03*
X45050000Y-99950000D03*
%TD*%
%TO.C,D4*%
G36*
G01*
X33700000Y-123050000D02*
X33700000Y-121850000D01*
G75*
G02*
X33750000Y-121800000I50000J0D01*
G01*
X34650000Y-121800000D01*
G75*
G02*
X34700000Y-121850000I0J-50000D01*
G01*
X34700000Y-123050000D01*
G75*
G02*
X34650000Y-123100000I-50000J0D01*
G01*
X33750000Y-123100000D01*
G75*
G02*
X33700000Y-123050000I0J50000D01*
G01*
G37*
G36*
G01*
X30400000Y-123050000D02*
X30400000Y-121850000D01*
G75*
G02*
X30450000Y-121800000I50000J0D01*
G01*
X31350000Y-121800000D01*
G75*
G02*
X31400000Y-121850000I0J-50000D01*
G01*
X31400000Y-123050000D01*
G75*
G02*
X31350000Y-123100000I-50000J0D01*
G01*
X30450000Y-123100000D01*
G75*
G02*
X30400000Y-123050000I0J50000D01*
G01*
G37*
%TD*%
%TO.C,D20*%
G36*
G01*
X123700000Y-123050000D02*
X123700000Y-121850000D01*
G75*
G02*
X123750000Y-121800000I50000J0D01*
G01*
X124650000Y-121800000D01*
G75*
G02*
X124700000Y-121850000I0J-50000D01*
G01*
X124700000Y-123050000D01*
G75*
G02*
X124650000Y-123100000I-50000J0D01*
G01*
X123750000Y-123100000D01*
G75*
G02*
X123700000Y-123050000I0J50000D01*
G01*
G37*
G36*
G01*
X120400000Y-123050000D02*
X120400000Y-121850000D01*
G75*
G02*
X120450000Y-121800000I50000J0D01*
G01*
X121350000Y-121800000D01*
G75*
G02*
X121400000Y-121850000I0J-50000D01*
G01*
X121400000Y-123050000D01*
G75*
G02*
X121350000Y-123100000I-50000J0D01*
G01*
X120450000Y-123100000D01*
G75*
G02*
X120400000Y-123050000I0J50000D01*
G01*
G37*
%TD*%
%TO.C,D8*%
G36*
G01*
X58700000Y-123050000D02*
X58700000Y-121850000D01*
G75*
G02*
X58750000Y-121800000I50000J0D01*
G01*
X59650000Y-121800000D01*
G75*
G02*
X59700000Y-121850000I0J-50000D01*
G01*
X59700000Y-123050000D01*
G75*
G02*
X59650000Y-123100000I-50000J0D01*
G01*
X58750000Y-123100000D01*
G75*
G02*
X58700000Y-123050000I0J50000D01*
G01*
G37*
G36*
G01*
X55400000Y-123050000D02*
X55400000Y-121850000D01*
G75*
G02*
X55450000Y-121800000I50000J0D01*
G01*
X56350000Y-121800000D01*
G75*
G02*
X56400000Y-121850000I0J-50000D01*
G01*
X56400000Y-123050000D01*
G75*
G02*
X56350000Y-123100000I-50000J0D01*
G01*
X55450000Y-123100000D01*
G75*
G02*
X55400000Y-123050000I0J50000D01*
G01*
G37*
%TD*%
%TO.C,D12*%
G36*
G01*
X78700000Y-123050000D02*
X78700000Y-121850000D01*
G75*
G02*
X78750000Y-121800000I50000J0D01*
G01*
X79650000Y-121800000D01*
G75*
G02*
X79700000Y-121850000I0J-50000D01*
G01*
X79700000Y-123050000D01*
G75*
G02*
X79650000Y-123100000I-50000J0D01*
G01*
X78750000Y-123100000D01*
G75*
G02*
X78700000Y-123050000I0J50000D01*
G01*
G37*
G36*
G01*
X75400000Y-123050000D02*
X75400000Y-121850000D01*
G75*
G02*
X75450000Y-121800000I50000J0D01*
G01*
X76350000Y-121800000D01*
G75*
G02*
X76400000Y-121850000I0J-50000D01*
G01*
X76400000Y-123050000D01*
G75*
G02*
X76350000Y-123100000I-50000J0D01*
G01*
X75450000Y-123100000D01*
G75*
G02*
X75400000Y-123050000I0J50000D01*
G01*
G37*
%TD*%
%TO.C,D16*%
G36*
G01*
X98700000Y-123050000D02*
X98700000Y-121850000D01*
G75*
G02*
X98750000Y-121800000I50000J0D01*
G01*
X99650000Y-121800000D01*
G75*
G02*
X99700000Y-121850000I0J-50000D01*
G01*
X99700000Y-123050000D01*
G75*
G02*
X99650000Y-123100000I-50000J0D01*
G01*
X98750000Y-123100000D01*
G75*
G02*
X98700000Y-123050000I0J50000D01*
G01*
G37*
G36*
G01*
X95400000Y-123050000D02*
X95400000Y-121850000D01*
G75*
G02*
X95450000Y-121800000I50000J0D01*
G01*
X96350000Y-121800000D01*
G75*
G02*
X96400000Y-121850000I0J-50000D01*
G01*
X96400000Y-123050000D01*
G75*
G02*
X96350000Y-123100000I-50000J0D01*
G01*
X95450000Y-123100000D01*
G75*
G02*
X95400000Y-123050000I0J50000D01*
G01*
G37*
%TD*%
%TO.C,D2*%
G36*
G01*
X33700000Y-83050000D02*
X33700000Y-81850000D01*
G75*
G02*
X33750000Y-81800000I50000J0D01*
G01*
X34650000Y-81800000D01*
G75*
G02*
X34700000Y-81850000I0J-50000D01*
G01*
X34700000Y-83050000D01*
G75*
G02*
X34650000Y-83100000I-50000J0D01*
G01*
X33750000Y-83100000D01*
G75*
G02*
X33700000Y-83050000I0J50000D01*
G01*
G37*
G36*
G01*
X30400000Y-83050000D02*
X30400000Y-81850000D01*
G75*
G02*
X30450000Y-81800000I50000J0D01*
G01*
X31350000Y-81800000D01*
G75*
G02*
X31400000Y-81850000I0J-50000D01*
G01*
X31400000Y-83050000D01*
G75*
G02*
X31350000Y-83100000I-50000J0D01*
G01*
X30450000Y-83100000D01*
G75*
G02*
X30400000Y-83050000I0J50000D01*
G01*
G37*
%TD*%
%TO.C,D18*%
G36*
G01*
X123700000Y-83050000D02*
X123700000Y-81850000D01*
G75*
G02*
X123750000Y-81800000I50000J0D01*
G01*
X124650000Y-81800000D01*
G75*
G02*
X124700000Y-81850000I0J-50000D01*
G01*
X124700000Y-83050000D01*
G75*
G02*
X124650000Y-83100000I-50000J0D01*
G01*
X123750000Y-83100000D01*
G75*
G02*
X123700000Y-83050000I0J50000D01*
G01*
G37*
G36*
G01*
X120400000Y-83050000D02*
X120400000Y-81850000D01*
G75*
G02*
X120450000Y-81800000I50000J0D01*
G01*
X121350000Y-81800000D01*
G75*
G02*
X121400000Y-81850000I0J-50000D01*
G01*
X121400000Y-83050000D01*
G75*
G02*
X121350000Y-83100000I-50000J0D01*
G01*
X120450000Y-83100000D01*
G75*
G02*
X120400000Y-83050000I0J50000D01*
G01*
G37*
%TD*%
%TO.C,D6*%
G36*
G01*
X58700000Y-83050000D02*
X58700000Y-81850000D01*
G75*
G02*
X58750000Y-81800000I50000J0D01*
G01*
X59650000Y-81800000D01*
G75*
G02*
X59700000Y-81850000I0J-50000D01*
G01*
X59700000Y-83050000D01*
G75*
G02*
X59650000Y-83100000I-50000J0D01*
G01*
X58750000Y-83100000D01*
G75*
G02*
X58700000Y-83050000I0J50000D01*
G01*
G37*
G36*
G01*
X55400000Y-83050000D02*
X55400000Y-81850000D01*
G75*
G02*
X55450000Y-81800000I50000J0D01*
G01*
X56350000Y-81800000D01*
G75*
G02*
X56400000Y-81850000I0J-50000D01*
G01*
X56400000Y-83050000D01*
G75*
G02*
X56350000Y-83100000I-50000J0D01*
G01*
X55450000Y-83100000D01*
G75*
G02*
X55400000Y-83050000I0J50000D01*
G01*
G37*
%TD*%
%TO.C,D10*%
G36*
G01*
X78700000Y-83050000D02*
X78700000Y-81850000D01*
G75*
G02*
X78750000Y-81800000I50000J0D01*
G01*
X79650000Y-81800000D01*
G75*
G02*
X79700000Y-81850000I0J-50000D01*
G01*
X79700000Y-83050000D01*
G75*
G02*
X79650000Y-83100000I-50000J0D01*
G01*
X78750000Y-83100000D01*
G75*
G02*
X78700000Y-83050000I0J50000D01*
G01*
G37*
G36*
G01*
X75400000Y-83050000D02*
X75400000Y-81850000D01*
G75*
G02*
X75450000Y-81800000I50000J0D01*
G01*
X76350000Y-81800000D01*
G75*
G02*
X76400000Y-81850000I0J-50000D01*
G01*
X76400000Y-83050000D01*
G75*
G02*
X76350000Y-83100000I-50000J0D01*
G01*
X75450000Y-83100000D01*
G75*
G02*
X75400000Y-83050000I0J50000D01*
G01*
G37*
%TD*%
%TO.C,D14*%
G36*
G01*
X98700000Y-83050000D02*
X98700000Y-81850000D01*
G75*
G02*
X98750000Y-81800000I50000J0D01*
G01*
X99650000Y-81800000D01*
G75*
G02*
X99700000Y-81850000I0J-50000D01*
G01*
X99700000Y-83050000D01*
G75*
G02*
X99650000Y-83100000I-50000J0D01*
G01*
X98750000Y-83100000D01*
G75*
G02*
X98700000Y-83050000I0J50000D01*
G01*
G37*
G36*
G01*
X95400000Y-83050000D02*
X95400000Y-81850000D01*
G75*
G02*
X95450000Y-81800000I50000J0D01*
G01*
X96350000Y-81800000D01*
G75*
G02*
X96400000Y-81850000I0J-50000D01*
G01*
X96400000Y-83050000D01*
G75*
G02*
X96350000Y-83100000I-50000J0D01*
G01*
X95450000Y-83100000D01*
G75*
G02*
X95400000Y-83050000I0J50000D01*
G01*
G37*
%TD*%
%TO.C,D3*%
G36*
G01*
X33700000Y-103050000D02*
X33700000Y-101850000D01*
G75*
G02*
X33750000Y-101800000I50000J0D01*
G01*
X34650000Y-101800000D01*
G75*
G02*
X34700000Y-101850000I0J-50000D01*
G01*
X34700000Y-103050000D01*
G75*
G02*
X34650000Y-103100000I-50000J0D01*
G01*
X33750000Y-103100000D01*
G75*
G02*
X33700000Y-103050000I0J50000D01*
G01*
G37*
G36*
G01*
X30400000Y-103050000D02*
X30400000Y-101850000D01*
G75*
G02*
X30450000Y-101800000I50000J0D01*
G01*
X31350000Y-101800000D01*
G75*
G02*
X31400000Y-101850000I0J-50000D01*
G01*
X31400000Y-103050000D01*
G75*
G02*
X31350000Y-103100000I-50000J0D01*
G01*
X30450000Y-103100000D01*
G75*
G02*
X30400000Y-103050000I0J50000D01*
G01*
G37*
%TD*%
%TO.C,D19*%
G36*
G01*
X123700000Y-103050000D02*
X123700000Y-101850000D01*
G75*
G02*
X123750000Y-101800000I50000J0D01*
G01*
X124650000Y-101800000D01*
G75*
G02*
X124700000Y-101850000I0J-50000D01*
G01*
X124700000Y-103050000D01*
G75*
G02*
X124650000Y-103100000I-50000J0D01*
G01*
X123750000Y-103100000D01*
G75*
G02*
X123700000Y-103050000I0J50000D01*
G01*
G37*
G36*
G01*
X120400000Y-103050000D02*
X120400000Y-101850000D01*
G75*
G02*
X120450000Y-101800000I50000J0D01*
G01*
X121350000Y-101800000D01*
G75*
G02*
X121400000Y-101850000I0J-50000D01*
G01*
X121400000Y-103050000D01*
G75*
G02*
X121350000Y-103100000I-50000J0D01*
G01*
X120450000Y-103100000D01*
G75*
G02*
X120400000Y-103050000I0J50000D01*
G01*
G37*
%TD*%
%TO.C,D7*%
G36*
G01*
X58700000Y-103050000D02*
X58700000Y-101850000D01*
G75*
G02*
X58750000Y-101800000I50000J0D01*
G01*
X59650000Y-101800000D01*
G75*
G02*
X59700000Y-101850000I0J-50000D01*
G01*
X59700000Y-103050000D01*
G75*
G02*
X59650000Y-103100000I-50000J0D01*
G01*
X58750000Y-103100000D01*
G75*
G02*
X58700000Y-103050000I0J50000D01*
G01*
G37*
G36*
G01*
X55400000Y-103050000D02*
X55400000Y-101850000D01*
G75*
G02*
X55450000Y-101800000I50000J0D01*
G01*
X56350000Y-101800000D01*
G75*
G02*
X56400000Y-101850000I0J-50000D01*
G01*
X56400000Y-103050000D01*
G75*
G02*
X56350000Y-103100000I-50000J0D01*
G01*
X55450000Y-103100000D01*
G75*
G02*
X55400000Y-103050000I0J50000D01*
G01*
G37*
%TD*%
%TO.C,D11*%
G36*
G01*
X78700000Y-103050000D02*
X78700000Y-101850000D01*
G75*
G02*
X78750000Y-101800000I50000J0D01*
G01*
X79650000Y-101800000D01*
G75*
G02*
X79700000Y-101850000I0J-50000D01*
G01*
X79700000Y-103050000D01*
G75*
G02*
X79650000Y-103100000I-50000J0D01*
G01*
X78750000Y-103100000D01*
G75*
G02*
X78700000Y-103050000I0J50000D01*
G01*
G37*
G36*
G01*
X75400000Y-103050000D02*
X75400000Y-101850000D01*
G75*
G02*
X75450000Y-101800000I50000J0D01*
G01*
X76350000Y-101800000D01*
G75*
G02*
X76400000Y-101850000I0J-50000D01*
G01*
X76400000Y-103050000D01*
G75*
G02*
X76350000Y-103100000I-50000J0D01*
G01*
X75450000Y-103100000D01*
G75*
G02*
X75400000Y-103050000I0J50000D01*
G01*
G37*
%TD*%
%TO.C,D15*%
G36*
G01*
X98700000Y-103050000D02*
X98700000Y-101850000D01*
G75*
G02*
X98750000Y-101800000I50000J0D01*
G01*
X99650000Y-101800000D01*
G75*
G02*
X99700000Y-101850000I0J-50000D01*
G01*
X99700000Y-103050000D01*
G75*
G02*
X99650000Y-103100000I-50000J0D01*
G01*
X98750000Y-103100000D01*
G75*
G02*
X98700000Y-103050000I0J50000D01*
G01*
G37*
G36*
G01*
X95400000Y-103050000D02*
X95400000Y-101850000D01*
G75*
G02*
X95450000Y-101800000I50000J0D01*
G01*
X96350000Y-101800000D01*
G75*
G02*
X96400000Y-101850000I0J-50000D01*
G01*
X96400000Y-103050000D01*
G75*
G02*
X96350000Y-103100000I-50000J0D01*
G01*
X95450000Y-103100000D01*
G75*
G02*
X95400000Y-103050000I0J50000D01*
G01*
G37*
%TD*%
D13*
%TO.C,SW21*%
X137590000Y-125030000D03*
X127430000Y-125030000D03*
D12*
X132510000Y-125030000D03*
D11*
X128700000Y-122490000D03*
X135050000Y-119950000D03*
%TD*%
D13*
%TO.C,SW8*%
X72590000Y-125030000D03*
X62430000Y-125030000D03*
D12*
X67510000Y-125030000D03*
D11*
X63700000Y-122490000D03*
X70050000Y-119950000D03*
%TD*%
D13*
%TO.C,SW12*%
X92590000Y-125030000D03*
X82430000Y-125030000D03*
D12*
X87510000Y-125030000D03*
D11*
X83700000Y-122490000D03*
X90050000Y-119950000D03*
%TD*%
D13*
%TO.C,SW17*%
X112590000Y-125030000D03*
X102430000Y-125030000D03*
D12*
X107510000Y-125030000D03*
D11*
X103700000Y-122490000D03*
X110050000Y-119950000D03*
%TD*%
D13*
%TO.C,SW19*%
X137590000Y-85030000D03*
X127430000Y-85030000D03*
D12*
X132510000Y-85030000D03*
D11*
X128700000Y-82490000D03*
X135050000Y-79950000D03*
%TD*%
D13*
%TO.C,SW6*%
X72590000Y-85030000D03*
X62430000Y-85030000D03*
D12*
X67510000Y-85030000D03*
D11*
X63700000Y-82490000D03*
X70050000Y-79950000D03*
%TD*%
D13*
%TO.C,SW10*%
X92590000Y-85030000D03*
X82430000Y-85030000D03*
D12*
X87510000Y-85030000D03*
D11*
X83700000Y-82490000D03*
X90050000Y-79950000D03*
%TD*%
D13*
%TO.C,SW15*%
X112590000Y-85030000D03*
X102430000Y-85030000D03*
D12*
X107510000Y-85030000D03*
D11*
X103700000Y-82490000D03*
X110050000Y-79950000D03*
%TD*%
D13*
%TO.C,SW20*%
X137590000Y-105030000D03*
X127430000Y-105030000D03*
D12*
X132510000Y-105030000D03*
D11*
X128700000Y-102490000D03*
X135050000Y-99950000D03*
%TD*%
D13*
%TO.C,SW7*%
X72590000Y-105030000D03*
X62430000Y-105030000D03*
D12*
X67510000Y-105030000D03*
D11*
X63700000Y-102490000D03*
X70050000Y-99950000D03*
%TD*%
D13*
%TO.C,SW16*%
X112590000Y-105030000D03*
X102430000Y-105030000D03*
D12*
X107510000Y-105030000D03*
D11*
X103700000Y-102490000D03*
X110050000Y-99950000D03*
%TD*%
%TO.C,SW13*%
G36*
G01*
X149400000Y-161050000D02*
X149400000Y-159750000D01*
G75*
G02*
X149450000Y-159700000I50000J0D01*
G01*
X150850000Y-159700000D01*
G75*
G02*
X150900000Y-159750000I0J-50000D01*
G01*
X150900000Y-161050000D01*
G75*
G02*
X150850000Y-161100000I-50000J0D01*
G01*
X149450000Y-161100000D01*
G75*
G02*
X149400000Y-161050000I0J50000D01*
G01*
G37*
G36*
G01*
X139200000Y-161050000D02*
X139200000Y-159750000D01*
G75*
G02*
X139250000Y-159700000I50000J0D01*
G01*
X140650000Y-159700000D01*
G75*
G02*
X140700000Y-159750000I0J-50000D01*
G01*
X140700000Y-161050000D01*
G75*
G02*
X140650000Y-161100000I-50000J0D01*
G01*
X139250000Y-161100000D01*
G75*
G02*
X139200000Y-161050000I0J50000D01*
G01*
G37*
G36*
G01*
X149400000Y-157450000D02*
X149400000Y-155950000D01*
G75*
G02*
X149450000Y-155900000I50000J0D01*
G01*
X150850000Y-155900000D01*
G75*
G02*
X150900000Y-155950000I0J-50000D01*
G01*
X150900000Y-157450000D01*
G75*
G02*
X150850000Y-157500000I-50000J0D01*
G01*
X149450000Y-157500000D01*
G75*
G02*
X149400000Y-157450000I0J50000D01*
G01*
G37*
G36*
G01*
X149400000Y-163950000D02*
X149400000Y-162450000D01*
G75*
G02*
X149450000Y-162400000I50000J0D01*
G01*
X150850000Y-162400000D01*
G75*
G02*
X150900000Y-162450000I0J-50000D01*
G01*
X150900000Y-163950000D01*
G75*
G02*
X150850000Y-164000000I-50000J0D01*
G01*
X149450000Y-164000000D01*
G75*
G02*
X149400000Y-163950000I0J50000D01*
G01*
G37*
G36*
G01*
X139200000Y-163950000D02*
X139200000Y-162450000D01*
G75*
G02*
X139250000Y-162400000I50000J0D01*
G01*
X140650000Y-162400000D01*
G75*
G02*
X140700000Y-162450000I0J-50000D01*
G01*
X140700000Y-163950000D01*
G75*
G02*
X140650000Y-164000000I-50000J0D01*
G01*
X139250000Y-164000000D01*
G75*
G02*
X139200000Y-163950000I0J50000D01*
G01*
G37*
G36*
G01*
X139200000Y-157450000D02*
X139200000Y-155950000D01*
G75*
G02*
X139250000Y-155900000I50000J0D01*
G01*
X140650000Y-155900000D01*
G75*
G02*
X140700000Y-155950000I0J-50000D01*
G01*
X140700000Y-157450000D01*
G75*
G02*
X140650000Y-157500000I-50000J0D01*
G01*
X139250000Y-157500000D01*
G75*
G02*
X139200000Y-157450000I0J50000D01*
G01*
G37*
%TD*%
%TO.C,D1*%
G36*
G01*
X30400000Y-58050000D02*
X30400000Y-56850000D01*
G75*
G02*
X30450000Y-56800000I50000J0D01*
G01*
X31350000Y-56800000D01*
G75*
G02*
X31400000Y-56850000I0J-50000D01*
G01*
X31400000Y-58050000D01*
G75*
G02*
X31350000Y-58100000I-50000J0D01*
G01*
X30450000Y-58100000D01*
G75*
G02*
X30400000Y-58050000I0J50000D01*
G01*
G37*
G36*
G01*
X33700000Y-58050000D02*
X33700000Y-56850000D01*
G75*
G02*
X33750000Y-56800000I50000J0D01*
G01*
X34650000Y-56800000D01*
G75*
G02*
X34700000Y-56850000I0J-50000D01*
G01*
X34700000Y-58050000D01*
G75*
G02*
X34650000Y-58100000I-50000J0D01*
G01*
X33750000Y-58100000D01*
G75*
G02*
X33700000Y-58050000I0J50000D01*
G01*
G37*
%TD*%
%TO.C,D5*%
G36*
G01*
X58700000Y-58050000D02*
X58700000Y-56850000D01*
G75*
G02*
X58750000Y-56800000I50000J0D01*
G01*
X59650000Y-56800000D01*
G75*
G02*
X59700000Y-56850000I0J-50000D01*
G01*
X59700000Y-58050000D01*
G75*
G02*
X59650000Y-58100000I-50000J0D01*
G01*
X58750000Y-58100000D01*
G75*
G02*
X58700000Y-58050000I0J50000D01*
G01*
G37*
G36*
G01*
X55400000Y-58050000D02*
X55400000Y-56850000D01*
G75*
G02*
X55450000Y-56800000I50000J0D01*
G01*
X56350000Y-56800000D01*
G75*
G02*
X56400000Y-56850000I0J-50000D01*
G01*
X56400000Y-58050000D01*
G75*
G02*
X56350000Y-58100000I-50000J0D01*
G01*
X55450000Y-58100000D01*
G75*
G02*
X55400000Y-58050000I0J50000D01*
G01*
G37*
%TD*%
%TO.C,D9*%
G36*
G01*
X75400000Y-58050000D02*
X75400000Y-56850000D01*
G75*
G02*
X75450000Y-56800000I50000J0D01*
G01*
X76350000Y-56800000D01*
G75*
G02*
X76400000Y-56850000I0J-50000D01*
G01*
X76400000Y-58050000D01*
G75*
G02*
X76350000Y-58100000I-50000J0D01*
G01*
X75450000Y-58100000D01*
G75*
G02*
X75400000Y-58050000I0J50000D01*
G01*
G37*
G36*
G01*
X78700000Y-58050000D02*
X78700000Y-56850000D01*
G75*
G02*
X78750000Y-56800000I50000J0D01*
G01*
X79650000Y-56800000D01*
G75*
G02*
X79700000Y-56850000I0J-50000D01*
G01*
X79700000Y-58050000D01*
G75*
G02*
X79650000Y-58100000I-50000J0D01*
G01*
X78750000Y-58100000D01*
G75*
G02*
X78700000Y-58050000I0J50000D01*
G01*
G37*
%TD*%
%TO.C,D13*%
G36*
G01*
X98700000Y-58050000D02*
X98700000Y-56850000D01*
G75*
G02*
X98750000Y-56800000I50000J0D01*
G01*
X99650000Y-56800000D01*
G75*
G02*
X99700000Y-56850000I0J-50000D01*
G01*
X99700000Y-58050000D01*
G75*
G02*
X99650000Y-58100000I-50000J0D01*
G01*
X98750000Y-58100000D01*
G75*
G02*
X98700000Y-58050000I0J50000D01*
G01*
G37*
G36*
G01*
X95400000Y-58050000D02*
X95400000Y-56850000D01*
G75*
G02*
X95450000Y-56800000I50000J0D01*
G01*
X96350000Y-56800000D01*
G75*
G02*
X96400000Y-56850000I0J-50000D01*
G01*
X96400000Y-58050000D01*
G75*
G02*
X96350000Y-58100000I-50000J0D01*
G01*
X95450000Y-58100000D01*
G75*
G02*
X95400000Y-58050000I0J50000D01*
G01*
G37*
%TD*%
%TO.C,D17*%
G36*
G01*
X120400000Y-58050000D02*
X120400000Y-56850000D01*
G75*
G02*
X120450000Y-56800000I50000J0D01*
G01*
X121350000Y-56800000D01*
G75*
G02*
X121400000Y-56850000I0J-50000D01*
G01*
X121400000Y-58050000D01*
G75*
G02*
X121350000Y-58100000I-50000J0D01*
G01*
X120450000Y-58100000D01*
G75*
G02*
X120400000Y-58050000I0J50000D01*
G01*
G37*
G36*
G01*
X123700000Y-58050000D02*
X123700000Y-56850000D01*
G75*
G02*
X123750000Y-56800000I50000J0D01*
G01*
X124650000Y-56800000D01*
G75*
G02*
X124700000Y-56850000I0J-50000D01*
G01*
X124700000Y-58050000D01*
G75*
G02*
X124650000Y-58100000I-50000J0D01*
G01*
X123750000Y-58100000D01*
G75*
G02*
X123700000Y-58050000I0J50000D01*
G01*
G37*
%TD*%
%TO.C,R9*%
G36*
G01*
X131575000Y-27900000D02*
X131575000Y-28500000D01*
G75*
G02*
X131350000Y-28725000I-225000J0D01*
G01*
X130900000Y-28725000D01*
G75*
G02*
X130675000Y-28500000I0J225000D01*
G01*
X130675000Y-27900000D01*
G75*
G02*
X130900000Y-27675000I225000J0D01*
G01*
X131350000Y-27675000D01*
G75*
G02*
X131575000Y-27900000I0J-225000D01*
G01*
G37*
G36*
G01*
X129925000Y-27900000D02*
X129925000Y-28500000D01*
G75*
G02*
X129700000Y-28725000I-225000J0D01*
G01*
X129250000Y-28725000D01*
G75*
G02*
X129025000Y-28500000I0J225000D01*
G01*
X129025000Y-27900000D01*
G75*
G02*
X129250000Y-27675000I225000J0D01*
G01*
X129700000Y-27675000D01*
G75*
G02*
X129925000Y-27900000I0J-225000D01*
G01*
G37*
%TD*%
%TO.C,SW1*%
X45050000Y-54950000D03*
X38700000Y-57490000D03*
D12*
X42510000Y-60030000D03*
D13*
X37430000Y-60030000D03*
X47590000Y-60030000D03*
%TD*%
%TO.C,SW5*%
X72590000Y-60030000D03*
X62430000Y-60030000D03*
D12*
X67510000Y-60030000D03*
D11*
X63700000Y-57490000D03*
X70050000Y-54950000D03*
%TD*%
%TO.C,SW9*%
X90050000Y-54950000D03*
X83700000Y-57490000D03*
D12*
X87510000Y-60030000D03*
D13*
X82430000Y-60030000D03*
X92590000Y-60030000D03*
%TD*%
D11*
%TO.C,SW11*%
X90050000Y-99950000D03*
X83700000Y-102490000D03*
D12*
X87510000Y-105030000D03*
D13*
X82430000Y-105030000D03*
X92590000Y-105030000D03*
G36*
G01*
X85428000Y-110872000D02*
X85428000Y-109348000D01*
G75*
G02*
X85478000Y-109298000I50000J0D01*
G01*
X87002000Y-109298000D01*
G75*
G02*
X87052000Y-109348000I0J-50000D01*
G01*
X87052000Y-110872000D01*
G75*
G02*
X87002000Y-110922000I-50000J0D01*
G01*
X85478000Y-110922000D01*
G75*
G02*
X85428000Y-110872000I0J50000D01*
G01*
G37*
D16*
X88780000Y-110110000D03*
%TD*%
D13*
%TO.C,SW14*%
X112590000Y-60030000D03*
X102430000Y-60030000D03*
D12*
X107510000Y-60030000D03*
D11*
X103700000Y-57490000D03*
X110050000Y-54950000D03*
%TD*%
%TO.C,SW18*%
X135050000Y-54950000D03*
X128700000Y-57490000D03*
D12*
X132510000Y-60030000D03*
D13*
X127430000Y-60030000D03*
X137590000Y-60030000D03*
%TD*%
%TO.C,R10*%
G36*
G01*
X29125000Y-46925000D02*
X29725000Y-46925000D01*
G75*
G02*
X29950000Y-47150000I0J-225000D01*
G01*
X29950000Y-47600000D01*
G75*
G02*
X29725000Y-47825000I-225000J0D01*
G01*
X29125000Y-47825000D01*
G75*
G02*
X28900000Y-47600000I0J225000D01*
G01*
X28900000Y-47150000D01*
G75*
G02*
X29125000Y-46925000I225000J0D01*
G01*
G37*
G36*
G01*
X29125000Y-48575000D02*
X29725000Y-48575000D01*
G75*
G02*
X29950000Y-48800000I0J-225000D01*
G01*
X29950000Y-49250000D01*
G75*
G02*
X29725000Y-49475000I-225000J0D01*
G01*
X29125000Y-49475000D01*
G75*
G02*
X28900000Y-49250000I0J225000D01*
G01*
X28900000Y-48800000D01*
G75*
G02*
X29125000Y-48575000I225000J0D01*
G01*
G37*
%TD*%
%TO.C,R11*%
G36*
G01*
X54093750Y-48575000D02*
X54693750Y-48575000D01*
G75*
G02*
X54918750Y-48800000I0J-225000D01*
G01*
X54918750Y-49250000D01*
G75*
G02*
X54693750Y-49475000I-225000J0D01*
G01*
X54093750Y-49475000D01*
G75*
G02*
X53868750Y-49250000I0J225000D01*
G01*
X53868750Y-48800000D01*
G75*
G02*
X54093750Y-48575000I225000J0D01*
G01*
G37*
G36*
G01*
X54093750Y-46925000D02*
X54693750Y-46925000D01*
G75*
G02*
X54918750Y-47150000I0J-225000D01*
G01*
X54918750Y-47600000D01*
G75*
G02*
X54693750Y-47825000I-225000J0D01*
G01*
X54093750Y-47825000D01*
G75*
G02*
X53868750Y-47600000I0J225000D01*
G01*
X53868750Y-47150000D01*
G75*
G02*
X54093750Y-46925000I225000J0D01*
G01*
G37*
%TD*%
%TO.C,R12*%
G36*
G01*
X68062500Y-46925000D02*
X68662500Y-46925000D01*
G75*
G02*
X68887500Y-47150000I0J-225000D01*
G01*
X68887500Y-47600000D01*
G75*
G02*
X68662500Y-47825000I-225000J0D01*
G01*
X68062500Y-47825000D01*
G75*
G02*
X67837500Y-47600000I0J225000D01*
G01*
X67837500Y-47150000D01*
G75*
G02*
X68062500Y-46925000I225000J0D01*
G01*
G37*
G36*
G01*
X68062500Y-48575000D02*
X68662500Y-48575000D01*
G75*
G02*
X68887500Y-48800000I0J-225000D01*
G01*
X68887500Y-49250000D01*
G75*
G02*
X68662500Y-49475000I-225000J0D01*
G01*
X68062500Y-49475000D01*
G75*
G02*
X67837500Y-49250000I0J225000D01*
G01*
X67837500Y-48800000D01*
G75*
G02*
X68062500Y-48575000I225000J0D01*
G01*
G37*
%TD*%
%TO.C,R13*%
G36*
G01*
X71031250Y-48575000D02*
X71631250Y-48575000D01*
G75*
G02*
X71856250Y-48800000I0J-225000D01*
G01*
X71856250Y-49250000D01*
G75*
G02*
X71631250Y-49475000I-225000J0D01*
G01*
X71031250Y-49475000D01*
G75*
G02*
X70806250Y-49250000I0J225000D01*
G01*
X70806250Y-48800000D01*
G75*
G02*
X71031250Y-48575000I225000J0D01*
G01*
G37*
G36*
G01*
X71031250Y-46925000D02*
X71631250Y-46925000D01*
G75*
G02*
X71856250Y-47150000I0J-225000D01*
G01*
X71856250Y-47600000D01*
G75*
G02*
X71631250Y-47825000I-225000J0D01*
G01*
X71031250Y-47825000D01*
G75*
G02*
X70806250Y-47600000I0J225000D01*
G01*
X70806250Y-47150000D01*
G75*
G02*
X71031250Y-46925000I225000J0D01*
G01*
G37*
%TD*%
%TO.C,R14*%
G36*
G01*
X114200000Y-48500000D02*
X114200000Y-47900000D01*
G75*
G02*
X114425000Y-47675000I225000J0D01*
G01*
X114875000Y-47675000D01*
G75*
G02*
X115100000Y-47900000I0J-225000D01*
G01*
X115100000Y-48500000D01*
G75*
G02*
X114875000Y-48725000I-225000J0D01*
G01*
X114425000Y-48725000D01*
G75*
G02*
X114200000Y-48500000I0J225000D01*
G01*
G37*
G36*
G01*
X115850000Y-48500000D02*
X115850000Y-47900000D01*
G75*
G02*
X116075000Y-47675000I225000J0D01*
G01*
X116525000Y-47675000D01*
G75*
G02*
X116750000Y-47900000I0J-225000D01*
G01*
X116750000Y-48500000D01*
G75*
G02*
X116525000Y-48725000I-225000J0D01*
G01*
X116075000Y-48725000D01*
G75*
G02*
X115850000Y-48500000I0J225000D01*
G01*
G37*
%TD*%
%TO.C,R15*%
G36*
G01*
X139175000Y-36500000D02*
X139175000Y-35900000D01*
G75*
G02*
X139400000Y-35675000I225000J0D01*
G01*
X139850000Y-35675000D01*
G75*
G02*
X140075000Y-35900000I0J-225000D01*
G01*
X140075000Y-36500000D01*
G75*
G02*
X139850000Y-36725000I-225000J0D01*
G01*
X139400000Y-36725000D01*
G75*
G02*
X139175000Y-36500000I0J225000D01*
G01*
G37*
G36*
G01*
X137525000Y-36500000D02*
X137525000Y-35900000D01*
G75*
G02*
X137750000Y-35675000I225000J0D01*
G01*
X138200000Y-35675000D01*
G75*
G02*
X138425000Y-35900000I0J-225000D01*
G01*
X138425000Y-36500000D01*
G75*
G02*
X138200000Y-36725000I-225000J0D01*
G01*
X137750000Y-36725000D01*
G75*
G02*
X137525000Y-36500000I0J225000D01*
G01*
G37*
%TD*%
%TO.C,R16*%
G36*
G01*
X137525000Y-34500000D02*
X137525000Y-33900000D01*
G75*
G02*
X137750000Y-33675000I225000J0D01*
G01*
X138200000Y-33675000D01*
G75*
G02*
X138425000Y-33900000I0J-225000D01*
G01*
X138425000Y-34500000D01*
G75*
G02*
X138200000Y-34725000I-225000J0D01*
G01*
X137750000Y-34725000D01*
G75*
G02*
X137525000Y-34500000I0J225000D01*
G01*
G37*
G36*
G01*
X139175000Y-34500000D02*
X139175000Y-33900000D01*
G75*
G02*
X139400000Y-33675000I225000J0D01*
G01*
X139850000Y-33675000D01*
G75*
G02*
X140075000Y-33900000I0J-225000D01*
G01*
X140075000Y-34500000D01*
G75*
G02*
X139850000Y-34725000I-225000J0D01*
G01*
X139400000Y-34725000D01*
G75*
G02*
X139175000Y-34500000I0J225000D01*
G01*
G37*
%TD*%
%TO.C,R17*%
G36*
G01*
X139175000Y-32500000D02*
X139175000Y-31900000D01*
G75*
G02*
X139400000Y-31675000I225000J0D01*
G01*
X139850000Y-31675000D01*
G75*
G02*
X140075000Y-31900000I0J-225000D01*
G01*
X140075000Y-32500000D01*
G75*
G02*
X139850000Y-32725000I-225000J0D01*
G01*
X139400000Y-32725000D01*
G75*
G02*
X139175000Y-32500000I0J225000D01*
G01*
G37*
G36*
G01*
X137525000Y-32500000D02*
X137525000Y-31900000D01*
G75*
G02*
X137750000Y-31675000I225000J0D01*
G01*
X138200000Y-31675000D01*
G75*
G02*
X138425000Y-31900000I0J-225000D01*
G01*
X138425000Y-32500000D01*
G75*
G02*
X138200000Y-32725000I-225000J0D01*
G01*
X137750000Y-32725000D01*
G75*
G02*
X137525000Y-32500000I0J225000D01*
G01*
G37*
%TD*%
%TO.C,R18*%
G36*
G01*
X137525000Y-38500000D02*
X137525000Y-37900000D01*
G75*
G02*
X137750000Y-37675000I225000J0D01*
G01*
X138200000Y-37675000D01*
G75*
G02*
X138425000Y-37900000I0J-225000D01*
G01*
X138425000Y-38500000D01*
G75*
G02*
X138200000Y-38725000I-225000J0D01*
G01*
X137750000Y-38725000D01*
G75*
G02*
X137525000Y-38500000I0J225000D01*
G01*
G37*
G36*
G01*
X139175000Y-38500000D02*
X139175000Y-37900000D01*
G75*
G02*
X139400000Y-37675000I225000J0D01*
G01*
X139850000Y-37675000D01*
G75*
G02*
X140075000Y-37900000I0J-225000D01*
G01*
X140075000Y-38500000D01*
G75*
G02*
X139850000Y-38725000I-225000J0D01*
G01*
X139400000Y-38725000D01*
G75*
G02*
X139175000Y-38500000I0J225000D01*
G01*
G37*
%TD*%
%TO.C,R19*%
G36*
G01*
X139175000Y-30500000D02*
X139175000Y-29900000D01*
G75*
G02*
X139400000Y-29675000I225000J0D01*
G01*
X139850000Y-29675000D01*
G75*
G02*
X140075000Y-29900000I0J-225000D01*
G01*
X140075000Y-30500000D01*
G75*
G02*
X139850000Y-30725000I-225000J0D01*
G01*
X139400000Y-30725000D01*
G75*
G02*
X139175000Y-30500000I0J225000D01*
G01*
G37*
G36*
G01*
X137525000Y-30500000D02*
X137525000Y-29900000D01*
G75*
G02*
X137750000Y-29675000I225000J0D01*
G01*
X138200000Y-29675000D01*
G75*
G02*
X138425000Y-29900000I0J-225000D01*
G01*
X138425000Y-30500000D01*
G75*
G02*
X138200000Y-30725000I-225000J0D01*
G01*
X137750000Y-30725000D01*
G75*
G02*
X137525000Y-30500000I0J225000D01*
G01*
G37*
%TD*%
%TO.C,R1*%
G36*
G01*
X111925000Y-47900000D02*
X111925000Y-48500000D01*
G75*
G02*
X111700000Y-48725000I-225000J0D01*
G01*
X111250000Y-48725000D01*
G75*
G02*
X111025000Y-48500000I0J225000D01*
G01*
X111025000Y-47900000D01*
G75*
G02*
X111250000Y-47675000I225000J0D01*
G01*
X111700000Y-47675000D01*
G75*
G02*
X111925000Y-47900000I0J-225000D01*
G01*
G37*
G36*
G01*
X113575000Y-47900000D02*
X113575000Y-48500000D01*
G75*
G02*
X113350000Y-48725000I-225000J0D01*
G01*
X112900000Y-48725000D01*
G75*
G02*
X112675000Y-48500000I0J225000D01*
G01*
X112675000Y-47900000D01*
G75*
G02*
X112900000Y-47675000I225000J0D01*
G01*
X113350000Y-47675000D01*
G75*
G02*
X113575000Y-47900000I0J-225000D01*
G01*
G37*
%TD*%
%TO.C,R2*%
G36*
G01*
X71620000Y-46225000D02*
X71020000Y-46225000D01*
G75*
G02*
X70795000Y-46000000I0J225000D01*
G01*
X70795000Y-45550000D01*
G75*
G02*
X71020000Y-45325000I225000J0D01*
G01*
X71620000Y-45325000D01*
G75*
G02*
X71845000Y-45550000I0J-225000D01*
G01*
X71845000Y-46000000D01*
G75*
G02*
X71620000Y-46225000I-225000J0D01*
G01*
G37*
G36*
G01*
X71620000Y-44575000D02*
X71020000Y-44575000D01*
G75*
G02*
X70795000Y-44350000I0J225000D01*
G01*
X70795000Y-43900000D01*
G75*
G02*
X71020000Y-43675000I225000J0D01*
G01*
X71620000Y-43675000D01*
G75*
G02*
X71845000Y-43900000I0J-225000D01*
G01*
X71845000Y-44350000D01*
G75*
G02*
X71620000Y-44575000I-225000J0D01*
G01*
G37*
%TD*%
%TO.C,R3*%
G36*
G01*
X68660000Y-44575000D02*
X68060000Y-44575000D01*
G75*
G02*
X67835000Y-44350000I0J225000D01*
G01*
X67835000Y-43900000D01*
G75*
G02*
X68060000Y-43675000I225000J0D01*
G01*
X68660000Y-43675000D01*
G75*
G02*
X68885000Y-43900000I0J-225000D01*
G01*
X68885000Y-44350000D01*
G75*
G02*
X68660000Y-44575000I-225000J0D01*
G01*
G37*
G36*
G01*
X68660000Y-46225000D02*
X68060000Y-46225000D01*
G75*
G02*
X67835000Y-46000000I0J225000D01*
G01*
X67835000Y-45550000D01*
G75*
G02*
X68060000Y-45325000I225000J0D01*
G01*
X68660000Y-45325000D01*
G75*
G02*
X68885000Y-45550000I0J-225000D01*
G01*
X68885000Y-46000000D01*
G75*
G02*
X68660000Y-46225000I-225000J0D01*
G01*
G37*
%TD*%
%TO.C,R4*%
G36*
G01*
X54700000Y-46225000D02*
X54100000Y-46225000D01*
G75*
G02*
X53875000Y-46000000I0J225000D01*
G01*
X53875000Y-45550000D01*
G75*
G02*
X54100000Y-45325000I225000J0D01*
G01*
X54700000Y-45325000D01*
G75*
G02*
X54925000Y-45550000I0J-225000D01*
G01*
X54925000Y-46000000D01*
G75*
G02*
X54700000Y-46225000I-225000J0D01*
G01*
G37*
G36*
G01*
X54700000Y-44575000D02*
X54100000Y-44575000D01*
G75*
G02*
X53875000Y-44350000I0J225000D01*
G01*
X53875000Y-43900000D01*
G75*
G02*
X54100000Y-43675000I225000J0D01*
G01*
X54700000Y-43675000D01*
G75*
G02*
X54925000Y-43900000I0J-225000D01*
G01*
X54925000Y-44350000D01*
G75*
G02*
X54700000Y-44575000I-225000J0D01*
G01*
G37*
%TD*%
%TO.C,R5*%
G36*
G01*
X29740000Y-44575000D02*
X29140000Y-44575000D01*
G75*
G02*
X28915000Y-44350000I0J225000D01*
G01*
X28915000Y-43900000D01*
G75*
G02*
X29140000Y-43675000I225000J0D01*
G01*
X29740000Y-43675000D01*
G75*
G02*
X29965000Y-43900000I0J-225000D01*
G01*
X29965000Y-44350000D01*
G75*
G02*
X29740000Y-44575000I-225000J0D01*
G01*
G37*
G36*
G01*
X29740000Y-46225000D02*
X29140000Y-46225000D01*
G75*
G02*
X28915000Y-46000000I0J225000D01*
G01*
X28915000Y-45550000D01*
G75*
G02*
X29140000Y-45325000I225000J0D01*
G01*
X29740000Y-45325000D01*
G75*
G02*
X29965000Y-45550000I0J-225000D01*
G01*
X29965000Y-46000000D01*
G75*
G02*
X29740000Y-46225000I-225000J0D01*
G01*
G37*
%TD*%
%TO.C,R6*%
G36*
G01*
X131575000Y-37900000D02*
X131575000Y-38500000D01*
G75*
G02*
X131350000Y-38725000I-225000J0D01*
G01*
X130900000Y-38725000D01*
G75*
G02*
X130675000Y-38500000I0J225000D01*
G01*
X130675000Y-37900000D01*
G75*
G02*
X130900000Y-37675000I225000J0D01*
G01*
X131350000Y-37675000D01*
G75*
G02*
X131575000Y-37900000I0J-225000D01*
G01*
G37*
G36*
G01*
X129925000Y-37900000D02*
X129925000Y-38500000D01*
G75*
G02*
X129700000Y-38725000I-225000J0D01*
G01*
X129250000Y-38725000D01*
G75*
G02*
X129025000Y-38500000I0J225000D01*
G01*
X129025000Y-37900000D01*
G75*
G02*
X129250000Y-37675000I225000J0D01*
G01*
X129700000Y-37675000D01*
G75*
G02*
X129925000Y-37900000I0J-225000D01*
G01*
G37*
%TD*%
%TO.C,R7*%
G36*
G01*
X129925000Y-35900000D02*
X129925000Y-36500000D01*
G75*
G02*
X129700000Y-36725000I-225000J0D01*
G01*
X129250000Y-36725000D01*
G75*
G02*
X129025000Y-36500000I0J225000D01*
G01*
X129025000Y-35900000D01*
G75*
G02*
X129250000Y-35675000I225000J0D01*
G01*
X129700000Y-35675000D01*
G75*
G02*
X129925000Y-35900000I0J-225000D01*
G01*
G37*
G36*
G01*
X131575000Y-35900000D02*
X131575000Y-36500000D01*
G75*
G02*
X131350000Y-36725000I-225000J0D01*
G01*
X130900000Y-36725000D01*
G75*
G02*
X130675000Y-36500000I0J225000D01*
G01*
X130675000Y-35900000D01*
G75*
G02*
X130900000Y-35675000I225000J0D01*
G01*
X131350000Y-35675000D01*
G75*
G02*
X131575000Y-35900000I0J-225000D01*
G01*
G37*
%TD*%
%TO.C,R20*%
G36*
G01*
X131575000Y-33900000D02*
X131575000Y-34500000D01*
G75*
G02*
X131350000Y-34725000I-225000J0D01*
G01*
X130900000Y-34725000D01*
G75*
G02*
X130675000Y-34500000I0J225000D01*
G01*
X130675000Y-33900000D01*
G75*
G02*
X130900000Y-33675000I225000J0D01*
G01*
X131350000Y-33675000D01*
G75*
G02*
X131575000Y-33900000I0J-225000D01*
G01*
G37*
G36*
G01*
X129925000Y-33900000D02*
X129925000Y-34500000D01*
G75*
G02*
X129700000Y-34725000I-225000J0D01*
G01*
X129250000Y-34725000D01*
G75*
G02*
X129025000Y-34500000I0J225000D01*
G01*
X129025000Y-33900000D01*
G75*
G02*
X129250000Y-33675000I225000J0D01*
G01*
X129700000Y-33675000D01*
G75*
G02*
X129925000Y-33900000I0J-225000D01*
G01*
G37*
%TD*%
%TO.C,R21*%
G36*
G01*
X129925000Y-31900000D02*
X129925000Y-32500000D01*
G75*
G02*
X129700000Y-32725000I-225000J0D01*
G01*
X129250000Y-32725000D01*
G75*
G02*
X129025000Y-32500000I0J225000D01*
G01*
X129025000Y-31900000D01*
G75*
G02*
X129250000Y-31675000I225000J0D01*
G01*
X129700000Y-31675000D01*
G75*
G02*
X129925000Y-31900000I0J-225000D01*
G01*
G37*
G36*
G01*
X131575000Y-31900000D02*
X131575000Y-32500000D01*
G75*
G02*
X131350000Y-32725000I-225000J0D01*
G01*
X130900000Y-32725000D01*
G75*
G02*
X130675000Y-32500000I0J225000D01*
G01*
X130675000Y-31900000D01*
G75*
G02*
X130900000Y-31675000I225000J0D01*
G01*
X131350000Y-31675000D01*
G75*
G02*
X131575000Y-31900000I0J-225000D01*
G01*
G37*
%TD*%
%TO.C,R24*%
G36*
G01*
X61700000Y-33500000D02*
X61700000Y-32900000D01*
G75*
G02*
X61925000Y-32675000I225000J0D01*
G01*
X62375000Y-32675000D01*
G75*
G02*
X62600000Y-32900000I0J-225000D01*
G01*
X62600000Y-33500000D01*
G75*
G02*
X62375000Y-33725000I-225000J0D01*
G01*
X61925000Y-33725000D01*
G75*
G02*
X61700000Y-33500000I0J225000D01*
G01*
G37*
G36*
G01*
X63350000Y-33500000D02*
X63350000Y-32900000D01*
G75*
G02*
X63575000Y-32675000I225000J0D01*
G01*
X64025000Y-32675000D01*
G75*
G02*
X64250000Y-32900000I0J-225000D01*
G01*
X64250000Y-33500000D01*
G75*
G02*
X64025000Y-33725000I-225000J0D01*
G01*
X63575000Y-33725000D01*
G75*
G02*
X63350000Y-33500000I0J225000D01*
G01*
G37*
%TD*%
%TO.C,R25*%
G36*
G01*
X78000000Y-45575000D02*
X78600000Y-45575000D01*
G75*
G02*
X78825000Y-45800000I0J-225000D01*
G01*
X78825000Y-46250000D01*
G75*
G02*
X78600000Y-46475000I-225000J0D01*
G01*
X78000000Y-46475000D01*
G75*
G02*
X77775000Y-46250000I0J225000D01*
G01*
X77775000Y-45800000D01*
G75*
G02*
X78000000Y-45575000I225000J0D01*
G01*
G37*
G36*
G01*
X78000000Y-43925000D02*
X78600000Y-43925000D01*
G75*
G02*
X78825000Y-44150000I0J-225000D01*
G01*
X78825000Y-44600000D01*
G75*
G02*
X78600000Y-44825000I-225000J0D01*
G01*
X78000000Y-44825000D01*
G75*
G02*
X77775000Y-44600000I0J225000D01*
G01*
X77775000Y-44150000D01*
G75*
G02*
X78000000Y-43925000I225000J0D01*
G01*
G37*
%TD*%
%TO.C,R26*%
G36*
G01*
X129025000Y-46500000D02*
X129025000Y-45900000D01*
G75*
G02*
X129250000Y-45675000I225000J0D01*
G01*
X129700000Y-45675000D01*
G75*
G02*
X129925000Y-45900000I0J-225000D01*
G01*
X129925000Y-46500000D01*
G75*
G02*
X129700000Y-46725000I-225000J0D01*
G01*
X129250000Y-46725000D01*
G75*
G02*
X129025000Y-46500000I0J225000D01*
G01*
G37*
G36*
G01*
X130675000Y-46500000D02*
X130675000Y-45900000D01*
G75*
G02*
X130900000Y-45675000I225000J0D01*
G01*
X131350000Y-45675000D01*
G75*
G02*
X131575000Y-45900000I0J-225000D01*
G01*
X131575000Y-46500000D01*
G75*
G02*
X131350000Y-46725000I-225000J0D01*
G01*
X130900000Y-46725000D01*
G75*
G02*
X130675000Y-46500000I0J225000D01*
G01*
G37*
%TD*%
%TO.C,R28*%
G36*
G01*
X130675000Y-42500000D02*
X130675000Y-41900000D01*
G75*
G02*
X130900000Y-41675000I225000J0D01*
G01*
X131350000Y-41675000D01*
G75*
G02*
X131575000Y-41900000I0J-225000D01*
G01*
X131575000Y-42500000D01*
G75*
G02*
X131350000Y-42725000I-225000J0D01*
G01*
X130900000Y-42725000D01*
G75*
G02*
X130675000Y-42500000I0J225000D01*
G01*
G37*
G36*
G01*
X129025000Y-42500000D02*
X129025000Y-41900000D01*
G75*
G02*
X129250000Y-41675000I225000J0D01*
G01*
X129700000Y-41675000D01*
G75*
G02*
X129925000Y-41900000I0J-225000D01*
G01*
X129925000Y-42500000D01*
G75*
G02*
X129700000Y-42725000I-225000J0D01*
G01*
X129250000Y-42725000D01*
G75*
G02*
X129025000Y-42500000I0J225000D01*
G01*
G37*
%TD*%
%TO.C,R29*%
G36*
G01*
X129025000Y-40500000D02*
X129025000Y-39900000D01*
G75*
G02*
X129250000Y-39675000I225000J0D01*
G01*
X129700000Y-39675000D01*
G75*
G02*
X129925000Y-39900000I0J-225000D01*
G01*
X129925000Y-40500000D01*
G75*
G02*
X129700000Y-40725000I-225000J0D01*
G01*
X129250000Y-40725000D01*
G75*
G02*
X129025000Y-40500000I0J225000D01*
G01*
G37*
G36*
G01*
X130675000Y-40500000D02*
X130675000Y-39900000D01*
G75*
G02*
X130900000Y-39675000I225000J0D01*
G01*
X131350000Y-39675000D01*
G75*
G02*
X131575000Y-39900000I0J-225000D01*
G01*
X131575000Y-40500000D01*
G75*
G02*
X131350000Y-40725000I-225000J0D01*
G01*
X130900000Y-40725000D01*
G75*
G02*
X130675000Y-40500000I0J225000D01*
G01*
G37*
%TD*%
%TO.C,R30*%
G36*
G01*
X91000000Y-45075000D02*
X91600000Y-45075000D01*
G75*
G02*
X91825000Y-45300000I0J-225000D01*
G01*
X91825000Y-45750000D01*
G75*
G02*
X91600000Y-45975000I-225000J0D01*
G01*
X91000000Y-45975000D01*
G75*
G02*
X90775000Y-45750000I0J225000D01*
G01*
X90775000Y-45300000D01*
G75*
G02*
X91000000Y-45075000I225000J0D01*
G01*
G37*
G36*
G01*
X91000000Y-43425000D02*
X91600000Y-43425000D01*
G75*
G02*
X91825000Y-43650000I0J-225000D01*
G01*
X91825000Y-44100000D01*
G75*
G02*
X91600000Y-44325000I-225000J0D01*
G01*
X91000000Y-44325000D01*
G75*
G02*
X90775000Y-44100000I0J225000D01*
G01*
X90775000Y-43650000D01*
G75*
G02*
X91000000Y-43425000I225000J0D01*
G01*
G37*
%TD*%
%TO.C,R31*%
G36*
G01*
X129025000Y-30500000D02*
X129025000Y-29900000D01*
G75*
G02*
X129250000Y-29675000I225000J0D01*
G01*
X129700000Y-29675000D01*
G75*
G02*
X129925000Y-29900000I0J-225000D01*
G01*
X129925000Y-30500000D01*
G75*
G02*
X129700000Y-30725000I-225000J0D01*
G01*
X129250000Y-30725000D01*
G75*
G02*
X129025000Y-30500000I0J225000D01*
G01*
G37*
G36*
G01*
X130675000Y-30500000D02*
X130675000Y-29900000D01*
G75*
G02*
X130900000Y-29675000I225000J0D01*
G01*
X131350000Y-29675000D01*
G75*
G02*
X131575000Y-29900000I0J-225000D01*
G01*
X131575000Y-30500000D01*
G75*
G02*
X131350000Y-30725000I-225000J0D01*
G01*
X130900000Y-30725000D01*
G75*
G02*
X130675000Y-30500000I0J225000D01*
G01*
G37*
%TD*%
%TO.C,J1*%
G36*
G01*
X58060295Y-39100000D02*
X56539705Y-39100000D01*
G75*
G02*
X56275000Y-38835295I0J264705D01*
G01*
X56275000Y-37564705D01*
G75*
G02*
X56539705Y-37300000I264705J0D01*
G01*
X58060295Y-37300000D01*
G75*
G02*
X58325000Y-37564705I0J-264705D01*
G01*
X58325000Y-38835295D01*
G75*
G02*
X58060295Y-39100000I-264705J0D01*
G01*
G37*
D17*
X57300000Y-35700000D03*
X57300000Y-33200000D03*
X57300000Y-30700000D03*
%TD*%
D13*
%TO.C,U1*%
X68500000Y-26490000D03*
X71040000Y-26490000D03*
X73580000Y-26490000D03*
X76120000Y-26490000D03*
X78660000Y-26490000D03*
X81200000Y-26490000D03*
X83740000Y-26490000D03*
X86280000Y-26490000D03*
X88820000Y-26490000D03*
X91360000Y-26490000D03*
X93900000Y-26490000D03*
X96440000Y-26490000D03*
X98980000Y-26490000D03*
X101520000Y-26490000D03*
X104060000Y-26490000D03*
X106600000Y-26490000D03*
X109140000Y-26490000D03*
G36*
G01*
X67600000Y-42596000D02*
X67600000Y-40896000D01*
G75*
G02*
X67650000Y-40846000I50000J0D01*
G01*
X69350000Y-40846000D01*
G75*
G02*
X69400000Y-40896000I0J-50000D01*
G01*
X69400000Y-42596000D01*
G75*
G02*
X69350000Y-42646000I-50000J0D01*
G01*
X67650000Y-42646000D01*
G75*
G02*
X67600000Y-42596000I0J50000D01*
G01*
G37*
X71040000Y-41746000D03*
X73580000Y-41746000D03*
X76120000Y-41746000D03*
X78660000Y-41746000D03*
X81200000Y-41746000D03*
X83740000Y-41746000D03*
X86280000Y-41746000D03*
X88820000Y-41746000D03*
X91360000Y-41746000D03*
X93900000Y-41746000D03*
X96440000Y-41746000D03*
X98980000Y-41746000D03*
X101520000Y-41746000D03*
X104060000Y-41746000D03*
X106600000Y-41746000D03*
X109140000Y-41746000D03*
%TD*%
M02*
