M48
; DRILL file {KiCad (5.1.9)-1} date 06/10/21 16:35:13
; FORMAT={-:-/ absolute / inch / decimal}
; #@! TF.CreationDate,2021-06-10T16:35:13+02:00
; #@! TF.GenerationSoftware,Kicad,Pcbnew,(5.1.9)-1
; #@! TF.FileFunction,NonPlated,1,2,NPTH
FMAT,2
INCH
T1C0.0669
T2C0.1575
%
G90
G05
T1
X2.2591Y-0.9874
X2.2591Y-1.9717
X2.2591Y-2.7591
X2.2591Y-3.5465
X2.6591Y-0.9874
X2.6591Y-1.9717
X2.6591Y-2.7591
X2.6591Y-3.5465
X3.2433Y-0.9874
X3.2433Y-1.9717
X3.2433Y-2.7591
X3.2433Y-3.5465
X3.6433Y-0.9874
X3.6433Y-1.9717
X3.6433Y-2.7591
X3.6433Y-3.5465
X4.0307Y-0.9874
X4.0307Y-1.9717
X4.0307Y-2.7591
X4.0307Y-3.5465
X4.4307Y-0.9874
X4.4307Y-1.9717
X4.4307Y-2.7591
X4.4307Y-3.5465
X4.8181Y-0.9874
X4.8181Y-1.9717
X4.8181Y-2.7591
X4.8181Y-3.5465
X5.2181Y-0.9874
X5.2181Y-1.9717
X5.2181Y-2.7591
X5.2181Y-3.5465
X5.8024Y-0.9874
X5.8024Y-1.9717
X5.8024Y-2.7591
X5.8024Y-3.5465
X6.2024Y-0.9874
X6.2024Y-1.9717
X6.2024Y-2.7591
X6.2024Y-3.5465
T2
X2.4591Y-0.9874
X2.4591Y-1.9717
X2.4591Y-2.7591
X2.4591Y-3.5465
X3.4433Y-0.9874
X3.4433Y-1.9717
X3.4433Y-2.7591
X3.4433Y-3.5465
X4.2307Y-0.9874
X4.2307Y-1.9717
X4.2307Y-2.7591
X4.2307Y-3.5465
X5.0181Y-0.9874
X5.0181Y-1.9717
X5.0181Y-2.7591
X5.0181Y-3.5465
X6.0024Y-0.9874
X6.0024Y-1.9717
X6.0024Y-2.7591
X6.0024Y-3.5465
T0
M30
