%TF.GenerationSoftware,KiCad,Pcbnew,(5.1.9)-1*%
%TF.CreationDate,2021-06-10T16:35:11+02:00*%
%TF.ProjectId,08_Main_Gauche,30385f4d-6169-46e5-9f47-61756368652e,rev?*%
%TF.SameCoordinates,Original*%
%TF.FileFunction,Soldermask,Bot*%
%TF.FilePolarity,Negative*%
%FSLAX46Y46*%
G04 Gerber Fmt 4.6, Leading zero omitted, Abs format (unit mm)*
G04 Created by KiCad (PCBNEW (5.1.9)-1) date 2021-06-10 16:35:11*
%MOMM*%
%LPD*%
G01*
G04 APERTURE LIST*
%TA.AperFunction,Profile*%
%ADD10C,0.150000*%
%TD*%
%ADD11C,2.300000*%
%ADD12C,4.100000*%
%ADD13C,1.800000*%
%ADD14C,0.900000*%
%ADD15C,6.500000*%
%ADD16O,2.050000X1.800000*%
%ADD17C,1.624000*%
G04 APERTURE END LIST*
D10*
X185000000Y-15000000D02*
G75*
G02*
X190000000Y-20000000I0J-5000000D01*
G01*
X190000000Y-140000000D02*
G75*
G02*
X185000000Y-145000000I-5000000J0D01*
G01*
X45000000Y-145000000D02*
G75*
G02*
X40000000Y-140000000I0J5000000D01*
G01*
X40000000Y-20000000D02*
G75*
G02*
X45000000Y-15000000I5000000J0D01*
G01*
X40000000Y-140000000D02*
X40000000Y-20000000D01*
X185000000Y-145000000D02*
X45000000Y-145000000D01*
X190000000Y-20000000D02*
X190000000Y-140000000D01*
X45000000Y-15000000D02*
X185000000Y-15000000D01*
D11*
%TO.C,SW4*%
X65000000Y-85000000D03*
X58650000Y-87540000D03*
D12*
X62460000Y-90080000D03*
D13*
X57380000Y-90080000D03*
X67540000Y-90080000D03*
%TD*%
D14*
%TO.C,H2*%
X186697056Y-138302944D03*
X185000000Y-137600000D03*
X183302944Y-138302944D03*
X182600000Y-140000000D03*
X183302944Y-141697056D03*
X185000000Y-142400000D03*
X186697056Y-141697056D03*
X187400000Y-140000000D03*
D15*
X185000000Y-140000000D03*
%TD*%
D14*
%TO.C,H1*%
X46697056Y-18302944D03*
X45000000Y-17600000D03*
X43302944Y-18302944D03*
X42600000Y-20000000D03*
X43302944Y-21697056D03*
X45000000Y-22400000D03*
X46697056Y-21697056D03*
X47400000Y-20000000D03*
D15*
X45000000Y-20000000D03*
%TD*%
D14*
%TO.C,H3*%
X186697056Y-18302944D03*
X185000000Y-17600000D03*
X183302944Y-18302944D03*
X182600000Y-20000000D03*
X183302944Y-21697056D03*
X185000000Y-22400000D03*
X186697056Y-21697056D03*
X187400000Y-20000000D03*
D15*
X185000000Y-20000000D03*
%TD*%
D14*
%TO.C,H4*%
X46697056Y-138302944D03*
X45000000Y-137600000D03*
X43302944Y-138302944D03*
X42600000Y-140000000D03*
X43302944Y-141697056D03*
X45000000Y-142400000D03*
X46697056Y-141697056D03*
X47400000Y-140000000D03*
D15*
X45000000Y-140000000D03*
%TD*%
D16*
%TO.C,J1*%
X105000000Y-127500000D03*
X105000000Y-125000000D03*
X105000000Y-122500000D03*
G36*
G01*
X104239705Y-119100000D02*
X105760295Y-119100000D01*
G75*
G02*
X106025000Y-119364705I0J-264705D01*
G01*
X106025000Y-120635295D01*
G75*
G02*
X105760295Y-120900000I-264705J0D01*
G01*
X104239705Y-120900000D01*
G75*
G02*
X103975000Y-120635295I0J264705D01*
G01*
X103975000Y-119364705D01*
G75*
G02*
X104239705Y-119100000I264705J0D01*
G01*
G37*
%TD*%
D13*
%TO.C,SW2*%
X67540000Y-50080000D03*
X57380000Y-50080000D03*
D12*
X62460000Y-50080000D03*
D11*
X58650000Y-47540000D03*
X65000000Y-45000000D03*
%TD*%
D13*
%TO.C,SW3*%
X67540000Y-70080000D03*
X57380000Y-70080000D03*
D12*
X62460000Y-70080000D03*
D11*
X58650000Y-67540000D03*
X65000000Y-65000000D03*
%TD*%
D13*
%TO.C,SW21*%
X157540000Y-90080000D03*
X147380000Y-90080000D03*
D12*
X152460000Y-90080000D03*
D11*
X148650000Y-87540000D03*
X155000000Y-85000000D03*
%TD*%
D13*
%TO.C,SW8*%
X92540000Y-90080000D03*
X82380000Y-90080000D03*
D12*
X87460000Y-90080000D03*
D11*
X83650000Y-87540000D03*
X90000000Y-85000000D03*
%TD*%
D13*
%TO.C,SW12*%
X112540000Y-90080000D03*
X102380000Y-90080000D03*
D12*
X107460000Y-90080000D03*
D11*
X103650000Y-87540000D03*
X110000000Y-85000000D03*
%TD*%
D13*
%TO.C,SW17*%
X132540000Y-90080000D03*
X122380000Y-90080000D03*
D12*
X127460000Y-90080000D03*
D11*
X123650000Y-87540000D03*
X130000000Y-85000000D03*
%TD*%
D13*
%TO.C,SW19*%
X157540000Y-50080000D03*
X147380000Y-50080000D03*
D12*
X152460000Y-50080000D03*
D11*
X148650000Y-47540000D03*
X155000000Y-45000000D03*
%TD*%
D13*
%TO.C,SW6*%
X92540000Y-50080000D03*
X82380000Y-50080000D03*
D12*
X87460000Y-50080000D03*
D11*
X83650000Y-47540000D03*
X90000000Y-45000000D03*
%TD*%
D13*
%TO.C,SW10*%
X112540000Y-50080000D03*
X102380000Y-50080000D03*
D12*
X107460000Y-50080000D03*
D11*
X103650000Y-47540000D03*
X110000000Y-45000000D03*
%TD*%
D13*
%TO.C,SW15*%
X132540000Y-50080000D03*
X122380000Y-50080000D03*
D12*
X127460000Y-50080000D03*
D11*
X123650000Y-47540000D03*
X130000000Y-45000000D03*
%TD*%
D13*
%TO.C,SW20*%
X157540000Y-70080000D03*
X147380000Y-70080000D03*
D12*
X152460000Y-70080000D03*
D11*
X148650000Y-67540000D03*
X155000000Y-65000000D03*
%TD*%
D13*
%TO.C,SW7*%
X92540000Y-70080000D03*
X82380000Y-70080000D03*
D12*
X87460000Y-70080000D03*
D11*
X83650000Y-67540000D03*
X90000000Y-65000000D03*
%TD*%
D13*
%TO.C,SW16*%
X132540000Y-70080000D03*
X122380000Y-70080000D03*
D12*
X127460000Y-70080000D03*
D11*
X123650000Y-67540000D03*
X130000000Y-65000000D03*
%TD*%
%TO.C,SW1*%
X65000000Y-20000000D03*
X58650000Y-22540000D03*
D12*
X62460000Y-25080000D03*
D13*
X57380000Y-25080000D03*
X67540000Y-25080000D03*
%TD*%
%TO.C,SW5*%
X92540000Y-25080000D03*
X82380000Y-25080000D03*
D12*
X87460000Y-25080000D03*
D11*
X83650000Y-22540000D03*
X90000000Y-20000000D03*
%TD*%
%TO.C,SW9*%
X110000000Y-20000000D03*
X103650000Y-22540000D03*
D12*
X107460000Y-25080000D03*
D13*
X102380000Y-25080000D03*
X112540000Y-25080000D03*
%TD*%
D11*
%TO.C,SW11*%
X110000000Y-65000000D03*
X103650000Y-67540000D03*
D12*
X107460000Y-70080000D03*
D13*
X102380000Y-70080000D03*
X112540000Y-70080000D03*
G36*
G01*
X105378000Y-75922000D02*
X105378000Y-74398000D01*
G75*
G02*
X105428000Y-74348000I50000J0D01*
G01*
X106952000Y-74348000D01*
G75*
G02*
X107002000Y-74398000I0J-50000D01*
G01*
X107002000Y-75922000D01*
G75*
G02*
X106952000Y-75972000I-50000J0D01*
G01*
X105428000Y-75972000D01*
G75*
G02*
X105378000Y-75922000I0J50000D01*
G01*
G37*
D17*
X108730000Y-75160000D03*
%TD*%
D13*
%TO.C,SW14*%
X132540000Y-25080000D03*
X122380000Y-25080000D03*
D12*
X127460000Y-25080000D03*
D11*
X123650000Y-22540000D03*
X130000000Y-20000000D03*
%TD*%
%TO.C,SW18*%
X155000000Y-20000000D03*
X148650000Y-22540000D03*
D12*
X152460000Y-25080000D03*
D13*
X147380000Y-25080000D03*
X157540000Y-25080000D03*
%TD*%
M02*
