M48
; DRILL file {KiCad (5.1.9)-1} date 06/10/21 16:35:13
; FORMAT={-:-/ absolute / inch / decimal}
; #@! TF.CreationDate,2021-06-10T16:35:13+02:00
; #@! TF.GenerationSoftware,Kicad,Pcbnew,(5.1.9)-1
; #@! TF.FileFunction,Plated,1,2,PTH
FMAT,2
INCH
T1C0.0197
T2C0.0236
T3C0.0300
T4C0.0374
T5C0.0591
T6C0.1260
%
G90
G05
T1
X1.6772Y-0.7874
X1.6772Y-5.5118
X1.7048Y-0.7206
X1.7048Y-0.8542
X1.7048Y-5.445
X1.7048Y-5.5786
X1.7717Y-0.6929
X1.7717Y-0.8819
X1.7717Y-5.4173
X1.7717Y-5.6063
X1.8385Y-0.7206
X1.8385Y-0.8542
X1.8385Y-5.445
X1.8385Y-5.5786
X1.8661Y-0.7874
X1.8661Y-5.5118
X7.189Y-0.7874
X7.189Y-5.5118
X7.2167Y-0.7206
X7.2167Y-0.8542
X7.2167Y-5.445
X7.2167Y-5.5786
X7.2835Y-0.6929
X7.2835Y-0.8819
X7.2835Y-5.4173
X7.2835Y-5.6063
X7.3503Y-0.7206
X7.3503Y-0.8542
X7.3503Y-5.445
X7.3503Y-5.5786
X7.378Y-0.7874
X7.378Y-5.5118
T2
X1.9409Y-3.9803
X3.9409Y-4.0709
X4.0512Y-5.1909
X4.0512Y-5.3386
X4.0512Y-5.4862
X4.0709Y-4.0
X4.1024Y-3.8031
X4.3543Y-3.8031
X4.3819Y-4.0118
X4.5354Y-4.0118
X4.7205Y-5.374
X4.7323Y-4.9567
X4.815Y-5.185
X4.8661Y-5.189
X4.9134Y-5.189
X4.9646Y-5.189
X5.0157Y-5.189
X5.0276Y-4.3228
X5.0669Y-5.189
X5.2323Y-5.5118
X5.2441Y-5.2402
X5.3307Y-5.1142
X5.4685Y-4.1299
X6.1772Y-4.8031
X6.1811Y-4.9449
X6.2835Y-4.2008
X6.4685Y-5.3189
X6.6929Y-4.6102
T3
X4.1807Y-2.9591
X4.2807Y-2.9591
T4
X4.1339Y-4.7244
X4.1339Y-4.8228
X4.1339Y-4.9213
X4.1339Y-5.0197
T5
X2.3091Y-0.8874
X2.3091Y-1.8717
X2.3091Y-2.6591
X2.3091Y-3.4465
X2.5591Y-0.7874
X2.5591Y-1.7717
X2.5591Y-2.5591
X2.5591Y-3.3465
X3.2933Y-0.8874
X3.2933Y-1.8717
X3.2933Y-2.6591
X3.2933Y-3.4465
X3.5433Y-0.7874
X3.5433Y-1.7717
X3.5433Y-2.5591
X3.5433Y-3.3465
X4.0807Y-0.8874
X4.0807Y-1.8717
X4.0807Y-2.6591
X4.0807Y-3.4465
X4.3307Y-0.7874
X4.3307Y-1.7717
X4.3307Y-2.5591
X4.3307Y-3.3465
X4.8681Y-0.8874
X4.8681Y-1.8717
X4.8681Y-2.6591
X4.8681Y-3.4465
X5.1181Y-0.7874
X5.1181Y-1.7717
X5.1181Y-2.5591
X5.1181Y-3.3465
X5.8524Y-0.8874
X5.8524Y-1.8717
X5.8524Y-2.6591
X5.8524Y-3.4465
X6.1024Y-0.7874
X6.1024Y-1.7717
X6.1024Y-2.5591
X6.1024Y-3.3465
T6
X1.7717Y-0.7874
X1.7717Y-5.5118
X7.2835Y-0.7874
X7.2835Y-5.5118
T0
M30
