%TF.GenerationSoftware,KiCad,Pcbnew,(5.1.6)-1*%
%TF.CreationDate,2021-04-12T23:45:45+02:00*%
%TF.ProjectId,08_Main_Gauche,30385f4d-6169-46e5-9f47-61756368652e,rev?*%
%TF.SameCoordinates,Original*%
%TF.FileFunction,Soldermask,Bot*%
%TF.FilePolarity,Negative*%
%FSLAX46Y46*%
G04 Gerber Fmt 4.6, Leading zero omitted, Abs format (unit mm)*
G04 Created by KiCad (PCBNEW (5.1.6)-1) date 2021-04-12 23:45:45*
%MOMM*%
%LPD*%
G01*
G04 APERTURE LIST*
%TA.AperFunction,Profile*%
%ADD10C,0.150000*%
%TD*%
%ADD11C,0.900000*%
%ADD12C,6.500000*%
%ADD13R,2.600000X1.900000*%
%ADD14R,1.900000X2.600000*%
%ADD15O,2.050000X1.800000*%
%ADD16C,1.800000*%
%ADD17C,4.100000*%
%ADD18C,2.300000*%
%ADD19C,1.624000*%
%ADD20R,1.624000X1.624000*%
G04 APERTURE END LIST*
D10*
X180000000Y-55000000D02*
X195000000Y-55000000D01*
X157000000Y-55000000D02*
X180000000Y-55000000D01*
X195000000Y-55000000D02*
G75*
G02*
X200000000Y-60000000I0J-5000000D01*
G01*
X200000000Y-150000000D02*
G75*
G02*
X195000000Y-155000000I-5000000J0D01*
G01*
X105000000Y-155000000D02*
G75*
G02*
X100000000Y-150000000I0J5000000D01*
G01*
X100000000Y-60000000D02*
G75*
G02*
X105000000Y-55000000I5000000J0D01*
G01*
X100000000Y-150000000D02*
X100000000Y-60000000D01*
X195000000Y-155000000D02*
X105000000Y-155000000D01*
X200000000Y-60000000D02*
X200000000Y-150000000D01*
X105000000Y-55000000D02*
X157000000Y-55000000D01*
D11*
%TO.C,H3*%
X196697056Y-148302944D03*
X195000000Y-147600000D03*
X193302944Y-148302944D03*
X192600000Y-150000000D03*
X193302944Y-151697056D03*
X195000000Y-152400000D03*
X196697056Y-151697056D03*
X197400000Y-150000000D03*
D12*
X195000000Y-150000000D03*
%TD*%
D11*
%TO.C,H1*%
X106697056Y-58302944D03*
X105000000Y-57600000D03*
X103302944Y-58302944D03*
X102600000Y-60000000D03*
X103302944Y-61697056D03*
X105000000Y-62400000D03*
X106697056Y-61697056D03*
X107400000Y-60000000D03*
D12*
X105000000Y-60000000D03*
%TD*%
D11*
%TO.C,H2*%
X196697056Y-58302944D03*
X195000000Y-57600000D03*
X193302944Y-58302944D03*
X192600000Y-60000000D03*
X193302944Y-61697056D03*
X195000000Y-62400000D03*
X196697056Y-61697056D03*
X197400000Y-60000000D03*
D12*
X195000000Y-60000000D03*
%TD*%
D11*
%TO.C,H4*%
X106697056Y-148302944D03*
X105000000Y-147600000D03*
X103302944Y-148302944D03*
X102600000Y-150000000D03*
X103302944Y-151697056D03*
X105000000Y-152400000D03*
X106697056Y-151697056D03*
X107400000Y-150000000D03*
D12*
X105000000Y-150000000D03*
%TD*%
%TO.C,C1*%
G36*
G01*
X181300000Y-141262500D02*
X181300000Y-140737500D01*
G75*
G02*
X181562500Y-140475000I262500J0D01*
G01*
X182187500Y-140475000D01*
G75*
G02*
X182450000Y-140737500I0J-262500D01*
G01*
X182450000Y-141262500D01*
G75*
G02*
X182187500Y-141525000I-262500J0D01*
G01*
X181562500Y-141525000D01*
G75*
G02*
X181300000Y-141262500I0J262500D01*
G01*
G37*
G36*
G01*
X183050000Y-141262500D02*
X183050000Y-140737500D01*
G75*
G02*
X183312500Y-140475000I262500J0D01*
G01*
X183937500Y-140475000D01*
G75*
G02*
X184200000Y-140737500I0J-262500D01*
G01*
X184200000Y-141262500D01*
G75*
G02*
X183937500Y-141525000I-262500J0D01*
G01*
X183312500Y-141525000D01*
G75*
G02*
X183050000Y-141262500I0J262500D01*
G01*
G37*
%TD*%
D13*
%TO.C,D1*%
X104680000Y-77470000D03*
X108680000Y-77470000D03*
%TD*%
%TO.C,D2*%
X119920000Y-77470000D03*
X123920000Y-77470000D03*
%TD*%
%TO.C,D3*%
X135160000Y-77470000D03*
X139160000Y-77470000D03*
%TD*%
%TO.C,D4*%
X150400000Y-77470000D03*
X154400000Y-77470000D03*
%TD*%
D14*
%TO.C,D5*%
X164465000Y-75565000D03*
X164465000Y-79565000D03*
%TD*%
D13*
%TO.C,D6*%
X187230000Y-77470000D03*
X191230000Y-77470000D03*
%TD*%
%TO.C,D7*%
X108680000Y-92710000D03*
X104680000Y-92710000D03*
%TD*%
%TO.C,D8*%
X123920000Y-92710000D03*
X119920000Y-92710000D03*
%TD*%
%TO.C,D9*%
X139160000Y-92710000D03*
X135160000Y-92710000D03*
%TD*%
%TO.C,D10*%
X154400000Y-92710000D03*
X150400000Y-92710000D03*
%TD*%
D14*
%TO.C,D11*%
X164465000Y-90805000D03*
X164465000Y-94805000D03*
%TD*%
D13*
%TO.C,D12*%
X191230000Y-92710000D03*
X187230000Y-92710000D03*
%TD*%
%TO.C,D13*%
X108680000Y-107950000D03*
X104680000Y-107950000D03*
%TD*%
%TO.C,D14*%
X119920000Y-107950000D03*
X123920000Y-107950000D03*
%TD*%
%TO.C,D15*%
X139160000Y-107950000D03*
X135160000Y-107950000D03*
%TD*%
%TO.C,D16*%
X154400000Y-107950000D03*
X150400000Y-107950000D03*
%TD*%
D14*
%TO.C,D17*%
X164465000Y-106045000D03*
X164465000Y-110045000D03*
%TD*%
D13*
%TO.C,D18*%
X191230000Y-107950000D03*
X187230000Y-107950000D03*
%TD*%
%TO.C,D24*%
X187230000Y-123190000D03*
X191230000Y-123190000D03*
%TD*%
%TO.C,D19*%
X104680000Y-123190000D03*
X108680000Y-123190000D03*
%TD*%
%TO.C,D20*%
X123920000Y-123190000D03*
X119920000Y-123190000D03*
%TD*%
%TO.C,D21*%
X139160000Y-123190000D03*
X135160000Y-123190000D03*
%TD*%
%TO.C,D22*%
X150400000Y-123190000D03*
X154400000Y-123190000D03*
%TD*%
D14*
%TO.C,D23*%
X164465000Y-125285000D03*
X164465000Y-121285000D03*
%TD*%
D13*
%TO.C,D26*%
X119475000Y-130810000D03*
X115475000Y-130810000D03*
%TD*%
%TO.C,D27*%
X129350000Y-130810000D03*
X133350000Y-130810000D03*
%TD*%
%TO.C,D30*%
X157925000Y-133350000D03*
X161925000Y-133350000D03*
%TD*%
%TO.C,D31*%
X147320000Y-130810000D03*
X143320000Y-130810000D03*
%TD*%
%TO.C,J1*%
G36*
G01*
X187834706Y-133800000D02*
X189355294Y-133800000D01*
G75*
G02*
X189620000Y-134064706I0J-264706D01*
G01*
X189620000Y-135335294D01*
G75*
G02*
X189355294Y-135600000I-264706J0D01*
G01*
X187834706Y-135600000D01*
G75*
G02*
X187570000Y-135335294I0J264706D01*
G01*
X187570000Y-134064706D01*
G75*
G02*
X187834706Y-133800000I264706J0D01*
G01*
G37*
D15*
X188595000Y-137200000D03*
X188595000Y-139700000D03*
X188595000Y-142200000D03*
%TD*%
%TO.C,R1*%
G36*
G01*
X117102500Y-140910000D02*
X116577500Y-140910000D01*
G75*
G02*
X116315000Y-140647500I0J262500D01*
G01*
X116315000Y-140022500D01*
G75*
G02*
X116577500Y-139760000I262500J0D01*
G01*
X117102500Y-139760000D01*
G75*
G02*
X117365000Y-140022500I0J-262500D01*
G01*
X117365000Y-140647500D01*
G75*
G02*
X117102500Y-140910000I-262500J0D01*
G01*
G37*
G36*
G01*
X117102500Y-142660000D02*
X116577500Y-142660000D01*
G75*
G02*
X116315000Y-142397500I0J262500D01*
G01*
X116315000Y-141772500D01*
G75*
G02*
X116577500Y-141510000I262500J0D01*
G01*
X117102500Y-141510000D01*
G75*
G02*
X117365000Y-141772500I0J-262500D01*
G01*
X117365000Y-142397500D01*
G75*
G02*
X117102500Y-142660000I-262500J0D01*
G01*
G37*
%TD*%
%TO.C,R2*%
G36*
G01*
X131072500Y-142660000D02*
X130547500Y-142660000D01*
G75*
G02*
X130285000Y-142397500I0J262500D01*
G01*
X130285000Y-141772500D01*
G75*
G02*
X130547500Y-141510000I262500J0D01*
G01*
X131072500Y-141510000D01*
G75*
G02*
X131335000Y-141772500I0J-262500D01*
G01*
X131335000Y-142397500D01*
G75*
G02*
X131072500Y-142660000I-262500J0D01*
G01*
G37*
G36*
G01*
X131072500Y-140910000D02*
X130547500Y-140910000D01*
G75*
G02*
X130285000Y-140647500I0J262500D01*
G01*
X130285000Y-140022500D01*
G75*
G02*
X130547500Y-139760000I262500J0D01*
G01*
X131072500Y-139760000D01*
G75*
G02*
X131335000Y-140022500I0J-262500D01*
G01*
X131335000Y-140647500D01*
G75*
G02*
X131072500Y-140910000I-262500J0D01*
G01*
G37*
%TD*%
%TO.C,R3*%
G36*
G01*
X171270000Y-91067500D02*
X171270000Y-90542500D01*
G75*
G02*
X171532500Y-90280000I262500J0D01*
G01*
X172157500Y-90280000D01*
G75*
G02*
X172420000Y-90542500I0J-262500D01*
G01*
X172420000Y-91067500D01*
G75*
G02*
X172157500Y-91330000I-262500J0D01*
G01*
X171532500Y-91330000D01*
G75*
G02*
X171270000Y-91067500I0J262500D01*
G01*
G37*
G36*
G01*
X173020000Y-91067500D02*
X173020000Y-90542500D01*
G75*
G02*
X173282500Y-90280000I262500J0D01*
G01*
X173907500Y-90280000D01*
G75*
G02*
X174170000Y-90542500I0J-262500D01*
G01*
X174170000Y-91067500D01*
G75*
G02*
X173907500Y-91330000I-262500J0D01*
G01*
X173282500Y-91330000D01*
G75*
G02*
X173020000Y-91067500I0J262500D01*
G01*
G37*
%TD*%
%TO.C,R4*%
G36*
G01*
X173655000Y-77732500D02*
X173655000Y-77207500D01*
G75*
G02*
X173917500Y-76945000I262500J0D01*
G01*
X174542500Y-76945000D01*
G75*
G02*
X174805000Y-77207500I0J-262500D01*
G01*
X174805000Y-77732500D01*
G75*
G02*
X174542500Y-77995000I-262500J0D01*
G01*
X173917500Y-77995000D01*
G75*
G02*
X173655000Y-77732500I0J262500D01*
G01*
G37*
G36*
G01*
X171905000Y-77732500D02*
X171905000Y-77207500D01*
G75*
G02*
X172167500Y-76945000I262500J0D01*
G01*
X172792500Y-76945000D01*
G75*
G02*
X173055000Y-77207500I0J-262500D01*
G01*
X173055000Y-77732500D01*
G75*
G02*
X172792500Y-77995000I-262500J0D01*
G01*
X172167500Y-77995000D01*
G75*
G02*
X171905000Y-77732500I0J262500D01*
G01*
G37*
%TD*%
%TO.C,R5*%
G36*
G01*
X159012500Y-141065000D02*
X158487500Y-141065000D01*
G75*
G02*
X158225000Y-140802500I0J262500D01*
G01*
X158225000Y-140177500D01*
G75*
G02*
X158487500Y-139915000I262500J0D01*
G01*
X159012500Y-139915000D01*
G75*
G02*
X159275000Y-140177500I0J-262500D01*
G01*
X159275000Y-140802500D01*
G75*
G02*
X159012500Y-141065000I-262500J0D01*
G01*
G37*
G36*
G01*
X159012500Y-142815000D02*
X158487500Y-142815000D01*
G75*
G02*
X158225000Y-142552500I0J262500D01*
G01*
X158225000Y-141927500D01*
G75*
G02*
X158487500Y-141665000I262500J0D01*
G01*
X159012500Y-141665000D01*
G75*
G02*
X159275000Y-141927500I0J-262500D01*
G01*
X159275000Y-142552500D01*
G75*
G02*
X159012500Y-142815000I-262500J0D01*
G01*
G37*
%TD*%
%TO.C,R6*%
G36*
G01*
X145042500Y-142815000D02*
X144517500Y-142815000D01*
G75*
G02*
X144255000Y-142552500I0J262500D01*
G01*
X144255000Y-141927500D01*
G75*
G02*
X144517500Y-141665000I262500J0D01*
G01*
X145042500Y-141665000D01*
G75*
G02*
X145305000Y-141927500I0J-262500D01*
G01*
X145305000Y-142552500D01*
G75*
G02*
X145042500Y-142815000I-262500J0D01*
G01*
G37*
G36*
G01*
X145042500Y-141065000D02*
X144517500Y-141065000D01*
G75*
G02*
X144255000Y-140802500I0J262500D01*
G01*
X144255000Y-140177500D01*
G75*
G02*
X144517500Y-139915000I262500J0D01*
G01*
X145042500Y-139915000D01*
G75*
G02*
X145305000Y-140177500I0J-262500D01*
G01*
X145305000Y-140802500D01*
G75*
G02*
X145042500Y-141065000I-262500J0D01*
G01*
G37*
%TD*%
%TO.C,R7*%
G36*
G01*
X171270000Y-121547500D02*
X171270000Y-121022500D01*
G75*
G02*
X171532500Y-120760000I262500J0D01*
G01*
X172157500Y-120760000D01*
G75*
G02*
X172420000Y-121022500I0J-262500D01*
G01*
X172420000Y-121547500D01*
G75*
G02*
X172157500Y-121810000I-262500J0D01*
G01*
X171532500Y-121810000D01*
G75*
G02*
X171270000Y-121547500I0J262500D01*
G01*
G37*
G36*
G01*
X173020000Y-121547500D02*
X173020000Y-121022500D01*
G75*
G02*
X173282500Y-120760000I262500J0D01*
G01*
X173907500Y-120760000D01*
G75*
G02*
X174170000Y-121022500I0J-262500D01*
G01*
X174170000Y-121547500D01*
G75*
G02*
X173907500Y-121810000I-262500J0D01*
G01*
X173282500Y-121810000D01*
G75*
G02*
X173020000Y-121547500I0J262500D01*
G01*
G37*
%TD*%
%TO.C,R8*%
G36*
G01*
X154567500Y-148685000D02*
X154042500Y-148685000D01*
G75*
G02*
X153780000Y-148422500I0J262500D01*
G01*
X153780000Y-147797500D01*
G75*
G02*
X154042500Y-147535000I262500J0D01*
G01*
X154567500Y-147535000D01*
G75*
G02*
X154830000Y-147797500I0J-262500D01*
G01*
X154830000Y-148422500D01*
G75*
G02*
X154567500Y-148685000I-262500J0D01*
G01*
G37*
G36*
G01*
X154567500Y-150435000D02*
X154042500Y-150435000D01*
G75*
G02*
X153780000Y-150172500I0J262500D01*
G01*
X153780000Y-149547500D01*
G75*
G02*
X154042500Y-149285000I262500J0D01*
G01*
X154567500Y-149285000D01*
G75*
G02*
X154830000Y-149547500I0J-262500D01*
G01*
X154830000Y-150172500D01*
G75*
G02*
X154567500Y-150435000I-262500J0D01*
G01*
G37*
%TD*%
%TO.C,R9*%
G36*
G01*
X171905000Y-108212500D02*
X171905000Y-107687500D01*
G75*
G02*
X172167500Y-107425000I262500J0D01*
G01*
X172792500Y-107425000D01*
G75*
G02*
X173055000Y-107687500I0J-262500D01*
G01*
X173055000Y-108212500D01*
G75*
G02*
X172792500Y-108475000I-262500J0D01*
G01*
X172167500Y-108475000D01*
G75*
G02*
X171905000Y-108212500I0J262500D01*
G01*
G37*
G36*
G01*
X173655000Y-108212500D02*
X173655000Y-107687500D01*
G75*
G02*
X173917500Y-107425000I262500J0D01*
G01*
X174542500Y-107425000D01*
G75*
G02*
X174805000Y-107687500I0J-262500D01*
G01*
X174805000Y-108212500D01*
G75*
G02*
X174542500Y-108475000I-262500J0D01*
G01*
X173917500Y-108475000D01*
G75*
G02*
X173655000Y-108212500I0J262500D01*
G01*
G37*
%TD*%
%TO.C,R10*%
G36*
G01*
X156472500Y-150435000D02*
X155947500Y-150435000D01*
G75*
G02*
X155685000Y-150172500I0J262500D01*
G01*
X155685000Y-149547500D01*
G75*
G02*
X155947500Y-149285000I262500J0D01*
G01*
X156472500Y-149285000D01*
G75*
G02*
X156735000Y-149547500I0J-262500D01*
G01*
X156735000Y-150172500D01*
G75*
G02*
X156472500Y-150435000I-262500J0D01*
G01*
G37*
G36*
G01*
X156472500Y-148685000D02*
X155947500Y-148685000D01*
G75*
G02*
X155685000Y-148422500I0J262500D01*
G01*
X155685000Y-147797500D01*
G75*
G02*
X155947500Y-147535000I262500J0D01*
G01*
X156472500Y-147535000D01*
G75*
G02*
X156735000Y-147797500I0J-262500D01*
G01*
X156735000Y-148422500D01*
G75*
G02*
X156472500Y-148685000I-262500J0D01*
G01*
G37*
%TD*%
%TO.C,R11*%
G36*
G01*
X158377500Y-148685000D02*
X157852500Y-148685000D01*
G75*
G02*
X157590000Y-148422500I0J262500D01*
G01*
X157590000Y-147797500D01*
G75*
G02*
X157852500Y-147535000I262500J0D01*
G01*
X158377500Y-147535000D01*
G75*
G02*
X158640000Y-147797500I0J-262500D01*
G01*
X158640000Y-148422500D01*
G75*
G02*
X158377500Y-148685000I-262500J0D01*
G01*
G37*
G36*
G01*
X158377500Y-150435000D02*
X157852500Y-150435000D01*
G75*
G02*
X157590000Y-150172500I0J262500D01*
G01*
X157590000Y-149547500D01*
G75*
G02*
X157852500Y-149285000I262500J0D01*
G01*
X158377500Y-149285000D01*
G75*
G02*
X158640000Y-149547500I0J-262500D01*
G01*
X158640000Y-150172500D01*
G75*
G02*
X158377500Y-150435000I-262500J0D01*
G01*
G37*
%TD*%
%TO.C,R12*%
G36*
G01*
X160282500Y-150435000D02*
X159757500Y-150435000D01*
G75*
G02*
X159495000Y-150172500I0J262500D01*
G01*
X159495000Y-149547500D01*
G75*
G02*
X159757500Y-149285000I262500J0D01*
G01*
X160282500Y-149285000D01*
G75*
G02*
X160545000Y-149547500I0J-262500D01*
G01*
X160545000Y-150172500D01*
G75*
G02*
X160282500Y-150435000I-262500J0D01*
G01*
G37*
G36*
G01*
X160282500Y-148685000D02*
X159757500Y-148685000D01*
G75*
G02*
X159495000Y-148422500I0J262500D01*
G01*
X159495000Y-147797500D01*
G75*
G02*
X159757500Y-147535000I262500J0D01*
G01*
X160282500Y-147535000D01*
G75*
G02*
X160545000Y-147797500I0J-262500D01*
G01*
X160545000Y-148422500D01*
G75*
G02*
X160282500Y-148685000I-262500J0D01*
G01*
G37*
%TD*%
%TO.C,R13*%
G36*
G01*
X162187500Y-148685000D02*
X161662500Y-148685000D01*
G75*
G02*
X161400000Y-148422500I0J262500D01*
G01*
X161400000Y-147797500D01*
G75*
G02*
X161662500Y-147535000I262500J0D01*
G01*
X162187500Y-147535000D01*
G75*
G02*
X162450000Y-147797500I0J-262500D01*
G01*
X162450000Y-148422500D01*
G75*
G02*
X162187500Y-148685000I-262500J0D01*
G01*
G37*
G36*
G01*
X162187500Y-150435000D02*
X161662500Y-150435000D01*
G75*
G02*
X161400000Y-150172500I0J262500D01*
G01*
X161400000Y-149547500D01*
G75*
G02*
X161662500Y-149285000I262500J0D01*
G01*
X162187500Y-149285000D01*
G75*
G02*
X162450000Y-149547500I0J-262500D01*
G01*
X162450000Y-150172500D01*
G75*
G02*
X162187500Y-150435000I-262500J0D01*
G01*
G37*
%TD*%
%TO.C,R14*%
G36*
G01*
X164092500Y-150435000D02*
X163567500Y-150435000D01*
G75*
G02*
X163305000Y-150172500I0J262500D01*
G01*
X163305000Y-149547500D01*
G75*
G02*
X163567500Y-149285000I262500J0D01*
G01*
X164092500Y-149285000D01*
G75*
G02*
X164355000Y-149547500I0J-262500D01*
G01*
X164355000Y-150172500D01*
G75*
G02*
X164092500Y-150435000I-262500J0D01*
G01*
G37*
G36*
G01*
X164092500Y-148685000D02*
X163567500Y-148685000D01*
G75*
G02*
X163305000Y-148422500I0J262500D01*
G01*
X163305000Y-147797500D01*
G75*
G02*
X163567500Y-147535000I262500J0D01*
G01*
X164092500Y-147535000D01*
G75*
G02*
X164355000Y-147797500I0J-262500D01*
G01*
X164355000Y-148422500D01*
G75*
G02*
X164092500Y-148685000I-262500J0D01*
G01*
G37*
%TD*%
%TO.C,R15*%
G36*
G01*
X165997500Y-148685000D02*
X165472500Y-148685000D01*
G75*
G02*
X165210000Y-148422500I0J262500D01*
G01*
X165210000Y-147797500D01*
G75*
G02*
X165472500Y-147535000I262500J0D01*
G01*
X165997500Y-147535000D01*
G75*
G02*
X166260000Y-147797500I0J-262500D01*
G01*
X166260000Y-148422500D01*
G75*
G02*
X165997500Y-148685000I-262500J0D01*
G01*
G37*
G36*
G01*
X165997500Y-150435000D02*
X165472500Y-150435000D01*
G75*
G02*
X165210000Y-150172500I0J262500D01*
G01*
X165210000Y-149547500D01*
G75*
G02*
X165472500Y-149285000I262500J0D01*
G01*
X165997500Y-149285000D01*
G75*
G02*
X166260000Y-149547500I0J-262500D01*
G01*
X166260000Y-150172500D01*
G75*
G02*
X165997500Y-150435000I-262500J0D01*
G01*
G37*
%TD*%
D16*
%TO.C,SW1*%
X113030000Y-72390000D03*
X102870000Y-72390000D03*
D17*
X107950000Y-72390000D03*
D18*
X104140000Y-69850000D03*
X110490000Y-67310000D03*
%TD*%
%TO.C,SW2*%
X125730000Y-67310000D03*
X119380000Y-69850000D03*
D17*
X123190000Y-72390000D03*
D16*
X118110000Y-72390000D03*
X128270000Y-72390000D03*
%TD*%
%TO.C,SW3*%
X143510000Y-72390000D03*
X133350000Y-72390000D03*
D17*
X138430000Y-72390000D03*
D18*
X134620000Y-69850000D03*
X140970000Y-67310000D03*
%TD*%
%TO.C,SW4*%
X156210000Y-67310000D03*
X149860000Y-69850000D03*
D17*
X153670000Y-72390000D03*
D16*
X148590000Y-72390000D03*
X158750000Y-72390000D03*
%TD*%
D18*
%TO.C,SW6*%
X193040000Y-67310000D03*
X186690000Y-69850000D03*
D17*
X190500000Y-72390000D03*
D16*
X185420000Y-72390000D03*
X195580000Y-72390000D03*
%TD*%
%TO.C,SW7*%
X113030000Y-87630000D03*
X102870000Y-87630000D03*
D17*
X107950000Y-87630000D03*
D18*
X104140000Y-85090000D03*
X110490000Y-82550000D03*
%TD*%
%TO.C,SW8*%
X125730000Y-82550000D03*
X119380000Y-85090000D03*
D17*
X123190000Y-87630000D03*
D16*
X118110000Y-87630000D03*
X128270000Y-87630000D03*
%TD*%
%TO.C,SW9*%
X143510000Y-87630000D03*
X133350000Y-87630000D03*
D17*
X138430000Y-87630000D03*
D18*
X134620000Y-85090000D03*
X140970000Y-82550000D03*
%TD*%
%TO.C,SW10*%
X156210000Y-82550000D03*
X149860000Y-85090000D03*
D17*
X153670000Y-87630000D03*
D16*
X148590000Y-87630000D03*
X158750000Y-87630000D03*
%TD*%
%TO.C,SW12*%
X195580000Y-87630000D03*
X185420000Y-87630000D03*
D17*
X190500000Y-87630000D03*
D18*
X186690000Y-85090000D03*
X193040000Y-82550000D03*
%TD*%
%TO.C,SW13*%
X110490000Y-97790000D03*
X104140000Y-100330000D03*
D17*
X107950000Y-102870000D03*
D16*
X102870000Y-102870000D03*
X113030000Y-102870000D03*
%TD*%
%TO.C,SW14*%
X128270000Y-102870000D03*
X118110000Y-102870000D03*
D17*
X123190000Y-102870000D03*
D18*
X119380000Y-100330000D03*
X125730000Y-97790000D03*
%TD*%
%TO.C,SW15*%
X140970000Y-97790000D03*
X134620000Y-100330000D03*
D17*
X138430000Y-102870000D03*
D16*
X133350000Y-102870000D03*
X143510000Y-102870000D03*
%TD*%
%TO.C,SW16*%
X158750000Y-102870000D03*
X148590000Y-102870000D03*
D17*
X153670000Y-102870000D03*
D18*
X149860000Y-100330000D03*
X156210000Y-97790000D03*
%TD*%
%TO.C,SW18*%
X193040000Y-97790000D03*
X186690000Y-100330000D03*
D17*
X190500000Y-102870000D03*
D16*
X185420000Y-102870000D03*
X195580000Y-102870000D03*
%TD*%
%TO.C,SW24*%
X195580000Y-118110000D03*
X185420000Y-118110000D03*
D17*
X190500000Y-118110000D03*
D18*
X186690000Y-115570000D03*
X193040000Y-113030000D03*
%TD*%
%TO.C,SW19*%
X110490000Y-113030000D03*
X104140000Y-115570000D03*
D17*
X107950000Y-118110000D03*
D16*
X102870000Y-118110000D03*
X113030000Y-118110000D03*
%TD*%
D18*
%TO.C,SW20*%
X125730000Y-113030000D03*
X119380000Y-115570000D03*
D17*
X123190000Y-118110000D03*
D16*
X118110000Y-118110000D03*
X128270000Y-118110000D03*
%TD*%
%TO.C,U1*%
G36*
G01*
X180350000Y-130635000D02*
X180350000Y-130985000D01*
G75*
G02*
X180175000Y-131160000I-175000J0D01*
G01*
X178375000Y-131160000D01*
G75*
G02*
X178200000Y-130985000I0J175000D01*
G01*
X178200000Y-130635000D01*
G75*
G02*
X178375000Y-130460000I175000J0D01*
G01*
X180175000Y-130460000D01*
G75*
G02*
X180350000Y-130635000I0J-175000D01*
G01*
G37*
G36*
G01*
X180350000Y-131905000D02*
X180350000Y-132255000D01*
G75*
G02*
X180175000Y-132430000I-175000J0D01*
G01*
X178375000Y-132430000D01*
G75*
G02*
X178200000Y-132255000I0J175000D01*
G01*
X178200000Y-131905000D01*
G75*
G02*
X178375000Y-131730000I175000J0D01*
G01*
X180175000Y-131730000D01*
G75*
G02*
X180350000Y-131905000I0J-175000D01*
G01*
G37*
G36*
G01*
X180350000Y-133175000D02*
X180350000Y-133525000D01*
G75*
G02*
X180175000Y-133700000I-175000J0D01*
G01*
X178375000Y-133700000D01*
G75*
G02*
X178200000Y-133525000I0J175000D01*
G01*
X178200000Y-133175000D01*
G75*
G02*
X178375000Y-133000000I175000J0D01*
G01*
X180175000Y-133000000D01*
G75*
G02*
X180350000Y-133175000I0J-175000D01*
G01*
G37*
G36*
G01*
X180350000Y-134445000D02*
X180350000Y-134795000D01*
G75*
G02*
X180175000Y-134970000I-175000J0D01*
G01*
X178375000Y-134970000D01*
G75*
G02*
X178200000Y-134795000I0J175000D01*
G01*
X178200000Y-134445000D01*
G75*
G02*
X178375000Y-134270000I175000J0D01*
G01*
X180175000Y-134270000D01*
G75*
G02*
X180350000Y-134445000I0J-175000D01*
G01*
G37*
G36*
G01*
X180350000Y-135715000D02*
X180350000Y-136065000D01*
G75*
G02*
X180175000Y-136240000I-175000J0D01*
G01*
X178375000Y-136240000D01*
G75*
G02*
X178200000Y-136065000I0J175000D01*
G01*
X178200000Y-135715000D01*
G75*
G02*
X178375000Y-135540000I175000J0D01*
G01*
X180175000Y-135540000D01*
G75*
G02*
X180350000Y-135715000I0J-175000D01*
G01*
G37*
G36*
G01*
X180350000Y-136985000D02*
X180350000Y-137335000D01*
G75*
G02*
X180175000Y-137510000I-175000J0D01*
G01*
X178375000Y-137510000D01*
G75*
G02*
X178200000Y-137335000I0J175000D01*
G01*
X178200000Y-136985000D01*
G75*
G02*
X178375000Y-136810000I175000J0D01*
G01*
X180175000Y-136810000D01*
G75*
G02*
X180350000Y-136985000I0J-175000D01*
G01*
G37*
G36*
G01*
X180350000Y-138255000D02*
X180350000Y-138605000D01*
G75*
G02*
X180175000Y-138780000I-175000J0D01*
G01*
X178375000Y-138780000D01*
G75*
G02*
X178200000Y-138605000I0J175000D01*
G01*
X178200000Y-138255000D01*
G75*
G02*
X178375000Y-138080000I175000J0D01*
G01*
X180175000Y-138080000D01*
G75*
G02*
X180350000Y-138255000I0J-175000D01*
G01*
G37*
G36*
G01*
X180350000Y-139525000D02*
X180350000Y-139875000D01*
G75*
G02*
X180175000Y-140050000I-175000J0D01*
G01*
X178375000Y-140050000D01*
G75*
G02*
X178200000Y-139875000I0J175000D01*
G01*
X178200000Y-139525000D01*
G75*
G02*
X178375000Y-139350000I175000J0D01*
G01*
X180175000Y-139350000D01*
G75*
G02*
X180350000Y-139525000I0J-175000D01*
G01*
G37*
G36*
G01*
X180350000Y-140795000D02*
X180350000Y-141145000D01*
G75*
G02*
X180175000Y-141320000I-175000J0D01*
G01*
X178375000Y-141320000D01*
G75*
G02*
X178200000Y-141145000I0J175000D01*
G01*
X178200000Y-140795000D01*
G75*
G02*
X178375000Y-140620000I175000J0D01*
G01*
X180175000Y-140620000D01*
G75*
G02*
X180350000Y-140795000I0J-175000D01*
G01*
G37*
G36*
G01*
X180350000Y-142065000D02*
X180350000Y-142415000D01*
G75*
G02*
X180175000Y-142590000I-175000J0D01*
G01*
X178375000Y-142590000D01*
G75*
G02*
X178200000Y-142415000I0J175000D01*
G01*
X178200000Y-142065000D01*
G75*
G02*
X178375000Y-141890000I175000J0D01*
G01*
X180175000Y-141890000D01*
G75*
G02*
X180350000Y-142065000I0J-175000D01*
G01*
G37*
G36*
G01*
X180350000Y-143335000D02*
X180350000Y-143685000D01*
G75*
G02*
X180175000Y-143860000I-175000J0D01*
G01*
X178375000Y-143860000D01*
G75*
G02*
X178200000Y-143685000I0J175000D01*
G01*
X178200000Y-143335000D01*
G75*
G02*
X178375000Y-143160000I175000J0D01*
G01*
X180175000Y-143160000D01*
G75*
G02*
X180350000Y-143335000I0J-175000D01*
G01*
G37*
G36*
G01*
X180350000Y-144605000D02*
X180350000Y-144955000D01*
G75*
G02*
X180175000Y-145130000I-175000J0D01*
G01*
X178375000Y-145130000D01*
G75*
G02*
X178200000Y-144955000I0J175000D01*
G01*
X178200000Y-144605000D01*
G75*
G02*
X178375000Y-144430000I175000J0D01*
G01*
X180175000Y-144430000D01*
G75*
G02*
X180350000Y-144605000I0J-175000D01*
G01*
G37*
G36*
G01*
X180350000Y-145875000D02*
X180350000Y-146225000D01*
G75*
G02*
X180175000Y-146400000I-175000J0D01*
G01*
X178375000Y-146400000D01*
G75*
G02*
X178200000Y-146225000I0J175000D01*
G01*
X178200000Y-145875000D01*
G75*
G02*
X178375000Y-145700000I175000J0D01*
G01*
X180175000Y-145700000D01*
G75*
G02*
X180350000Y-145875000I0J-175000D01*
G01*
G37*
G36*
G01*
X180350000Y-147145000D02*
X180350000Y-147495000D01*
G75*
G02*
X180175000Y-147670000I-175000J0D01*
G01*
X178375000Y-147670000D01*
G75*
G02*
X178200000Y-147495000I0J175000D01*
G01*
X178200000Y-147145000D01*
G75*
G02*
X178375000Y-146970000I175000J0D01*
G01*
X180175000Y-146970000D01*
G75*
G02*
X180350000Y-147145000I0J-175000D01*
G01*
G37*
G36*
G01*
X171050000Y-147145000D02*
X171050000Y-147495000D01*
G75*
G02*
X170875000Y-147670000I-175000J0D01*
G01*
X169075000Y-147670000D01*
G75*
G02*
X168900000Y-147495000I0J175000D01*
G01*
X168900000Y-147145000D01*
G75*
G02*
X169075000Y-146970000I175000J0D01*
G01*
X170875000Y-146970000D01*
G75*
G02*
X171050000Y-147145000I0J-175000D01*
G01*
G37*
G36*
G01*
X171050000Y-145875000D02*
X171050000Y-146225000D01*
G75*
G02*
X170875000Y-146400000I-175000J0D01*
G01*
X169075000Y-146400000D01*
G75*
G02*
X168900000Y-146225000I0J175000D01*
G01*
X168900000Y-145875000D01*
G75*
G02*
X169075000Y-145700000I175000J0D01*
G01*
X170875000Y-145700000D01*
G75*
G02*
X171050000Y-145875000I0J-175000D01*
G01*
G37*
G36*
G01*
X171050000Y-144605000D02*
X171050000Y-144955000D01*
G75*
G02*
X170875000Y-145130000I-175000J0D01*
G01*
X169075000Y-145130000D01*
G75*
G02*
X168900000Y-144955000I0J175000D01*
G01*
X168900000Y-144605000D01*
G75*
G02*
X169075000Y-144430000I175000J0D01*
G01*
X170875000Y-144430000D01*
G75*
G02*
X171050000Y-144605000I0J-175000D01*
G01*
G37*
G36*
G01*
X171050000Y-143335000D02*
X171050000Y-143685000D01*
G75*
G02*
X170875000Y-143860000I-175000J0D01*
G01*
X169075000Y-143860000D01*
G75*
G02*
X168900000Y-143685000I0J175000D01*
G01*
X168900000Y-143335000D01*
G75*
G02*
X169075000Y-143160000I175000J0D01*
G01*
X170875000Y-143160000D01*
G75*
G02*
X171050000Y-143335000I0J-175000D01*
G01*
G37*
G36*
G01*
X171050000Y-142065000D02*
X171050000Y-142415000D01*
G75*
G02*
X170875000Y-142590000I-175000J0D01*
G01*
X169075000Y-142590000D01*
G75*
G02*
X168900000Y-142415000I0J175000D01*
G01*
X168900000Y-142065000D01*
G75*
G02*
X169075000Y-141890000I175000J0D01*
G01*
X170875000Y-141890000D01*
G75*
G02*
X171050000Y-142065000I0J-175000D01*
G01*
G37*
G36*
G01*
X171050000Y-140795000D02*
X171050000Y-141145000D01*
G75*
G02*
X170875000Y-141320000I-175000J0D01*
G01*
X169075000Y-141320000D01*
G75*
G02*
X168900000Y-141145000I0J175000D01*
G01*
X168900000Y-140795000D01*
G75*
G02*
X169075000Y-140620000I175000J0D01*
G01*
X170875000Y-140620000D01*
G75*
G02*
X171050000Y-140795000I0J-175000D01*
G01*
G37*
G36*
G01*
X171050000Y-139525000D02*
X171050000Y-139875000D01*
G75*
G02*
X170875000Y-140050000I-175000J0D01*
G01*
X169075000Y-140050000D01*
G75*
G02*
X168900000Y-139875000I0J175000D01*
G01*
X168900000Y-139525000D01*
G75*
G02*
X169075000Y-139350000I175000J0D01*
G01*
X170875000Y-139350000D01*
G75*
G02*
X171050000Y-139525000I0J-175000D01*
G01*
G37*
G36*
G01*
X171050000Y-138255000D02*
X171050000Y-138605000D01*
G75*
G02*
X170875000Y-138780000I-175000J0D01*
G01*
X169075000Y-138780000D01*
G75*
G02*
X168900000Y-138605000I0J175000D01*
G01*
X168900000Y-138255000D01*
G75*
G02*
X169075000Y-138080000I175000J0D01*
G01*
X170875000Y-138080000D01*
G75*
G02*
X171050000Y-138255000I0J-175000D01*
G01*
G37*
G36*
G01*
X171050000Y-136985000D02*
X171050000Y-137335000D01*
G75*
G02*
X170875000Y-137510000I-175000J0D01*
G01*
X169075000Y-137510000D01*
G75*
G02*
X168900000Y-137335000I0J175000D01*
G01*
X168900000Y-136985000D01*
G75*
G02*
X169075000Y-136810000I175000J0D01*
G01*
X170875000Y-136810000D01*
G75*
G02*
X171050000Y-136985000I0J-175000D01*
G01*
G37*
G36*
G01*
X171050000Y-135715000D02*
X171050000Y-136065000D01*
G75*
G02*
X170875000Y-136240000I-175000J0D01*
G01*
X169075000Y-136240000D01*
G75*
G02*
X168900000Y-136065000I0J175000D01*
G01*
X168900000Y-135715000D01*
G75*
G02*
X169075000Y-135540000I175000J0D01*
G01*
X170875000Y-135540000D01*
G75*
G02*
X171050000Y-135715000I0J-175000D01*
G01*
G37*
G36*
G01*
X171050000Y-134445000D02*
X171050000Y-134795000D01*
G75*
G02*
X170875000Y-134970000I-175000J0D01*
G01*
X169075000Y-134970000D01*
G75*
G02*
X168900000Y-134795000I0J175000D01*
G01*
X168900000Y-134445000D01*
G75*
G02*
X169075000Y-134270000I175000J0D01*
G01*
X170875000Y-134270000D01*
G75*
G02*
X171050000Y-134445000I0J-175000D01*
G01*
G37*
G36*
G01*
X171050000Y-133175000D02*
X171050000Y-133525000D01*
G75*
G02*
X170875000Y-133700000I-175000J0D01*
G01*
X169075000Y-133700000D01*
G75*
G02*
X168900000Y-133525000I0J175000D01*
G01*
X168900000Y-133175000D01*
G75*
G02*
X169075000Y-133000000I175000J0D01*
G01*
X170875000Y-133000000D01*
G75*
G02*
X171050000Y-133175000I0J-175000D01*
G01*
G37*
G36*
G01*
X171050000Y-131905000D02*
X171050000Y-132255000D01*
G75*
G02*
X170875000Y-132430000I-175000J0D01*
G01*
X169075000Y-132430000D01*
G75*
G02*
X168900000Y-132255000I0J175000D01*
G01*
X168900000Y-131905000D01*
G75*
G02*
X169075000Y-131730000I175000J0D01*
G01*
X170875000Y-131730000D01*
G75*
G02*
X171050000Y-131905000I0J-175000D01*
G01*
G37*
G36*
G01*
X171050000Y-130635000D02*
X171050000Y-130985000D01*
G75*
G02*
X170875000Y-131160000I-175000J0D01*
G01*
X169075000Y-131160000D01*
G75*
G02*
X168900000Y-130985000I0J175000D01*
G01*
X168900000Y-130635000D01*
G75*
G02*
X169075000Y-130460000I175000J0D01*
G01*
X170875000Y-130460000D01*
G75*
G02*
X171050000Y-130635000I0J-175000D01*
G01*
G37*
%TD*%
D18*
%TO.C,SW21*%
X140970000Y-113030000D03*
X134620000Y-115570000D03*
D17*
X138430000Y-118110000D03*
D16*
X133350000Y-118110000D03*
X143510000Y-118110000D03*
%TD*%
%TO.C,SW22*%
X158750000Y-118110000D03*
X148590000Y-118110000D03*
D17*
X153670000Y-118110000D03*
D18*
X149860000Y-115570000D03*
X156210000Y-113030000D03*
%TD*%
D19*
%TO.C,SW25*%
X116475000Y-137795000D03*
X111475000Y-130795000D03*
%TD*%
%TO.C,SW26*%
X126000000Y-130795000D03*
X131000000Y-137795000D03*
%TD*%
%TO.C,SW27*%
X160020000Y-137795000D03*
X155020000Y-130795000D03*
%TD*%
%TO.C,SW28*%
X140605000Y-130810000D03*
X145605000Y-137810000D03*
%TD*%
%TO.C,SW5*%
X170180000Y-77470000D03*
D20*
X167640000Y-77470000D03*
D16*
X173990000Y-72390000D03*
X163830000Y-72390000D03*
D17*
X168910000Y-72390000D03*
D18*
X165100000Y-69850000D03*
X171450000Y-67310000D03*
%TD*%
%TO.C,SW11*%
X171450000Y-82550000D03*
X165100000Y-85090000D03*
D17*
X168910000Y-87630000D03*
D16*
X163830000Y-87630000D03*
X173990000Y-87630000D03*
D20*
X167640000Y-92710000D03*
D19*
X170180000Y-92710000D03*
%TD*%
%TO.C,SW17*%
X170180000Y-107950000D03*
D20*
X167640000Y-107950000D03*
D16*
X173990000Y-102870000D03*
X163830000Y-102870000D03*
D17*
X168910000Y-102870000D03*
D18*
X165100000Y-100330000D03*
X171450000Y-97790000D03*
%TD*%
%TO.C,SW23*%
X171450000Y-113030000D03*
X165100000Y-115570000D03*
D17*
X168910000Y-118110000D03*
D16*
X163830000Y-118110000D03*
X173990000Y-118110000D03*
D20*
X167640000Y-123190000D03*
D19*
X170180000Y-123190000D03*
%TD*%
M02*
