M48
; DRILL file {KiCad (5.1.6)-1} date 04/12/21 23:45:48
; FORMAT={-:-/ absolute / inch / decimal}
; #@! TF.CreationDate,2021-04-12T23:45:48+02:00
; #@! TF.GenerationSoftware,Kicad,Pcbnew,(5.1.6)-1
; #@! TF.FileFunction,Plated,1,2,PTH
FMAT,2
INCH
T1C0.0197
T2C0.0236
T3C0.0300
T4C0.0374
T5C0.0591
T6C0.1260
%
G90
G05
T1
X4.0394Y-2.3622
X4.067Y-2.2954
X4.067Y-2.429
X4.1339Y-2.2677
X4.1339Y-2.4567
X4.2007Y-2.2954
X4.2007Y-2.429
X4.2283Y-2.3622
X7.5827Y-5.9055
X7.6104Y-5.8387
X7.6104Y-5.9723
X7.6772Y-5.811
X7.6772Y-6.0
X7.744Y-5.8387
X7.744Y-5.9723
X7.7717Y-5.9055
X7.5827Y-2.3622
X7.6104Y-2.2954
X7.6104Y-2.429
X7.6772Y-2.2677
X7.6772Y-2.4567
X7.744Y-2.2954
X7.744Y-2.429
X7.7717Y-2.3622
X4.0394Y-5.9055
X4.067Y-5.8387
X4.067Y-5.9723
X4.1339Y-5.811
X4.1339Y-6.0
X4.2007Y-5.8387
X4.2007Y-5.9723
X4.2283Y-5.9055
T2
X6.2303Y-5.9646
X6.378Y-5.9646
X6.5256Y-5.9646
X6.625Y-4.375
X6.85Y-4.175
X6.85Y-4.525
X6.9Y-3.575
X6.9Y-4.775
X6.925Y-3.05
X7.0Y-3.65
X7.0Y-4.975
X7.025Y-4.5
X7.025Y-4.8
X7.05Y-2.925
X7.075Y-3.575
X7.125Y-4.225
X7.125Y-4.575
X7.1499Y-5.2499
X7.1499Y-5.3499
X7.15Y-4.725
X7.15Y-5.3
X7.15Y-5.4
X7.2Y-5.0
X7.325Y-4.975
X7.6Y-5.025
X7.6749Y-5.0999
T3
X6.1031Y-5.1494
X6.3Y-5.425
X4.9606Y-5.1494
X5.1575Y-5.425
X4.3888Y-5.1494
X4.5856Y-5.425
X6.6Y-4.85
X6.7Y-4.85
X6.6Y-3.65
X6.7Y-3.65
X6.6Y-4.25
X6.7Y-4.25
X6.6Y-3.05
X6.7Y-3.05
X5.5356Y-5.15
X5.7325Y-5.4256
T4
X7.425Y-5.3031
X7.425Y-5.4016
X7.425Y-5.5
X7.425Y-5.5984
T5
X6.5Y-3.35
X6.75Y-3.25
X4.7Y-4.55
X4.95Y-4.45
X7.35Y-3.35
X7.6Y-3.25
X6.5Y-3.95
X6.75Y-3.85
X5.9Y-2.75
X6.15Y-2.65
X6.5Y-2.75
X6.75Y-2.65
X4.1Y-4.55
X4.35Y-4.45
X5.3Y-3.35
X5.55Y-3.25
X7.35Y-2.75
X7.6Y-2.65
X5.9Y-4.55
X6.15Y-4.45
X5.9Y-3.95
X6.15Y-3.85
X5.3Y-3.95
X5.55Y-3.85
X4.1Y-3.35
X4.35Y-3.25
X7.35Y-3.95
X7.6Y-3.85
X7.35Y-4.55
X7.6Y-4.45
X4.1Y-2.75
X4.35Y-2.65
X4.7Y-2.75
X4.95Y-2.65
X4.7Y-3.95
X4.95Y-3.85
X4.1Y-3.95
X4.35Y-3.85
X4.7Y-3.35
X4.95Y-3.25
X5.3Y-2.75
X5.55Y-2.65
X6.5Y-4.55
X6.75Y-4.45
X5.3Y-4.55
X5.55Y-4.45
X5.9Y-3.35
X6.15Y-3.25
T6
X4.1339Y-2.3622
X7.6772Y-5.9055
X7.6772Y-2.3622
X4.1339Y-5.9055
T0
M30
