%TF.GenerationSoftware,KiCad,Pcbnew,(5.1.6)-1*%
%TF.CreationDate,2021-04-12T23:45:43+02:00*%
%TF.ProjectId,08_Main_Gauche,30385f4d-6169-46e5-9f47-61756368652e,rev?*%
%TF.SameCoordinates,Original*%
%TF.FileFunction,Paste,Bot*%
%TF.FilePolarity,Positive*%
%FSLAX46Y46*%
G04 Gerber Fmt 4.6, Leading zero omitted, Abs format (unit mm)*
G04 Created by KiCad (PCBNEW (5.1.6)-1) date 2021-04-12 23:45:43*
%MOMM*%
%LPD*%
G01*
G04 APERTURE LIST*
%TA.AperFunction,Profile*%
%ADD10C,0.150000*%
%TD*%
%ADD11R,2.500000X1.800000*%
%ADD12R,1.800000X2.500000*%
G04 APERTURE END LIST*
D10*
X180000000Y-55000000D02*
X195000000Y-55000000D01*
X157000000Y-55000000D02*
X180000000Y-55000000D01*
X195000000Y-55000000D02*
G75*
G02*
X200000000Y-60000000I0J-5000000D01*
G01*
X200000000Y-150000000D02*
G75*
G02*
X195000000Y-155000000I-5000000J0D01*
G01*
X105000000Y-155000000D02*
G75*
G02*
X100000000Y-150000000I0J5000000D01*
G01*
X100000000Y-60000000D02*
G75*
G02*
X105000000Y-55000000I5000000J0D01*
G01*
X100000000Y-150000000D02*
X100000000Y-60000000D01*
X195000000Y-155000000D02*
X105000000Y-155000000D01*
X200000000Y-60000000D02*
X200000000Y-150000000D01*
X105000000Y-55000000D02*
X157000000Y-55000000D01*
%TO.C,C1*%
G36*
G01*
X181350000Y-141237500D02*
X181350000Y-140762500D01*
G75*
G02*
X181587500Y-140525000I237500J0D01*
G01*
X182162500Y-140525000D01*
G75*
G02*
X182400000Y-140762500I0J-237500D01*
G01*
X182400000Y-141237500D01*
G75*
G02*
X182162500Y-141475000I-237500J0D01*
G01*
X181587500Y-141475000D01*
G75*
G02*
X181350000Y-141237500I0J237500D01*
G01*
G37*
G36*
G01*
X183100000Y-141237500D02*
X183100000Y-140762500D01*
G75*
G02*
X183337500Y-140525000I237500J0D01*
G01*
X183912500Y-140525000D01*
G75*
G02*
X184150000Y-140762500I0J-237500D01*
G01*
X184150000Y-141237500D01*
G75*
G02*
X183912500Y-141475000I-237500J0D01*
G01*
X183337500Y-141475000D01*
G75*
G02*
X183100000Y-141237500I0J237500D01*
G01*
G37*
%TD*%
D11*
%TO.C,D1*%
X104680000Y-77470000D03*
X108680000Y-77470000D03*
%TD*%
%TO.C,D2*%
X119920000Y-77470000D03*
X123920000Y-77470000D03*
%TD*%
%TO.C,D3*%
X135160000Y-77470000D03*
X139160000Y-77470000D03*
%TD*%
%TO.C,D4*%
X150400000Y-77470000D03*
X154400000Y-77470000D03*
%TD*%
D12*
%TO.C,D5*%
X164465000Y-75565000D03*
X164465000Y-79565000D03*
%TD*%
D11*
%TO.C,D6*%
X187230000Y-77470000D03*
X191230000Y-77470000D03*
%TD*%
%TO.C,D7*%
X108680000Y-92710000D03*
X104680000Y-92710000D03*
%TD*%
%TO.C,D8*%
X123920000Y-92710000D03*
X119920000Y-92710000D03*
%TD*%
%TO.C,D9*%
X139160000Y-92710000D03*
X135160000Y-92710000D03*
%TD*%
%TO.C,D10*%
X154400000Y-92710000D03*
X150400000Y-92710000D03*
%TD*%
D12*
%TO.C,D11*%
X164465000Y-90805000D03*
X164465000Y-94805000D03*
%TD*%
D11*
%TO.C,D12*%
X191230000Y-92710000D03*
X187230000Y-92710000D03*
%TD*%
%TO.C,D13*%
X108680000Y-107950000D03*
X104680000Y-107950000D03*
%TD*%
%TO.C,D14*%
X119920000Y-107950000D03*
X123920000Y-107950000D03*
%TD*%
%TO.C,D15*%
X139160000Y-107950000D03*
X135160000Y-107950000D03*
%TD*%
%TO.C,D16*%
X154400000Y-107950000D03*
X150400000Y-107950000D03*
%TD*%
D12*
%TO.C,D17*%
X164465000Y-106045000D03*
X164465000Y-110045000D03*
%TD*%
D11*
%TO.C,D18*%
X191230000Y-107950000D03*
X187230000Y-107950000D03*
%TD*%
%TO.C,D24*%
X187230000Y-123190000D03*
X191230000Y-123190000D03*
%TD*%
%TO.C,D19*%
X104680000Y-123190000D03*
X108680000Y-123190000D03*
%TD*%
%TO.C,D20*%
X123920000Y-123190000D03*
X119920000Y-123190000D03*
%TD*%
%TO.C,D21*%
X139160000Y-123190000D03*
X135160000Y-123190000D03*
%TD*%
%TO.C,D22*%
X150400000Y-123190000D03*
X154400000Y-123190000D03*
%TD*%
D12*
%TO.C,D23*%
X164465000Y-125285000D03*
X164465000Y-121285000D03*
%TD*%
D11*
%TO.C,D26*%
X119475000Y-130810000D03*
X115475000Y-130810000D03*
%TD*%
%TO.C,D27*%
X129350000Y-130810000D03*
X133350000Y-130810000D03*
%TD*%
%TO.C,D30*%
X157925000Y-133350000D03*
X161925000Y-133350000D03*
%TD*%
%TO.C,D31*%
X147320000Y-130810000D03*
X143320000Y-130810000D03*
%TD*%
%TO.C,R1*%
G36*
G01*
X117077500Y-140860000D02*
X116602500Y-140860000D01*
G75*
G02*
X116365000Y-140622500I0J237500D01*
G01*
X116365000Y-140047500D01*
G75*
G02*
X116602500Y-139810000I237500J0D01*
G01*
X117077500Y-139810000D01*
G75*
G02*
X117315000Y-140047500I0J-237500D01*
G01*
X117315000Y-140622500D01*
G75*
G02*
X117077500Y-140860000I-237500J0D01*
G01*
G37*
G36*
G01*
X117077500Y-142610000D02*
X116602500Y-142610000D01*
G75*
G02*
X116365000Y-142372500I0J237500D01*
G01*
X116365000Y-141797500D01*
G75*
G02*
X116602500Y-141560000I237500J0D01*
G01*
X117077500Y-141560000D01*
G75*
G02*
X117315000Y-141797500I0J-237500D01*
G01*
X117315000Y-142372500D01*
G75*
G02*
X117077500Y-142610000I-237500J0D01*
G01*
G37*
%TD*%
%TO.C,R2*%
G36*
G01*
X131047500Y-142610000D02*
X130572500Y-142610000D01*
G75*
G02*
X130335000Y-142372500I0J237500D01*
G01*
X130335000Y-141797500D01*
G75*
G02*
X130572500Y-141560000I237500J0D01*
G01*
X131047500Y-141560000D01*
G75*
G02*
X131285000Y-141797500I0J-237500D01*
G01*
X131285000Y-142372500D01*
G75*
G02*
X131047500Y-142610000I-237500J0D01*
G01*
G37*
G36*
G01*
X131047500Y-140860000D02*
X130572500Y-140860000D01*
G75*
G02*
X130335000Y-140622500I0J237500D01*
G01*
X130335000Y-140047500D01*
G75*
G02*
X130572500Y-139810000I237500J0D01*
G01*
X131047500Y-139810000D01*
G75*
G02*
X131285000Y-140047500I0J-237500D01*
G01*
X131285000Y-140622500D01*
G75*
G02*
X131047500Y-140860000I-237500J0D01*
G01*
G37*
%TD*%
%TO.C,R3*%
G36*
G01*
X171320000Y-91042500D02*
X171320000Y-90567500D01*
G75*
G02*
X171557500Y-90330000I237500J0D01*
G01*
X172132500Y-90330000D01*
G75*
G02*
X172370000Y-90567500I0J-237500D01*
G01*
X172370000Y-91042500D01*
G75*
G02*
X172132500Y-91280000I-237500J0D01*
G01*
X171557500Y-91280000D01*
G75*
G02*
X171320000Y-91042500I0J237500D01*
G01*
G37*
G36*
G01*
X173070000Y-91042500D02*
X173070000Y-90567500D01*
G75*
G02*
X173307500Y-90330000I237500J0D01*
G01*
X173882500Y-90330000D01*
G75*
G02*
X174120000Y-90567500I0J-237500D01*
G01*
X174120000Y-91042500D01*
G75*
G02*
X173882500Y-91280000I-237500J0D01*
G01*
X173307500Y-91280000D01*
G75*
G02*
X173070000Y-91042500I0J237500D01*
G01*
G37*
%TD*%
%TO.C,R4*%
G36*
G01*
X173705000Y-77707500D02*
X173705000Y-77232500D01*
G75*
G02*
X173942500Y-76995000I237500J0D01*
G01*
X174517500Y-76995000D01*
G75*
G02*
X174755000Y-77232500I0J-237500D01*
G01*
X174755000Y-77707500D01*
G75*
G02*
X174517500Y-77945000I-237500J0D01*
G01*
X173942500Y-77945000D01*
G75*
G02*
X173705000Y-77707500I0J237500D01*
G01*
G37*
G36*
G01*
X171955000Y-77707500D02*
X171955000Y-77232500D01*
G75*
G02*
X172192500Y-76995000I237500J0D01*
G01*
X172767500Y-76995000D01*
G75*
G02*
X173005000Y-77232500I0J-237500D01*
G01*
X173005000Y-77707500D01*
G75*
G02*
X172767500Y-77945000I-237500J0D01*
G01*
X172192500Y-77945000D01*
G75*
G02*
X171955000Y-77707500I0J237500D01*
G01*
G37*
%TD*%
%TO.C,R5*%
G36*
G01*
X158987500Y-141015000D02*
X158512500Y-141015000D01*
G75*
G02*
X158275000Y-140777500I0J237500D01*
G01*
X158275000Y-140202500D01*
G75*
G02*
X158512500Y-139965000I237500J0D01*
G01*
X158987500Y-139965000D01*
G75*
G02*
X159225000Y-140202500I0J-237500D01*
G01*
X159225000Y-140777500D01*
G75*
G02*
X158987500Y-141015000I-237500J0D01*
G01*
G37*
G36*
G01*
X158987500Y-142765000D02*
X158512500Y-142765000D01*
G75*
G02*
X158275000Y-142527500I0J237500D01*
G01*
X158275000Y-141952500D01*
G75*
G02*
X158512500Y-141715000I237500J0D01*
G01*
X158987500Y-141715000D01*
G75*
G02*
X159225000Y-141952500I0J-237500D01*
G01*
X159225000Y-142527500D01*
G75*
G02*
X158987500Y-142765000I-237500J0D01*
G01*
G37*
%TD*%
%TO.C,R6*%
G36*
G01*
X145017500Y-142765000D02*
X144542500Y-142765000D01*
G75*
G02*
X144305000Y-142527500I0J237500D01*
G01*
X144305000Y-141952500D01*
G75*
G02*
X144542500Y-141715000I237500J0D01*
G01*
X145017500Y-141715000D01*
G75*
G02*
X145255000Y-141952500I0J-237500D01*
G01*
X145255000Y-142527500D01*
G75*
G02*
X145017500Y-142765000I-237500J0D01*
G01*
G37*
G36*
G01*
X145017500Y-141015000D02*
X144542500Y-141015000D01*
G75*
G02*
X144305000Y-140777500I0J237500D01*
G01*
X144305000Y-140202500D01*
G75*
G02*
X144542500Y-139965000I237500J0D01*
G01*
X145017500Y-139965000D01*
G75*
G02*
X145255000Y-140202500I0J-237500D01*
G01*
X145255000Y-140777500D01*
G75*
G02*
X145017500Y-141015000I-237500J0D01*
G01*
G37*
%TD*%
%TO.C,R7*%
G36*
G01*
X171320000Y-121522500D02*
X171320000Y-121047500D01*
G75*
G02*
X171557500Y-120810000I237500J0D01*
G01*
X172132500Y-120810000D01*
G75*
G02*
X172370000Y-121047500I0J-237500D01*
G01*
X172370000Y-121522500D01*
G75*
G02*
X172132500Y-121760000I-237500J0D01*
G01*
X171557500Y-121760000D01*
G75*
G02*
X171320000Y-121522500I0J237500D01*
G01*
G37*
G36*
G01*
X173070000Y-121522500D02*
X173070000Y-121047500D01*
G75*
G02*
X173307500Y-120810000I237500J0D01*
G01*
X173882500Y-120810000D01*
G75*
G02*
X174120000Y-121047500I0J-237500D01*
G01*
X174120000Y-121522500D01*
G75*
G02*
X173882500Y-121760000I-237500J0D01*
G01*
X173307500Y-121760000D01*
G75*
G02*
X173070000Y-121522500I0J237500D01*
G01*
G37*
%TD*%
%TO.C,R8*%
G36*
G01*
X154542500Y-148635000D02*
X154067500Y-148635000D01*
G75*
G02*
X153830000Y-148397500I0J237500D01*
G01*
X153830000Y-147822500D01*
G75*
G02*
X154067500Y-147585000I237500J0D01*
G01*
X154542500Y-147585000D01*
G75*
G02*
X154780000Y-147822500I0J-237500D01*
G01*
X154780000Y-148397500D01*
G75*
G02*
X154542500Y-148635000I-237500J0D01*
G01*
G37*
G36*
G01*
X154542500Y-150385000D02*
X154067500Y-150385000D01*
G75*
G02*
X153830000Y-150147500I0J237500D01*
G01*
X153830000Y-149572500D01*
G75*
G02*
X154067500Y-149335000I237500J0D01*
G01*
X154542500Y-149335000D01*
G75*
G02*
X154780000Y-149572500I0J-237500D01*
G01*
X154780000Y-150147500D01*
G75*
G02*
X154542500Y-150385000I-237500J0D01*
G01*
G37*
%TD*%
%TO.C,R9*%
G36*
G01*
X171955000Y-108187500D02*
X171955000Y-107712500D01*
G75*
G02*
X172192500Y-107475000I237500J0D01*
G01*
X172767500Y-107475000D01*
G75*
G02*
X173005000Y-107712500I0J-237500D01*
G01*
X173005000Y-108187500D01*
G75*
G02*
X172767500Y-108425000I-237500J0D01*
G01*
X172192500Y-108425000D01*
G75*
G02*
X171955000Y-108187500I0J237500D01*
G01*
G37*
G36*
G01*
X173705000Y-108187500D02*
X173705000Y-107712500D01*
G75*
G02*
X173942500Y-107475000I237500J0D01*
G01*
X174517500Y-107475000D01*
G75*
G02*
X174755000Y-107712500I0J-237500D01*
G01*
X174755000Y-108187500D01*
G75*
G02*
X174517500Y-108425000I-237500J0D01*
G01*
X173942500Y-108425000D01*
G75*
G02*
X173705000Y-108187500I0J237500D01*
G01*
G37*
%TD*%
%TO.C,R10*%
G36*
G01*
X156447500Y-150385000D02*
X155972500Y-150385000D01*
G75*
G02*
X155735000Y-150147500I0J237500D01*
G01*
X155735000Y-149572500D01*
G75*
G02*
X155972500Y-149335000I237500J0D01*
G01*
X156447500Y-149335000D01*
G75*
G02*
X156685000Y-149572500I0J-237500D01*
G01*
X156685000Y-150147500D01*
G75*
G02*
X156447500Y-150385000I-237500J0D01*
G01*
G37*
G36*
G01*
X156447500Y-148635000D02*
X155972500Y-148635000D01*
G75*
G02*
X155735000Y-148397500I0J237500D01*
G01*
X155735000Y-147822500D01*
G75*
G02*
X155972500Y-147585000I237500J0D01*
G01*
X156447500Y-147585000D01*
G75*
G02*
X156685000Y-147822500I0J-237500D01*
G01*
X156685000Y-148397500D01*
G75*
G02*
X156447500Y-148635000I-237500J0D01*
G01*
G37*
%TD*%
%TO.C,R11*%
G36*
G01*
X158352500Y-148635000D02*
X157877500Y-148635000D01*
G75*
G02*
X157640000Y-148397500I0J237500D01*
G01*
X157640000Y-147822500D01*
G75*
G02*
X157877500Y-147585000I237500J0D01*
G01*
X158352500Y-147585000D01*
G75*
G02*
X158590000Y-147822500I0J-237500D01*
G01*
X158590000Y-148397500D01*
G75*
G02*
X158352500Y-148635000I-237500J0D01*
G01*
G37*
G36*
G01*
X158352500Y-150385000D02*
X157877500Y-150385000D01*
G75*
G02*
X157640000Y-150147500I0J237500D01*
G01*
X157640000Y-149572500D01*
G75*
G02*
X157877500Y-149335000I237500J0D01*
G01*
X158352500Y-149335000D01*
G75*
G02*
X158590000Y-149572500I0J-237500D01*
G01*
X158590000Y-150147500D01*
G75*
G02*
X158352500Y-150385000I-237500J0D01*
G01*
G37*
%TD*%
%TO.C,R12*%
G36*
G01*
X160257500Y-150385000D02*
X159782500Y-150385000D01*
G75*
G02*
X159545000Y-150147500I0J237500D01*
G01*
X159545000Y-149572500D01*
G75*
G02*
X159782500Y-149335000I237500J0D01*
G01*
X160257500Y-149335000D01*
G75*
G02*
X160495000Y-149572500I0J-237500D01*
G01*
X160495000Y-150147500D01*
G75*
G02*
X160257500Y-150385000I-237500J0D01*
G01*
G37*
G36*
G01*
X160257500Y-148635000D02*
X159782500Y-148635000D01*
G75*
G02*
X159545000Y-148397500I0J237500D01*
G01*
X159545000Y-147822500D01*
G75*
G02*
X159782500Y-147585000I237500J0D01*
G01*
X160257500Y-147585000D01*
G75*
G02*
X160495000Y-147822500I0J-237500D01*
G01*
X160495000Y-148397500D01*
G75*
G02*
X160257500Y-148635000I-237500J0D01*
G01*
G37*
%TD*%
%TO.C,R13*%
G36*
G01*
X162162500Y-148635000D02*
X161687500Y-148635000D01*
G75*
G02*
X161450000Y-148397500I0J237500D01*
G01*
X161450000Y-147822500D01*
G75*
G02*
X161687500Y-147585000I237500J0D01*
G01*
X162162500Y-147585000D01*
G75*
G02*
X162400000Y-147822500I0J-237500D01*
G01*
X162400000Y-148397500D01*
G75*
G02*
X162162500Y-148635000I-237500J0D01*
G01*
G37*
G36*
G01*
X162162500Y-150385000D02*
X161687500Y-150385000D01*
G75*
G02*
X161450000Y-150147500I0J237500D01*
G01*
X161450000Y-149572500D01*
G75*
G02*
X161687500Y-149335000I237500J0D01*
G01*
X162162500Y-149335000D01*
G75*
G02*
X162400000Y-149572500I0J-237500D01*
G01*
X162400000Y-150147500D01*
G75*
G02*
X162162500Y-150385000I-237500J0D01*
G01*
G37*
%TD*%
%TO.C,R14*%
G36*
G01*
X164067500Y-150385000D02*
X163592500Y-150385000D01*
G75*
G02*
X163355000Y-150147500I0J237500D01*
G01*
X163355000Y-149572500D01*
G75*
G02*
X163592500Y-149335000I237500J0D01*
G01*
X164067500Y-149335000D01*
G75*
G02*
X164305000Y-149572500I0J-237500D01*
G01*
X164305000Y-150147500D01*
G75*
G02*
X164067500Y-150385000I-237500J0D01*
G01*
G37*
G36*
G01*
X164067500Y-148635000D02*
X163592500Y-148635000D01*
G75*
G02*
X163355000Y-148397500I0J237500D01*
G01*
X163355000Y-147822500D01*
G75*
G02*
X163592500Y-147585000I237500J0D01*
G01*
X164067500Y-147585000D01*
G75*
G02*
X164305000Y-147822500I0J-237500D01*
G01*
X164305000Y-148397500D01*
G75*
G02*
X164067500Y-148635000I-237500J0D01*
G01*
G37*
%TD*%
%TO.C,R15*%
G36*
G01*
X165972500Y-148635000D02*
X165497500Y-148635000D01*
G75*
G02*
X165260000Y-148397500I0J237500D01*
G01*
X165260000Y-147822500D01*
G75*
G02*
X165497500Y-147585000I237500J0D01*
G01*
X165972500Y-147585000D01*
G75*
G02*
X166210000Y-147822500I0J-237500D01*
G01*
X166210000Y-148397500D01*
G75*
G02*
X165972500Y-148635000I-237500J0D01*
G01*
G37*
G36*
G01*
X165972500Y-150385000D02*
X165497500Y-150385000D01*
G75*
G02*
X165260000Y-150147500I0J237500D01*
G01*
X165260000Y-149572500D01*
G75*
G02*
X165497500Y-149335000I237500J0D01*
G01*
X165972500Y-149335000D01*
G75*
G02*
X166210000Y-149572500I0J-237500D01*
G01*
X166210000Y-150147500D01*
G75*
G02*
X165972500Y-150385000I-237500J0D01*
G01*
G37*
%TD*%
%TO.C,U1*%
G36*
G01*
X180300000Y-130660000D02*
X180300000Y-130960000D01*
G75*
G02*
X180150000Y-131110000I-150000J0D01*
G01*
X178400000Y-131110000D01*
G75*
G02*
X178250000Y-130960000I0J150000D01*
G01*
X178250000Y-130660000D01*
G75*
G02*
X178400000Y-130510000I150000J0D01*
G01*
X180150000Y-130510000D01*
G75*
G02*
X180300000Y-130660000I0J-150000D01*
G01*
G37*
G36*
G01*
X180300000Y-131930000D02*
X180300000Y-132230000D01*
G75*
G02*
X180150000Y-132380000I-150000J0D01*
G01*
X178400000Y-132380000D01*
G75*
G02*
X178250000Y-132230000I0J150000D01*
G01*
X178250000Y-131930000D01*
G75*
G02*
X178400000Y-131780000I150000J0D01*
G01*
X180150000Y-131780000D01*
G75*
G02*
X180300000Y-131930000I0J-150000D01*
G01*
G37*
G36*
G01*
X180300000Y-133200000D02*
X180300000Y-133500000D01*
G75*
G02*
X180150000Y-133650000I-150000J0D01*
G01*
X178400000Y-133650000D01*
G75*
G02*
X178250000Y-133500000I0J150000D01*
G01*
X178250000Y-133200000D01*
G75*
G02*
X178400000Y-133050000I150000J0D01*
G01*
X180150000Y-133050000D01*
G75*
G02*
X180300000Y-133200000I0J-150000D01*
G01*
G37*
G36*
G01*
X180300000Y-134470000D02*
X180300000Y-134770000D01*
G75*
G02*
X180150000Y-134920000I-150000J0D01*
G01*
X178400000Y-134920000D01*
G75*
G02*
X178250000Y-134770000I0J150000D01*
G01*
X178250000Y-134470000D01*
G75*
G02*
X178400000Y-134320000I150000J0D01*
G01*
X180150000Y-134320000D01*
G75*
G02*
X180300000Y-134470000I0J-150000D01*
G01*
G37*
G36*
G01*
X180300000Y-135740000D02*
X180300000Y-136040000D01*
G75*
G02*
X180150000Y-136190000I-150000J0D01*
G01*
X178400000Y-136190000D01*
G75*
G02*
X178250000Y-136040000I0J150000D01*
G01*
X178250000Y-135740000D01*
G75*
G02*
X178400000Y-135590000I150000J0D01*
G01*
X180150000Y-135590000D01*
G75*
G02*
X180300000Y-135740000I0J-150000D01*
G01*
G37*
G36*
G01*
X180300000Y-137010000D02*
X180300000Y-137310000D01*
G75*
G02*
X180150000Y-137460000I-150000J0D01*
G01*
X178400000Y-137460000D01*
G75*
G02*
X178250000Y-137310000I0J150000D01*
G01*
X178250000Y-137010000D01*
G75*
G02*
X178400000Y-136860000I150000J0D01*
G01*
X180150000Y-136860000D01*
G75*
G02*
X180300000Y-137010000I0J-150000D01*
G01*
G37*
G36*
G01*
X180300000Y-138280000D02*
X180300000Y-138580000D01*
G75*
G02*
X180150000Y-138730000I-150000J0D01*
G01*
X178400000Y-138730000D01*
G75*
G02*
X178250000Y-138580000I0J150000D01*
G01*
X178250000Y-138280000D01*
G75*
G02*
X178400000Y-138130000I150000J0D01*
G01*
X180150000Y-138130000D01*
G75*
G02*
X180300000Y-138280000I0J-150000D01*
G01*
G37*
G36*
G01*
X180300000Y-139550000D02*
X180300000Y-139850000D01*
G75*
G02*
X180150000Y-140000000I-150000J0D01*
G01*
X178400000Y-140000000D01*
G75*
G02*
X178250000Y-139850000I0J150000D01*
G01*
X178250000Y-139550000D01*
G75*
G02*
X178400000Y-139400000I150000J0D01*
G01*
X180150000Y-139400000D01*
G75*
G02*
X180300000Y-139550000I0J-150000D01*
G01*
G37*
G36*
G01*
X180300000Y-140820000D02*
X180300000Y-141120000D01*
G75*
G02*
X180150000Y-141270000I-150000J0D01*
G01*
X178400000Y-141270000D01*
G75*
G02*
X178250000Y-141120000I0J150000D01*
G01*
X178250000Y-140820000D01*
G75*
G02*
X178400000Y-140670000I150000J0D01*
G01*
X180150000Y-140670000D01*
G75*
G02*
X180300000Y-140820000I0J-150000D01*
G01*
G37*
G36*
G01*
X180300000Y-142090000D02*
X180300000Y-142390000D01*
G75*
G02*
X180150000Y-142540000I-150000J0D01*
G01*
X178400000Y-142540000D01*
G75*
G02*
X178250000Y-142390000I0J150000D01*
G01*
X178250000Y-142090000D01*
G75*
G02*
X178400000Y-141940000I150000J0D01*
G01*
X180150000Y-141940000D01*
G75*
G02*
X180300000Y-142090000I0J-150000D01*
G01*
G37*
G36*
G01*
X180300000Y-143360000D02*
X180300000Y-143660000D01*
G75*
G02*
X180150000Y-143810000I-150000J0D01*
G01*
X178400000Y-143810000D01*
G75*
G02*
X178250000Y-143660000I0J150000D01*
G01*
X178250000Y-143360000D01*
G75*
G02*
X178400000Y-143210000I150000J0D01*
G01*
X180150000Y-143210000D01*
G75*
G02*
X180300000Y-143360000I0J-150000D01*
G01*
G37*
G36*
G01*
X180300000Y-144630000D02*
X180300000Y-144930000D01*
G75*
G02*
X180150000Y-145080000I-150000J0D01*
G01*
X178400000Y-145080000D01*
G75*
G02*
X178250000Y-144930000I0J150000D01*
G01*
X178250000Y-144630000D01*
G75*
G02*
X178400000Y-144480000I150000J0D01*
G01*
X180150000Y-144480000D01*
G75*
G02*
X180300000Y-144630000I0J-150000D01*
G01*
G37*
G36*
G01*
X180300000Y-145900000D02*
X180300000Y-146200000D01*
G75*
G02*
X180150000Y-146350000I-150000J0D01*
G01*
X178400000Y-146350000D01*
G75*
G02*
X178250000Y-146200000I0J150000D01*
G01*
X178250000Y-145900000D01*
G75*
G02*
X178400000Y-145750000I150000J0D01*
G01*
X180150000Y-145750000D01*
G75*
G02*
X180300000Y-145900000I0J-150000D01*
G01*
G37*
G36*
G01*
X180300000Y-147170000D02*
X180300000Y-147470000D01*
G75*
G02*
X180150000Y-147620000I-150000J0D01*
G01*
X178400000Y-147620000D01*
G75*
G02*
X178250000Y-147470000I0J150000D01*
G01*
X178250000Y-147170000D01*
G75*
G02*
X178400000Y-147020000I150000J0D01*
G01*
X180150000Y-147020000D01*
G75*
G02*
X180300000Y-147170000I0J-150000D01*
G01*
G37*
G36*
G01*
X171000000Y-147170000D02*
X171000000Y-147470000D01*
G75*
G02*
X170850000Y-147620000I-150000J0D01*
G01*
X169100000Y-147620000D01*
G75*
G02*
X168950000Y-147470000I0J150000D01*
G01*
X168950000Y-147170000D01*
G75*
G02*
X169100000Y-147020000I150000J0D01*
G01*
X170850000Y-147020000D01*
G75*
G02*
X171000000Y-147170000I0J-150000D01*
G01*
G37*
G36*
G01*
X171000000Y-145900000D02*
X171000000Y-146200000D01*
G75*
G02*
X170850000Y-146350000I-150000J0D01*
G01*
X169100000Y-146350000D01*
G75*
G02*
X168950000Y-146200000I0J150000D01*
G01*
X168950000Y-145900000D01*
G75*
G02*
X169100000Y-145750000I150000J0D01*
G01*
X170850000Y-145750000D01*
G75*
G02*
X171000000Y-145900000I0J-150000D01*
G01*
G37*
G36*
G01*
X171000000Y-144630000D02*
X171000000Y-144930000D01*
G75*
G02*
X170850000Y-145080000I-150000J0D01*
G01*
X169100000Y-145080000D01*
G75*
G02*
X168950000Y-144930000I0J150000D01*
G01*
X168950000Y-144630000D01*
G75*
G02*
X169100000Y-144480000I150000J0D01*
G01*
X170850000Y-144480000D01*
G75*
G02*
X171000000Y-144630000I0J-150000D01*
G01*
G37*
G36*
G01*
X171000000Y-143360000D02*
X171000000Y-143660000D01*
G75*
G02*
X170850000Y-143810000I-150000J0D01*
G01*
X169100000Y-143810000D01*
G75*
G02*
X168950000Y-143660000I0J150000D01*
G01*
X168950000Y-143360000D01*
G75*
G02*
X169100000Y-143210000I150000J0D01*
G01*
X170850000Y-143210000D01*
G75*
G02*
X171000000Y-143360000I0J-150000D01*
G01*
G37*
G36*
G01*
X171000000Y-142090000D02*
X171000000Y-142390000D01*
G75*
G02*
X170850000Y-142540000I-150000J0D01*
G01*
X169100000Y-142540000D01*
G75*
G02*
X168950000Y-142390000I0J150000D01*
G01*
X168950000Y-142090000D01*
G75*
G02*
X169100000Y-141940000I150000J0D01*
G01*
X170850000Y-141940000D01*
G75*
G02*
X171000000Y-142090000I0J-150000D01*
G01*
G37*
G36*
G01*
X171000000Y-140820000D02*
X171000000Y-141120000D01*
G75*
G02*
X170850000Y-141270000I-150000J0D01*
G01*
X169100000Y-141270000D01*
G75*
G02*
X168950000Y-141120000I0J150000D01*
G01*
X168950000Y-140820000D01*
G75*
G02*
X169100000Y-140670000I150000J0D01*
G01*
X170850000Y-140670000D01*
G75*
G02*
X171000000Y-140820000I0J-150000D01*
G01*
G37*
G36*
G01*
X171000000Y-139550000D02*
X171000000Y-139850000D01*
G75*
G02*
X170850000Y-140000000I-150000J0D01*
G01*
X169100000Y-140000000D01*
G75*
G02*
X168950000Y-139850000I0J150000D01*
G01*
X168950000Y-139550000D01*
G75*
G02*
X169100000Y-139400000I150000J0D01*
G01*
X170850000Y-139400000D01*
G75*
G02*
X171000000Y-139550000I0J-150000D01*
G01*
G37*
G36*
G01*
X171000000Y-138280000D02*
X171000000Y-138580000D01*
G75*
G02*
X170850000Y-138730000I-150000J0D01*
G01*
X169100000Y-138730000D01*
G75*
G02*
X168950000Y-138580000I0J150000D01*
G01*
X168950000Y-138280000D01*
G75*
G02*
X169100000Y-138130000I150000J0D01*
G01*
X170850000Y-138130000D01*
G75*
G02*
X171000000Y-138280000I0J-150000D01*
G01*
G37*
G36*
G01*
X171000000Y-137010000D02*
X171000000Y-137310000D01*
G75*
G02*
X170850000Y-137460000I-150000J0D01*
G01*
X169100000Y-137460000D01*
G75*
G02*
X168950000Y-137310000I0J150000D01*
G01*
X168950000Y-137010000D01*
G75*
G02*
X169100000Y-136860000I150000J0D01*
G01*
X170850000Y-136860000D01*
G75*
G02*
X171000000Y-137010000I0J-150000D01*
G01*
G37*
G36*
G01*
X171000000Y-135740000D02*
X171000000Y-136040000D01*
G75*
G02*
X170850000Y-136190000I-150000J0D01*
G01*
X169100000Y-136190000D01*
G75*
G02*
X168950000Y-136040000I0J150000D01*
G01*
X168950000Y-135740000D01*
G75*
G02*
X169100000Y-135590000I150000J0D01*
G01*
X170850000Y-135590000D01*
G75*
G02*
X171000000Y-135740000I0J-150000D01*
G01*
G37*
G36*
G01*
X171000000Y-134470000D02*
X171000000Y-134770000D01*
G75*
G02*
X170850000Y-134920000I-150000J0D01*
G01*
X169100000Y-134920000D01*
G75*
G02*
X168950000Y-134770000I0J150000D01*
G01*
X168950000Y-134470000D01*
G75*
G02*
X169100000Y-134320000I150000J0D01*
G01*
X170850000Y-134320000D01*
G75*
G02*
X171000000Y-134470000I0J-150000D01*
G01*
G37*
G36*
G01*
X171000000Y-133200000D02*
X171000000Y-133500000D01*
G75*
G02*
X170850000Y-133650000I-150000J0D01*
G01*
X169100000Y-133650000D01*
G75*
G02*
X168950000Y-133500000I0J150000D01*
G01*
X168950000Y-133200000D01*
G75*
G02*
X169100000Y-133050000I150000J0D01*
G01*
X170850000Y-133050000D01*
G75*
G02*
X171000000Y-133200000I0J-150000D01*
G01*
G37*
G36*
G01*
X171000000Y-131930000D02*
X171000000Y-132230000D01*
G75*
G02*
X170850000Y-132380000I-150000J0D01*
G01*
X169100000Y-132380000D01*
G75*
G02*
X168950000Y-132230000I0J150000D01*
G01*
X168950000Y-131930000D01*
G75*
G02*
X169100000Y-131780000I150000J0D01*
G01*
X170850000Y-131780000D01*
G75*
G02*
X171000000Y-131930000I0J-150000D01*
G01*
G37*
G36*
G01*
X171000000Y-130660000D02*
X171000000Y-130960000D01*
G75*
G02*
X170850000Y-131110000I-150000J0D01*
G01*
X169100000Y-131110000D01*
G75*
G02*
X168950000Y-130960000I0J150000D01*
G01*
X168950000Y-130660000D01*
G75*
G02*
X169100000Y-130510000I150000J0D01*
G01*
X170850000Y-130510000D01*
G75*
G02*
X171000000Y-130660000I0J-150000D01*
G01*
G37*
%TD*%
M02*
