%TF.GenerationSoftware,KiCad,Pcbnew,(5.1.9)-1*%
%TF.CreationDate,2021-06-10T16:35:11+02:00*%
%TF.ProjectId,08_Main_Gauche,30385f4d-6169-46e5-9f47-61756368652e,rev?*%
%TF.SameCoordinates,Original*%
%TF.FileFunction,Soldermask,Top*%
%TF.FilePolarity,Negative*%
%FSLAX46Y46*%
G04 Gerber Fmt 4.6, Leading zero omitted, Abs format (unit mm)*
G04 Created by KiCad (PCBNEW (5.1.9)-1) date 2021-06-10 16:35:11*
%MOMM*%
%LPD*%
G01*
G04 APERTURE LIST*
%TA.AperFunction,Profile*%
%ADD10C,0.150000*%
%TD*%
%ADD11C,2.300000*%
%ADD12C,4.100000*%
%ADD13C,1.800000*%
%ADD14C,0.900000*%
%ADD15C,6.500000*%
%ADD16O,2.050000X1.800000*%
%ADD17C,1.624000*%
G04 APERTURE END LIST*
D10*
X185000000Y-15000000D02*
G75*
G02*
X190000000Y-20000000I0J-5000000D01*
G01*
X190000000Y-140000000D02*
G75*
G02*
X185000000Y-145000000I-5000000J0D01*
G01*
X45000000Y-145000000D02*
G75*
G02*
X40000000Y-140000000I0J5000000D01*
G01*
X40000000Y-20000000D02*
G75*
G02*
X45000000Y-15000000I5000000J0D01*
G01*
X40000000Y-140000000D02*
X40000000Y-20000000D01*
X185000000Y-145000000D02*
X45000000Y-145000000D01*
X190000000Y-20000000D02*
X190000000Y-140000000D01*
X45000000Y-15000000D02*
X185000000Y-15000000D01*
D11*
%TO.C,SW4*%
X65000000Y-85000000D03*
X58650000Y-87540000D03*
D12*
X62460000Y-90080000D03*
D13*
X57380000Y-90080000D03*
X67540000Y-90080000D03*
%TD*%
D14*
%TO.C,H2*%
X186697056Y-138302944D03*
X185000000Y-137600000D03*
X183302944Y-138302944D03*
X182600000Y-140000000D03*
X183302944Y-141697056D03*
X185000000Y-142400000D03*
X186697056Y-141697056D03*
X187400000Y-140000000D03*
D15*
X185000000Y-140000000D03*
%TD*%
D14*
%TO.C,H1*%
X46697056Y-18302944D03*
X45000000Y-17600000D03*
X43302944Y-18302944D03*
X42600000Y-20000000D03*
X43302944Y-21697056D03*
X45000000Y-22400000D03*
X46697056Y-21697056D03*
X47400000Y-20000000D03*
D15*
X45000000Y-20000000D03*
%TD*%
D14*
%TO.C,H3*%
X186697056Y-18302944D03*
X185000000Y-17600000D03*
X183302944Y-18302944D03*
X182600000Y-20000000D03*
X183302944Y-21697056D03*
X185000000Y-22400000D03*
X186697056Y-21697056D03*
X187400000Y-20000000D03*
D15*
X185000000Y-20000000D03*
%TD*%
D14*
%TO.C,H4*%
X46697056Y-138302944D03*
X45000000Y-137600000D03*
X43302944Y-138302944D03*
X42600000Y-140000000D03*
X43302944Y-141697056D03*
X45000000Y-142400000D03*
X46697056Y-141697056D03*
X47400000Y-140000000D03*
D15*
X45000000Y-140000000D03*
%TD*%
D16*
%TO.C,J1*%
X105000000Y-127500000D03*
X105000000Y-125000000D03*
X105000000Y-122500000D03*
G36*
G01*
X104239705Y-119100000D02*
X105760295Y-119100000D01*
G75*
G02*
X106025000Y-119364705I0J-264705D01*
G01*
X106025000Y-120635295D01*
G75*
G02*
X105760295Y-120900000I-264705J0D01*
G01*
X104239705Y-120900000D01*
G75*
G02*
X103975000Y-120635295I0J264705D01*
G01*
X103975000Y-119364705D01*
G75*
G02*
X104239705Y-119100000I264705J0D01*
G01*
G37*
%TD*%
D13*
%TO.C,SW2*%
X67540000Y-50080000D03*
X57380000Y-50080000D03*
D12*
X62460000Y-50080000D03*
D11*
X58650000Y-47540000D03*
X65000000Y-45000000D03*
%TD*%
D13*
%TO.C,SW3*%
X67540000Y-70080000D03*
X57380000Y-70080000D03*
D12*
X62460000Y-70080000D03*
D11*
X58650000Y-67540000D03*
X65000000Y-65000000D03*
%TD*%
%TO.C,U1*%
G36*
G01*
X131015000Y-128450000D02*
X131365000Y-128450000D01*
G75*
G02*
X131540000Y-128625000I0J-175000D01*
G01*
X131540000Y-130425000D01*
G75*
G02*
X131365000Y-130600000I-175000J0D01*
G01*
X131015000Y-130600000D01*
G75*
G02*
X130840000Y-130425000I0J175000D01*
G01*
X130840000Y-128625000D01*
G75*
G02*
X131015000Y-128450000I175000J0D01*
G01*
G37*
G36*
G01*
X129745000Y-128450000D02*
X130095000Y-128450000D01*
G75*
G02*
X130270000Y-128625000I0J-175000D01*
G01*
X130270000Y-130425000D01*
G75*
G02*
X130095000Y-130600000I-175000J0D01*
G01*
X129745000Y-130600000D01*
G75*
G02*
X129570000Y-130425000I0J175000D01*
G01*
X129570000Y-128625000D01*
G75*
G02*
X129745000Y-128450000I175000J0D01*
G01*
G37*
G36*
G01*
X128475000Y-128450000D02*
X128825000Y-128450000D01*
G75*
G02*
X129000000Y-128625000I0J-175000D01*
G01*
X129000000Y-130425000D01*
G75*
G02*
X128825000Y-130600000I-175000J0D01*
G01*
X128475000Y-130600000D01*
G75*
G02*
X128300000Y-130425000I0J175000D01*
G01*
X128300000Y-128625000D01*
G75*
G02*
X128475000Y-128450000I175000J0D01*
G01*
G37*
G36*
G01*
X127205000Y-128450000D02*
X127555000Y-128450000D01*
G75*
G02*
X127730000Y-128625000I0J-175000D01*
G01*
X127730000Y-130425000D01*
G75*
G02*
X127555000Y-130600000I-175000J0D01*
G01*
X127205000Y-130600000D01*
G75*
G02*
X127030000Y-130425000I0J175000D01*
G01*
X127030000Y-128625000D01*
G75*
G02*
X127205000Y-128450000I175000J0D01*
G01*
G37*
G36*
G01*
X125935000Y-128450000D02*
X126285000Y-128450000D01*
G75*
G02*
X126460000Y-128625000I0J-175000D01*
G01*
X126460000Y-130425000D01*
G75*
G02*
X126285000Y-130600000I-175000J0D01*
G01*
X125935000Y-130600000D01*
G75*
G02*
X125760000Y-130425000I0J175000D01*
G01*
X125760000Y-128625000D01*
G75*
G02*
X125935000Y-128450000I175000J0D01*
G01*
G37*
G36*
G01*
X124665000Y-128450000D02*
X125015000Y-128450000D01*
G75*
G02*
X125190000Y-128625000I0J-175000D01*
G01*
X125190000Y-130425000D01*
G75*
G02*
X125015000Y-130600000I-175000J0D01*
G01*
X124665000Y-130600000D01*
G75*
G02*
X124490000Y-130425000I0J175000D01*
G01*
X124490000Y-128625000D01*
G75*
G02*
X124665000Y-128450000I175000J0D01*
G01*
G37*
G36*
G01*
X123395000Y-128450000D02*
X123745000Y-128450000D01*
G75*
G02*
X123920000Y-128625000I0J-175000D01*
G01*
X123920000Y-130425000D01*
G75*
G02*
X123745000Y-130600000I-175000J0D01*
G01*
X123395000Y-130600000D01*
G75*
G02*
X123220000Y-130425000I0J175000D01*
G01*
X123220000Y-128625000D01*
G75*
G02*
X123395000Y-128450000I175000J0D01*
G01*
G37*
G36*
G01*
X122125000Y-128450000D02*
X122475000Y-128450000D01*
G75*
G02*
X122650000Y-128625000I0J-175000D01*
G01*
X122650000Y-130425000D01*
G75*
G02*
X122475000Y-130600000I-175000J0D01*
G01*
X122125000Y-130600000D01*
G75*
G02*
X121950000Y-130425000I0J175000D01*
G01*
X121950000Y-128625000D01*
G75*
G02*
X122125000Y-128450000I175000J0D01*
G01*
G37*
G36*
G01*
X120855000Y-128450000D02*
X121205000Y-128450000D01*
G75*
G02*
X121380000Y-128625000I0J-175000D01*
G01*
X121380000Y-130425000D01*
G75*
G02*
X121205000Y-130600000I-175000J0D01*
G01*
X120855000Y-130600000D01*
G75*
G02*
X120680000Y-130425000I0J175000D01*
G01*
X120680000Y-128625000D01*
G75*
G02*
X120855000Y-128450000I175000J0D01*
G01*
G37*
G36*
G01*
X119585000Y-128450000D02*
X119935000Y-128450000D01*
G75*
G02*
X120110000Y-128625000I0J-175000D01*
G01*
X120110000Y-130425000D01*
G75*
G02*
X119935000Y-130600000I-175000J0D01*
G01*
X119585000Y-130600000D01*
G75*
G02*
X119410000Y-130425000I0J175000D01*
G01*
X119410000Y-128625000D01*
G75*
G02*
X119585000Y-128450000I175000J0D01*
G01*
G37*
G36*
G01*
X118315000Y-128450000D02*
X118665000Y-128450000D01*
G75*
G02*
X118840000Y-128625000I0J-175000D01*
G01*
X118840000Y-130425000D01*
G75*
G02*
X118665000Y-130600000I-175000J0D01*
G01*
X118315000Y-130600000D01*
G75*
G02*
X118140000Y-130425000I0J175000D01*
G01*
X118140000Y-128625000D01*
G75*
G02*
X118315000Y-128450000I175000J0D01*
G01*
G37*
G36*
G01*
X117045000Y-128450000D02*
X117395000Y-128450000D01*
G75*
G02*
X117570000Y-128625000I0J-175000D01*
G01*
X117570000Y-130425000D01*
G75*
G02*
X117395000Y-130600000I-175000J0D01*
G01*
X117045000Y-130600000D01*
G75*
G02*
X116870000Y-130425000I0J175000D01*
G01*
X116870000Y-128625000D01*
G75*
G02*
X117045000Y-128450000I175000J0D01*
G01*
G37*
G36*
G01*
X115775000Y-128450000D02*
X116125000Y-128450000D01*
G75*
G02*
X116300000Y-128625000I0J-175000D01*
G01*
X116300000Y-130425000D01*
G75*
G02*
X116125000Y-130600000I-175000J0D01*
G01*
X115775000Y-130600000D01*
G75*
G02*
X115600000Y-130425000I0J175000D01*
G01*
X115600000Y-128625000D01*
G75*
G02*
X115775000Y-128450000I175000J0D01*
G01*
G37*
G36*
G01*
X114505000Y-128450000D02*
X114855000Y-128450000D01*
G75*
G02*
X115030000Y-128625000I0J-175000D01*
G01*
X115030000Y-130425000D01*
G75*
G02*
X114855000Y-130600000I-175000J0D01*
G01*
X114505000Y-130600000D01*
G75*
G02*
X114330000Y-130425000I0J175000D01*
G01*
X114330000Y-128625000D01*
G75*
G02*
X114505000Y-128450000I175000J0D01*
G01*
G37*
G36*
G01*
X114505000Y-119150000D02*
X114855000Y-119150000D01*
G75*
G02*
X115030000Y-119325000I0J-175000D01*
G01*
X115030000Y-121125000D01*
G75*
G02*
X114855000Y-121300000I-175000J0D01*
G01*
X114505000Y-121300000D01*
G75*
G02*
X114330000Y-121125000I0J175000D01*
G01*
X114330000Y-119325000D01*
G75*
G02*
X114505000Y-119150000I175000J0D01*
G01*
G37*
G36*
G01*
X115775000Y-119150000D02*
X116125000Y-119150000D01*
G75*
G02*
X116300000Y-119325000I0J-175000D01*
G01*
X116300000Y-121125000D01*
G75*
G02*
X116125000Y-121300000I-175000J0D01*
G01*
X115775000Y-121300000D01*
G75*
G02*
X115600000Y-121125000I0J175000D01*
G01*
X115600000Y-119325000D01*
G75*
G02*
X115775000Y-119150000I175000J0D01*
G01*
G37*
G36*
G01*
X117045000Y-119150000D02*
X117395000Y-119150000D01*
G75*
G02*
X117570000Y-119325000I0J-175000D01*
G01*
X117570000Y-121125000D01*
G75*
G02*
X117395000Y-121300000I-175000J0D01*
G01*
X117045000Y-121300000D01*
G75*
G02*
X116870000Y-121125000I0J175000D01*
G01*
X116870000Y-119325000D01*
G75*
G02*
X117045000Y-119150000I175000J0D01*
G01*
G37*
G36*
G01*
X118315000Y-119150000D02*
X118665000Y-119150000D01*
G75*
G02*
X118840000Y-119325000I0J-175000D01*
G01*
X118840000Y-121125000D01*
G75*
G02*
X118665000Y-121300000I-175000J0D01*
G01*
X118315000Y-121300000D01*
G75*
G02*
X118140000Y-121125000I0J175000D01*
G01*
X118140000Y-119325000D01*
G75*
G02*
X118315000Y-119150000I175000J0D01*
G01*
G37*
G36*
G01*
X119585000Y-119150000D02*
X119935000Y-119150000D01*
G75*
G02*
X120110000Y-119325000I0J-175000D01*
G01*
X120110000Y-121125000D01*
G75*
G02*
X119935000Y-121300000I-175000J0D01*
G01*
X119585000Y-121300000D01*
G75*
G02*
X119410000Y-121125000I0J175000D01*
G01*
X119410000Y-119325000D01*
G75*
G02*
X119585000Y-119150000I175000J0D01*
G01*
G37*
G36*
G01*
X120855000Y-119150000D02*
X121205000Y-119150000D01*
G75*
G02*
X121380000Y-119325000I0J-175000D01*
G01*
X121380000Y-121125000D01*
G75*
G02*
X121205000Y-121300000I-175000J0D01*
G01*
X120855000Y-121300000D01*
G75*
G02*
X120680000Y-121125000I0J175000D01*
G01*
X120680000Y-119325000D01*
G75*
G02*
X120855000Y-119150000I175000J0D01*
G01*
G37*
G36*
G01*
X122125000Y-119150000D02*
X122475000Y-119150000D01*
G75*
G02*
X122650000Y-119325000I0J-175000D01*
G01*
X122650000Y-121125000D01*
G75*
G02*
X122475000Y-121300000I-175000J0D01*
G01*
X122125000Y-121300000D01*
G75*
G02*
X121950000Y-121125000I0J175000D01*
G01*
X121950000Y-119325000D01*
G75*
G02*
X122125000Y-119150000I175000J0D01*
G01*
G37*
G36*
G01*
X123395000Y-119150000D02*
X123745000Y-119150000D01*
G75*
G02*
X123920000Y-119325000I0J-175000D01*
G01*
X123920000Y-121125000D01*
G75*
G02*
X123745000Y-121300000I-175000J0D01*
G01*
X123395000Y-121300000D01*
G75*
G02*
X123220000Y-121125000I0J175000D01*
G01*
X123220000Y-119325000D01*
G75*
G02*
X123395000Y-119150000I175000J0D01*
G01*
G37*
G36*
G01*
X124665000Y-119150000D02*
X125015000Y-119150000D01*
G75*
G02*
X125190000Y-119325000I0J-175000D01*
G01*
X125190000Y-121125000D01*
G75*
G02*
X125015000Y-121300000I-175000J0D01*
G01*
X124665000Y-121300000D01*
G75*
G02*
X124490000Y-121125000I0J175000D01*
G01*
X124490000Y-119325000D01*
G75*
G02*
X124665000Y-119150000I175000J0D01*
G01*
G37*
G36*
G01*
X125935000Y-119150000D02*
X126285000Y-119150000D01*
G75*
G02*
X126460000Y-119325000I0J-175000D01*
G01*
X126460000Y-121125000D01*
G75*
G02*
X126285000Y-121300000I-175000J0D01*
G01*
X125935000Y-121300000D01*
G75*
G02*
X125760000Y-121125000I0J175000D01*
G01*
X125760000Y-119325000D01*
G75*
G02*
X125935000Y-119150000I175000J0D01*
G01*
G37*
G36*
G01*
X127205000Y-119150000D02*
X127555000Y-119150000D01*
G75*
G02*
X127730000Y-119325000I0J-175000D01*
G01*
X127730000Y-121125000D01*
G75*
G02*
X127555000Y-121300000I-175000J0D01*
G01*
X127205000Y-121300000D01*
G75*
G02*
X127030000Y-121125000I0J175000D01*
G01*
X127030000Y-119325000D01*
G75*
G02*
X127205000Y-119150000I175000J0D01*
G01*
G37*
G36*
G01*
X128475000Y-119150000D02*
X128825000Y-119150000D01*
G75*
G02*
X129000000Y-119325000I0J-175000D01*
G01*
X129000000Y-121125000D01*
G75*
G02*
X128825000Y-121300000I-175000J0D01*
G01*
X128475000Y-121300000D01*
G75*
G02*
X128300000Y-121125000I0J175000D01*
G01*
X128300000Y-119325000D01*
G75*
G02*
X128475000Y-119150000I175000J0D01*
G01*
G37*
G36*
G01*
X129745000Y-119150000D02*
X130095000Y-119150000D01*
G75*
G02*
X130270000Y-119325000I0J-175000D01*
G01*
X130270000Y-121125000D01*
G75*
G02*
X130095000Y-121300000I-175000J0D01*
G01*
X129745000Y-121300000D01*
G75*
G02*
X129570000Y-121125000I0J175000D01*
G01*
X129570000Y-119325000D01*
G75*
G02*
X129745000Y-119150000I175000J0D01*
G01*
G37*
G36*
G01*
X131015000Y-119150000D02*
X131365000Y-119150000D01*
G75*
G02*
X131540000Y-119325000I0J-175000D01*
G01*
X131540000Y-121125000D01*
G75*
G02*
X131365000Y-121300000I-175000J0D01*
G01*
X131015000Y-121300000D01*
G75*
G02*
X130840000Y-121125000I0J175000D01*
G01*
X130840000Y-119325000D01*
G75*
G02*
X131015000Y-119150000I175000J0D01*
G01*
G37*
%TD*%
%TO.C,D4*%
G36*
G01*
X53650000Y-88100000D02*
X53650000Y-86900000D01*
G75*
G02*
X53700000Y-86850000I50000J0D01*
G01*
X54600000Y-86850000D01*
G75*
G02*
X54650000Y-86900000I0J-50000D01*
G01*
X54650000Y-88100000D01*
G75*
G02*
X54600000Y-88150000I-50000J0D01*
G01*
X53700000Y-88150000D01*
G75*
G02*
X53650000Y-88100000I0J50000D01*
G01*
G37*
G36*
G01*
X50350000Y-88100000D02*
X50350000Y-86900000D01*
G75*
G02*
X50400000Y-86850000I50000J0D01*
G01*
X51300000Y-86850000D01*
G75*
G02*
X51350000Y-86900000I0J-50000D01*
G01*
X51350000Y-88100000D01*
G75*
G02*
X51300000Y-88150000I-50000J0D01*
G01*
X50400000Y-88150000D01*
G75*
G02*
X50350000Y-88100000I0J50000D01*
G01*
G37*
%TD*%
%TO.C,D20*%
G36*
G01*
X143650000Y-88100000D02*
X143650000Y-86900000D01*
G75*
G02*
X143700000Y-86850000I50000J0D01*
G01*
X144600000Y-86850000D01*
G75*
G02*
X144650000Y-86900000I0J-50000D01*
G01*
X144650000Y-88100000D01*
G75*
G02*
X144600000Y-88150000I-50000J0D01*
G01*
X143700000Y-88150000D01*
G75*
G02*
X143650000Y-88100000I0J50000D01*
G01*
G37*
G36*
G01*
X140350000Y-88100000D02*
X140350000Y-86900000D01*
G75*
G02*
X140400000Y-86850000I50000J0D01*
G01*
X141300000Y-86850000D01*
G75*
G02*
X141350000Y-86900000I0J-50000D01*
G01*
X141350000Y-88100000D01*
G75*
G02*
X141300000Y-88150000I-50000J0D01*
G01*
X140400000Y-88150000D01*
G75*
G02*
X140350000Y-88100000I0J50000D01*
G01*
G37*
%TD*%
%TO.C,D8*%
G36*
G01*
X78650000Y-88100000D02*
X78650000Y-86900000D01*
G75*
G02*
X78700000Y-86850000I50000J0D01*
G01*
X79600000Y-86850000D01*
G75*
G02*
X79650000Y-86900000I0J-50000D01*
G01*
X79650000Y-88100000D01*
G75*
G02*
X79600000Y-88150000I-50000J0D01*
G01*
X78700000Y-88150000D01*
G75*
G02*
X78650000Y-88100000I0J50000D01*
G01*
G37*
G36*
G01*
X75350000Y-88100000D02*
X75350000Y-86900000D01*
G75*
G02*
X75400000Y-86850000I50000J0D01*
G01*
X76300000Y-86850000D01*
G75*
G02*
X76350000Y-86900000I0J-50000D01*
G01*
X76350000Y-88100000D01*
G75*
G02*
X76300000Y-88150000I-50000J0D01*
G01*
X75400000Y-88150000D01*
G75*
G02*
X75350000Y-88100000I0J50000D01*
G01*
G37*
%TD*%
%TO.C,D12*%
G36*
G01*
X98650000Y-88100000D02*
X98650000Y-86900000D01*
G75*
G02*
X98700000Y-86850000I50000J0D01*
G01*
X99600000Y-86850000D01*
G75*
G02*
X99650000Y-86900000I0J-50000D01*
G01*
X99650000Y-88100000D01*
G75*
G02*
X99600000Y-88150000I-50000J0D01*
G01*
X98700000Y-88150000D01*
G75*
G02*
X98650000Y-88100000I0J50000D01*
G01*
G37*
G36*
G01*
X95350000Y-88100000D02*
X95350000Y-86900000D01*
G75*
G02*
X95400000Y-86850000I50000J0D01*
G01*
X96300000Y-86850000D01*
G75*
G02*
X96350000Y-86900000I0J-50000D01*
G01*
X96350000Y-88100000D01*
G75*
G02*
X96300000Y-88150000I-50000J0D01*
G01*
X95400000Y-88150000D01*
G75*
G02*
X95350000Y-88100000I0J50000D01*
G01*
G37*
%TD*%
%TO.C,D16*%
G36*
G01*
X118650000Y-88100000D02*
X118650000Y-86900000D01*
G75*
G02*
X118700000Y-86850000I50000J0D01*
G01*
X119600000Y-86850000D01*
G75*
G02*
X119650000Y-86900000I0J-50000D01*
G01*
X119650000Y-88100000D01*
G75*
G02*
X119600000Y-88150000I-50000J0D01*
G01*
X118700000Y-88150000D01*
G75*
G02*
X118650000Y-88100000I0J50000D01*
G01*
G37*
G36*
G01*
X115350000Y-88100000D02*
X115350000Y-86900000D01*
G75*
G02*
X115400000Y-86850000I50000J0D01*
G01*
X116300000Y-86850000D01*
G75*
G02*
X116350000Y-86900000I0J-50000D01*
G01*
X116350000Y-88100000D01*
G75*
G02*
X116300000Y-88150000I-50000J0D01*
G01*
X115400000Y-88150000D01*
G75*
G02*
X115350000Y-88100000I0J50000D01*
G01*
G37*
%TD*%
%TO.C,D2*%
G36*
G01*
X53650000Y-48100000D02*
X53650000Y-46900000D01*
G75*
G02*
X53700000Y-46850000I50000J0D01*
G01*
X54600000Y-46850000D01*
G75*
G02*
X54650000Y-46900000I0J-50000D01*
G01*
X54650000Y-48100000D01*
G75*
G02*
X54600000Y-48150000I-50000J0D01*
G01*
X53700000Y-48150000D01*
G75*
G02*
X53650000Y-48100000I0J50000D01*
G01*
G37*
G36*
G01*
X50350000Y-48100000D02*
X50350000Y-46900000D01*
G75*
G02*
X50400000Y-46850000I50000J0D01*
G01*
X51300000Y-46850000D01*
G75*
G02*
X51350000Y-46900000I0J-50000D01*
G01*
X51350000Y-48100000D01*
G75*
G02*
X51300000Y-48150000I-50000J0D01*
G01*
X50400000Y-48150000D01*
G75*
G02*
X50350000Y-48100000I0J50000D01*
G01*
G37*
%TD*%
%TO.C,D18*%
G36*
G01*
X143650000Y-48100000D02*
X143650000Y-46900000D01*
G75*
G02*
X143700000Y-46850000I50000J0D01*
G01*
X144600000Y-46850000D01*
G75*
G02*
X144650000Y-46900000I0J-50000D01*
G01*
X144650000Y-48100000D01*
G75*
G02*
X144600000Y-48150000I-50000J0D01*
G01*
X143700000Y-48150000D01*
G75*
G02*
X143650000Y-48100000I0J50000D01*
G01*
G37*
G36*
G01*
X140350000Y-48100000D02*
X140350000Y-46900000D01*
G75*
G02*
X140400000Y-46850000I50000J0D01*
G01*
X141300000Y-46850000D01*
G75*
G02*
X141350000Y-46900000I0J-50000D01*
G01*
X141350000Y-48100000D01*
G75*
G02*
X141300000Y-48150000I-50000J0D01*
G01*
X140400000Y-48150000D01*
G75*
G02*
X140350000Y-48100000I0J50000D01*
G01*
G37*
%TD*%
%TO.C,D6*%
G36*
G01*
X78650000Y-48100000D02*
X78650000Y-46900000D01*
G75*
G02*
X78700000Y-46850000I50000J0D01*
G01*
X79600000Y-46850000D01*
G75*
G02*
X79650000Y-46900000I0J-50000D01*
G01*
X79650000Y-48100000D01*
G75*
G02*
X79600000Y-48150000I-50000J0D01*
G01*
X78700000Y-48150000D01*
G75*
G02*
X78650000Y-48100000I0J50000D01*
G01*
G37*
G36*
G01*
X75350000Y-48100000D02*
X75350000Y-46900000D01*
G75*
G02*
X75400000Y-46850000I50000J0D01*
G01*
X76300000Y-46850000D01*
G75*
G02*
X76350000Y-46900000I0J-50000D01*
G01*
X76350000Y-48100000D01*
G75*
G02*
X76300000Y-48150000I-50000J0D01*
G01*
X75400000Y-48150000D01*
G75*
G02*
X75350000Y-48100000I0J50000D01*
G01*
G37*
%TD*%
%TO.C,D10*%
G36*
G01*
X98650000Y-48100000D02*
X98650000Y-46900000D01*
G75*
G02*
X98700000Y-46850000I50000J0D01*
G01*
X99600000Y-46850000D01*
G75*
G02*
X99650000Y-46900000I0J-50000D01*
G01*
X99650000Y-48100000D01*
G75*
G02*
X99600000Y-48150000I-50000J0D01*
G01*
X98700000Y-48150000D01*
G75*
G02*
X98650000Y-48100000I0J50000D01*
G01*
G37*
G36*
G01*
X95350000Y-48100000D02*
X95350000Y-46900000D01*
G75*
G02*
X95400000Y-46850000I50000J0D01*
G01*
X96300000Y-46850000D01*
G75*
G02*
X96350000Y-46900000I0J-50000D01*
G01*
X96350000Y-48100000D01*
G75*
G02*
X96300000Y-48150000I-50000J0D01*
G01*
X95400000Y-48150000D01*
G75*
G02*
X95350000Y-48100000I0J50000D01*
G01*
G37*
%TD*%
%TO.C,D14*%
G36*
G01*
X118650000Y-48100000D02*
X118650000Y-46900000D01*
G75*
G02*
X118700000Y-46850000I50000J0D01*
G01*
X119600000Y-46850000D01*
G75*
G02*
X119650000Y-46900000I0J-50000D01*
G01*
X119650000Y-48100000D01*
G75*
G02*
X119600000Y-48150000I-50000J0D01*
G01*
X118700000Y-48150000D01*
G75*
G02*
X118650000Y-48100000I0J50000D01*
G01*
G37*
G36*
G01*
X115350000Y-48100000D02*
X115350000Y-46900000D01*
G75*
G02*
X115400000Y-46850000I50000J0D01*
G01*
X116300000Y-46850000D01*
G75*
G02*
X116350000Y-46900000I0J-50000D01*
G01*
X116350000Y-48100000D01*
G75*
G02*
X116300000Y-48150000I-50000J0D01*
G01*
X115400000Y-48150000D01*
G75*
G02*
X115350000Y-48100000I0J50000D01*
G01*
G37*
%TD*%
%TO.C,D3*%
G36*
G01*
X53650000Y-68100000D02*
X53650000Y-66900000D01*
G75*
G02*
X53700000Y-66850000I50000J0D01*
G01*
X54600000Y-66850000D01*
G75*
G02*
X54650000Y-66900000I0J-50000D01*
G01*
X54650000Y-68100000D01*
G75*
G02*
X54600000Y-68150000I-50000J0D01*
G01*
X53700000Y-68150000D01*
G75*
G02*
X53650000Y-68100000I0J50000D01*
G01*
G37*
G36*
G01*
X50350000Y-68100000D02*
X50350000Y-66900000D01*
G75*
G02*
X50400000Y-66850000I50000J0D01*
G01*
X51300000Y-66850000D01*
G75*
G02*
X51350000Y-66900000I0J-50000D01*
G01*
X51350000Y-68100000D01*
G75*
G02*
X51300000Y-68150000I-50000J0D01*
G01*
X50400000Y-68150000D01*
G75*
G02*
X50350000Y-68100000I0J50000D01*
G01*
G37*
%TD*%
%TO.C,D19*%
G36*
G01*
X143650000Y-68100000D02*
X143650000Y-66900000D01*
G75*
G02*
X143700000Y-66850000I50000J0D01*
G01*
X144600000Y-66850000D01*
G75*
G02*
X144650000Y-66900000I0J-50000D01*
G01*
X144650000Y-68100000D01*
G75*
G02*
X144600000Y-68150000I-50000J0D01*
G01*
X143700000Y-68150000D01*
G75*
G02*
X143650000Y-68100000I0J50000D01*
G01*
G37*
G36*
G01*
X140350000Y-68100000D02*
X140350000Y-66900000D01*
G75*
G02*
X140400000Y-66850000I50000J0D01*
G01*
X141300000Y-66850000D01*
G75*
G02*
X141350000Y-66900000I0J-50000D01*
G01*
X141350000Y-68100000D01*
G75*
G02*
X141300000Y-68150000I-50000J0D01*
G01*
X140400000Y-68150000D01*
G75*
G02*
X140350000Y-68100000I0J50000D01*
G01*
G37*
%TD*%
%TO.C,D7*%
G36*
G01*
X78650000Y-68100000D02*
X78650000Y-66900000D01*
G75*
G02*
X78700000Y-66850000I50000J0D01*
G01*
X79600000Y-66850000D01*
G75*
G02*
X79650000Y-66900000I0J-50000D01*
G01*
X79650000Y-68100000D01*
G75*
G02*
X79600000Y-68150000I-50000J0D01*
G01*
X78700000Y-68150000D01*
G75*
G02*
X78650000Y-68100000I0J50000D01*
G01*
G37*
G36*
G01*
X75350000Y-68100000D02*
X75350000Y-66900000D01*
G75*
G02*
X75400000Y-66850000I50000J0D01*
G01*
X76300000Y-66850000D01*
G75*
G02*
X76350000Y-66900000I0J-50000D01*
G01*
X76350000Y-68100000D01*
G75*
G02*
X76300000Y-68150000I-50000J0D01*
G01*
X75400000Y-68150000D01*
G75*
G02*
X75350000Y-68100000I0J50000D01*
G01*
G37*
%TD*%
%TO.C,D11*%
G36*
G01*
X98650000Y-68100000D02*
X98650000Y-66900000D01*
G75*
G02*
X98700000Y-66850000I50000J0D01*
G01*
X99600000Y-66850000D01*
G75*
G02*
X99650000Y-66900000I0J-50000D01*
G01*
X99650000Y-68100000D01*
G75*
G02*
X99600000Y-68150000I-50000J0D01*
G01*
X98700000Y-68150000D01*
G75*
G02*
X98650000Y-68100000I0J50000D01*
G01*
G37*
G36*
G01*
X95350000Y-68100000D02*
X95350000Y-66900000D01*
G75*
G02*
X95400000Y-66850000I50000J0D01*
G01*
X96300000Y-66850000D01*
G75*
G02*
X96350000Y-66900000I0J-50000D01*
G01*
X96350000Y-68100000D01*
G75*
G02*
X96300000Y-68150000I-50000J0D01*
G01*
X95400000Y-68150000D01*
G75*
G02*
X95350000Y-68100000I0J50000D01*
G01*
G37*
%TD*%
%TO.C,D15*%
G36*
G01*
X118650000Y-68100000D02*
X118650000Y-66900000D01*
G75*
G02*
X118700000Y-66850000I50000J0D01*
G01*
X119600000Y-66850000D01*
G75*
G02*
X119650000Y-66900000I0J-50000D01*
G01*
X119650000Y-68100000D01*
G75*
G02*
X119600000Y-68150000I-50000J0D01*
G01*
X118700000Y-68150000D01*
G75*
G02*
X118650000Y-68100000I0J50000D01*
G01*
G37*
G36*
G01*
X115350000Y-68100000D02*
X115350000Y-66900000D01*
G75*
G02*
X115400000Y-66850000I50000J0D01*
G01*
X116300000Y-66850000D01*
G75*
G02*
X116350000Y-66900000I0J-50000D01*
G01*
X116350000Y-68100000D01*
G75*
G02*
X116300000Y-68150000I-50000J0D01*
G01*
X115400000Y-68150000D01*
G75*
G02*
X115350000Y-68100000I0J50000D01*
G01*
G37*
%TD*%
D13*
%TO.C,SW21*%
X157540000Y-90080000D03*
X147380000Y-90080000D03*
D12*
X152460000Y-90080000D03*
D11*
X148650000Y-87540000D03*
X155000000Y-85000000D03*
%TD*%
D13*
%TO.C,SW8*%
X92540000Y-90080000D03*
X82380000Y-90080000D03*
D12*
X87460000Y-90080000D03*
D11*
X83650000Y-87540000D03*
X90000000Y-85000000D03*
%TD*%
D13*
%TO.C,SW12*%
X112540000Y-90080000D03*
X102380000Y-90080000D03*
D12*
X107460000Y-90080000D03*
D11*
X103650000Y-87540000D03*
X110000000Y-85000000D03*
%TD*%
D13*
%TO.C,SW17*%
X132540000Y-90080000D03*
X122380000Y-90080000D03*
D12*
X127460000Y-90080000D03*
D11*
X123650000Y-87540000D03*
X130000000Y-85000000D03*
%TD*%
D13*
%TO.C,SW19*%
X157540000Y-50080000D03*
X147380000Y-50080000D03*
D12*
X152460000Y-50080000D03*
D11*
X148650000Y-47540000D03*
X155000000Y-45000000D03*
%TD*%
D13*
%TO.C,SW6*%
X92540000Y-50080000D03*
X82380000Y-50080000D03*
D12*
X87460000Y-50080000D03*
D11*
X83650000Y-47540000D03*
X90000000Y-45000000D03*
%TD*%
D13*
%TO.C,SW10*%
X112540000Y-50080000D03*
X102380000Y-50080000D03*
D12*
X107460000Y-50080000D03*
D11*
X103650000Y-47540000D03*
X110000000Y-45000000D03*
%TD*%
D13*
%TO.C,SW15*%
X132540000Y-50080000D03*
X122380000Y-50080000D03*
D12*
X127460000Y-50080000D03*
D11*
X123650000Y-47540000D03*
X130000000Y-45000000D03*
%TD*%
D13*
%TO.C,SW20*%
X157540000Y-70080000D03*
X147380000Y-70080000D03*
D12*
X152460000Y-70080000D03*
D11*
X148650000Y-67540000D03*
X155000000Y-65000000D03*
%TD*%
D13*
%TO.C,SW7*%
X92540000Y-70080000D03*
X82380000Y-70080000D03*
D12*
X87460000Y-70080000D03*
D11*
X83650000Y-67540000D03*
X90000000Y-65000000D03*
%TD*%
D13*
%TO.C,SW16*%
X132540000Y-70080000D03*
X122380000Y-70080000D03*
D12*
X127460000Y-70080000D03*
D11*
X123650000Y-67540000D03*
X130000000Y-65000000D03*
%TD*%
%TO.C,SW13*%
G36*
G01*
X169350000Y-126100000D02*
X169350000Y-124800000D01*
G75*
G02*
X169400000Y-124750000I50000J0D01*
G01*
X170800000Y-124750000D01*
G75*
G02*
X170850000Y-124800000I0J-50000D01*
G01*
X170850000Y-126100000D01*
G75*
G02*
X170800000Y-126150000I-50000J0D01*
G01*
X169400000Y-126150000D01*
G75*
G02*
X169350000Y-126100000I0J50000D01*
G01*
G37*
G36*
G01*
X159150000Y-126100000D02*
X159150000Y-124800000D01*
G75*
G02*
X159200000Y-124750000I50000J0D01*
G01*
X160600000Y-124750000D01*
G75*
G02*
X160650000Y-124800000I0J-50000D01*
G01*
X160650000Y-126100000D01*
G75*
G02*
X160600000Y-126150000I-50000J0D01*
G01*
X159200000Y-126150000D01*
G75*
G02*
X159150000Y-126100000I0J50000D01*
G01*
G37*
G36*
G01*
X169350000Y-122500000D02*
X169350000Y-121000000D01*
G75*
G02*
X169400000Y-120950000I50000J0D01*
G01*
X170800000Y-120950000D01*
G75*
G02*
X170850000Y-121000000I0J-50000D01*
G01*
X170850000Y-122500000D01*
G75*
G02*
X170800000Y-122550000I-50000J0D01*
G01*
X169400000Y-122550000D01*
G75*
G02*
X169350000Y-122500000I0J50000D01*
G01*
G37*
G36*
G01*
X169350000Y-129000000D02*
X169350000Y-127500000D01*
G75*
G02*
X169400000Y-127450000I50000J0D01*
G01*
X170800000Y-127450000D01*
G75*
G02*
X170850000Y-127500000I0J-50000D01*
G01*
X170850000Y-129000000D01*
G75*
G02*
X170800000Y-129050000I-50000J0D01*
G01*
X169400000Y-129050000D01*
G75*
G02*
X169350000Y-129000000I0J50000D01*
G01*
G37*
G36*
G01*
X159150000Y-129000000D02*
X159150000Y-127500000D01*
G75*
G02*
X159200000Y-127450000I50000J0D01*
G01*
X160600000Y-127450000D01*
G75*
G02*
X160650000Y-127500000I0J-50000D01*
G01*
X160650000Y-129000000D01*
G75*
G02*
X160600000Y-129050000I-50000J0D01*
G01*
X159200000Y-129050000D01*
G75*
G02*
X159150000Y-129000000I0J50000D01*
G01*
G37*
G36*
G01*
X159150000Y-122500000D02*
X159150000Y-121000000D01*
G75*
G02*
X159200000Y-120950000I50000J0D01*
G01*
X160600000Y-120950000D01*
G75*
G02*
X160650000Y-121000000I0J-50000D01*
G01*
X160650000Y-122500000D01*
G75*
G02*
X160600000Y-122550000I-50000J0D01*
G01*
X159200000Y-122550000D01*
G75*
G02*
X159150000Y-122500000I0J50000D01*
G01*
G37*
%TD*%
%TO.C,C1*%
G36*
G01*
X121275000Y-118025000D02*
X120725000Y-118025000D01*
G75*
G02*
X120475000Y-117775000I0J250000D01*
G01*
X120475000Y-117275000D01*
G75*
G02*
X120725000Y-117025000I250000J0D01*
G01*
X121275000Y-117025000D01*
G75*
G02*
X121525000Y-117275000I0J-250000D01*
G01*
X121525000Y-117775000D01*
G75*
G02*
X121275000Y-118025000I-250000J0D01*
G01*
G37*
G36*
G01*
X121275000Y-116475000D02*
X120725000Y-116475000D01*
G75*
G02*
X120475000Y-116225000I0J250000D01*
G01*
X120475000Y-115725000D01*
G75*
G02*
X120725000Y-115475000I250000J0D01*
G01*
X121275000Y-115475000D01*
G75*
G02*
X121525000Y-115725000I0J-250000D01*
G01*
X121525000Y-116225000D01*
G75*
G02*
X121275000Y-116475000I-250000J0D01*
G01*
G37*
%TD*%
%TO.C,R7*%
G36*
G01*
X118800000Y-135675000D02*
X118200000Y-135675000D01*
G75*
G02*
X117975000Y-135450000I0J225000D01*
G01*
X117975000Y-135000000D01*
G75*
G02*
X118200000Y-134775000I225000J0D01*
G01*
X118800000Y-134775000D01*
G75*
G02*
X119025000Y-135000000I0J-225000D01*
G01*
X119025000Y-135450000D01*
G75*
G02*
X118800000Y-135675000I-225000J0D01*
G01*
G37*
G36*
G01*
X118800000Y-134025000D02*
X118200000Y-134025000D01*
G75*
G02*
X117975000Y-133800000I0J225000D01*
G01*
X117975000Y-133350000D01*
G75*
G02*
X118200000Y-133125000I225000J0D01*
G01*
X118800000Y-133125000D01*
G75*
G02*
X119025000Y-133350000I0J-225000D01*
G01*
X119025000Y-133800000D01*
G75*
G02*
X118800000Y-134025000I-225000J0D01*
G01*
G37*
%TD*%
%TO.C,R1*%
G36*
G01*
X105790000Y-141690000D02*
X105790000Y-141090000D01*
G75*
G02*
X106015000Y-140865000I225000J0D01*
G01*
X106465000Y-140865000D01*
G75*
G02*
X106690000Y-141090000I0J-225000D01*
G01*
X106690000Y-141690000D01*
G75*
G02*
X106465000Y-141915000I-225000J0D01*
G01*
X106015000Y-141915000D01*
G75*
G02*
X105790000Y-141690000I0J225000D01*
G01*
G37*
G36*
G01*
X104140000Y-141690000D02*
X104140000Y-141090000D01*
G75*
G02*
X104365000Y-140865000I225000J0D01*
G01*
X104815000Y-140865000D01*
G75*
G02*
X105040000Y-141090000I0J-225000D01*
G01*
X105040000Y-141690000D01*
G75*
G02*
X104815000Y-141915000I-225000J0D01*
G01*
X104365000Y-141915000D01*
G75*
G02*
X104140000Y-141690000I0J225000D01*
G01*
G37*
%TD*%
%TO.C,R2*%
G36*
G01*
X105790000Y-139785000D02*
X105790000Y-139185000D01*
G75*
G02*
X106015000Y-138960000I225000J0D01*
G01*
X106465000Y-138960000D01*
G75*
G02*
X106690000Y-139185000I0J-225000D01*
G01*
X106690000Y-139785000D01*
G75*
G02*
X106465000Y-140010000I-225000J0D01*
G01*
X106015000Y-140010000D01*
G75*
G02*
X105790000Y-139785000I0J225000D01*
G01*
G37*
G36*
G01*
X104140000Y-139785000D02*
X104140000Y-139185000D01*
G75*
G02*
X104365000Y-138960000I225000J0D01*
G01*
X104815000Y-138960000D01*
G75*
G02*
X105040000Y-139185000I0J-225000D01*
G01*
X105040000Y-139785000D01*
G75*
G02*
X104815000Y-140010000I-225000J0D01*
G01*
X104365000Y-140010000D01*
G75*
G02*
X104140000Y-139785000I0J225000D01*
G01*
G37*
%TD*%
%TO.C,R3*%
G36*
G01*
X104140000Y-137880000D02*
X104140000Y-137280000D01*
G75*
G02*
X104365000Y-137055000I225000J0D01*
G01*
X104815000Y-137055000D01*
G75*
G02*
X105040000Y-137280000I0J-225000D01*
G01*
X105040000Y-137880000D01*
G75*
G02*
X104815000Y-138105000I-225000J0D01*
G01*
X104365000Y-138105000D01*
G75*
G02*
X104140000Y-137880000I0J225000D01*
G01*
G37*
G36*
G01*
X105790000Y-137880000D02*
X105790000Y-137280000D01*
G75*
G02*
X106015000Y-137055000I225000J0D01*
G01*
X106465000Y-137055000D01*
G75*
G02*
X106690000Y-137280000I0J-225000D01*
G01*
X106690000Y-137880000D01*
G75*
G02*
X106465000Y-138105000I-225000J0D01*
G01*
X106015000Y-138105000D01*
G75*
G02*
X105790000Y-137880000I0J225000D01*
G01*
G37*
%TD*%
%TO.C,R4*%
G36*
G01*
X105790000Y-135975000D02*
X105790000Y-135375000D01*
G75*
G02*
X106015000Y-135150000I225000J0D01*
G01*
X106465000Y-135150000D01*
G75*
G02*
X106690000Y-135375000I0J-225000D01*
G01*
X106690000Y-135975000D01*
G75*
G02*
X106465000Y-136200000I-225000J0D01*
G01*
X106015000Y-136200000D01*
G75*
G02*
X105790000Y-135975000I0J225000D01*
G01*
G37*
G36*
G01*
X104140000Y-135975000D02*
X104140000Y-135375000D01*
G75*
G02*
X104365000Y-135150000I225000J0D01*
G01*
X104815000Y-135150000D01*
G75*
G02*
X105040000Y-135375000I0J-225000D01*
G01*
X105040000Y-135975000D01*
G75*
G02*
X104815000Y-136200000I-225000J0D01*
G01*
X104365000Y-136200000D01*
G75*
G02*
X104140000Y-135975000I0J225000D01*
G01*
G37*
%TD*%
%TO.C,R5*%
G36*
G01*
X105790000Y-134070000D02*
X105790000Y-133470000D01*
G75*
G02*
X106015000Y-133245000I225000J0D01*
G01*
X106465000Y-133245000D01*
G75*
G02*
X106690000Y-133470000I0J-225000D01*
G01*
X106690000Y-134070000D01*
G75*
G02*
X106465000Y-134295000I-225000J0D01*
G01*
X106015000Y-134295000D01*
G75*
G02*
X105790000Y-134070000I0J225000D01*
G01*
G37*
G36*
G01*
X104140000Y-134070000D02*
X104140000Y-133470000D01*
G75*
G02*
X104365000Y-133245000I225000J0D01*
G01*
X104815000Y-133245000D01*
G75*
G02*
X105040000Y-133470000I0J-225000D01*
G01*
X105040000Y-134070000D01*
G75*
G02*
X104815000Y-134295000I-225000J0D01*
G01*
X104365000Y-134295000D01*
G75*
G02*
X104140000Y-134070000I0J225000D01*
G01*
G37*
%TD*%
%TO.C,R6*%
G36*
G01*
X104140000Y-132165000D02*
X104140000Y-131565000D01*
G75*
G02*
X104365000Y-131340000I225000J0D01*
G01*
X104815000Y-131340000D01*
G75*
G02*
X105040000Y-131565000I0J-225000D01*
G01*
X105040000Y-132165000D01*
G75*
G02*
X104815000Y-132390000I-225000J0D01*
G01*
X104365000Y-132390000D01*
G75*
G02*
X104140000Y-132165000I0J225000D01*
G01*
G37*
G36*
G01*
X105790000Y-132165000D02*
X105790000Y-131565000D01*
G75*
G02*
X106015000Y-131340000I225000J0D01*
G01*
X106465000Y-131340000D01*
G75*
G02*
X106690000Y-131565000I0J-225000D01*
G01*
X106690000Y-132165000D01*
G75*
G02*
X106465000Y-132390000I-225000J0D01*
G01*
X106015000Y-132390000D01*
G75*
G02*
X105790000Y-132165000I0J225000D01*
G01*
G37*
%TD*%
%TO.C,D1*%
G36*
G01*
X50350000Y-23100000D02*
X50350000Y-21900000D01*
G75*
G02*
X50400000Y-21850000I50000J0D01*
G01*
X51300000Y-21850000D01*
G75*
G02*
X51350000Y-21900000I0J-50000D01*
G01*
X51350000Y-23100000D01*
G75*
G02*
X51300000Y-23150000I-50000J0D01*
G01*
X50400000Y-23150000D01*
G75*
G02*
X50350000Y-23100000I0J50000D01*
G01*
G37*
G36*
G01*
X53650000Y-23100000D02*
X53650000Y-21900000D01*
G75*
G02*
X53700000Y-21850000I50000J0D01*
G01*
X54600000Y-21850000D01*
G75*
G02*
X54650000Y-21900000I0J-50000D01*
G01*
X54650000Y-23100000D01*
G75*
G02*
X54600000Y-23150000I-50000J0D01*
G01*
X53700000Y-23150000D01*
G75*
G02*
X53650000Y-23100000I0J50000D01*
G01*
G37*
%TD*%
%TO.C,D5*%
G36*
G01*
X78650000Y-23100000D02*
X78650000Y-21900000D01*
G75*
G02*
X78700000Y-21850000I50000J0D01*
G01*
X79600000Y-21850000D01*
G75*
G02*
X79650000Y-21900000I0J-50000D01*
G01*
X79650000Y-23100000D01*
G75*
G02*
X79600000Y-23150000I-50000J0D01*
G01*
X78700000Y-23150000D01*
G75*
G02*
X78650000Y-23100000I0J50000D01*
G01*
G37*
G36*
G01*
X75350000Y-23100000D02*
X75350000Y-21900000D01*
G75*
G02*
X75400000Y-21850000I50000J0D01*
G01*
X76300000Y-21850000D01*
G75*
G02*
X76350000Y-21900000I0J-50000D01*
G01*
X76350000Y-23100000D01*
G75*
G02*
X76300000Y-23150000I-50000J0D01*
G01*
X75400000Y-23150000D01*
G75*
G02*
X75350000Y-23100000I0J50000D01*
G01*
G37*
%TD*%
%TO.C,D9*%
G36*
G01*
X95350000Y-23100000D02*
X95350000Y-21900000D01*
G75*
G02*
X95400000Y-21850000I50000J0D01*
G01*
X96300000Y-21850000D01*
G75*
G02*
X96350000Y-21900000I0J-50000D01*
G01*
X96350000Y-23100000D01*
G75*
G02*
X96300000Y-23150000I-50000J0D01*
G01*
X95400000Y-23150000D01*
G75*
G02*
X95350000Y-23100000I0J50000D01*
G01*
G37*
G36*
G01*
X98650000Y-23100000D02*
X98650000Y-21900000D01*
G75*
G02*
X98700000Y-21850000I50000J0D01*
G01*
X99600000Y-21850000D01*
G75*
G02*
X99650000Y-21900000I0J-50000D01*
G01*
X99650000Y-23100000D01*
G75*
G02*
X99600000Y-23150000I-50000J0D01*
G01*
X98700000Y-23150000D01*
G75*
G02*
X98650000Y-23100000I0J50000D01*
G01*
G37*
%TD*%
%TO.C,D13*%
G36*
G01*
X118650000Y-23100000D02*
X118650000Y-21900000D01*
G75*
G02*
X118700000Y-21850000I50000J0D01*
G01*
X119600000Y-21850000D01*
G75*
G02*
X119650000Y-21900000I0J-50000D01*
G01*
X119650000Y-23100000D01*
G75*
G02*
X119600000Y-23150000I-50000J0D01*
G01*
X118700000Y-23150000D01*
G75*
G02*
X118650000Y-23100000I0J50000D01*
G01*
G37*
G36*
G01*
X115350000Y-23100000D02*
X115350000Y-21900000D01*
G75*
G02*
X115400000Y-21850000I50000J0D01*
G01*
X116300000Y-21850000D01*
G75*
G02*
X116350000Y-21900000I0J-50000D01*
G01*
X116350000Y-23100000D01*
G75*
G02*
X116300000Y-23150000I-50000J0D01*
G01*
X115400000Y-23150000D01*
G75*
G02*
X115350000Y-23100000I0J50000D01*
G01*
G37*
%TD*%
%TO.C,D17*%
G36*
G01*
X140350000Y-23100000D02*
X140350000Y-21900000D01*
G75*
G02*
X140400000Y-21850000I50000J0D01*
G01*
X141300000Y-21850000D01*
G75*
G02*
X141350000Y-21900000I0J-50000D01*
G01*
X141350000Y-23100000D01*
G75*
G02*
X141300000Y-23150000I-50000J0D01*
G01*
X140400000Y-23150000D01*
G75*
G02*
X140350000Y-23100000I0J50000D01*
G01*
G37*
G36*
G01*
X143650000Y-23100000D02*
X143650000Y-21900000D01*
G75*
G02*
X143700000Y-21850000I50000J0D01*
G01*
X144600000Y-21850000D01*
G75*
G02*
X144650000Y-21900000I0J-50000D01*
G01*
X144650000Y-23100000D01*
G75*
G02*
X144600000Y-23150000I-50000J0D01*
G01*
X143700000Y-23150000D01*
G75*
G02*
X143650000Y-23100000I0J50000D01*
G01*
G37*
%TD*%
%TO.C,R8*%
G36*
G01*
X100300000Y-105450000D02*
X99700000Y-105450000D01*
G75*
G02*
X99475000Y-105225000I0J225000D01*
G01*
X99475000Y-104775000D01*
G75*
G02*
X99700000Y-104550000I225000J0D01*
G01*
X100300000Y-104550000D01*
G75*
G02*
X100525000Y-104775000I0J-225000D01*
G01*
X100525000Y-105225000D01*
G75*
G02*
X100300000Y-105450000I-225000J0D01*
G01*
G37*
G36*
G01*
X100300000Y-107100000D02*
X99700000Y-107100000D01*
G75*
G02*
X99475000Y-106875000I0J225000D01*
G01*
X99475000Y-106425000D01*
G75*
G02*
X99700000Y-106200000I225000J0D01*
G01*
X100300000Y-106200000D01*
G75*
G02*
X100525000Y-106425000I0J-225000D01*
G01*
X100525000Y-106875000D01*
G75*
G02*
X100300000Y-107100000I-225000J0D01*
G01*
G37*
%TD*%
%TO.C,R9*%
G36*
G01*
X168075000Y-134800000D02*
X168075000Y-135400000D01*
G75*
G02*
X167850000Y-135625000I-225000J0D01*
G01*
X167400000Y-135625000D01*
G75*
G02*
X167175000Y-135400000I0J225000D01*
G01*
X167175000Y-134800000D01*
G75*
G02*
X167400000Y-134575000I225000J0D01*
G01*
X167850000Y-134575000D01*
G75*
G02*
X168075000Y-134800000I0J-225000D01*
G01*
G37*
G36*
G01*
X166425000Y-134800000D02*
X166425000Y-135400000D01*
G75*
G02*
X166200000Y-135625000I-225000J0D01*
G01*
X165750000Y-135625000D01*
G75*
G02*
X165525000Y-135400000I0J225000D01*
G01*
X165525000Y-134800000D01*
G75*
G02*
X165750000Y-134575000I225000J0D01*
G01*
X166200000Y-134575000D01*
G75*
G02*
X166425000Y-134800000I0J-225000D01*
G01*
G37*
%TD*%
%TO.C,SW1*%
X65000000Y-20000000D03*
X58650000Y-22540000D03*
D12*
X62460000Y-25080000D03*
D13*
X57380000Y-25080000D03*
X67540000Y-25080000D03*
%TD*%
%TO.C,SW5*%
X92540000Y-25080000D03*
X82380000Y-25080000D03*
D12*
X87460000Y-25080000D03*
D11*
X83650000Y-22540000D03*
X90000000Y-20000000D03*
%TD*%
%TO.C,SW9*%
X110000000Y-20000000D03*
X103650000Y-22540000D03*
D12*
X107460000Y-25080000D03*
D13*
X102380000Y-25080000D03*
X112540000Y-25080000D03*
%TD*%
D11*
%TO.C,SW11*%
X110000000Y-65000000D03*
X103650000Y-67540000D03*
D12*
X107460000Y-70080000D03*
D13*
X102380000Y-70080000D03*
X112540000Y-70080000D03*
G36*
G01*
X105378000Y-75922000D02*
X105378000Y-74398000D01*
G75*
G02*
X105428000Y-74348000I50000J0D01*
G01*
X106952000Y-74348000D01*
G75*
G02*
X107002000Y-74398000I0J-50000D01*
G01*
X107002000Y-75922000D01*
G75*
G02*
X106952000Y-75972000I-50000J0D01*
G01*
X105428000Y-75972000D01*
G75*
G02*
X105378000Y-75922000I0J50000D01*
G01*
G37*
D17*
X108730000Y-75160000D03*
%TD*%
D13*
%TO.C,SW14*%
X132540000Y-25080000D03*
X122380000Y-25080000D03*
D12*
X127460000Y-25080000D03*
D11*
X123650000Y-22540000D03*
X130000000Y-20000000D03*
%TD*%
%TO.C,SW18*%
X155000000Y-20000000D03*
X148650000Y-22540000D03*
D12*
X152460000Y-25080000D03*
D13*
X147380000Y-25080000D03*
X157540000Y-25080000D03*
%TD*%
%TO.C,R10*%
G36*
G01*
X122000000Y-133125000D02*
X122600000Y-133125000D01*
G75*
G02*
X122825000Y-133350000I0J-225000D01*
G01*
X122825000Y-133800000D01*
G75*
G02*
X122600000Y-134025000I-225000J0D01*
G01*
X122000000Y-134025000D01*
G75*
G02*
X121775000Y-133800000I0J225000D01*
G01*
X121775000Y-133350000D01*
G75*
G02*
X122000000Y-133125000I225000J0D01*
G01*
G37*
G36*
G01*
X122000000Y-134775000D02*
X122600000Y-134775000D01*
G75*
G02*
X122825000Y-135000000I0J-225000D01*
G01*
X122825000Y-135450000D01*
G75*
G02*
X122600000Y-135675000I-225000J0D01*
G01*
X122000000Y-135675000D01*
G75*
G02*
X121775000Y-135450000I0J225000D01*
G01*
X121775000Y-135000000D01*
G75*
G02*
X122000000Y-134775000I225000J0D01*
G01*
G37*
%TD*%
%TO.C,R11*%
G36*
G01*
X123300000Y-137875000D02*
X123900000Y-137875000D01*
G75*
G02*
X124125000Y-138100000I0J-225000D01*
G01*
X124125000Y-138550000D01*
G75*
G02*
X123900000Y-138775000I-225000J0D01*
G01*
X123300000Y-138775000D01*
G75*
G02*
X123075000Y-138550000I0J225000D01*
G01*
X123075000Y-138100000D01*
G75*
G02*
X123300000Y-137875000I225000J0D01*
G01*
G37*
G36*
G01*
X123300000Y-136225000D02*
X123900000Y-136225000D01*
G75*
G02*
X124125000Y-136450000I0J-225000D01*
G01*
X124125000Y-136900000D01*
G75*
G02*
X123900000Y-137125000I-225000J0D01*
G01*
X123300000Y-137125000D01*
G75*
G02*
X123075000Y-136900000I0J225000D01*
G01*
X123075000Y-136450000D01*
G75*
G02*
X123300000Y-136225000I225000J0D01*
G01*
G37*
%TD*%
%TO.C,R12*%
G36*
G01*
X124500000Y-133125000D02*
X125100000Y-133125000D01*
G75*
G02*
X125325000Y-133350000I0J-225000D01*
G01*
X125325000Y-133800000D01*
G75*
G02*
X125100000Y-134025000I-225000J0D01*
G01*
X124500000Y-134025000D01*
G75*
G02*
X124275000Y-133800000I0J225000D01*
G01*
X124275000Y-133350000D01*
G75*
G02*
X124500000Y-133125000I225000J0D01*
G01*
G37*
G36*
G01*
X124500000Y-134775000D02*
X125100000Y-134775000D01*
G75*
G02*
X125325000Y-135000000I0J-225000D01*
G01*
X125325000Y-135450000D01*
G75*
G02*
X125100000Y-135675000I-225000J0D01*
G01*
X124500000Y-135675000D01*
G75*
G02*
X124275000Y-135450000I0J225000D01*
G01*
X124275000Y-135000000D01*
G75*
G02*
X124500000Y-134775000I225000J0D01*
G01*
G37*
%TD*%
%TO.C,R13*%
G36*
G01*
X125800000Y-137875000D02*
X126400000Y-137875000D01*
G75*
G02*
X126625000Y-138100000I0J-225000D01*
G01*
X126625000Y-138550000D01*
G75*
G02*
X126400000Y-138775000I-225000J0D01*
G01*
X125800000Y-138775000D01*
G75*
G02*
X125575000Y-138550000I0J225000D01*
G01*
X125575000Y-138100000D01*
G75*
G02*
X125800000Y-137875000I225000J0D01*
G01*
G37*
G36*
G01*
X125800000Y-136225000D02*
X126400000Y-136225000D01*
G75*
G02*
X126625000Y-136450000I0J-225000D01*
G01*
X126625000Y-136900000D01*
G75*
G02*
X126400000Y-137125000I-225000J0D01*
G01*
X125800000Y-137125000D01*
G75*
G02*
X125575000Y-136900000I0J225000D01*
G01*
X125575000Y-136450000D01*
G75*
G02*
X125800000Y-136225000I225000J0D01*
G01*
G37*
%TD*%
%TO.C,R14*%
G36*
G01*
X127100000Y-133125000D02*
X127700000Y-133125000D01*
G75*
G02*
X127925000Y-133350000I0J-225000D01*
G01*
X127925000Y-133800000D01*
G75*
G02*
X127700000Y-134025000I-225000J0D01*
G01*
X127100000Y-134025000D01*
G75*
G02*
X126875000Y-133800000I0J225000D01*
G01*
X126875000Y-133350000D01*
G75*
G02*
X127100000Y-133125000I225000J0D01*
G01*
G37*
G36*
G01*
X127100000Y-134775000D02*
X127700000Y-134775000D01*
G75*
G02*
X127925000Y-135000000I0J-225000D01*
G01*
X127925000Y-135450000D01*
G75*
G02*
X127700000Y-135675000I-225000J0D01*
G01*
X127100000Y-135675000D01*
G75*
G02*
X126875000Y-135450000I0J225000D01*
G01*
X126875000Y-135000000D01*
G75*
G02*
X127100000Y-134775000I225000J0D01*
G01*
G37*
%TD*%
%TO.C,R15*%
G36*
G01*
X129600000Y-134775000D02*
X130200000Y-134775000D01*
G75*
G02*
X130425000Y-135000000I0J-225000D01*
G01*
X130425000Y-135450000D01*
G75*
G02*
X130200000Y-135675000I-225000J0D01*
G01*
X129600000Y-135675000D01*
G75*
G02*
X129375000Y-135450000I0J225000D01*
G01*
X129375000Y-135000000D01*
G75*
G02*
X129600000Y-134775000I225000J0D01*
G01*
G37*
G36*
G01*
X129600000Y-133125000D02*
X130200000Y-133125000D01*
G75*
G02*
X130425000Y-133350000I0J-225000D01*
G01*
X130425000Y-133800000D01*
G75*
G02*
X130200000Y-134025000I-225000J0D01*
G01*
X129600000Y-134025000D01*
G75*
G02*
X129375000Y-133800000I0J225000D01*
G01*
X129375000Y-133350000D01*
G75*
G02*
X129600000Y-133125000I225000J0D01*
G01*
G37*
%TD*%
%TO.C,R16*%
G36*
G01*
X128400000Y-136225000D02*
X129000000Y-136225000D01*
G75*
G02*
X129225000Y-136450000I0J-225000D01*
G01*
X129225000Y-136900000D01*
G75*
G02*
X129000000Y-137125000I-225000J0D01*
G01*
X128400000Y-137125000D01*
G75*
G02*
X128175000Y-136900000I0J225000D01*
G01*
X128175000Y-136450000D01*
G75*
G02*
X128400000Y-136225000I225000J0D01*
G01*
G37*
G36*
G01*
X128400000Y-137875000D02*
X129000000Y-137875000D01*
G75*
G02*
X129225000Y-138100000I0J-225000D01*
G01*
X129225000Y-138550000D01*
G75*
G02*
X129000000Y-138775000I-225000J0D01*
G01*
X128400000Y-138775000D01*
G75*
G02*
X128175000Y-138550000I0J225000D01*
G01*
X128175000Y-138100000D01*
G75*
G02*
X128400000Y-137875000I225000J0D01*
G01*
G37*
%TD*%
%TO.C,R17*%
G36*
G01*
X135100000Y-127875000D02*
X135700000Y-127875000D01*
G75*
G02*
X135925000Y-128100000I0J-225000D01*
G01*
X135925000Y-128550000D01*
G75*
G02*
X135700000Y-128775000I-225000J0D01*
G01*
X135100000Y-128775000D01*
G75*
G02*
X134875000Y-128550000I0J225000D01*
G01*
X134875000Y-128100000D01*
G75*
G02*
X135100000Y-127875000I225000J0D01*
G01*
G37*
G36*
G01*
X135100000Y-126225000D02*
X135700000Y-126225000D01*
G75*
G02*
X135925000Y-126450000I0J-225000D01*
G01*
X135925000Y-126900000D01*
G75*
G02*
X135700000Y-127125000I-225000J0D01*
G01*
X135100000Y-127125000D01*
G75*
G02*
X134875000Y-126900000I0J225000D01*
G01*
X134875000Y-126450000D01*
G75*
G02*
X135100000Y-126225000I225000J0D01*
G01*
G37*
%TD*%
%TO.C,R18*%
G36*
G01*
X135100000Y-133125000D02*
X135700000Y-133125000D01*
G75*
G02*
X135925000Y-133350000I0J-225000D01*
G01*
X135925000Y-133800000D01*
G75*
G02*
X135700000Y-134025000I-225000J0D01*
G01*
X135100000Y-134025000D01*
G75*
G02*
X134875000Y-133800000I0J225000D01*
G01*
X134875000Y-133350000D01*
G75*
G02*
X135100000Y-133125000I225000J0D01*
G01*
G37*
G36*
G01*
X135100000Y-134775000D02*
X135700000Y-134775000D01*
G75*
G02*
X135925000Y-135000000I0J-225000D01*
G01*
X135925000Y-135450000D01*
G75*
G02*
X135700000Y-135675000I-225000J0D01*
G01*
X135100000Y-135675000D01*
G75*
G02*
X134875000Y-135450000I0J225000D01*
G01*
X134875000Y-135000000D01*
G75*
G02*
X135100000Y-134775000I225000J0D01*
G01*
G37*
%TD*%
%TO.C,R19*%
G36*
G01*
X119725000Y-111200000D02*
X119725000Y-111800000D01*
G75*
G02*
X119500000Y-112025000I-225000J0D01*
G01*
X119050000Y-112025000D01*
G75*
G02*
X118825000Y-111800000I0J225000D01*
G01*
X118825000Y-111200000D01*
G75*
G02*
X119050000Y-110975000I225000J0D01*
G01*
X119500000Y-110975000D01*
G75*
G02*
X119725000Y-111200000I0J-225000D01*
G01*
G37*
G36*
G01*
X121375000Y-111200000D02*
X121375000Y-111800000D01*
G75*
G02*
X121150000Y-112025000I-225000J0D01*
G01*
X120700000Y-112025000D01*
G75*
G02*
X120475000Y-111800000I0J225000D01*
G01*
X120475000Y-111200000D01*
G75*
G02*
X120700000Y-110975000I225000J0D01*
G01*
X121150000Y-110975000D01*
G75*
G02*
X121375000Y-111200000I0J-225000D01*
G01*
G37*
%TD*%
M02*
