M48
; DRILL file {KiCad (5.1.9)-1} date 06/11/21 11:51:19
; FORMAT={-:-/ absolute / inch / decimal}
; #@! TF.CreationDate,2021-06-11T11:51:19+02:00
; #@! TF.GenerationSoftware,Kicad,Pcbnew,(5.1.9)-1
; #@! TF.FileFunction,NonPlated,1,2,NPTH
FMAT,2
INCH
T1C0.0669
T2C0.1575
%
G90
G05
T1
X1.4736Y-2.3634
X1.4736Y-3.3476
X1.4736Y-4.135
X1.4736Y-4.9224
X1.8736Y-2.3634
X1.8736Y-3.3476
X1.8736Y-4.135
X1.8736Y-4.9224
X2.4579Y-2.3634
X2.4579Y-3.3476
X2.4579Y-4.135
X2.4579Y-4.9224
X2.8579Y-2.3634
X2.8579Y-3.3476
X2.8579Y-4.135
X2.8579Y-4.9224
X3.2453Y-2.3634
X3.2453Y-3.3476
X3.2453Y-4.135
X3.2453Y-4.9224
X3.6453Y-2.3634
X3.6453Y-3.3476
X3.6453Y-4.135
X3.6453Y-4.9224
X4.0327Y-2.3634
X4.0327Y-3.3476
X4.0327Y-4.135
X4.0327Y-4.9224
X4.4327Y-2.3634
X4.4327Y-3.3476
X4.4327Y-4.135
X4.4327Y-4.9224
X5.0169Y-2.3634
X5.0169Y-3.3476
X5.0169Y-4.135
X5.0169Y-4.9224
X5.4169Y-2.3634
X5.4169Y-3.3476
X5.4169Y-4.135
X5.4169Y-4.9224
T2
X1.6736Y-2.3634
X1.6736Y-3.3476
X1.6736Y-4.135
X1.6736Y-4.9224
X2.6579Y-2.3634
X2.6579Y-3.3476
X2.6579Y-4.135
X2.6579Y-4.9224
X3.4453Y-2.3634
X3.4453Y-3.3476
X3.4453Y-4.135
X3.4453Y-4.9224
X4.2327Y-2.3634
X4.2327Y-3.3476
X4.2327Y-4.135
X4.2327Y-4.9224
X5.2169Y-2.3634
X5.2169Y-3.3476
X5.2169Y-4.135
X5.2169Y-4.9224
T0
M30
