%TF.GenerationSoftware,KiCad,Pcbnew,(5.1.6)-1*%
%TF.CreationDate,2021-04-12T23:45:45+02:00*%
%TF.ProjectId,08_Main_Gauche,30385f4d-6169-46e5-9f47-61756368652e,rev?*%
%TF.SameCoordinates,Original*%
%TF.FileFunction,Other,Fab,Bot*%
%FSLAX46Y46*%
G04 Gerber Fmt 4.6, Leading zero omitted, Abs format (unit mm)*
G04 Created by KiCad (PCBNEW (5.1.6)-1) date 2021-04-12 23:45:45*
%MOMM*%
%LPD*%
G01*
G04 APERTURE LIST*
%TA.AperFunction,Profile*%
%ADD10C,0.150000*%
%TD*%
%ADD11C,0.100000*%
%ADD12C,0.150000*%
%ADD13C,0.060000*%
G04 APERTURE END LIST*
D10*
X180000000Y-55000000D02*
X195000000Y-55000000D01*
X157000000Y-55000000D02*
X180000000Y-55000000D01*
X195000000Y-55000000D02*
G75*
G02*
X200000000Y-60000000I0J-5000000D01*
G01*
X200000000Y-150000000D02*
G75*
G02*
X195000000Y-155000000I-5000000J0D01*
G01*
X105000000Y-155000000D02*
G75*
G02*
X100000000Y-150000000I0J5000000D01*
G01*
X100000000Y-60000000D02*
G75*
G02*
X105000000Y-55000000I5000000J0D01*
G01*
X100000000Y-150000000D02*
X100000000Y-60000000D01*
X195000000Y-155000000D02*
X105000000Y-155000000D01*
X200000000Y-60000000D02*
X200000000Y-150000000D01*
X105000000Y-55000000D02*
X157000000Y-55000000D01*
D11*
%TO.C,C1*%
X183550000Y-140600000D02*
X181950000Y-140600000D01*
X183550000Y-141400000D02*
X183550000Y-140600000D01*
X181950000Y-141400000D02*
X183550000Y-141400000D01*
X181950000Y-140600000D02*
X181950000Y-141400000D01*
%TO.C,D1*%
X104380000Y-78970000D02*
X108980000Y-78970000D01*
X108980000Y-78970000D02*
X108980000Y-75970000D01*
X104380000Y-75970000D02*
X104380000Y-78970000D01*
X104380000Y-75970000D02*
X108980000Y-75970000D01*
X107329440Y-77471020D02*
X108231140Y-77471020D01*
X106178820Y-77471020D02*
X105180600Y-77471020D01*
X107329440Y-76670920D02*
X107329440Y-78271120D01*
X106178820Y-78220320D02*
X106178820Y-76670920D01*
X107329440Y-77471020D02*
X106178820Y-78220320D01*
X107329440Y-77471020D02*
X106178820Y-76670920D01*
%TO.C,D2*%
X119620000Y-78970000D02*
X124220000Y-78970000D01*
X124220000Y-78970000D02*
X124220000Y-75970000D01*
X119620000Y-75970000D02*
X119620000Y-78970000D01*
X119620000Y-75970000D02*
X124220000Y-75970000D01*
X122569440Y-77471020D02*
X123471140Y-77471020D01*
X121418820Y-77471020D02*
X120420600Y-77471020D01*
X122569440Y-76670920D02*
X122569440Y-78271120D01*
X121418820Y-78220320D02*
X121418820Y-76670920D01*
X122569440Y-77471020D02*
X121418820Y-78220320D01*
X122569440Y-77471020D02*
X121418820Y-76670920D01*
%TO.C,D3*%
X134860000Y-78970000D02*
X139460000Y-78970000D01*
X139460000Y-78970000D02*
X139460000Y-75970000D01*
X134860000Y-75970000D02*
X134860000Y-78970000D01*
X134860000Y-75970000D02*
X139460000Y-75970000D01*
X137809440Y-77471020D02*
X138711140Y-77471020D01*
X136658820Y-77471020D02*
X135660600Y-77471020D01*
X137809440Y-76670920D02*
X137809440Y-78271120D01*
X136658820Y-78220320D02*
X136658820Y-76670920D01*
X137809440Y-77471020D02*
X136658820Y-78220320D01*
X137809440Y-77471020D02*
X136658820Y-76670920D01*
%TO.C,D4*%
X150100000Y-78970000D02*
X154700000Y-78970000D01*
X154700000Y-78970000D02*
X154700000Y-75970000D01*
X150100000Y-75970000D02*
X150100000Y-78970000D01*
X150100000Y-75970000D02*
X154700000Y-75970000D01*
X153049440Y-77471020D02*
X153951140Y-77471020D01*
X151898820Y-77471020D02*
X150900600Y-77471020D01*
X153049440Y-76670920D02*
X153049440Y-78271120D01*
X151898820Y-78220320D02*
X151898820Y-76670920D01*
X153049440Y-77471020D02*
X151898820Y-78220320D01*
X153049440Y-77471020D02*
X151898820Y-76670920D01*
%TO.C,D5*%
X162965000Y-75265000D02*
X162965000Y-79865000D01*
X162965000Y-79865000D02*
X165965000Y-79865000D01*
X165965000Y-75265000D02*
X162965000Y-75265000D01*
X165965000Y-75265000D02*
X165965000Y-79865000D01*
X164463980Y-78214440D02*
X164463980Y-79116140D01*
X164463980Y-77063820D02*
X164463980Y-76065600D01*
X165264080Y-78214440D02*
X163663880Y-78214440D01*
X163714680Y-77063820D02*
X165264080Y-77063820D01*
X164463980Y-78214440D02*
X163714680Y-77063820D01*
X164463980Y-78214440D02*
X165264080Y-77063820D01*
%TO.C,D6*%
X186930000Y-78970000D02*
X191530000Y-78970000D01*
X191530000Y-78970000D02*
X191530000Y-75970000D01*
X186930000Y-75970000D02*
X186930000Y-78970000D01*
X186930000Y-75970000D02*
X191530000Y-75970000D01*
X189879440Y-77471020D02*
X190781140Y-77471020D01*
X188728820Y-77471020D02*
X187730600Y-77471020D01*
X189879440Y-76670920D02*
X189879440Y-78271120D01*
X188728820Y-78220320D02*
X188728820Y-76670920D01*
X189879440Y-77471020D02*
X188728820Y-78220320D01*
X189879440Y-77471020D02*
X188728820Y-76670920D01*
%TO.C,D7*%
X107329440Y-92711020D02*
X106178820Y-91910920D01*
X107329440Y-92711020D02*
X106178820Y-93460320D01*
X106178820Y-93460320D02*
X106178820Y-91910920D01*
X107329440Y-91910920D02*
X107329440Y-93511120D01*
X106178820Y-92711020D02*
X105180600Y-92711020D01*
X107329440Y-92711020D02*
X108231140Y-92711020D01*
X104380000Y-91210000D02*
X108980000Y-91210000D01*
X104380000Y-91210000D02*
X104380000Y-94210000D01*
X108980000Y-94210000D02*
X108980000Y-91210000D01*
X104380000Y-94210000D02*
X108980000Y-94210000D01*
%TO.C,D8*%
X122569440Y-92711020D02*
X121418820Y-91910920D01*
X122569440Y-92711020D02*
X121418820Y-93460320D01*
X121418820Y-93460320D02*
X121418820Y-91910920D01*
X122569440Y-91910920D02*
X122569440Y-93511120D01*
X121418820Y-92711020D02*
X120420600Y-92711020D01*
X122569440Y-92711020D02*
X123471140Y-92711020D01*
X119620000Y-91210000D02*
X124220000Y-91210000D01*
X119620000Y-91210000D02*
X119620000Y-94210000D01*
X124220000Y-94210000D02*
X124220000Y-91210000D01*
X119620000Y-94210000D02*
X124220000Y-94210000D01*
%TO.C,D9*%
X137809440Y-92711020D02*
X136658820Y-91910920D01*
X137809440Y-92711020D02*
X136658820Y-93460320D01*
X136658820Y-93460320D02*
X136658820Y-91910920D01*
X137809440Y-91910920D02*
X137809440Y-93511120D01*
X136658820Y-92711020D02*
X135660600Y-92711020D01*
X137809440Y-92711020D02*
X138711140Y-92711020D01*
X134860000Y-91210000D02*
X139460000Y-91210000D01*
X134860000Y-91210000D02*
X134860000Y-94210000D01*
X139460000Y-94210000D02*
X139460000Y-91210000D01*
X134860000Y-94210000D02*
X139460000Y-94210000D01*
%TO.C,D10*%
X153049440Y-92711020D02*
X151898820Y-91910920D01*
X153049440Y-92711020D02*
X151898820Y-93460320D01*
X151898820Y-93460320D02*
X151898820Y-91910920D01*
X153049440Y-91910920D02*
X153049440Y-93511120D01*
X151898820Y-92711020D02*
X150900600Y-92711020D01*
X153049440Y-92711020D02*
X153951140Y-92711020D01*
X150100000Y-91210000D02*
X154700000Y-91210000D01*
X150100000Y-91210000D02*
X150100000Y-94210000D01*
X154700000Y-94210000D02*
X154700000Y-91210000D01*
X150100000Y-94210000D02*
X154700000Y-94210000D01*
%TO.C,D11*%
X162965000Y-90505000D02*
X162965000Y-95105000D01*
X162965000Y-95105000D02*
X165965000Y-95105000D01*
X165965000Y-90505000D02*
X162965000Y-90505000D01*
X165965000Y-90505000D02*
X165965000Y-95105000D01*
X164463980Y-93454440D02*
X164463980Y-94356140D01*
X164463980Y-92303820D02*
X164463980Y-91305600D01*
X165264080Y-93454440D02*
X163663880Y-93454440D01*
X163714680Y-92303820D02*
X165264080Y-92303820D01*
X164463980Y-93454440D02*
X163714680Y-92303820D01*
X164463980Y-93454440D02*
X165264080Y-92303820D01*
%TO.C,D12*%
X189879440Y-92711020D02*
X188728820Y-91910920D01*
X189879440Y-92711020D02*
X188728820Y-93460320D01*
X188728820Y-93460320D02*
X188728820Y-91910920D01*
X189879440Y-91910920D02*
X189879440Y-93511120D01*
X188728820Y-92711020D02*
X187730600Y-92711020D01*
X189879440Y-92711020D02*
X190781140Y-92711020D01*
X186930000Y-91210000D02*
X191530000Y-91210000D01*
X186930000Y-91210000D02*
X186930000Y-94210000D01*
X191530000Y-94210000D02*
X191530000Y-91210000D01*
X186930000Y-94210000D02*
X191530000Y-94210000D01*
%TO.C,D13*%
X107329440Y-107951020D02*
X106178820Y-107150920D01*
X107329440Y-107951020D02*
X106178820Y-108700320D01*
X106178820Y-108700320D02*
X106178820Y-107150920D01*
X107329440Y-107150920D02*
X107329440Y-108751120D01*
X106178820Y-107951020D02*
X105180600Y-107951020D01*
X107329440Y-107951020D02*
X108231140Y-107951020D01*
X104380000Y-106450000D02*
X108980000Y-106450000D01*
X104380000Y-106450000D02*
X104380000Y-109450000D01*
X108980000Y-109450000D02*
X108980000Y-106450000D01*
X104380000Y-109450000D02*
X108980000Y-109450000D01*
%TO.C,D14*%
X119620000Y-109450000D02*
X124220000Y-109450000D01*
X124220000Y-109450000D02*
X124220000Y-106450000D01*
X119620000Y-106450000D02*
X119620000Y-109450000D01*
X119620000Y-106450000D02*
X124220000Y-106450000D01*
X122569440Y-107951020D02*
X123471140Y-107951020D01*
X121418820Y-107951020D02*
X120420600Y-107951020D01*
X122569440Y-107150920D02*
X122569440Y-108751120D01*
X121418820Y-108700320D02*
X121418820Y-107150920D01*
X122569440Y-107951020D02*
X121418820Y-108700320D01*
X122569440Y-107951020D02*
X121418820Y-107150920D01*
%TO.C,D15*%
X137809440Y-107951020D02*
X136658820Y-107150920D01*
X137809440Y-107951020D02*
X136658820Y-108700320D01*
X136658820Y-108700320D02*
X136658820Y-107150920D01*
X137809440Y-107150920D02*
X137809440Y-108751120D01*
X136658820Y-107951020D02*
X135660600Y-107951020D01*
X137809440Y-107951020D02*
X138711140Y-107951020D01*
X134860000Y-106450000D02*
X139460000Y-106450000D01*
X134860000Y-106450000D02*
X134860000Y-109450000D01*
X139460000Y-109450000D02*
X139460000Y-106450000D01*
X134860000Y-109450000D02*
X139460000Y-109450000D01*
%TO.C,D16*%
X153049440Y-107951020D02*
X151898820Y-107150920D01*
X153049440Y-107951020D02*
X151898820Y-108700320D01*
X151898820Y-108700320D02*
X151898820Y-107150920D01*
X153049440Y-107150920D02*
X153049440Y-108751120D01*
X151898820Y-107951020D02*
X150900600Y-107951020D01*
X153049440Y-107951020D02*
X153951140Y-107951020D01*
X150100000Y-106450000D02*
X154700000Y-106450000D01*
X150100000Y-106450000D02*
X150100000Y-109450000D01*
X154700000Y-109450000D02*
X154700000Y-106450000D01*
X150100000Y-109450000D02*
X154700000Y-109450000D01*
%TO.C,D17*%
X162965000Y-105745000D02*
X162965000Y-110345000D01*
X162965000Y-110345000D02*
X165965000Y-110345000D01*
X165965000Y-105745000D02*
X162965000Y-105745000D01*
X165965000Y-105745000D02*
X165965000Y-110345000D01*
X164463980Y-108694440D02*
X164463980Y-109596140D01*
X164463980Y-107543820D02*
X164463980Y-106545600D01*
X165264080Y-108694440D02*
X163663880Y-108694440D01*
X163714680Y-107543820D02*
X165264080Y-107543820D01*
X164463980Y-108694440D02*
X163714680Y-107543820D01*
X164463980Y-108694440D02*
X165264080Y-107543820D01*
%TO.C,D18*%
X189879440Y-107951020D02*
X188728820Y-107150920D01*
X189879440Y-107951020D02*
X188728820Y-108700320D01*
X188728820Y-108700320D02*
X188728820Y-107150920D01*
X189879440Y-107150920D02*
X189879440Y-108751120D01*
X188728820Y-107951020D02*
X187730600Y-107951020D01*
X189879440Y-107951020D02*
X190781140Y-107951020D01*
X186930000Y-106450000D02*
X191530000Y-106450000D01*
X186930000Y-106450000D02*
X186930000Y-109450000D01*
X191530000Y-109450000D02*
X191530000Y-106450000D01*
X186930000Y-109450000D02*
X191530000Y-109450000D01*
%TO.C,D24*%
X186930000Y-124690000D02*
X191530000Y-124690000D01*
X191530000Y-124690000D02*
X191530000Y-121690000D01*
X186930000Y-121690000D02*
X186930000Y-124690000D01*
X186930000Y-121690000D02*
X191530000Y-121690000D01*
X189879440Y-123191020D02*
X190781140Y-123191020D01*
X188728820Y-123191020D02*
X187730600Y-123191020D01*
X189879440Y-122390920D02*
X189879440Y-123991120D01*
X188728820Y-123940320D02*
X188728820Y-122390920D01*
X189879440Y-123191020D02*
X188728820Y-123940320D01*
X189879440Y-123191020D02*
X188728820Y-122390920D01*
%TO.C,D19*%
X104380000Y-124690000D02*
X108980000Y-124690000D01*
X108980000Y-124690000D02*
X108980000Y-121690000D01*
X104380000Y-121690000D02*
X104380000Y-124690000D01*
X104380000Y-121690000D02*
X108980000Y-121690000D01*
X107329440Y-123191020D02*
X108231140Y-123191020D01*
X106178820Y-123191020D02*
X105180600Y-123191020D01*
X107329440Y-122390920D02*
X107329440Y-123991120D01*
X106178820Y-123940320D02*
X106178820Y-122390920D01*
X107329440Y-123191020D02*
X106178820Y-123940320D01*
X107329440Y-123191020D02*
X106178820Y-122390920D01*
%TO.C,D20*%
X122569440Y-123191020D02*
X121418820Y-122390920D01*
X122569440Y-123191020D02*
X121418820Y-123940320D01*
X121418820Y-123940320D02*
X121418820Y-122390920D01*
X122569440Y-122390920D02*
X122569440Y-123991120D01*
X121418820Y-123191020D02*
X120420600Y-123191020D01*
X122569440Y-123191020D02*
X123471140Y-123191020D01*
X119620000Y-121690000D02*
X124220000Y-121690000D01*
X119620000Y-121690000D02*
X119620000Y-124690000D01*
X124220000Y-124690000D02*
X124220000Y-121690000D01*
X119620000Y-124690000D02*
X124220000Y-124690000D01*
%TO.C,D21*%
X137809440Y-123191020D02*
X136658820Y-122390920D01*
X137809440Y-123191020D02*
X136658820Y-123940320D01*
X136658820Y-123940320D02*
X136658820Y-122390920D01*
X137809440Y-122390920D02*
X137809440Y-123991120D01*
X136658820Y-123191020D02*
X135660600Y-123191020D01*
X137809440Y-123191020D02*
X138711140Y-123191020D01*
X134860000Y-121690000D02*
X139460000Y-121690000D01*
X134860000Y-121690000D02*
X134860000Y-124690000D01*
X139460000Y-124690000D02*
X139460000Y-121690000D01*
X134860000Y-124690000D02*
X139460000Y-124690000D01*
%TO.C,D22*%
X150100000Y-124690000D02*
X154700000Y-124690000D01*
X154700000Y-124690000D02*
X154700000Y-121690000D01*
X150100000Y-121690000D02*
X150100000Y-124690000D01*
X150100000Y-121690000D02*
X154700000Y-121690000D01*
X153049440Y-123191020D02*
X153951140Y-123191020D01*
X151898820Y-123191020D02*
X150900600Y-123191020D01*
X153049440Y-122390920D02*
X153049440Y-123991120D01*
X151898820Y-123940320D02*
X151898820Y-122390920D01*
X153049440Y-123191020D02*
X151898820Y-123940320D01*
X153049440Y-123191020D02*
X151898820Y-122390920D01*
%TO.C,D23*%
X164463980Y-123934440D02*
X165264080Y-122783820D01*
X164463980Y-123934440D02*
X163714680Y-122783820D01*
X163714680Y-122783820D02*
X165264080Y-122783820D01*
X165264080Y-123934440D02*
X163663880Y-123934440D01*
X164463980Y-122783820D02*
X164463980Y-121785600D01*
X164463980Y-123934440D02*
X164463980Y-124836140D01*
X165965000Y-120985000D02*
X165965000Y-125585000D01*
X165965000Y-120985000D02*
X162965000Y-120985000D01*
X162965000Y-125585000D02*
X165965000Y-125585000D01*
X162965000Y-120985000D02*
X162965000Y-125585000D01*
%TO.C,D26*%
X118124440Y-130811020D02*
X116973820Y-130010920D01*
X118124440Y-130811020D02*
X116973820Y-131560320D01*
X116973820Y-131560320D02*
X116973820Y-130010920D01*
X118124440Y-130010920D02*
X118124440Y-131611120D01*
X116973820Y-130811020D02*
X115975600Y-130811020D01*
X118124440Y-130811020D02*
X119026140Y-130811020D01*
X115175000Y-129310000D02*
X119775000Y-129310000D01*
X115175000Y-129310000D02*
X115175000Y-132310000D01*
X119775000Y-132310000D02*
X119775000Y-129310000D01*
X115175000Y-132310000D02*
X119775000Y-132310000D01*
%TO.C,D27*%
X129050000Y-132310000D02*
X133650000Y-132310000D01*
X133650000Y-132310000D02*
X133650000Y-129310000D01*
X129050000Y-129310000D02*
X129050000Y-132310000D01*
X129050000Y-129310000D02*
X133650000Y-129310000D01*
X131999440Y-130811020D02*
X132901140Y-130811020D01*
X130848820Y-130811020D02*
X129850600Y-130811020D01*
X131999440Y-130010920D02*
X131999440Y-131611120D01*
X130848820Y-131560320D02*
X130848820Y-130010920D01*
X131999440Y-130811020D02*
X130848820Y-131560320D01*
X131999440Y-130811020D02*
X130848820Y-130010920D01*
%TO.C,D30*%
X157625000Y-134850000D02*
X162225000Y-134850000D01*
X162225000Y-134850000D02*
X162225000Y-131850000D01*
X157625000Y-131850000D02*
X157625000Y-134850000D01*
X157625000Y-131850000D02*
X162225000Y-131850000D01*
X160574440Y-133351020D02*
X161476140Y-133351020D01*
X159423820Y-133351020D02*
X158425600Y-133351020D01*
X160574440Y-132550920D02*
X160574440Y-134151120D01*
X159423820Y-134100320D02*
X159423820Y-132550920D01*
X160574440Y-133351020D02*
X159423820Y-134100320D01*
X160574440Y-133351020D02*
X159423820Y-132550920D01*
%TO.C,D31*%
X145969440Y-130811020D02*
X144818820Y-130010920D01*
X145969440Y-130811020D02*
X144818820Y-131560320D01*
X144818820Y-131560320D02*
X144818820Y-130010920D01*
X145969440Y-130010920D02*
X145969440Y-131611120D01*
X144818820Y-130811020D02*
X143820600Y-130811020D01*
X145969440Y-130811020D02*
X146871140Y-130811020D01*
X143020000Y-129310000D02*
X147620000Y-129310000D01*
X143020000Y-129310000D02*
X143020000Y-132310000D01*
X147620000Y-132310000D02*
X147620000Y-129310000D01*
X143020000Y-132310000D02*
X147620000Y-132310000D01*
%TO.C,J1*%
X189795000Y-134700000D02*
X190795000Y-135325000D01*
X190795000Y-134075000D02*
X189795000Y-134700000D01*
X190795000Y-143450000D02*
X190795000Y-138450000D01*
X186295000Y-143450000D02*
X190795000Y-143450000D01*
X186295000Y-144650000D02*
X186295000Y-143450000D01*
X197795000Y-144650000D02*
X186295000Y-144650000D01*
X197795000Y-138450000D02*
X197795000Y-144650000D01*
X190795000Y-133450000D02*
X190795000Y-138450000D01*
X186295000Y-133450000D02*
X190795000Y-133450000D01*
X186295000Y-132250000D02*
X186295000Y-133450000D01*
X197795000Y-132250000D02*
X186295000Y-132250000D01*
X197795000Y-138450000D02*
X197795000Y-132250000D01*
%TO.C,R1*%
X116440000Y-142010000D02*
X117240000Y-142010000D01*
X117240000Y-142010000D02*
X117240000Y-140410000D01*
X117240000Y-140410000D02*
X116440000Y-140410000D01*
X116440000Y-140410000D02*
X116440000Y-142010000D01*
%TO.C,R2*%
X130410000Y-140410000D02*
X130410000Y-142010000D01*
X131210000Y-140410000D02*
X130410000Y-140410000D01*
X131210000Y-142010000D02*
X131210000Y-140410000D01*
X130410000Y-142010000D02*
X131210000Y-142010000D01*
%TO.C,R3*%
X173520000Y-90405000D02*
X171920000Y-90405000D01*
X173520000Y-91205000D02*
X173520000Y-90405000D01*
X171920000Y-91205000D02*
X173520000Y-91205000D01*
X171920000Y-90405000D02*
X171920000Y-91205000D01*
%TO.C,R4*%
X172555000Y-77070000D02*
X172555000Y-77870000D01*
X172555000Y-77870000D02*
X174155000Y-77870000D01*
X174155000Y-77870000D02*
X174155000Y-77070000D01*
X174155000Y-77070000D02*
X172555000Y-77070000D01*
%TO.C,R5*%
X158350000Y-142165000D02*
X159150000Y-142165000D01*
X159150000Y-142165000D02*
X159150000Y-140565000D01*
X159150000Y-140565000D02*
X158350000Y-140565000D01*
X158350000Y-140565000D02*
X158350000Y-142165000D01*
%TO.C,R6*%
X144380000Y-140565000D02*
X144380000Y-142165000D01*
X145180000Y-140565000D02*
X144380000Y-140565000D01*
X145180000Y-142165000D02*
X145180000Y-140565000D01*
X144380000Y-142165000D02*
X145180000Y-142165000D01*
%TO.C,R7*%
X173520000Y-120885000D02*
X171920000Y-120885000D01*
X173520000Y-121685000D02*
X173520000Y-120885000D01*
X171920000Y-121685000D02*
X173520000Y-121685000D01*
X171920000Y-120885000D02*
X171920000Y-121685000D01*
%TO.C,R8*%
X153905000Y-149785000D02*
X154705000Y-149785000D01*
X154705000Y-149785000D02*
X154705000Y-148185000D01*
X154705000Y-148185000D02*
X153905000Y-148185000D01*
X153905000Y-148185000D02*
X153905000Y-149785000D01*
%TO.C,R9*%
X174155000Y-107550000D02*
X172555000Y-107550000D01*
X174155000Y-108350000D02*
X174155000Y-107550000D01*
X172555000Y-108350000D02*
X174155000Y-108350000D01*
X172555000Y-107550000D02*
X172555000Y-108350000D01*
%TO.C,R10*%
X155810000Y-148185000D02*
X155810000Y-149785000D01*
X156610000Y-148185000D02*
X155810000Y-148185000D01*
X156610000Y-149785000D02*
X156610000Y-148185000D01*
X155810000Y-149785000D02*
X156610000Y-149785000D01*
%TO.C,R11*%
X157715000Y-149785000D02*
X158515000Y-149785000D01*
X158515000Y-149785000D02*
X158515000Y-148185000D01*
X158515000Y-148185000D02*
X157715000Y-148185000D01*
X157715000Y-148185000D02*
X157715000Y-149785000D01*
%TO.C,R12*%
X159620000Y-148185000D02*
X159620000Y-149785000D01*
X160420000Y-148185000D02*
X159620000Y-148185000D01*
X160420000Y-149785000D02*
X160420000Y-148185000D01*
X159620000Y-149785000D02*
X160420000Y-149785000D01*
%TO.C,R13*%
X161525000Y-149785000D02*
X162325000Y-149785000D01*
X162325000Y-149785000D02*
X162325000Y-148185000D01*
X162325000Y-148185000D02*
X161525000Y-148185000D01*
X161525000Y-148185000D02*
X161525000Y-149785000D01*
%TO.C,R14*%
X163430000Y-148185000D02*
X163430000Y-149785000D01*
X164230000Y-148185000D02*
X163430000Y-148185000D01*
X164230000Y-149785000D02*
X164230000Y-148185000D01*
X163430000Y-149785000D02*
X164230000Y-149785000D01*
%TO.C,R15*%
X165335000Y-149785000D02*
X166135000Y-149785000D01*
X166135000Y-149785000D02*
X166135000Y-148185000D01*
X166135000Y-148185000D02*
X165335000Y-148185000D01*
X165335000Y-148185000D02*
X165335000Y-149785000D01*
%TO.C,U1*%
X178375000Y-131115000D02*
X177375000Y-130115000D01*
X178375000Y-148015000D02*
X178375000Y-131115000D01*
X170875000Y-148015000D02*
X178375000Y-148015000D01*
X170875000Y-130115000D02*
X170875000Y-148015000D01*
X177375000Y-130115000D02*
X170875000Y-130115000D01*
%TD*%
%TO.C,C1*%
D12*
X184297619Y-140022380D02*
X184869047Y-140022380D01*
X184583333Y-140022380D02*
X184583333Y-139022380D01*
X184678571Y-139165238D01*
X184773809Y-139260476D01*
X184869047Y-139308095D01*
X183678571Y-139022380D02*
X183583333Y-139022380D01*
X183488095Y-139070000D01*
X183440476Y-139117619D01*
X183392857Y-139212857D01*
X183345238Y-139403333D01*
X183345238Y-139641428D01*
X183392857Y-139831904D01*
X183440476Y-139927142D01*
X183488095Y-139974761D01*
X183583333Y-140022380D01*
X183678571Y-140022380D01*
X183773809Y-139974761D01*
X183821428Y-139927142D01*
X183869047Y-139831904D01*
X183916666Y-139641428D01*
X183916666Y-139403333D01*
X183869047Y-139212857D01*
X183821428Y-139117619D01*
X183773809Y-139070000D01*
X183678571Y-139022380D01*
X182726190Y-139022380D02*
X182630952Y-139022380D01*
X182535714Y-139070000D01*
X182488095Y-139117619D01*
X182440476Y-139212857D01*
X182392857Y-139403333D01*
X182392857Y-139641428D01*
X182440476Y-139831904D01*
X182488095Y-139927142D01*
X182535714Y-139974761D01*
X182630952Y-140022380D01*
X182726190Y-140022380D01*
X182821428Y-139974761D01*
X182869047Y-139927142D01*
X182916666Y-139831904D01*
X182964285Y-139641428D01*
X182964285Y-139403333D01*
X182916666Y-139212857D01*
X182869047Y-139117619D01*
X182821428Y-139070000D01*
X182726190Y-139022380D01*
X181964285Y-139355714D02*
X181964285Y-140022380D01*
X181964285Y-139450952D02*
X181916666Y-139403333D01*
X181821428Y-139355714D01*
X181678571Y-139355714D01*
X181583333Y-139403333D01*
X181535714Y-139498571D01*
X181535714Y-140022380D01*
X180726190Y-139498571D02*
X181059523Y-139498571D01*
X181059523Y-140022380D02*
X181059523Y-139022380D01*
X180583333Y-139022380D01*
D13*
X182816666Y-141142857D02*
X182835714Y-141161904D01*
X182892857Y-141180952D01*
X182930952Y-141180952D01*
X182988095Y-141161904D01*
X183026190Y-141123809D01*
X183045238Y-141085714D01*
X183064285Y-141009523D01*
X183064285Y-140952380D01*
X183045238Y-140876190D01*
X183026190Y-140838095D01*
X182988095Y-140800000D01*
X182930952Y-140780952D01*
X182892857Y-140780952D01*
X182835714Y-140800000D01*
X182816666Y-140819047D01*
X182435714Y-141180952D02*
X182664285Y-141180952D01*
X182550000Y-141180952D02*
X182550000Y-140780952D01*
X182588095Y-140838095D01*
X182626190Y-140876190D01*
X182664285Y-140895238D01*
%TO.C,D1*%
D12*
X108394285Y-80474761D02*
X108251428Y-80522380D01*
X108013333Y-80522380D01*
X107918095Y-80474761D01*
X107870476Y-80427142D01*
X107822857Y-80331904D01*
X107822857Y-80236666D01*
X107870476Y-80141428D01*
X107918095Y-80093809D01*
X108013333Y-80046190D01*
X108203809Y-79998571D01*
X108299047Y-79950952D01*
X108346666Y-79903333D01*
X108394285Y-79808095D01*
X108394285Y-79712857D01*
X108346666Y-79617619D01*
X108299047Y-79570000D01*
X108203809Y-79522380D01*
X107965714Y-79522380D01*
X107822857Y-79570000D01*
X107441904Y-80474761D02*
X107299047Y-80522380D01*
X107060952Y-80522380D01*
X106965714Y-80474761D01*
X106918095Y-80427142D01*
X106870476Y-80331904D01*
X106870476Y-80236666D01*
X106918095Y-80141428D01*
X106965714Y-80093809D01*
X107060952Y-80046190D01*
X107251428Y-79998571D01*
X107346666Y-79950952D01*
X107394285Y-79903333D01*
X107441904Y-79808095D01*
X107441904Y-79712857D01*
X107394285Y-79617619D01*
X107346666Y-79570000D01*
X107251428Y-79522380D01*
X107013333Y-79522380D01*
X106870476Y-79570000D01*
X106489523Y-79617619D02*
X106441904Y-79570000D01*
X106346666Y-79522380D01*
X106108571Y-79522380D01*
X106013333Y-79570000D01*
X105965714Y-79617619D01*
X105918095Y-79712857D01*
X105918095Y-79808095D01*
X105965714Y-79950952D01*
X106537142Y-80522380D01*
X105918095Y-80522380D01*
X105060952Y-79855714D02*
X105060952Y-80522380D01*
X105299047Y-79474761D02*
X105537142Y-80189047D01*
X104918095Y-80189047D01*
X107418095Y-75422380D02*
X107418095Y-74422380D01*
X107180000Y-74422380D01*
X107037142Y-74470000D01*
X106941904Y-74565238D01*
X106894285Y-74660476D01*
X106846666Y-74850952D01*
X106846666Y-74993809D01*
X106894285Y-75184285D01*
X106941904Y-75279523D01*
X107037142Y-75374761D01*
X107180000Y-75422380D01*
X107418095Y-75422380D01*
X105894285Y-75422380D02*
X106465714Y-75422380D01*
X106180000Y-75422380D02*
X106180000Y-74422380D01*
X106275238Y-74565238D01*
X106370476Y-74660476D01*
X106465714Y-74708095D01*
%TO.C,D2*%
X123634285Y-80474761D02*
X123491428Y-80522380D01*
X123253333Y-80522380D01*
X123158095Y-80474761D01*
X123110476Y-80427142D01*
X123062857Y-80331904D01*
X123062857Y-80236666D01*
X123110476Y-80141428D01*
X123158095Y-80093809D01*
X123253333Y-80046190D01*
X123443809Y-79998571D01*
X123539047Y-79950952D01*
X123586666Y-79903333D01*
X123634285Y-79808095D01*
X123634285Y-79712857D01*
X123586666Y-79617619D01*
X123539047Y-79570000D01*
X123443809Y-79522380D01*
X123205714Y-79522380D01*
X123062857Y-79570000D01*
X122681904Y-80474761D02*
X122539047Y-80522380D01*
X122300952Y-80522380D01*
X122205714Y-80474761D01*
X122158095Y-80427142D01*
X122110476Y-80331904D01*
X122110476Y-80236666D01*
X122158095Y-80141428D01*
X122205714Y-80093809D01*
X122300952Y-80046190D01*
X122491428Y-79998571D01*
X122586666Y-79950952D01*
X122634285Y-79903333D01*
X122681904Y-79808095D01*
X122681904Y-79712857D01*
X122634285Y-79617619D01*
X122586666Y-79570000D01*
X122491428Y-79522380D01*
X122253333Y-79522380D01*
X122110476Y-79570000D01*
X121729523Y-79617619D02*
X121681904Y-79570000D01*
X121586666Y-79522380D01*
X121348571Y-79522380D01*
X121253333Y-79570000D01*
X121205714Y-79617619D01*
X121158095Y-79712857D01*
X121158095Y-79808095D01*
X121205714Y-79950952D01*
X121777142Y-80522380D01*
X121158095Y-80522380D01*
X120300952Y-79855714D02*
X120300952Y-80522380D01*
X120539047Y-79474761D02*
X120777142Y-80189047D01*
X120158095Y-80189047D01*
X122658095Y-75422380D02*
X122658095Y-74422380D01*
X122420000Y-74422380D01*
X122277142Y-74470000D01*
X122181904Y-74565238D01*
X122134285Y-74660476D01*
X122086666Y-74850952D01*
X122086666Y-74993809D01*
X122134285Y-75184285D01*
X122181904Y-75279523D01*
X122277142Y-75374761D01*
X122420000Y-75422380D01*
X122658095Y-75422380D01*
X121705714Y-74517619D02*
X121658095Y-74470000D01*
X121562857Y-74422380D01*
X121324761Y-74422380D01*
X121229523Y-74470000D01*
X121181904Y-74517619D01*
X121134285Y-74612857D01*
X121134285Y-74708095D01*
X121181904Y-74850952D01*
X121753333Y-75422380D01*
X121134285Y-75422380D01*
%TO.C,D3*%
X138874285Y-80474761D02*
X138731428Y-80522380D01*
X138493333Y-80522380D01*
X138398095Y-80474761D01*
X138350476Y-80427142D01*
X138302857Y-80331904D01*
X138302857Y-80236666D01*
X138350476Y-80141428D01*
X138398095Y-80093809D01*
X138493333Y-80046190D01*
X138683809Y-79998571D01*
X138779047Y-79950952D01*
X138826666Y-79903333D01*
X138874285Y-79808095D01*
X138874285Y-79712857D01*
X138826666Y-79617619D01*
X138779047Y-79570000D01*
X138683809Y-79522380D01*
X138445714Y-79522380D01*
X138302857Y-79570000D01*
X137921904Y-80474761D02*
X137779047Y-80522380D01*
X137540952Y-80522380D01*
X137445714Y-80474761D01*
X137398095Y-80427142D01*
X137350476Y-80331904D01*
X137350476Y-80236666D01*
X137398095Y-80141428D01*
X137445714Y-80093809D01*
X137540952Y-80046190D01*
X137731428Y-79998571D01*
X137826666Y-79950952D01*
X137874285Y-79903333D01*
X137921904Y-79808095D01*
X137921904Y-79712857D01*
X137874285Y-79617619D01*
X137826666Y-79570000D01*
X137731428Y-79522380D01*
X137493333Y-79522380D01*
X137350476Y-79570000D01*
X136969523Y-79617619D02*
X136921904Y-79570000D01*
X136826666Y-79522380D01*
X136588571Y-79522380D01*
X136493333Y-79570000D01*
X136445714Y-79617619D01*
X136398095Y-79712857D01*
X136398095Y-79808095D01*
X136445714Y-79950952D01*
X137017142Y-80522380D01*
X136398095Y-80522380D01*
X135540952Y-79855714D02*
X135540952Y-80522380D01*
X135779047Y-79474761D02*
X136017142Y-80189047D01*
X135398095Y-80189047D01*
X137898095Y-75422380D02*
X137898095Y-74422380D01*
X137660000Y-74422380D01*
X137517142Y-74470000D01*
X137421904Y-74565238D01*
X137374285Y-74660476D01*
X137326666Y-74850952D01*
X137326666Y-74993809D01*
X137374285Y-75184285D01*
X137421904Y-75279523D01*
X137517142Y-75374761D01*
X137660000Y-75422380D01*
X137898095Y-75422380D01*
X136993333Y-74422380D02*
X136374285Y-74422380D01*
X136707619Y-74803333D01*
X136564761Y-74803333D01*
X136469523Y-74850952D01*
X136421904Y-74898571D01*
X136374285Y-74993809D01*
X136374285Y-75231904D01*
X136421904Y-75327142D01*
X136469523Y-75374761D01*
X136564761Y-75422380D01*
X136850476Y-75422380D01*
X136945714Y-75374761D01*
X136993333Y-75327142D01*
%TO.C,D4*%
X154114285Y-80474761D02*
X153971428Y-80522380D01*
X153733333Y-80522380D01*
X153638095Y-80474761D01*
X153590476Y-80427142D01*
X153542857Y-80331904D01*
X153542857Y-80236666D01*
X153590476Y-80141428D01*
X153638095Y-80093809D01*
X153733333Y-80046190D01*
X153923809Y-79998571D01*
X154019047Y-79950952D01*
X154066666Y-79903333D01*
X154114285Y-79808095D01*
X154114285Y-79712857D01*
X154066666Y-79617619D01*
X154019047Y-79570000D01*
X153923809Y-79522380D01*
X153685714Y-79522380D01*
X153542857Y-79570000D01*
X153161904Y-80474761D02*
X153019047Y-80522380D01*
X152780952Y-80522380D01*
X152685714Y-80474761D01*
X152638095Y-80427142D01*
X152590476Y-80331904D01*
X152590476Y-80236666D01*
X152638095Y-80141428D01*
X152685714Y-80093809D01*
X152780952Y-80046190D01*
X152971428Y-79998571D01*
X153066666Y-79950952D01*
X153114285Y-79903333D01*
X153161904Y-79808095D01*
X153161904Y-79712857D01*
X153114285Y-79617619D01*
X153066666Y-79570000D01*
X152971428Y-79522380D01*
X152733333Y-79522380D01*
X152590476Y-79570000D01*
X152209523Y-79617619D02*
X152161904Y-79570000D01*
X152066666Y-79522380D01*
X151828571Y-79522380D01*
X151733333Y-79570000D01*
X151685714Y-79617619D01*
X151638095Y-79712857D01*
X151638095Y-79808095D01*
X151685714Y-79950952D01*
X152257142Y-80522380D01*
X151638095Y-80522380D01*
X150780952Y-79855714D02*
X150780952Y-80522380D01*
X151019047Y-79474761D02*
X151257142Y-80189047D01*
X150638095Y-80189047D01*
X153138095Y-75422380D02*
X153138095Y-74422380D01*
X152900000Y-74422380D01*
X152757142Y-74470000D01*
X152661904Y-74565238D01*
X152614285Y-74660476D01*
X152566666Y-74850952D01*
X152566666Y-74993809D01*
X152614285Y-75184285D01*
X152661904Y-75279523D01*
X152757142Y-75374761D01*
X152900000Y-75422380D01*
X153138095Y-75422380D01*
X151709523Y-74755714D02*
X151709523Y-75422380D01*
X151947619Y-74374761D02*
X152185714Y-75089047D01*
X151566666Y-75089047D01*
%TO.C,D5*%
X162269761Y-75850714D02*
X162317380Y-75993571D01*
X162317380Y-76231666D01*
X162269761Y-76326904D01*
X162222142Y-76374523D01*
X162126904Y-76422142D01*
X162031666Y-76422142D01*
X161936428Y-76374523D01*
X161888809Y-76326904D01*
X161841190Y-76231666D01*
X161793571Y-76041190D01*
X161745952Y-75945952D01*
X161698333Y-75898333D01*
X161603095Y-75850714D01*
X161507857Y-75850714D01*
X161412619Y-75898333D01*
X161365000Y-75945952D01*
X161317380Y-76041190D01*
X161317380Y-76279285D01*
X161365000Y-76422142D01*
X162269761Y-76803095D02*
X162317380Y-76945952D01*
X162317380Y-77184047D01*
X162269761Y-77279285D01*
X162222142Y-77326904D01*
X162126904Y-77374523D01*
X162031666Y-77374523D01*
X161936428Y-77326904D01*
X161888809Y-77279285D01*
X161841190Y-77184047D01*
X161793571Y-76993571D01*
X161745952Y-76898333D01*
X161698333Y-76850714D01*
X161603095Y-76803095D01*
X161507857Y-76803095D01*
X161412619Y-76850714D01*
X161365000Y-76898333D01*
X161317380Y-76993571D01*
X161317380Y-77231666D01*
X161365000Y-77374523D01*
X161412619Y-77755476D02*
X161365000Y-77803095D01*
X161317380Y-77898333D01*
X161317380Y-78136428D01*
X161365000Y-78231666D01*
X161412619Y-78279285D01*
X161507857Y-78326904D01*
X161603095Y-78326904D01*
X161745952Y-78279285D01*
X162317380Y-77707857D01*
X162317380Y-78326904D01*
X161650714Y-79184047D02*
X162317380Y-79184047D01*
X161269761Y-78945952D02*
X161984047Y-78707857D01*
X161984047Y-79326904D01*
X167417380Y-76826904D02*
X166417380Y-76826904D01*
X166417380Y-77065000D01*
X166465000Y-77207857D01*
X166560238Y-77303095D01*
X166655476Y-77350714D01*
X166845952Y-77398333D01*
X166988809Y-77398333D01*
X167179285Y-77350714D01*
X167274523Y-77303095D01*
X167369761Y-77207857D01*
X167417380Y-77065000D01*
X167417380Y-76826904D01*
X166417380Y-78303095D02*
X166417380Y-77826904D01*
X166893571Y-77779285D01*
X166845952Y-77826904D01*
X166798333Y-77922142D01*
X166798333Y-78160238D01*
X166845952Y-78255476D01*
X166893571Y-78303095D01*
X166988809Y-78350714D01*
X167226904Y-78350714D01*
X167322142Y-78303095D01*
X167369761Y-78255476D01*
X167417380Y-78160238D01*
X167417380Y-77922142D01*
X167369761Y-77826904D01*
X167322142Y-77779285D01*
%TO.C,D6*%
X190944285Y-80474761D02*
X190801428Y-80522380D01*
X190563333Y-80522380D01*
X190468095Y-80474761D01*
X190420476Y-80427142D01*
X190372857Y-80331904D01*
X190372857Y-80236666D01*
X190420476Y-80141428D01*
X190468095Y-80093809D01*
X190563333Y-80046190D01*
X190753809Y-79998571D01*
X190849047Y-79950952D01*
X190896666Y-79903333D01*
X190944285Y-79808095D01*
X190944285Y-79712857D01*
X190896666Y-79617619D01*
X190849047Y-79570000D01*
X190753809Y-79522380D01*
X190515714Y-79522380D01*
X190372857Y-79570000D01*
X189991904Y-80474761D02*
X189849047Y-80522380D01*
X189610952Y-80522380D01*
X189515714Y-80474761D01*
X189468095Y-80427142D01*
X189420476Y-80331904D01*
X189420476Y-80236666D01*
X189468095Y-80141428D01*
X189515714Y-80093809D01*
X189610952Y-80046190D01*
X189801428Y-79998571D01*
X189896666Y-79950952D01*
X189944285Y-79903333D01*
X189991904Y-79808095D01*
X189991904Y-79712857D01*
X189944285Y-79617619D01*
X189896666Y-79570000D01*
X189801428Y-79522380D01*
X189563333Y-79522380D01*
X189420476Y-79570000D01*
X189039523Y-79617619D02*
X188991904Y-79570000D01*
X188896666Y-79522380D01*
X188658571Y-79522380D01*
X188563333Y-79570000D01*
X188515714Y-79617619D01*
X188468095Y-79712857D01*
X188468095Y-79808095D01*
X188515714Y-79950952D01*
X189087142Y-80522380D01*
X188468095Y-80522380D01*
X187610952Y-79855714D02*
X187610952Y-80522380D01*
X187849047Y-79474761D02*
X188087142Y-80189047D01*
X187468095Y-80189047D01*
X189968095Y-75422380D02*
X189968095Y-74422380D01*
X189730000Y-74422380D01*
X189587142Y-74470000D01*
X189491904Y-74565238D01*
X189444285Y-74660476D01*
X189396666Y-74850952D01*
X189396666Y-74993809D01*
X189444285Y-75184285D01*
X189491904Y-75279523D01*
X189587142Y-75374761D01*
X189730000Y-75422380D01*
X189968095Y-75422380D01*
X188539523Y-74422380D02*
X188730000Y-74422380D01*
X188825238Y-74470000D01*
X188872857Y-74517619D01*
X188968095Y-74660476D01*
X189015714Y-74850952D01*
X189015714Y-75231904D01*
X188968095Y-75327142D01*
X188920476Y-75374761D01*
X188825238Y-75422380D01*
X188634761Y-75422380D01*
X188539523Y-75374761D01*
X188491904Y-75327142D01*
X188444285Y-75231904D01*
X188444285Y-74993809D01*
X188491904Y-74898571D01*
X188539523Y-74850952D01*
X188634761Y-74803333D01*
X188825238Y-74803333D01*
X188920476Y-74850952D01*
X188968095Y-74898571D01*
X189015714Y-74993809D01*
%TO.C,D7*%
X108394285Y-95714761D02*
X108251428Y-95762380D01*
X108013333Y-95762380D01*
X107918095Y-95714761D01*
X107870476Y-95667142D01*
X107822857Y-95571904D01*
X107822857Y-95476666D01*
X107870476Y-95381428D01*
X107918095Y-95333809D01*
X108013333Y-95286190D01*
X108203809Y-95238571D01*
X108299047Y-95190952D01*
X108346666Y-95143333D01*
X108394285Y-95048095D01*
X108394285Y-94952857D01*
X108346666Y-94857619D01*
X108299047Y-94810000D01*
X108203809Y-94762380D01*
X107965714Y-94762380D01*
X107822857Y-94810000D01*
X107441904Y-95714761D02*
X107299047Y-95762380D01*
X107060952Y-95762380D01*
X106965714Y-95714761D01*
X106918095Y-95667142D01*
X106870476Y-95571904D01*
X106870476Y-95476666D01*
X106918095Y-95381428D01*
X106965714Y-95333809D01*
X107060952Y-95286190D01*
X107251428Y-95238571D01*
X107346666Y-95190952D01*
X107394285Y-95143333D01*
X107441904Y-95048095D01*
X107441904Y-94952857D01*
X107394285Y-94857619D01*
X107346666Y-94810000D01*
X107251428Y-94762380D01*
X107013333Y-94762380D01*
X106870476Y-94810000D01*
X106489523Y-94857619D02*
X106441904Y-94810000D01*
X106346666Y-94762380D01*
X106108571Y-94762380D01*
X106013333Y-94810000D01*
X105965714Y-94857619D01*
X105918095Y-94952857D01*
X105918095Y-95048095D01*
X105965714Y-95190952D01*
X106537142Y-95762380D01*
X105918095Y-95762380D01*
X105060952Y-95095714D02*
X105060952Y-95762380D01*
X105299047Y-94714761D02*
X105537142Y-95429047D01*
X104918095Y-95429047D01*
X107418095Y-90662380D02*
X107418095Y-89662380D01*
X107180000Y-89662380D01*
X107037142Y-89710000D01*
X106941904Y-89805238D01*
X106894285Y-89900476D01*
X106846666Y-90090952D01*
X106846666Y-90233809D01*
X106894285Y-90424285D01*
X106941904Y-90519523D01*
X107037142Y-90614761D01*
X107180000Y-90662380D01*
X107418095Y-90662380D01*
X106513333Y-89662380D02*
X105846666Y-89662380D01*
X106275238Y-90662380D01*
%TO.C,D8*%
X123634285Y-95714761D02*
X123491428Y-95762380D01*
X123253333Y-95762380D01*
X123158095Y-95714761D01*
X123110476Y-95667142D01*
X123062857Y-95571904D01*
X123062857Y-95476666D01*
X123110476Y-95381428D01*
X123158095Y-95333809D01*
X123253333Y-95286190D01*
X123443809Y-95238571D01*
X123539047Y-95190952D01*
X123586666Y-95143333D01*
X123634285Y-95048095D01*
X123634285Y-94952857D01*
X123586666Y-94857619D01*
X123539047Y-94810000D01*
X123443809Y-94762380D01*
X123205714Y-94762380D01*
X123062857Y-94810000D01*
X122681904Y-95714761D02*
X122539047Y-95762380D01*
X122300952Y-95762380D01*
X122205714Y-95714761D01*
X122158095Y-95667142D01*
X122110476Y-95571904D01*
X122110476Y-95476666D01*
X122158095Y-95381428D01*
X122205714Y-95333809D01*
X122300952Y-95286190D01*
X122491428Y-95238571D01*
X122586666Y-95190952D01*
X122634285Y-95143333D01*
X122681904Y-95048095D01*
X122681904Y-94952857D01*
X122634285Y-94857619D01*
X122586666Y-94810000D01*
X122491428Y-94762380D01*
X122253333Y-94762380D01*
X122110476Y-94810000D01*
X121729523Y-94857619D02*
X121681904Y-94810000D01*
X121586666Y-94762380D01*
X121348571Y-94762380D01*
X121253333Y-94810000D01*
X121205714Y-94857619D01*
X121158095Y-94952857D01*
X121158095Y-95048095D01*
X121205714Y-95190952D01*
X121777142Y-95762380D01*
X121158095Y-95762380D01*
X120300952Y-95095714D02*
X120300952Y-95762380D01*
X120539047Y-94714761D02*
X120777142Y-95429047D01*
X120158095Y-95429047D01*
X122658095Y-90662380D02*
X122658095Y-89662380D01*
X122420000Y-89662380D01*
X122277142Y-89710000D01*
X122181904Y-89805238D01*
X122134285Y-89900476D01*
X122086666Y-90090952D01*
X122086666Y-90233809D01*
X122134285Y-90424285D01*
X122181904Y-90519523D01*
X122277142Y-90614761D01*
X122420000Y-90662380D01*
X122658095Y-90662380D01*
X121515238Y-90090952D02*
X121610476Y-90043333D01*
X121658095Y-89995714D01*
X121705714Y-89900476D01*
X121705714Y-89852857D01*
X121658095Y-89757619D01*
X121610476Y-89710000D01*
X121515238Y-89662380D01*
X121324761Y-89662380D01*
X121229523Y-89710000D01*
X121181904Y-89757619D01*
X121134285Y-89852857D01*
X121134285Y-89900476D01*
X121181904Y-89995714D01*
X121229523Y-90043333D01*
X121324761Y-90090952D01*
X121515238Y-90090952D01*
X121610476Y-90138571D01*
X121658095Y-90186190D01*
X121705714Y-90281428D01*
X121705714Y-90471904D01*
X121658095Y-90567142D01*
X121610476Y-90614761D01*
X121515238Y-90662380D01*
X121324761Y-90662380D01*
X121229523Y-90614761D01*
X121181904Y-90567142D01*
X121134285Y-90471904D01*
X121134285Y-90281428D01*
X121181904Y-90186190D01*
X121229523Y-90138571D01*
X121324761Y-90090952D01*
%TO.C,D9*%
X138874285Y-95714761D02*
X138731428Y-95762380D01*
X138493333Y-95762380D01*
X138398095Y-95714761D01*
X138350476Y-95667142D01*
X138302857Y-95571904D01*
X138302857Y-95476666D01*
X138350476Y-95381428D01*
X138398095Y-95333809D01*
X138493333Y-95286190D01*
X138683809Y-95238571D01*
X138779047Y-95190952D01*
X138826666Y-95143333D01*
X138874285Y-95048095D01*
X138874285Y-94952857D01*
X138826666Y-94857619D01*
X138779047Y-94810000D01*
X138683809Y-94762380D01*
X138445714Y-94762380D01*
X138302857Y-94810000D01*
X137921904Y-95714761D02*
X137779047Y-95762380D01*
X137540952Y-95762380D01*
X137445714Y-95714761D01*
X137398095Y-95667142D01*
X137350476Y-95571904D01*
X137350476Y-95476666D01*
X137398095Y-95381428D01*
X137445714Y-95333809D01*
X137540952Y-95286190D01*
X137731428Y-95238571D01*
X137826666Y-95190952D01*
X137874285Y-95143333D01*
X137921904Y-95048095D01*
X137921904Y-94952857D01*
X137874285Y-94857619D01*
X137826666Y-94810000D01*
X137731428Y-94762380D01*
X137493333Y-94762380D01*
X137350476Y-94810000D01*
X136969523Y-94857619D02*
X136921904Y-94810000D01*
X136826666Y-94762380D01*
X136588571Y-94762380D01*
X136493333Y-94810000D01*
X136445714Y-94857619D01*
X136398095Y-94952857D01*
X136398095Y-95048095D01*
X136445714Y-95190952D01*
X137017142Y-95762380D01*
X136398095Y-95762380D01*
X135540952Y-95095714D02*
X135540952Y-95762380D01*
X135779047Y-94714761D02*
X136017142Y-95429047D01*
X135398095Y-95429047D01*
X137898095Y-90662380D02*
X137898095Y-89662380D01*
X137660000Y-89662380D01*
X137517142Y-89710000D01*
X137421904Y-89805238D01*
X137374285Y-89900476D01*
X137326666Y-90090952D01*
X137326666Y-90233809D01*
X137374285Y-90424285D01*
X137421904Y-90519523D01*
X137517142Y-90614761D01*
X137660000Y-90662380D01*
X137898095Y-90662380D01*
X136850476Y-90662380D02*
X136660000Y-90662380D01*
X136564761Y-90614761D01*
X136517142Y-90567142D01*
X136421904Y-90424285D01*
X136374285Y-90233809D01*
X136374285Y-89852857D01*
X136421904Y-89757619D01*
X136469523Y-89710000D01*
X136564761Y-89662380D01*
X136755238Y-89662380D01*
X136850476Y-89710000D01*
X136898095Y-89757619D01*
X136945714Y-89852857D01*
X136945714Y-90090952D01*
X136898095Y-90186190D01*
X136850476Y-90233809D01*
X136755238Y-90281428D01*
X136564761Y-90281428D01*
X136469523Y-90233809D01*
X136421904Y-90186190D01*
X136374285Y-90090952D01*
%TO.C,D10*%
X154114285Y-95714761D02*
X153971428Y-95762380D01*
X153733333Y-95762380D01*
X153638095Y-95714761D01*
X153590476Y-95667142D01*
X153542857Y-95571904D01*
X153542857Y-95476666D01*
X153590476Y-95381428D01*
X153638095Y-95333809D01*
X153733333Y-95286190D01*
X153923809Y-95238571D01*
X154019047Y-95190952D01*
X154066666Y-95143333D01*
X154114285Y-95048095D01*
X154114285Y-94952857D01*
X154066666Y-94857619D01*
X154019047Y-94810000D01*
X153923809Y-94762380D01*
X153685714Y-94762380D01*
X153542857Y-94810000D01*
X153161904Y-95714761D02*
X153019047Y-95762380D01*
X152780952Y-95762380D01*
X152685714Y-95714761D01*
X152638095Y-95667142D01*
X152590476Y-95571904D01*
X152590476Y-95476666D01*
X152638095Y-95381428D01*
X152685714Y-95333809D01*
X152780952Y-95286190D01*
X152971428Y-95238571D01*
X153066666Y-95190952D01*
X153114285Y-95143333D01*
X153161904Y-95048095D01*
X153161904Y-94952857D01*
X153114285Y-94857619D01*
X153066666Y-94810000D01*
X152971428Y-94762380D01*
X152733333Y-94762380D01*
X152590476Y-94810000D01*
X152209523Y-94857619D02*
X152161904Y-94810000D01*
X152066666Y-94762380D01*
X151828571Y-94762380D01*
X151733333Y-94810000D01*
X151685714Y-94857619D01*
X151638095Y-94952857D01*
X151638095Y-95048095D01*
X151685714Y-95190952D01*
X152257142Y-95762380D01*
X151638095Y-95762380D01*
X150780952Y-95095714D02*
X150780952Y-95762380D01*
X151019047Y-94714761D02*
X151257142Y-95429047D01*
X150638095Y-95429047D01*
X153614285Y-90662380D02*
X153614285Y-89662380D01*
X153376190Y-89662380D01*
X153233333Y-89710000D01*
X153138095Y-89805238D01*
X153090476Y-89900476D01*
X153042857Y-90090952D01*
X153042857Y-90233809D01*
X153090476Y-90424285D01*
X153138095Y-90519523D01*
X153233333Y-90614761D01*
X153376190Y-90662380D01*
X153614285Y-90662380D01*
X152090476Y-90662380D02*
X152661904Y-90662380D01*
X152376190Y-90662380D02*
X152376190Y-89662380D01*
X152471428Y-89805238D01*
X152566666Y-89900476D01*
X152661904Y-89948095D01*
X151471428Y-89662380D02*
X151376190Y-89662380D01*
X151280952Y-89710000D01*
X151233333Y-89757619D01*
X151185714Y-89852857D01*
X151138095Y-90043333D01*
X151138095Y-90281428D01*
X151185714Y-90471904D01*
X151233333Y-90567142D01*
X151280952Y-90614761D01*
X151376190Y-90662380D01*
X151471428Y-90662380D01*
X151566666Y-90614761D01*
X151614285Y-90567142D01*
X151661904Y-90471904D01*
X151709523Y-90281428D01*
X151709523Y-90043333D01*
X151661904Y-89852857D01*
X151614285Y-89757619D01*
X151566666Y-89710000D01*
X151471428Y-89662380D01*
%TO.C,D11*%
X162269761Y-91090714D02*
X162317380Y-91233571D01*
X162317380Y-91471666D01*
X162269761Y-91566904D01*
X162222142Y-91614523D01*
X162126904Y-91662142D01*
X162031666Y-91662142D01*
X161936428Y-91614523D01*
X161888809Y-91566904D01*
X161841190Y-91471666D01*
X161793571Y-91281190D01*
X161745952Y-91185952D01*
X161698333Y-91138333D01*
X161603095Y-91090714D01*
X161507857Y-91090714D01*
X161412619Y-91138333D01*
X161365000Y-91185952D01*
X161317380Y-91281190D01*
X161317380Y-91519285D01*
X161365000Y-91662142D01*
X162269761Y-92043095D02*
X162317380Y-92185952D01*
X162317380Y-92424047D01*
X162269761Y-92519285D01*
X162222142Y-92566904D01*
X162126904Y-92614523D01*
X162031666Y-92614523D01*
X161936428Y-92566904D01*
X161888809Y-92519285D01*
X161841190Y-92424047D01*
X161793571Y-92233571D01*
X161745952Y-92138333D01*
X161698333Y-92090714D01*
X161603095Y-92043095D01*
X161507857Y-92043095D01*
X161412619Y-92090714D01*
X161365000Y-92138333D01*
X161317380Y-92233571D01*
X161317380Y-92471666D01*
X161365000Y-92614523D01*
X161412619Y-92995476D02*
X161365000Y-93043095D01*
X161317380Y-93138333D01*
X161317380Y-93376428D01*
X161365000Y-93471666D01*
X161412619Y-93519285D01*
X161507857Y-93566904D01*
X161603095Y-93566904D01*
X161745952Y-93519285D01*
X162317380Y-92947857D01*
X162317380Y-93566904D01*
X161650714Y-94424047D02*
X162317380Y-94424047D01*
X161269761Y-94185952D02*
X161984047Y-93947857D01*
X161984047Y-94566904D01*
X167417380Y-91590714D02*
X166417380Y-91590714D01*
X166417380Y-91828809D01*
X166465000Y-91971666D01*
X166560238Y-92066904D01*
X166655476Y-92114523D01*
X166845952Y-92162142D01*
X166988809Y-92162142D01*
X167179285Y-92114523D01*
X167274523Y-92066904D01*
X167369761Y-91971666D01*
X167417380Y-91828809D01*
X167417380Y-91590714D01*
X167417380Y-93114523D02*
X167417380Y-92543095D01*
X167417380Y-92828809D02*
X166417380Y-92828809D01*
X166560238Y-92733571D01*
X166655476Y-92638333D01*
X166703095Y-92543095D01*
X167417380Y-94066904D02*
X167417380Y-93495476D01*
X167417380Y-93781190D02*
X166417380Y-93781190D01*
X166560238Y-93685952D01*
X166655476Y-93590714D01*
X166703095Y-93495476D01*
%TO.C,D12*%
X190944285Y-95714761D02*
X190801428Y-95762380D01*
X190563333Y-95762380D01*
X190468095Y-95714761D01*
X190420476Y-95667142D01*
X190372857Y-95571904D01*
X190372857Y-95476666D01*
X190420476Y-95381428D01*
X190468095Y-95333809D01*
X190563333Y-95286190D01*
X190753809Y-95238571D01*
X190849047Y-95190952D01*
X190896666Y-95143333D01*
X190944285Y-95048095D01*
X190944285Y-94952857D01*
X190896666Y-94857619D01*
X190849047Y-94810000D01*
X190753809Y-94762380D01*
X190515714Y-94762380D01*
X190372857Y-94810000D01*
X189991904Y-95714761D02*
X189849047Y-95762380D01*
X189610952Y-95762380D01*
X189515714Y-95714761D01*
X189468095Y-95667142D01*
X189420476Y-95571904D01*
X189420476Y-95476666D01*
X189468095Y-95381428D01*
X189515714Y-95333809D01*
X189610952Y-95286190D01*
X189801428Y-95238571D01*
X189896666Y-95190952D01*
X189944285Y-95143333D01*
X189991904Y-95048095D01*
X189991904Y-94952857D01*
X189944285Y-94857619D01*
X189896666Y-94810000D01*
X189801428Y-94762380D01*
X189563333Y-94762380D01*
X189420476Y-94810000D01*
X189039523Y-94857619D02*
X188991904Y-94810000D01*
X188896666Y-94762380D01*
X188658571Y-94762380D01*
X188563333Y-94810000D01*
X188515714Y-94857619D01*
X188468095Y-94952857D01*
X188468095Y-95048095D01*
X188515714Y-95190952D01*
X189087142Y-95762380D01*
X188468095Y-95762380D01*
X187610952Y-95095714D02*
X187610952Y-95762380D01*
X187849047Y-94714761D02*
X188087142Y-95429047D01*
X187468095Y-95429047D01*
X190444285Y-90662380D02*
X190444285Y-89662380D01*
X190206190Y-89662380D01*
X190063333Y-89710000D01*
X189968095Y-89805238D01*
X189920476Y-89900476D01*
X189872857Y-90090952D01*
X189872857Y-90233809D01*
X189920476Y-90424285D01*
X189968095Y-90519523D01*
X190063333Y-90614761D01*
X190206190Y-90662380D01*
X190444285Y-90662380D01*
X188920476Y-90662380D02*
X189491904Y-90662380D01*
X189206190Y-90662380D02*
X189206190Y-89662380D01*
X189301428Y-89805238D01*
X189396666Y-89900476D01*
X189491904Y-89948095D01*
X188539523Y-89757619D02*
X188491904Y-89710000D01*
X188396666Y-89662380D01*
X188158571Y-89662380D01*
X188063333Y-89710000D01*
X188015714Y-89757619D01*
X187968095Y-89852857D01*
X187968095Y-89948095D01*
X188015714Y-90090952D01*
X188587142Y-90662380D01*
X187968095Y-90662380D01*
%TO.C,D13*%
X108394285Y-110954761D02*
X108251428Y-111002380D01*
X108013333Y-111002380D01*
X107918095Y-110954761D01*
X107870476Y-110907142D01*
X107822857Y-110811904D01*
X107822857Y-110716666D01*
X107870476Y-110621428D01*
X107918095Y-110573809D01*
X108013333Y-110526190D01*
X108203809Y-110478571D01*
X108299047Y-110430952D01*
X108346666Y-110383333D01*
X108394285Y-110288095D01*
X108394285Y-110192857D01*
X108346666Y-110097619D01*
X108299047Y-110050000D01*
X108203809Y-110002380D01*
X107965714Y-110002380D01*
X107822857Y-110050000D01*
X107441904Y-110954761D02*
X107299047Y-111002380D01*
X107060952Y-111002380D01*
X106965714Y-110954761D01*
X106918095Y-110907142D01*
X106870476Y-110811904D01*
X106870476Y-110716666D01*
X106918095Y-110621428D01*
X106965714Y-110573809D01*
X107060952Y-110526190D01*
X107251428Y-110478571D01*
X107346666Y-110430952D01*
X107394285Y-110383333D01*
X107441904Y-110288095D01*
X107441904Y-110192857D01*
X107394285Y-110097619D01*
X107346666Y-110050000D01*
X107251428Y-110002380D01*
X107013333Y-110002380D01*
X106870476Y-110050000D01*
X106489523Y-110097619D02*
X106441904Y-110050000D01*
X106346666Y-110002380D01*
X106108571Y-110002380D01*
X106013333Y-110050000D01*
X105965714Y-110097619D01*
X105918095Y-110192857D01*
X105918095Y-110288095D01*
X105965714Y-110430952D01*
X106537142Y-111002380D01*
X105918095Y-111002380D01*
X105060952Y-110335714D02*
X105060952Y-111002380D01*
X105299047Y-109954761D02*
X105537142Y-110669047D01*
X104918095Y-110669047D01*
X107894285Y-105902380D02*
X107894285Y-104902380D01*
X107656190Y-104902380D01*
X107513333Y-104950000D01*
X107418095Y-105045238D01*
X107370476Y-105140476D01*
X107322857Y-105330952D01*
X107322857Y-105473809D01*
X107370476Y-105664285D01*
X107418095Y-105759523D01*
X107513333Y-105854761D01*
X107656190Y-105902380D01*
X107894285Y-105902380D01*
X106370476Y-105902380D02*
X106941904Y-105902380D01*
X106656190Y-105902380D02*
X106656190Y-104902380D01*
X106751428Y-105045238D01*
X106846666Y-105140476D01*
X106941904Y-105188095D01*
X106037142Y-104902380D02*
X105418095Y-104902380D01*
X105751428Y-105283333D01*
X105608571Y-105283333D01*
X105513333Y-105330952D01*
X105465714Y-105378571D01*
X105418095Y-105473809D01*
X105418095Y-105711904D01*
X105465714Y-105807142D01*
X105513333Y-105854761D01*
X105608571Y-105902380D01*
X105894285Y-105902380D01*
X105989523Y-105854761D01*
X106037142Y-105807142D01*
%TO.C,D14*%
X123634285Y-110954761D02*
X123491428Y-111002380D01*
X123253333Y-111002380D01*
X123158095Y-110954761D01*
X123110476Y-110907142D01*
X123062857Y-110811904D01*
X123062857Y-110716666D01*
X123110476Y-110621428D01*
X123158095Y-110573809D01*
X123253333Y-110526190D01*
X123443809Y-110478571D01*
X123539047Y-110430952D01*
X123586666Y-110383333D01*
X123634285Y-110288095D01*
X123634285Y-110192857D01*
X123586666Y-110097619D01*
X123539047Y-110050000D01*
X123443809Y-110002380D01*
X123205714Y-110002380D01*
X123062857Y-110050000D01*
X122681904Y-110954761D02*
X122539047Y-111002380D01*
X122300952Y-111002380D01*
X122205714Y-110954761D01*
X122158095Y-110907142D01*
X122110476Y-110811904D01*
X122110476Y-110716666D01*
X122158095Y-110621428D01*
X122205714Y-110573809D01*
X122300952Y-110526190D01*
X122491428Y-110478571D01*
X122586666Y-110430952D01*
X122634285Y-110383333D01*
X122681904Y-110288095D01*
X122681904Y-110192857D01*
X122634285Y-110097619D01*
X122586666Y-110050000D01*
X122491428Y-110002380D01*
X122253333Y-110002380D01*
X122110476Y-110050000D01*
X121729523Y-110097619D02*
X121681904Y-110050000D01*
X121586666Y-110002380D01*
X121348571Y-110002380D01*
X121253333Y-110050000D01*
X121205714Y-110097619D01*
X121158095Y-110192857D01*
X121158095Y-110288095D01*
X121205714Y-110430952D01*
X121777142Y-111002380D01*
X121158095Y-111002380D01*
X120300952Y-110335714D02*
X120300952Y-111002380D01*
X120539047Y-109954761D02*
X120777142Y-110669047D01*
X120158095Y-110669047D01*
X123134285Y-105902380D02*
X123134285Y-104902380D01*
X122896190Y-104902380D01*
X122753333Y-104950000D01*
X122658095Y-105045238D01*
X122610476Y-105140476D01*
X122562857Y-105330952D01*
X122562857Y-105473809D01*
X122610476Y-105664285D01*
X122658095Y-105759523D01*
X122753333Y-105854761D01*
X122896190Y-105902380D01*
X123134285Y-105902380D01*
X121610476Y-105902380D02*
X122181904Y-105902380D01*
X121896190Y-105902380D02*
X121896190Y-104902380D01*
X121991428Y-105045238D01*
X122086666Y-105140476D01*
X122181904Y-105188095D01*
X120753333Y-105235714D02*
X120753333Y-105902380D01*
X120991428Y-104854761D02*
X121229523Y-105569047D01*
X120610476Y-105569047D01*
%TO.C,D15*%
X138874285Y-110954761D02*
X138731428Y-111002380D01*
X138493333Y-111002380D01*
X138398095Y-110954761D01*
X138350476Y-110907142D01*
X138302857Y-110811904D01*
X138302857Y-110716666D01*
X138350476Y-110621428D01*
X138398095Y-110573809D01*
X138493333Y-110526190D01*
X138683809Y-110478571D01*
X138779047Y-110430952D01*
X138826666Y-110383333D01*
X138874285Y-110288095D01*
X138874285Y-110192857D01*
X138826666Y-110097619D01*
X138779047Y-110050000D01*
X138683809Y-110002380D01*
X138445714Y-110002380D01*
X138302857Y-110050000D01*
X137921904Y-110954761D02*
X137779047Y-111002380D01*
X137540952Y-111002380D01*
X137445714Y-110954761D01*
X137398095Y-110907142D01*
X137350476Y-110811904D01*
X137350476Y-110716666D01*
X137398095Y-110621428D01*
X137445714Y-110573809D01*
X137540952Y-110526190D01*
X137731428Y-110478571D01*
X137826666Y-110430952D01*
X137874285Y-110383333D01*
X137921904Y-110288095D01*
X137921904Y-110192857D01*
X137874285Y-110097619D01*
X137826666Y-110050000D01*
X137731428Y-110002380D01*
X137493333Y-110002380D01*
X137350476Y-110050000D01*
X136969523Y-110097619D02*
X136921904Y-110050000D01*
X136826666Y-110002380D01*
X136588571Y-110002380D01*
X136493333Y-110050000D01*
X136445714Y-110097619D01*
X136398095Y-110192857D01*
X136398095Y-110288095D01*
X136445714Y-110430952D01*
X137017142Y-111002380D01*
X136398095Y-111002380D01*
X135540952Y-110335714D02*
X135540952Y-111002380D01*
X135779047Y-109954761D02*
X136017142Y-110669047D01*
X135398095Y-110669047D01*
X138374285Y-105902380D02*
X138374285Y-104902380D01*
X138136190Y-104902380D01*
X137993333Y-104950000D01*
X137898095Y-105045238D01*
X137850476Y-105140476D01*
X137802857Y-105330952D01*
X137802857Y-105473809D01*
X137850476Y-105664285D01*
X137898095Y-105759523D01*
X137993333Y-105854761D01*
X138136190Y-105902380D01*
X138374285Y-105902380D01*
X136850476Y-105902380D02*
X137421904Y-105902380D01*
X137136190Y-105902380D02*
X137136190Y-104902380D01*
X137231428Y-105045238D01*
X137326666Y-105140476D01*
X137421904Y-105188095D01*
X135945714Y-104902380D02*
X136421904Y-104902380D01*
X136469523Y-105378571D01*
X136421904Y-105330952D01*
X136326666Y-105283333D01*
X136088571Y-105283333D01*
X135993333Y-105330952D01*
X135945714Y-105378571D01*
X135898095Y-105473809D01*
X135898095Y-105711904D01*
X135945714Y-105807142D01*
X135993333Y-105854761D01*
X136088571Y-105902380D01*
X136326666Y-105902380D01*
X136421904Y-105854761D01*
X136469523Y-105807142D01*
%TO.C,D16*%
X154114285Y-110954761D02*
X153971428Y-111002380D01*
X153733333Y-111002380D01*
X153638095Y-110954761D01*
X153590476Y-110907142D01*
X153542857Y-110811904D01*
X153542857Y-110716666D01*
X153590476Y-110621428D01*
X153638095Y-110573809D01*
X153733333Y-110526190D01*
X153923809Y-110478571D01*
X154019047Y-110430952D01*
X154066666Y-110383333D01*
X154114285Y-110288095D01*
X154114285Y-110192857D01*
X154066666Y-110097619D01*
X154019047Y-110050000D01*
X153923809Y-110002380D01*
X153685714Y-110002380D01*
X153542857Y-110050000D01*
X153161904Y-110954761D02*
X153019047Y-111002380D01*
X152780952Y-111002380D01*
X152685714Y-110954761D01*
X152638095Y-110907142D01*
X152590476Y-110811904D01*
X152590476Y-110716666D01*
X152638095Y-110621428D01*
X152685714Y-110573809D01*
X152780952Y-110526190D01*
X152971428Y-110478571D01*
X153066666Y-110430952D01*
X153114285Y-110383333D01*
X153161904Y-110288095D01*
X153161904Y-110192857D01*
X153114285Y-110097619D01*
X153066666Y-110050000D01*
X152971428Y-110002380D01*
X152733333Y-110002380D01*
X152590476Y-110050000D01*
X152209523Y-110097619D02*
X152161904Y-110050000D01*
X152066666Y-110002380D01*
X151828571Y-110002380D01*
X151733333Y-110050000D01*
X151685714Y-110097619D01*
X151638095Y-110192857D01*
X151638095Y-110288095D01*
X151685714Y-110430952D01*
X152257142Y-111002380D01*
X151638095Y-111002380D01*
X150780952Y-110335714D02*
X150780952Y-111002380D01*
X151019047Y-109954761D02*
X151257142Y-110669047D01*
X150638095Y-110669047D01*
X153614285Y-105902380D02*
X153614285Y-104902380D01*
X153376190Y-104902380D01*
X153233333Y-104950000D01*
X153138095Y-105045238D01*
X153090476Y-105140476D01*
X153042857Y-105330952D01*
X153042857Y-105473809D01*
X153090476Y-105664285D01*
X153138095Y-105759523D01*
X153233333Y-105854761D01*
X153376190Y-105902380D01*
X153614285Y-105902380D01*
X152090476Y-105902380D02*
X152661904Y-105902380D01*
X152376190Y-105902380D02*
X152376190Y-104902380D01*
X152471428Y-105045238D01*
X152566666Y-105140476D01*
X152661904Y-105188095D01*
X151233333Y-104902380D02*
X151423809Y-104902380D01*
X151519047Y-104950000D01*
X151566666Y-104997619D01*
X151661904Y-105140476D01*
X151709523Y-105330952D01*
X151709523Y-105711904D01*
X151661904Y-105807142D01*
X151614285Y-105854761D01*
X151519047Y-105902380D01*
X151328571Y-105902380D01*
X151233333Y-105854761D01*
X151185714Y-105807142D01*
X151138095Y-105711904D01*
X151138095Y-105473809D01*
X151185714Y-105378571D01*
X151233333Y-105330952D01*
X151328571Y-105283333D01*
X151519047Y-105283333D01*
X151614285Y-105330952D01*
X151661904Y-105378571D01*
X151709523Y-105473809D01*
%TO.C,D17*%
X162269761Y-106330714D02*
X162317380Y-106473571D01*
X162317380Y-106711666D01*
X162269761Y-106806904D01*
X162222142Y-106854523D01*
X162126904Y-106902142D01*
X162031666Y-106902142D01*
X161936428Y-106854523D01*
X161888809Y-106806904D01*
X161841190Y-106711666D01*
X161793571Y-106521190D01*
X161745952Y-106425952D01*
X161698333Y-106378333D01*
X161603095Y-106330714D01*
X161507857Y-106330714D01*
X161412619Y-106378333D01*
X161365000Y-106425952D01*
X161317380Y-106521190D01*
X161317380Y-106759285D01*
X161365000Y-106902142D01*
X162269761Y-107283095D02*
X162317380Y-107425952D01*
X162317380Y-107664047D01*
X162269761Y-107759285D01*
X162222142Y-107806904D01*
X162126904Y-107854523D01*
X162031666Y-107854523D01*
X161936428Y-107806904D01*
X161888809Y-107759285D01*
X161841190Y-107664047D01*
X161793571Y-107473571D01*
X161745952Y-107378333D01*
X161698333Y-107330714D01*
X161603095Y-107283095D01*
X161507857Y-107283095D01*
X161412619Y-107330714D01*
X161365000Y-107378333D01*
X161317380Y-107473571D01*
X161317380Y-107711666D01*
X161365000Y-107854523D01*
X161412619Y-108235476D02*
X161365000Y-108283095D01*
X161317380Y-108378333D01*
X161317380Y-108616428D01*
X161365000Y-108711666D01*
X161412619Y-108759285D01*
X161507857Y-108806904D01*
X161603095Y-108806904D01*
X161745952Y-108759285D01*
X162317380Y-108187857D01*
X162317380Y-108806904D01*
X161650714Y-109664047D02*
X162317380Y-109664047D01*
X161269761Y-109425952D02*
X161984047Y-109187857D01*
X161984047Y-109806904D01*
X167417380Y-106830714D02*
X166417380Y-106830714D01*
X166417380Y-107068809D01*
X166465000Y-107211666D01*
X166560238Y-107306904D01*
X166655476Y-107354523D01*
X166845952Y-107402142D01*
X166988809Y-107402142D01*
X167179285Y-107354523D01*
X167274523Y-107306904D01*
X167369761Y-107211666D01*
X167417380Y-107068809D01*
X167417380Y-106830714D01*
X167417380Y-108354523D02*
X167417380Y-107783095D01*
X167417380Y-108068809D02*
X166417380Y-108068809D01*
X166560238Y-107973571D01*
X166655476Y-107878333D01*
X166703095Y-107783095D01*
X166417380Y-108687857D02*
X166417380Y-109354523D01*
X167417380Y-108925952D01*
%TO.C,D18*%
X190944285Y-110954761D02*
X190801428Y-111002380D01*
X190563333Y-111002380D01*
X190468095Y-110954761D01*
X190420476Y-110907142D01*
X190372857Y-110811904D01*
X190372857Y-110716666D01*
X190420476Y-110621428D01*
X190468095Y-110573809D01*
X190563333Y-110526190D01*
X190753809Y-110478571D01*
X190849047Y-110430952D01*
X190896666Y-110383333D01*
X190944285Y-110288095D01*
X190944285Y-110192857D01*
X190896666Y-110097619D01*
X190849047Y-110050000D01*
X190753809Y-110002380D01*
X190515714Y-110002380D01*
X190372857Y-110050000D01*
X189991904Y-110954761D02*
X189849047Y-111002380D01*
X189610952Y-111002380D01*
X189515714Y-110954761D01*
X189468095Y-110907142D01*
X189420476Y-110811904D01*
X189420476Y-110716666D01*
X189468095Y-110621428D01*
X189515714Y-110573809D01*
X189610952Y-110526190D01*
X189801428Y-110478571D01*
X189896666Y-110430952D01*
X189944285Y-110383333D01*
X189991904Y-110288095D01*
X189991904Y-110192857D01*
X189944285Y-110097619D01*
X189896666Y-110050000D01*
X189801428Y-110002380D01*
X189563333Y-110002380D01*
X189420476Y-110050000D01*
X189039523Y-110097619D02*
X188991904Y-110050000D01*
X188896666Y-110002380D01*
X188658571Y-110002380D01*
X188563333Y-110050000D01*
X188515714Y-110097619D01*
X188468095Y-110192857D01*
X188468095Y-110288095D01*
X188515714Y-110430952D01*
X189087142Y-111002380D01*
X188468095Y-111002380D01*
X187610952Y-110335714D02*
X187610952Y-111002380D01*
X187849047Y-109954761D02*
X188087142Y-110669047D01*
X187468095Y-110669047D01*
X190444285Y-105902380D02*
X190444285Y-104902380D01*
X190206190Y-104902380D01*
X190063333Y-104950000D01*
X189968095Y-105045238D01*
X189920476Y-105140476D01*
X189872857Y-105330952D01*
X189872857Y-105473809D01*
X189920476Y-105664285D01*
X189968095Y-105759523D01*
X190063333Y-105854761D01*
X190206190Y-105902380D01*
X190444285Y-105902380D01*
X188920476Y-105902380D02*
X189491904Y-105902380D01*
X189206190Y-105902380D02*
X189206190Y-104902380D01*
X189301428Y-105045238D01*
X189396666Y-105140476D01*
X189491904Y-105188095D01*
X188349047Y-105330952D02*
X188444285Y-105283333D01*
X188491904Y-105235714D01*
X188539523Y-105140476D01*
X188539523Y-105092857D01*
X188491904Y-104997619D01*
X188444285Y-104950000D01*
X188349047Y-104902380D01*
X188158571Y-104902380D01*
X188063333Y-104950000D01*
X188015714Y-104997619D01*
X187968095Y-105092857D01*
X187968095Y-105140476D01*
X188015714Y-105235714D01*
X188063333Y-105283333D01*
X188158571Y-105330952D01*
X188349047Y-105330952D01*
X188444285Y-105378571D01*
X188491904Y-105426190D01*
X188539523Y-105521428D01*
X188539523Y-105711904D01*
X188491904Y-105807142D01*
X188444285Y-105854761D01*
X188349047Y-105902380D01*
X188158571Y-105902380D01*
X188063333Y-105854761D01*
X188015714Y-105807142D01*
X187968095Y-105711904D01*
X187968095Y-105521428D01*
X188015714Y-105426190D01*
X188063333Y-105378571D01*
X188158571Y-105330952D01*
%TO.C,D24*%
X190944285Y-126194761D02*
X190801428Y-126242380D01*
X190563333Y-126242380D01*
X190468095Y-126194761D01*
X190420476Y-126147142D01*
X190372857Y-126051904D01*
X190372857Y-125956666D01*
X190420476Y-125861428D01*
X190468095Y-125813809D01*
X190563333Y-125766190D01*
X190753809Y-125718571D01*
X190849047Y-125670952D01*
X190896666Y-125623333D01*
X190944285Y-125528095D01*
X190944285Y-125432857D01*
X190896666Y-125337619D01*
X190849047Y-125290000D01*
X190753809Y-125242380D01*
X190515714Y-125242380D01*
X190372857Y-125290000D01*
X189991904Y-126194761D02*
X189849047Y-126242380D01*
X189610952Y-126242380D01*
X189515714Y-126194761D01*
X189468095Y-126147142D01*
X189420476Y-126051904D01*
X189420476Y-125956666D01*
X189468095Y-125861428D01*
X189515714Y-125813809D01*
X189610952Y-125766190D01*
X189801428Y-125718571D01*
X189896666Y-125670952D01*
X189944285Y-125623333D01*
X189991904Y-125528095D01*
X189991904Y-125432857D01*
X189944285Y-125337619D01*
X189896666Y-125290000D01*
X189801428Y-125242380D01*
X189563333Y-125242380D01*
X189420476Y-125290000D01*
X189039523Y-125337619D02*
X188991904Y-125290000D01*
X188896666Y-125242380D01*
X188658571Y-125242380D01*
X188563333Y-125290000D01*
X188515714Y-125337619D01*
X188468095Y-125432857D01*
X188468095Y-125528095D01*
X188515714Y-125670952D01*
X189087142Y-126242380D01*
X188468095Y-126242380D01*
X187610952Y-125575714D02*
X187610952Y-126242380D01*
X187849047Y-125194761D02*
X188087142Y-125909047D01*
X187468095Y-125909047D01*
X190444285Y-121142380D02*
X190444285Y-120142380D01*
X190206190Y-120142380D01*
X190063333Y-120190000D01*
X189968095Y-120285238D01*
X189920476Y-120380476D01*
X189872857Y-120570952D01*
X189872857Y-120713809D01*
X189920476Y-120904285D01*
X189968095Y-120999523D01*
X190063333Y-121094761D01*
X190206190Y-121142380D01*
X190444285Y-121142380D01*
X189491904Y-120237619D02*
X189444285Y-120190000D01*
X189349047Y-120142380D01*
X189110952Y-120142380D01*
X189015714Y-120190000D01*
X188968095Y-120237619D01*
X188920476Y-120332857D01*
X188920476Y-120428095D01*
X188968095Y-120570952D01*
X189539523Y-121142380D01*
X188920476Y-121142380D01*
X188063333Y-120475714D02*
X188063333Y-121142380D01*
X188301428Y-120094761D02*
X188539523Y-120809047D01*
X187920476Y-120809047D01*
%TO.C,D19*%
X108394285Y-126194761D02*
X108251428Y-126242380D01*
X108013333Y-126242380D01*
X107918095Y-126194761D01*
X107870476Y-126147142D01*
X107822857Y-126051904D01*
X107822857Y-125956666D01*
X107870476Y-125861428D01*
X107918095Y-125813809D01*
X108013333Y-125766190D01*
X108203809Y-125718571D01*
X108299047Y-125670952D01*
X108346666Y-125623333D01*
X108394285Y-125528095D01*
X108394285Y-125432857D01*
X108346666Y-125337619D01*
X108299047Y-125290000D01*
X108203809Y-125242380D01*
X107965714Y-125242380D01*
X107822857Y-125290000D01*
X107441904Y-126194761D02*
X107299047Y-126242380D01*
X107060952Y-126242380D01*
X106965714Y-126194761D01*
X106918095Y-126147142D01*
X106870476Y-126051904D01*
X106870476Y-125956666D01*
X106918095Y-125861428D01*
X106965714Y-125813809D01*
X107060952Y-125766190D01*
X107251428Y-125718571D01*
X107346666Y-125670952D01*
X107394285Y-125623333D01*
X107441904Y-125528095D01*
X107441904Y-125432857D01*
X107394285Y-125337619D01*
X107346666Y-125290000D01*
X107251428Y-125242380D01*
X107013333Y-125242380D01*
X106870476Y-125290000D01*
X106489523Y-125337619D02*
X106441904Y-125290000D01*
X106346666Y-125242380D01*
X106108571Y-125242380D01*
X106013333Y-125290000D01*
X105965714Y-125337619D01*
X105918095Y-125432857D01*
X105918095Y-125528095D01*
X105965714Y-125670952D01*
X106537142Y-126242380D01*
X105918095Y-126242380D01*
X105060952Y-125575714D02*
X105060952Y-126242380D01*
X105299047Y-125194761D02*
X105537142Y-125909047D01*
X104918095Y-125909047D01*
X107894285Y-121142380D02*
X107894285Y-120142380D01*
X107656190Y-120142380D01*
X107513333Y-120190000D01*
X107418095Y-120285238D01*
X107370476Y-120380476D01*
X107322857Y-120570952D01*
X107322857Y-120713809D01*
X107370476Y-120904285D01*
X107418095Y-120999523D01*
X107513333Y-121094761D01*
X107656190Y-121142380D01*
X107894285Y-121142380D01*
X106370476Y-121142380D02*
X106941904Y-121142380D01*
X106656190Y-121142380D02*
X106656190Y-120142380D01*
X106751428Y-120285238D01*
X106846666Y-120380476D01*
X106941904Y-120428095D01*
X105894285Y-121142380D02*
X105703809Y-121142380D01*
X105608571Y-121094761D01*
X105560952Y-121047142D01*
X105465714Y-120904285D01*
X105418095Y-120713809D01*
X105418095Y-120332857D01*
X105465714Y-120237619D01*
X105513333Y-120190000D01*
X105608571Y-120142380D01*
X105799047Y-120142380D01*
X105894285Y-120190000D01*
X105941904Y-120237619D01*
X105989523Y-120332857D01*
X105989523Y-120570952D01*
X105941904Y-120666190D01*
X105894285Y-120713809D01*
X105799047Y-120761428D01*
X105608571Y-120761428D01*
X105513333Y-120713809D01*
X105465714Y-120666190D01*
X105418095Y-120570952D01*
%TO.C,D20*%
X123634285Y-126194761D02*
X123491428Y-126242380D01*
X123253333Y-126242380D01*
X123158095Y-126194761D01*
X123110476Y-126147142D01*
X123062857Y-126051904D01*
X123062857Y-125956666D01*
X123110476Y-125861428D01*
X123158095Y-125813809D01*
X123253333Y-125766190D01*
X123443809Y-125718571D01*
X123539047Y-125670952D01*
X123586666Y-125623333D01*
X123634285Y-125528095D01*
X123634285Y-125432857D01*
X123586666Y-125337619D01*
X123539047Y-125290000D01*
X123443809Y-125242380D01*
X123205714Y-125242380D01*
X123062857Y-125290000D01*
X122681904Y-126194761D02*
X122539047Y-126242380D01*
X122300952Y-126242380D01*
X122205714Y-126194761D01*
X122158095Y-126147142D01*
X122110476Y-126051904D01*
X122110476Y-125956666D01*
X122158095Y-125861428D01*
X122205714Y-125813809D01*
X122300952Y-125766190D01*
X122491428Y-125718571D01*
X122586666Y-125670952D01*
X122634285Y-125623333D01*
X122681904Y-125528095D01*
X122681904Y-125432857D01*
X122634285Y-125337619D01*
X122586666Y-125290000D01*
X122491428Y-125242380D01*
X122253333Y-125242380D01*
X122110476Y-125290000D01*
X121729523Y-125337619D02*
X121681904Y-125290000D01*
X121586666Y-125242380D01*
X121348571Y-125242380D01*
X121253333Y-125290000D01*
X121205714Y-125337619D01*
X121158095Y-125432857D01*
X121158095Y-125528095D01*
X121205714Y-125670952D01*
X121777142Y-126242380D01*
X121158095Y-126242380D01*
X120300952Y-125575714D02*
X120300952Y-126242380D01*
X120539047Y-125194761D02*
X120777142Y-125909047D01*
X120158095Y-125909047D01*
X123134285Y-121142380D02*
X123134285Y-120142380D01*
X122896190Y-120142380D01*
X122753333Y-120190000D01*
X122658095Y-120285238D01*
X122610476Y-120380476D01*
X122562857Y-120570952D01*
X122562857Y-120713809D01*
X122610476Y-120904285D01*
X122658095Y-120999523D01*
X122753333Y-121094761D01*
X122896190Y-121142380D01*
X123134285Y-121142380D01*
X122181904Y-120237619D02*
X122134285Y-120190000D01*
X122039047Y-120142380D01*
X121800952Y-120142380D01*
X121705714Y-120190000D01*
X121658095Y-120237619D01*
X121610476Y-120332857D01*
X121610476Y-120428095D01*
X121658095Y-120570952D01*
X122229523Y-121142380D01*
X121610476Y-121142380D01*
X120991428Y-120142380D02*
X120896190Y-120142380D01*
X120800952Y-120190000D01*
X120753333Y-120237619D01*
X120705714Y-120332857D01*
X120658095Y-120523333D01*
X120658095Y-120761428D01*
X120705714Y-120951904D01*
X120753333Y-121047142D01*
X120800952Y-121094761D01*
X120896190Y-121142380D01*
X120991428Y-121142380D01*
X121086666Y-121094761D01*
X121134285Y-121047142D01*
X121181904Y-120951904D01*
X121229523Y-120761428D01*
X121229523Y-120523333D01*
X121181904Y-120332857D01*
X121134285Y-120237619D01*
X121086666Y-120190000D01*
X120991428Y-120142380D01*
%TO.C,D21*%
X138874285Y-126194761D02*
X138731428Y-126242380D01*
X138493333Y-126242380D01*
X138398095Y-126194761D01*
X138350476Y-126147142D01*
X138302857Y-126051904D01*
X138302857Y-125956666D01*
X138350476Y-125861428D01*
X138398095Y-125813809D01*
X138493333Y-125766190D01*
X138683809Y-125718571D01*
X138779047Y-125670952D01*
X138826666Y-125623333D01*
X138874285Y-125528095D01*
X138874285Y-125432857D01*
X138826666Y-125337619D01*
X138779047Y-125290000D01*
X138683809Y-125242380D01*
X138445714Y-125242380D01*
X138302857Y-125290000D01*
X137921904Y-126194761D02*
X137779047Y-126242380D01*
X137540952Y-126242380D01*
X137445714Y-126194761D01*
X137398095Y-126147142D01*
X137350476Y-126051904D01*
X137350476Y-125956666D01*
X137398095Y-125861428D01*
X137445714Y-125813809D01*
X137540952Y-125766190D01*
X137731428Y-125718571D01*
X137826666Y-125670952D01*
X137874285Y-125623333D01*
X137921904Y-125528095D01*
X137921904Y-125432857D01*
X137874285Y-125337619D01*
X137826666Y-125290000D01*
X137731428Y-125242380D01*
X137493333Y-125242380D01*
X137350476Y-125290000D01*
X136969523Y-125337619D02*
X136921904Y-125290000D01*
X136826666Y-125242380D01*
X136588571Y-125242380D01*
X136493333Y-125290000D01*
X136445714Y-125337619D01*
X136398095Y-125432857D01*
X136398095Y-125528095D01*
X136445714Y-125670952D01*
X137017142Y-126242380D01*
X136398095Y-126242380D01*
X135540952Y-125575714D02*
X135540952Y-126242380D01*
X135779047Y-125194761D02*
X136017142Y-125909047D01*
X135398095Y-125909047D01*
X138374285Y-121142380D02*
X138374285Y-120142380D01*
X138136190Y-120142380D01*
X137993333Y-120190000D01*
X137898095Y-120285238D01*
X137850476Y-120380476D01*
X137802857Y-120570952D01*
X137802857Y-120713809D01*
X137850476Y-120904285D01*
X137898095Y-120999523D01*
X137993333Y-121094761D01*
X138136190Y-121142380D01*
X138374285Y-121142380D01*
X137421904Y-120237619D02*
X137374285Y-120190000D01*
X137279047Y-120142380D01*
X137040952Y-120142380D01*
X136945714Y-120190000D01*
X136898095Y-120237619D01*
X136850476Y-120332857D01*
X136850476Y-120428095D01*
X136898095Y-120570952D01*
X137469523Y-121142380D01*
X136850476Y-121142380D01*
X135898095Y-121142380D02*
X136469523Y-121142380D01*
X136183809Y-121142380D02*
X136183809Y-120142380D01*
X136279047Y-120285238D01*
X136374285Y-120380476D01*
X136469523Y-120428095D01*
%TO.C,D22*%
X154114285Y-126194761D02*
X153971428Y-126242380D01*
X153733333Y-126242380D01*
X153638095Y-126194761D01*
X153590476Y-126147142D01*
X153542857Y-126051904D01*
X153542857Y-125956666D01*
X153590476Y-125861428D01*
X153638095Y-125813809D01*
X153733333Y-125766190D01*
X153923809Y-125718571D01*
X154019047Y-125670952D01*
X154066666Y-125623333D01*
X154114285Y-125528095D01*
X154114285Y-125432857D01*
X154066666Y-125337619D01*
X154019047Y-125290000D01*
X153923809Y-125242380D01*
X153685714Y-125242380D01*
X153542857Y-125290000D01*
X153161904Y-126194761D02*
X153019047Y-126242380D01*
X152780952Y-126242380D01*
X152685714Y-126194761D01*
X152638095Y-126147142D01*
X152590476Y-126051904D01*
X152590476Y-125956666D01*
X152638095Y-125861428D01*
X152685714Y-125813809D01*
X152780952Y-125766190D01*
X152971428Y-125718571D01*
X153066666Y-125670952D01*
X153114285Y-125623333D01*
X153161904Y-125528095D01*
X153161904Y-125432857D01*
X153114285Y-125337619D01*
X153066666Y-125290000D01*
X152971428Y-125242380D01*
X152733333Y-125242380D01*
X152590476Y-125290000D01*
X152209523Y-125337619D02*
X152161904Y-125290000D01*
X152066666Y-125242380D01*
X151828571Y-125242380D01*
X151733333Y-125290000D01*
X151685714Y-125337619D01*
X151638095Y-125432857D01*
X151638095Y-125528095D01*
X151685714Y-125670952D01*
X152257142Y-126242380D01*
X151638095Y-126242380D01*
X150780952Y-125575714D02*
X150780952Y-126242380D01*
X151019047Y-125194761D02*
X151257142Y-125909047D01*
X150638095Y-125909047D01*
X153614285Y-121142380D02*
X153614285Y-120142380D01*
X153376190Y-120142380D01*
X153233333Y-120190000D01*
X153138095Y-120285238D01*
X153090476Y-120380476D01*
X153042857Y-120570952D01*
X153042857Y-120713809D01*
X153090476Y-120904285D01*
X153138095Y-120999523D01*
X153233333Y-121094761D01*
X153376190Y-121142380D01*
X153614285Y-121142380D01*
X152661904Y-120237619D02*
X152614285Y-120190000D01*
X152519047Y-120142380D01*
X152280952Y-120142380D01*
X152185714Y-120190000D01*
X152138095Y-120237619D01*
X152090476Y-120332857D01*
X152090476Y-120428095D01*
X152138095Y-120570952D01*
X152709523Y-121142380D01*
X152090476Y-121142380D01*
X151709523Y-120237619D02*
X151661904Y-120190000D01*
X151566666Y-120142380D01*
X151328571Y-120142380D01*
X151233333Y-120190000D01*
X151185714Y-120237619D01*
X151138095Y-120332857D01*
X151138095Y-120428095D01*
X151185714Y-120570952D01*
X151757142Y-121142380D01*
X151138095Y-121142380D01*
%TO.C,D23*%
X162269761Y-121570714D02*
X162317380Y-121713571D01*
X162317380Y-121951666D01*
X162269761Y-122046904D01*
X162222142Y-122094523D01*
X162126904Y-122142142D01*
X162031666Y-122142142D01*
X161936428Y-122094523D01*
X161888809Y-122046904D01*
X161841190Y-121951666D01*
X161793571Y-121761190D01*
X161745952Y-121665952D01*
X161698333Y-121618333D01*
X161603095Y-121570714D01*
X161507857Y-121570714D01*
X161412619Y-121618333D01*
X161365000Y-121665952D01*
X161317380Y-121761190D01*
X161317380Y-121999285D01*
X161365000Y-122142142D01*
X162269761Y-122523095D02*
X162317380Y-122665952D01*
X162317380Y-122904047D01*
X162269761Y-122999285D01*
X162222142Y-123046904D01*
X162126904Y-123094523D01*
X162031666Y-123094523D01*
X161936428Y-123046904D01*
X161888809Y-122999285D01*
X161841190Y-122904047D01*
X161793571Y-122713571D01*
X161745952Y-122618333D01*
X161698333Y-122570714D01*
X161603095Y-122523095D01*
X161507857Y-122523095D01*
X161412619Y-122570714D01*
X161365000Y-122618333D01*
X161317380Y-122713571D01*
X161317380Y-122951666D01*
X161365000Y-123094523D01*
X161412619Y-123475476D02*
X161365000Y-123523095D01*
X161317380Y-123618333D01*
X161317380Y-123856428D01*
X161365000Y-123951666D01*
X161412619Y-123999285D01*
X161507857Y-124046904D01*
X161603095Y-124046904D01*
X161745952Y-123999285D01*
X162317380Y-123427857D01*
X162317380Y-124046904D01*
X161650714Y-124904047D02*
X162317380Y-124904047D01*
X161269761Y-124665952D02*
X161984047Y-124427857D01*
X161984047Y-125046904D01*
X167417380Y-122070714D02*
X166417380Y-122070714D01*
X166417380Y-122308809D01*
X166465000Y-122451666D01*
X166560238Y-122546904D01*
X166655476Y-122594523D01*
X166845952Y-122642142D01*
X166988809Y-122642142D01*
X167179285Y-122594523D01*
X167274523Y-122546904D01*
X167369761Y-122451666D01*
X167417380Y-122308809D01*
X167417380Y-122070714D01*
X166512619Y-123023095D02*
X166465000Y-123070714D01*
X166417380Y-123165952D01*
X166417380Y-123404047D01*
X166465000Y-123499285D01*
X166512619Y-123546904D01*
X166607857Y-123594523D01*
X166703095Y-123594523D01*
X166845952Y-123546904D01*
X167417380Y-122975476D01*
X167417380Y-123594523D01*
X166417380Y-123927857D02*
X166417380Y-124546904D01*
X166798333Y-124213571D01*
X166798333Y-124356428D01*
X166845952Y-124451666D01*
X166893571Y-124499285D01*
X166988809Y-124546904D01*
X167226904Y-124546904D01*
X167322142Y-124499285D01*
X167369761Y-124451666D01*
X167417380Y-124356428D01*
X167417380Y-124070714D01*
X167369761Y-123975476D01*
X167322142Y-123927857D01*
%TO.C,D26*%
X119189285Y-133814761D02*
X119046428Y-133862380D01*
X118808333Y-133862380D01*
X118713095Y-133814761D01*
X118665476Y-133767142D01*
X118617857Y-133671904D01*
X118617857Y-133576666D01*
X118665476Y-133481428D01*
X118713095Y-133433809D01*
X118808333Y-133386190D01*
X118998809Y-133338571D01*
X119094047Y-133290952D01*
X119141666Y-133243333D01*
X119189285Y-133148095D01*
X119189285Y-133052857D01*
X119141666Y-132957619D01*
X119094047Y-132910000D01*
X118998809Y-132862380D01*
X118760714Y-132862380D01*
X118617857Y-132910000D01*
X118236904Y-133814761D02*
X118094047Y-133862380D01*
X117855952Y-133862380D01*
X117760714Y-133814761D01*
X117713095Y-133767142D01*
X117665476Y-133671904D01*
X117665476Y-133576666D01*
X117713095Y-133481428D01*
X117760714Y-133433809D01*
X117855952Y-133386190D01*
X118046428Y-133338571D01*
X118141666Y-133290952D01*
X118189285Y-133243333D01*
X118236904Y-133148095D01*
X118236904Y-133052857D01*
X118189285Y-132957619D01*
X118141666Y-132910000D01*
X118046428Y-132862380D01*
X117808333Y-132862380D01*
X117665476Y-132910000D01*
X117284523Y-132957619D02*
X117236904Y-132910000D01*
X117141666Y-132862380D01*
X116903571Y-132862380D01*
X116808333Y-132910000D01*
X116760714Y-132957619D01*
X116713095Y-133052857D01*
X116713095Y-133148095D01*
X116760714Y-133290952D01*
X117332142Y-133862380D01*
X116713095Y-133862380D01*
X115855952Y-133195714D02*
X115855952Y-133862380D01*
X116094047Y-132814761D02*
X116332142Y-133529047D01*
X115713095Y-133529047D01*
X118689285Y-128762380D02*
X118689285Y-127762380D01*
X118451190Y-127762380D01*
X118308333Y-127810000D01*
X118213095Y-127905238D01*
X118165476Y-128000476D01*
X118117857Y-128190952D01*
X118117857Y-128333809D01*
X118165476Y-128524285D01*
X118213095Y-128619523D01*
X118308333Y-128714761D01*
X118451190Y-128762380D01*
X118689285Y-128762380D01*
X117736904Y-127857619D02*
X117689285Y-127810000D01*
X117594047Y-127762380D01*
X117355952Y-127762380D01*
X117260714Y-127810000D01*
X117213095Y-127857619D01*
X117165476Y-127952857D01*
X117165476Y-128048095D01*
X117213095Y-128190952D01*
X117784523Y-128762380D01*
X117165476Y-128762380D01*
X116308333Y-127762380D02*
X116498809Y-127762380D01*
X116594047Y-127810000D01*
X116641666Y-127857619D01*
X116736904Y-128000476D01*
X116784523Y-128190952D01*
X116784523Y-128571904D01*
X116736904Y-128667142D01*
X116689285Y-128714761D01*
X116594047Y-128762380D01*
X116403571Y-128762380D01*
X116308333Y-128714761D01*
X116260714Y-128667142D01*
X116213095Y-128571904D01*
X116213095Y-128333809D01*
X116260714Y-128238571D01*
X116308333Y-128190952D01*
X116403571Y-128143333D01*
X116594047Y-128143333D01*
X116689285Y-128190952D01*
X116736904Y-128238571D01*
X116784523Y-128333809D01*
%TO.C,D27*%
X133064285Y-133814761D02*
X132921428Y-133862380D01*
X132683333Y-133862380D01*
X132588095Y-133814761D01*
X132540476Y-133767142D01*
X132492857Y-133671904D01*
X132492857Y-133576666D01*
X132540476Y-133481428D01*
X132588095Y-133433809D01*
X132683333Y-133386190D01*
X132873809Y-133338571D01*
X132969047Y-133290952D01*
X133016666Y-133243333D01*
X133064285Y-133148095D01*
X133064285Y-133052857D01*
X133016666Y-132957619D01*
X132969047Y-132910000D01*
X132873809Y-132862380D01*
X132635714Y-132862380D01*
X132492857Y-132910000D01*
X132111904Y-133814761D02*
X131969047Y-133862380D01*
X131730952Y-133862380D01*
X131635714Y-133814761D01*
X131588095Y-133767142D01*
X131540476Y-133671904D01*
X131540476Y-133576666D01*
X131588095Y-133481428D01*
X131635714Y-133433809D01*
X131730952Y-133386190D01*
X131921428Y-133338571D01*
X132016666Y-133290952D01*
X132064285Y-133243333D01*
X132111904Y-133148095D01*
X132111904Y-133052857D01*
X132064285Y-132957619D01*
X132016666Y-132910000D01*
X131921428Y-132862380D01*
X131683333Y-132862380D01*
X131540476Y-132910000D01*
X131159523Y-132957619D02*
X131111904Y-132910000D01*
X131016666Y-132862380D01*
X130778571Y-132862380D01*
X130683333Y-132910000D01*
X130635714Y-132957619D01*
X130588095Y-133052857D01*
X130588095Y-133148095D01*
X130635714Y-133290952D01*
X131207142Y-133862380D01*
X130588095Y-133862380D01*
X129730952Y-133195714D02*
X129730952Y-133862380D01*
X129969047Y-132814761D02*
X130207142Y-133529047D01*
X129588095Y-133529047D01*
X132564285Y-128762380D02*
X132564285Y-127762380D01*
X132326190Y-127762380D01*
X132183333Y-127810000D01*
X132088095Y-127905238D01*
X132040476Y-128000476D01*
X131992857Y-128190952D01*
X131992857Y-128333809D01*
X132040476Y-128524285D01*
X132088095Y-128619523D01*
X132183333Y-128714761D01*
X132326190Y-128762380D01*
X132564285Y-128762380D01*
X131611904Y-127857619D02*
X131564285Y-127810000D01*
X131469047Y-127762380D01*
X131230952Y-127762380D01*
X131135714Y-127810000D01*
X131088095Y-127857619D01*
X131040476Y-127952857D01*
X131040476Y-128048095D01*
X131088095Y-128190952D01*
X131659523Y-128762380D01*
X131040476Y-128762380D01*
X130707142Y-127762380D02*
X130040476Y-127762380D01*
X130469047Y-128762380D01*
%TO.C,D30*%
X161639285Y-136354761D02*
X161496428Y-136402380D01*
X161258333Y-136402380D01*
X161163095Y-136354761D01*
X161115476Y-136307142D01*
X161067857Y-136211904D01*
X161067857Y-136116666D01*
X161115476Y-136021428D01*
X161163095Y-135973809D01*
X161258333Y-135926190D01*
X161448809Y-135878571D01*
X161544047Y-135830952D01*
X161591666Y-135783333D01*
X161639285Y-135688095D01*
X161639285Y-135592857D01*
X161591666Y-135497619D01*
X161544047Y-135450000D01*
X161448809Y-135402380D01*
X161210714Y-135402380D01*
X161067857Y-135450000D01*
X160686904Y-136354761D02*
X160544047Y-136402380D01*
X160305952Y-136402380D01*
X160210714Y-136354761D01*
X160163095Y-136307142D01*
X160115476Y-136211904D01*
X160115476Y-136116666D01*
X160163095Y-136021428D01*
X160210714Y-135973809D01*
X160305952Y-135926190D01*
X160496428Y-135878571D01*
X160591666Y-135830952D01*
X160639285Y-135783333D01*
X160686904Y-135688095D01*
X160686904Y-135592857D01*
X160639285Y-135497619D01*
X160591666Y-135450000D01*
X160496428Y-135402380D01*
X160258333Y-135402380D01*
X160115476Y-135450000D01*
X159734523Y-135497619D02*
X159686904Y-135450000D01*
X159591666Y-135402380D01*
X159353571Y-135402380D01*
X159258333Y-135450000D01*
X159210714Y-135497619D01*
X159163095Y-135592857D01*
X159163095Y-135688095D01*
X159210714Y-135830952D01*
X159782142Y-136402380D01*
X159163095Y-136402380D01*
X158305952Y-135735714D02*
X158305952Y-136402380D01*
X158544047Y-135354761D02*
X158782142Y-136069047D01*
X158163095Y-136069047D01*
X161139285Y-131302380D02*
X161139285Y-130302380D01*
X160901190Y-130302380D01*
X160758333Y-130350000D01*
X160663095Y-130445238D01*
X160615476Y-130540476D01*
X160567857Y-130730952D01*
X160567857Y-130873809D01*
X160615476Y-131064285D01*
X160663095Y-131159523D01*
X160758333Y-131254761D01*
X160901190Y-131302380D01*
X161139285Y-131302380D01*
X160234523Y-130302380D02*
X159615476Y-130302380D01*
X159948809Y-130683333D01*
X159805952Y-130683333D01*
X159710714Y-130730952D01*
X159663095Y-130778571D01*
X159615476Y-130873809D01*
X159615476Y-131111904D01*
X159663095Y-131207142D01*
X159710714Y-131254761D01*
X159805952Y-131302380D01*
X160091666Y-131302380D01*
X160186904Y-131254761D01*
X160234523Y-131207142D01*
X158996428Y-130302380D02*
X158901190Y-130302380D01*
X158805952Y-130350000D01*
X158758333Y-130397619D01*
X158710714Y-130492857D01*
X158663095Y-130683333D01*
X158663095Y-130921428D01*
X158710714Y-131111904D01*
X158758333Y-131207142D01*
X158805952Y-131254761D01*
X158901190Y-131302380D01*
X158996428Y-131302380D01*
X159091666Y-131254761D01*
X159139285Y-131207142D01*
X159186904Y-131111904D01*
X159234523Y-130921428D01*
X159234523Y-130683333D01*
X159186904Y-130492857D01*
X159139285Y-130397619D01*
X159091666Y-130350000D01*
X158996428Y-130302380D01*
%TO.C,D31*%
X147034285Y-133814761D02*
X146891428Y-133862380D01*
X146653333Y-133862380D01*
X146558095Y-133814761D01*
X146510476Y-133767142D01*
X146462857Y-133671904D01*
X146462857Y-133576666D01*
X146510476Y-133481428D01*
X146558095Y-133433809D01*
X146653333Y-133386190D01*
X146843809Y-133338571D01*
X146939047Y-133290952D01*
X146986666Y-133243333D01*
X147034285Y-133148095D01*
X147034285Y-133052857D01*
X146986666Y-132957619D01*
X146939047Y-132910000D01*
X146843809Y-132862380D01*
X146605714Y-132862380D01*
X146462857Y-132910000D01*
X146081904Y-133814761D02*
X145939047Y-133862380D01*
X145700952Y-133862380D01*
X145605714Y-133814761D01*
X145558095Y-133767142D01*
X145510476Y-133671904D01*
X145510476Y-133576666D01*
X145558095Y-133481428D01*
X145605714Y-133433809D01*
X145700952Y-133386190D01*
X145891428Y-133338571D01*
X145986666Y-133290952D01*
X146034285Y-133243333D01*
X146081904Y-133148095D01*
X146081904Y-133052857D01*
X146034285Y-132957619D01*
X145986666Y-132910000D01*
X145891428Y-132862380D01*
X145653333Y-132862380D01*
X145510476Y-132910000D01*
X145129523Y-132957619D02*
X145081904Y-132910000D01*
X144986666Y-132862380D01*
X144748571Y-132862380D01*
X144653333Y-132910000D01*
X144605714Y-132957619D01*
X144558095Y-133052857D01*
X144558095Y-133148095D01*
X144605714Y-133290952D01*
X145177142Y-133862380D01*
X144558095Y-133862380D01*
X143700952Y-133195714D02*
X143700952Y-133862380D01*
X143939047Y-132814761D02*
X144177142Y-133529047D01*
X143558095Y-133529047D01*
X146534285Y-128762380D02*
X146534285Y-127762380D01*
X146296190Y-127762380D01*
X146153333Y-127810000D01*
X146058095Y-127905238D01*
X146010476Y-128000476D01*
X145962857Y-128190952D01*
X145962857Y-128333809D01*
X146010476Y-128524285D01*
X146058095Y-128619523D01*
X146153333Y-128714761D01*
X146296190Y-128762380D01*
X146534285Y-128762380D01*
X145629523Y-127762380D02*
X145010476Y-127762380D01*
X145343809Y-128143333D01*
X145200952Y-128143333D01*
X145105714Y-128190952D01*
X145058095Y-128238571D01*
X145010476Y-128333809D01*
X145010476Y-128571904D01*
X145058095Y-128667142D01*
X145105714Y-128714761D01*
X145200952Y-128762380D01*
X145486666Y-128762380D01*
X145581904Y-128714761D01*
X145629523Y-128667142D01*
X144058095Y-128762380D02*
X144629523Y-128762380D01*
X144343809Y-128762380D02*
X144343809Y-127762380D01*
X144439047Y-127905238D01*
X144534285Y-128000476D01*
X144629523Y-128048095D01*
%TO.C,J1*%
X199352142Y-134711904D02*
X199399761Y-134664285D01*
X199447380Y-134521428D01*
X199447380Y-134426190D01*
X199399761Y-134283333D01*
X199304523Y-134188095D01*
X199209285Y-134140476D01*
X199018809Y-134092857D01*
X198875952Y-134092857D01*
X198685476Y-134140476D01*
X198590238Y-134188095D01*
X198495000Y-134283333D01*
X198447380Y-134426190D01*
X198447380Y-134521428D01*
X198495000Y-134664285D01*
X198542619Y-134711904D01*
X199447380Y-135283333D02*
X199399761Y-135188095D01*
X199352142Y-135140476D01*
X199256904Y-135092857D01*
X198971190Y-135092857D01*
X198875952Y-135140476D01*
X198828333Y-135188095D01*
X198780714Y-135283333D01*
X198780714Y-135426190D01*
X198828333Y-135521428D01*
X198875952Y-135569047D01*
X198971190Y-135616666D01*
X199256904Y-135616666D01*
X199352142Y-135569047D01*
X199399761Y-135521428D01*
X199447380Y-135426190D01*
X199447380Y-135283333D01*
X198780714Y-136045238D02*
X199447380Y-136045238D01*
X198875952Y-136045238D02*
X198828333Y-136092857D01*
X198780714Y-136188095D01*
X198780714Y-136330952D01*
X198828333Y-136426190D01*
X198923571Y-136473809D01*
X199447380Y-136473809D01*
X198780714Y-136950000D02*
X199447380Y-136950000D01*
X198875952Y-136950000D02*
X198828333Y-136997619D01*
X198780714Y-137092857D01*
X198780714Y-137235714D01*
X198828333Y-137330952D01*
X198923571Y-137378571D01*
X199447380Y-137378571D01*
X199542619Y-137616666D02*
X199542619Y-138378571D01*
X198447380Y-138807142D02*
X198447380Y-138902380D01*
X198495000Y-138997619D01*
X198542619Y-139045238D01*
X198637857Y-139092857D01*
X198828333Y-139140476D01*
X199066428Y-139140476D01*
X199256904Y-139092857D01*
X199352142Y-139045238D01*
X199399761Y-138997619D01*
X199447380Y-138902380D01*
X199447380Y-138807142D01*
X199399761Y-138711904D01*
X199352142Y-138664285D01*
X199256904Y-138616666D01*
X199066428Y-138569047D01*
X198828333Y-138569047D01*
X198637857Y-138616666D01*
X198542619Y-138664285D01*
X198495000Y-138711904D01*
X198447380Y-138807142D01*
X199447380Y-140092857D02*
X199447380Y-139521428D01*
X199447380Y-139807142D02*
X198447380Y-139807142D01*
X198590238Y-139711904D01*
X198685476Y-139616666D01*
X198733095Y-139521428D01*
X199447380Y-140426190D02*
X198780714Y-140950000D01*
X198780714Y-140426190D02*
X199447380Y-140950000D01*
X198447380Y-141521428D02*
X198447380Y-141616666D01*
X198495000Y-141711904D01*
X198542619Y-141759523D01*
X198637857Y-141807142D01*
X198828333Y-141854761D01*
X199066428Y-141854761D01*
X199256904Y-141807142D01*
X199352142Y-141759523D01*
X199399761Y-141711904D01*
X199447380Y-141616666D01*
X199447380Y-141521428D01*
X199399761Y-141426190D01*
X199352142Y-141378571D01*
X199256904Y-141330952D01*
X199066428Y-141283333D01*
X198828333Y-141283333D01*
X198637857Y-141330952D01*
X198542619Y-141378571D01*
X198495000Y-141426190D01*
X198447380Y-141521428D01*
X198780714Y-142711904D02*
X199447380Y-142711904D01*
X198399761Y-142473809D02*
X199114047Y-142235714D01*
X199114047Y-142854761D01*
X191497380Y-138116666D02*
X192211666Y-138116666D01*
X192354523Y-138069047D01*
X192449761Y-137973809D01*
X192497380Y-137830952D01*
X192497380Y-137735714D01*
X192497380Y-139116666D02*
X192497380Y-138545238D01*
X192497380Y-138830952D02*
X191497380Y-138830952D01*
X191640238Y-138735714D01*
X191735476Y-138640476D01*
X191783095Y-138545238D01*
%TO.C,R1*%
X114957619Y-139876666D02*
X114910000Y-139924285D01*
X114862380Y-140019523D01*
X114862380Y-140257619D01*
X114910000Y-140352857D01*
X114957619Y-140400476D01*
X115052857Y-140448095D01*
X115148095Y-140448095D01*
X115290952Y-140400476D01*
X115862380Y-139829047D01*
X115862380Y-140448095D01*
X114957619Y-140829047D02*
X114910000Y-140876666D01*
X114862380Y-140971904D01*
X114862380Y-141210000D01*
X114910000Y-141305238D01*
X114957619Y-141352857D01*
X115052857Y-141400476D01*
X115148095Y-141400476D01*
X115290952Y-141352857D01*
X115862380Y-140781428D01*
X115862380Y-141400476D01*
X115862380Y-141829047D02*
X114862380Y-141829047D01*
X115576666Y-142162380D01*
X114862380Y-142495714D01*
X115862380Y-142495714D01*
D13*
X117020952Y-141143333D02*
X116830476Y-141010000D01*
X117020952Y-140914761D02*
X116620952Y-140914761D01*
X116620952Y-141067142D01*
X116640000Y-141105238D01*
X116659047Y-141124285D01*
X116697142Y-141143333D01*
X116754285Y-141143333D01*
X116792380Y-141124285D01*
X116811428Y-141105238D01*
X116830476Y-141067142D01*
X116830476Y-140914761D01*
X117020952Y-141524285D02*
X117020952Y-141295714D01*
X117020952Y-141410000D02*
X116620952Y-141410000D01*
X116678095Y-141371904D01*
X116716190Y-141333809D01*
X116735238Y-141295714D01*
%TO.C,R2*%
D12*
X128927619Y-139876666D02*
X128880000Y-139924285D01*
X128832380Y-140019523D01*
X128832380Y-140257619D01*
X128880000Y-140352857D01*
X128927619Y-140400476D01*
X129022857Y-140448095D01*
X129118095Y-140448095D01*
X129260952Y-140400476D01*
X129832380Y-139829047D01*
X129832380Y-140448095D01*
X128927619Y-140829047D02*
X128880000Y-140876666D01*
X128832380Y-140971904D01*
X128832380Y-141210000D01*
X128880000Y-141305238D01*
X128927619Y-141352857D01*
X129022857Y-141400476D01*
X129118095Y-141400476D01*
X129260952Y-141352857D01*
X129832380Y-140781428D01*
X129832380Y-141400476D01*
X129832380Y-141829047D02*
X128832380Y-141829047D01*
X129546666Y-142162380D01*
X128832380Y-142495714D01*
X129832380Y-142495714D01*
D13*
X130990952Y-141143333D02*
X130800476Y-141010000D01*
X130990952Y-140914761D02*
X130590952Y-140914761D01*
X130590952Y-141067142D01*
X130610000Y-141105238D01*
X130629047Y-141124285D01*
X130667142Y-141143333D01*
X130724285Y-141143333D01*
X130762380Y-141124285D01*
X130781428Y-141105238D01*
X130800476Y-141067142D01*
X130800476Y-140914761D01*
X130629047Y-141295714D02*
X130610000Y-141314761D01*
X130590952Y-141352857D01*
X130590952Y-141448095D01*
X130610000Y-141486190D01*
X130629047Y-141505238D01*
X130667142Y-141524285D01*
X130705238Y-141524285D01*
X130762380Y-141505238D01*
X130990952Y-141276666D01*
X130990952Y-141524285D01*
%TO.C,R3*%
D12*
X173315238Y-89827380D02*
X173886666Y-89827380D01*
X173600952Y-89827380D02*
X173600952Y-88827380D01*
X173696190Y-88970238D01*
X173791428Y-89065476D01*
X173886666Y-89113095D01*
X172696190Y-88827380D02*
X172600952Y-88827380D01*
X172505714Y-88875000D01*
X172458095Y-88922619D01*
X172410476Y-89017857D01*
X172362857Y-89208333D01*
X172362857Y-89446428D01*
X172410476Y-89636904D01*
X172458095Y-89732142D01*
X172505714Y-89779761D01*
X172600952Y-89827380D01*
X172696190Y-89827380D01*
X172791428Y-89779761D01*
X172839047Y-89732142D01*
X172886666Y-89636904D01*
X172934285Y-89446428D01*
X172934285Y-89208333D01*
X172886666Y-89017857D01*
X172839047Y-88922619D01*
X172791428Y-88875000D01*
X172696190Y-88827380D01*
X171934285Y-89827380D02*
X171934285Y-88827380D01*
X171839047Y-89446428D02*
X171553333Y-89827380D01*
X171553333Y-89160714D02*
X171934285Y-89541666D01*
D13*
X172786666Y-90985952D02*
X172920000Y-90795476D01*
X173015238Y-90985952D02*
X173015238Y-90585952D01*
X172862857Y-90585952D01*
X172824761Y-90605000D01*
X172805714Y-90624047D01*
X172786666Y-90662142D01*
X172786666Y-90719285D01*
X172805714Y-90757380D01*
X172824761Y-90776428D01*
X172862857Y-90795476D01*
X173015238Y-90795476D01*
X172653333Y-90585952D02*
X172405714Y-90585952D01*
X172539047Y-90738333D01*
X172481904Y-90738333D01*
X172443809Y-90757380D01*
X172424761Y-90776428D01*
X172405714Y-90814523D01*
X172405714Y-90909761D01*
X172424761Y-90947857D01*
X172443809Y-90966904D01*
X172481904Y-90985952D01*
X172596190Y-90985952D01*
X172634285Y-90966904D01*
X172653333Y-90947857D01*
%TO.C,R4*%
D12*
X173950238Y-76492380D02*
X174521666Y-76492380D01*
X174235952Y-76492380D02*
X174235952Y-75492380D01*
X174331190Y-75635238D01*
X174426428Y-75730476D01*
X174521666Y-75778095D01*
X173331190Y-75492380D02*
X173235952Y-75492380D01*
X173140714Y-75540000D01*
X173093095Y-75587619D01*
X173045476Y-75682857D01*
X172997857Y-75873333D01*
X172997857Y-76111428D01*
X173045476Y-76301904D01*
X173093095Y-76397142D01*
X173140714Y-76444761D01*
X173235952Y-76492380D01*
X173331190Y-76492380D01*
X173426428Y-76444761D01*
X173474047Y-76397142D01*
X173521666Y-76301904D01*
X173569285Y-76111428D01*
X173569285Y-75873333D01*
X173521666Y-75682857D01*
X173474047Y-75587619D01*
X173426428Y-75540000D01*
X173331190Y-75492380D01*
X172569285Y-76492380D02*
X172569285Y-75492380D01*
X172474047Y-76111428D02*
X172188333Y-76492380D01*
X172188333Y-75825714D02*
X172569285Y-76206666D01*
D13*
X173421666Y-77650952D02*
X173555000Y-77460476D01*
X173650238Y-77650952D02*
X173650238Y-77250952D01*
X173497857Y-77250952D01*
X173459761Y-77270000D01*
X173440714Y-77289047D01*
X173421666Y-77327142D01*
X173421666Y-77384285D01*
X173440714Y-77422380D01*
X173459761Y-77441428D01*
X173497857Y-77460476D01*
X173650238Y-77460476D01*
X173078809Y-77384285D02*
X173078809Y-77650952D01*
X173174047Y-77231904D02*
X173269285Y-77517619D01*
X173021666Y-77517619D01*
%TO.C,R5*%
D12*
X156867619Y-140031666D02*
X156820000Y-140079285D01*
X156772380Y-140174523D01*
X156772380Y-140412619D01*
X156820000Y-140507857D01*
X156867619Y-140555476D01*
X156962857Y-140603095D01*
X157058095Y-140603095D01*
X157200952Y-140555476D01*
X157772380Y-139984047D01*
X157772380Y-140603095D01*
X156867619Y-140984047D02*
X156820000Y-141031666D01*
X156772380Y-141126904D01*
X156772380Y-141365000D01*
X156820000Y-141460238D01*
X156867619Y-141507857D01*
X156962857Y-141555476D01*
X157058095Y-141555476D01*
X157200952Y-141507857D01*
X157772380Y-140936428D01*
X157772380Y-141555476D01*
X157772380Y-141984047D02*
X156772380Y-141984047D01*
X157486666Y-142317380D01*
X156772380Y-142650714D01*
X157772380Y-142650714D01*
D13*
X158930952Y-141298333D02*
X158740476Y-141165000D01*
X158930952Y-141069761D02*
X158530952Y-141069761D01*
X158530952Y-141222142D01*
X158550000Y-141260238D01*
X158569047Y-141279285D01*
X158607142Y-141298333D01*
X158664285Y-141298333D01*
X158702380Y-141279285D01*
X158721428Y-141260238D01*
X158740476Y-141222142D01*
X158740476Y-141069761D01*
X158530952Y-141660238D02*
X158530952Y-141469761D01*
X158721428Y-141450714D01*
X158702380Y-141469761D01*
X158683333Y-141507857D01*
X158683333Y-141603095D01*
X158702380Y-141641190D01*
X158721428Y-141660238D01*
X158759523Y-141679285D01*
X158854761Y-141679285D01*
X158892857Y-141660238D01*
X158911904Y-141641190D01*
X158930952Y-141603095D01*
X158930952Y-141507857D01*
X158911904Y-141469761D01*
X158892857Y-141450714D01*
%TO.C,R6*%
D12*
X142897619Y-140031666D02*
X142850000Y-140079285D01*
X142802380Y-140174523D01*
X142802380Y-140412619D01*
X142850000Y-140507857D01*
X142897619Y-140555476D01*
X142992857Y-140603095D01*
X143088095Y-140603095D01*
X143230952Y-140555476D01*
X143802380Y-139984047D01*
X143802380Y-140603095D01*
X142897619Y-140984047D02*
X142850000Y-141031666D01*
X142802380Y-141126904D01*
X142802380Y-141365000D01*
X142850000Y-141460238D01*
X142897619Y-141507857D01*
X142992857Y-141555476D01*
X143088095Y-141555476D01*
X143230952Y-141507857D01*
X143802380Y-140936428D01*
X143802380Y-141555476D01*
X143802380Y-141984047D02*
X142802380Y-141984047D01*
X143516666Y-142317380D01*
X142802380Y-142650714D01*
X143802380Y-142650714D01*
D13*
X144960952Y-141298333D02*
X144770476Y-141165000D01*
X144960952Y-141069761D02*
X144560952Y-141069761D01*
X144560952Y-141222142D01*
X144580000Y-141260238D01*
X144599047Y-141279285D01*
X144637142Y-141298333D01*
X144694285Y-141298333D01*
X144732380Y-141279285D01*
X144751428Y-141260238D01*
X144770476Y-141222142D01*
X144770476Y-141069761D01*
X144560952Y-141641190D02*
X144560952Y-141565000D01*
X144580000Y-141526904D01*
X144599047Y-141507857D01*
X144656190Y-141469761D01*
X144732380Y-141450714D01*
X144884761Y-141450714D01*
X144922857Y-141469761D01*
X144941904Y-141488809D01*
X144960952Y-141526904D01*
X144960952Y-141603095D01*
X144941904Y-141641190D01*
X144922857Y-141660238D01*
X144884761Y-141679285D01*
X144789523Y-141679285D01*
X144751428Y-141660238D01*
X144732380Y-141641190D01*
X144713333Y-141603095D01*
X144713333Y-141526904D01*
X144732380Y-141488809D01*
X144751428Y-141469761D01*
X144789523Y-141450714D01*
%TO.C,R7*%
D12*
X173315238Y-120307380D02*
X173886666Y-120307380D01*
X173600952Y-120307380D02*
X173600952Y-119307380D01*
X173696190Y-119450238D01*
X173791428Y-119545476D01*
X173886666Y-119593095D01*
X172696190Y-119307380D02*
X172600952Y-119307380D01*
X172505714Y-119355000D01*
X172458095Y-119402619D01*
X172410476Y-119497857D01*
X172362857Y-119688333D01*
X172362857Y-119926428D01*
X172410476Y-120116904D01*
X172458095Y-120212142D01*
X172505714Y-120259761D01*
X172600952Y-120307380D01*
X172696190Y-120307380D01*
X172791428Y-120259761D01*
X172839047Y-120212142D01*
X172886666Y-120116904D01*
X172934285Y-119926428D01*
X172934285Y-119688333D01*
X172886666Y-119497857D01*
X172839047Y-119402619D01*
X172791428Y-119355000D01*
X172696190Y-119307380D01*
X171934285Y-120307380D02*
X171934285Y-119307380D01*
X171839047Y-119926428D02*
X171553333Y-120307380D01*
X171553333Y-119640714D02*
X171934285Y-120021666D01*
D13*
X172786666Y-121465952D02*
X172920000Y-121275476D01*
X173015238Y-121465952D02*
X173015238Y-121065952D01*
X172862857Y-121065952D01*
X172824761Y-121085000D01*
X172805714Y-121104047D01*
X172786666Y-121142142D01*
X172786666Y-121199285D01*
X172805714Y-121237380D01*
X172824761Y-121256428D01*
X172862857Y-121275476D01*
X173015238Y-121275476D01*
X172653333Y-121065952D02*
X172386666Y-121065952D01*
X172558095Y-121465952D01*
%TO.C,R8*%
D12*
X153327380Y-147913571D02*
X153327380Y-147342142D01*
X153327380Y-147627857D02*
X152327380Y-147627857D01*
X152470238Y-147532619D01*
X152565476Y-147437380D01*
X152613095Y-147342142D01*
X152327380Y-148532619D02*
X152327380Y-148627857D01*
X152375000Y-148723095D01*
X152422619Y-148770714D01*
X152517857Y-148818333D01*
X152708333Y-148865952D01*
X152946428Y-148865952D01*
X153136904Y-148818333D01*
X153232142Y-148770714D01*
X153279761Y-148723095D01*
X153327380Y-148627857D01*
X153327380Y-148532619D01*
X153279761Y-148437380D01*
X153232142Y-148389761D01*
X153136904Y-148342142D01*
X152946428Y-148294523D01*
X152708333Y-148294523D01*
X152517857Y-148342142D01*
X152422619Y-148389761D01*
X152375000Y-148437380D01*
X152327380Y-148532619D01*
X152327380Y-149485000D02*
X152327380Y-149580238D01*
X152375000Y-149675476D01*
X152422619Y-149723095D01*
X152517857Y-149770714D01*
X152708333Y-149818333D01*
X152946428Y-149818333D01*
X153136904Y-149770714D01*
X153232142Y-149723095D01*
X153279761Y-149675476D01*
X153327380Y-149580238D01*
X153327380Y-149485000D01*
X153279761Y-149389761D01*
X153232142Y-149342142D01*
X153136904Y-149294523D01*
X152946428Y-149246904D01*
X152708333Y-149246904D01*
X152517857Y-149294523D01*
X152422619Y-149342142D01*
X152375000Y-149389761D01*
X152327380Y-149485000D01*
X153327380Y-150246904D02*
X152327380Y-150246904D01*
X152946428Y-150342142D02*
X153327380Y-150627857D01*
X152660714Y-150627857D02*
X153041666Y-150246904D01*
D13*
X154485952Y-148918333D02*
X154295476Y-148785000D01*
X154485952Y-148689761D02*
X154085952Y-148689761D01*
X154085952Y-148842142D01*
X154105000Y-148880238D01*
X154124047Y-148899285D01*
X154162142Y-148918333D01*
X154219285Y-148918333D01*
X154257380Y-148899285D01*
X154276428Y-148880238D01*
X154295476Y-148842142D01*
X154295476Y-148689761D01*
X154257380Y-149146904D02*
X154238333Y-149108809D01*
X154219285Y-149089761D01*
X154181190Y-149070714D01*
X154162142Y-149070714D01*
X154124047Y-149089761D01*
X154105000Y-149108809D01*
X154085952Y-149146904D01*
X154085952Y-149223095D01*
X154105000Y-149261190D01*
X154124047Y-149280238D01*
X154162142Y-149299285D01*
X154181190Y-149299285D01*
X154219285Y-149280238D01*
X154238333Y-149261190D01*
X154257380Y-149223095D01*
X154257380Y-149146904D01*
X154276428Y-149108809D01*
X154295476Y-149089761D01*
X154333571Y-149070714D01*
X154409761Y-149070714D01*
X154447857Y-149089761D01*
X154466904Y-149108809D01*
X154485952Y-149146904D01*
X154485952Y-149223095D01*
X154466904Y-149261190D01*
X154447857Y-149280238D01*
X154409761Y-149299285D01*
X154333571Y-149299285D01*
X154295476Y-149280238D01*
X154276428Y-149261190D01*
X154257380Y-149223095D01*
%TO.C,R9*%
D12*
X173950238Y-106972380D02*
X174521666Y-106972380D01*
X174235952Y-106972380D02*
X174235952Y-105972380D01*
X174331190Y-106115238D01*
X174426428Y-106210476D01*
X174521666Y-106258095D01*
X173331190Y-105972380D02*
X173235952Y-105972380D01*
X173140714Y-106020000D01*
X173093095Y-106067619D01*
X173045476Y-106162857D01*
X172997857Y-106353333D01*
X172997857Y-106591428D01*
X173045476Y-106781904D01*
X173093095Y-106877142D01*
X173140714Y-106924761D01*
X173235952Y-106972380D01*
X173331190Y-106972380D01*
X173426428Y-106924761D01*
X173474047Y-106877142D01*
X173521666Y-106781904D01*
X173569285Y-106591428D01*
X173569285Y-106353333D01*
X173521666Y-106162857D01*
X173474047Y-106067619D01*
X173426428Y-106020000D01*
X173331190Y-105972380D01*
X172569285Y-106972380D02*
X172569285Y-105972380D01*
X172474047Y-106591428D02*
X172188333Y-106972380D01*
X172188333Y-106305714D02*
X172569285Y-106686666D01*
D13*
X173421666Y-108130952D02*
X173555000Y-107940476D01*
X173650238Y-108130952D02*
X173650238Y-107730952D01*
X173497857Y-107730952D01*
X173459761Y-107750000D01*
X173440714Y-107769047D01*
X173421666Y-107807142D01*
X173421666Y-107864285D01*
X173440714Y-107902380D01*
X173459761Y-107921428D01*
X173497857Y-107940476D01*
X173650238Y-107940476D01*
X173231190Y-108130952D02*
X173155000Y-108130952D01*
X173116904Y-108111904D01*
X173097857Y-108092857D01*
X173059761Y-108035714D01*
X173040714Y-107959523D01*
X173040714Y-107807142D01*
X173059761Y-107769047D01*
X173078809Y-107750000D01*
X173116904Y-107730952D01*
X173193095Y-107730952D01*
X173231190Y-107750000D01*
X173250238Y-107769047D01*
X173269285Y-107807142D01*
X173269285Y-107902380D01*
X173250238Y-107940476D01*
X173231190Y-107959523D01*
X173193095Y-107978571D01*
X173116904Y-107978571D01*
X173078809Y-107959523D01*
X173059761Y-107940476D01*
X173040714Y-107902380D01*
%TO.C,R10*%
D12*
X155232380Y-147913571D02*
X155232380Y-147342142D01*
X155232380Y-147627857D02*
X154232380Y-147627857D01*
X154375238Y-147532619D01*
X154470476Y-147437380D01*
X154518095Y-147342142D01*
X154232380Y-148532619D02*
X154232380Y-148627857D01*
X154280000Y-148723095D01*
X154327619Y-148770714D01*
X154422857Y-148818333D01*
X154613333Y-148865952D01*
X154851428Y-148865952D01*
X155041904Y-148818333D01*
X155137142Y-148770714D01*
X155184761Y-148723095D01*
X155232380Y-148627857D01*
X155232380Y-148532619D01*
X155184761Y-148437380D01*
X155137142Y-148389761D01*
X155041904Y-148342142D01*
X154851428Y-148294523D01*
X154613333Y-148294523D01*
X154422857Y-148342142D01*
X154327619Y-148389761D01*
X154280000Y-148437380D01*
X154232380Y-148532619D01*
X154232380Y-149485000D02*
X154232380Y-149580238D01*
X154280000Y-149675476D01*
X154327619Y-149723095D01*
X154422857Y-149770714D01*
X154613333Y-149818333D01*
X154851428Y-149818333D01*
X155041904Y-149770714D01*
X155137142Y-149723095D01*
X155184761Y-149675476D01*
X155232380Y-149580238D01*
X155232380Y-149485000D01*
X155184761Y-149389761D01*
X155137142Y-149342142D01*
X155041904Y-149294523D01*
X154851428Y-149246904D01*
X154613333Y-149246904D01*
X154422857Y-149294523D01*
X154327619Y-149342142D01*
X154280000Y-149389761D01*
X154232380Y-149485000D01*
X155232380Y-150246904D02*
X154232380Y-150246904D01*
X154851428Y-150342142D02*
X155232380Y-150627857D01*
X154565714Y-150627857D02*
X154946666Y-150246904D01*
D13*
X156390952Y-148727857D02*
X156200476Y-148594523D01*
X156390952Y-148499285D02*
X155990952Y-148499285D01*
X155990952Y-148651666D01*
X156010000Y-148689761D01*
X156029047Y-148708809D01*
X156067142Y-148727857D01*
X156124285Y-148727857D01*
X156162380Y-148708809D01*
X156181428Y-148689761D01*
X156200476Y-148651666D01*
X156200476Y-148499285D01*
X156390952Y-149108809D02*
X156390952Y-148880238D01*
X156390952Y-148994523D02*
X155990952Y-148994523D01*
X156048095Y-148956428D01*
X156086190Y-148918333D01*
X156105238Y-148880238D01*
X155990952Y-149356428D02*
X155990952Y-149394523D01*
X156010000Y-149432619D01*
X156029047Y-149451666D01*
X156067142Y-149470714D01*
X156143333Y-149489761D01*
X156238571Y-149489761D01*
X156314761Y-149470714D01*
X156352857Y-149451666D01*
X156371904Y-149432619D01*
X156390952Y-149394523D01*
X156390952Y-149356428D01*
X156371904Y-149318333D01*
X156352857Y-149299285D01*
X156314761Y-149280238D01*
X156238571Y-149261190D01*
X156143333Y-149261190D01*
X156067142Y-149280238D01*
X156029047Y-149299285D01*
X156010000Y-149318333D01*
X155990952Y-149356428D01*
%TO.C,R11*%
D12*
X157137380Y-147913571D02*
X157137380Y-147342142D01*
X157137380Y-147627857D02*
X156137380Y-147627857D01*
X156280238Y-147532619D01*
X156375476Y-147437380D01*
X156423095Y-147342142D01*
X156137380Y-148532619D02*
X156137380Y-148627857D01*
X156185000Y-148723095D01*
X156232619Y-148770714D01*
X156327857Y-148818333D01*
X156518333Y-148865952D01*
X156756428Y-148865952D01*
X156946904Y-148818333D01*
X157042142Y-148770714D01*
X157089761Y-148723095D01*
X157137380Y-148627857D01*
X157137380Y-148532619D01*
X157089761Y-148437380D01*
X157042142Y-148389761D01*
X156946904Y-148342142D01*
X156756428Y-148294523D01*
X156518333Y-148294523D01*
X156327857Y-148342142D01*
X156232619Y-148389761D01*
X156185000Y-148437380D01*
X156137380Y-148532619D01*
X156137380Y-149485000D02*
X156137380Y-149580238D01*
X156185000Y-149675476D01*
X156232619Y-149723095D01*
X156327857Y-149770714D01*
X156518333Y-149818333D01*
X156756428Y-149818333D01*
X156946904Y-149770714D01*
X157042142Y-149723095D01*
X157089761Y-149675476D01*
X157137380Y-149580238D01*
X157137380Y-149485000D01*
X157089761Y-149389761D01*
X157042142Y-149342142D01*
X156946904Y-149294523D01*
X156756428Y-149246904D01*
X156518333Y-149246904D01*
X156327857Y-149294523D01*
X156232619Y-149342142D01*
X156185000Y-149389761D01*
X156137380Y-149485000D01*
X157137380Y-150246904D02*
X156137380Y-150246904D01*
X156756428Y-150342142D02*
X157137380Y-150627857D01*
X156470714Y-150627857D02*
X156851666Y-150246904D01*
D13*
X158295952Y-148727857D02*
X158105476Y-148594523D01*
X158295952Y-148499285D02*
X157895952Y-148499285D01*
X157895952Y-148651666D01*
X157915000Y-148689761D01*
X157934047Y-148708809D01*
X157972142Y-148727857D01*
X158029285Y-148727857D01*
X158067380Y-148708809D01*
X158086428Y-148689761D01*
X158105476Y-148651666D01*
X158105476Y-148499285D01*
X158295952Y-149108809D02*
X158295952Y-148880238D01*
X158295952Y-148994523D02*
X157895952Y-148994523D01*
X157953095Y-148956428D01*
X157991190Y-148918333D01*
X158010238Y-148880238D01*
X158295952Y-149489761D02*
X158295952Y-149261190D01*
X158295952Y-149375476D02*
X157895952Y-149375476D01*
X157953095Y-149337380D01*
X157991190Y-149299285D01*
X158010238Y-149261190D01*
%TO.C,R12*%
D12*
X159042380Y-147913571D02*
X159042380Y-147342142D01*
X159042380Y-147627857D02*
X158042380Y-147627857D01*
X158185238Y-147532619D01*
X158280476Y-147437380D01*
X158328095Y-147342142D01*
X158042380Y-148532619D02*
X158042380Y-148627857D01*
X158090000Y-148723095D01*
X158137619Y-148770714D01*
X158232857Y-148818333D01*
X158423333Y-148865952D01*
X158661428Y-148865952D01*
X158851904Y-148818333D01*
X158947142Y-148770714D01*
X158994761Y-148723095D01*
X159042380Y-148627857D01*
X159042380Y-148532619D01*
X158994761Y-148437380D01*
X158947142Y-148389761D01*
X158851904Y-148342142D01*
X158661428Y-148294523D01*
X158423333Y-148294523D01*
X158232857Y-148342142D01*
X158137619Y-148389761D01*
X158090000Y-148437380D01*
X158042380Y-148532619D01*
X158042380Y-149485000D02*
X158042380Y-149580238D01*
X158090000Y-149675476D01*
X158137619Y-149723095D01*
X158232857Y-149770714D01*
X158423333Y-149818333D01*
X158661428Y-149818333D01*
X158851904Y-149770714D01*
X158947142Y-149723095D01*
X158994761Y-149675476D01*
X159042380Y-149580238D01*
X159042380Y-149485000D01*
X158994761Y-149389761D01*
X158947142Y-149342142D01*
X158851904Y-149294523D01*
X158661428Y-149246904D01*
X158423333Y-149246904D01*
X158232857Y-149294523D01*
X158137619Y-149342142D01*
X158090000Y-149389761D01*
X158042380Y-149485000D01*
X159042380Y-150246904D02*
X158042380Y-150246904D01*
X158661428Y-150342142D02*
X159042380Y-150627857D01*
X158375714Y-150627857D02*
X158756666Y-150246904D01*
D13*
X160200952Y-148727857D02*
X160010476Y-148594523D01*
X160200952Y-148499285D02*
X159800952Y-148499285D01*
X159800952Y-148651666D01*
X159820000Y-148689761D01*
X159839047Y-148708809D01*
X159877142Y-148727857D01*
X159934285Y-148727857D01*
X159972380Y-148708809D01*
X159991428Y-148689761D01*
X160010476Y-148651666D01*
X160010476Y-148499285D01*
X160200952Y-149108809D02*
X160200952Y-148880238D01*
X160200952Y-148994523D02*
X159800952Y-148994523D01*
X159858095Y-148956428D01*
X159896190Y-148918333D01*
X159915238Y-148880238D01*
X159839047Y-149261190D02*
X159820000Y-149280238D01*
X159800952Y-149318333D01*
X159800952Y-149413571D01*
X159820000Y-149451666D01*
X159839047Y-149470714D01*
X159877142Y-149489761D01*
X159915238Y-149489761D01*
X159972380Y-149470714D01*
X160200952Y-149242142D01*
X160200952Y-149489761D01*
%TO.C,R13*%
D12*
X160947380Y-147913571D02*
X160947380Y-147342142D01*
X160947380Y-147627857D02*
X159947380Y-147627857D01*
X160090238Y-147532619D01*
X160185476Y-147437380D01*
X160233095Y-147342142D01*
X159947380Y-148532619D02*
X159947380Y-148627857D01*
X159995000Y-148723095D01*
X160042619Y-148770714D01*
X160137857Y-148818333D01*
X160328333Y-148865952D01*
X160566428Y-148865952D01*
X160756904Y-148818333D01*
X160852142Y-148770714D01*
X160899761Y-148723095D01*
X160947380Y-148627857D01*
X160947380Y-148532619D01*
X160899761Y-148437380D01*
X160852142Y-148389761D01*
X160756904Y-148342142D01*
X160566428Y-148294523D01*
X160328333Y-148294523D01*
X160137857Y-148342142D01*
X160042619Y-148389761D01*
X159995000Y-148437380D01*
X159947380Y-148532619D01*
X159947380Y-149485000D02*
X159947380Y-149580238D01*
X159995000Y-149675476D01*
X160042619Y-149723095D01*
X160137857Y-149770714D01*
X160328333Y-149818333D01*
X160566428Y-149818333D01*
X160756904Y-149770714D01*
X160852142Y-149723095D01*
X160899761Y-149675476D01*
X160947380Y-149580238D01*
X160947380Y-149485000D01*
X160899761Y-149389761D01*
X160852142Y-149342142D01*
X160756904Y-149294523D01*
X160566428Y-149246904D01*
X160328333Y-149246904D01*
X160137857Y-149294523D01*
X160042619Y-149342142D01*
X159995000Y-149389761D01*
X159947380Y-149485000D01*
X160947380Y-150246904D02*
X159947380Y-150246904D01*
X160566428Y-150342142D02*
X160947380Y-150627857D01*
X160280714Y-150627857D02*
X160661666Y-150246904D01*
D13*
X162105952Y-148727857D02*
X161915476Y-148594523D01*
X162105952Y-148499285D02*
X161705952Y-148499285D01*
X161705952Y-148651666D01*
X161725000Y-148689761D01*
X161744047Y-148708809D01*
X161782142Y-148727857D01*
X161839285Y-148727857D01*
X161877380Y-148708809D01*
X161896428Y-148689761D01*
X161915476Y-148651666D01*
X161915476Y-148499285D01*
X162105952Y-149108809D02*
X162105952Y-148880238D01*
X162105952Y-148994523D02*
X161705952Y-148994523D01*
X161763095Y-148956428D01*
X161801190Y-148918333D01*
X161820238Y-148880238D01*
X161705952Y-149242142D02*
X161705952Y-149489761D01*
X161858333Y-149356428D01*
X161858333Y-149413571D01*
X161877380Y-149451666D01*
X161896428Y-149470714D01*
X161934523Y-149489761D01*
X162029761Y-149489761D01*
X162067857Y-149470714D01*
X162086904Y-149451666D01*
X162105952Y-149413571D01*
X162105952Y-149299285D01*
X162086904Y-149261190D01*
X162067857Y-149242142D01*
%TO.C,R14*%
D12*
X162852380Y-147913571D02*
X162852380Y-147342142D01*
X162852380Y-147627857D02*
X161852380Y-147627857D01*
X161995238Y-147532619D01*
X162090476Y-147437380D01*
X162138095Y-147342142D01*
X161852380Y-148532619D02*
X161852380Y-148627857D01*
X161900000Y-148723095D01*
X161947619Y-148770714D01*
X162042857Y-148818333D01*
X162233333Y-148865952D01*
X162471428Y-148865952D01*
X162661904Y-148818333D01*
X162757142Y-148770714D01*
X162804761Y-148723095D01*
X162852380Y-148627857D01*
X162852380Y-148532619D01*
X162804761Y-148437380D01*
X162757142Y-148389761D01*
X162661904Y-148342142D01*
X162471428Y-148294523D01*
X162233333Y-148294523D01*
X162042857Y-148342142D01*
X161947619Y-148389761D01*
X161900000Y-148437380D01*
X161852380Y-148532619D01*
X161852380Y-149485000D02*
X161852380Y-149580238D01*
X161900000Y-149675476D01*
X161947619Y-149723095D01*
X162042857Y-149770714D01*
X162233333Y-149818333D01*
X162471428Y-149818333D01*
X162661904Y-149770714D01*
X162757142Y-149723095D01*
X162804761Y-149675476D01*
X162852380Y-149580238D01*
X162852380Y-149485000D01*
X162804761Y-149389761D01*
X162757142Y-149342142D01*
X162661904Y-149294523D01*
X162471428Y-149246904D01*
X162233333Y-149246904D01*
X162042857Y-149294523D01*
X161947619Y-149342142D01*
X161900000Y-149389761D01*
X161852380Y-149485000D01*
X162852380Y-150246904D02*
X161852380Y-150246904D01*
X162471428Y-150342142D02*
X162852380Y-150627857D01*
X162185714Y-150627857D02*
X162566666Y-150246904D01*
D13*
X164010952Y-148727857D02*
X163820476Y-148594523D01*
X164010952Y-148499285D02*
X163610952Y-148499285D01*
X163610952Y-148651666D01*
X163630000Y-148689761D01*
X163649047Y-148708809D01*
X163687142Y-148727857D01*
X163744285Y-148727857D01*
X163782380Y-148708809D01*
X163801428Y-148689761D01*
X163820476Y-148651666D01*
X163820476Y-148499285D01*
X164010952Y-149108809D02*
X164010952Y-148880238D01*
X164010952Y-148994523D02*
X163610952Y-148994523D01*
X163668095Y-148956428D01*
X163706190Y-148918333D01*
X163725238Y-148880238D01*
X163744285Y-149451666D02*
X164010952Y-149451666D01*
X163591904Y-149356428D02*
X163877619Y-149261190D01*
X163877619Y-149508809D01*
%TO.C,R15*%
D12*
X164757380Y-147913571D02*
X164757380Y-147342142D01*
X164757380Y-147627857D02*
X163757380Y-147627857D01*
X163900238Y-147532619D01*
X163995476Y-147437380D01*
X164043095Y-147342142D01*
X163757380Y-148532619D02*
X163757380Y-148627857D01*
X163805000Y-148723095D01*
X163852619Y-148770714D01*
X163947857Y-148818333D01*
X164138333Y-148865952D01*
X164376428Y-148865952D01*
X164566904Y-148818333D01*
X164662142Y-148770714D01*
X164709761Y-148723095D01*
X164757380Y-148627857D01*
X164757380Y-148532619D01*
X164709761Y-148437380D01*
X164662142Y-148389761D01*
X164566904Y-148342142D01*
X164376428Y-148294523D01*
X164138333Y-148294523D01*
X163947857Y-148342142D01*
X163852619Y-148389761D01*
X163805000Y-148437380D01*
X163757380Y-148532619D01*
X163757380Y-149485000D02*
X163757380Y-149580238D01*
X163805000Y-149675476D01*
X163852619Y-149723095D01*
X163947857Y-149770714D01*
X164138333Y-149818333D01*
X164376428Y-149818333D01*
X164566904Y-149770714D01*
X164662142Y-149723095D01*
X164709761Y-149675476D01*
X164757380Y-149580238D01*
X164757380Y-149485000D01*
X164709761Y-149389761D01*
X164662142Y-149342142D01*
X164566904Y-149294523D01*
X164376428Y-149246904D01*
X164138333Y-149246904D01*
X163947857Y-149294523D01*
X163852619Y-149342142D01*
X163805000Y-149389761D01*
X163757380Y-149485000D01*
X164757380Y-150246904D02*
X163757380Y-150246904D01*
X164376428Y-150342142D02*
X164757380Y-150627857D01*
X164090714Y-150627857D02*
X164471666Y-150246904D01*
D13*
X165915952Y-148727857D02*
X165725476Y-148594523D01*
X165915952Y-148499285D02*
X165515952Y-148499285D01*
X165515952Y-148651666D01*
X165535000Y-148689761D01*
X165554047Y-148708809D01*
X165592142Y-148727857D01*
X165649285Y-148727857D01*
X165687380Y-148708809D01*
X165706428Y-148689761D01*
X165725476Y-148651666D01*
X165725476Y-148499285D01*
X165915952Y-149108809D02*
X165915952Y-148880238D01*
X165915952Y-148994523D02*
X165515952Y-148994523D01*
X165573095Y-148956428D01*
X165611190Y-148918333D01*
X165630238Y-148880238D01*
X165515952Y-149470714D02*
X165515952Y-149280238D01*
X165706428Y-149261190D01*
X165687380Y-149280238D01*
X165668333Y-149318333D01*
X165668333Y-149413571D01*
X165687380Y-149451666D01*
X165706428Y-149470714D01*
X165744523Y-149489761D01*
X165839761Y-149489761D01*
X165877857Y-149470714D01*
X165896904Y-149451666D01*
X165915952Y-149413571D01*
X165915952Y-149318333D01*
X165896904Y-149280238D01*
X165877857Y-149261190D01*
%TO.C,U1*%
D12*
X179720238Y-149417380D02*
X179720238Y-148417380D01*
X179386904Y-149131666D01*
X179053571Y-148417380D01*
X179053571Y-149417380D01*
X178005952Y-149322142D02*
X178053571Y-149369761D01*
X178196428Y-149417380D01*
X178291666Y-149417380D01*
X178434523Y-149369761D01*
X178529761Y-149274523D01*
X178577380Y-149179285D01*
X178625000Y-148988809D01*
X178625000Y-148845952D01*
X178577380Y-148655476D01*
X178529761Y-148560238D01*
X178434523Y-148465000D01*
X178291666Y-148417380D01*
X178196428Y-148417380D01*
X178053571Y-148465000D01*
X178005952Y-148512619D01*
X177577380Y-149417380D02*
X177577380Y-148417380D01*
X177196428Y-148417380D01*
X177101190Y-148465000D01*
X177053571Y-148512619D01*
X177005952Y-148607857D01*
X177005952Y-148750714D01*
X177053571Y-148845952D01*
X177101190Y-148893571D01*
X177196428Y-148941190D01*
X177577380Y-148941190D01*
X176625000Y-148512619D02*
X176577380Y-148465000D01*
X176482142Y-148417380D01*
X176244047Y-148417380D01*
X176148809Y-148465000D01*
X176101190Y-148512619D01*
X176053571Y-148607857D01*
X176053571Y-148703095D01*
X176101190Y-148845952D01*
X176672619Y-149417380D01*
X176053571Y-149417380D01*
X175720238Y-148417380D02*
X175101190Y-148417380D01*
X175434523Y-148798333D01*
X175291666Y-148798333D01*
X175196428Y-148845952D01*
X175148809Y-148893571D01*
X175101190Y-148988809D01*
X175101190Y-149226904D01*
X175148809Y-149322142D01*
X175196428Y-149369761D01*
X175291666Y-149417380D01*
X175577380Y-149417380D01*
X175672619Y-149369761D01*
X175720238Y-149322142D01*
X174482142Y-148417380D02*
X174386904Y-148417380D01*
X174291666Y-148465000D01*
X174244047Y-148512619D01*
X174196428Y-148607857D01*
X174148809Y-148798333D01*
X174148809Y-149036428D01*
X174196428Y-149226904D01*
X174244047Y-149322142D01*
X174291666Y-149369761D01*
X174386904Y-149417380D01*
X174482142Y-149417380D01*
X174577380Y-149369761D01*
X174625000Y-149322142D01*
X174672619Y-149226904D01*
X174720238Y-149036428D01*
X174720238Y-148798333D01*
X174672619Y-148607857D01*
X174625000Y-148512619D01*
X174577380Y-148465000D01*
X174482142Y-148417380D01*
X173196428Y-149417380D02*
X173767857Y-149417380D01*
X173482142Y-149417380D02*
X173482142Y-148417380D01*
X173577380Y-148560238D01*
X173672619Y-148655476D01*
X173767857Y-148703095D01*
X172863095Y-148417380D02*
X172196428Y-148417380D01*
X172625000Y-149417380D01*
X172053571Y-149512619D02*
X171291666Y-149512619D01*
X171101190Y-149369761D02*
X170958333Y-149417380D01*
X170720238Y-149417380D01*
X170625000Y-149369761D01*
X170577380Y-149322142D01*
X170529761Y-149226904D01*
X170529761Y-149131666D01*
X170577380Y-149036428D01*
X170625000Y-148988809D01*
X170720238Y-148941190D01*
X170910714Y-148893571D01*
X171005952Y-148845952D01*
X171053571Y-148798333D01*
X171101190Y-148703095D01*
X171101190Y-148607857D01*
X171053571Y-148512619D01*
X171005952Y-148465000D01*
X170910714Y-148417380D01*
X170672619Y-148417380D01*
X170529761Y-148465000D01*
X169910714Y-148417380D02*
X169720238Y-148417380D01*
X169625000Y-148465000D01*
X169529761Y-148560238D01*
X169482142Y-148750714D01*
X169482142Y-149084047D01*
X169529761Y-149274523D01*
X169625000Y-149369761D01*
X169720238Y-149417380D01*
X169910714Y-149417380D01*
X170005952Y-149369761D01*
X170101190Y-149274523D01*
X170148809Y-149084047D01*
X170148809Y-148750714D01*
X170101190Y-148560238D01*
X170005952Y-148465000D01*
X169910714Y-148417380D01*
X175386904Y-138517380D02*
X175386904Y-139326904D01*
X175339285Y-139422142D01*
X175291666Y-139469761D01*
X175196428Y-139517380D01*
X175005952Y-139517380D01*
X174910714Y-139469761D01*
X174863095Y-139422142D01*
X174815476Y-139326904D01*
X174815476Y-138517380D01*
X173815476Y-139517380D02*
X174386904Y-139517380D01*
X174101190Y-139517380D02*
X174101190Y-138517380D01*
X174196428Y-138660238D01*
X174291666Y-138755476D01*
X174386904Y-138803095D01*
%TD*%
M02*
