%TF.GenerationSoftware,KiCad,Pcbnew,(5.1.6)-1*%
%TF.CreationDate,2021-04-12T23:45:43+02:00*%
%TF.ProjectId,08_Main_Gauche,30385f4d-6169-46e5-9f47-61756368652e,rev?*%
%TF.SameCoordinates,Original*%
%TF.FileFunction,Legend,Top*%
%TF.FilePolarity,Positive*%
%FSLAX46Y46*%
G04 Gerber Fmt 4.6, Leading zero omitted, Abs format (unit mm)*
G04 Created by KiCad (PCBNEW (5.1.6)-1) date 2021-04-12 23:45:43*
%MOMM*%
%LPD*%
G01*
G04 APERTURE LIST*
%TA.AperFunction,Profile*%
%ADD10C,0.150000*%
%TD*%
%ADD11C,0.120000*%
%ADD12C,0.150000*%
G04 APERTURE END LIST*
D10*
X180000000Y-55000000D02*
X195000000Y-55000000D01*
X157000000Y-55000000D02*
X180000000Y-55000000D01*
X195000000Y-55000000D02*
G75*
G02*
X200000000Y-60000000I0J-5000000D01*
G01*
X200000000Y-150000000D02*
G75*
G02*
X195000000Y-155000000I-5000000J0D01*
G01*
X105000000Y-155000000D02*
G75*
G02*
X100000000Y-150000000I0J5000000D01*
G01*
X100000000Y-60000000D02*
G75*
G02*
X105000000Y-55000000I5000000J0D01*
G01*
X100000000Y-150000000D02*
X100000000Y-60000000D01*
X195000000Y-155000000D02*
X105000000Y-155000000D01*
X200000000Y-60000000D02*
X200000000Y-150000000D01*
X105000000Y-55000000D02*
X157000000Y-55000000D01*
D11*
%TO.C,SW1*%
X100965000Y-65405000D02*
X114935000Y-65405000D01*
X114935000Y-65405000D02*
X114935000Y-79375000D01*
X114935000Y-79375000D02*
X100965000Y-79375000D01*
X100965000Y-79375000D02*
X100965000Y-65405000D01*
%TO.C,SW2*%
X116205000Y-79375000D02*
X116205000Y-65405000D01*
X130175000Y-79375000D02*
X116205000Y-79375000D01*
X130175000Y-65405000D02*
X130175000Y-79375000D01*
X116205000Y-65405000D02*
X130175000Y-65405000D01*
%TO.C,SW3*%
X131445000Y-65405000D02*
X145415000Y-65405000D01*
X145415000Y-65405000D02*
X145415000Y-79375000D01*
X145415000Y-79375000D02*
X131445000Y-79375000D01*
X131445000Y-79375000D02*
X131445000Y-65405000D01*
%TO.C,SW4*%
X146685000Y-79375000D02*
X146685000Y-65405000D01*
X160655000Y-79375000D02*
X146685000Y-79375000D01*
X160655000Y-65405000D02*
X160655000Y-79375000D01*
X146685000Y-65405000D02*
X160655000Y-65405000D01*
%TO.C,SW6*%
X183515000Y-79375000D02*
X183515000Y-65405000D01*
X197485000Y-79375000D02*
X183515000Y-79375000D01*
X197485000Y-65405000D02*
X197485000Y-79375000D01*
X183515000Y-65405000D02*
X197485000Y-65405000D01*
%TO.C,SW7*%
X100965000Y-80645000D02*
X114935000Y-80645000D01*
X114935000Y-80645000D02*
X114935000Y-94615000D01*
X114935000Y-94615000D02*
X100965000Y-94615000D01*
X100965000Y-94615000D02*
X100965000Y-80645000D01*
%TO.C,SW8*%
X116205000Y-94615000D02*
X116205000Y-80645000D01*
X130175000Y-94615000D02*
X116205000Y-94615000D01*
X130175000Y-80645000D02*
X130175000Y-94615000D01*
X116205000Y-80645000D02*
X130175000Y-80645000D01*
%TO.C,SW9*%
X131445000Y-80645000D02*
X145415000Y-80645000D01*
X145415000Y-80645000D02*
X145415000Y-94615000D01*
X145415000Y-94615000D02*
X131445000Y-94615000D01*
X131445000Y-94615000D02*
X131445000Y-80645000D01*
%TO.C,SW10*%
X146685000Y-94615000D02*
X146685000Y-80645000D01*
X160655000Y-94615000D02*
X146685000Y-94615000D01*
X160655000Y-80645000D02*
X160655000Y-94615000D01*
X146685000Y-80645000D02*
X160655000Y-80645000D01*
%TO.C,SW12*%
X183515000Y-80645000D02*
X197485000Y-80645000D01*
X197485000Y-80645000D02*
X197485000Y-94615000D01*
X197485000Y-94615000D02*
X183515000Y-94615000D01*
X183515000Y-94615000D02*
X183515000Y-80645000D01*
%TO.C,SW13*%
X100965000Y-109855000D02*
X100965000Y-95885000D01*
X114935000Y-109855000D02*
X100965000Y-109855000D01*
X114935000Y-95885000D02*
X114935000Y-109855000D01*
X100965000Y-95885000D02*
X114935000Y-95885000D01*
%TO.C,SW14*%
X116205000Y-95885000D02*
X130175000Y-95885000D01*
X130175000Y-95885000D02*
X130175000Y-109855000D01*
X130175000Y-109855000D02*
X116205000Y-109855000D01*
X116205000Y-109855000D02*
X116205000Y-95885000D01*
%TO.C,SW15*%
X131445000Y-109855000D02*
X131445000Y-95885000D01*
X145415000Y-109855000D02*
X131445000Y-109855000D01*
X145415000Y-95885000D02*
X145415000Y-109855000D01*
X131445000Y-95885000D02*
X145415000Y-95885000D01*
%TO.C,SW16*%
X146685000Y-95885000D02*
X160655000Y-95885000D01*
X160655000Y-95885000D02*
X160655000Y-109855000D01*
X160655000Y-109855000D02*
X146685000Y-109855000D01*
X146685000Y-109855000D02*
X146685000Y-95885000D01*
%TO.C,SW18*%
X183515000Y-109855000D02*
X183515000Y-95885000D01*
X197485000Y-109855000D02*
X183515000Y-109855000D01*
X197485000Y-95885000D02*
X197485000Y-109855000D01*
X183515000Y-95885000D02*
X197485000Y-95885000D01*
%TO.C,SW24*%
X183515000Y-111125000D02*
X197485000Y-111125000D01*
X197485000Y-111125000D02*
X197485000Y-125095000D01*
X197485000Y-125095000D02*
X183515000Y-125095000D01*
X183515000Y-125095000D02*
X183515000Y-111125000D01*
%TO.C,SW19*%
X100965000Y-125095000D02*
X100965000Y-111125000D01*
X114935000Y-125095000D02*
X100965000Y-125095000D01*
X114935000Y-111125000D02*
X114935000Y-125095000D01*
X100965000Y-111125000D02*
X114935000Y-111125000D01*
%TO.C,SW20*%
X116205000Y-125095000D02*
X116205000Y-111125000D01*
X130175000Y-125095000D02*
X116205000Y-125095000D01*
X130175000Y-111125000D02*
X130175000Y-125095000D01*
X116205000Y-111125000D02*
X130175000Y-111125000D01*
%TO.C,SW21*%
X131445000Y-125095000D02*
X131445000Y-111125000D01*
X145415000Y-125095000D02*
X131445000Y-125095000D01*
X145415000Y-111125000D02*
X145415000Y-125095000D01*
X131445000Y-111125000D02*
X145415000Y-111125000D01*
%TO.C,SW22*%
X146685000Y-111125000D02*
X160655000Y-111125000D01*
X160655000Y-111125000D02*
X160655000Y-125095000D01*
X160655000Y-125095000D02*
X146685000Y-125095000D01*
X146685000Y-125095000D02*
X146685000Y-111125000D01*
%TO.C,SW5*%
X161925000Y-65405000D02*
X175895000Y-65405000D01*
X175895000Y-65405000D02*
X175895000Y-79375000D01*
X175895000Y-79375000D02*
X161925000Y-79375000D01*
X161925000Y-79375000D02*
X161925000Y-65405000D01*
%TO.C,SW11*%
X161925000Y-94615000D02*
X161925000Y-80645000D01*
X175895000Y-94615000D02*
X161925000Y-94615000D01*
X175895000Y-80645000D02*
X175895000Y-94615000D01*
X161925000Y-80645000D02*
X175895000Y-80645000D01*
%TO.C,SW17*%
X161925000Y-95885000D02*
X175895000Y-95885000D01*
X175895000Y-95885000D02*
X175895000Y-109855000D01*
X175895000Y-109855000D02*
X161925000Y-109855000D01*
X161925000Y-109855000D02*
X161925000Y-95885000D01*
%TO.C,SW23*%
X161925000Y-125095000D02*
X161925000Y-111125000D01*
X175895000Y-125095000D02*
X161925000Y-125095000D01*
X175895000Y-111125000D02*
X175895000Y-125095000D01*
X161925000Y-111125000D02*
X175895000Y-111125000D01*
%TD*%
%TO.C,H3*%
D12*
X194238095Y-146252380D02*
X194238095Y-145252380D01*
X194238095Y-145728571D02*
X194809523Y-145728571D01*
X194809523Y-146252380D02*
X194809523Y-145252380D01*
X195190476Y-145252380D02*
X195809523Y-145252380D01*
X195476190Y-145633333D01*
X195619047Y-145633333D01*
X195714285Y-145680952D01*
X195761904Y-145728571D01*
X195809523Y-145823809D01*
X195809523Y-146061904D01*
X195761904Y-146157142D01*
X195714285Y-146204761D01*
X195619047Y-146252380D01*
X195333333Y-146252380D01*
X195238095Y-146204761D01*
X195190476Y-146157142D01*
%TO.C,H1*%
X104238095Y-56252380D02*
X104238095Y-55252380D01*
X104238095Y-55728571D02*
X104809523Y-55728571D01*
X104809523Y-56252380D02*
X104809523Y-55252380D01*
X105809523Y-56252380D02*
X105238095Y-56252380D01*
X105523809Y-56252380D02*
X105523809Y-55252380D01*
X105428571Y-55395238D01*
X105333333Y-55490476D01*
X105238095Y-55538095D01*
%TO.C,H2*%
X194238095Y-56252380D02*
X194238095Y-55252380D01*
X194238095Y-55728571D02*
X194809523Y-55728571D01*
X194809523Y-56252380D02*
X194809523Y-55252380D01*
X195238095Y-55347619D02*
X195285714Y-55300000D01*
X195380952Y-55252380D01*
X195619047Y-55252380D01*
X195714285Y-55300000D01*
X195761904Y-55347619D01*
X195809523Y-55442857D01*
X195809523Y-55538095D01*
X195761904Y-55680952D01*
X195190476Y-56252380D01*
X195809523Y-56252380D01*
%TO.C,H4*%
X104238095Y-146252380D02*
X104238095Y-145252380D01*
X104238095Y-145728571D02*
X104809523Y-145728571D01*
X104809523Y-146252380D02*
X104809523Y-145252380D01*
X105714285Y-145585714D02*
X105714285Y-146252380D01*
X105476190Y-145204761D02*
X105238095Y-145919047D01*
X105857142Y-145919047D01*
%TO.C,SW1*%
X106616666Y-64920761D02*
X106759523Y-64968380D01*
X106997619Y-64968380D01*
X107092857Y-64920761D01*
X107140476Y-64873142D01*
X107188095Y-64777904D01*
X107188095Y-64682666D01*
X107140476Y-64587428D01*
X107092857Y-64539809D01*
X106997619Y-64492190D01*
X106807142Y-64444571D01*
X106711904Y-64396952D01*
X106664285Y-64349333D01*
X106616666Y-64254095D01*
X106616666Y-64158857D01*
X106664285Y-64063619D01*
X106711904Y-64016000D01*
X106807142Y-63968380D01*
X107045238Y-63968380D01*
X107188095Y-64016000D01*
X107521428Y-63968380D02*
X107759523Y-64968380D01*
X107950000Y-64254095D01*
X108140476Y-64968380D01*
X108378571Y-63968380D01*
X109283333Y-64968380D02*
X108711904Y-64968380D01*
X108997619Y-64968380D02*
X108997619Y-63968380D01*
X108902380Y-64111238D01*
X108807142Y-64206476D01*
X108711904Y-64254095D01*
%TO.C,SW2*%
X121856666Y-64920761D02*
X121999523Y-64968380D01*
X122237619Y-64968380D01*
X122332857Y-64920761D01*
X122380476Y-64873142D01*
X122428095Y-64777904D01*
X122428095Y-64682666D01*
X122380476Y-64587428D01*
X122332857Y-64539809D01*
X122237619Y-64492190D01*
X122047142Y-64444571D01*
X121951904Y-64396952D01*
X121904285Y-64349333D01*
X121856666Y-64254095D01*
X121856666Y-64158857D01*
X121904285Y-64063619D01*
X121951904Y-64016000D01*
X122047142Y-63968380D01*
X122285238Y-63968380D01*
X122428095Y-64016000D01*
X122761428Y-63968380D02*
X122999523Y-64968380D01*
X123190000Y-64254095D01*
X123380476Y-64968380D01*
X123618571Y-63968380D01*
X123951904Y-64063619D02*
X123999523Y-64016000D01*
X124094761Y-63968380D01*
X124332857Y-63968380D01*
X124428095Y-64016000D01*
X124475714Y-64063619D01*
X124523333Y-64158857D01*
X124523333Y-64254095D01*
X124475714Y-64396952D01*
X123904285Y-64968380D01*
X124523333Y-64968380D01*
%TO.C,SW3*%
X137096666Y-64920761D02*
X137239523Y-64968380D01*
X137477619Y-64968380D01*
X137572857Y-64920761D01*
X137620476Y-64873142D01*
X137668095Y-64777904D01*
X137668095Y-64682666D01*
X137620476Y-64587428D01*
X137572857Y-64539809D01*
X137477619Y-64492190D01*
X137287142Y-64444571D01*
X137191904Y-64396952D01*
X137144285Y-64349333D01*
X137096666Y-64254095D01*
X137096666Y-64158857D01*
X137144285Y-64063619D01*
X137191904Y-64016000D01*
X137287142Y-63968380D01*
X137525238Y-63968380D01*
X137668095Y-64016000D01*
X138001428Y-63968380D02*
X138239523Y-64968380D01*
X138430000Y-64254095D01*
X138620476Y-64968380D01*
X138858571Y-63968380D01*
X139144285Y-63968380D02*
X139763333Y-63968380D01*
X139430000Y-64349333D01*
X139572857Y-64349333D01*
X139668095Y-64396952D01*
X139715714Y-64444571D01*
X139763333Y-64539809D01*
X139763333Y-64777904D01*
X139715714Y-64873142D01*
X139668095Y-64920761D01*
X139572857Y-64968380D01*
X139287142Y-64968380D01*
X139191904Y-64920761D01*
X139144285Y-64873142D01*
%TO.C,SW4*%
X152336666Y-64920761D02*
X152479523Y-64968380D01*
X152717619Y-64968380D01*
X152812857Y-64920761D01*
X152860476Y-64873142D01*
X152908095Y-64777904D01*
X152908095Y-64682666D01*
X152860476Y-64587428D01*
X152812857Y-64539809D01*
X152717619Y-64492190D01*
X152527142Y-64444571D01*
X152431904Y-64396952D01*
X152384285Y-64349333D01*
X152336666Y-64254095D01*
X152336666Y-64158857D01*
X152384285Y-64063619D01*
X152431904Y-64016000D01*
X152527142Y-63968380D01*
X152765238Y-63968380D01*
X152908095Y-64016000D01*
X153241428Y-63968380D02*
X153479523Y-64968380D01*
X153670000Y-64254095D01*
X153860476Y-64968380D01*
X154098571Y-63968380D01*
X154908095Y-64301714D02*
X154908095Y-64968380D01*
X154670000Y-63920761D02*
X154431904Y-64635047D01*
X155050952Y-64635047D01*
%TO.C,SW6*%
X189166666Y-64920761D02*
X189309523Y-64968380D01*
X189547619Y-64968380D01*
X189642857Y-64920761D01*
X189690476Y-64873142D01*
X189738095Y-64777904D01*
X189738095Y-64682666D01*
X189690476Y-64587428D01*
X189642857Y-64539809D01*
X189547619Y-64492190D01*
X189357142Y-64444571D01*
X189261904Y-64396952D01*
X189214285Y-64349333D01*
X189166666Y-64254095D01*
X189166666Y-64158857D01*
X189214285Y-64063619D01*
X189261904Y-64016000D01*
X189357142Y-63968380D01*
X189595238Y-63968380D01*
X189738095Y-64016000D01*
X190071428Y-63968380D02*
X190309523Y-64968380D01*
X190500000Y-64254095D01*
X190690476Y-64968380D01*
X190928571Y-63968380D01*
X191738095Y-63968380D02*
X191547619Y-63968380D01*
X191452380Y-64016000D01*
X191404761Y-64063619D01*
X191309523Y-64206476D01*
X191261904Y-64396952D01*
X191261904Y-64777904D01*
X191309523Y-64873142D01*
X191357142Y-64920761D01*
X191452380Y-64968380D01*
X191642857Y-64968380D01*
X191738095Y-64920761D01*
X191785714Y-64873142D01*
X191833333Y-64777904D01*
X191833333Y-64539809D01*
X191785714Y-64444571D01*
X191738095Y-64396952D01*
X191642857Y-64349333D01*
X191452380Y-64349333D01*
X191357142Y-64396952D01*
X191309523Y-64444571D01*
X191261904Y-64539809D01*
%TO.C,SW7*%
X106616666Y-80160761D02*
X106759523Y-80208380D01*
X106997619Y-80208380D01*
X107092857Y-80160761D01*
X107140476Y-80113142D01*
X107188095Y-80017904D01*
X107188095Y-79922666D01*
X107140476Y-79827428D01*
X107092857Y-79779809D01*
X106997619Y-79732190D01*
X106807142Y-79684571D01*
X106711904Y-79636952D01*
X106664285Y-79589333D01*
X106616666Y-79494095D01*
X106616666Y-79398857D01*
X106664285Y-79303619D01*
X106711904Y-79256000D01*
X106807142Y-79208380D01*
X107045238Y-79208380D01*
X107188095Y-79256000D01*
X107521428Y-79208380D02*
X107759523Y-80208380D01*
X107950000Y-79494095D01*
X108140476Y-80208380D01*
X108378571Y-79208380D01*
X108664285Y-79208380D02*
X109330952Y-79208380D01*
X108902380Y-80208380D01*
%TO.C,SW8*%
X121856666Y-80160761D02*
X121999523Y-80208380D01*
X122237619Y-80208380D01*
X122332857Y-80160761D01*
X122380476Y-80113142D01*
X122428095Y-80017904D01*
X122428095Y-79922666D01*
X122380476Y-79827428D01*
X122332857Y-79779809D01*
X122237619Y-79732190D01*
X122047142Y-79684571D01*
X121951904Y-79636952D01*
X121904285Y-79589333D01*
X121856666Y-79494095D01*
X121856666Y-79398857D01*
X121904285Y-79303619D01*
X121951904Y-79256000D01*
X122047142Y-79208380D01*
X122285238Y-79208380D01*
X122428095Y-79256000D01*
X122761428Y-79208380D02*
X122999523Y-80208380D01*
X123190000Y-79494095D01*
X123380476Y-80208380D01*
X123618571Y-79208380D01*
X124142380Y-79636952D02*
X124047142Y-79589333D01*
X123999523Y-79541714D01*
X123951904Y-79446476D01*
X123951904Y-79398857D01*
X123999523Y-79303619D01*
X124047142Y-79256000D01*
X124142380Y-79208380D01*
X124332857Y-79208380D01*
X124428095Y-79256000D01*
X124475714Y-79303619D01*
X124523333Y-79398857D01*
X124523333Y-79446476D01*
X124475714Y-79541714D01*
X124428095Y-79589333D01*
X124332857Y-79636952D01*
X124142380Y-79636952D01*
X124047142Y-79684571D01*
X123999523Y-79732190D01*
X123951904Y-79827428D01*
X123951904Y-80017904D01*
X123999523Y-80113142D01*
X124047142Y-80160761D01*
X124142380Y-80208380D01*
X124332857Y-80208380D01*
X124428095Y-80160761D01*
X124475714Y-80113142D01*
X124523333Y-80017904D01*
X124523333Y-79827428D01*
X124475714Y-79732190D01*
X124428095Y-79684571D01*
X124332857Y-79636952D01*
%TO.C,SW9*%
X137096666Y-80160761D02*
X137239523Y-80208380D01*
X137477619Y-80208380D01*
X137572857Y-80160761D01*
X137620476Y-80113142D01*
X137668095Y-80017904D01*
X137668095Y-79922666D01*
X137620476Y-79827428D01*
X137572857Y-79779809D01*
X137477619Y-79732190D01*
X137287142Y-79684571D01*
X137191904Y-79636952D01*
X137144285Y-79589333D01*
X137096666Y-79494095D01*
X137096666Y-79398857D01*
X137144285Y-79303619D01*
X137191904Y-79256000D01*
X137287142Y-79208380D01*
X137525238Y-79208380D01*
X137668095Y-79256000D01*
X138001428Y-79208380D02*
X138239523Y-80208380D01*
X138430000Y-79494095D01*
X138620476Y-80208380D01*
X138858571Y-79208380D01*
X139287142Y-80208380D02*
X139477619Y-80208380D01*
X139572857Y-80160761D01*
X139620476Y-80113142D01*
X139715714Y-79970285D01*
X139763333Y-79779809D01*
X139763333Y-79398857D01*
X139715714Y-79303619D01*
X139668095Y-79256000D01*
X139572857Y-79208380D01*
X139382380Y-79208380D01*
X139287142Y-79256000D01*
X139239523Y-79303619D01*
X139191904Y-79398857D01*
X139191904Y-79636952D01*
X139239523Y-79732190D01*
X139287142Y-79779809D01*
X139382380Y-79827428D01*
X139572857Y-79827428D01*
X139668095Y-79779809D01*
X139715714Y-79732190D01*
X139763333Y-79636952D01*
%TO.C,SW10*%
X151860476Y-80160761D02*
X152003333Y-80208380D01*
X152241428Y-80208380D01*
X152336666Y-80160761D01*
X152384285Y-80113142D01*
X152431904Y-80017904D01*
X152431904Y-79922666D01*
X152384285Y-79827428D01*
X152336666Y-79779809D01*
X152241428Y-79732190D01*
X152050952Y-79684571D01*
X151955714Y-79636952D01*
X151908095Y-79589333D01*
X151860476Y-79494095D01*
X151860476Y-79398857D01*
X151908095Y-79303619D01*
X151955714Y-79256000D01*
X152050952Y-79208380D01*
X152289047Y-79208380D01*
X152431904Y-79256000D01*
X152765238Y-79208380D02*
X153003333Y-80208380D01*
X153193809Y-79494095D01*
X153384285Y-80208380D01*
X153622380Y-79208380D01*
X154527142Y-80208380D02*
X153955714Y-80208380D01*
X154241428Y-80208380D02*
X154241428Y-79208380D01*
X154146190Y-79351238D01*
X154050952Y-79446476D01*
X153955714Y-79494095D01*
X155146190Y-79208380D02*
X155241428Y-79208380D01*
X155336666Y-79256000D01*
X155384285Y-79303619D01*
X155431904Y-79398857D01*
X155479523Y-79589333D01*
X155479523Y-79827428D01*
X155431904Y-80017904D01*
X155384285Y-80113142D01*
X155336666Y-80160761D01*
X155241428Y-80208380D01*
X155146190Y-80208380D01*
X155050952Y-80160761D01*
X155003333Y-80113142D01*
X154955714Y-80017904D01*
X154908095Y-79827428D01*
X154908095Y-79589333D01*
X154955714Y-79398857D01*
X155003333Y-79303619D01*
X155050952Y-79256000D01*
X155146190Y-79208380D01*
%TO.C,SW12*%
X188690476Y-80160761D02*
X188833333Y-80208380D01*
X189071428Y-80208380D01*
X189166666Y-80160761D01*
X189214285Y-80113142D01*
X189261904Y-80017904D01*
X189261904Y-79922666D01*
X189214285Y-79827428D01*
X189166666Y-79779809D01*
X189071428Y-79732190D01*
X188880952Y-79684571D01*
X188785714Y-79636952D01*
X188738095Y-79589333D01*
X188690476Y-79494095D01*
X188690476Y-79398857D01*
X188738095Y-79303619D01*
X188785714Y-79256000D01*
X188880952Y-79208380D01*
X189119047Y-79208380D01*
X189261904Y-79256000D01*
X189595238Y-79208380D02*
X189833333Y-80208380D01*
X190023809Y-79494095D01*
X190214285Y-80208380D01*
X190452380Y-79208380D01*
X191357142Y-80208380D02*
X190785714Y-80208380D01*
X191071428Y-80208380D02*
X191071428Y-79208380D01*
X190976190Y-79351238D01*
X190880952Y-79446476D01*
X190785714Y-79494095D01*
X191738095Y-79303619D02*
X191785714Y-79256000D01*
X191880952Y-79208380D01*
X192119047Y-79208380D01*
X192214285Y-79256000D01*
X192261904Y-79303619D01*
X192309523Y-79398857D01*
X192309523Y-79494095D01*
X192261904Y-79636952D01*
X191690476Y-80208380D01*
X192309523Y-80208380D01*
%TO.C,SW13*%
X106140476Y-95400761D02*
X106283333Y-95448380D01*
X106521428Y-95448380D01*
X106616666Y-95400761D01*
X106664285Y-95353142D01*
X106711904Y-95257904D01*
X106711904Y-95162666D01*
X106664285Y-95067428D01*
X106616666Y-95019809D01*
X106521428Y-94972190D01*
X106330952Y-94924571D01*
X106235714Y-94876952D01*
X106188095Y-94829333D01*
X106140476Y-94734095D01*
X106140476Y-94638857D01*
X106188095Y-94543619D01*
X106235714Y-94496000D01*
X106330952Y-94448380D01*
X106569047Y-94448380D01*
X106711904Y-94496000D01*
X107045238Y-94448380D02*
X107283333Y-95448380D01*
X107473809Y-94734095D01*
X107664285Y-95448380D01*
X107902380Y-94448380D01*
X108807142Y-95448380D02*
X108235714Y-95448380D01*
X108521428Y-95448380D02*
X108521428Y-94448380D01*
X108426190Y-94591238D01*
X108330952Y-94686476D01*
X108235714Y-94734095D01*
X109140476Y-94448380D02*
X109759523Y-94448380D01*
X109426190Y-94829333D01*
X109569047Y-94829333D01*
X109664285Y-94876952D01*
X109711904Y-94924571D01*
X109759523Y-95019809D01*
X109759523Y-95257904D01*
X109711904Y-95353142D01*
X109664285Y-95400761D01*
X109569047Y-95448380D01*
X109283333Y-95448380D01*
X109188095Y-95400761D01*
X109140476Y-95353142D01*
%TO.C,SW14*%
X121380476Y-95400761D02*
X121523333Y-95448380D01*
X121761428Y-95448380D01*
X121856666Y-95400761D01*
X121904285Y-95353142D01*
X121951904Y-95257904D01*
X121951904Y-95162666D01*
X121904285Y-95067428D01*
X121856666Y-95019809D01*
X121761428Y-94972190D01*
X121570952Y-94924571D01*
X121475714Y-94876952D01*
X121428095Y-94829333D01*
X121380476Y-94734095D01*
X121380476Y-94638857D01*
X121428095Y-94543619D01*
X121475714Y-94496000D01*
X121570952Y-94448380D01*
X121809047Y-94448380D01*
X121951904Y-94496000D01*
X122285238Y-94448380D02*
X122523333Y-95448380D01*
X122713809Y-94734095D01*
X122904285Y-95448380D01*
X123142380Y-94448380D01*
X124047142Y-95448380D02*
X123475714Y-95448380D01*
X123761428Y-95448380D02*
X123761428Y-94448380D01*
X123666190Y-94591238D01*
X123570952Y-94686476D01*
X123475714Y-94734095D01*
X124904285Y-94781714D02*
X124904285Y-95448380D01*
X124666190Y-94400761D02*
X124428095Y-95115047D01*
X125047142Y-95115047D01*
%TO.C,SW15*%
X136620476Y-95400761D02*
X136763333Y-95448380D01*
X137001428Y-95448380D01*
X137096666Y-95400761D01*
X137144285Y-95353142D01*
X137191904Y-95257904D01*
X137191904Y-95162666D01*
X137144285Y-95067428D01*
X137096666Y-95019809D01*
X137001428Y-94972190D01*
X136810952Y-94924571D01*
X136715714Y-94876952D01*
X136668095Y-94829333D01*
X136620476Y-94734095D01*
X136620476Y-94638857D01*
X136668095Y-94543619D01*
X136715714Y-94496000D01*
X136810952Y-94448380D01*
X137049047Y-94448380D01*
X137191904Y-94496000D01*
X137525238Y-94448380D02*
X137763333Y-95448380D01*
X137953809Y-94734095D01*
X138144285Y-95448380D01*
X138382380Y-94448380D01*
X139287142Y-95448380D02*
X138715714Y-95448380D01*
X139001428Y-95448380D02*
X139001428Y-94448380D01*
X138906190Y-94591238D01*
X138810952Y-94686476D01*
X138715714Y-94734095D01*
X140191904Y-94448380D02*
X139715714Y-94448380D01*
X139668095Y-94924571D01*
X139715714Y-94876952D01*
X139810952Y-94829333D01*
X140049047Y-94829333D01*
X140144285Y-94876952D01*
X140191904Y-94924571D01*
X140239523Y-95019809D01*
X140239523Y-95257904D01*
X140191904Y-95353142D01*
X140144285Y-95400761D01*
X140049047Y-95448380D01*
X139810952Y-95448380D01*
X139715714Y-95400761D01*
X139668095Y-95353142D01*
%TO.C,SW16*%
X151860476Y-95400761D02*
X152003333Y-95448380D01*
X152241428Y-95448380D01*
X152336666Y-95400761D01*
X152384285Y-95353142D01*
X152431904Y-95257904D01*
X152431904Y-95162666D01*
X152384285Y-95067428D01*
X152336666Y-95019809D01*
X152241428Y-94972190D01*
X152050952Y-94924571D01*
X151955714Y-94876952D01*
X151908095Y-94829333D01*
X151860476Y-94734095D01*
X151860476Y-94638857D01*
X151908095Y-94543619D01*
X151955714Y-94496000D01*
X152050952Y-94448380D01*
X152289047Y-94448380D01*
X152431904Y-94496000D01*
X152765238Y-94448380D02*
X153003333Y-95448380D01*
X153193809Y-94734095D01*
X153384285Y-95448380D01*
X153622380Y-94448380D01*
X154527142Y-95448380D02*
X153955714Y-95448380D01*
X154241428Y-95448380D02*
X154241428Y-94448380D01*
X154146190Y-94591238D01*
X154050952Y-94686476D01*
X153955714Y-94734095D01*
X155384285Y-94448380D02*
X155193809Y-94448380D01*
X155098571Y-94496000D01*
X155050952Y-94543619D01*
X154955714Y-94686476D01*
X154908095Y-94876952D01*
X154908095Y-95257904D01*
X154955714Y-95353142D01*
X155003333Y-95400761D01*
X155098571Y-95448380D01*
X155289047Y-95448380D01*
X155384285Y-95400761D01*
X155431904Y-95353142D01*
X155479523Y-95257904D01*
X155479523Y-95019809D01*
X155431904Y-94924571D01*
X155384285Y-94876952D01*
X155289047Y-94829333D01*
X155098571Y-94829333D01*
X155003333Y-94876952D01*
X154955714Y-94924571D01*
X154908095Y-95019809D01*
%TO.C,SW18*%
X188690476Y-95400761D02*
X188833333Y-95448380D01*
X189071428Y-95448380D01*
X189166666Y-95400761D01*
X189214285Y-95353142D01*
X189261904Y-95257904D01*
X189261904Y-95162666D01*
X189214285Y-95067428D01*
X189166666Y-95019809D01*
X189071428Y-94972190D01*
X188880952Y-94924571D01*
X188785714Y-94876952D01*
X188738095Y-94829333D01*
X188690476Y-94734095D01*
X188690476Y-94638857D01*
X188738095Y-94543619D01*
X188785714Y-94496000D01*
X188880952Y-94448380D01*
X189119047Y-94448380D01*
X189261904Y-94496000D01*
X189595238Y-94448380D02*
X189833333Y-95448380D01*
X190023809Y-94734095D01*
X190214285Y-95448380D01*
X190452380Y-94448380D01*
X191357142Y-95448380D02*
X190785714Y-95448380D01*
X191071428Y-95448380D02*
X191071428Y-94448380D01*
X190976190Y-94591238D01*
X190880952Y-94686476D01*
X190785714Y-94734095D01*
X191928571Y-94876952D02*
X191833333Y-94829333D01*
X191785714Y-94781714D01*
X191738095Y-94686476D01*
X191738095Y-94638857D01*
X191785714Y-94543619D01*
X191833333Y-94496000D01*
X191928571Y-94448380D01*
X192119047Y-94448380D01*
X192214285Y-94496000D01*
X192261904Y-94543619D01*
X192309523Y-94638857D01*
X192309523Y-94686476D01*
X192261904Y-94781714D01*
X192214285Y-94829333D01*
X192119047Y-94876952D01*
X191928571Y-94876952D01*
X191833333Y-94924571D01*
X191785714Y-94972190D01*
X191738095Y-95067428D01*
X191738095Y-95257904D01*
X191785714Y-95353142D01*
X191833333Y-95400761D01*
X191928571Y-95448380D01*
X192119047Y-95448380D01*
X192214285Y-95400761D01*
X192261904Y-95353142D01*
X192309523Y-95257904D01*
X192309523Y-95067428D01*
X192261904Y-94972190D01*
X192214285Y-94924571D01*
X192119047Y-94876952D01*
%TO.C,SW24*%
X188690476Y-110640761D02*
X188833333Y-110688380D01*
X189071428Y-110688380D01*
X189166666Y-110640761D01*
X189214285Y-110593142D01*
X189261904Y-110497904D01*
X189261904Y-110402666D01*
X189214285Y-110307428D01*
X189166666Y-110259809D01*
X189071428Y-110212190D01*
X188880952Y-110164571D01*
X188785714Y-110116952D01*
X188738095Y-110069333D01*
X188690476Y-109974095D01*
X188690476Y-109878857D01*
X188738095Y-109783619D01*
X188785714Y-109736000D01*
X188880952Y-109688380D01*
X189119047Y-109688380D01*
X189261904Y-109736000D01*
X189595238Y-109688380D02*
X189833333Y-110688380D01*
X190023809Y-109974095D01*
X190214285Y-110688380D01*
X190452380Y-109688380D01*
X190785714Y-109783619D02*
X190833333Y-109736000D01*
X190928571Y-109688380D01*
X191166666Y-109688380D01*
X191261904Y-109736000D01*
X191309523Y-109783619D01*
X191357142Y-109878857D01*
X191357142Y-109974095D01*
X191309523Y-110116952D01*
X190738095Y-110688380D01*
X191357142Y-110688380D01*
X192214285Y-110021714D02*
X192214285Y-110688380D01*
X191976190Y-109640761D02*
X191738095Y-110355047D01*
X192357142Y-110355047D01*
%TO.C,SW19*%
X106140476Y-110640761D02*
X106283333Y-110688380D01*
X106521428Y-110688380D01*
X106616666Y-110640761D01*
X106664285Y-110593142D01*
X106711904Y-110497904D01*
X106711904Y-110402666D01*
X106664285Y-110307428D01*
X106616666Y-110259809D01*
X106521428Y-110212190D01*
X106330952Y-110164571D01*
X106235714Y-110116952D01*
X106188095Y-110069333D01*
X106140476Y-109974095D01*
X106140476Y-109878857D01*
X106188095Y-109783619D01*
X106235714Y-109736000D01*
X106330952Y-109688380D01*
X106569047Y-109688380D01*
X106711904Y-109736000D01*
X107045238Y-109688380D02*
X107283333Y-110688380D01*
X107473809Y-109974095D01*
X107664285Y-110688380D01*
X107902380Y-109688380D01*
X108807142Y-110688380D02*
X108235714Y-110688380D01*
X108521428Y-110688380D02*
X108521428Y-109688380D01*
X108426190Y-109831238D01*
X108330952Y-109926476D01*
X108235714Y-109974095D01*
X109283333Y-110688380D02*
X109473809Y-110688380D01*
X109569047Y-110640761D01*
X109616666Y-110593142D01*
X109711904Y-110450285D01*
X109759523Y-110259809D01*
X109759523Y-109878857D01*
X109711904Y-109783619D01*
X109664285Y-109736000D01*
X109569047Y-109688380D01*
X109378571Y-109688380D01*
X109283333Y-109736000D01*
X109235714Y-109783619D01*
X109188095Y-109878857D01*
X109188095Y-110116952D01*
X109235714Y-110212190D01*
X109283333Y-110259809D01*
X109378571Y-110307428D01*
X109569047Y-110307428D01*
X109664285Y-110259809D01*
X109711904Y-110212190D01*
X109759523Y-110116952D01*
%TO.C,SW20*%
X121380476Y-110640761D02*
X121523333Y-110688380D01*
X121761428Y-110688380D01*
X121856666Y-110640761D01*
X121904285Y-110593142D01*
X121951904Y-110497904D01*
X121951904Y-110402666D01*
X121904285Y-110307428D01*
X121856666Y-110259809D01*
X121761428Y-110212190D01*
X121570952Y-110164571D01*
X121475714Y-110116952D01*
X121428095Y-110069333D01*
X121380476Y-109974095D01*
X121380476Y-109878857D01*
X121428095Y-109783619D01*
X121475714Y-109736000D01*
X121570952Y-109688380D01*
X121809047Y-109688380D01*
X121951904Y-109736000D01*
X122285238Y-109688380D02*
X122523333Y-110688380D01*
X122713809Y-109974095D01*
X122904285Y-110688380D01*
X123142380Y-109688380D01*
X123475714Y-109783619D02*
X123523333Y-109736000D01*
X123618571Y-109688380D01*
X123856666Y-109688380D01*
X123951904Y-109736000D01*
X123999523Y-109783619D01*
X124047142Y-109878857D01*
X124047142Y-109974095D01*
X123999523Y-110116952D01*
X123428095Y-110688380D01*
X124047142Y-110688380D01*
X124666190Y-109688380D02*
X124761428Y-109688380D01*
X124856666Y-109736000D01*
X124904285Y-109783619D01*
X124951904Y-109878857D01*
X124999523Y-110069333D01*
X124999523Y-110307428D01*
X124951904Y-110497904D01*
X124904285Y-110593142D01*
X124856666Y-110640761D01*
X124761428Y-110688380D01*
X124666190Y-110688380D01*
X124570952Y-110640761D01*
X124523333Y-110593142D01*
X124475714Y-110497904D01*
X124428095Y-110307428D01*
X124428095Y-110069333D01*
X124475714Y-109878857D01*
X124523333Y-109783619D01*
X124570952Y-109736000D01*
X124666190Y-109688380D01*
%TO.C,SW21*%
X136620476Y-110640761D02*
X136763333Y-110688380D01*
X137001428Y-110688380D01*
X137096666Y-110640761D01*
X137144285Y-110593142D01*
X137191904Y-110497904D01*
X137191904Y-110402666D01*
X137144285Y-110307428D01*
X137096666Y-110259809D01*
X137001428Y-110212190D01*
X136810952Y-110164571D01*
X136715714Y-110116952D01*
X136668095Y-110069333D01*
X136620476Y-109974095D01*
X136620476Y-109878857D01*
X136668095Y-109783619D01*
X136715714Y-109736000D01*
X136810952Y-109688380D01*
X137049047Y-109688380D01*
X137191904Y-109736000D01*
X137525238Y-109688380D02*
X137763333Y-110688380D01*
X137953809Y-109974095D01*
X138144285Y-110688380D01*
X138382380Y-109688380D01*
X138715714Y-109783619D02*
X138763333Y-109736000D01*
X138858571Y-109688380D01*
X139096666Y-109688380D01*
X139191904Y-109736000D01*
X139239523Y-109783619D01*
X139287142Y-109878857D01*
X139287142Y-109974095D01*
X139239523Y-110116952D01*
X138668095Y-110688380D01*
X139287142Y-110688380D01*
X140239523Y-110688380D02*
X139668095Y-110688380D01*
X139953809Y-110688380D02*
X139953809Y-109688380D01*
X139858571Y-109831238D01*
X139763333Y-109926476D01*
X139668095Y-109974095D01*
%TO.C,SW22*%
X151860476Y-110640761D02*
X152003333Y-110688380D01*
X152241428Y-110688380D01*
X152336666Y-110640761D01*
X152384285Y-110593142D01*
X152431904Y-110497904D01*
X152431904Y-110402666D01*
X152384285Y-110307428D01*
X152336666Y-110259809D01*
X152241428Y-110212190D01*
X152050952Y-110164571D01*
X151955714Y-110116952D01*
X151908095Y-110069333D01*
X151860476Y-109974095D01*
X151860476Y-109878857D01*
X151908095Y-109783619D01*
X151955714Y-109736000D01*
X152050952Y-109688380D01*
X152289047Y-109688380D01*
X152431904Y-109736000D01*
X152765238Y-109688380D02*
X153003333Y-110688380D01*
X153193809Y-109974095D01*
X153384285Y-110688380D01*
X153622380Y-109688380D01*
X153955714Y-109783619D02*
X154003333Y-109736000D01*
X154098571Y-109688380D01*
X154336666Y-109688380D01*
X154431904Y-109736000D01*
X154479523Y-109783619D01*
X154527142Y-109878857D01*
X154527142Y-109974095D01*
X154479523Y-110116952D01*
X153908095Y-110688380D01*
X154527142Y-110688380D01*
X154908095Y-109783619D02*
X154955714Y-109736000D01*
X155050952Y-109688380D01*
X155289047Y-109688380D01*
X155384285Y-109736000D01*
X155431904Y-109783619D01*
X155479523Y-109878857D01*
X155479523Y-109974095D01*
X155431904Y-110116952D01*
X154860476Y-110688380D01*
X155479523Y-110688380D01*
%TO.C,SW25*%
X115030476Y-145819761D02*
X115173333Y-145867380D01*
X115411428Y-145867380D01*
X115506666Y-145819761D01*
X115554285Y-145772142D01*
X115601904Y-145676904D01*
X115601904Y-145581666D01*
X115554285Y-145486428D01*
X115506666Y-145438809D01*
X115411428Y-145391190D01*
X115220952Y-145343571D01*
X115125714Y-145295952D01*
X115078095Y-145248333D01*
X115030476Y-145153095D01*
X115030476Y-145057857D01*
X115078095Y-144962619D01*
X115125714Y-144915000D01*
X115220952Y-144867380D01*
X115459047Y-144867380D01*
X115601904Y-144915000D01*
X115935238Y-144867380D02*
X116173333Y-145867380D01*
X116363809Y-145153095D01*
X116554285Y-145867380D01*
X116792380Y-144867380D01*
X117125714Y-144962619D02*
X117173333Y-144915000D01*
X117268571Y-144867380D01*
X117506666Y-144867380D01*
X117601904Y-144915000D01*
X117649523Y-144962619D01*
X117697142Y-145057857D01*
X117697142Y-145153095D01*
X117649523Y-145295952D01*
X117078095Y-145867380D01*
X117697142Y-145867380D01*
X118601904Y-144867380D02*
X118125714Y-144867380D01*
X118078095Y-145343571D01*
X118125714Y-145295952D01*
X118220952Y-145248333D01*
X118459047Y-145248333D01*
X118554285Y-145295952D01*
X118601904Y-145343571D01*
X118649523Y-145438809D01*
X118649523Y-145676904D01*
X118601904Y-145772142D01*
X118554285Y-145819761D01*
X118459047Y-145867380D01*
X118220952Y-145867380D01*
X118125714Y-145819761D01*
X118078095Y-145772142D01*
%TO.C,SW26*%
X129000476Y-145819761D02*
X129143333Y-145867380D01*
X129381428Y-145867380D01*
X129476666Y-145819761D01*
X129524285Y-145772142D01*
X129571904Y-145676904D01*
X129571904Y-145581666D01*
X129524285Y-145486428D01*
X129476666Y-145438809D01*
X129381428Y-145391190D01*
X129190952Y-145343571D01*
X129095714Y-145295952D01*
X129048095Y-145248333D01*
X129000476Y-145153095D01*
X129000476Y-145057857D01*
X129048095Y-144962619D01*
X129095714Y-144915000D01*
X129190952Y-144867380D01*
X129429047Y-144867380D01*
X129571904Y-144915000D01*
X129905238Y-144867380D02*
X130143333Y-145867380D01*
X130333809Y-145153095D01*
X130524285Y-145867380D01*
X130762380Y-144867380D01*
X131095714Y-144962619D02*
X131143333Y-144915000D01*
X131238571Y-144867380D01*
X131476666Y-144867380D01*
X131571904Y-144915000D01*
X131619523Y-144962619D01*
X131667142Y-145057857D01*
X131667142Y-145153095D01*
X131619523Y-145295952D01*
X131048095Y-145867380D01*
X131667142Y-145867380D01*
X132524285Y-144867380D02*
X132333809Y-144867380D01*
X132238571Y-144915000D01*
X132190952Y-144962619D01*
X132095714Y-145105476D01*
X132048095Y-145295952D01*
X132048095Y-145676904D01*
X132095714Y-145772142D01*
X132143333Y-145819761D01*
X132238571Y-145867380D01*
X132429047Y-145867380D01*
X132524285Y-145819761D01*
X132571904Y-145772142D01*
X132619523Y-145676904D01*
X132619523Y-145438809D01*
X132571904Y-145343571D01*
X132524285Y-145295952D01*
X132429047Y-145248333D01*
X132238571Y-145248333D01*
X132143333Y-145295952D01*
X132095714Y-145343571D01*
X132048095Y-145438809D01*
%TO.C,SW27*%
X158210476Y-145819761D02*
X158353333Y-145867380D01*
X158591428Y-145867380D01*
X158686666Y-145819761D01*
X158734285Y-145772142D01*
X158781904Y-145676904D01*
X158781904Y-145581666D01*
X158734285Y-145486428D01*
X158686666Y-145438809D01*
X158591428Y-145391190D01*
X158400952Y-145343571D01*
X158305714Y-145295952D01*
X158258095Y-145248333D01*
X158210476Y-145153095D01*
X158210476Y-145057857D01*
X158258095Y-144962619D01*
X158305714Y-144915000D01*
X158400952Y-144867380D01*
X158639047Y-144867380D01*
X158781904Y-144915000D01*
X159115238Y-144867380D02*
X159353333Y-145867380D01*
X159543809Y-145153095D01*
X159734285Y-145867380D01*
X159972380Y-144867380D01*
X160305714Y-144962619D02*
X160353333Y-144915000D01*
X160448571Y-144867380D01*
X160686666Y-144867380D01*
X160781904Y-144915000D01*
X160829523Y-144962619D01*
X160877142Y-145057857D01*
X160877142Y-145153095D01*
X160829523Y-145295952D01*
X160258095Y-145867380D01*
X160877142Y-145867380D01*
X161210476Y-144867380D02*
X161877142Y-144867380D01*
X161448571Y-145867380D01*
%TO.C,SW28*%
X143605476Y-145819761D02*
X143748333Y-145867380D01*
X143986428Y-145867380D01*
X144081666Y-145819761D01*
X144129285Y-145772142D01*
X144176904Y-145676904D01*
X144176904Y-145581666D01*
X144129285Y-145486428D01*
X144081666Y-145438809D01*
X143986428Y-145391190D01*
X143795952Y-145343571D01*
X143700714Y-145295952D01*
X143653095Y-145248333D01*
X143605476Y-145153095D01*
X143605476Y-145057857D01*
X143653095Y-144962619D01*
X143700714Y-144915000D01*
X143795952Y-144867380D01*
X144034047Y-144867380D01*
X144176904Y-144915000D01*
X144510238Y-144867380D02*
X144748333Y-145867380D01*
X144938809Y-145153095D01*
X145129285Y-145867380D01*
X145367380Y-144867380D01*
X145700714Y-144962619D02*
X145748333Y-144915000D01*
X145843571Y-144867380D01*
X146081666Y-144867380D01*
X146176904Y-144915000D01*
X146224523Y-144962619D01*
X146272142Y-145057857D01*
X146272142Y-145153095D01*
X146224523Y-145295952D01*
X145653095Y-145867380D01*
X146272142Y-145867380D01*
X146843571Y-145295952D02*
X146748333Y-145248333D01*
X146700714Y-145200714D01*
X146653095Y-145105476D01*
X146653095Y-145057857D01*
X146700714Y-144962619D01*
X146748333Y-144915000D01*
X146843571Y-144867380D01*
X147034047Y-144867380D01*
X147129285Y-144915000D01*
X147176904Y-144962619D01*
X147224523Y-145057857D01*
X147224523Y-145105476D01*
X147176904Y-145200714D01*
X147129285Y-145248333D01*
X147034047Y-145295952D01*
X146843571Y-145295952D01*
X146748333Y-145343571D01*
X146700714Y-145391190D01*
X146653095Y-145486428D01*
X146653095Y-145676904D01*
X146700714Y-145772142D01*
X146748333Y-145819761D01*
X146843571Y-145867380D01*
X147034047Y-145867380D01*
X147129285Y-145819761D01*
X147176904Y-145772142D01*
X147224523Y-145676904D01*
X147224523Y-145486428D01*
X147176904Y-145391190D01*
X147129285Y-145343571D01*
X147034047Y-145295952D01*
%TO.C,SW5*%
X167576666Y-64920761D02*
X167719523Y-64968380D01*
X167957619Y-64968380D01*
X168052857Y-64920761D01*
X168100476Y-64873142D01*
X168148095Y-64777904D01*
X168148095Y-64682666D01*
X168100476Y-64587428D01*
X168052857Y-64539809D01*
X167957619Y-64492190D01*
X167767142Y-64444571D01*
X167671904Y-64396952D01*
X167624285Y-64349333D01*
X167576666Y-64254095D01*
X167576666Y-64158857D01*
X167624285Y-64063619D01*
X167671904Y-64016000D01*
X167767142Y-63968380D01*
X168005238Y-63968380D01*
X168148095Y-64016000D01*
X168481428Y-63968380D02*
X168719523Y-64968380D01*
X168910000Y-64254095D01*
X169100476Y-64968380D01*
X169338571Y-63968380D01*
X170195714Y-63968380D02*
X169719523Y-63968380D01*
X169671904Y-64444571D01*
X169719523Y-64396952D01*
X169814761Y-64349333D01*
X170052857Y-64349333D01*
X170148095Y-64396952D01*
X170195714Y-64444571D01*
X170243333Y-64539809D01*
X170243333Y-64777904D01*
X170195714Y-64873142D01*
X170148095Y-64920761D01*
X170052857Y-64968380D01*
X169814761Y-64968380D01*
X169719523Y-64920761D01*
X169671904Y-64873142D01*
%TO.C,SW11*%
X167100476Y-80160761D02*
X167243333Y-80208380D01*
X167481428Y-80208380D01*
X167576666Y-80160761D01*
X167624285Y-80113142D01*
X167671904Y-80017904D01*
X167671904Y-79922666D01*
X167624285Y-79827428D01*
X167576666Y-79779809D01*
X167481428Y-79732190D01*
X167290952Y-79684571D01*
X167195714Y-79636952D01*
X167148095Y-79589333D01*
X167100476Y-79494095D01*
X167100476Y-79398857D01*
X167148095Y-79303619D01*
X167195714Y-79256000D01*
X167290952Y-79208380D01*
X167529047Y-79208380D01*
X167671904Y-79256000D01*
X168005238Y-79208380D02*
X168243333Y-80208380D01*
X168433809Y-79494095D01*
X168624285Y-80208380D01*
X168862380Y-79208380D01*
X169767142Y-80208380D02*
X169195714Y-80208380D01*
X169481428Y-80208380D02*
X169481428Y-79208380D01*
X169386190Y-79351238D01*
X169290952Y-79446476D01*
X169195714Y-79494095D01*
X170719523Y-80208380D02*
X170148095Y-80208380D01*
X170433809Y-80208380D02*
X170433809Y-79208380D01*
X170338571Y-79351238D01*
X170243333Y-79446476D01*
X170148095Y-79494095D01*
%TO.C,SW17*%
X167100476Y-95400761D02*
X167243333Y-95448380D01*
X167481428Y-95448380D01*
X167576666Y-95400761D01*
X167624285Y-95353142D01*
X167671904Y-95257904D01*
X167671904Y-95162666D01*
X167624285Y-95067428D01*
X167576666Y-95019809D01*
X167481428Y-94972190D01*
X167290952Y-94924571D01*
X167195714Y-94876952D01*
X167148095Y-94829333D01*
X167100476Y-94734095D01*
X167100476Y-94638857D01*
X167148095Y-94543619D01*
X167195714Y-94496000D01*
X167290952Y-94448380D01*
X167529047Y-94448380D01*
X167671904Y-94496000D01*
X168005238Y-94448380D02*
X168243333Y-95448380D01*
X168433809Y-94734095D01*
X168624285Y-95448380D01*
X168862380Y-94448380D01*
X169767142Y-95448380D02*
X169195714Y-95448380D01*
X169481428Y-95448380D02*
X169481428Y-94448380D01*
X169386190Y-94591238D01*
X169290952Y-94686476D01*
X169195714Y-94734095D01*
X170100476Y-94448380D02*
X170767142Y-94448380D01*
X170338571Y-95448380D01*
%TO.C,SW23*%
X167100476Y-110640761D02*
X167243333Y-110688380D01*
X167481428Y-110688380D01*
X167576666Y-110640761D01*
X167624285Y-110593142D01*
X167671904Y-110497904D01*
X167671904Y-110402666D01*
X167624285Y-110307428D01*
X167576666Y-110259809D01*
X167481428Y-110212190D01*
X167290952Y-110164571D01*
X167195714Y-110116952D01*
X167148095Y-110069333D01*
X167100476Y-109974095D01*
X167100476Y-109878857D01*
X167148095Y-109783619D01*
X167195714Y-109736000D01*
X167290952Y-109688380D01*
X167529047Y-109688380D01*
X167671904Y-109736000D01*
X168005238Y-109688380D02*
X168243333Y-110688380D01*
X168433809Y-109974095D01*
X168624285Y-110688380D01*
X168862380Y-109688380D01*
X169195714Y-109783619D02*
X169243333Y-109736000D01*
X169338571Y-109688380D01*
X169576666Y-109688380D01*
X169671904Y-109736000D01*
X169719523Y-109783619D01*
X169767142Y-109878857D01*
X169767142Y-109974095D01*
X169719523Y-110116952D01*
X169148095Y-110688380D01*
X169767142Y-110688380D01*
X170100476Y-109688380D02*
X170719523Y-109688380D01*
X170386190Y-110069333D01*
X170529047Y-110069333D01*
X170624285Y-110116952D01*
X170671904Y-110164571D01*
X170719523Y-110259809D01*
X170719523Y-110497904D01*
X170671904Y-110593142D01*
X170624285Y-110640761D01*
X170529047Y-110688380D01*
X170243333Y-110688380D01*
X170148095Y-110640761D01*
X170100476Y-110593142D01*
%TD*%
M02*
