M48
; DRILL file {KiCad (5.1.6)-1} date 04/12/21 23:45:48
; FORMAT={-:-/ absolute / inch / decimal}
; #@! TF.CreationDate,2021-04-12T23:45:48+02:00
; #@! TF.GenerationSoftware,Kicad,Pcbnew,(5.1.6)-1
; #@! TF.FileFunction,NonPlated,1,2,NPTH
FMAT,2
INCH
T1C0.0669
T2C0.1575
%
G90
G05
T1
X7.3Y-4.65
X7.7Y-4.65
X4.05Y-2.85
X4.45Y-2.85
X4.65Y-2.85
X5.05Y-2.85
X4.65Y-4.05
X5.05Y-4.05
X4.05Y-4.05
X4.45Y-4.05
X4.65Y-3.45
X5.05Y-3.45
X5.25Y-2.85
X5.65Y-2.85
X6.45Y-4.65
X6.85Y-4.65
X5.25Y-4.65
X5.65Y-4.65
X5.85Y-3.45
X6.25Y-3.45
X6.45Y-3.45
X6.85Y-3.45
X4.65Y-4.65
X5.05Y-4.65
X7.3Y-3.45
X7.7Y-3.45
X6.45Y-4.05
X6.85Y-4.05
X5.85Y-2.85
X6.25Y-2.85
X6.45Y-2.85
X6.85Y-2.85
X4.05Y-4.65
X4.45Y-4.65
X5.25Y-3.45
X5.65Y-3.45
X7.3Y-2.85
X7.7Y-2.85
X5.85Y-4.65
X6.25Y-4.65
X5.85Y-4.05
X6.25Y-4.05
X5.25Y-4.05
X5.65Y-4.05
X4.05Y-3.45
X4.45Y-3.45
X7.3Y-4.05
X7.7Y-4.05
T2
X6.65Y-4.65
X5.45Y-4.65
X6.05Y-3.45
X6.65Y-3.45
X4.85Y-4.65
X7.5Y-3.45
X6.65Y-4.05
X6.05Y-2.85
X6.65Y-2.85
X4.25Y-4.65
X5.45Y-3.45
X7.5Y-2.85
X6.05Y-4.65
X6.05Y-4.05
X5.45Y-4.05
X4.25Y-3.45
X7.5Y-4.05
X7.5Y-4.65
X4.25Y-2.85
X4.85Y-2.85
X4.85Y-4.05
X4.25Y-4.05
X4.85Y-3.45
X5.45Y-2.85
T0
M30
