%TF.GenerationSoftware,KiCad,Pcbnew,(5.1.9)-1*%
%TF.CreationDate,2021-06-11T11:51:17+02:00*%
%TF.ProjectId,08_Main_Gauche,30385f4d-6169-46e5-9f47-61756368652e,rev?*%
%TF.SameCoordinates,Original*%
%TF.FileFunction,Legend,Top*%
%TF.FilePolarity,Positive*%
%FSLAX46Y46*%
G04 Gerber Fmt 4.6, Leading zero omitted, Abs format (unit mm)*
G04 Created by KiCad (PCBNEW (5.1.9)-1) date 2021-06-11 11:51:17*
%MOMM*%
%LPD*%
G01*
G04 APERTURE LIST*
%TA.AperFunction,Profile*%
%ADD10C,0.150000*%
%TD*%
%ADD11C,0.150000*%
%ADD12C,0.750000*%
%ADD13C,0.120000*%
G04 APERTURE END LIST*
D10*
X165000000Y-25000000D02*
G75*
G02*
X170000000Y-30000000I0J-5000000D01*
G01*
D11*
X154500000Y-160802380D02*
X154500000Y-159802380D01*
X154500000Y-160754761D02*
X154404761Y-160802380D01*
X154214285Y-160802380D01*
X154119047Y-160754761D01*
X154071428Y-160707142D01*
X154023809Y-160611904D01*
X154023809Y-160326190D01*
X154071428Y-160230952D01*
X154119047Y-160183333D01*
X154214285Y-160135714D01*
X154404761Y-160135714D01*
X154500000Y-160183333D01*
X154976190Y-160802380D02*
X154976190Y-160135714D01*
X154976190Y-160326190D02*
X155023809Y-160230952D01*
X155071428Y-160183333D01*
X155166666Y-160135714D01*
X155261904Y-160135714D01*
X155738095Y-160802380D02*
X155642857Y-160754761D01*
X155595238Y-160707142D01*
X155547619Y-160611904D01*
X155547619Y-160326190D01*
X155595238Y-160230952D01*
X155642857Y-160183333D01*
X155738095Y-160135714D01*
X155880952Y-160135714D01*
X155976190Y-160183333D01*
X156023809Y-160230952D01*
X156071428Y-160326190D01*
X156071428Y-160611904D01*
X156023809Y-160707142D01*
X155976190Y-160754761D01*
X155880952Y-160802380D01*
X155738095Y-160802380D01*
X156500000Y-160802380D02*
X156500000Y-160135714D01*
X156500000Y-159802380D02*
X156452380Y-159850000D01*
X156500000Y-159897619D01*
X156547619Y-159850000D01*
X156500000Y-159802380D01*
X156500000Y-159897619D01*
X156833333Y-160135714D02*
X157214285Y-160135714D01*
X156976190Y-159802380D02*
X156976190Y-160659523D01*
X157023809Y-160754761D01*
X157119047Y-160802380D01*
X157214285Y-160802380D01*
X157928571Y-160754761D02*
X157833333Y-160802380D01*
X157642857Y-160802380D01*
X157547619Y-160754761D01*
X157500000Y-160659523D01*
X157500000Y-160278571D01*
X157547619Y-160183333D01*
X157642857Y-160135714D01*
X157833333Y-160135714D01*
X157928571Y-160183333D01*
X157976190Y-160278571D01*
X157976190Y-160373809D01*
X157500000Y-160469047D01*
X154333333Y-157104761D02*
X154238095Y-157152380D01*
X154047619Y-157152380D01*
X153952380Y-157104761D01*
X153904761Y-157057142D01*
X153857142Y-156961904D01*
X153857142Y-156676190D01*
X153904761Y-156580952D01*
X153952380Y-156533333D01*
X154047619Y-156485714D01*
X154238095Y-156485714D01*
X154333333Y-156533333D01*
X155142857Y-157104761D02*
X155047619Y-157152380D01*
X154857142Y-157152380D01*
X154761904Y-157104761D01*
X154714285Y-157009523D01*
X154714285Y-156628571D01*
X154761904Y-156533333D01*
X154857142Y-156485714D01*
X155047619Y-156485714D01*
X155142857Y-156533333D01*
X155190476Y-156628571D01*
X155190476Y-156723809D01*
X154714285Y-156819047D01*
X155619047Y-156485714D02*
X155619047Y-157152380D01*
X155619047Y-156580952D02*
X155666666Y-156533333D01*
X155761904Y-156485714D01*
X155904761Y-156485714D01*
X156000000Y-156533333D01*
X156047619Y-156628571D01*
X156047619Y-157152380D01*
X156380952Y-156485714D02*
X156761904Y-156485714D01*
X156523809Y-156152380D02*
X156523809Y-157009523D01*
X156571428Y-157104761D01*
X156666666Y-157152380D01*
X156761904Y-157152380D01*
X157095238Y-157152380D02*
X157095238Y-156485714D01*
X157095238Y-156676190D02*
X157142857Y-156580952D01*
X157190476Y-156533333D01*
X157285714Y-156485714D01*
X157380952Y-156485714D01*
X158095238Y-157104761D02*
X158000000Y-157152380D01*
X157809523Y-157152380D01*
X157714285Y-157104761D01*
X157666666Y-157009523D01*
X157666666Y-156628571D01*
X157714285Y-156533333D01*
X157809523Y-156485714D01*
X158000000Y-156485714D01*
X158095238Y-156533333D01*
X158142857Y-156628571D01*
X158142857Y-156723809D01*
X157666666Y-156819047D01*
X132928571Y-163402380D02*
X132928571Y-162402380D01*
X132928571Y-162783333D02*
X133023809Y-162735714D01*
X133214285Y-162735714D01*
X133309523Y-162783333D01*
X133357142Y-162830952D01*
X133404761Y-162926190D01*
X133404761Y-163211904D01*
X133357142Y-163307142D01*
X133309523Y-163354761D01*
X133214285Y-163402380D01*
X133023809Y-163402380D01*
X132928571Y-163354761D01*
X134261904Y-163402380D02*
X134261904Y-162878571D01*
X134214285Y-162783333D01*
X134119047Y-162735714D01*
X133928571Y-162735714D01*
X133833333Y-162783333D01*
X134261904Y-163354761D02*
X134166666Y-163402380D01*
X133928571Y-163402380D01*
X133833333Y-163354761D01*
X133785714Y-163259523D01*
X133785714Y-163164285D01*
X133833333Y-163069047D01*
X133928571Y-163021428D01*
X134166666Y-163021428D01*
X134261904Y-162973809D01*
X134690476Y-163354761D02*
X134785714Y-163402380D01*
X134976190Y-163402380D01*
X135071428Y-163354761D01*
X135119047Y-163259523D01*
X135119047Y-163211904D01*
X135071428Y-163116666D01*
X134976190Y-163069047D01*
X134833333Y-163069047D01*
X134738095Y-163021428D01*
X134690476Y-162926190D01*
X134690476Y-162878571D01*
X134738095Y-162783333D01*
X134833333Y-162735714D01*
X134976190Y-162735714D01*
X135071428Y-162783333D01*
X131000000Y-159985714D02*
X131000000Y-160795238D01*
X130952380Y-160890476D01*
X130904761Y-160938095D01*
X130809523Y-160985714D01*
X130666666Y-160985714D01*
X130571428Y-160938095D01*
X131000000Y-160604761D02*
X130904761Y-160652380D01*
X130714285Y-160652380D01*
X130619047Y-160604761D01*
X130571428Y-160557142D01*
X130523809Y-160461904D01*
X130523809Y-160176190D01*
X130571428Y-160080952D01*
X130619047Y-160033333D01*
X130714285Y-159985714D01*
X130904761Y-159985714D01*
X131000000Y-160033333D01*
X131904761Y-160652380D02*
X131904761Y-160128571D01*
X131857142Y-160033333D01*
X131761904Y-159985714D01*
X131571428Y-159985714D01*
X131476190Y-160033333D01*
X131904761Y-160604761D02*
X131809523Y-160652380D01*
X131571428Y-160652380D01*
X131476190Y-160604761D01*
X131428571Y-160509523D01*
X131428571Y-160414285D01*
X131476190Y-160319047D01*
X131571428Y-160271428D01*
X131809523Y-160271428D01*
X131904761Y-160223809D01*
X132809523Y-159985714D02*
X132809523Y-160652380D01*
X132380952Y-159985714D02*
X132380952Y-160509523D01*
X132428571Y-160604761D01*
X132523809Y-160652380D01*
X132666666Y-160652380D01*
X132761904Y-160604761D01*
X132809523Y-160557142D01*
X133714285Y-160604761D02*
X133619047Y-160652380D01*
X133428571Y-160652380D01*
X133333333Y-160604761D01*
X133285714Y-160557142D01*
X133238095Y-160461904D01*
X133238095Y-160176190D01*
X133285714Y-160080952D01*
X133333333Y-160033333D01*
X133428571Y-159985714D01*
X133619047Y-159985714D01*
X133714285Y-160033333D01*
X134142857Y-160652380D02*
X134142857Y-159652380D01*
X134571428Y-160652380D02*
X134571428Y-160128571D01*
X134523809Y-160033333D01*
X134428571Y-159985714D01*
X134285714Y-159985714D01*
X134190476Y-160033333D01*
X134142857Y-160080952D01*
X135428571Y-160604761D02*
X135333333Y-160652380D01*
X135142857Y-160652380D01*
X135047619Y-160604761D01*
X135000000Y-160509523D01*
X135000000Y-160128571D01*
X135047619Y-160033333D01*
X135142857Y-159985714D01*
X135333333Y-159985714D01*
X135428571Y-160033333D01*
X135476190Y-160128571D01*
X135476190Y-160223809D01*
X135000000Y-160319047D01*
X132595238Y-156902380D02*
X132595238Y-155902380D01*
X133023809Y-156902380D02*
X133023809Y-156378571D01*
X132976190Y-156283333D01*
X132880952Y-156235714D01*
X132738095Y-156235714D01*
X132642857Y-156283333D01*
X132595238Y-156330952D01*
X133928571Y-156902380D02*
X133928571Y-156378571D01*
X133880952Y-156283333D01*
X133785714Y-156235714D01*
X133595238Y-156235714D01*
X133500000Y-156283333D01*
X133928571Y-156854761D02*
X133833333Y-156902380D01*
X133595238Y-156902380D01*
X133500000Y-156854761D01*
X133452380Y-156759523D01*
X133452380Y-156664285D01*
X133500000Y-156569047D01*
X133595238Y-156521428D01*
X133833333Y-156521428D01*
X133928571Y-156473809D01*
X134833333Y-156235714D02*
X134833333Y-156902380D01*
X134404761Y-156235714D02*
X134404761Y-156759523D01*
X134452380Y-156854761D01*
X134547619Y-156902380D01*
X134690476Y-156902380D01*
X134785714Y-156854761D01*
X134833333Y-156807142D01*
X135166666Y-156235714D02*
X135547619Y-156235714D01*
X135309523Y-155902380D02*
X135309523Y-156759523D01*
X135357142Y-156854761D01*
X135452380Y-156902380D01*
X135547619Y-156902380D01*
X131554761Y-136707142D02*
X131507142Y-136754761D01*
X131364285Y-136802380D01*
X131269047Y-136802380D01*
X131126190Y-136754761D01*
X131030952Y-136659523D01*
X130983333Y-136564285D01*
X130935714Y-136373809D01*
X130935714Y-136230952D01*
X130983333Y-136040476D01*
X131030952Y-135945238D01*
X131126190Y-135850000D01*
X131269047Y-135802380D01*
X131364285Y-135802380D01*
X131507142Y-135850000D01*
X131554761Y-135897619D01*
X132173809Y-135802380D02*
X132364285Y-135802380D01*
X132459523Y-135850000D01*
X132554761Y-135945238D01*
X132602380Y-136135714D01*
X132602380Y-136469047D01*
X132554761Y-136659523D01*
X132459523Y-136754761D01*
X132364285Y-136802380D01*
X132173809Y-136802380D01*
X132078571Y-136754761D01*
X131983333Y-136659523D01*
X131935714Y-136469047D01*
X131935714Y-136135714D01*
X131983333Y-135945238D01*
X132078571Y-135850000D01*
X132173809Y-135802380D01*
X133507142Y-136802380D02*
X133030952Y-136802380D01*
X133030952Y-135802380D01*
X134269047Y-136135714D02*
X134269047Y-136802380D01*
X134030952Y-135754761D02*
X133792857Y-136469047D01*
X134411904Y-136469047D01*
X106454761Y-137007142D02*
X106407142Y-137054761D01*
X106264285Y-137102380D01*
X106169047Y-137102380D01*
X106026190Y-137054761D01*
X105930952Y-136959523D01*
X105883333Y-136864285D01*
X105835714Y-136673809D01*
X105835714Y-136530952D01*
X105883333Y-136340476D01*
X105930952Y-136245238D01*
X106026190Y-136150000D01*
X106169047Y-136102380D01*
X106264285Y-136102380D01*
X106407142Y-136150000D01*
X106454761Y-136197619D01*
X107073809Y-136102380D02*
X107264285Y-136102380D01*
X107359523Y-136150000D01*
X107454761Y-136245238D01*
X107502380Y-136435714D01*
X107502380Y-136769047D01*
X107454761Y-136959523D01*
X107359523Y-137054761D01*
X107264285Y-137102380D01*
X107073809Y-137102380D01*
X106978571Y-137054761D01*
X106883333Y-136959523D01*
X106835714Y-136769047D01*
X106835714Y-136435714D01*
X106883333Y-136245238D01*
X106978571Y-136150000D01*
X107073809Y-136102380D01*
X108407142Y-137102380D02*
X107930952Y-137102380D01*
X107930952Y-136102380D01*
X108645238Y-136102380D02*
X109264285Y-136102380D01*
X108930952Y-136483333D01*
X109073809Y-136483333D01*
X109169047Y-136530952D01*
X109216666Y-136578571D01*
X109264285Y-136673809D01*
X109264285Y-136911904D01*
X109216666Y-137007142D01*
X109169047Y-137054761D01*
X109073809Y-137102380D01*
X108788095Y-137102380D01*
X108692857Y-137054761D01*
X108645238Y-137007142D01*
X86854761Y-136907142D02*
X86807142Y-136954761D01*
X86664285Y-137002380D01*
X86569047Y-137002380D01*
X86426190Y-136954761D01*
X86330952Y-136859523D01*
X86283333Y-136764285D01*
X86235714Y-136573809D01*
X86235714Y-136430952D01*
X86283333Y-136240476D01*
X86330952Y-136145238D01*
X86426190Y-136050000D01*
X86569047Y-136002380D01*
X86664285Y-136002380D01*
X86807142Y-136050000D01*
X86854761Y-136097619D01*
X87473809Y-136002380D02*
X87664285Y-136002380D01*
X87759523Y-136050000D01*
X87854761Y-136145238D01*
X87902380Y-136335714D01*
X87902380Y-136669047D01*
X87854761Y-136859523D01*
X87759523Y-136954761D01*
X87664285Y-137002380D01*
X87473809Y-137002380D01*
X87378571Y-136954761D01*
X87283333Y-136859523D01*
X87235714Y-136669047D01*
X87235714Y-136335714D01*
X87283333Y-136145238D01*
X87378571Y-136050000D01*
X87473809Y-136002380D01*
X88807142Y-137002380D02*
X88330952Y-137002380D01*
X88330952Y-136002380D01*
X89092857Y-136097619D02*
X89140476Y-136050000D01*
X89235714Y-136002380D01*
X89473809Y-136002380D01*
X89569047Y-136050000D01*
X89616666Y-136097619D01*
X89664285Y-136192857D01*
X89664285Y-136288095D01*
X89616666Y-136430952D01*
X89045238Y-137002380D01*
X89664285Y-137002380D01*
X65954761Y-137107142D02*
X65907142Y-137154761D01*
X65764285Y-137202380D01*
X65669047Y-137202380D01*
X65526190Y-137154761D01*
X65430952Y-137059523D01*
X65383333Y-136964285D01*
X65335714Y-136773809D01*
X65335714Y-136630952D01*
X65383333Y-136440476D01*
X65430952Y-136345238D01*
X65526190Y-136250000D01*
X65669047Y-136202380D01*
X65764285Y-136202380D01*
X65907142Y-136250000D01*
X65954761Y-136297619D01*
X66573809Y-136202380D02*
X66764285Y-136202380D01*
X66859523Y-136250000D01*
X66954761Y-136345238D01*
X67002380Y-136535714D01*
X67002380Y-136869047D01*
X66954761Y-137059523D01*
X66859523Y-137154761D01*
X66764285Y-137202380D01*
X66573809Y-137202380D01*
X66478571Y-137154761D01*
X66383333Y-137059523D01*
X66335714Y-136869047D01*
X66335714Y-136535714D01*
X66383333Y-136345238D01*
X66478571Y-136250000D01*
X66573809Y-136202380D01*
X67907142Y-137202380D02*
X67430952Y-137202380D01*
X67430952Y-136202380D01*
X68764285Y-137202380D02*
X68192857Y-137202380D01*
X68478571Y-137202380D02*
X68478571Y-136202380D01*
X68383333Y-136345238D01*
X68288095Y-136440476D01*
X68192857Y-136488095D01*
X41554761Y-137307142D02*
X41507142Y-137354761D01*
X41364285Y-137402380D01*
X41269047Y-137402380D01*
X41126190Y-137354761D01*
X41030952Y-137259523D01*
X40983333Y-137164285D01*
X40935714Y-136973809D01*
X40935714Y-136830952D01*
X40983333Y-136640476D01*
X41030952Y-136545238D01*
X41126190Y-136450000D01*
X41269047Y-136402380D01*
X41364285Y-136402380D01*
X41507142Y-136450000D01*
X41554761Y-136497619D01*
X42173809Y-136402380D02*
X42364285Y-136402380D01*
X42459523Y-136450000D01*
X42554761Y-136545238D01*
X42602380Y-136735714D01*
X42602380Y-137069047D01*
X42554761Y-137259523D01*
X42459523Y-137354761D01*
X42364285Y-137402380D01*
X42173809Y-137402380D01*
X42078571Y-137354761D01*
X41983333Y-137259523D01*
X41935714Y-137069047D01*
X41935714Y-136735714D01*
X41983333Y-136545238D01*
X42078571Y-136450000D01*
X42173809Y-136402380D01*
X43507142Y-137402380D02*
X43030952Y-137402380D01*
X43030952Y-136402380D01*
X44030952Y-136402380D02*
X44126190Y-136402380D01*
X44221428Y-136450000D01*
X44269047Y-136497619D01*
X44316666Y-136592857D01*
X44364285Y-136783333D01*
X44364285Y-137021428D01*
X44316666Y-137211904D01*
X44269047Y-137307142D01*
X44221428Y-137354761D01*
X44126190Y-137402380D01*
X44030952Y-137402380D01*
X43935714Y-137354761D01*
X43888095Y-137307142D01*
X43840476Y-137211904D01*
X43792857Y-137021428D01*
X43792857Y-136783333D01*
X43840476Y-136592857D01*
X43888095Y-136497619D01*
X43935714Y-136450000D01*
X44030952Y-136402380D01*
X23988095Y-122802380D02*
X23654761Y-122326190D01*
X23416666Y-122802380D02*
X23416666Y-121802380D01*
X23797619Y-121802380D01*
X23892857Y-121850000D01*
X23940476Y-121897619D01*
X23988095Y-121992857D01*
X23988095Y-122135714D01*
X23940476Y-122230952D01*
X23892857Y-122278571D01*
X23797619Y-122326190D01*
X23416666Y-122326190D01*
X24607142Y-121802380D02*
X24797619Y-121802380D01*
X24892857Y-121850000D01*
X24988095Y-121945238D01*
X25035714Y-122135714D01*
X25035714Y-122469047D01*
X24988095Y-122659523D01*
X24892857Y-122754761D01*
X24797619Y-122802380D01*
X24607142Y-122802380D01*
X24511904Y-122754761D01*
X24416666Y-122659523D01*
X24369047Y-122469047D01*
X24369047Y-122135714D01*
X24416666Y-121945238D01*
X24511904Y-121850000D01*
X24607142Y-121802380D01*
X25369047Y-121802380D02*
X25607142Y-122802380D01*
X25797619Y-122088095D01*
X25988095Y-122802380D01*
X26226190Y-121802380D01*
X26511904Y-121802380D02*
X27130952Y-121802380D01*
X26797619Y-122183333D01*
X26940476Y-122183333D01*
X27035714Y-122230952D01*
X27083333Y-122278571D01*
X27130952Y-122373809D01*
X27130952Y-122611904D01*
X27083333Y-122707142D01*
X27035714Y-122754761D01*
X26940476Y-122802380D01*
X26654761Y-122802380D01*
X26559523Y-122754761D01*
X26511904Y-122707142D01*
X23888095Y-102902380D02*
X23554761Y-102426190D01*
X23316666Y-102902380D02*
X23316666Y-101902380D01*
X23697619Y-101902380D01*
X23792857Y-101950000D01*
X23840476Y-101997619D01*
X23888095Y-102092857D01*
X23888095Y-102235714D01*
X23840476Y-102330952D01*
X23792857Y-102378571D01*
X23697619Y-102426190D01*
X23316666Y-102426190D01*
X24507142Y-101902380D02*
X24697619Y-101902380D01*
X24792857Y-101950000D01*
X24888095Y-102045238D01*
X24935714Y-102235714D01*
X24935714Y-102569047D01*
X24888095Y-102759523D01*
X24792857Y-102854761D01*
X24697619Y-102902380D01*
X24507142Y-102902380D01*
X24411904Y-102854761D01*
X24316666Y-102759523D01*
X24269047Y-102569047D01*
X24269047Y-102235714D01*
X24316666Y-102045238D01*
X24411904Y-101950000D01*
X24507142Y-101902380D01*
X25269047Y-101902380D02*
X25507142Y-102902380D01*
X25697619Y-102188095D01*
X25888095Y-102902380D01*
X26126190Y-101902380D01*
X26459523Y-101997619D02*
X26507142Y-101950000D01*
X26602380Y-101902380D01*
X26840476Y-101902380D01*
X26935714Y-101950000D01*
X26983333Y-101997619D01*
X27030952Y-102092857D01*
X27030952Y-102188095D01*
X26983333Y-102330952D01*
X26411904Y-102902380D01*
X27030952Y-102902380D01*
X24088095Y-82702380D02*
X23754761Y-82226190D01*
X23516666Y-82702380D02*
X23516666Y-81702380D01*
X23897619Y-81702380D01*
X23992857Y-81750000D01*
X24040476Y-81797619D01*
X24088095Y-81892857D01*
X24088095Y-82035714D01*
X24040476Y-82130952D01*
X23992857Y-82178571D01*
X23897619Y-82226190D01*
X23516666Y-82226190D01*
X24707142Y-81702380D02*
X24897619Y-81702380D01*
X24992857Y-81750000D01*
X25088095Y-81845238D01*
X25135714Y-82035714D01*
X25135714Y-82369047D01*
X25088095Y-82559523D01*
X24992857Y-82654761D01*
X24897619Y-82702380D01*
X24707142Y-82702380D01*
X24611904Y-82654761D01*
X24516666Y-82559523D01*
X24469047Y-82369047D01*
X24469047Y-82035714D01*
X24516666Y-81845238D01*
X24611904Y-81750000D01*
X24707142Y-81702380D01*
X25469047Y-81702380D02*
X25707142Y-82702380D01*
X25897619Y-81988095D01*
X26088095Y-82702380D01*
X26326190Y-81702380D01*
X27230952Y-82702380D02*
X26659523Y-82702380D01*
X26945238Y-82702380D02*
X26945238Y-81702380D01*
X26850000Y-81845238D01*
X26754761Y-81940476D01*
X26659523Y-81988095D01*
X24088095Y-62102380D02*
X23754761Y-61626190D01*
X23516666Y-62102380D02*
X23516666Y-61102380D01*
X23897619Y-61102380D01*
X23992857Y-61150000D01*
X24040476Y-61197619D01*
X24088095Y-61292857D01*
X24088095Y-61435714D01*
X24040476Y-61530952D01*
X23992857Y-61578571D01*
X23897619Y-61626190D01*
X23516666Y-61626190D01*
X24707142Y-61102380D02*
X24897619Y-61102380D01*
X24992857Y-61150000D01*
X25088095Y-61245238D01*
X25135714Y-61435714D01*
X25135714Y-61769047D01*
X25088095Y-61959523D01*
X24992857Y-62054761D01*
X24897619Y-62102380D01*
X24707142Y-62102380D01*
X24611904Y-62054761D01*
X24516666Y-61959523D01*
X24469047Y-61769047D01*
X24469047Y-61435714D01*
X24516666Y-61245238D01*
X24611904Y-61150000D01*
X24707142Y-61102380D01*
X25469047Y-61102380D02*
X25707142Y-62102380D01*
X25897619Y-61388095D01*
X26088095Y-62102380D01*
X26326190Y-61102380D01*
X26897619Y-61102380D02*
X26992857Y-61102380D01*
X27088095Y-61150000D01*
X27135714Y-61197619D01*
X27183333Y-61292857D01*
X27230952Y-61483333D01*
X27230952Y-61721428D01*
X27183333Y-61911904D01*
X27135714Y-62007142D01*
X27088095Y-62054761D01*
X26992857Y-62102380D01*
X26897619Y-62102380D01*
X26802380Y-62054761D01*
X26754761Y-62007142D01*
X26707142Y-61911904D01*
X26659523Y-61721428D01*
X26659523Y-61483333D01*
X26707142Y-61292857D01*
X26754761Y-61197619D01*
X26802380Y-61150000D01*
X26897619Y-61102380D01*
D12*
X33135714Y-158282142D02*
X33135714Y-155282142D01*
X34135714Y-157425000D01*
X35135714Y-155282142D01*
X35135714Y-158282142D01*
X37850000Y-158282142D02*
X37850000Y-156710714D01*
X37707142Y-156425000D01*
X37421428Y-156282142D01*
X36850000Y-156282142D01*
X36564285Y-156425000D01*
X37850000Y-158139285D02*
X37564285Y-158282142D01*
X36850000Y-158282142D01*
X36564285Y-158139285D01*
X36421428Y-157853571D01*
X36421428Y-157567857D01*
X36564285Y-157282142D01*
X36850000Y-157139285D01*
X37564285Y-157139285D01*
X37850000Y-156996428D01*
X39278571Y-158282142D02*
X39278571Y-156282142D01*
X39278571Y-155282142D02*
X39135714Y-155425000D01*
X39278571Y-155567857D01*
X39421428Y-155425000D01*
X39278571Y-155282142D01*
X39278571Y-155567857D01*
X40707142Y-156282142D02*
X40707142Y-158282142D01*
X40707142Y-156567857D02*
X40850000Y-156425000D01*
X41135714Y-156282142D01*
X41564285Y-156282142D01*
X41850000Y-156425000D01*
X41992857Y-156710714D01*
X41992857Y-158282142D01*
X47278571Y-155425000D02*
X46992857Y-155282142D01*
X46564285Y-155282142D01*
X46135714Y-155425000D01*
X45850000Y-155710714D01*
X45707142Y-155996428D01*
X45564285Y-156567857D01*
X45564285Y-156996428D01*
X45707142Y-157567857D01*
X45850000Y-157853571D01*
X46135714Y-158139285D01*
X46564285Y-158282142D01*
X46850000Y-158282142D01*
X47278571Y-158139285D01*
X47421428Y-157996428D01*
X47421428Y-156996428D01*
X46850000Y-156996428D01*
X49992857Y-158282142D02*
X49992857Y-156710714D01*
X49850000Y-156425000D01*
X49564285Y-156282142D01*
X48992857Y-156282142D01*
X48707142Y-156425000D01*
X49992857Y-158139285D02*
X49707142Y-158282142D01*
X48992857Y-158282142D01*
X48707142Y-158139285D01*
X48564285Y-157853571D01*
X48564285Y-157567857D01*
X48707142Y-157282142D01*
X48992857Y-157139285D01*
X49707142Y-157139285D01*
X49992857Y-156996428D01*
X52707142Y-156282142D02*
X52707142Y-158282142D01*
X51421428Y-156282142D02*
X51421428Y-157853571D01*
X51564285Y-158139285D01*
X51850000Y-158282142D01*
X52278571Y-158282142D01*
X52564285Y-158139285D01*
X52707142Y-157996428D01*
X55421428Y-158139285D02*
X55135714Y-158282142D01*
X54564285Y-158282142D01*
X54278571Y-158139285D01*
X54135714Y-157996428D01*
X53992857Y-157710714D01*
X53992857Y-156853571D01*
X54135714Y-156567857D01*
X54278571Y-156425000D01*
X54564285Y-156282142D01*
X55135714Y-156282142D01*
X55421428Y-156425000D01*
X56707142Y-158282142D02*
X56707142Y-155282142D01*
X57992857Y-158282142D02*
X57992857Y-156710714D01*
X57850000Y-156425000D01*
X57564285Y-156282142D01*
X57135714Y-156282142D01*
X56850000Y-156425000D01*
X56707142Y-156567857D01*
X60564285Y-158139285D02*
X60278571Y-158282142D01*
X59707142Y-158282142D01*
X59421428Y-158139285D01*
X59278571Y-157853571D01*
X59278571Y-156710714D01*
X59421428Y-156425000D01*
X59707142Y-156282142D01*
X60278571Y-156282142D01*
X60564285Y-156425000D01*
X60707142Y-156710714D01*
X60707142Y-156996428D01*
X59278571Y-157282142D01*
X33707142Y-160817857D02*
X33850000Y-160675000D01*
X34135714Y-160532142D01*
X34850000Y-160532142D01*
X35135714Y-160675000D01*
X35278571Y-160817857D01*
X35421428Y-161103571D01*
X35421428Y-161389285D01*
X35278571Y-161817857D01*
X33564285Y-163532142D01*
X35421428Y-163532142D01*
X37278571Y-160532142D02*
X37564285Y-160532142D01*
X37850000Y-160675000D01*
X37992857Y-160817857D01*
X38135714Y-161103571D01*
X38278571Y-161675000D01*
X38278571Y-162389285D01*
X38135714Y-162960714D01*
X37992857Y-163246428D01*
X37850000Y-163389285D01*
X37564285Y-163532142D01*
X37278571Y-163532142D01*
X36992857Y-163389285D01*
X36850000Y-163246428D01*
X36707142Y-162960714D01*
X36564285Y-162389285D01*
X36564285Y-161675000D01*
X36707142Y-161103571D01*
X36850000Y-160817857D01*
X36992857Y-160675000D01*
X37278571Y-160532142D01*
X39421428Y-160817857D02*
X39564285Y-160675000D01*
X39850000Y-160532142D01*
X40564285Y-160532142D01*
X40850000Y-160675000D01*
X40992857Y-160817857D01*
X41135714Y-161103571D01*
X41135714Y-161389285D01*
X40992857Y-161817857D01*
X39278571Y-163532142D01*
X41135714Y-163532142D01*
X43992857Y-163532142D02*
X42278571Y-163532142D01*
X43135714Y-163532142D02*
X43135714Y-160532142D01*
X42850000Y-160960714D01*
X42564285Y-161246428D01*
X42278571Y-161389285D01*
X48135714Y-160532142D02*
X48421428Y-160532142D01*
X48707142Y-160675000D01*
X48850000Y-160817857D01*
X48992857Y-161103571D01*
X49135714Y-161675000D01*
X49135714Y-162389285D01*
X48992857Y-162960714D01*
X48850000Y-163246428D01*
X48707142Y-163389285D01*
X48421428Y-163532142D01*
X48135714Y-163532142D01*
X47850000Y-163389285D01*
X47707142Y-163246428D01*
X47564285Y-162960714D01*
X47421428Y-162389285D01*
X47421428Y-161675000D01*
X47564285Y-161103571D01*
X47707142Y-160817857D01*
X47850000Y-160675000D01*
X48135714Y-160532142D01*
X51707142Y-160532142D02*
X51135714Y-160532142D01*
X50850000Y-160675000D01*
X50707142Y-160817857D01*
X50421428Y-161246428D01*
X50278571Y-161817857D01*
X50278571Y-162960714D01*
X50421428Y-163246428D01*
X50564285Y-163389285D01*
X50850000Y-163532142D01*
X51421428Y-163532142D01*
X51707142Y-163389285D01*
X51850000Y-163246428D01*
X51992857Y-162960714D01*
X51992857Y-162246428D01*
X51850000Y-161960714D01*
X51707142Y-161817857D01*
X51421428Y-161675000D01*
X50850000Y-161675000D01*
X50564285Y-161817857D01*
X50421428Y-161960714D01*
X50278571Y-162246428D01*
X57135714Y-163532142D02*
X55421428Y-163532142D01*
X56278571Y-163532142D02*
X56278571Y-160532142D01*
X55992857Y-160960714D01*
X55707142Y-161246428D01*
X55421428Y-161389285D01*
X59992857Y-163532142D02*
X58278571Y-163532142D01*
X59135714Y-163532142D02*
X59135714Y-160532142D01*
X58850000Y-160960714D01*
X58564285Y-161246428D01*
X58278571Y-161389285D01*
D11*
X30621428Y-169802380D02*
X30621428Y-168802380D01*
X31050000Y-169802380D02*
X31050000Y-169278571D01*
X31002380Y-169183333D01*
X30907142Y-169135714D01*
X30764285Y-169135714D01*
X30669047Y-169183333D01*
X30621428Y-169230952D01*
X31383333Y-169135714D02*
X31764285Y-169135714D01*
X31526190Y-168802380D02*
X31526190Y-169659523D01*
X31573809Y-169754761D01*
X31669047Y-169802380D01*
X31764285Y-169802380D01*
X31954761Y-169135714D02*
X32335714Y-169135714D01*
X32097619Y-168802380D02*
X32097619Y-169659523D01*
X32145238Y-169754761D01*
X32240476Y-169802380D01*
X32335714Y-169802380D01*
X32669047Y-169135714D02*
X32669047Y-170135714D01*
X32669047Y-169183333D02*
X32764285Y-169135714D01*
X32954761Y-169135714D01*
X33050000Y-169183333D01*
X33097619Y-169230952D01*
X33145238Y-169326190D01*
X33145238Y-169611904D01*
X33097619Y-169707142D01*
X33050000Y-169754761D01*
X32954761Y-169802380D01*
X32764285Y-169802380D01*
X32669047Y-169754761D01*
X33526190Y-169754761D02*
X33621428Y-169802380D01*
X33811904Y-169802380D01*
X33907142Y-169754761D01*
X33954761Y-169659523D01*
X33954761Y-169611904D01*
X33907142Y-169516666D01*
X33811904Y-169469047D01*
X33669047Y-169469047D01*
X33573809Y-169421428D01*
X33526190Y-169326190D01*
X33526190Y-169278571D01*
X33573809Y-169183333D01*
X33669047Y-169135714D01*
X33811904Y-169135714D01*
X33907142Y-169183333D01*
X34383333Y-169707142D02*
X34430952Y-169754761D01*
X34383333Y-169802380D01*
X34335714Y-169754761D01*
X34383333Y-169707142D01*
X34383333Y-169802380D01*
X34383333Y-169183333D02*
X34430952Y-169230952D01*
X34383333Y-169278571D01*
X34335714Y-169230952D01*
X34383333Y-169183333D01*
X34383333Y-169278571D01*
X35573809Y-168754761D02*
X34716666Y-170040476D01*
X36621428Y-168754761D02*
X35764285Y-170040476D01*
X37383333Y-169135714D02*
X37383333Y-169945238D01*
X37335714Y-170040476D01*
X37288095Y-170088095D01*
X37192857Y-170135714D01*
X37050000Y-170135714D01*
X36954761Y-170088095D01*
X37383333Y-169754761D02*
X37288095Y-169802380D01*
X37097619Y-169802380D01*
X37002380Y-169754761D01*
X36954761Y-169707142D01*
X36907142Y-169611904D01*
X36907142Y-169326190D01*
X36954761Y-169230952D01*
X37002380Y-169183333D01*
X37097619Y-169135714D01*
X37288095Y-169135714D01*
X37383333Y-169183333D01*
X37859523Y-169802380D02*
X37859523Y-169135714D01*
X37859523Y-168802380D02*
X37811904Y-168850000D01*
X37859523Y-168897619D01*
X37907142Y-168850000D01*
X37859523Y-168802380D01*
X37859523Y-168897619D01*
X38192857Y-169135714D02*
X38573809Y-169135714D01*
X38335714Y-168802380D02*
X38335714Y-169659523D01*
X38383333Y-169754761D01*
X38478571Y-169802380D01*
X38573809Y-169802380D01*
X38907142Y-169802380D02*
X38907142Y-168802380D01*
X39335714Y-169802380D02*
X39335714Y-169278571D01*
X39288095Y-169183333D01*
X39192857Y-169135714D01*
X39050000Y-169135714D01*
X38954761Y-169183333D01*
X38907142Y-169230952D01*
X40240476Y-169135714D02*
X40240476Y-169802380D01*
X39811904Y-169135714D02*
X39811904Y-169659523D01*
X39859523Y-169754761D01*
X39954761Y-169802380D01*
X40097619Y-169802380D01*
X40192857Y-169754761D01*
X40240476Y-169707142D01*
X40716666Y-169802380D02*
X40716666Y-168802380D01*
X40716666Y-169183333D02*
X40811904Y-169135714D01*
X41002380Y-169135714D01*
X41097619Y-169183333D01*
X41145238Y-169230952D01*
X41192857Y-169326190D01*
X41192857Y-169611904D01*
X41145238Y-169707142D01*
X41097619Y-169754761D01*
X41002380Y-169802380D01*
X40811904Y-169802380D01*
X40716666Y-169754761D01*
X41621428Y-169707142D02*
X41669047Y-169754761D01*
X41621428Y-169802380D01*
X41573809Y-169754761D01*
X41621428Y-169707142D01*
X41621428Y-169802380D01*
X42526190Y-169754761D02*
X42430952Y-169802380D01*
X42240476Y-169802380D01*
X42145238Y-169754761D01*
X42097619Y-169707142D01*
X42050000Y-169611904D01*
X42050000Y-169326190D01*
X42097619Y-169230952D01*
X42145238Y-169183333D01*
X42240476Y-169135714D01*
X42430952Y-169135714D01*
X42526190Y-169183333D01*
X43097619Y-169802380D02*
X43002380Y-169754761D01*
X42954761Y-169707142D01*
X42907142Y-169611904D01*
X42907142Y-169326190D01*
X42954761Y-169230952D01*
X43002380Y-169183333D01*
X43097619Y-169135714D01*
X43240476Y-169135714D01*
X43335714Y-169183333D01*
X43383333Y-169230952D01*
X43430952Y-169326190D01*
X43430952Y-169611904D01*
X43383333Y-169707142D01*
X43335714Y-169754761D01*
X43240476Y-169802380D01*
X43097619Y-169802380D01*
X43859523Y-169802380D02*
X43859523Y-169135714D01*
X43859523Y-169230952D02*
X43907142Y-169183333D01*
X44002380Y-169135714D01*
X44145238Y-169135714D01*
X44240476Y-169183333D01*
X44288095Y-169278571D01*
X44288095Y-169802380D01*
X44288095Y-169278571D02*
X44335714Y-169183333D01*
X44430952Y-169135714D01*
X44573809Y-169135714D01*
X44669047Y-169183333D01*
X44716666Y-169278571D01*
X44716666Y-169802380D01*
X45907142Y-168754761D02*
X45050000Y-170040476D01*
X46097619Y-168802380D02*
X46669047Y-168802380D01*
X46383333Y-169802380D02*
X46383333Y-168802380D01*
X47002380Y-169802380D02*
X47002380Y-168802380D01*
X47430952Y-169802380D02*
X47430952Y-169278571D01*
X47383333Y-169183333D01*
X47288095Y-169135714D01*
X47145238Y-169135714D01*
X47050000Y-169183333D01*
X47002380Y-169230952D01*
X47907142Y-169802380D02*
X47907142Y-169135714D01*
X47907142Y-168802380D02*
X47859523Y-168850000D01*
X47907142Y-168897619D01*
X47954761Y-168850000D01*
X47907142Y-168802380D01*
X47907142Y-168897619D01*
X48764285Y-169754761D02*
X48669047Y-169802380D01*
X48478571Y-169802380D01*
X48383333Y-169754761D01*
X48335714Y-169659523D01*
X48335714Y-169278571D01*
X48383333Y-169183333D01*
X48478571Y-169135714D01*
X48669047Y-169135714D01*
X48764285Y-169183333D01*
X48811904Y-169278571D01*
X48811904Y-169373809D01*
X48335714Y-169469047D01*
X49240476Y-169802380D02*
X49240476Y-169135714D01*
X49240476Y-169326190D02*
X49288095Y-169230952D01*
X49335714Y-169183333D01*
X49430952Y-169135714D01*
X49526190Y-169135714D01*
X49859523Y-169802380D02*
X49859523Y-169135714D01*
X49859523Y-169326190D02*
X49907142Y-169230952D01*
X49954761Y-169183333D01*
X50050000Y-169135714D01*
X50145238Y-169135714D01*
X50383333Y-169135714D02*
X50621428Y-169802380D01*
X50859523Y-169135714D02*
X50621428Y-169802380D01*
X50526190Y-170040476D01*
X50478571Y-170088095D01*
X50383333Y-170135714D01*
X51430952Y-168802380D02*
X51621428Y-168802380D01*
X51716666Y-168850000D01*
X51811904Y-168945238D01*
X51859523Y-169135714D01*
X51859523Y-169469047D01*
X51811904Y-169659523D01*
X51716666Y-169754761D01*
X51621428Y-169802380D01*
X51430952Y-169802380D01*
X51335714Y-169754761D01*
X51240476Y-169659523D01*
X51192857Y-169469047D01*
X51192857Y-169135714D01*
X51240476Y-168945238D01*
X51335714Y-168850000D01*
X51430952Y-168802380D01*
X52288095Y-169802380D02*
X52288095Y-169135714D01*
X52288095Y-169326190D02*
X52335714Y-169230952D01*
X52383333Y-169183333D01*
X52478571Y-169135714D01*
X52573809Y-169135714D01*
X53050000Y-169802380D02*
X52954761Y-169754761D01*
X52907142Y-169659523D01*
X52907142Y-168802380D01*
X53859523Y-169802380D02*
X53859523Y-169278571D01*
X53811904Y-169183333D01*
X53716666Y-169135714D01*
X53526190Y-169135714D01*
X53430952Y-169183333D01*
X53859523Y-169754761D02*
X53764285Y-169802380D01*
X53526190Y-169802380D01*
X53430952Y-169754761D01*
X53383333Y-169659523D01*
X53383333Y-169564285D01*
X53430952Y-169469047D01*
X53526190Y-169421428D01*
X53764285Y-169421428D01*
X53859523Y-169373809D01*
X54335714Y-169135714D02*
X54335714Y-169802380D01*
X54335714Y-169230952D02*
X54383333Y-169183333D01*
X54478571Y-169135714D01*
X54621428Y-169135714D01*
X54716666Y-169183333D01*
X54764285Y-169278571D01*
X54764285Y-169802380D01*
X55669047Y-169802380D02*
X55669047Y-168802380D01*
X55669047Y-169754761D02*
X55573809Y-169802380D01*
X55383333Y-169802380D01*
X55288095Y-169754761D01*
X55240476Y-169707142D01*
X55192857Y-169611904D01*
X55192857Y-169326190D01*
X55240476Y-169230952D01*
X55288095Y-169183333D01*
X55383333Y-169135714D01*
X55573809Y-169135714D01*
X55669047Y-169183333D01*
X56145238Y-169802380D02*
X56145238Y-169135714D01*
X56145238Y-168802380D02*
X56097619Y-168850000D01*
X56145238Y-168897619D01*
X56192857Y-168850000D01*
X56145238Y-168802380D01*
X56145238Y-168897619D01*
X57335714Y-168754761D02*
X56478571Y-170040476D01*
X57859523Y-168802380D02*
X57954761Y-168802380D01*
X58050000Y-168850000D01*
X58097619Y-168897619D01*
X58145238Y-168992857D01*
X58192857Y-169183333D01*
X58192857Y-169421428D01*
X58145238Y-169611904D01*
X58097619Y-169707142D01*
X58050000Y-169754761D01*
X57954761Y-169802380D01*
X57859523Y-169802380D01*
X57764285Y-169754761D01*
X57716666Y-169707142D01*
X57669047Y-169611904D01*
X57621428Y-169421428D01*
X57621428Y-169183333D01*
X57669047Y-168992857D01*
X57716666Y-168897619D01*
X57764285Y-168850000D01*
X57859523Y-168802380D01*
X58764285Y-169230952D02*
X58669047Y-169183333D01*
X58621428Y-169135714D01*
X58573809Y-169040476D01*
X58573809Y-168992857D01*
X58621428Y-168897619D01*
X58669047Y-168850000D01*
X58764285Y-168802380D01*
X58954761Y-168802380D01*
X59050000Y-168850000D01*
X59097619Y-168897619D01*
X59145238Y-168992857D01*
X59145238Y-169040476D01*
X59097619Y-169135714D01*
X59050000Y-169183333D01*
X58954761Y-169230952D01*
X58764285Y-169230952D01*
X58669047Y-169278571D01*
X58621428Y-169326190D01*
X58573809Y-169421428D01*
X58573809Y-169611904D01*
X58621428Y-169707142D01*
X58669047Y-169754761D01*
X58764285Y-169802380D01*
X58954761Y-169802380D01*
X59050000Y-169754761D01*
X59097619Y-169707142D01*
X59145238Y-169611904D01*
X59145238Y-169421428D01*
X59097619Y-169326190D01*
X59050000Y-169278571D01*
X58954761Y-169230952D01*
X59335714Y-169897619D02*
X60097619Y-169897619D01*
X60335714Y-169802380D02*
X60335714Y-168802380D01*
X60669047Y-169516666D01*
X61002380Y-168802380D01*
X61002380Y-169802380D01*
X61907142Y-169802380D02*
X61907142Y-169278571D01*
X61859523Y-169183333D01*
X61764285Y-169135714D01*
X61573809Y-169135714D01*
X61478571Y-169183333D01*
X61907142Y-169754761D02*
X61811904Y-169802380D01*
X61573809Y-169802380D01*
X61478571Y-169754761D01*
X61430952Y-169659523D01*
X61430952Y-169564285D01*
X61478571Y-169469047D01*
X61573809Y-169421428D01*
X61811904Y-169421428D01*
X61907142Y-169373809D01*
X62383333Y-169802380D02*
X62383333Y-169135714D01*
X62383333Y-168802380D02*
X62335714Y-168850000D01*
X62383333Y-168897619D01*
X62430952Y-168850000D01*
X62383333Y-168802380D01*
X62383333Y-168897619D01*
X62859523Y-169135714D02*
X62859523Y-169802380D01*
X62859523Y-169230952D02*
X62907142Y-169183333D01*
X63002380Y-169135714D01*
X63145238Y-169135714D01*
X63240476Y-169183333D01*
X63288095Y-169278571D01*
X63288095Y-169802380D01*
X63526190Y-169897619D02*
X64288095Y-169897619D01*
X65049999Y-168850000D02*
X64954761Y-168802380D01*
X64811904Y-168802380D01*
X64669047Y-168850000D01*
X64573809Y-168945238D01*
X64526190Y-169040476D01*
X64478571Y-169230952D01*
X64478571Y-169373809D01*
X64526190Y-169564285D01*
X64573809Y-169659523D01*
X64669047Y-169754761D01*
X64811904Y-169802380D01*
X64907142Y-169802380D01*
X65049999Y-169754761D01*
X65097619Y-169707142D01*
X65097619Y-169373809D01*
X64907142Y-169373809D01*
X65954761Y-169802380D02*
X65954761Y-169278571D01*
X65907142Y-169183333D01*
X65811904Y-169135714D01*
X65621428Y-169135714D01*
X65526190Y-169183333D01*
X65954761Y-169754761D02*
X65859523Y-169802380D01*
X65621428Y-169802380D01*
X65526190Y-169754761D01*
X65478571Y-169659523D01*
X65478571Y-169564285D01*
X65526190Y-169469047D01*
X65621428Y-169421428D01*
X65859523Y-169421428D01*
X65954761Y-169373809D01*
X66859523Y-169135714D02*
X66859523Y-169802380D01*
X66430952Y-169135714D02*
X66430952Y-169659523D01*
X66478571Y-169754761D01*
X66573809Y-169802380D01*
X66716666Y-169802380D01*
X66811904Y-169754761D01*
X66859523Y-169707142D01*
X67764285Y-169754761D02*
X67669047Y-169802380D01*
X67478571Y-169802380D01*
X67383333Y-169754761D01*
X67335714Y-169707142D01*
X67288095Y-169611904D01*
X67288095Y-169326190D01*
X67335714Y-169230952D01*
X67383333Y-169183333D01*
X67478571Y-169135714D01*
X67669047Y-169135714D01*
X67764285Y-169183333D01*
X68192857Y-169802380D02*
X68192857Y-168802380D01*
X68621428Y-169802380D02*
X68621428Y-169278571D01*
X68573809Y-169183333D01*
X68478571Y-169135714D01*
X68335714Y-169135714D01*
X68240476Y-169183333D01*
X68192857Y-169230952D01*
X69478571Y-169754761D02*
X69383333Y-169802380D01*
X69192857Y-169802380D01*
X69097619Y-169754761D01*
X69049999Y-169659523D01*
X69049999Y-169278571D01*
X69097619Y-169183333D01*
X69192857Y-169135714D01*
X69383333Y-169135714D01*
X69478571Y-169183333D01*
X69526190Y-169278571D01*
X69526190Y-169373809D01*
X69049999Y-169469047D01*
D10*
X170050000Y-174950000D02*
G75*
G02*
X165050000Y-179950000I-5000000J0D01*
G01*
X25050000Y-179950000D02*
G75*
G02*
X20050000Y-174950000I0J5000000D01*
G01*
X20050000Y-30000000D02*
G75*
G02*
X25050000Y-25000000I5000000J0D01*
G01*
X20050000Y-174950000D02*
X20050000Y-30000000D01*
X165050000Y-179950000D02*
X25050000Y-179950000D01*
X170000000Y-30000000D02*
X170050000Y-174950000D01*
X25050000Y-25000000D02*
X165000000Y-25000000D01*
D13*
%TO.C,R8*%
X87277500Y-47462742D02*
X87277500Y-47937258D01*
X88322500Y-47462742D02*
X88322500Y-47937258D01*
%TO.C,R27*%
X130062742Y-43677500D02*
X130537258Y-43677500D01*
X130062742Y-44722500D02*
X130537258Y-44722500D01*
%TO.C,SW4*%
X35525000Y-118045000D02*
X49495000Y-118045000D01*
X49495000Y-118045000D02*
X49495000Y-132015000D01*
X49495000Y-132015000D02*
X35525000Y-132015000D01*
X35525000Y-132015000D02*
X35525000Y-118045000D01*
%TO.C,SW2*%
X35525000Y-92015000D02*
X35525000Y-78045000D01*
X49495000Y-92015000D02*
X35525000Y-92015000D01*
X49495000Y-78045000D02*
X49495000Y-92015000D01*
X35525000Y-78045000D02*
X49495000Y-78045000D01*
%TO.C,SW3*%
X35525000Y-112015000D02*
X35525000Y-98045000D01*
X49495000Y-112015000D02*
X35525000Y-112015000D01*
X49495000Y-98045000D02*
X49495000Y-112015000D01*
X35525000Y-98045000D02*
X49495000Y-98045000D01*
%TO.C,D4*%
X30300000Y-121450000D02*
X34200000Y-121450000D01*
X30300000Y-123450000D02*
X34200000Y-123450000D01*
X30300000Y-121450000D02*
X30300000Y-123450000D01*
%TO.C,D20*%
X120300000Y-121450000D02*
X124200000Y-121450000D01*
X120300000Y-123450000D02*
X124200000Y-123450000D01*
X120300000Y-121450000D02*
X120300000Y-123450000D01*
%TO.C,D8*%
X55300000Y-121450000D02*
X59200000Y-121450000D01*
X55300000Y-123450000D02*
X59200000Y-123450000D01*
X55300000Y-121450000D02*
X55300000Y-123450000D01*
%TO.C,D12*%
X75300000Y-121450000D02*
X79200000Y-121450000D01*
X75300000Y-123450000D02*
X79200000Y-123450000D01*
X75300000Y-121450000D02*
X75300000Y-123450000D01*
%TO.C,D16*%
X95300000Y-121450000D02*
X99200000Y-121450000D01*
X95300000Y-123450000D02*
X99200000Y-123450000D01*
X95300000Y-121450000D02*
X95300000Y-123450000D01*
%TO.C,D2*%
X30300000Y-81450000D02*
X34200000Y-81450000D01*
X30300000Y-83450000D02*
X34200000Y-83450000D01*
X30300000Y-81450000D02*
X30300000Y-83450000D01*
%TO.C,D18*%
X120300000Y-81450000D02*
X124200000Y-81450000D01*
X120300000Y-83450000D02*
X124200000Y-83450000D01*
X120300000Y-81450000D02*
X120300000Y-83450000D01*
%TO.C,D6*%
X55300000Y-81450000D02*
X59200000Y-81450000D01*
X55300000Y-83450000D02*
X59200000Y-83450000D01*
X55300000Y-81450000D02*
X55300000Y-83450000D01*
%TO.C,D10*%
X75300000Y-81450000D02*
X79200000Y-81450000D01*
X75300000Y-83450000D02*
X79200000Y-83450000D01*
X75300000Y-81450000D02*
X75300000Y-83450000D01*
%TO.C,D14*%
X95300000Y-81450000D02*
X99200000Y-81450000D01*
X95300000Y-83450000D02*
X99200000Y-83450000D01*
X95300000Y-81450000D02*
X95300000Y-83450000D01*
%TO.C,D3*%
X30300000Y-101450000D02*
X34200000Y-101450000D01*
X30300000Y-103450000D02*
X34200000Y-103450000D01*
X30300000Y-101450000D02*
X30300000Y-103450000D01*
%TO.C,D19*%
X120300000Y-101450000D02*
X124200000Y-101450000D01*
X120300000Y-103450000D02*
X124200000Y-103450000D01*
X120300000Y-101450000D02*
X120300000Y-103450000D01*
%TO.C,D7*%
X55300000Y-101450000D02*
X59200000Y-101450000D01*
X55300000Y-103450000D02*
X59200000Y-103450000D01*
X55300000Y-101450000D02*
X55300000Y-103450000D01*
%TO.C,D11*%
X75300000Y-101450000D02*
X79200000Y-101450000D01*
X75300000Y-103450000D02*
X79200000Y-103450000D01*
X75300000Y-101450000D02*
X75300000Y-103450000D01*
%TO.C,D15*%
X95300000Y-101450000D02*
X99200000Y-101450000D01*
X95300000Y-103450000D02*
X99200000Y-103450000D01*
X95300000Y-101450000D02*
X95300000Y-103450000D01*
%TO.C,SW21*%
X125525000Y-132015000D02*
X125525000Y-118045000D01*
X139495000Y-132015000D02*
X125525000Y-132015000D01*
X139495000Y-118045000D02*
X139495000Y-132015000D01*
X125525000Y-118045000D02*
X139495000Y-118045000D01*
%TO.C,SW8*%
X60525000Y-132015000D02*
X60525000Y-118045000D01*
X74495000Y-132015000D02*
X60525000Y-132015000D01*
X74495000Y-118045000D02*
X74495000Y-132015000D01*
X60525000Y-118045000D02*
X74495000Y-118045000D01*
%TO.C,SW12*%
X80525000Y-132015000D02*
X80525000Y-118045000D01*
X94495000Y-132015000D02*
X80525000Y-132015000D01*
X94495000Y-118045000D02*
X94495000Y-132015000D01*
X80525000Y-118045000D02*
X94495000Y-118045000D01*
%TO.C,SW17*%
X100525000Y-132015000D02*
X100525000Y-118045000D01*
X114495000Y-132015000D02*
X100525000Y-132015000D01*
X114495000Y-118045000D02*
X114495000Y-132015000D01*
X100525000Y-118045000D02*
X114495000Y-118045000D01*
%TO.C,SW19*%
X125525000Y-92015000D02*
X125525000Y-78045000D01*
X139495000Y-92015000D02*
X125525000Y-92015000D01*
X139495000Y-78045000D02*
X139495000Y-92015000D01*
X125525000Y-78045000D02*
X139495000Y-78045000D01*
%TO.C,SW6*%
X60525000Y-92015000D02*
X60525000Y-78045000D01*
X74495000Y-92015000D02*
X60525000Y-92015000D01*
X74495000Y-78045000D02*
X74495000Y-92015000D01*
X60525000Y-78045000D02*
X74495000Y-78045000D01*
%TO.C,SW10*%
X80525000Y-92015000D02*
X80525000Y-78045000D01*
X94495000Y-92015000D02*
X80525000Y-92015000D01*
X94495000Y-78045000D02*
X94495000Y-92015000D01*
X80525000Y-78045000D02*
X94495000Y-78045000D01*
%TO.C,SW15*%
X100525000Y-92015000D02*
X100525000Y-78045000D01*
X114495000Y-92015000D02*
X100525000Y-92015000D01*
X114495000Y-78045000D02*
X114495000Y-92015000D01*
X100525000Y-78045000D02*
X114495000Y-78045000D01*
%TO.C,SW20*%
X125525000Y-112015000D02*
X125525000Y-98045000D01*
X139495000Y-112015000D02*
X125525000Y-112015000D01*
X139495000Y-98045000D02*
X139495000Y-112015000D01*
X125525000Y-98045000D02*
X139495000Y-98045000D01*
%TO.C,SW7*%
X60525000Y-112015000D02*
X60525000Y-98045000D01*
X74495000Y-112015000D02*
X60525000Y-112015000D01*
X74495000Y-98045000D02*
X74495000Y-112015000D01*
X60525000Y-98045000D02*
X74495000Y-98045000D01*
%TO.C,SW16*%
X100525000Y-112015000D02*
X100525000Y-98045000D01*
X114495000Y-112015000D02*
X100525000Y-112015000D01*
X114495000Y-98045000D02*
X114495000Y-112015000D01*
X100525000Y-98045000D02*
X114495000Y-98045000D01*
%TO.C,D1*%
X30300000Y-56450000D02*
X30300000Y-58450000D01*
X30300000Y-58450000D02*
X34200000Y-58450000D01*
X30300000Y-56450000D02*
X34200000Y-56450000D01*
%TO.C,D5*%
X55300000Y-56450000D02*
X59200000Y-56450000D01*
X55300000Y-58450000D02*
X59200000Y-58450000D01*
X55300000Y-56450000D02*
X55300000Y-58450000D01*
%TO.C,D9*%
X75300000Y-56450000D02*
X75300000Y-58450000D01*
X75300000Y-58450000D02*
X79200000Y-58450000D01*
X75300000Y-56450000D02*
X79200000Y-56450000D01*
%TO.C,D13*%
X95300000Y-56450000D02*
X99200000Y-56450000D01*
X95300000Y-58450000D02*
X99200000Y-58450000D01*
X95300000Y-56450000D02*
X95300000Y-58450000D01*
%TO.C,D17*%
X120300000Y-56450000D02*
X120300000Y-58450000D01*
X120300000Y-58450000D02*
X124200000Y-58450000D01*
X120300000Y-56450000D02*
X124200000Y-56450000D01*
%TO.C,R9*%
X130537258Y-28722500D02*
X130062742Y-28722500D01*
X130537258Y-27677500D02*
X130062742Y-27677500D01*
%TO.C,SW1*%
X35525000Y-53045000D02*
X49495000Y-53045000D01*
X49495000Y-53045000D02*
X49495000Y-67015000D01*
X49495000Y-67015000D02*
X35525000Y-67015000D01*
X35525000Y-67015000D02*
X35525000Y-53045000D01*
%TO.C,SW5*%
X60525000Y-67015000D02*
X60525000Y-53045000D01*
X74495000Y-67015000D02*
X60525000Y-67015000D01*
X74495000Y-53045000D02*
X74495000Y-67015000D01*
X60525000Y-53045000D02*
X74495000Y-53045000D01*
%TO.C,SW9*%
X80525000Y-53045000D02*
X94495000Y-53045000D01*
X94495000Y-53045000D02*
X94495000Y-67015000D01*
X94495000Y-67015000D02*
X80525000Y-67015000D01*
X80525000Y-67015000D02*
X80525000Y-53045000D01*
%TO.C,SW11*%
X80525000Y-112015000D02*
X80525000Y-98045000D01*
X94495000Y-112015000D02*
X80525000Y-112015000D01*
X94495000Y-98045000D02*
X94495000Y-112015000D01*
X80525000Y-98045000D02*
X94495000Y-98045000D01*
%TO.C,SW14*%
X100525000Y-67015000D02*
X100525000Y-53045000D01*
X114495000Y-67015000D02*
X100525000Y-67015000D01*
X114495000Y-53045000D02*
X114495000Y-67015000D01*
X100525000Y-53045000D02*
X114495000Y-53045000D01*
%TO.C,SW18*%
X125525000Y-53045000D02*
X139495000Y-53045000D01*
X139495000Y-53045000D02*
X139495000Y-67015000D01*
X139495000Y-67015000D02*
X125525000Y-67015000D01*
X125525000Y-67015000D02*
X125525000Y-53045000D01*
%TO.C,R10*%
X29947500Y-47962742D02*
X29947500Y-48437258D01*
X28902500Y-47962742D02*
X28902500Y-48437258D01*
%TO.C,R11*%
X53871250Y-47962742D02*
X53871250Y-48437258D01*
X54916250Y-47962742D02*
X54916250Y-48437258D01*
%TO.C,R12*%
X68885000Y-47962742D02*
X68885000Y-48437258D01*
X67840000Y-47962742D02*
X67840000Y-48437258D01*
%TO.C,R13*%
X70808750Y-47962742D02*
X70808750Y-48437258D01*
X71853750Y-47962742D02*
X71853750Y-48437258D01*
%TO.C,R14*%
X115237742Y-47677500D02*
X115712258Y-47677500D01*
X115237742Y-48722500D02*
X115712258Y-48722500D01*
%TO.C,R15*%
X138562742Y-36722500D02*
X139037258Y-36722500D01*
X138562742Y-35677500D02*
X139037258Y-35677500D01*
%TO.C,R16*%
X138562742Y-33677500D02*
X139037258Y-33677500D01*
X138562742Y-34722500D02*
X139037258Y-34722500D01*
%TO.C,R17*%
X138562742Y-32722500D02*
X139037258Y-32722500D01*
X138562742Y-31677500D02*
X139037258Y-31677500D01*
%TO.C,R18*%
X138562742Y-37677500D02*
X139037258Y-37677500D01*
X138562742Y-38722500D02*
X139037258Y-38722500D01*
%TO.C,R19*%
X138562742Y-30722500D02*
X139037258Y-30722500D01*
X138562742Y-29677500D02*
X139037258Y-29677500D01*
%TO.C,R1*%
X112537258Y-47677500D02*
X112062742Y-47677500D01*
X112537258Y-48722500D02*
X112062742Y-48722500D01*
%TO.C,R2*%
X70797500Y-45187258D02*
X70797500Y-44712742D01*
X71842500Y-45187258D02*
X71842500Y-44712742D01*
%TO.C,R3*%
X68882500Y-45187258D02*
X68882500Y-44712742D01*
X67837500Y-45187258D02*
X67837500Y-44712742D01*
%TO.C,R4*%
X53877500Y-45187258D02*
X53877500Y-44712742D01*
X54922500Y-45187258D02*
X54922500Y-44712742D01*
%TO.C,R5*%
X29962500Y-45187258D02*
X29962500Y-44712742D01*
X28917500Y-45187258D02*
X28917500Y-44712742D01*
%TO.C,R6*%
X130537258Y-38722500D02*
X130062742Y-38722500D01*
X130537258Y-37677500D02*
X130062742Y-37677500D01*
%TO.C,R7*%
X130537258Y-35677500D02*
X130062742Y-35677500D01*
X130537258Y-36722500D02*
X130062742Y-36722500D01*
%TO.C,R20*%
X130537258Y-34722500D02*
X130062742Y-34722500D01*
X130537258Y-33677500D02*
X130062742Y-33677500D01*
%TO.C,R21*%
X130537258Y-31677500D02*
X130062742Y-31677500D01*
X130537258Y-32722500D02*
X130062742Y-32722500D01*
%TO.C,R24*%
X62737742Y-32677500D02*
X63212258Y-32677500D01*
X62737742Y-33722500D02*
X63212258Y-33722500D01*
%TO.C,R25*%
X77777500Y-44962742D02*
X77777500Y-45437258D01*
X78822500Y-44962742D02*
X78822500Y-45437258D01*
%TO.C,R26*%
X130062742Y-45677500D02*
X130537258Y-45677500D01*
X130062742Y-46722500D02*
X130537258Y-46722500D01*
%TO.C,R28*%
X130062742Y-42722500D02*
X130537258Y-42722500D01*
X130062742Y-41677500D02*
X130537258Y-41677500D01*
%TO.C,R29*%
X130062742Y-39677500D02*
X130537258Y-39677500D01*
X130062742Y-40722500D02*
X130537258Y-40722500D01*
%TO.C,R30*%
X90777500Y-44462742D02*
X90777500Y-44937258D01*
X91822500Y-44462742D02*
X91822500Y-44937258D01*
%TO.C,R31*%
X130062742Y-29677500D02*
X130537258Y-29677500D01*
X130062742Y-30722500D02*
X130537258Y-30722500D01*
%TO.C,J1*%
X54550000Y-41050000D02*
X55800000Y-41050000D01*
X54550000Y-39800000D02*
X54550000Y-41050000D01*
X60050000Y-28900000D02*
X60050000Y-34450000D01*
X57100000Y-28900000D02*
X60050000Y-28900000D01*
X57100000Y-28150000D02*
X57100000Y-28900000D01*
X60050000Y-40000000D02*
X60050000Y-34450000D01*
X57100000Y-40000000D02*
X60050000Y-40000000D01*
X57100000Y-40750000D02*
X57100000Y-40000000D01*
X54850000Y-28150000D02*
X54850000Y-29950000D01*
X55600000Y-28150000D02*
X54850000Y-28150000D01*
X55600000Y-29950000D02*
X55600000Y-28150000D01*
X54850000Y-29950000D02*
X55600000Y-29950000D01*
X54850000Y-38950000D02*
X54850000Y-40750000D01*
X55600000Y-38950000D02*
X54850000Y-38950000D01*
X55600000Y-40750000D02*
X55600000Y-38950000D01*
X54850000Y-40750000D02*
X55600000Y-40750000D01*
X54850000Y-31450000D02*
X54850000Y-37450000D01*
X55600000Y-31450000D02*
X54850000Y-31450000D01*
X55600000Y-37450000D02*
X55600000Y-31450000D01*
X54850000Y-37450000D02*
X55600000Y-37450000D01*
X54840000Y-28140000D02*
X54840000Y-40760000D01*
X60810000Y-28140000D02*
X54840000Y-28140000D01*
X60810000Y-40760000D02*
X60810000Y-28140000D01*
X54840000Y-40760000D02*
X60810000Y-40760000D01*
D11*
%TO.C,U1*%
X66500000Y-41746000D02*
G75*
G03*
X66500000Y-41746000I-500000J0D01*
G01*
X66500000Y-26490000D02*
G75*
G03*
X66500000Y-26490000I-500000J0D01*
G01*
X112500000Y-41746000D02*
G75*
G03*
X112500000Y-41746000I-500000J0D01*
G01*
X112500000Y-26490000D02*
G75*
G03*
X112500000Y-26490000I-500000J0D01*
G01*
X65000000Y-25000000D02*
X113000000Y-25000000D01*
X113000000Y-25000000D02*
X113000000Y-43000000D01*
X113000000Y-43000000D02*
X65000000Y-43000000D01*
X65000000Y-43000000D02*
X65000000Y-25000000D01*
X113006000Y-36650000D02*
X110212000Y-36650000D01*
X110212000Y-36650000D02*
X110212000Y-31570000D01*
X110212000Y-31570000D02*
X113006000Y-31570000D01*
%TD*%
%TO.C,R8*%
X86752380Y-47866666D02*
X86276190Y-48200000D01*
X86752380Y-48438095D02*
X85752380Y-48438095D01*
X85752380Y-48057142D01*
X85800000Y-47961904D01*
X85847619Y-47914285D01*
X85942857Y-47866666D01*
X86085714Y-47866666D01*
X86180952Y-47914285D01*
X86228571Y-47961904D01*
X86276190Y-48057142D01*
X86276190Y-48438095D01*
X86180952Y-47295238D02*
X86133333Y-47390476D01*
X86085714Y-47438095D01*
X85990476Y-47485714D01*
X85942857Y-47485714D01*
X85847619Y-47438095D01*
X85800000Y-47390476D01*
X85752380Y-47295238D01*
X85752380Y-47104761D01*
X85800000Y-47009523D01*
X85847619Y-46961904D01*
X85942857Y-46914285D01*
X85990476Y-46914285D01*
X86085714Y-46961904D01*
X86133333Y-47009523D01*
X86180952Y-47104761D01*
X86180952Y-47295238D01*
X86228571Y-47390476D01*
X86276190Y-47438095D01*
X86371428Y-47485714D01*
X86561904Y-47485714D01*
X86657142Y-47438095D01*
X86704761Y-47390476D01*
X86752380Y-47295238D01*
X86752380Y-47104761D01*
X86704761Y-47009523D01*
X86657142Y-46961904D01*
X86561904Y-46914285D01*
X86371428Y-46914285D01*
X86276190Y-46961904D01*
X86228571Y-47009523D01*
X86180952Y-47104761D01*
%TO.C,R27*%
X132757142Y-44652380D02*
X132423809Y-44176190D01*
X132185714Y-44652380D02*
X132185714Y-43652380D01*
X132566666Y-43652380D01*
X132661904Y-43700000D01*
X132709523Y-43747619D01*
X132757142Y-43842857D01*
X132757142Y-43985714D01*
X132709523Y-44080952D01*
X132661904Y-44128571D01*
X132566666Y-44176190D01*
X132185714Y-44176190D01*
X133138095Y-43747619D02*
X133185714Y-43700000D01*
X133280952Y-43652380D01*
X133519047Y-43652380D01*
X133614285Y-43700000D01*
X133661904Y-43747619D01*
X133709523Y-43842857D01*
X133709523Y-43938095D01*
X133661904Y-44080952D01*
X133090476Y-44652380D01*
X133709523Y-44652380D01*
X134042857Y-43652380D02*
X134709523Y-43652380D01*
X134280952Y-44652380D01*
%TO.C,SW4*%
X41176666Y-117560761D02*
X41319523Y-117608380D01*
X41557619Y-117608380D01*
X41652857Y-117560761D01*
X41700476Y-117513142D01*
X41748095Y-117417904D01*
X41748095Y-117322666D01*
X41700476Y-117227428D01*
X41652857Y-117179809D01*
X41557619Y-117132190D01*
X41367142Y-117084571D01*
X41271904Y-117036952D01*
X41224285Y-116989333D01*
X41176666Y-116894095D01*
X41176666Y-116798857D01*
X41224285Y-116703619D01*
X41271904Y-116656000D01*
X41367142Y-116608380D01*
X41605238Y-116608380D01*
X41748095Y-116656000D01*
X42081428Y-116608380D02*
X42319523Y-117608380D01*
X42510000Y-116894095D01*
X42700476Y-117608380D01*
X42938571Y-116608380D01*
X43748095Y-116941714D02*
X43748095Y-117608380D01*
X43510000Y-116560761D02*
X43271904Y-117275047D01*
X43890952Y-117275047D01*
%TO.C,SW2*%
X41176666Y-77560761D02*
X41319523Y-77608380D01*
X41557619Y-77608380D01*
X41652857Y-77560761D01*
X41700476Y-77513142D01*
X41748095Y-77417904D01*
X41748095Y-77322666D01*
X41700476Y-77227428D01*
X41652857Y-77179809D01*
X41557619Y-77132190D01*
X41367142Y-77084571D01*
X41271904Y-77036952D01*
X41224285Y-76989333D01*
X41176666Y-76894095D01*
X41176666Y-76798857D01*
X41224285Y-76703619D01*
X41271904Y-76656000D01*
X41367142Y-76608380D01*
X41605238Y-76608380D01*
X41748095Y-76656000D01*
X42081428Y-76608380D02*
X42319523Y-77608380D01*
X42510000Y-76894095D01*
X42700476Y-77608380D01*
X42938571Y-76608380D01*
X43271904Y-76703619D02*
X43319523Y-76656000D01*
X43414761Y-76608380D01*
X43652857Y-76608380D01*
X43748095Y-76656000D01*
X43795714Y-76703619D01*
X43843333Y-76798857D01*
X43843333Y-76894095D01*
X43795714Y-77036952D01*
X43224285Y-77608380D01*
X43843333Y-77608380D01*
%TO.C,SW3*%
X41176666Y-97560761D02*
X41319523Y-97608380D01*
X41557619Y-97608380D01*
X41652857Y-97560761D01*
X41700476Y-97513142D01*
X41748095Y-97417904D01*
X41748095Y-97322666D01*
X41700476Y-97227428D01*
X41652857Y-97179809D01*
X41557619Y-97132190D01*
X41367142Y-97084571D01*
X41271904Y-97036952D01*
X41224285Y-96989333D01*
X41176666Y-96894095D01*
X41176666Y-96798857D01*
X41224285Y-96703619D01*
X41271904Y-96656000D01*
X41367142Y-96608380D01*
X41605238Y-96608380D01*
X41748095Y-96656000D01*
X42081428Y-96608380D02*
X42319523Y-97608380D01*
X42510000Y-96894095D01*
X42700476Y-97608380D01*
X42938571Y-96608380D01*
X43224285Y-96608380D02*
X43843333Y-96608380D01*
X43510000Y-96989333D01*
X43652857Y-96989333D01*
X43748095Y-97036952D01*
X43795714Y-97084571D01*
X43843333Y-97179809D01*
X43843333Y-97417904D01*
X43795714Y-97513142D01*
X43748095Y-97560761D01*
X43652857Y-97608380D01*
X43367142Y-97608380D01*
X43271904Y-97560761D01*
X43224285Y-97513142D01*
%TO.C,D4*%
X31811904Y-120902380D02*
X31811904Y-119902380D01*
X32050000Y-119902380D01*
X32192857Y-119950000D01*
X32288095Y-120045238D01*
X32335714Y-120140476D01*
X32383333Y-120330952D01*
X32383333Y-120473809D01*
X32335714Y-120664285D01*
X32288095Y-120759523D01*
X32192857Y-120854761D01*
X32050000Y-120902380D01*
X31811904Y-120902380D01*
X33240476Y-120235714D02*
X33240476Y-120902380D01*
X33002380Y-119854761D02*
X32764285Y-120569047D01*
X33383333Y-120569047D01*
%TO.C,D20*%
X121335714Y-120902380D02*
X121335714Y-119902380D01*
X121573809Y-119902380D01*
X121716666Y-119950000D01*
X121811904Y-120045238D01*
X121859523Y-120140476D01*
X121907142Y-120330952D01*
X121907142Y-120473809D01*
X121859523Y-120664285D01*
X121811904Y-120759523D01*
X121716666Y-120854761D01*
X121573809Y-120902380D01*
X121335714Y-120902380D01*
X122288095Y-119997619D02*
X122335714Y-119950000D01*
X122430952Y-119902380D01*
X122669047Y-119902380D01*
X122764285Y-119950000D01*
X122811904Y-119997619D01*
X122859523Y-120092857D01*
X122859523Y-120188095D01*
X122811904Y-120330952D01*
X122240476Y-120902380D01*
X122859523Y-120902380D01*
X123478571Y-119902380D02*
X123573809Y-119902380D01*
X123669047Y-119950000D01*
X123716666Y-119997619D01*
X123764285Y-120092857D01*
X123811904Y-120283333D01*
X123811904Y-120521428D01*
X123764285Y-120711904D01*
X123716666Y-120807142D01*
X123669047Y-120854761D01*
X123573809Y-120902380D01*
X123478571Y-120902380D01*
X123383333Y-120854761D01*
X123335714Y-120807142D01*
X123288095Y-120711904D01*
X123240476Y-120521428D01*
X123240476Y-120283333D01*
X123288095Y-120092857D01*
X123335714Y-119997619D01*
X123383333Y-119950000D01*
X123478571Y-119902380D01*
%TO.C,D8*%
X56811904Y-120902380D02*
X56811904Y-119902380D01*
X57050000Y-119902380D01*
X57192857Y-119950000D01*
X57288095Y-120045238D01*
X57335714Y-120140476D01*
X57383333Y-120330952D01*
X57383333Y-120473809D01*
X57335714Y-120664285D01*
X57288095Y-120759523D01*
X57192857Y-120854761D01*
X57050000Y-120902380D01*
X56811904Y-120902380D01*
X57954761Y-120330952D02*
X57859523Y-120283333D01*
X57811904Y-120235714D01*
X57764285Y-120140476D01*
X57764285Y-120092857D01*
X57811904Y-119997619D01*
X57859523Y-119950000D01*
X57954761Y-119902380D01*
X58145238Y-119902380D01*
X58240476Y-119950000D01*
X58288095Y-119997619D01*
X58335714Y-120092857D01*
X58335714Y-120140476D01*
X58288095Y-120235714D01*
X58240476Y-120283333D01*
X58145238Y-120330952D01*
X57954761Y-120330952D01*
X57859523Y-120378571D01*
X57811904Y-120426190D01*
X57764285Y-120521428D01*
X57764285Y-120711904D01*
X57811904Y-120807142D01*
X57859523Y-120854761D01*
X57954761Y-120902380D01*
X58145238Y-120902380D01*
X58240476Y-120854761D01*
X58288095Y-120807142D01*
X58335714Y-120711904D01*
X58335714Y-120521428D01*
X58288095Y-120426190D01*
X58240476Y-120378571D01*
X58145238Y-120330952D01*
%TO.C,D12*%
X76335714Y-120902380D02*
X76335714Y-119902380D01*
X76573809Y-119902380D01*
X76716666Y-119950000D01*
X76811904Y-120045238D01*
X76859523Y-120140476D01*
X76907142Y-120330952D01*
X76907142Y-120473809D01*
X76859523Y-120664285D01*
X76811904Y-120759523D01*
X76716666Y-120854761D01*
X76573809Y-120902380D01*
X76335714Y-120902380D01*
X77859523Y-120902380D02*
X77288095Y-120902380D01*
X77573809Y-120902380D02*
X77573809Y-119902380D01*
X77478571Y-120045238D01*
X77383333Y-120140476D01*
X77288095Y-120188095D01*
X78240476Y-119997619D02*
X78288095Y-119950000D01*
X78383333Y-119902380D01*
X78621428Y-119902380D01*
X78716666Y-119950000D01*
X78764285Y-119997619D01*
X78811904Y-120092857D01*
X78811904Y-120188095D01*
X78764285Y-120330952D01*
X78192857Y-120902380D01*
X78811904Y-120902380D01*
%TO.C,D16*%
X96335714Y-120902380D02*
X96335714Y-119902380D01*
X96573809Y-119902380D01*
X96716666Y-119950000D01*
X96811904Y-120045238D01*
X96859523Y-120140476D01*
X96907142Y-120330952D01*
X96907142Y-120473809D01*
X96859523Y-120664285D01*
X96811904Y-120759523D01*
X96716666Y-120854761D01*
X96573809Y-120902380D01*
X96335714Y-120902380D01*
X97859523Y-120902380D02*
X97288095Y-120902380D01*
X97573809Y-120902380D02*
X97573809Y-119902380D01*
X97478571Y-120045238D01*
X97383333Y-120140476D01*
X97288095Y-120188095D01*
X98716666Y-119902380D02*
X98526190Y-119902380D01*
X98430952Y-119950000D01*
X98383333Y-119997619D01*
X98288095Y-120140476D01*
X98240476Y-120330952D01*
X98240476Y-120711904D01*
X98288095Y-120807142D01*
X98335714Y-120854761D01*
X98430952Y-120902380D01*
X98621428Y-120902380D01*
X98716666Y-120854761D01*
X98764285Y-120807142D01*
X98811904Y-120711904D01*
X98811904Y-120473809D01*
X98764285Y-120378571D01*
X98716666Y-120330952D01*
X98621428Y-120283333D01*
X98430952Y-120283333D01*
X98335714Y-120330952D01*
X98288095Y-120378571D01*
X98240476Y-120473809D01*
%TO.C,D2*%
X31811904Y-80902380D02*
X31811904Y-79902380D01*
X32050000Y-79902380D01*
X32192857Y-79950000D01*
X32288095Y-80045238D01*
X32335714Y-80140476D01*
X32383333Y-80330952D01*
X32383333Y-80473809D01*
X32335714Y-80664285D01*
X32288095Y-80759523D01*
X32192857Y-80854761D01*
X32050000Y-80902380D01*
X31811904Y-80902380D01*
X32764285Y-79997619D02*
X32811904Y-79950000D01*
X32907142Y-79902380D01*
X33145238Y-79902380D01*
X33240476Y-79950000D01*
X33288095Y-79997619D01*
X33335714Y-80092857D01*
X33335714Y-80188095D01*
X33288095Y-80330952D01*
X32716666Y-80902380D01*
X33335714Y-80902380D01*
%TO.C,D18*%
X121335714Y-80902380D02*
X121335714Y-79902380D01*
X121573809Y-79902380D01*
X121716666Y-79950000D01*
X121811904Y-80045238D01*
X121859523Y-80140476D01*
X121907142Y-80330952D01*
X121907142Y-80473809D01*
X121859523Y-80664285D01*
X121811904Y-80759523D01*
X121716666Y-80854761D01*
X121573809Y-80902380D01*
X121335714Y-80902380D01*
X122859523Y-80902380D02*
X122288095Y-80902380D01*
X122573809Y-80902380D02*
X122573809Y-79902380D01*
X122478571Y-80045238D01*
X122383333Y-80140476D01*
X122288095Y-80188095D01*
X123430952Y-80330952D02*
X123335714Y-80283333D01*
X123288095Y-80235714D01*
X123240476Y-80140476D01*
X123240476Y-80092857D01*
X123288095Y-79997619D01*
X123335714Y-79950000D01*
X123430952Y-79902380D01*
X123621428Y-79902380D01*
X123716666Y-79950000D01*
X123764285Y-79997619D01*
X123811904Y-80092857D01*
X123811904Y-80140476D01*
X123764285Y-80235714D01*
X123716666Y-80283333D01*
X123621428Y-80330952D01*
X123430952Y-80330952D01*
X123335714Y-80378571D01*
X123288095Y-80426190D01*
X123240476Y-80521428D01*
X123240476Y-80711904D01*
X123288095Y-80807142D01*
X123335714Y-80854761D01*
X123430952Y-80902380D01*
X123621428Y-80902380D01*
X123716666Y-80854761D01*
X123764285Y-80807142D01*
X123811904Y-80711904D01*
X123811904Y-80521428D01*
X123764285Y-80426190D01*
X123716666Y-80378571D01*
X123621428Y-80330952D01*
%TO.C,D6*%
X56811904Y-80902380D02*
X56811904Y-79902380D01*
X57050000Y-79902380D01*
X57192857Y-79950000D01*
X57288095Y-80045238D01*
X57335714Y-80140476D01*
X57383333Y-80330952D01*
X57383333Y-80473809D01*
X57335714Y-80664285D01*
X57288095Y-80759523D01*
X57192857Y-80854761D01*
X57050000Y-80902380D01*
X56811904Y-80902380D01*
X58240476Y-79902380D02*
X58050000Y-79902380D01*
X57954761Y-79950000D01*
X57907142Y-79997619D01*
X57811904Y-80140476D01*
X57764285Y-80330952D01*
X57764285Y-80711904D01*
X57811904Y-80807142D01*
X57859523Y-80854761D01*
X57954761Y-80902380D01*
X58145238Y-80902380D01*
X58240476Y-80854761D01*
X58288095Y-80807142D01*
X58335714Y-80711904D01*
X58335714Y-80473809D01*
X58288095Y-80378571D01*
X58240476Y-80330952D01*
X58145238Y-80283333D01*
X57954761Y-80283333D01*
X57859523Y-80330952D01*
X57811904Y-80378571D01*
X57764285Y-80473809D01*
%TO.C,D10*%
X76335714Y-80902380D02*
X76335714Y-79902380D01*
X76573809Y-79902380D01*
X76716666Y-79950000D01*
X76811904Y-80045238D01*
X76859523Y-80140476D01*
X76907142Y-80330952D01*
X76907142Y-80473809D01*
X76859523Y-80664285D01*
X76811904Y-80759523D01*
X76716666Y-80854761D01*
X76573809Y-80902380D01*
X76335714Y-80902380D01*
X77859523Y-80902380D02*
X77288095Y-80902380D01*
X77573809Y-80902380D02*
X77573809Y-79902380D01*
X77478571Y-80045238D01*
X77383333Y-80140476D01*
X77288095Y-80188095D01*
X78478571Y-79902380D02*
X78573809Y-79902380D01*
X78669047Y-79950000D01*
X78716666Y-79997619D01*
X78764285Y-80092857D01*
X78811904Y-80283333D01*
X78811904Y-80521428D01*
X78764285Y-80711904D01*
X78716666Y-80807142D01*
X78669047Y-80854761D01*
X78573809Y-80902380D01*
X78478571Y-80902380D01*
X78383333Y-80854761D01*
X78335714Y-80807142D01*
X78288095Y-80711904D01*
X78240476Y-80521428D01*
X78240476Y-80283333D01*
X78288095Y-80092857D01*
X78335714Y-79997619D01*
X78383333Y-79950000D01*
X78478571Y-79902380D01*
%TO.C,D14*%
X96335714Y-80902380D02*
X96335714Y-79902380D01*
X96573809Y-79902380D01*
X96716666Y-79950000D01*
X96811904Y-80045238D01*
X96859523Y-80140476D01*
X96907142Y-80330952D01*
X96907142Y-80473809D01*
X96859523Y-80664285D01*
X96811904Y-80759523D01*
X96716666Y-80854761D01*
X96573809Y-80902380D01*
X96335714Y-80902380D01*
X97859523Y-80902380D02*
X97288095Y-80902380D01*
X97573809Y-80902380D02*
X97573809Y-79902380D01*
X97478571Y-80045238D01*
X97383333Y-80140476D01*
X97288095Y-80188095D01*
X98716666Y-80235714D02*
X98716666Y-80902380D01*
X98478571Y-79854761D02*
X98240476Y-80569047D01*
X98859523Y-80569047D01*
%TO.C,D3*%
X31811904Y-100902380D02*
X31811904Y-99902380D01*
X32050000Y-99902380D01*
X32192857Y-99950000D01*
X32288095Y-100045238D01*
X32335714Y-100140476D01*
X32383333Y-100330952D01*
X32383333Y-100473809D01*
X32335714Y-100664285D01*
X32288095Y-100759523D01*
X32192857Y-100854761D01*
X32050000Y-100902380D01*
X31811904Y-100902380D01*
X32716666Y-99902380D02*
X33335714Y-99902380D01*
X33002380Y-100283333D01*
X33145238Y-100283333D01*
X33240476Y-100330952D01*
X33288095Y-100378571D01*
X33335714Y-100473809D01*
X33335714Y-100711904D01*
X33288095Y-100807142D01*
X33240476Y-100854761D01*
X33145238Y-100902380D01*
X32859523Y-100902380D01*
X32764285Y-100854761D01*
X32716666Y-100807142D01*
%TO.C,D19*%
X121335714Y-100902380D02*
X121335714Y-99902380D01*
X121573809Y-99902380D01*
X121716666Y-99950000D01*
X121811904Y-100045238D01*
X121859523Y-100140476D01*
X121907142Y-100330952D01*
X121907142Y-100473809D01*
X121859523Y-100664285D01*
X121811904Y-100759523D01*
X121716666Y-100854761D01*
X121573809Y-100902380D01*
X121335714Y-100902380D01*
X122859523Y-100902380D02*
X122288095Y-100902380D01*
X122573809Y-100902380D02*
X122573809Y-99902380D01*
X122478571Y-100045238D01*
X122383333Y-100140476D01*
X122288095Y-100188095D01*
X123335714Y-100902380D02*
X123526190Y-100902380D01*
X123621428Y-100854761D01*
X123669047Y-100807142D01*
X123764285Y-100664285D01*
X123811904Y-100473809D01*
X123811904Y-100092857D01*
X123764285Y-99997619D01*
X123716666Y-99950000D01*
X123621428Y-99902380D01*
X123430952Y-99902380D01*
X123335714Y-99950000D01*
X123288095Y-99997619D01*
X123240476Y-100092857D01*
X123240476Y-100330952D01*
X123288095Y-100426190D01*
X123335714Y-100473809D01*
X123430952Y-100521428D01*
X123621428Y-100521428D01*
X123716666Y-100473809D01*
X123764285Y-100426190D01*
X123811904Y-100330952D01*
%TO.C,D7*%
X56811904Y-100902380D02*
X56811904Y-99902380D01*
X57050000Y-99902380D01*
X57192857Y-99950000D01*
X57288095Y-100045238D01*
X57335714Y-100140476D01*
X57383333Y-100330952D01*
X57383333Y-100473809D01*
X57335714Y-100664285D01*
X57288095Y-100759523D01*
X57192857Y-100854761D01*
X57050000Y-100902380D01*
X56811904Y-100902380D01*
X57716666Y-99902380D02*
X58383333Y-99902380D01*
X57954761Y-100902380D01*
%TO.C,D11*%
X76335714Y-100902380D02*
X76335714Y-99902380D01*
X76573809Y-99902380D01*
X76716666Y-99950000D01*
X76811904Y-100045238D01*
X76859523Y-100140476D01*
X76907142Y-100330952D01*
X76907142Y-100473809D01*
X76859523Y-100664285D01*
X76811904Y-100759523D01*
X76716666Y-100854761D01*
X76573809Y-100902380D01*
X76335714Y-100902380D01*
X77859523Y-100902380D02*
X77288095Y-100902380D01*
X77573809Y-100902380D02*
X77573809Y-99902380D01*
X77478571Y-100045238D01*
X77383333Y-100140476D01*
X77288095Y-100188095D01*
X78811904Y-100902380D02*
X78240476Y-100902380D01*
X78526190Y-100902380D02*
X78526190Y-99902380D01*
X78430952Y-100045238D01*
X78335714Y-100140476D01*
X78240476Y-100188095D01*
%TO.C,D15*%
X96335714Y-100902380D02*
X96335714Y-99902380D01*
X96573809Y-99902380D01*
X96716666Y-99950000D01*
X96811904Y-100045238D01*
X96859523Y-100140476D01*
X96907142Y-100330952D01*
X96907142Y-100473809D01*
X96859523Y-100664285D01*
X96811904Y-100759523D01*
X96716666Y-100854761D01*
X96573809Y-100902380D01*
X96335714Y-100902380D01*
X97859523Y-100902380D02*
X97288095Y-100902380D01*
X97573809Y-100902380D02*
X97573809Y-99902380D01*
X97478571Y-100045238D01*
X97383333Y-100140476D01*
X97288095Y-100188095D01*
X98764285Y-99902380D02*
X98288095Y-99902380D01*
X98240476Y-100378571D01*
X98288095Y-100330952D01*
X98383333Y-100283333D01*
X98621428Y-100283333D01*
X98716666Y-100330952D01*
X98764285Y-100378571D01*
X98811904Y-100473809D01*
X98811904Y-100711904D01*
X98764285Y-100807142D01*
X98716666Y-100854761D01*
X98621428Y-100902380D01*
X98383333Y-100902380D01*
X98288095Y-100854761D01*
X98240476Y-100807142D01*
%TO.C,SW21*%
X130700476Y-117560761D02*
X130843333Y-117608380D01*
X131081428Y-117608380D01*
X131176666Y-117560761D01*
X131224285Y-117513142D01*
X131271904Y-117417904D01*
X131271904Y-117322666D01*
X131224285Y-117227428D01*
X131176666Y-117179809D01*
X131081428Y-117132190D01*
X130890952Y-117084571D01*
X130795714Y-117036952D01*
X130748095Y-116989333D01*
X130700476Y-116894095D01*
X130700476Y-116798857D01*
X130748095Y-116703619D01*
X130795714Y-116656000D01*
X130890952Y-116608380D01*
X131129047Y-116608380D01*
X131271904Y-116656000D01*
X131605238Y-116608380D02*
X131843333Y-117608380D01*
X132033809Y-116894095D01*
X132224285Y-117608380D01*
X132462380Y-116608380D01*
X132795714Y-116703619D02*
X132843333Y-116656000D01*
X132938571Y-116608380D01*
X133176666Y-116608380D01*
X133271904Y-116656000D01*
X133319523Y-116703619D01*
X133367142Y-116798857D01*
X133367142Y-116894095D01*
X133319523Y-117036952D01*
X132748095Y-117608380D01*
X133367142Y-117608380D01*
X134319523Y-117608380D02*
X133748095Y-117608380D01*
X134033809Y-117608380D02*
X134033809Y-116608380D01*
X133938571Y-116751238D01*
X133843333Y-116846476D01*
X133748095Y-116894095D01*
%TO.C,SW8*%
X66176666Y-117560761D02*
X66319523Y-117608380D01*
X66557619Y-117608380D01*
X66652857Y-117560761D01*
X66700476Y-117513142D01*
X66748095Y-117417904D01*
X66748095Y-117322666D01*
X66700476Y-117227428D01*
X66652857Y-117179809D01*
X66557619Y-117132190D01*
X66367142Y-117084571D01*
X66271904Y-117036952D01*
X66224285Y-116989333D01*
X66176666Y-116894095D01*
X66176666Y-116798857D01*
X66224285Y-116703619D01*
X66271904Y-116656000D01*
X66367142Y-116608380D01*
X66605238Y-116608380D01*
X66748095Y-116656000D01*
X67081428Y-116608380D02*
X67319523Y-117608380D01*
X67510000Y-116894095D01*
X67700476Y-117608380D01*
X67938571Y-116608380D01*
X68462380Y-117036952D02*
X68367142Y-116989333D01*
X68319523Y-116941714D01*
X68271904Y-116846476D01*
X68271904Y-116798857D01*
X68319523Y-116703619D01*
X68367142Y-116656000D01*
X68462380Y-116608380D01*
X68652857Y-116608380D01*
X68748095Y-116656000D01*
X68795714Y-116703619D01*
X68843333Y-116798857D01*
X68843333Y-116846476D01*
X68795714Y-116941714D01*
X68748095Y-116989333D01*
X68652857Y-117036952D01*
X68462380Y-117036952D01*
X68367142Y-117084571D01*
X68319523Y-117132190D01*
X68271904Y-117227428D01*
X68271904Y-117417904D01*
X68319523Y-117513142D01*
X68367142Y-117560761D01*
X68462380Y-117608380D01*
X68652857Y-117608380D01*
X68748095Y-117560761D01*
X68795714Y-117513142D01*
X68843333Y-117417904D01*
X68843333Y-117227428D01*
X68795714Y-117132190D01*
X68748095Y-117084571D01*
X68652857Y-117036952D01*
%TO.C,SW12*%
X85700476Y-117560761D02*
X85843333Y-117608380D01*
X86081428Y-117608380D01*
X86176666Y-117560761D01*
X86224285Y-117513142D01*
X86271904Y-117417904D01*
X86271904Y-117322666D01*
X86224285Y-117227428D01*
X86176666Y-117179809D01*
X86081428Y-117132190D01*
X85890952Y-117084571D01*
X85795714Y-117036952D01*
X85748095Y-116989333D01*
X85700476Y-116894095D01*
X85700476Y-116798857D01*
X85748095Y-116703619D01*
X85795714Y-116656000D01*
X85890952Y-116608380D01*
X86129047Y-116608380D01*
X86271904Y-116656000D01*
X86605238Y-116608380D02*
X86843333Y-117608380D01*
X87033809Y-116894095D01*
X87224285Y-117608380D01*
X87462380Y-116608380D01*
X88367142Y-117608380D02*
X87795714Y-117608380D01*
X88081428Y-117608380D02*
X88081428Y-116608380D01*
X87986190Y-116751238D01*
X87890952Y-116846476D01*
X87795714Y-116894095D01*
X88748095Y-116703619D02*
X88795714Y-116656000D01*
X88890952Y-116608380D01*
X89129047Y-116608380D01*
X89224285Y-116656000D01*
X89271904Y-116703619D01*
X89319523Y-116798857D01*
X89319523Y-116894095D01*
X89271904Y-117036952D01*
X88700476Y-117608380D01*
X89319523Y-117608380D01*
%TO.C,SW17*%
X105700476Y-117560761D02*
X105843333Y-117608380D01*
X106081428Y-117608380D01*
X106176666Y-117560761D01*
X106224285Y-117513142D01*
X106271904Y-117417904D01*
X106271904Y-117322666D01*
X106224285Y-117227428D01*
X106176666Y-117179809D01*
X106081428Y-117132190D01*
X105890952Y-117084571D01*
X105795714Y-117036952D01*
X105748095Y-116989333D01*
X105700476Y-116894095D01*
X105700476Y-116798857D01*
X105748095Y-116703619D01*
X105795714Y-116656000D01*
X105890952Y-116608380D01*
X106129047Y-116608380D01*
X106271904Y-116656000D01*
X106605238Y-116608380D02*
X106843333Y-117608380D01*
X107033809Y-116894095D01*
X107224285Y-117608380D01*
X107462380Y-116608380D01*
X108367142Y-117608380D02*
X107795714Y-117608380D01*
X108081428Y-117608380D02*
X108081428Y-116608380D01*
X107986190Y-116751238D01*
X107890952Y-116846476D01*
X107795714Y-116894095D01*
X108700476Y-116608380D02*
X109367142Y-116608380D01*
X108938571Y-117608380D01*
%TO.C,SW19*%
X130700476Y-77560761D02*
X130843333Y-77608380D01*
X131081428Y-77608380D01*
X131176666Y-77560761D01*
X131224285Y-77513142D01*
X131271904Y-77417904D01*
X131271904Y-77322666D01*
X131224285Y-77227428D01*
X131176666Y-77179809D01*
X131081428Y-77132190D01*
X130890952Y-77084571D01*
X130795714Y-77036952D01*
X130748095Y-76989333D01*
X130700476Y-76894095D01*
X130700476Y-76798857D01*
X130748095Y-76703619D01*
X130795714Y-76656000D01*
X130890952Y-76608380D01*
X131129047Y-76608380D01*
X131271904Y-76656000D01*
X131605238Y-76608380D02*
X131843333Y-77608380D01*
X132033809Y-76894095D01*
X132224285Y-77608380D01*
X132462380Y-76608380D01*
X133367142Y-77608380D02*
X132795714Y-77608380D01*
X133081428Y-77608380D02*
X133081428Y-76608380D01*
X132986190Y-76751238D01*
X132890952Y-76846476D01*
X132795714Y-76894095D01*
X133843333Y-77608380D02*
X134033809Y-77608380D01*
X134129047Y-77560761D01*
X134176666Y-77513142D01*
X134271904Y-77370285D01*
X134319523Y-77179809D01*
X134319523Y-76798857D01*
X134271904Y-76703619D01*
X134224285Y-76656000D01*
X134129047Y-76608380D01*
X133938571Y-76608380D01*
X133843333Y-76656000D01*
X133795714Y-76703619D01*
X133748095Y-76798857D01*
X133748095Y-77036952D01*
X133795714Y-77132190D01*
X133843333Y-77179809D01*
X133938571Y-77227428D01*
X134129047Y-77227428D01*
X134224285Y-77179809D01*
X134271904Y-77132190D01*
X134319523Y-77036952D01*
%TO.C,SW6*%
X66176666Y-77560761D02*
X66319523Y-77608380D01*
X66557619Y-77608380D01*
X66652857Y-77560761D01*
X66700476Y-77513142D01*
X66748095Y-77417904D01*
X66748095Y-77322666D01*
X66700476Y-77227428D01*
X66652857Y-77179809D01*
X66557619Y-77132190D01*
X66367142Y-77084571D01*
X66271904Y-77036952D01*
X66224285Y-76989333D01*
X66176666Y-76894095D01*
X66176666Y-76798857D01*
X66224285Y-76703619D01*
X66271904Y-76656000D01*
X66367142Y-76608380D01*
X66605238Y-76608380D01*
X66748095Y-76656000D01*
X67081428Y-76608380D02*
X67319523Y-77608380D01*
X67510000Y-76894095D01*
X67700476Y-77608380D01*
X67938571Y-76608380D01*
X68748095Y-76608380D02*
X68557619Y-76608380D01*
X68462380Y-76656000D01*
X68414761Y-76703619D01*
X68319523Y-76846476D01*
X68271904Y-77036952D01*
X68271904Y-77417904D01*
X68319523Y-77513142D01*
X68367142Y-77560761D01*
X68462380Y-77608380D01*
X68652857Y-77608380D01*
X68748095Y-77560761D01*
X68795714Y-77513142D01*
X68843333Y-77417904D01*
X68843333Y-77179809D01*
X68795714Y-77084571D01*
X68748095Y-77036952D01*
X68652857Y-76989333D01*
X68462380Y-76989333D01*
X68367142Y-77036952D01*
X68319523Y-77084571D01*
X68271904Y-77179809D01*
%TO.C,SW10*%
X85700476Y-77560761D02*
X85843333Y-77608380D01*
X86081428Y-77608380D01*
X86176666Y-77560761D01*
X86224285Y-77513142D01*
X86271904Y-77417904D01*
X86271904Y-77322666D01*
X86224285Y-77227428D01*
X86176666Y-77179809D01*
X86081428Y-77132190D01*
X85890952Y-77084571D01*
X85795714Y-77036952D01*
X85748095Y-76989333D01*
X85700476Y-76894095D01*
X85700476Y-76798857D01*
X85748095Y-76703619D01*
X85795714Y-76656000D01*
X85890952Y-76608380D01*
X86129047Y-76608380D01*
X86271904Y-76656000D01*
X86605238Y-76608380D02*
X86843333Y-77608380D01*
X87033809Y-76894095D01*
X87224285Y-77608380D01*
X87462380Y-76608380D01*
X88367142Y-77608380D02*
X87795714Y-77608380D01*
X88081428Y-77608380D02*
X88081428Y-76608380D01*
X87986190Y-76751238D01*
X87890952Y-76846476D01*
X87795714Y-76894095D01*
X88986190Y-76608380D02*
X89081428Y-76608380D01*
X89176666Y-76656000D01*
X89224285Y-76703619D01*
X89271904Y-76798857D01*
X89319523Y-76989333D01*
X89319523Y-77227428D01*
X89271904Y-77417904D01*
X89224285Y-77513142D01*
X89176666Y-77560761D01*
X89081428Y-77608380D01*
X88986190Y-77608380D01*
X88890952Y-77560761D01*
X88843333Y-77513142D01*
X88795714Y-77417904D01*
X88748095Y-77227428D01*
X88748095Y-76989333D01*
X88795714Y-76798857D01*
X88843333Y-76703619D01*
X88890952Y-76656000D01*
X88986190Y-76608380D01*
%TO.C,SW15*%
X105700476Y-77560761D02*
X105843333Y-77608380D01*
X106081428Y-77608380D01*
X106176666Y-77560761D01*
X106224285Y-77513142D01*
X106271904Y-77417904D01*
X106271904Y-77322666D01*
X106224285Y-77227428D01*
X106176666Y-77179809D01*
X106081428Y-77132190D01*
X105890952Y-77084571D01*
X105795714Y-77036952D01*
X105748095Y-76989333D01*
X105700476Y-76894095D01*
X105700476Y-76798857D01*
X105748095Y-76703619D01*
X105795714Y-76656000D01*
X105890952Y-76608380D01*
X106129047Y-76608380D01*
X106271904Y-76656000D01*
X106605238Y-76608380D02*
X106843333Y-77608380D01*
X107033809Y-76894095D01*
X107224285Y-77608380D01*
X107462380Y-76608380D01*
X108367142Y-77608380D02*
X107795714Y-77608380D01*
X108081428Y-77608380D02*
X108081428Y-76608380D01*
X107986190Y-76751238D01*
X107890952Y-76846476D01*
X107795714Y-76894095D01*
X109271904Y-76608380D02*
X108795714Y-76608380D01*
X108748095Y-77084571D01*
X108795714Y-77036952D01*
X108890952Y-76989333D01*
X109129047Y-76989333D01*
X109224285Y-77036952D01*
X109271904Y-77084571D01*
X109319523Y-77179809D01*
X109319523Y-77417904D01*
X109271904Y-77513142D01*
X109224285Y-77560761D01*
X109129047Y-77608380D01*
X108890952Y-77608380D01*
X108795714Y-77560761D01*
X108748095Y-77513142D01*
%TO.C,SW20*%
X130700476Y-97560761D02*
X130843333Y-97608380D01*
X131081428Y-97608380D01*
X131176666Y-97560761D01*
X131224285Y-97513142D01*
X131271904Y-97417904D01*
X131271904Y-97322666D01*
X131224285Y-97227428D01*
X131176666Y-97179809D01*
X131081428Y-97132190D01*
X130890952Y-97084571D01*
X130795714Y-97036952D01*
X130748095Y-96989333D01*
X130700476Y-96894095D01*
X130700476Y-96798857D01*
X130748095Y-96703619D01*
X130795714Y-96656000D01*
X130890952Y-96608380D01*
X131129047Y-96608380D01*
X131271904Y-96656000D01*
X131605238Y-96608380D02*
X131843333Y-97608380D01*
X132033809Y-96894095D01*
X132224285Y-97608380D01*
X132462380Y-96608380D01*
X132795714Y-96703619D02*
X132843333Y-96656000D01*
X132938571Y-96608380D01*
X133176666Y-96608380D01*
X133271904Y-96656000D01*
X133319523Y-96703619D01*
X133367142Y-96798857D01*
X133367142Y-96894095D01*
X133319523Y-97036952D01*
X132748095Y-97608380D01*
X133367142Y-97608380D01*
X133986190Y-96608380D02*
X134081428Y-96608380D01*
X134176666Y-96656000D01*
X134224285Y-96703619D01*
X134271904Y-96798857D01*
X134319523Y-96989333D01*
X134319523Y-97227428D01*
X134271904Y-97417904D01*
X134224285Y-97513142D01*
X134176666Y-97560761D01*
X134081428Y-97608380D01*
X133986190Y-97608380D01*
X133890952Y-97560761D01*
X133843333Y-97513142D01*
X133795714Y-97417904D01*
X133748095Y-97227428D01*
X133748095Y-96989333D01*
X133795714Y-96798857D01*
X133843333Y-96703619D01*
X133890952Y-96656000D01*
X133986190Y-96608380D01*
%TO.C,SW7*%
X66176666Y-97560761D02*
X66319523Y-97608380D01*
X66557619Y-97608380D01*
X66652857Y-97560761D01*
X66700476Y-97513142D01*
X66748095Y-97417904D01*
X66748095Y-97322666D01*
X66700476Y-97227428D01*
X66652857Y-97179809D01*
X66557619Y-97132190D01*
X66367142Y-97084571D01*
X66271904Y-97036952D01*
X66224285Y-96989333D01*
X66176666Y-96894095D01*
X66176666Y-96798857D01*
X66224285Y-96703619D01*
X66271904Y-96656000D01*
X66367142Y-96608380D01*
X66605238Y-96608380D01*
X66748095Y-96656000D01*
X67081428Y-96608380D02*
X67319523Y-97608380D01*
X67510000Y-96894095D01*
X67700476Y-97608380D01*
X67938571Y-96608380D01*
X68224285Y-96608380D02*
X68890952Y-96608380D01*
X68462380Y-97608380D01*
%TO.C,SW16*%
X105700476Y-97560761D02*
X105843333Y-97608380D01*
X106081428Y-97608380D01*
X106176666Y-97560761D01*
X106224285Y-97513142D01*
X106271904Y-97417904D01*
X106271904Y-97322666D01*
X106224285Y-97227428D01*
X106176666Y-97179809D01*
X106081428Y-97132190D01*
X105890952Y-97084571D01*
X105795714Y-97036952D01*
X105748095Y-96989333D01*
X105700476Y-96894095D01*
X105700476Y-96798857D01*
X105748095Y-96703619D01*
X105795714Y-96656000D01*
X105890952Y-96608380D01*
X106129047Y-96608380D01*
X106271904Y-96656000D01*
X106605238Y-96608380D02*
X106843333Y-97608380D01*
X107033809Y-96894095D01*
X107224285Y-97608380D01*
X107462380Y-96608380D01*
X108367142Y-97608380D02*
X107795714Y-97608380D01*
X108081428Y-97608380D02*
X108081428Y-96608380D01*
X107986190Y-96751238D01*
X107890952Y-96846476D01*
X107795714Y-96894095D01*
X109224285Y-96608380D02*
X109033809Y-96608380D01*
X108938571Y-96656000D01*
X108890952Y-96703619D01*
X108795714Y-96846476D01*
X108748095Y-97036952D01*
X108748095Y-97417904D01*
X108795714Y-97513142D01*
X108843333Y-97560761D01*
X108938571Y-97608380D01*
X109129047Y-97608380D01*
X109224285Y-97560761D01*
X109271904Y-97513142D01*
X109319523Y-97417904D01*
X109319523Y-97179809D01*
X109271904Y-97084571D01*
X109224285Y-97036952D01*
X109129047Y-96989333D01*
X108938571Y-96989333D01*
X108843333Y-97036952D01*
X108795714Y-97084571D01*
X108748095Y-97179809D01*
%TO.C,SW13*%
X143140476Y-154554761D02*
X143283333Y-154602380D01*
X143521428Y-154602380D01*
X143616666Y-154554761D01*
X143664285Y-154507142D01*
X143711904Y-154411904D01*
X143711904Y-154316666D01*
X143664285Y-154221428D01*
X143616666Y-154173809D01*
X143521428Y-154126190D01*
X143330952Y-154078571D01*
X143235714Y-154030952D01*
X143188095Y-153983333D01*
X143140476Y-153888095D01*
X143140476Y-153792857D01*
X143188095Y-153697619D01*
X143235714Y-153650000D01*
X143330952Y-153602380D01*
X143569047Y-153602380D01*
X143711904Y-153650000D01*
X144045238Y-153602380D02*
X144283333Y-154602380D01*
X144473809Y-153888095D01*
X144664285Y-154602380D01*
X144902380Y-153602380D01*
X145807142Y-154602380D02*
X145235714Y-154602380D01*
X145521428Y-154602380D02*
X145521428Y-153602380D01*
X145426190Y-153745238D01*
X145330952Y-153840476D01*
X145235714Y-153888095D01*
X146140476Y-153602380D02*
X146759523Y-153602380D01*
X146426190Y-153983333D01*
X146569047Y-153983333D01*
X146664285Y-154030952D01*
X146711904Y-154078571D01*
X146759523Y-154173809D01*
X146759523Y-154411904D01*
X146711904Y-154507142D01*
X146664285Y-154554761D01*
X146569047Y-154602380D01*
X146283333Y-154602380D01*
X146188095Y-154554761D01*
X146140476Y-154507142D01*
%TO.C,D1*%
X31811904Y-55902380D02*
X31811904Y-54902380D01*
X32050000Y-54902380D01*
X32192857Y-54950000D01*
X32288095Y-55045238D01*
X32335714Y-55140476D01*
X32383333Y-55330952D01*
X32383333Y-55473809D01*
X32335714Y-55664285D01*
X32288095Y-55759523D01*
X32192857Y-55854761D01*
X32050000Y-55902380D01*
X31811904Y-55902380D01*
X33335714Y-55902380D02*
X32764285Y-55902380D01*
X33050000Y-55902380D02*
X33050000Y-54902380D01*
X32954761Y-55045238D01*
X32859523Y-55140476D01*
X32764285Y-55188095D01*
%TO.C,D5*%
X56811904Y-55902380D02*
X56811904Y-54902380D01*
X57050000Y-54902380D01*
X57192857Y-54950000D01*
X57288095Y-55045238D01*
X57335714Y-55140476D01*
X57383333Y-55330952D01*
X57383333Y-55473809D01*
X57335714Y-55664285D01*
X57288095Y-55759523D01*
X57192857Y-55854761D01*
X57050000Y-55902380D01*
X56811904Y-55902380D01*
X58288095Y-54902380D02*
X57811904Y-54902380D01*
X57764285Y-55378571D01*
X57811904Y-55330952D01*
X57907142Y-55283333D01*
X58145238Y-55283333D01*
X58240476Y-55330952D01*
X58288095Y-55378571D01*
X58335714Y-55473809D01*
X58335714Y-55711904D01*
X58288095Y-55807142D01*
X58240476Y-55854761D01*
X58145238Y-55902380D01*
X57907142Y-55902380D01*
X57811904Y-55854761D01*
X57764285Y-55807142D01*
%TO.C,D9*%
X76811904Y-55902380D02*
X76811904Y-54902380D01*
X77050000Y-54902380D01*
X77192857Y-54950000D01*
X77288095Y-55045238D01*
X77335714Y-55140476D01*
X77383333Y-55330952D01*
X77383333Y-55473809D01*
X77335714Y-55664285D01*
X77288095Y-55759523D01*
X77192857Y-55854761D01*
X77050000Y-55902380D01*
X76811904Y-55902380D01*
X77859523Y-55902380D02*
X78050000Y-55902380D01*
X78145238Y-55854761D01*
X78192857Y-55807142D01*
X78288095Y-55664285D01*
X78335714Y-55473809D01*
X78335714Y-55092857D01*
X78288095Y-54997619D01*
X78240476Y-54950000D01*
X78145238Y-54902380D01*
X77954761Y-54902380D01*
X77859523Y-54950000D01*
X77811904Y-54997619D01*
X77764285Y-55092857D01*
X77764285Y-55330952D01*
X77811904Y-55426190D01*
X77859523Y-55473809D01*
X77954761Y-55521428D01*
X78145238Y-55521428D01*
X78240476Y-55473809D01*
X78288095Y-55426190D01*
X78335714Y-55330952D01*
%TO.C,D13*%
X96335714Y-55902380D02*
X96335714Y-54902380D01*
X96573809Y-54902380D01*
X96716666Y-54950000D01*
X96811904Y-55045238D01*
X96859523Y-55140476D01*
X96907142Y-55330952D01*
X96907142Y-55473809D01*
X96859523Y-55664285D01*
X96811904Y-55759523D01*
X96716666Y-55854761D01*
X96573809Y-55902380D01*
X96335714Y-55902380D01*
X97859523Y-55902380D02*
X97288095Y-55902380D01*
X97573809Y-55902380D02*
X97573809Y-54902380D01*
X97478571Y-55045238D01*
X97383333Y-55140476D01*
X97288095Y-55188095D01*
X98192857Y-54902380D02*
X98811904Y-54902380D01*
X98478571Y-55283333D01*
X98621428Y-55283333D01*
X98716666Y-55330952D01*
X98764285Y-55378571D01*
X98811904Y-55473809D01*
X98811904Y-55711904D01*
X98764285Y-55807142D01*
X98716666Y-55854761D01*
X98621428Y-55902380D01*
X98335714Y-55902380D01*
X98240476Y-55854761D01*
X98192857Y-55807142D01*
%TO.C,D17*%
X121335714Y-55902380D02*
X121335714Y-54902380D01*
X121573809Y-54902380D01*
X121716666Y-54950000D01*
X121811904Y-55045238D01*
X121859523Y-55140476D01*
X121907142Y-55330952D01*
X121907142Y-55473809D01*
X121859523Y-55664285D01*
X121811904Y-55759523D01*
X121716666Y-55854761D01*
X121573809Y-55902380D01*
X121335714Y-55902380D01*
X122859523Y-55902380D02*
X122288095Y-55902380D01*
X122573809Y-55902380D02*
X122573809Y-54902380D01*
X122478571Y-55045238D01*
X122383333Y-55140476D01*
X122288095Y-55188095D01*
X123192857Y-54902380D02*
X123859523Y-54902380D01*
X123430952Y-55902380D01*
%TO.C,R9*%
X132633333Y-28652380D02*
X132300000Y-28176190D01*
X132061904Y-28652380D02*
X132061904Y-27652380D01*
X132442857Y-27652380D01*
X132538095Y-27700000D01*
X132585714Y-27747619D01*
X132633333Y-27842857D01*
X132633333Y-27985714D01*
X132585714Y-28080952D01*
X132538095Y-28128571D01*
X132442857Y-28176190D01*
X132061904Y-28176190D01*
X133109523Y-28652380D02*
X133300000Y-28652380D01*
X133395238Y-28604761D01*
X133442857Y-28557142D01*
X133538095Y-28414285D01*
X133585714Y-28223809D01*
X133585714Y-27842857D01*
X133538095Y-27747619D01*
X133490476Y-27700000D01*
X133395238Y-27652380D01*
X133204761Y-27652380D01*
X133109523Y-27700000D01*
X133061904Y-27747619D01*
X133014285Y-27842857D01*
X133014285Y-28080952D01*
X133061904Y-28176190D01*
X133109523Y-28223809D01*
X133204761Y-28271428D01*
X133395238Y-28271428D01*
X133490476Y-28223809D01*
X133538095Y-28176190D01*
X133585714Y-28080952D01*
%TO.C,SW1*%
X41176666Y-52560761D02*
X41319523Y-52608380D01*
X41557619Y-52608380D01*
X41652857Y-52560761D01*
X41700476Y-52513142D01*
X41748095Y-52417904D01*
X41748095Y-52322666D01*
X41700476Y-52227428D01*
X41652857Y-52179809D01*
X41557619Y-52132190D01*
X41367142Y-52084571D01*
X41271904Y-52036952D01*
X41224285Y-51989333D01*
X41176666Y-51894095D01*
X41176666Y-51798857D01*
X41224285Y-51703619D01*
X41271904Y-51656000D01*
X41367142Y-51608380D01*
X41605238Y-51608380D01*
X41748095Y-51656000D01*
X42081428Y-51608380D02*
X42319523Y-52608380D01*
X42510000Y-51894095D01*
X42700476Y-52608380D01*
X42938571Y-51608380D01*
X43843333Y-52608380D02*
X43271904Y-52608380D01*
X43557619Y-52608380D02*
X43557619Y-51608380D01*
X43462380Y-51751238D01*
X43367142Y-51846476D01*
X43271904Y-51894095D01*
%TO.C,SW5*%
X66176666Y-52560761D02*
X66319523Y-52608380D01*
X66557619Y-52608380D01*
X66652857Y-52560761D01*
X66700476Y-52513142D01*
X66748095Y-52417904D01*
X66748095Y-52322666D01*
X66700476Y-52227428D01*
X66652857Y-52179809D01*
X66557619Y-52132190D01*
X66367142Y-52084571D01*
X66271904Y-52036952D01*
X66224285Y-51989333D01*
X66176666Y-51894095D01*
X66176666Y-51798857D01*
X66224285Y-51703619D01*
X66271904Y-51656000D01*
X66367142Y-51608380D01*
X66605238Y-51608380D01*
X66748095Y-51656000D01*
X67081428Y-51608380D02*
X67319523Y-52608380D01*
X67510000Y-51894095D01*
X67700476Y-52608380D01*
X67938571Y-51608380D01*
X68795714Y-51608380D02*
X68319523Y-51608380D01*
X68271904Y-52084571D01*
X68319523Y-52036952D01*
X68414761Y-51989333D01*
X68652857Y-51989333D01*
X68748095Y-52036952D01*
X68795714Y-52084571D01*
X68843333Y-52179809D01*
X68843333Y-52417904D01*
X68795714Y-52513142D01*
X68748095Y-52560761D01*
X68652857Y-52608380D01*
X68414761Y-52608380D01*
X68319523Y-52560761D01*
X68271904Y-52513142D01*
%TO.C,SW9*%
X86176666Y-52560761D02*
X86319523Y-52608380D01*
X86557619Y-52608380D01*
X86652857Y-52560761D01*
X86700476Y-52513142D01*
X86748095Y-52417904D01*
X86748095Y-52322666D01*
X86700476Y-52227428D01*
X86652857Y-52179809D01*
X86557619Y-52132190D01*
X86367142Y-52084571D01*
X86271904Y-52036952D01*
X86224285Y-51989333D01*
X86176666Y-51894095D01*
X86176666Y-51798857D01*
X86224285Y-51703619D01*
X86271904Y-51656000D01*
X86367142Y-51608380D01*
X86605238Y-51608380D01*
X86748095Y-51656000D01*
X87081428Y-51608380D02*
X87319523Y-52608380D01*
X87510000Y-51894095D01*
X87700476Y-52608380D01*
X87938571Y-51608380D01*
X88367142Y-52608380D02*
X88557619Y-52608380D01*
X88652857Y-52560761D01*
X88700476Y-52513142D01*
X88795714Y-52370285D01*
X88843333Y-52179809D01*
X88843333Y-51798857D01*
X88795714Y-51703619D01*
X88748095Y-51656000D01*
X88652857Y-51608380D01*
X88462380Y-51608380D01*
X88367142Y-51656000D01*
X88319523Y-51703619D01*
X88271904Y-51798857D01*
X88271904Y-52036952D01*
X88319523Y-52132190D01*
X88367142Y-52179809D01*
X88462380Y-52227428D01*
X88652857Y-52227428D01*
X88748095Y-52179809D01*
X88795714Y-52132190D01*
X88843333Y-52036952D01*
%TO.C,SW11*%
X85700476Y-97560761D02*
X85843333Y-97608380D01*
X86081428Y-97608380D01*
X86176666Y-97560761D01*
X86224285Y-97513142D01*
X86271904Y-97417904D01*
X86271904Y-97322666D01*
X86224285Y-97227428D01*
X86176666Y-97179809D01*
X86081428Y-97132190D01*
X85890952Y-97084571D01*
X85795714Y-97036952D01*
X85748095Y-96989333D01*
X85700476Y-96894095D01*
X85700476Y-96798857D01*
X85748095Y-96703619D01*
X85795714Y-96656000D01*
X85890952Y-96608380D01*
X86129047Y-96608380D01*
X86271904Y-96656000D01*
X86605238Y-96608380D02*
X86843333Y-97608380D01*
X87033809Y-96894095D01*
X87224285Y-97608380D01*
X87462380Y-96608380D01*
X88367142Y-97608380D02*
X87795714Y-97608380D01*
X88081428Y-97608380D02*
X88081428Y-96608380D01*
X87986190Y-96751238D01*
X87890952Y-96846476D01*
X87795714Y-96894095D01*
X89319523Y-97608380D02*
X88748095Y-97608380D01*
X89033809Y-97608380D02*
X89033809Y-96608380D01*
X88938571Y-96751238D01*
X88843333Y-96846476D01*
X88748095Y-96894095D01*
%TO.C,SW14*%
X105700476Y-52560761D02*
X105843333Y-52608380D01*
X106081428Y-52608380D01*
X106176666Y-52560761D01*
X106224285Y-52513142D01*
X106271904Y-52417904D01*
X106271904Y-52322666D01*
X106224285Y-52227428D01*
X106176666Y-52179809D01*
X106081428Y-52132190D01*
X105890952Y-52084571D01*
X105795714Y-52036952D01*
X105748095Y-51989333D01*
X105700476Y-51894095D01*
X105700476Y-51798857D01*
X105748095Y-51703619D01*
X105795714Y-51656000D01*
X105890952Y-51608380D01*
X106129047Y-51608380D01*
X106271904Y-51656000D01*
X106605238Y-51608380D02*
X106843333Y-52608380D01*
X107033809Y-51894095D01*
X107224285Y-52608380D01*
X107462380Y-51608380D01*
X108367142Y-52608380D02*
X107795714Y-52608380D01*
X108081428Y-52608380D02*
X108081428Y-51608380D01*
X107986190Y-51751238D01*
X107890952Y-51846476D01*
X107795714Y-51894095D01*
X109224285Y-51941714D02*
X109224285Y-52608380D01*
X108986190Y-51560761D02*
X108748095Y-52275047D01*
X109367142Y-52275047D01*
%TO.C,SW18*%
X130700476Y-52560761D02*
X130843333Y-52608380D01*
X131081428Y-52608380D01*
X131176666Y-52560761D01*
X131224285Y-52513142D01*
X131271904Y-52417904D01*
X131271904Y-52322666D01*
X131224285Y-52227428D01*
X131176666Y-52179809D01*
X131081428Y-52132190D01*
X130890952Y-52084571D01*
X130795714Y-52036952D01*
X130748095Y-51989333D01*
X130700476Y-51894095D01*
X130700476Y-51798857D01*
X130748095Y-51703619D01*
X130795714Y-51656000D01*
X130890952Y-51608380D01*
X131129047Y-51608380D01*
X131271904Y-51656000D01*
X131605238Y-51608380D02*
X131843333Y-52608380D01*
X132033809Y-51894095D01*
X132224285Y-52608380D01*
X132462380Y-51608380D01*
X133367142Y-52608380D02*
X132795714Y-52608380D01*
X133081428Y-52608380D02*
X133081428Y-51608380D01*
X132986190Y-51751238D01*
X132890952Y-51846476D01*
X132795714Y-51894095D01*
X133938571Y-52036952D02*
X133843333Y-51989333D01*
X133795714Y-51941714D01*
X133748095Y-51846476D01*
X133748095Y-51798857D01*
X133795714Y-51703619D01*
X133843333Y-51656000D01*
X133938571Y-51608380D01*
X134129047Y-51608380D01*
X134224285Y-51656000D01*
X134271904Y-51703619D01*
X134319523Y-51798857D01*
X134319523Y-51846476D01*
X134271904Y-51941714D01*
X134224285Y-51989333D01*
X134129047Y-52036952D01*
X133938571Y-52036952D01*
X133843333Y-52084571D01*
X133795714Y-52132190D01*
X133748095Y-52227428D01*
X133748095Y-52417904D01*
X133795714Y-52513142D01*
X133843333Y-52560761D01*
X133938571Y-52608380D01*
X134129047Y-52608380D01*
X134224285Y-52560761D01*
X134271904Y-52513142D01*
X134319523Y-52417904D01*
X134319523Y-52227428D01*
X134271904Y-52132190D01*
X134224285Y-52084571D01*
X134129047Y-52036952D01*
%TO.C,R10*%
X28252380Y-48592857D02*
X27776190Y-48926190D01*
X28252380Y-49164285D02*
X27252380Y-49164285D01*
X27252380Y-48783333D01*
X27300000Y-48688095D01*
X27347619Y-48640476D01*
X27442857Y-48592857D01*
X27585714Y-48592857D01*
X27680952Y-48640476D01*
X27728571Y-48688095D01*
X27776190Y-48783333D01*
X27776190Y-49164285D01*
X28252380Y-47640476D02*
X28252380Y-48211904D01*
X28252380Y-47926190D02*
X27252380Y-47926190D01*
X27395238Y-48021428D01*
X27490476Y-48116666D01*
X27538095Y-48211904D01*
X27252380Y-47021428D02*
X27252380Y-46926190D01*
X27300000Y-46830952D01*
X27347619Y-46783333D01*
X27442857Y-46735714D01*
X27633333Y-46688095D01*
X27871428Y-46688095D01*
X28061904Y-46735714D01*
X28157142Y-46783333D01*
X28204761Y-46830952D01*
X28252380Y-46926190D01*
X28252380Y-47021428D01*
X28204761Y-47116666D01*
X28157142Y-47164285D01*
X28061904Y-47211904D01*
X27871428Y-47259523D01*
X27633333Y-47259523D01*
X27442857Y-47211904D01*
X27347619Y-47164285D01*
X27300000Y-47116666D01*
X27252380Y-47021428D01*
%TO.C,R11*%
X53252380Y-48842857D02*
X52776190Y-49176190D01*
X53252380Y-49414285D02*
X52252380Y-49414285D01*
X52252380Y-49033333D01*
X52300000Y-48938095D01*
X52347619Y-48890476D01*
X52442857Y-48842857D01*
X52585714Y-48842857D01*
X52680952Y-48890476D01*
X52728571Y-48938095D01*
X52776190Y-49033333D01*
X52776190Y-49414285D01*
X53252380Y-47890476D02*
X53252380Y-48461904D01*
X53252380Y-48176190D02*
X52252380Y-48176190D01*
X52395238Y-48271428D01*
X52490476Y-48366666D01*
X52538095Y-48461904D01*
X53252380Y-46938095D02*
X53252380Y-47509523D01*
X53252380Y-47223809D02*
X52252380Y-47223809D01*
X52395238Y-47319047D01*
X52490476Y-47414285D01*
X52538095Y-47509523D01*
%TO.C,R12*%
X67252380Y-48842857D02*
X66776190Y-49176190D01*
X67252380Y-49414285D02*
X66252380Y-49414285D01*
X66252380Y-49033333D01*
X66300000Y-48938095D01*
X66347619Y-48890476D01*
X66442857Y-48842857D01*
X66585714Y-48842857D01*
X66680952Y-48890476D01*
X66728571Y-48938095D01*
X66776190Y-49033333D01*
X66776190Y-49414285D01*
X67252380Y-47890476D02*
X67252380Y-48461904D01*
X67252380Y-48176190D02*
X66252380Y-48176190D01*
X66395238Y-48271428D01*
X66490476Y-48366666D01*
X66538095Y-48461904D01*
X66347619Y-47509523D02*
X66300000Y-47461904D01*
X66252380Y-47366666D01*
X66252380Y-47128571D01*
X66300000Y-47033333D01*
X66347619Y-46985714D01*
X66442857Y-46938095D01*
X66538095Y-46938095D01*
X66680952Y-46985714D01*
X67252380Y-47557142D01*
X67252380Y-46938095D01*
%TO.C,R13*%
X70252380Y-48592857D02*
X69776190Y-48926190D01*
X70252380Y-49164285D02*
X69252380Y-49164285D01*
X69252380Y-48783333D01*
X69300000Y-48688095D01*
X69347619Y-48640476D01*
X69442857Y-48592857D01*
X69585714Y-48592857D01*
X69680952Y-48640476D01*
X69728571Y-48688095D01*
X69776190Y-48783333D01*
X69776190Y-49164285D01*
X70252380Y-47640476D02*
X70252380Y-48211904D01*
X70252380Y-47926190D02*
X69252380Y-47926190D01*
X69395238Y-48021428D01*
X69490476Y-48116666D01*
X69538095Y-48211904D01*
X69252380Y-47307142D02*
X69252380Y-46688095D01*
X69633333Y-47021428D01*
X69633333Y-46878571D01*
X69680952Y-46783333D01*
X69728571Y-46735714D01*
X69823809Y-46688095D01*
X70061904Y-46688095D01*
X70157142Y-46735714D01*
X70204761Y-46783333D01*
X70252380Y-46878571D01*
X70252380Y-47164285D01*
X70204761Y-47259523D01*
X70157142Y-47307142D01*
%TO.C,R14*%
X114657142Y-50152380D02*
X114323809Y-49676190D01*
X114085714Y-50152380D02*
X114085714Y-49152380D01*
X114466666Y-49152380D01*
X114561904Y-49200000D01*
X114609523Y-49247619D01*
X114657142Y-49342857D01*
X114657142Y-49485714D01*
X114609523Y-49580952D01*
X114561904Y-49628571D01*
X114466666Y-49676190D01*
X114085714Y-49676190D01*
X115609523Y-50152380D02*
X115038095Y-50152380D01*
X115323809Y-50152380D02*
X115323809Y-49152380D01*
X115228571Y-49295238D01*
X115133333Y-49390476D01*
X115038095Y-49438095D01*
X116466666Y-49485714D02*
X116466666Y-50152380D01*
X116228571Y-49104761D02*
X115990476Y-49819047D01*
X116609523Y-49819047D01*
%TO.C,R15*%
X141157142Y-36552380D02*
X140823809Y-36076190D01*
X140585714Y-36552380D02*
X140585714Y-35552380D01*
X140966666Y-35552380D01*
X141061904Y-35600000D01*
X141109523Y-35647619D01*
X141157142Y-35742857D01*
X141157142Y-35885714D01*
X141109523Y-35980952D01*
X141061904Y-36028571D01*
X140966666Y-36076190D01*
X140585714Y-36076190D01*
X142109523Y-36552380D02*
X141538095Y-36552380D01*
X141823809Y-36552380D02*
X141823809Y-35552380D01*
X141728571Y-35695238D01*
X141633333Y-35790476D01*
X141538095Y-35838095D01*
X143014285Y-35552380D02*
X142538095Y-35552380D01*
X142490476Y-36028571D01*
X142538095Y-35980952D01*
X142633333Y-35933333D01*
X142871428Y-35933333D01*
X142966666Y-35980952D01*
X143014285Y-36028571D01*
X143061904Y-36123809D01*
X143061904Y-36361904D01*
X143014285Y-36457142D01*
X142966666Y-36504761D01*
X142871428Y-36552380D01*
X142633333Y-36552380D01*
X142538095Y-36504761D01*
X142490476Y-36457142D01*
%TO.C,R16*%
X141157142Y-34652380D02*
X140823809Y-34176190D01*
X140585714Y-34652380D02*
X140585714Y-33652380D01*
X140966666Y-33652380D01*
X141061904Y-33700000D01*
X141109523Y-33747619D01*
X141157142Y-33842857D01*
X141157142Y-33985714D01*
X141109523Y-34080952D01*
X141061904Y-34128571D01*
X140966666Y-34176190D01*
X140585714Y-34176190D01*
X142109523Y-34652380D02*
X141538095Y-34652380D01*
X141823809Y-34652380D02*
X141823809Y-33652380D01*
X141728571Y-33795238D01*
X141633333Y-33890476D01*
X141538095Y-33938095D01*
X142966666Y-33652380D02*
X142776190Y-33652380D01*
X142680952Y-33700000D01*
X142633333Y-33747619D01*
X142538095Y-33890476D01*
X142490476Y-34080952D01*
X142490476Y-34461904D01*
X142538095Y-34557142D01*
X142585714Y-34604761D01*
X142680952Y-34652380D01*
X142871428Y-34652380D01*
X142966666Y-34604761D01*
X143014285Y-34557142D01*
X143061904Y-34461904D01*
X143061904Y-34223809D01*
X143014285Y-34128571D01*
X142966666Y-34080952D01*
X142871428Y-34033333D01*
X142680952Y-34033333D01*
X142585714Y-34080952D01*
X142538095Y-34128571D01*
X142490476Y-34223809D01*
%TO.C,R17*%
X141232142Y-32652380D02*
X140898809Y-32176190D01*
X140660714Y-32652380D02*
X140660714Y-31652380D01*
X141041666Y-31652380D01*
X141136904Y-31700000D01*
X141184523Y-31747619D01*
X141232142Y-31842857D01*
X141232142Y-31985714D01*
X141184523Y-32080952D01*
X141136904Y-32128571D01*
X141041666Y-32176190D01*
X140660714Y-32176190D01*
X142184523Y-32652380D02*
X141613095Y-32652380D01*
X141898809Y-32652380D02*
X141898809Y-31652380D01*
X141803571Y-31795238D01*
X141708333Y-31890476D01*
X141613095Y-31938095D01*
X142517857Y-31652380D02*
X143184523Y-31652380D01*
X142755952Y-32652380D01*
%TO.C,R18*%
X141157142Y-38652380D02*
X140823809Y-38176190D01*
X140585714Y-38652380D02*
X140585714Y-37652380D01*
X140966666Y-37652380D01*
X141061904Y-37700000D01*
X141109523Y-37747619D01*
X141157142Y-37842857D01*
X141157142Y-37985714D01*
X141109523Y-38080952D01*
X141061904Y-38128571D01*
X140966666Y-38176190D01*
X140585714Y-38176190D01*
X142109523Y-38652380D02*
X141538095Y-38652380D01*
X141823809Y-38652380D02*
X141823809Y-37652380D01*
X141728571Y-37795238D01*
X141633333Y-37890476D01*
X141538095Y-37938095D01*
X142680952Y-38080952D02*
X142585714Y-38033333D01*
X142538095Y-37985714D01*
X142490476Y-37890476D01*
X142490476Y-37842857D01*
X142538095Y-37747619D01*
X142585714Y-37700000D01*
X142680952Y-37652380D01*
X142871428Y-37652380D01*
X142966666Y-37700000D01*
X143014285Y-37747619D01*
X143061904Y-37842857D01*
X143061904Y-37890476D01*
X143014285Y-37985714D01*
X142966666Y-38033333D01*
X142871428Y-38080952D01*
X142680952Y-38080952D01*
X142585714Y-38128571D01*
X142538095Y-38176190D01*
X142490476Y-38271428D01*
X142490476Y-38461904D01*
X142538095Y-38557142D01*
X142585714Y-38604761D01*
X142680952Y-38652380D01*
X142871428Y-38652380D01*
X142966666Y-38604761D01*
X143014285Y-38557142D01*
X143061904Y-38461904D01*
X143061904Y-38271428D01*
X143014285Y-38176190D01*
X142966666Y-38128571D01*
X142871428Y-38080952D01*
%TO.C,R19*%
X141657142Y-30652380D02*
X141323809Y-30176190D01*
X141085714Y-30652380D02*
X141085714Y-29652380D01*
X141466666Y-29652380D01*
X141561904Y-29700000D01*
X141609523Y-29747619D01*
X141657142Y-29842857D01*
X141657142Y-29985714D01*
X141609523Y-30080952D01*
X141561904Y-30128571D01*
X141466666Y-30176190D01*
X141085714Y-30176190D01*
X142609523Y-30652380D02*
X142038095Y-30652380D01*
X142323809Y-30652380D02*
X142323809Y-29652380D01*
X142228571Y-29795238D01*
X142133333Y-29890476D01*
X142038095Y-29938095D01*
X143085714Y-30652380D02*
X143276190Y-30652380D01*
X143371428Y-30604761D01*
X143419047Y-30557142D01*
X143514285Y-30414285D01*
X143561904Y-30223809D01*
X143561904Y-29842857D01*
X143514285Y-29747619D01*
X143466666Y-29700000D01*
X143371428Y-29652380D01*
X143180952Y-29652380D01*
X143085714Y-29700000D01*
X143038095Y-29747619D01*
X142990476Y-29842857D01*
X142990476Y-30080952D01*
X143038095Y-30176190D01*
X143085714Y-30223809D01*
X143180952Y-30271428D01*
X143371428Y-30271428D01*
X143466666Y-30223809D01*
X143514285Y-30176190D01*
X143561904Y-30080952D01*
%TO.C,R1*%
X112358333Y-50132380D02*
X112025000Y-49656190D01*
X111786904Y-50132380D02*
X111786904Y-49132380D01*
X112167857Y-49132380D01*
X112263095Y-49180000D01*
X112310714Y-49227619D01*
X112358333Y-49322857D01*
X112358333Y-49465714D01*
X112310714Y-49560952D01*
X112263095Y-49608571D01*
X112167857Y-49656190D01*
X111786904Y-49656190D01*
X113310714Y-50132380D02*
X112739285Y-50132380D01*
X113025000Y-50132380D02*
X113025000Y-49132380D01*
X112929761Y-49275238D01*
X112834523Y-49370476D01*
X112739285Y-49418095D01*
%TO.C,R2*%
X70252380Y-44866666D02*
X69776190Y-45200000D01*
X70252380Y-45438095D02*
X69252380Y-45438095D01*
X69252380Y-45057142D01*
X69300000Y-44961904D01*
X69347619Y-44914285D01*
X69442857Y-44866666D01*
X69585714Y-44866666D01*
X69680952Y-44914285D01*
X69728571Y-44961904D01*
X69776190Y-45057142D01*
X69776190Y-45438095D01*
X69347619Y-44485714D02*
X69300000Y-44438095D01*
X69252380Y-44342857D01*
X69252380Y-44104761D01*
X69300000Y-44009523D01*
X69347619Y-43961904D01*
X69442857Y-43914285D01*
X69538095Y-43914285D01*
X69680952Y-43961904D01*
X70252380Y-44533333D01*
X70252380Y-43914285D01*
%TO.C,R3*%
X67252380Y-44866666D02*
X66776190Y-45200000D01*
X67252380Y-45438095D02*
X66252380Y-45438095D01*
X66252380Y-45057142D01*
X66300000Y-44961904D01*
X66347619Y-44914285D01*
X66442857Y-44866666D01*
X66585714Y-44866666D01*
X66680952Y-44914285D01*
X66728571Y-44961904D01*
X66776190Y-45057142D01*
X66776190Y-45438095D01*
X66252380Y-44533333D02*
X66252380Y-43914285D01*
X66633333Y-44247619D01*
X66633333Y-44104761D01*
X66680952Y-44009523D01*
X66728571Y-43961904D01*
X66823809Y-43914285D01*
X67061904Y-43914285D01*
X67157142Y-43961904D01*
X67204761Y-44009523D01*
X67252380Y-44104761D01*
X67252380Y-44390476D01*
X67204761Y-44485714D01*
X67157142Y-44533333D01*
%TO.C,R4*%
X53252380Y-45366666D02*
X52776190Y-45700000D01*
X53252380Y-45938095D02*
X52252380Y-45938095D01*
X52252380Y-45557142D01*
X52300000Y-45461904D01*
X52347619Y-45414285D01*
X52442857Y-45366666D01*
X52585714Y-45366666D01*
X52680952Y-45414285D01*
X52728571Y-45461904D01*
X52776190Y-45557142D01*
X52776190Y-45938095D01*
X52585714Y-44509523D02*
X53252380Y-44509523D01*
X52204761Y-44747619D02*
X52919047Y-44985714D01*
X52919047Y-44366666D01*
%TO.C,R5*%
X28252380Y-45116666D02*
X27776190Y-45450000D01*
X28252380Y-45688095D02*
X27252380Y-45688095D01*
X27252380Y-45307142D01*
X27300000Y-45211904D01*
X27347619Y-45164285D01*
X27442857Y-45116666D01*
X27585714Y-45116666D01*
X27680952Y-45164285D01*
X27728571Y-45211904D01*
X27776190Y-45307142D01*
X27776190Y-45688095D01*
X27252380Y-44211904D02*
X27252380Y-44688095D01*
X27728571Y-44735714D01*
X27680952Y-44688095D01*
X27633333Y-44592857D01*
X27633333Y-44354761D01*
X27680952Y-44259523D01*
X27728571Y-44211904D01*
X27823809Y-44164285D01*
X28061904Y-44164285D01*
X28157142Y-44211904D01*
X28204761Y-44259523D01*
X28252380Y-44354761D01*
X28252380Y-44592857D01*
X28204761Y-44688095D01*
X28157142Y-44735714D01*
%TO.C,R6*%
X132733333Y-38652380D02*
X132400000Y-38176190D01*
X132161904Y-38652380D02*
X132161904Y-37652380D01*
X132542857Y-37652380D01*
X132638095Y-37700000D01*
X132685714Y-37747619D01*
X132733333Y-37842857D01*
X132733333Y-37985714D01*
X132685714Y-38080952D01*
X132638095Y-38128571D01*
X132542857Y-38176190D01*
X132161904Y-38176190D01*
X133590476Y-37652380D02*
X133400000Y-37652380D01*
X133304761Y-37700000D01*
X133257142Y-37747619D01*
X133161904Y-37890476D01*
X133114285Y-38080952D01*
X133114285Y-38461904D01*
X133161904Y-38557142D01*
X133209523Y-38604761D01*
X133304761Y-38652380D01*
X133495238Y-38652380D01*
X133590476Y-38604761D01*
X133638095Y-38557142D01*
X133685714Y-38461904D01*
X133685714Y-38223809D01*
X133638095Y-38128571D01*
X133590476Y-38080952D01*
X133495238Y-38033333D01*
X133304761Y-38033333D01*
X133209523Y-38080952D01*
X133161904Y-38128571D01*
X133114285Y-38223809D01*
%TO.C,R7*%
X132808333Y-36552380D02*
X132475000Y-36076190D01*
X132236904Y-36552380D02*
X132236904Y-35552380D01*
X132617857Y-35552380D01*
X132713095Y-35600000D01*
X132760714Y-35647619D01*
X132808333Y-35742857D01*
X132808333Y-35885714D01*
X132760714Y-35980952D01*
X132713095Y-36028571D01*
X132617857Y-36076190D01*
X132236904Y-36076190D01*
X133141666Y-35552380D02*
X133808333Y-35552380D01*
X133379761Y-36552380D01*
%TO.C,R20*%
X132757142Y-34552380D02*
X132423809Y-34076190D01*
X132185714Y-34552380D02*
X132185714Y-33552380D01*
X132566666Y-33552380D01*
X132661904Y-33600000D01*
X132709523Y-33647619D01*
X132757142Y-33742857D01*
X132757142Y-33885714D01*
X132709523Y-33980952D01*
X132661904Y-34028571D01*
X132566666Y-34076190D01*
X132185714Y-34076190D01*
X133138095Y-33647619D02*
X133185714Y-33600000D01*
X133280952Y-33552380D01*
X133519047Y-33552380D01*
X133614285Y-33600000D01*
X133661904Y-33647619D01*
X133709523Y-33742857D01*
X133709523Y-33838095D01*
X133661904Y-33980952D01*
X133090476Y-34552380D01*
X133709523Y-34552380D01*
X134328571Y-33552380D02*
X134423809Y-33552380D01*
X134519047Y-33600000D01*
X134566666Y-33647619D01*
X134614285Y-33742857D01*
X134661904Y-33933333D01*
X134661904Y-34171428D01*
X134614285Y-34361904D01*
X134566666Y-34457142D01*
X134519047Y-34504761D01*
X134423809Y-34552380D01*
X134328571Y-34552380D01*
X134233333Y-34504761D01*
X134185714Y-34457142D01*
X134138095Y-34361904D01*
X134090476Y-34171428D01*
X134090476Y-33933333D01*
X134138095Y-33742857D01*
X134185714Y-33647619D01*
X134233333Y-33600000D01*
X134328571Y-33552380D01*
%TO.C,R21*%
X132657142Y-32652380D02*
X132323809Y-32176190D01*
X132085714Y-32652380D02*
X132085714Y-31652380D01*
X132466666Y-31652380D01*
X132561904Y-31700000D01*
X132609523Y-31747619D01*
X132657142Y-31842857D01*
X132657142Y-31985714D01*
X132609523Y-32080952D01*
X132561904Y-32128571D01*
X132466666Y-32176190D01*
X132085714Y-32176190D01*
X133038095Y-31747619D02*
X133085714Y-31700000D01*
X133180952Y-31652380D01*
X133419047Y-31652380D01*
X133514285Y-31700000D01*
X133561904Y-31747619D01*
X133609523Y-31842857D01*
X133609523Y-31938095D01*
X133561904Y-32080952D01*
X132990476Y-32652380D01*
X133609523Y-32652380D01*
X134561904Y-32652380D02*
X133990476Y-32652380D01*
X134276190Y-32652380D02*
X134276190Y-31652380D01*
X134180952Y-31795238D01*
X134085714Y-31890476D01*
X133990476Y-31938095D01*
%TO.C,R24*%
X62432142Y-35352380D02*
X62098809Y-34876190D01*
X61860714Y-35352380D02*
X61860714Y-34352380D01*
X62241666Y-34352380D01*
X62336904Y-34400000D01*
X62384523Y-34447619D01*
X62432142Y-34542857D01*
X62432142Y-34685714D01*
X62384523Y-34780952D01*
X62336904Y-34828571D01*
X62241666Y-34876190D01*
X61860714Y-34876190D01*
X62813095Y-34447619D02*
X62860714Y-34400000D01*
X62955952Y-34352380D01*
X63194047Y-34352380D01*
X63289285Y-34400000D01*
X63336904Y-34447619D01*
X63384523Y-34542857D01*
X63384523Y-34638095D01*
X63336904Y-34780952D01*
X62765476Y-35352380D01*
X63384523Y-35352380D01*
X64241666Y-34685714D02*
X64241666Y-35352380D01*
X64003571Y-34304761D02*
X63765476Y-35019047D01*
X64384523Y-35019047D01*
%TO.C,R25*%
X77252380Y-45667857D02*
X76776190Y-46001190D01*
X77252380Y-46239285D02*
X76252380Y-46239285D01*
X76252380Y-45858333D01*
X76300000Y-45763095D01*
X76347619Y-45715476D01*
X76442857Y-45667857D01*
X76585714Y-45667857D01*
X76680952Y-45715476D01*
X76728571Y-45763095D01*
X76776190Y-45858333D01*
X76776190Y-46239285D01*
X76347619Y-45286904D02*
X76300000Y-45239285D01*
X76252380Y-45144047D01*
X76252380Y-44905952D01*
X76300000Y-44810714D01*
X76347619Y-44763095D01*
X76442857Y-44715476D01*
X76538095Y-44715476D01*
X76680952Y-44763095D01*
X77252380Y-45334523D01*
X77252380Y-44715476D01*
X76252380Y-43810714D02*
X76252380Y-44286904D01*
X76728571Y-44334523D01*
X76680952Y-44286904D01*
X76633333Y-44191666D01*
X76633333Y-43953571D01*
X76680952Y-43858333D01*
X76728571Y-43810714D01*
X76823809Y-43763095D01*
X77061904Y-43763095D01*
X77157142Y-43810714D01*
X77204761Y-43858333D01*
X77252380Y-43953571D01*
X77252380Y-44191666D01*
X77204761Y-44286904D01*
X77157142Y-44334523D01*
%TO.C,R26*%
X132782142Y-46652380D02*
X132448809Y-46176190D01*
X132210714Y-46652380D02*
X132210714Y-45652380D01*
X132591666Y-45652380D01*
X132686904Y-45700000D01*
X132734523Y-45747619D01*
X132782142Y-45842857D01*
X132782142Y-45985714D01*
X132734523Y-46080952D01*
X132686904Y-46128571D01*
X132591666Y-46176190D01*
X132210714Y-46176190D01*
X133163095Y-45747619D02*
X133210714Y-45700000D01*
X133305952Y-45652380D01*
X133544047Y-45652380D01*
X133639285Y-45700000D01*
X133686904Y-45747619D01*
X133734523Y-45842857D01*
X133734523Y-45938095D01*
X133686904Y-46080952D01*
X133115476Y-46652380D01*
X133734523Y-46652380D01*
X134591666Y-45652380D02*
X134401190Y-45652380D01*
X134305952Y-45700000D01*
X134258333Y-45747619D01*
X134163095Y-45890476D01*
X134115476Y-46080952D01*
X134115476Y-46461904D01*
X134163095Y-46557142D01*
X134210714Y-46604761D01*
X134305952Y-46652380D01*
X134496428Y-46652380D01*
X134591666Y-46604761D01*
X134639285Y-46557142D01*
X134686904Y-46461904D01*
X134686904Y-46223809D01*
X134639285Y-46128571D01*
X134591666Y-46080952D01*
X134496428Y-46033333D01*
X134305952Y-46033333D01*
X134210714Y-46080952D01*
X134163095Y-46128571D01*
X134115476Y-46223809D01*
%TO.C,R28*%
X132757142Y-42652380D02*
X132423809Y-42176190D01*
X132185714Y-42652380D02*
X132185714Y-41652380D01*
X132566666Y-41652380D01*
X132661904Y-41700000D01*
X132709523Y-41747619D01*
X132757142Y-41842857D01*
X132757142Y-41985714D01*
X132709523Y-42080952D01*
X132661904Y-42128571D01*
X132566666Y-42176190D01*
X132185714Y-42176190D01*
X133138095Y-41747619D02*
X133185714Y-41700000D01*
X133280952Y-41652380D01*
X133519047Y-41652380D01*
X133614285Y-41700000D01*
X133661904Y-41747619D01*
X133709523Y-41842857D01*
X133709523Y-41938095D01*
X133661904Y-42080952D01*
X133090476Y-42652380D01*
X133709523Y-42652380D01*
X134280952Y-42080952D02*
X134185714Y-42033333D01*
X134138095Y-41985714D01*
X134090476Y-41890476D01*
X134090476Y-41842857D01*
X134138095Y-41747619D01*
X134185714Y-41700000D01*
X134280952Y-41652380D01*
X134471428Y-41652380D01*
X134566666Y-41700000D01*
X134614285Y-41747619D01*
X134661904Y-41842857D01*
X134661904Y-41890476D01*
X134614285Y-41985714D01*
X134566666Y-42033333D01*
X134471428Y-42080952D01*
X134280952Y-42080952D01*
X134185714Y-42128571D01*
X134138095Y-42176190D01*
X134090476Y-42271428D01*
X134090476Y-42461904D01*
X134138095Y-42557142D01*
X134185714Y-42604761D01*
X134280952Y-42652380D01*
X134471428Y-42652380D01*
X134566666Y-42604761D01*
X134614285Y-42557142D01*
X134661904Y-42461904D01*
X134661904Y-42271428D01*
X134614285Y-42176190D01*
X134566666Y-42128571D01*
X134471428Y-42080952D01*
%TO.C,R29*%
X132857142Y-40652380D02*
X132523809Y-40176190D01*
X132285714Y-40652380D02*
X132285714Y-39652380D01*
X132666666Y-39652380D01*
X132761904Y-39700000D01*
X132809523Y-39747619D01*
X132857142Y-39842857D01*
X132857142Y-39985714D01*
X132809523Y-40080952D01*
X132761904Y-40128571D01*
X132666666Y-40176190D01*
X132285714Y-40176190D01*
X133238095Y-39747619D02*
X133285714Y-39700000D01*
X133380952Y-39652380D01*
X133619047Y-39652380D01*
X133714285Y-39700000D01*
X133761904Y-39747619D01*
X133809523Y-39842857D01*
X133809523Y-39938095D01*
X133761904Y-40080952D01*
X133190476Y-40652380D01*
X133809523Y-40652380D01*
X134285714Y-40652380D02*
X134476190Y-40652380D01*
X134571428Y-40604761D01*
X134619047Y-40557142D01*
X134714285Y-40414285D01*
X134761904Y-40223809D01*
X134761904Y-39842857D01*
X134714285Y-39747619D01*
X134666666Y-39700000D01*
X134571428Y-39652380D01*
X134380952Y-39652380D01*
X134285714Y-39700000D01*
X134238095Y-39747619D01*
X134190476Y-39842857D01*
X134190476Y-40080952D01*
X134238095Y-40176190D01*
X134285714Y-40223809D01*
X134380952Y-40271428D01*
X134571428Y-40271428D01*
X134666666Y-40223809D01*
X134714285Y-40176190D01*
X134761904Y-40080952D01*
%TO.C,R30*%
X90252380Y-45342857D02*
X89776190Y-45676190D01*
X90252380Y-45914285D02*
X89252380Y-45914285D01*
X89252380Y-45533333D01*
X89300000Y-45438095D01*
X89347619Y-45390476D01*
X89442857Y-45342857D01*
X89585714Y-45342857D01*
X89680952Y-45390476D01*
X89728571Y-45438095D01*
X89776190Y-45533333D01*
X89776190Y-45914285D01*
X89252380Y-45009523D02*
X89252380Y-44390476D01*
X89633333Y-44723809D01*
X89633333Y-44580952D01*
X89680952Y-44485714D01*
X89728571Y-44438095D01*
X89823809Y-44390476D01*
X90061904Y-44390476D01*
X90157142Y-44438095D01*
X90204761Y-44485714D01*
X90252380Y-44580952D01*
X90252380Y-44866666D01*
X90204761Y-44961904D01*
X90157142Y-45009523D01*
X89252380Y-43771428D02*
X89252380Y-43676190D01*
X89300000Y-43580952D01*
X89347619Y-43533333D01*
X89442857Y-43485714D01*
X89633333Y-43438095D01*
X89871428Y-43438095D01*
X90061904Y-43485714D01*
X90157142Y-43533333D01*
X90204761Y-43580952D01*
X90252380Y-43676190D01*
X90252380Y-43771428D01*
X90204761Y-43866666D01*
X90157142Y-43914285D01*
X90061904Y-43961904D01*
X89871428Y-44009523D01*
X89633333Y-44009523D01*
X89442857Y-43961904D01*
X89347619Y-43914285D01*
X89300000Y-43866666D01*
X89252380Y-43771428D01*
%TO.C,R31*%
X132657142Y-30652380D02*
X132323809Y-30176190D01*
X132085714Y-30652380D02*
X132085714Y-29652380D01*
X132466666Y-29652380D01*
X132561904Y-29700000D01*
X132609523Y-29747619D01*
X132657142Y-29842857D01*
X132657142Y-29985714D01*
X132609523Y-30080952D01*
X132561904Y-30128571D01*
X132466666Y-30176190D01*
X132085714Y-30176190D01*
X132990476Y-29652380D02*
X133609523Y-29652380D01*
X133276190Y-30033333D01*
X133419047Y-30033333D01*
X133514285Y-30080952D01*
X133561904Y-30128571D01*
X133609523Y-30223809D01*
X133609523Y-30461904D01*
X133561904Y-30557142D01*
X133514285Y-30604761D01*
X133419047Y-30652380D01*
X133133333Y-30652380D01*
X133038095Y-30604761D01*
X132990476Y-30557142D01*
X134561904Y-30652380D02*
X133990476Y-30652380D01*
X134276190Y-30652380D02*
X134276190Y-29652380D01*
X134180952Y-29795238D01*
X134085714Y-29890476D01*
X133990476Y-29938095D01*
%TO.C,J1*%
X53202380Y-34783333D02*
X53916666Y-34783333D01*
X54059523Y-34830952D01*
X54154761Y-34926190D01*
X54202380Y-35069047D01*
X54202380Y-35164285D01*
X54202380Y-33783333D02*
X54202380Y-34354761D01*
X54202380Y-34069047D02*
X53202380Y-34069047D01*
X53345238Y-34164285D01*
X53440476Y-34259523D01*
X53488095Y-34354761D01*
%TO.C,U1*%
X90374761Y-31909047D02*
X90374761Y-33285238D01*
X90455714Y-33447142D01*
X90536666Y-33528095D01*
X90698571Y-33609047D01*
X91022380Y-33609047D01*
X91184285Y-33528095D01*
X91265238Y-33447142D01*
X91346190Y-33285238D01*
X91346190Y-31909047D01*
X93046190Y-33609047D02*
X92074761Y-33609047D01*
X92560476Y-33609047D02*
X92560476Y-31909047D01*
X92398571Y-32151904D01*
X92236666Y-32313809D01*
X92074761Y-32394761D01*
X76410476Y-35663333D02*
X77220000Y-35663333D01*
X76248571Y-36149047D02*
X76815238Y-34449047D01*
X77381904Y-36149047D01*
X78920000Y-36149047D02*
X78353333Y-35339523D01*
X77948571Y-36149047D02*
X77948571Y-34449047D01*
X78596190Y-34449047D01*
X78758095Y-34530000D01*
X78839047Y-34610952D01*
X78920000Y-34772857D01*
X78920000Y-35015714D01*
X78839047Y-35177619D01*
X78758095Y-35258571D01*
X78596190Y-35339523D01*
X77948571Y-35339523D01*
X79648571Y-36149047D02*
X79648571Y-34449047D01*
X80053333Y-34449047D01*
X80296190Y-34530000D01*
X80458095Y-34691904D01*
X80539047Y-34853809D01*
X80620000Y-35177619D01*
X80620000Y-35420476D01*
X80539047Y-35744285D01*
X80458095Y-35906190D01*
X80296190Y-36068095D01*
X80053333Y-36149047D01*
X79648571Y-36149047D01*
X81348571Y-34449047D02*
X81348571Y-35825238D01*
X81429523Y-35987142D01*
X81510476Y-36068095D01*
X81672380Y-36149047D01*
X81996190Y-36149047D01*
X82158095Y-36068095D01*
X82239047Y-35987142D01*
X82320000Y-35825238D01*
X82320000Y-34449047D01*
X83129523Y-36149047D02*
X83129523Y-34449047D01*
X83939047Y-36149047D02*
X83939047Y-34449047D01*
X84910476Y-36149047D01*
X84910476Y-34449047D01*
X86043809Y-34449047D02*
X86367619Y-34449047D01*
X86529523Y-34530000D01*
X86691428Y-34691904D01*
X86772380Y-35015714D01*
X86772380Y-35582380D01*
X86691428Y-35906190D01*
X86529523Y-36068095D01*
X86367619Y-36149047D01*
X86043809Y-36149047D01*
X85881904Y-36068095D01*
X85720000Y-35906190D01*
X85639047Y-35582380D01*
X85639047Y-35015714D01*
X85720000Y-34691904D01*
X85881904Y-34530000D01*
X86043809Y-34449047D01*
X87096190Y-36310952D02*
X88391428Y-36310952D01*
X88796190Y-36149047D02*
X88796190Y-34449047D01*
X89362857Y-35663333D01*
X89929523Y-34449047D01*
X89929523Y-36149047D01*
X90739047Y-36149047D02*
X90739047Y-34449047D01*
X92520000Y-35987142D02*
X92439047Y-36068095D01*
X92196190Y-36149047D01*
X92034285Y-36149047D01*
X91791428Y-36068095D01*
X91629523Y-35906190D01*
X91548571Y-35744285D01*
X91467619Y-35420476D01*
X91467619Y-35177619D01*
X91548571Y-34853809D01*
X91629523Y-34691904D01*
X91791428Y-34530000D01*
X92034285Y-34449047D01*
X92196190Y-34449047D01*
X92439047Y-34530000D01*
X92520000Y-34610952D01*
X94220000Y-36149047D02*
X93653333Y-35339523D01*
X93248571Y-36149047D02*
X93248571Y-34449047D01*
X93896190Y-34449047D01*
X94058095Y-34530000D01*
X94139047Y-34610952D01*
X94220000Y-34772857D01*
X94220000Y-35015714D01*
X94139047Y-35177619D01*
X94058095Y-35258571D01*
X93896190Y-35339523D01*
X93248571Y-35339523D01*
X95272380Y-34449047D02*
X95596190Y-34449047D01*
X95758095Y-34530000D01*
X95920000Y-34691904D01*
X96000952Y-35015714D01*
X96000952Y-35582380D01*
X95920000Y-35906190D01*
X95758095Y-36068095D01*
X95596190Y-36149047D01*
X95272380Y-36149047D01*
X95110476Y-36068095D01*
X94948571Y-35906190D01*
X94867619Y-35582380D01*
X94867619Y-35015714D01*
X94948571Y-34691904D01*
X95110476Y-34530000D01*
X95272380Y-34449047D01*
X96324761Y-36310952D02*
X97620000Y-36310952D01*
X97943809Y-36068095D02*
X98186666Y-36149047D01*
X98591428Y-36149047D01*
X98753333Y-36068095D01*
X98834285Y-35987142D01*
X98915238Y-35825238D01*
X98915238Y-35663333D01*
X98834285Y-35501428D01*
X98753333Y-35420476D01*
X98591428Y-35339523D01*
X98267619Y-35258571D01*
X98105714Y-35177619D01*
X98024761Y-35096666D01*
X97943809Y-34934761D01*
X97943809Y-34772857D01*
X98024761Y-34610952D01*
X98105714Y-34530000D01*
X98267619Y-34449047D01*
X98672380Y-34449047D01*
X98915238Y-34530000D01*
X99967619Y-34449047D02*
X100291428Y-34449047D01*
X100453333Y-34530000D01*
X100615238Y-34691904D01*
X100696190Y-35015714D01*
X100696190Y-35582380D01*
X100615238Y-35906190D01*
X100453333Y-36068095D01*
X100291428Y-36149047D01*
X99967619Y-36149047D01*
X99805714Y-36068095D01*
X99643809Y-35906190D01*
X99562857Y-35582380D01*
X99562857Y-35015714D01*
X99643809Y-34691904D01*
X99805714Y-34530000D01*
X99967619Y-34449047D01*
X102396190Y-35987142D02*
X102315238Y-36068095D01*
X102072380Y-36149047D01*
X101910476Y-36149047D01*
X101667619Y-36068095D01*
X101505714Y-35906190D01*
X101424761Y-35744285D01*
X101343809Y-35420476D01*
X101343809Y-35177619D01*
X101424761Y-34853809D01*
X101505714Y-34691904D01*
X101667619Y-34530000D01*
X101910476Y-34449047D01*
X102072380Y-34449047D01*
X102315238Y-34530000D01*
X102396190Y-34610952D01*
X103124761Y-36149047D02*
X103124761Y-34449047D01*
X104096190Y-36149047D02*
X103367619Y-35177619D01*
X104096190Y-34449047D02*
X103124761Y-35420476D01*
X104824761Y-35258571D02*
X105391428Y-35258571D01*
X105634285Y-36149047D02*
X104824761Y-36149047D01*
X104824761Y-34449047D01*
X105634285Y-34449047D01*
X106120000Y-34449047D02*
X107091428Y-34449047D01*
X106605714Y-36149047D02*
X106605714Y-34449047D01*
X111442380Y-35371904D02*
X112251904Y-35371904D01*
X112347142Y-35324285D01*
X112394761Y-35276666D01*
X112442380Y-35181428D01*
X112442380Y-34990952D01*
X112394761Y-34895714D01*
X112347142Y-34848095D01*
X112251904Y-34800476D01*
X111442380Y-34800476D01*
X112394761Y-34371904D02*
X112442380Y-34229047D01*
X112442380Y-33990952D01*
X112394761Y-33895714D01*
X112347142Y-33848095D01*
X112251904Y-33800476D01*
X112156666Y-33800476D01*
X112061428Y-33848095D01*
X112013809Y-33895714D01*
X111966190Y-33990952D01*
X111918571Y-34181428D01*
X111870952Y-34276666D01*
X111823333Y-34324285D01*
X111728095Y-34371904D01*
X111632857Y-34371904D01*
X111537619Y-34324285D01*
X111490000Y-34276666D01*
X111442380Y-34181428D01*
X111442380Y-33943333D01*
X111490000Y-33800476D01*
X111918571Y-33038571D02*
X111966190Y-32895714D01*
X112013809Y-32848095D01*
X112109047Y-32800476D01*
X112251904Y-32800476D01*
X112347142Y-32848095D01*
X112394761Y-32895714D01*
X112442380Y-32990952D01*
X112442380Y-33371904D01*
X111442380Y-33371904D01*
X111442380Y-33038571D01*
X111490000Y-32943333D01*
X111537619Y-32895714D01*
X111632857Y-32848095D01*
X111728095Y-32848095D01*
X111823333Y-32895714D01*
X111870952Y-32943333D01*
X111918571Y-33038571D01*
X111918571Y-33371904D01*
%TD*%
M02*
