%TF.GenerationSoftware,KiCad,Pcbnew,(5.1.6)-1*%
%TF.CreationDate,2021-04-12T23:45:43+02:00*%
%TF.ProjectId,08_Main_Gauche,30385f4d-6169-46e5-9f47-61756368652e,rev?*%
%TF.SameCoordinates,Original*%
%TF.FileFunction,Legend,Bot*%
%TF.FilePolarity,Positive*%
%FSLAX46Y46*%
G04 Gerber Fmt 4.6, Leading zero omitted, Abs format (unit mm)*
G04 Created by KiCad (PCBNEW (5.1.6)-1) date 2021-04-12 23:45:43*
%MOMM*%
%LPD*%
G01*
G04 APERTURE LIST*
%ADD10C,0.750000*%
%ADD11C,0.150000*%
%TA.AperFunction,Profile*%
%ADD12C,0.150000*%
%TD*%
%ADD13C,0.120000*%
G04 APERTURE END LIST*
D10*
X178431428Y-61047142D02*
X178431428Y-58047142D01*
X177431428Y-60190000D01*
X176431428Y-58047142D01*
X176431428Y-61047142D01*
X173717142Y-61047142D02*
X173717142Y-59475714D01*
X173860000Y-59190000D01*
X174145714Y-59047142D01*
X174717142Y-59047142D01*
X175002857Y-59190000D01*
X173717142Y-60904285D02*
X174002857Y-61047142D01*
X174717142Y-61047142D01*
X175002857Y-60904285D01*
X175145714Y-60618571D01*
X175145714Y-60332857D01*
X175002857Y-60047142D01*
X174717142Y-59904285D01*
X174002857Y-59904285D01*
X173717142Y-59761428D01*
X172288571Y-61047142D02*
X172288571Y-59047142D01*
X172288571Y-58047142D02*
X172431428Y-58190000D01*
X172288571Y-58332857D01*
X172145714Y-58190000D01*
X172288571Y-58047142D01*
X172288571Y-58332857D01*
X170860000Y-59047142D02*
X170860000Y-61047142D01*
X170860000Y-59332857D02*
X170717142Y-59190000D01*
X170431428Y-59047142D01*
X170002857Y-59047142D01*
X169717142Y-59190000D01*
X169574285Y-59475714D01*
X169574285Y-61047142D01*
X164288571Y-58190000D02*
X164574285Y-58047142D01*
X165002857Y-58047142D01*
X165431428Y-58190000D01*
X165717142Y-58475714D01*
X165860000Y-58761428D01*
X166002857Y-59332857D01*
X166002857Y-59761428D01*
X165860000Y-60332857D01*
X165717142Y-60618571D01*
X165431428Y-60904285D01*
X165002857Y-61047142D01*
X164717142Y-61047142D01*
X164288571Y-60904285D01*
X164145714Y-60761428D01*
X164145714Y-59761428D01*
X164717142Y-59761428D01*
X161574285Y-61047142D02*
X161574285Y-59475714D01*
X161717142Y-59190000D01*
X162002857Y-59047142D01*
X162574285Y-59047142D01*
X162860000Y-59190000D01*
X161574285Y-60904285D02*
X161860000Y-61047142D01*
X162574285Y-61047142D01*
X162860000Y-60904285D01*
X163002857Y-60618571D01*
X163002857Y-60332857D01*
X162860000Y-60047142D01*
X162574285Y-59904285D01*
X161860000Y-59904285D01*
X161574285Y-59761428D01*
X158860000Y-59047142D02*
X158860000Y-61047142D01*
X160145714Y-59047142D02*
X160145714Y-60618571D01*
X160002857Y-60904285D01*
X159717142Y-61047142D01*
X159288571Y-61047142D01*
X159002857Y-60904285D01*
X158860000Y-60761428D01*
X156145714Y-60904285D02*
X156431428Y-61047142D01*
X157002857Y-61047142D01*
X157288571Y-60904285D01*
X157431428Y-60761428D01*
X157574285Y-60475714D01*
X157574285Y-59618571D01*
X157431428Y-59332857D01*
X157288571Y-59190000D01*
X157002857Y-59047142D01*
X156431428Y-59047142D01*
X156145714Y-59190000D01*
X154860000Y-61047142D02*
X154860000Y-58047142D01*
X153574285Y-61047142D02*
X153574285Y-59475714D01*
X153717142Y-59190000D01*
X154002857Y-59047142D01*
X154431428Y-59047142D01*
X154717142Y-59190000D01*
X154860000Y-59332857D01*
X151002857Y-60904285D02*
X151288571Y-61047142D01*
X151860000Y-61047142D01*
X152145714Y-60904285D01*
X152288571Y-60618571D01*
X152288571Y-59475714D01*
X152145714Y-59190000D01*
X151860000Y-59047142D01*
X151288571Y-59047142D01*
X151002857Y-59190000D01*
X150860000Y-59475714D01*
X150860000Y-59761428D01*
X152288571Y-60047142D01*
X147431428Y-58332857D02*
X147288571Y-58190000D01*
X147002857Y-58047142D01*
X146288571Y-58047142D01*
X146002857Y-58190000D01*
X145860000Y-58332857D01*
X145717142Y-58618571D01*
X145717142Y-58904285D01*
X145860000Y-59332857D01*
X147574285Y-61047142D01*
X145717142Y-61047142D01*
X143860000Y-58047142D02*
X143574285Y-58047142D01*
X143288571Y-58190000D01*
X143145714Y-58332857D01*
X143002857Y-58618571D01*
X142860000Y-59190000D01*
X142860000Y-59904285D01*
X143002857Y-60475714D01*
X143145714Y-60761428D01*
X143288571Y-60904285D01*
X143574285Y-61047142D01*
X143860000Y-61047142D01*
X144145714Y-60904285D01*
X144288571Y-60761428D01*
X144431428Y-60475714D01*
X144574285Y-59904285D01*
X144574285Y-59190000D01*
X144431428Y-58618571D01*
X144288571Y-58332857D01*
X144145714Y-58190000D01*
X143860000Y-58047142D01*
X141717142Y-58332857D02*
X141574285Y-58190000D01*
X141288571Y-58047142D01*
X140574285Y-58047142D01*
X140288571Y-58190000D01*
X140145714Y-58332857D01*
X140002857Y-58618571D01*
X140002857Y-58904285D01*
X140145714Y-59332857D01*
X141860000Y-61047142D01*
X140002857Y-61047142D01*
X137145714Y-61047142D02*
X138860000Y-61047142D01*
X138002857Y-61047142D02*
X138002857Y-58047142D01*
X138288571Y-58475714D01*
X138574285Y-58761428D01*
X138860000Y-58904285D01*
X133002857Y-58047142D02*
X132717142Y-58047142D01*
X132431428Y-58190000D01*
X132288571Y-58332857D01*
X132145714Y-58618571D01*
X132002857Y-59190000D01*
X132002857Y-59904285D01*
X132145714Y-60475714D01*
X132288571Y-60761428D01*
X132431428Y-60904285D01*
X132717142Y-61047142D01*
X133002857Y-61047142D01*
X133288571Y-60904285D01*
X133431428Y-60761428D01*
X133574285Y-60475714D01*
X133717142Y-59904285D01*
X133717142Y-59190000D01*
X133574285Y-58618571D01*
X133431428Y-58332857D01*
X133288571Y-58190000D01*
X133002857Y-58047142D01*
X129431428Y-59047142D02*
X129431428Y-61047142D01*
X130145714Y-57904285D02*
X130860000Y-60047142D01*
X129002857Y-60047142D01*
X124002857Y-61047142D02*
X125717142Y-61047142D01*
X124860000Y-61047142D02*
X124860000Y-58047142D01*
X125145714Y-58475714D01*
X125431428Y-58761428D01*
X125717142Y-58904285D01*
X121145714Y-61047142D02*
X122860000Y-61047142D01*
X122002857Y-61047142D02*
X122002857Y-58047142D01*
X122288571Y-58475714D01*
X122574285Y-58761428D01*
X122860000Y-58904285D01*
D11*
X148928571Y-150452380D02*
X148928571Y-149452380D01*
X148500000Y-150452380D02*
X148500000Y-149928571D01*
X148547619Y-149833333D01*
X148642857Y-149785714D01*
X148785714Y-149785714D01*
X148880952Y-149833333D01*
X148928571Y-149880952D01*
X148166666Y-149785714D02*
X147785714Y-149785714D01*
X148023809Y-149452380D02*
X148023809Y-150309523D01*
X147976190Y-150404761D01*
X147880952Y-150452380D01*
X147785714Y-150452380D01*
X147595238Y-149785714D02*
X147214285Y-149785714D01*
X147452380Y-149452380D02*
X147452380Y-150309523D01*
X147404761Y-150404761D01*
X147309523Y-150452380D01*
X147214285Y-150452380D01*
X146880952Y-149785714D02*
X146880952Y-150785714D01*
X146880952Y-149833333D02*
X146785714Y-149785714D01*
X146595238Y-149785714D01*
X146500000Y-149833333D01*
X146452380Y-149880952D01*
X146404761Y-149976190D01*
X146404761Y-150261904D01*
X146452380Y-150357142D01*
X146500000Y-150404761D01*
X146595238Y-150452380D01*
X146785714Y-150452380D01*
X146880952Y-150404761D01*
X146023809Y-150404761D02*
X145928571Y-150452380D01*
X145738095Y-150452380D01*
X145642857Y-150404761D01*
X145595238Y-150309523D01*
X145595238Y-150261904D01*
X145642857Y-150166666D01*
X145738095Y-150119047D01*
X145880952Y-150119047D01*
X145976190Y-150071428D01*
X146023809Y-149976190D01*
X146023809Y-149928571D01*
X145976190Y-149833333D01*
X145880952Y-149785714D01*
X145738095Y-149785714D01*
X145642857Y-149833333D01*
X145166666Y-150357142D02*
X145119047Y-150404761D01*
X145166666Y-150452380D01*
X145214285Y-150404761D01*
X145166666Y-150357142D01*
X145166666Y-150452380D01*
X145166666Y-149833333D02*
X145119047Y-149880952D01*
X145166666Y-149928571D01*
X145214285Y-149880952D01*
X145166666Y-149833333D01*
X145166666Y-149928571D01*
X143976190Y-149404761D02*
X144833333Y-150690476D01*
X142928571Y-149404761D02*
X143785714Y-150690476D01*
X142166666Y-149785714D02*
X142166666Y-150595238D01*
X142214285Y-150690476D01*
X142261904Y-150738095D01*
X142357142Y-150785714D01*
X142500000Y-150785714D01*
X142595238Y-150738095D01*
X142166666Y-150404761D02*
X142261904Y-150452380D01*
X142452380Y-150452380D01*
X142547619Y-150404761D01*
X142595238Y-150357142D01*
X142642857Y-150261904D01*
X142642857Y-149976190D01*
X142595238Y-149880952D01*
X142547619Y-149833333D01*
X142452380Y-149785714D01*
X142261904Y-149785714D01*
X142166666Y-149833333D01*
X141690476Y-150452380D02*
X141690476Y-149785714D01*
X141690476Y-149452380D02*
X141738095Y-149500000D01*
X141690476Y-149547619D01*
X141642857Y-149500000D01*
X141690476Y-149452380D01*
X141690476Y-149547619D01*
X141357142Y-149785714D02*
X140976190Y-149785714D01*
X141214285Y-149452380D02*
X141214285Y-150309523D01*
X141166666Y-150404761D01*
X141071428Y-150452380D01*
X140976190Y-150452380D01*
X140642857Y-150452380D02*
X140642857Y-149452380D01*
X140214285Y-150452380D02*
X140214285Y-149928571D01*
X140261904Y-149833333D01*
X140357142Y-149785714D01*
X140500000Y-149785714D01*
X140595238Y-149833333D01*
X140642857Y-149880952D01*
X139309523Y-149785714D02*
X139309523Y-150452380D01*
X139738095Y-149785714D02*
X139738095Y-150309523D01*
X139690476Y-150404761D01*
X139595238Y-150452380D01*
X139452380Y-150452380D01*
X139357142Y-150404761D01*
X139309523Y-150357142D01*
X138833333Y-150452380D02*
X138833333Y-149452380D01*
X138833333Y-149833333D02*
X138738095Y-149785714D01*
X138547619Y-149785714D01*
X138452380Y-149833333D01*
X138404761Y-149880952D01*
X138357142Y-149976190D01*
X138357142Y-150261904D01*
X138404761Y-150357142D01*
X138452380Y-150404761D01*
X138547619Y-150452380D01*
X138738095Y-150452380D01*
X138833333Y-150404761D01*
X137928571Y-150357142D02*
X137880952Y-150404761D01*
X137928571Y-150452380D01*
X137976190Y-150404761D01*
X137928571Y-150357142D01*
X137928571Y-150452380D01*
X137023809Y-150404761D02*
X137119047Y-150452380D01*
X137309523Y-150452380D01*
X137404761Y-150404761D01*
X137452380Y-150357142D01*
X137500000Y-150261904D01*
X137500000Y-149976190D01*
X137452380Y-149880952D01*
X137404761Y-149833333D01*
X137309523Y-149785714D01*
X137119047Y-149785714D01*
X137023809Y-149833333D01*
X136452380Y-150452380D02*
X136547619Y-150404761D01*
X136595238Y-150357142D01*
X136642857Y-150261904D01*
X136642857Y-149976190D01*
X136595238Y-149880952D01*
X136547619Y-149833333D01*
X136452380Y-149785714D01*
X136309523Y-149785714D01*
X136214285Y-149833333D01*
X136166666Y-149880952D01*
X136119047Y-149976190D01*
X136119047Y-150261904D01*
X136166666Y-150357142D01*
X136214285Y-150404761D01*
X136309523Y-150452380D01*
X136452380Y-150452380D01*
X135690476Y-150452380D02*
X135690476Y-149785714D01*
X135690476Y-149880952D02*
X135642857Y-149833333D01*
X135547619Y-149785714D01*
X135404761Y-149785714D01*
X135309523Y-149833333D01*
X135261904Y-149928571D01*
X135261904Y-150452380D01*
X135261904Y-149928571D02*
X135214285Y-149833333D01*
X135119047Y-149785714D01*
X134976190Y-149785714D01*
X134880952Y-149833333D01*
X134833333Y-149928571D01*
X134833333Y-150452380D01*
X133642857Y-149404761D02*
X134500000Y-150690476D01*
X133452380Y-149452380D02*
X132880952Y-149452380D01*
X133166666Y-150452380D02*
X133166666Y-149452380D01*
X132547619Y-150452380D02*
X132547619Y-149452380D01*
X132119047Y-150452380D02*
X132119047Y-149928571D01*
X132166666Y-149833333D01*
X132261904Y-149785714D01*
X132404761Y-149785714D01*
X132500000Y-149833333D01*
X132547619Y-149880952D01*
X131642857Y-150452380D02*
X131642857Y-149785714D01*
X131642857Y-149452380D02*
X131690476Y-149500000D01*
X131642857Y-149547619D01*
X131595238Y-149500000D01*
X131642857Y-149452380D01*
X131642857Y-149547619D01*
X130785714Y-150404761D02*
X130880952Y-150452380D01*
X131071428Y-150452380D01*
X131166666Y-150404761D01*
X131214285Y-150309523D01*
X131214285Y-149928571D01*
X131166666Y-149833333D01*
X131071428Y-149785714D01*
X130880952Y-149785714D01*
X130785714Y-149833333D01*
X130738095Y-149928571D01*
X130738095Y-150023809D01*
X131214285Y-150119047D01*
X130309523Y-150452380D02*
X130309523Y-149785714D01*
X130309523Y-149976190D02*
X130261904Y-149880952D01*
X130214285Y-149833333D01*
X130119047Y-149785714D01*
X130023809Y-149785714D01*
X129690476Y-150452380D02*
X129690476Y-149785714D01*
X129690476Y-149976190D02*
X129642857Y-149880952D01*
X129595238Y-149833333D01*
X129500000Y-149785714D01*
X129404761Y-149785714D01*
X129166666Y-149785714D02*
X128928571Y-150452380D01*
X128690476Y-149785714D02*
X128928571Y-150452380D01*
X129023809Y-150690476D01*
X129071428Y-150738095D01*
X129166666Y-150785714D01*
X128119047Y-149452380D02*
X127928571Y-149452380D01*
X127833333Y-149500000D01*
X127738095Y-149595238D01*
X127690476Y-149785714D01*
X127690476Y-150119047D01*
X127738095Y-150309523D01*
X127833333Y-150404761D01*
X127928571Y-150452380D01*
X128119047Y-150452380D01*
X128214285Y-150404761D01*
X128309523Y-150309523D01*
X128357142Y-150119047D01*
X128357142Y-149785714D01*
X128309523Y-149595238D01*
X128214285Y-149500000D01*
X128119047Y-149452380D01*
X127261904Y-150452380D02*
X127261904Y-149785714D01*
X127261904Y-149976190D02*
X127214285Y-149880952D01*
X127166666Y-149833333D01*
X127071428Y-149785714D01*
X126976190Y-149785714D01*
X126500000Y-150452380D02*
X126595238Y-150404761D01*
X126642857Y-150309523D01*
X126642857Y-149452380D01*
X125690476Y-150452380D02*
X125690476Y-149928571D01*
X125738095Y-149833333D01*
X125833333Y-149785714D01*
X126023809Y-149785714D01*
X126119047Y-149833333D01*
X125690476Y-150404761D02*
X125785714Y-150452380D01*
X126023809Y-150452380D01*
X126119047Y-150404761D01*
X126166666Y-150309523D01*
X126166666Y-150214285D01*
X126119047Y-150119047D01*
X126023809Y-150071428D01*
X125785714Y-150071428D01*
X125690476Y-150023809D01*
X125214285Y-149785714D02*
X125214285Y-150452380D01*
X125214285Y-149880952D02*
X125166666Y-149833333D01*
X125071428Y-149785714D01*
X124928571Y-149785714D01*
X124833333Y-149833333D01*
X124785714Y-149928571D01*
X124785714Y-150452380D01*
X123880952Y-150452380D02*
X123880952Y-149452380D01*
X123880952Y-150404761D02*
X123976190Y-150452380D01*
X124166666Y-150452380D01*
X124261904Y-150404761D01*
X124309523Y-150357142D01*
X124357142Y-150261904D01*
X124357142Y-149976190D01*
X124309523Y-149880952D01*
X124261904Y-149833333D01*
X124166666Y-149785714D01*
X123976190Y-149785714D01*
X123880952Y-149833333D01*
X123404761Y-150452380D02*
X123404761Y-149785714D01*
X123404761Y-149452380D02*
X123452380Y-149500000D01*
X123404761Y-149547619D01*
X123357142Y-149500000D01*
X123404761Y-149452380D01*
X123404761Y-149547619D01*
X122214285Y-149404761D02*
X123071428Y-150690476D01*
X121690476Y-149452380D02*
X121595238Y-149452380D01*
X121500000Y-149500000D01*
X121452380Y-149547619D01*
X121404761Y-149642857D01*
X121357142Y-149833333D01*
X121357142Y-150071428D01*
X121404761Y-150261904D01*
X121452380Y-150357142D01*
X121500000Y-150404761D01*
X121595238Y-150452380D01*
X121690476Y-150452380D01*
X121785714Y-150404761D01*
X121833333Y-150357142D01*
X121880952Y-150261904D01*
X121928571Y-150071428D01*
X121928571Y-149833333D01*
X121880952Y-149642857D01*
X121833333Y-149547619D01*
X121785714Y-149500000D01*
X121690476Y-149452380D01*
X120785714Y-149880952D02*
X120880952Y-149833333D01*
X120928571Y-149785714D01*
X120976190Y-149690476D01*
X120976190Y-149642857D01*
X120928571Y-149547619D01*
X120880952Y-149500000D01*
X120785714Y-149452380D01*
X120595238Y-149452380D01*
X120500000Y-149500000D01*
X120452380Y-149547619D01*
X120404761Y-149642857D01*
X120404761Y-149690476D01*
X120452380Y-149785714D01*
X120500000Y-149833333D01*
X120595238Y-149880952D01*
X120785714Y-149880952D01*
X120880952Y-149928571D01*
X120928571Y-149976190D01*
X120976190Y-150071428D01*
X120976190Y-150261904D01*
X120928571Y-150357142D01*
X120880952Y-150404761D01*
X120785714Y-150452380D01*
X120595238Y-150452380D01*
X120500000Y-150404761D01*
X120452380Y-150357142D01*
X120404761Y-150261904D01*
X120404761Y-150071428D01*
X120452380Y-149976190D01*
X120500000Y-149928571D01*
X120595238Y-149880952D01*
X120214285Y-150547619D02*
X119452380Y-150547619D01*
X119214285Y-150452380D02*
X119214285Y-149452380D01*
X118880952Y-150166666D01*
X118547619Y-149452380D01*
X118547619Y-150452380D01*
X117642857Y-150452380D02*
X117642857Y-149928571D01*
X117690476Y-149833333D01*
X117785714Y-149785714D01*
X117976190Y-149785714D01*
X118071428Y-149833333D01*
X117642857Y-150404761D02*
X117738095Y-150452380D01*
X117976190Y-150452380D01*
X118071428Y-150404761D01*
X118119047Y-150309523D01*
X118119047Y-150214285D01*
X118071428Y-150119047D01*
X117976190Y-150071428D01*
X117738095Y-150071428D01*
X117642857Y-150023809D01*
X117166666Y-150452380D02*
X117166666Y-149785714D01*
X117166666Y-149452380D02*
X117214285Y-149500000D01*
X117166666Y-149547619D01*
X117119047Y-149500000D01*
X117166666Y-149452380D01*
X117166666Y-149547619D01*
X116690476Y-149785714D02*
X116690476Y-150452380D01*
X116690476Y-149880952D02*
X116642857Y-149833333D01*
X116547619Y-149785714D01*
X116404761Y-149785714D01*
X116309523Y-149833333D01*
X116261904Y-149928571D01*
X116261904Y-150452380D01*
X116023809Y-150547619D02*
X115261904Y-150547619D01*
X114500000Y-149500000D02*
X114595238Y-149452380D01*
X114738095Y-149452380D01*
X114880952Y-149500000D01*
X114976190Y-149595238D01*
X115023809Y-149690476D01*
X115071428Y-149880952D01*
X115071428Y-150023809D01*
X115023809Y-150214285D01*
X114976190Y-150309523D01*
X114880952Y-150404761D01*
X114738095Y-150452380D01*
X114642857Y-150452380D01*
X114500000Y-150404761D01*
X114452380Y-150357142D01*
X114452380Y-150023809D01*
X114642857Y-150023809D01*
X113595238Y-150452380D02*
X113595238Y-149928571D01*
X113642857Y-149833333D01*
X113738095Y-149785714D01*
X113928571Y-149785714D01*
X114023809Y-149833333D01*
X113595238Y-150404761D02*
X113690476Y-150452380D01*
X113928571Y-150452380D01*
X114023809Y-150404761D01*
X114071428Y-150309523D01*
X114071428Y-150214285D01*
X114023809Y-150119047D01*
X113928571Y-150071428D01*
X113690476Y-150071428D01*
X113595238Y-150023809D01*
X112690476Y-149785714D02*
X112690476Y-150452380D01*
X113119047Y-149785714D02*
X113119047Y-150309523D01*
X113071428Y-150404761D01*
X112976190Y-150452380D01*
X112833333Y-150452380D01*
X112738095Y-150404761D01*
X112690476Y-150357142D01*
X111785714Y-150404761D02*
X111880952Y-150452380D01*
X112071428Y-150452380D01*
X112166666Y-150404761D01*
X112214285Y-150357142D01*
X112261904Y-150261904D01*
X112261904Y-149976190D01*
X112214285Y-149880952D01*
X112166666Y-149833333D01*
X112071428Y-149785714D01*
X111880952Y-149785714D01*
X111785714Y-149833333D01*
X111357142Y-150452380D02*
X111357142Y-149452380D01*
X110928571Y-150452380D02*
X110928571Y-149928571D01*
X110976190Y-149833333D01*
X111071428Y-149785714D01*
X111214285Y-149785714D01*
X111309523Y-149833333D01*
X111357142Y-149880952D01*
X110071428Y-150404761D02*
X110166666Y-150452380D01*
X110357142Y-150452380D01*
X110452380Y-150404761D01*
X110500000Y-150309523D01*
X110500000Y-149928571D01*
X110452380Y-149833333D01*
X110357142Y-149785714D01*
X110166666Y-149785714D01*
X110071428Y-149833333D01*
X110023809Y-149928571D01*
X110023809Y-150023809D01*
X110500000Y-150119047D01*
D12*
X180000000Y-55000000D02*
X195000000Y-55000000D01*
X157000000Y-55000000D02*
X180000000Y-55000000D01*
X195000000Y-55000000D02*
G75*
G02*
X200000000Y-60000000I0J-5000000D01*
G01*
X200000000Y-150000000D02*
G75*
G02*
X195000000Y-155000000I-5000000J0D01*
G01*
X105000000Y-155000000D02*
G75*
G02*
X100000000Y-150000000I0J5000000D01*
G01*
X100000000Y-60000000D02*
G75*
G02*
X105000000Y-55000000I5000000J0D01*
G01*
X100000000Y-150000000D02*
X100000000Y-60000000D01*
X195000000Y-155000000D02*
X105000000Y-155000000D01*
X200000000Y-60000000D02*
X200000000Y-150000000D01*
X105000000Y-55000000D02*
X157000000Y-55000000D01*
D13*
%TO.C,C1*%
X182578733Y-140490000D02*
X182921267Y-140490000D01*
X182578733Y-141510000D02*
X182921267Y-141510000D01*
%TO.C,D1*%
X110080000Y-75820000D02*
X110080000Y-79120000D01*
X110080000Y-79120000D02*
X104680000Y-79120000D01*
X110080000Y-75820000D02*
X104680000Y-75820000D01*
%TO.C,D2*%
X125320000Y-75820000D02*
X125320000Y-79120000D01*
X125320000Y-79120000D02*
X119920000Y-79120000D01*
X125320000Y-75820000D02*
X119920000Y-75820000D01*
%TO.C,D3*%
X140560000Y-75820000D02*
X140560000Y-79120000D01*
X140560000Y-79120000D02*
X135160000Y-79120000D01*
X140560000Y-75820000D02*
X135160000Y-75820000D01*
%TO.C,D4*%
X155800000Y-75820000D02*
X155800000Y-79120000D01*
X155800000Y-79120000D02*
X150400000Y-79120000D01*
X155800000Y-75820000D02*
X150400000Y-75820000D01*
%TO.C,D5*%
X166115000Y-80965000D02*
X162815000Y-80965000D01*
X162815000Y-80965000D02*
X162815000Y-75565000D01*
X166115000Y-80965000D02*
X166115000Y-75565000D01*
%TO.C,D6*%
X192630000Y-75820000D02*
X192630000Y-79120000D01*
X192630000Y-79120000D02*
X187230000Y-79120000D01*
X192630000Y-75820000D02*
X187230000Y-75820000D01*
%TO.C,D7*%
X110080000Y-91060000D02*
X104680000Y-91060000D01*
X110080000Y-94360000D02*
X104680000Y-94360000D01*
X110080000Y-91060000D02*
X110080000Y-94360000D01*
%TO.C,D8*%
X125320000Y-91060000D02*
X119920000Y-91060000D01*
X125320000Y-94360000D02*
X119920000Y-94360000D01*
X125320000Y-91060000D02*
X125320000Y-94360000D01*
%TO.C,D9*%
X140560000Y-91060000D02*
X135160000Y-91060000D01*
X140560000Y-94360000D02*
X135160000Y-94360000D01*
X140560000Y-91060000D02*
X140560000Y-94360000D01*
%TO.C,D10*%
X155800000Y-91060000D02*
X150400000Y-91060000D01*
X155800000Y-94360000D02*
X150400000Y-94360000D01*
X155800000Y-91060000D02*
X155800000Y-94360000D01*
%TO.C,D11*%
X166115000Y-96205000D02*
X162815000Y-96205000D01*
X162815000Y-96205000D02*
X162815000Y-90805000D01*
X166115000Y-96205000D02*
X166115000Y-90805000D01*
%TO.C,D12*%
X192630000Y-91060000D02*
X187230000Y-91060000D01*
X192630000Y-94360000D02*
X187230000Y-94360000D01*
X192630000Y-91060000D02*
X192630000Y-94360000D01*
%TO.C,D13*%
X110080000Y-106300000D02*
X104680000Y-106300000D01*
X110080000Y-109600000D02*
X104680000Y-109600000D01*
X110080000Y-106300000D02*
X110080000Y-109600000D01*
%TO.C,D14*%
X125320000Y-106300000D02*
X125320000Y-109600000D01*
X125320000Y-109600000D02*
X119920000Y-109600000D01*
X125320000Y-106300000D02*
X119920000Y-106300000D01*
%TO.C,D15*%
X140560000Y-106300000D02*
X135160000Y-106300000D01*
X140560000Y-109600000D02*
X135160000Y-109600000D01*
X140560000Y-106300000D02*
X140560000Y-109600000D01*
%TO.C,D16*%
X155800000Y-106300000D02*
X150400000Y-106300000D01*
X155800000Y-109600000D02*
X150400000Y-109600000D01*
X155800000Y-106300000D02*
X155800000Y-109600000D01*
%TO.C,D17*%
X166115000Y-111445000D02*
X162815000Y-111445000D01*
X162815000Y-111445000D02*
X162815000Y-106045000D01*
X166115000Y-111445000D02*
X166115000Y-106045000D01*
%TO.C,D18*%
X192630000Y-106300000D02*
X187230000Y-106300000D01*
X192630000Y-109600000D02*
X187230000Y-109600000D01*
X192630000Y-106300000D02*
X192630000Y-109600000D01*
%TO.C,D24*%
X192630000Y-121540000D02*
X192630000Y-124840000D01*
X192630000Y-124840000D02*
X187230000Y-124840000D01*
X192630000Y-121540000D02*
X187230000Y-121540000D01*
%TO.C,D19*%
X110080000Y-121540000D02*
X110080000Y-124840000D01*
X110080000Y-124840000D02*
X104680000Y-124840000D01*
X110080000Y-121540000D02*
X104680000Y-121540000D01*
%TO.C,D20*%
X125320000Y-121540000D02*
X119920000Y-121540000D01*
X125320000Y-124840000D02*
X119920000Y-124840000D01*
X125320000Y-121540000D02*
X125320000Y-124840000D01*
%TO.C,D21*%
X140560000Y-121540000D02*
X135160000Y-121540000D01*
X140560000Y-124840000D02*
X135160000Y-124840000D01*
X140560000Y-121540000D02*
X140560000Y-124840000D01*
%TO.C,D22*%
X155800000Y-121540000D02*
X155800000Y-124840000D01*
X155800000Y-124840000D02*
X150400000Y-124840000D01*
X155800000Y-121540000D02*
X150400000Y-121540000D01*
%TO.C,D23*%
X166115000Y-126685000D02*
X166115000Y-121285000D01*
X162815000Y-126685000D02*
X162815000Y-121285000D01*
X166115000Y-126685000D02*
X162815000Y-126685000D01*
%TO.C,D26*%
X120875000Y-129160000D02*
X115475000Y-129160000D01*
X120875000Y-132460000D02*
X115475000Y-132460000D01*
X120875000Y-129160000D02*
X120875000Y-132460000D01*
%TO.C,D27*%
X134750000Y-129160000D02*
X134750000Y-132460000D01*
X134750000Y-132460000D02*
X129350000Y-132460000D01*
X134750000Y-129160000D02*
X129350000Y-129160000D01*
%TO.C,D30*%
X163325000Y-131700000D02*
X163325000Y-135000000D01*
X163325000Y-135000000D02*
X157925000Y-135000000D01*
X163325000Y-131700000D02*
X157925000Y-131700000D01*
%TO.C,D31*%
X148720000Y-129160000D02*
X143320000Y-129160000D01*
X148720000Y-132460000D02*
X143320000Y-132460000D01*
X148720000Y-129160000D02*
X148720000Y-132460000D01*
%TO.C,J1*%
X186495000Y-135000000D02*
X187095000Y-134700000D01*
X186495000Y-134400000D02*
X186495000Y-135000000D01*
X187095000Y-134700000D02*
X186495000Y-134400000D01*
X191795000Y-142450000D02*
X191795000Y-141950000D01*
X197295000Y-142450000D02*
X191795000Y-142450000D01*
X197295000Y-141950000D02*
X197295000Y-142450000D01*
X191795000Y-141950000D02*
X197295000Y-141950000D01*
X191795000Y-139950000D02*
X191795000Y-139450000D01*
X197295000Y-139950000D02*
X191795000Y-139950000D01*
X197295000Y-139450000D02*
X197295000Y-139950000D01*
X191795000Y-139450000D02*
X197295000Y-139450000D01*
X191795000Y-137450000D02*
X191795000Y-136950000D01*
X197295000Y-137450000D02*
X191795000Y-137450000D01*
X197295000Y-136950000D02*
X197295000Y-137450000D01*
X191795000Y-136950000D02*
X197295000Y-136950000D01*
X191795000Y-134950000D02*
X191795000Y-134450000D01*
X197295000Y-134950000D02*
X191795000Y-134950000D01*
X197295000Y-134450000D02*
X197295000Y-134950000D01*
X191795000Y-134450000D02*
X197295000Y-134450000D01*
X190685000Y-143340000D02*
X190685000Y-138450000D01*
X186185000Y-143340000D02*
X190685000Y-143340000D01*
X186185000Y-144760000D02*
X186185000Y-143340000D01*
X197905000Y-144760000D02*
X186185000Y-144760000D01*
X197905000Y-138450000D02*
X197905000Y-144760000D01*
X190685000Y-133560000D02*
X190685000Y-138450000D01*
X186185000Y-133560000D02*
X190685000Y-133560000D01*
X186185000Y-132140000D02*
X186185000Y-133560000D01*
X197905000Y-132140000D02*
X186185000Y-132140000D01*
X197905000Y-138450000D02*
X197905000Y-132140000D01*
%TO.C,R1*%
X117350000Y-141381267D02*
X117350000Y-141038733D01*
X116330000Y-141381267D02*
X116330000Y-141038733D01*
%TO.C,R2*%
X130300000Y-141381267D02*
X130300000Y-141038733D01*
X131320000Y-141381267D02*
X131320000Y-141038733D01*
%TO.C,R3*%
X172548733Y-90295000D02*
X172891267Y-90295000D01*
X172548733Y-91315000D02*
X172891267Y-91315000D01*
%TO.C,R4*%
X173183733Y-77980000D02*
X173526267Y-77980000D01*
X173183733Y-76960000D02*
X173526267Y-76960000D01*
%TO.C,R5*%
X159260000Y-141536267D02*
X159260000Y-141193733D01*
X158240000Y-141536267D02*
X158240000Y-141193733D01*
%TO.C,R6*%
X144270000Y-141536267D02*
X144270000Y-141193733D01*
X145290000Y-141536267D02*
X145290000Y-141193733D01*
%TO.C,R7*%
X172548733Y-120775000D02*
X172891267Y-120775000D01*
X172548733Y-121795000D02*
X172891267Y-121795000D01*
%TO.C,R8*%
X154815000Y-149156267D02*
X154815000Y-148813733D01*
X153795000Y-149156267D02*
X153795000Y-148813733D01*
%TO.C,R9*%
X173183733Y-107440000D02*
X173526267Y-107440000D01*
X173183733Y-108460000D02*
X173526267Y-108460000D01*
%TO.C,R10*%
X155700000Y-149156267D02*
X155700000Y-148813733D01*
X156720000Y-149156267D02*
X156720000Y-148813733D01*
%TO.C,R11*%
X158625000Y-149156267D02*
X158625000Y-148813733D01*
X157605000Y-149156267D02*
X157605000Y-148813733D01*
%TO.C,R12*%
X159510000Y-149156267D02*
X159510000Y-148813733D01*
X160530000Y-149156267D02*
X160530000Y-148813733D01*
%TO.C,R13*%
X162435000Y-149156267D02*
X162435000Y-148813733D01*
X161415000Y-149156267D02*
X161415000Y-148813733D01*
%TO.C,R14*%
X163320000Y-149156267D02*
X163320000Y-148813733D01*
X164340000Y-149156267D02*
X164340000Y-148813733D01*
%TO.C,R15*%
X166245000Y-149156267D02*
X166245000Y-148813733D01*
X165225000Y-149156267D02*
X165225000Y-148813733D01*
%TO.C,U1*%
X178485000Y-130250000D02*
X180300000Y-130250000D01*
X178485000Y-130005000D02*
X178485000Y-130250000D01*
X174625000Y-130005000D02*
X178485000Y-130005000D01*
X170765000Y-130005000D02*
X170765000Y-130250000D01*
X174625000Y-130005000D02*
X170765000Y-130005000D01*
X178485000Y-148125000D02*
X178485000Y-147880000D01*
X174625000Y-148125000D02*
X178485000Y-148125000D01*
X170765000Y-148125000D02*
X170765000Y-147880000D01*
X174625000Y-148125000D02*
X170765000Y-148125000D01*
%TO.C,SW5*%
X161925000Y-65405000D02*
X161925000Y-79375000D01*
X161925000Y-79375000D02*
X175895000Y-79375000D01*
X175895000Y-79375000D02*
X175895000Y-65405000D01*
X175895000Y-65405000D02*
X161925000Y-65405000D01*
X169545000Y-76200000D02*
X168910000Y-76200000D01*
X168910000Y-76200000D02*
X168910000Y-75565000D01*
X168910000Y-75565000D02*
X168910000Y-76835000D01*
X168910000Y-76835000D02*
X168910000Y-76200000D01*
X168910000Y-76200000D02*
X168275000Y-75565000D01*
X168275000Y-75565000D02*
X168275000Y-76835000D01*
X168275000Y-76835000D02*
X168910000Y-76200000D01*
X167640000Y-76200000D02*
X168275000Y-76200000D01*
%TO.C,SW11*%
X167640000Y-91440000D02*
X168275000Y-91440000D01*
X168275000Y-92075000D02*
X168910000Y-91440000D01*
X168275000Y-90805000D02*
X168275000Y-92075000D01*
X168910000Y-91440000D02*
X168275000Y-90805000D01*
X168910000Y-92075000D02*
X168910000Y-91440000D01*
X168910000Y-90805000D02*
X168910000Y-92075000D01*
X168910000Y-91440000D02*
X168910000Y-90805000D01*
X169545000Y-91440000D02*
X168910000Y-91440000D01*
X175895000Y-80645000D02*
X161925000Y-80645000D01*
X175895000Y-94615000D02*
X175895000Y-80645000D01*
X161925000Y-94615000D02*
X175895000Y-94615000D01*
X161925000Y-80645000D02*
X161925000Y-94615000D01*
%TO.C,SW17*%
X161925000Y-95885000D02*
X161925000Y-109855000D01*
X161925000Y-109855000D02*
X175895000Y-109855000D01*
X175895000Y-109855000D02*
X175895000Y-95885000D01*
X175895000Y-95885000D02*
X161925000Y-95885000D01*
X169545000Y-106680000D02*
X168910000Y-106680000D01*
X168910000Y-106680000D02*
X168910000Y-106045000D01*
X168910000Y-106045000D02*
X168910000Y-107315000D01*
X168910000Y-107315000D02*
X168910000Y-106680000D01*
X168910000Y-106680000D02*
X168275000Y-106045000D01*
X168275000Y-106045000D02*
X168275000Y-107315000D01*
X168275000Y-107315000D02*
X168910000Y-106680000D01*
X167640000Y-106680000D02*
X168275000Y-106680000D01*
%TO.C,SW23*%
X167640000Y-121920000D02*
X168275000Y-121920000D01*
X168275000Y-122555000D02*
X168910000Y-121920000D01*
X168275000Y-121285000D02*
X168275000Y-122555000D01*
X168910000Y-121920000D02*
X168275000Y-121285000D01*
X168910000Y-122555000D02*
X168910000Y-121920000D01*
X168910000Y-121285000D02*
X168910000Y-122555000D01*
X168910000Y-121920000D02*
X168910000Y-121285000D01*
X169545000Y-121920000D02*
X168910000Y-121920000D01*
X175895000Y-111125000D02*
X161925000Y-111125000D01*
X175895000Y-125095000D02*
X175895000Y-111125000D01*
X161925000Y-125095000D02*
X175895000Y-125095000D01*
X161925000Y-111125000D02*
X161925000Y-125095000D01*
%TD*%
%TO.C,C1*%
D11*
X185696666Y-141357142D02*
X185744285Y-141404761D01*
X185887142Y-141452380D01*
X185982380Y-141452380D01*
X186125238Y-141404761D01*
X186220476Y-141309523D01*
X186268095Y-141214285D01*
X186315714Y-141023809D01*
X186315714Y-140880952D01*
X186268095Y-140690476D01*
X186220476Y-140595238D01*
X186125238Y-140500000D01*
X185982380Y-140452380D01*
X185887142Y-140452380D01*
X185744285Y-140500000D01*
X185696666Y-140547619D01*
X184744285Y-141452380D02*
X185315714Y-141452380D01*
X185030000Y-141452380D02*
X185030000Y-140452380D01*
X185125238Y-140595238D01*
X185220476Y-140690476D01*
X185315714Y-140738095D01*
%TO.C,D1*%
X112498095Y-77922380D02*
X112498095Y-76922380D01*
X112260000Y-76922380D01*
X112117142Y-76970000D01*
X112021904Y-77065238D01*
X111974285Y-77160476D01*
X111926666Y-77350952D01*
X111926666Y-77493809D01*
X111974285Y-77684285D01*
X112021904Y-77779523D01*
X112117142Y-77874761D01*
X112260000Y-77922380D01*
X112498095Y-77922380D01*
X110974285Y-77922380D02*
X111545714Y-77922380D01*
X111260000Y-77922380D02*
X111260000Y-76922380D01*
X111355238Y-77065238D01*
X111450476Y-77160476D01*
X111545714Y-77208095D01*
%TO.C,D2*%
X127738095Y-77922380D02*
X127738095Y-76922380D01*
X127500000Y-76922380D01*
X127357142Y-76970000D01*
X127261904Y-77065238D01*
X127214285Y-77160476D01*
X127166666Y-77350952D01*
X127166666Y-77493809D01*
X127214285Y-77684285D01*
X127261904Y-77779523D01*
X127357142Y-77874761D01*
X127500000Y-77922380D01*
X127738095Y-77922380D01*
X126785714Y-77017619D02*
X126738095Y-76970000D01*
X126642857Y-76922380D01*
X126404761Y-76922380D01*
X126309523Y-76970000D01*
X126261904Y-77017619D01*
X126214285Y-77112857D01*
X126214285Y-77208095D01*
X126261904Y-77350952D01*
X126833333Y-77922380D01*
X126214285Y-77922380D01*
%TO.C,D3*%
X142978095Y-77922380D02*
X142978095Y-76922380D01*
X142740000Y-76922380D01*
X142597142Y-76970000D01*
X142501904Y-77065238D01*
X142454285Y-77160476D01*
X142406666Y-77350952D01*
X142406666Y-77493809D01*
X142454285Y-77684285D01*
X142501904Y-77779523D01*
X142597142Y-77874761D01*
X142740000Y-77922380D01*
X142978095Y-77922380D01*
X142073333Y-76922380D02*
X141454285Y-76922380D01*
X141787619Y-77303333D01*
X141644761Y-77303333D01*
X141549523Y-77350952D01*
X141501904Y-77398571D01*
X141454285Y-77493809D01*
X141454285Y-77731904D01*
X141501904Y-77827142D01*
X141549523Y-77874761D01*
X141644761Y-77922380D01*
X141930476Y-77922380D01*
X142025714Y-77874761D01*
X142073333Y-77827142D01*
%TO.C,D4*%
X158218095Y-77922380D02*
X158218095Y-76922380D01*
X157980000Y-76922380D01*
X157837142Y-76970000D01*
X157741904Y-77065238D01*
X157694285Y-77160476D01*
X157646666Y-77350952D01*
X157646666Y-77493809D01*
X157694285Y-77684285D01*
X157741904Y-77779523D01*
X157837142Y-77874761D01*
X157980000Y-77922380D01*
X158218095Y-77922380D01*
X156789523Y-77255714D02*
X156789523Y-77922380D01*
X157027619Y-76874761D02*
X157265714Y-77589047D01*
X156646666Y-77589047D01*
%TO.C,D5*%
X164917380Y-81906904D02*
X163917380Y-81906904D01*
X163917380Y-82145000D01*
X163965000Y-82287857D01*
X164060238Y-82383095D01*
X164155476Y-82430714D01*
X164345952Y-82478333D01*
X164488809Y-82478333D01*
X164679285Y-82430714D01*
X164774523Y-82383095D01*
X164869761Y-82287857D01*
X164917380Y-82145000D01*
X164917380Y-81906904D01*
X163917380Y-83383095D02*
X163917380Y-82906904D01*
X164393571Y-82859285D01*
X164345952Y-82906904D01*
X164298333Y-83002142D01*
X164298333Y-83240238D01*
X164345952Y-83335476D01*
X164393571Y-83383095D01*
X164488809Y-83430714D01*
X164726904Y-83430714D01*
X164822142Y-83383095D01*
X164869761Y-83335476D01*
X164917380Y-83240238D01*
X164917380Y-83002142D01*
X164869761Y-82906904D01*
X164822142Y-82859285D01*
%TO.C,D6*%
X195048095Y-77922380D02*
X195048095Y-76922380D01*
X194810000Y-76922380D01*
X194667142Y-76970000D01*
X194571904Y-77065238D01*
X194524285Y-77160476D01*
X194476666Y-77350952D01*
X194476666Y-77493809D01*
X194524285Y-77684285D01*
X194571904Y-77779523D01*
X194667142Y-77874761D01*
X194810000Y-77922380D01*
X195048095Y-77922380D01*
X193619523Y-76922380D02*
X193810000Y-76922380D01*
X193905238Y-76970000D01*
X193952857Y-77017619D01*
X194048095Y-77160476D01*
X194095714Y-77350952D01*
X194095714Y-77731904D01*
X194048095Y-77827142D01*
X194000476Y-77874761D01*
X193905238Y-77922380D01*
X193714761Y-77922380D01*
X193619523Y-77874761D01*
X193571904Y-77827142D01*
X193524285Y-77731904D01*
X193524285Y-77493809D01*
X193571904Y-77398571D01*
X193619523Y-77350952D01*
X193714761Y-77303333D01*
X193905238Y-77303333D01*
X194000476Y-77350952D01*
X194048095Y-77398571D01*
X194095714Y-77493809D01*
%TO.C,D7*%
X112498095Y-93162380D02*
X112498095Y-92162380D01*
X112260000Y-92162380D01*
X112117142Y-92210000D01*
X112021904Y-92305238D01*
X111974285Y-92400476D01*
X111926666Y-92590952D01*
X111926666Y-92733809D01*
X111974285Y-92924285D01*
X112021904Y-93019523D01*
X112117142Y-93114761D01*
X112260000Y-93162380D01*
X112498095Y-93162380D01*
X111593333Y-92162380D02*
X110926666Y-92162380D01*
X111355238Y-93162380D01*
%TO.C,D8*%
X127738095Y-93162380D02*
X127738095Y-92162380D01*
X127500000Y-92162380D01*
X127357142Y-92210000D01*
X127261904Y-92305238D01*
X127214285Y-92400476D01*
X127166666Y-92590952D01*
X127166666Y-92733809D01*
X127214285Y-92924285D01*
X127261904Y-93019523D01*
X127357142Y-93114761D01*
X127500000Y-93162380D01*
X127738095Y-93162380D01*
X126595238Y-92590952D02*
X126690476Y-92543333D01*
X126738095Y-92495714D01*
X126785714Y-92400476D01*
X126785714Y-92352857D01*
X126738095Y-92257619D01*
X126690476Y-92210000D01*
X126595238Y-92162380D01*
X126404761Y-92162380D01*
X126309523Y-92210000D01*
X126261904Y-92257619D01*
X126214285Y-92352857D01*
X126214285Y-92400476D01*
X126261904Y-92495714D01*
X126309523Y-92543333D01*
X126404761Y-92590952D01*
X126595238Y-92590952D01*
X126690476Y-92638571D01*
X126738095Y-92686190D01*
X126785714Y-92781428D01*
X126785714Y-92971904D01*
X126738095Y-93067142D01*
X126690476Y-93114761D01*
X126595238Y-93162380D01*
X126404761Y-93162380D01*
X126309523Y-93114761D01*
X126261904Y-93067142D01*
X126214285Y-92971904D01*
X126214285Y-92781428D01*
X126261904Y-92686190D01*
X126309523Y-92638571D01*
X126404761Y-92590952D01*
%TO.C,D9*%
X142978095Y-93452380D02*
X142978095Y-92452380D01*
X142740000Y-92452380D01*
X142597142Y-92500000D01*
X142501904Y-92595238D01*
X142454285Y-92690476D01*
X142406666Y-92880952D01*
X142406666Y-93023809D01*
X142454285Y-93214285D01*
X142501904Y-93309523D01*
X142597142Y-93404761D01*
X142740000Y-93452380D01*
X142978095Y-93452380D01*
X141930476Y-93452380D02*
X141740000Y-93452380D01*
X141644761Y-93404761D01*
X141597142Y-93357142D01*
X141501904Y-93214285D01*
X141454285Y-93023809D01*
X141454285Y-92642857D01*
X141501904Y-92547619D01*
X141549523Y-92500000D01*
X141644761Y-92452380D01*
X141835238Y-92452380D01*
X141930476Y-92500000D01*
X141978095Y-92547619D01*
X142025714Y-92642857D01*
X142025714Y-92880952D01*
X141978095Y-92976190D01*
X141930476Y-93023809D01*
X141835238Y-93071428D01*
X141644761Y-93071428D01*
X141549523Y-93023809D01*
X141501904Y-92976190D01*
X141454285Y-92880952D01*
%TO.C,D10*%
X158694285Y-93162380D02*
X158694285Y-92162380D01*
X158456190Y-92162380D01*
X158313333Y-92210000D01*
X158218095Y-92305238D01*
X158170476Y-92400476D01*
X158122857Y-92590952D01*
X158122857Y-92733809D01*
X158170476Y-92924285D01*
X158218095Y-93019523D01*
X158313333Y-93114761D01*
X158456190Y-93162380D01*
X158694285Y-93162380D01*
X157170476Y-93162380D02*
X157741904Y-93162380D01*
X157456190Y-93162380D02*
X157456190Y-92162380D01*
X157551428Y-92305238D01*
X157646666Y-92400476D01*
X157741904Y-92448095D01*
X156551428Y-92162380D02*
X156456190Y-92162380D01*
X156360952Y-92210000D01*
X156313333Y-92257619D01*
X156265714Y-92352857D01*
X156218095Y-92543333D01*
X156218095Y-92781428D01*
X156265714Y-92971904D01*
X156313333Y-93067142D01*
X156360952Y-93114761D01*
X156456190Y-93162380D01*
X156551428Y-93162380D01*
X156646666Y-93114761D01*
X156694285Y-93067142D01*
X156741904Y-92971904D01*
X156789523Y-92781428D01*
X156789523Y-92543333D01*
X156741904Y-92352857D01*
X156694285Y-92257619D01*
X156646666Y-92210000D01*
X156551428Y-92162380D01*
%TO.C,D11*%
X164917380Y-96670714D02*
X163917380Y-96670714D01*
X163917380Y-96908809D01*
X163965000Y-97051666D01*
X164060238Y-97146904D01*
X164155476Y-97194523D01*
X164345952Y-97242142D01*
X164488809Y-97242142D01*
X164679285Y-97194523D01*
X164774523Y-97146904D01*
X164869761Y-97051666D01*
X164917380Y-96908809D01*
X164917380Y-96670714D01*
X164917380Y-98194523D02*
X164917380Y-97623095D01*
X164917380Y-97908809D02*
X163917380Y-97908809D01*
X164060238Y-97813571D01*
X164155476Y-97718333D01*
X164203095Y-97623095D01*
X164917380Y-99146904D02*
X164917380Y-98575476D01*
X164917380Y-98861190D02*
X163917380Y-98861190D01*
X164060238Y-98765952D01*
X164155476Y-98670714D01*
X164203095Y-98575476D01*
%TO.C,D12*%
X195524285Y-93162380D02*
X195524285Y-92162380D01*
X195286190Y-92162380D01*
X195143333Y-92210000D01*
X195048095Y-92305238D01*
X195000476Y-92400476D01*
X194952857Y-92590952D01*
X194952857Y-92733809D01*
X195000476Y-92924285D01*
X195048095Y-93019523D01*
X195143333Y-93114761D01*
X195286190Y-93162380D01*
X195524285Y-93162380D01*
X194000476Y-93162380D02*
X194571904Y-93162380D01*
X194286190Y-93162380D02*
X194286190Y-92162380D01*
X194381428Y-92305238D01*
X194476666Y-92400476D01*
X194571904Y-92448095D01*
X193619523Y-92257619D02*
X193571904Y-92210000D01*
X193476666Y-92162380D01*
X193238571Y-92162380D01*
X193143333Y-92210000D01*
X193095714Y-92257619D01*
X193048095Y-92352857D01*
X193048095Y-92448095D01*
X193095714Y-92590952D01*
X193667142Y-93162380D01*
X193048095Y-93162380D01*
%TO.C,D13*%
X112974285Y-108402380D02*
X112974285Y-107402380D01*
X112736190Y-107402380D01*
X112593333Y-107450000D01*
X112498095Y-107545238D01*
X112450476Y-107640476D01*
X112402857Y-107830952D01*
X112402857Y-107973809D01*
X112450476Y-108164285D01*
X112498095Y-108259523D01*
X112593333Y-108354761D01*
X112736190Y-108402380D01*
X112974285Y-108402380D01*
X111450476Y-108402380D02*
X112021904Y-108402380D01*
X111736190Y-108402380D02*
X111736190Y-107402380D01*
X111831428Y-107545238D01*
X111926666Y-107640476D01*
X112021904Y-107688095D01*
X111117142Y-107402380D02*
X110498095Y-107402380D01*
X110831428Y-107783333D01*
X110688571Y-107783333D01*
X110593333Y-107830952D01*
X110545714Y-107878571D01*
X110498095Y-107973809D01*
X110498095Y-108211904D01*
X110545714Y-108307142D01*
X110593333Y-108354761D01*
X110688571Y-108402380D01*
X110974285Y-108402380D01*
X111069523Y-108354761D01*
X111117142Y-108307142D01*
%TO.C,D14*%
X128214285Y-108402380D02*
X128214285Y-107402380D01*
X127976190Y-107402380D01*
X127833333Y-107450000D01*
X127738095Y-107545238D01*
X127690476Y-107640476D01*
X127642857Y-107830952D01*
X127642857Y-107973809D01*
X127690476Y-108164285D01*
X127738095Y-108259523D01*
X127833333Y-108354761D01*
X127976190Y-108402380D01*
X128214285Y-108402380D01*
X126690476Y-108402380D02*
X127261904Y-108402380D01*
X126976190Y-108402380D02*
X126976190Y-107402380D01*
X127071428Y-107545238D01*
X127166666Y-107640476D01*
X127261904Y-107688095D01*
X125833333Y-107735714D02*
X125833333Y-108402380D01*
X126071428Y-107354761D02*
X126309523Y-108069047D01*
X125690476Y-108069047D01*
%TO.C,D15*%
X143454285Y-108402380D02*
X143454285Y-107402380D01*
X143216190Y-107402380D01*
X143073333Y-107450000D01*
X142978095Y-107545238D01*
X142930476Y-107640476D01*
X142882857Y-107830952D01*
X142882857Y-107973809D01*
X142930476Y-108164285D01*
X142978095Y-108259523D01*
X143073333Y-108354761D01*
X143216190Y-108402380D01*
X143454285Y-108402380D01*
X141930476Y-108402380D02*
X142501904Y-108402380D01*
X142216190Y-108402380D02*
X142216190Y-107402380D01*
X142311428Y-107545238D01*
X142406666Y-107640476D01*
X142501904Y-107688095D01*
X141025714Y-107402380D02*
X141501904Y-107402380D01*
X141549523Y-107878571D01*
X141501904Y-107830952D01*
X141406666Y-107783333D01*
X141168571Y-107783333D01*
X141073333Y-107830952D01*
X141025714Y-107878571D01*
X140978095Y-107973809D01*
X140978095Y-108211904D01*
X141025714Y-108307142D01*
X141073333Y-108354761D01*
X141168571Y-108402380D01*
X141406666Y-108402380D01*
X141501904Y-108354761D01*
X141549523Y-108307142D01*
%TO.C,D16*%
X158694285Y-108402380D02*
X158694285Y-107402380D01*
X158456190Y-107402380D01*
X158313333Y-107450000D01*
X158218095Y-107545238D01*
X158170476Y-107640476D01*
X158122857Y-107830952D01*
X158122857Y-107973809D01*
X158170476Y-108164285D01*
X158218095Y-108259523D01*
X158313333Y-108354761D01*
X158456190Y-108402380D01*
X158694285Y-108402380D01*
X157170476Y-108402380D02*
X157741904Y-108402380D01*
X157456190Y-108402380D02*
X157456190Y-107402380D01*
X157551428Y-107545238D01*
X157646666Y-107640476D01*
X157741904Y-107688095D01*
X156313333Y-107402380D02*
X156503809Y-107402380D01*
X156599047Y-107450000D01*
X156646666Y-107497619D01*
X156741904Y-107640476D01*
X156789523Y-107830952D01*
X156789523Y-108211904D01*
X156741904Y-108307142D01*
X156694285Y-108354761D01*
X156599047Y-108402380D01*
X156408571Y-108402380D01*
X156313333Y-108354761D01*
X156265714Y-108307142D01*
X156218095Y-108211904D01*
X156218095Y-107973809D01*
X156265714Y-107878571D01*
X156313333Y-107830952D01*
X156408571Y-107783333D01*
X156599047Y-107783333D01*
X156694285Y-107830952D01*
X156741904Y-107878571D01*
X156789523Y-107973809D01*
%TO.C,D17*%
X164917380Y-111910714D02*
X163917380Y-111910714D01*
X163917380Y-112148809D01*
X163965000Y-112291666D01*
X164060238Y-112386904D01*
X164155476Y-112434523D01*
X164345952Y-112482142D01*
X164488809Y-112482142D01*
X164679285Y-112434523D01*
X164774523Y-112386904D01*
X164869761Y-112291666D01*
X164917380Y-112148809D01*
X164917380Y-111910714D01*
X164917380Y-113434523D02*
X164917380Y-112863095D01*
X164917380Y-113148809D02*
X163917380Y-113148809D01*
X164060238Y-113053571D01*
X164155476Y-112958333D01*
X164203095Y-112863095D01*
X163917380Y-113767857D02*
X163917380Y-114434523D01*
X164917380Y-114005952D01*
%TO.C,D18*%
X195524285Y-108402380D02*
X195524285Y-107402380D01*
X195286190Y-107402380D01*
X195143333Y-107450000D01*
X195048095Y-107545238D01*
X195000476Y-107640476D01*
X194952857Y-107830952D01*
X194952857Y-107973809D01*
X195000476Y-108164285D01*
X195048095Y-108259523D01*
X195143333Y-108354761D01*
X195286190Y-108402380D01*
X195524285Y-108402380D01*
X194000476Y-108402380D02*
X194571904Y-108402380D01*
X194286190Y-108402380D02*
X194286190Y-107402380D01*
X194381428Y-107545238D01*
X194476666Y-107640476D01*
X194571904Y-107688095D01*
X193429047Y-107830952D02*
X193524285Y-107783333D01*
X193571904Y-107735714D01*
X193619523Y-107640476D01*
X193619523Y-107592857D01*
X193571904Y-107497619D01*
X193524285Y-107450000D01*
X193429047Y-107402380D01*
X193238571Y-107402380D01*
X193143333Y-107450000D01*
X193095714Y-107497619D01*
X193048095Y-107592857D01*
X193048095Y-107640476D01*
X193095714Y-107735714D01*
X193143333Y-107783333D01*
X193238571Y-107830952D01*
X193429047Y-107830952D01*
X193524285Y-107878571D01*
X193571904Y-107926190D01*
X193619523Y-108021428D01*
X193619523Y-108211904D01*
X193571904Y-108307142D01*
X193524285Y-108354761D01*
X193429047Y-108402380D01*
X193238571Y-108402380D01*
X193143333Y-108354761D01*
X193095714Y-108307142D01*
X193048095Y-108211904D01*
X193048095Y-108021428D01*
X193095714Y-107926190D01*
X193143333Y-107878571D01*
X193238571Y-107830952D01*
%TO.C,D24*%
X195524285Y-123642380D02*
X195524285Y-122642380D01*
X195286190Y-122642380D01*
X195143333Y-122690000D01*
X195048095Y-122785238D01*
X195000476Y-122880476D01*
X194952857Y-123070952D01*
X194952857Y-123213809D01*
X195000476Y-123404285D01*
X195048095Y-123499523D01*
X195143333Y-123594761D01*
X195286190Y-123642380D01*
X195524285Y-123642380D01*
X194571904Y-122737619D02*
X194524285Y-122690000D01*
X194429047Y-122642380D01*
X194190952Y-122642380D01*
X194095714Y-122690000D01*
X194048095Y-122737619D01*
X194000476Y-122832857D01*
X194000476Y-122928095D01*
X194048095Y-123070952D01*
X194619523Y-123642380D01*
X194000476Y-123642380D01*
X193143333Y-122975714D02*
X193143333Y-123642380D01*
X193381428Y-122594761D02*
X193619523Y-123309047D01*
X193000476Y-123309047D01*
%TO.C,D19*%
X112974285Y-123642380D02*
X112974285Y-122642380D01*
X112736190Y-122642380D01*
X112593333Y-122690000D01*
X112498095Y-122785238D01*
X112450476Y-122880476D01*
X112402857Y-123070952D01*
X112402857Y-123213809D01*
X112450476Y-123404285D01*
X112498095Y-123499523D01*
X112593333Y-123594761D01*
X112736190Y-123642380D01*
X112974285Y-123642380D01*
X111450476Y-123642380D02*
X112021904Y-123642380D01*
X111736190Y-123642380D02*
X111736190Y-122642380D01*
X111831428Y-122785238D01*
X111926666Y-122880476D01*
X112021904Y-122928095D01*
X110974285Y-123642380D02*
X110783809Y-123642380D01*
X110688571Y-123594761D01*
X110640952Y-123547142D01*
X110545714Y-123404285D01*
X110498095Y-123213809D01*
X110498095Y-122832857D01*
X110545714Y-122737619D01*
X110593333Y-122690000D01*
X110688571Y-122642380D01*
X110879047Y-122642380D01*
X110974285Y-122690000D01*
X111021904Y-122737619D01*
X111069523Y-122832857D01*
X111069523Y-123070952D01*
X111021904Y-123166190D01*
X110974285Y-123213809D01*
X110879047Y-123261428D01*
X110688571Y-123261428D01*
X110593333Y-123213809D01*
X110545714Y-123166190D01*
X110498095Y-123070952D01*
%TO.C,D20*%
X128214285Y-123642380D02*
X128214285Y-122642380D01*
X127976190Y-122642380D01*
X127833333Y-122690000D01*
X127738095Y-122785238D01*
X127690476Y-122880476D01*
X127642857Y-123070952D01*
X127642857Y-123213809D01*
X127690476Y-123404285D01*
X127738095Y-123499523D01*
X127833333Y-123594761D01*
X127976190Y-123642380D01*
X128214285Y-123642380D01*
X127261904Y-122737619D02*
X127214285Y-122690000D01*
X127119047Y-122642380D01*
X126880952Y-122642380D01*
X126785714Y-122690000D01*
X126738095Y-122737619D01*
X126690476Y-122832857D01*
X126690476Y-122928095D01*
X126738095Y-123070952D01*
X127309523Y-123642380D01*
X126690476Y-123642380D01*
X126071428Y-122642380D02*
X125976190Y-122642380D01*
X125880952Y-122690000D01*
X125833333Y-122737619D01*
X125785714Y-122832857D01*
X125738095Y-123023333D01*
X125738095Y-123261428D01*
X125785714Y-123451904D01*
X125833333Y-123547142D01*
X125880952Y-123594761D01*
X125976190Y-123642380D01*
X126071428Y-123642380D01*
X126166666Y-123594761D01*
X126214285Y-123547142D01*
X126261904Y-123451904D01*
X126309523Y-123261428D01*
X126309523Y-123023333D01*
X126261904Y-122832857D01*
X126214285Y-122737619D01*
X126166666Y-122690000D01*
X126071428Y-122642380D01*
%TO.C,D21*%
X143454285Y-123642380D02*
X143454285Y-122642380D01*
X143216190Y-122642380D01*
X143073333Y-122690000D01*
X142978095Y-122785238D01*
X142930476Y-122880476D01*
X142882857Y-123070952D01*
X142882857Y-123213809D01*
X142930476Y-123404285D01*
X142978095Y-123499523D01*
X143073333Y-123594761D01*
X143216190Y-123642380D01*
X143454285Y-123642380D01*
X142501904Y-122737619D02*
X142454285Y-122690000D01*
X142359047Y-122642380D01*
X142120952Y-122642380D01*
X142025714Y-122690000D01*
X141978095Y-122737619D01*
X141930476Y-122832857D01*
X141930476Y-122928095D01*
X141978095Y-123070952D01*
X142549523Y-123642380D01*
X141930476Y-123642380D01*
X140978095Y-123642380D02*
X141549523Y-123642380D01*
X141263809Y-123642380D02*
X141263809Y-122642380D01*
X141359047Y-122785238D01*
X141454285Y-122880476D01*
X141549523Y-122928095D01*
%TO.C,D22*%
X158614285Y-123642380D02*
X158614285Y-122642380D01*
X158376190Y-122642380D01*
X158233333Y-122690000D01*
X158138095Y-122785238D01*
X158090476Y-122880476D01*
X158042857Y-123070952D01*
X158042857Y-123213809D01*
X158090476Y-123404285D01*
X158138095Y-123499523D01*
X158233333Y-123594761D01*
X158376190Y-123642380D01*
X158614285Y-123642380D01*
X157661904Y-122737619D02*
X157614285Y-122690000D01*
X157519047Y-122642380D01*
X157280952Y-122642380D01*
X157185714Y-122690000D01*
X157138095Y-122737619D01*
X157090476Y-122832857D01*
X157090476Y-122928095D01*
X157138095Y-123070952D01*
X157709523Y-123642380D01*
X157090476Y-123642380D01*
X156709523Y-122737619D02*
X156661904Y-122690000D01*
X156566666Y-122642380D01*
X156328571Y-122642380D01*
X156233333Y-122690000D01*
X156185714Y-122737619D01*
X156138095Y-122832857D01*
X156138095Y-122928095D01*
X156185714Y-123070952D01*
X156757142Y-123642380D01*
X156138095Y-123642380D01*
%TO.C,D23*%
X164917380Y-127150714D02*
X163917380Y-127150714D01*
X163917380Y-127388809D01*
X163965000Y-127531666D01*
X164060238Y-127626904D01*
X164155476Y-127674523D01*
X164345952Y-127722142D01*
X164488809Y-127722142D01*
X164679285Y-127674523D01*
X164774523Y-127626904D01*
X164869761Y-127531666D01*
X164917380Y-127388809D01*
X164917380Y-127150714D01*
X164012619Y-128103095D02*
X163965000Y-128150714D01*
X163917380Y-128245952D01*
X163917380Y-128484047D01*
X163965000Y-128579285D01*
X164012619Y-128626904D01*
X164107857Y-128674523D01*
X164203095Y-128674523D01*
X164345952Y-128626904D01*
X164917380Y-128055476D01*
X164917380Y-128674523D01*
X163917380Y-129007857D02*
X163917380Y-129626904D01*
X164298333Y-129293571D01*
X164298333Y-129436428D01*
X164345952Y-129531666D01*
X164393571Y-129579285D01*
X164488809Y-129626904D01*
X164726904Y-129626904D01*
X164822142Y-129579285D01*
X164869761Y-129531666D01*
X164917380Y-129436428D01*
X164917380Y-129150714D01*
X164869761Y-129055476D01*
X164822142Y-129007857D01*
%TO.C,D26*%
X118689285Y-128762380D02*
X118689285Y-127762380D01*
X118451190Y-127762380D01*
X118308333Y-127810000D01*
X118213095Y-127905238D01*
X118165476Y-128000476D01*
X118117857Y-128190952D01*
X118117857Y-128333809D01*
X118165476Y-128524285D01*
X118213095Y-128619523D01*
X118308333Y-128714761D01*
X118451190Y-128762380D01*
X118689285Y-128762380D01*
X117736904Y-127857619D02*
X117689285Y-127810000D01*
X117594047Y-127762380D01*
X117355952Y-127762380D01*
X117260714Y-127810000D01*
X117213095Y-127857619D01*
X117165476Y-127952857D01*
X117165476Y-128048095D01*
X117213095Y-128190952D01*
X117784523Y-128762380D01*
X117165476Y-128762380D01*
X116308333Y-127762380D02*
X116498809Y-127762380D01*
X116594047Y-127810000D01*
X116641666Y-127857619D01*
X116736904Y-128000476D01*
X116784523Y-128190952D01*
X116784523Y-128571904D01*
X116736904Y-128667142D01*
X116689285Y-128714761D01*
X116594047Y-128762380D01*
X116403571Y-128762380D01*
X116308333Y-128714761D01*
X116260714Y-128667142D01*
X116213095Y-128571904D01*
X116213095Y-128333809D01*
X116260714Y-128238571D01*
X116308333Y-128190952D01*
X116403571Y-128143333D01*
X116594047Y-128143333D01*
X116689285Y-128190952D01*
X116736904Y-128238571D01*
X116784523Y-128333809D01*
%TO.C,D27*%
X132564285Y-128762380D02*
X132564285Y-127762380D01*
X132326190Y-127762380D01*
X132183333Y-127810000D01*
X132088095Y-127905238D01*
X132040476Y-128000476D01*
X131992857Y-128190952D01*
X131992857Y-128333809D01*
X132040476Y-128524285D01*
X132088095Y-128619523D01*
X132183333Y-128714761D01*
X132326190Y-128762380D01*
X132564285Y-128762380D01*
X131611904Y-127857619D02*
X131564285Y-127810000D01*
X131469047Y-127762380D01*
X131230952Y-127762380D01*
X131135714Y-127810000D01*
X131088095Y-127857619D01*
X131040476Y-127952857D01*
X131040476Y-128048095D01*
X131088095Y-128190952D01*
X131659523Y-128762380D01*
X131040476Y-128762380D01*
X130707142Y-127762380D02*
X130040476Y-127762380D01*
X130469047Y-128762380D01*
%TO.C,D30*%
X161139285Y-131302380D02*
X161139285Y-130302380D01*
X160901190Y-130302380D01*
X160758333Y-130350000D01*
X160663095Y-130445238D01*
X160615476Y-130540476D01*
X160567857Y-130730952D01*
X160567857Y-130873809D01*
X160615476Y-131064285D01*
X160663095Y-131159523D01*
X160758333Y-131254761D01*
X160901190Y-131302380D01*
X161139285Y-131302380D01*
X160234523Y-130302380D02*
X159615476Y-130302380D01*
X159948809Y-130683333D01*
X159805952Y-130683333D01*
X159710714Y-130730952D01*
X159663095Y-130778571D01*
X159615476Y-130873809D01*
X159615476Y-131111904D01*
X159663095Y-131207142D01*
X159710714Y-131254761D01*
X159805952Y-131302380D01*
X160091666Y-131302380D01*
X160186904Y-131254761D01*
X160234523Y-131207142D01*
X158996428Y-130302380D02*
X158901190Y-130302380D01*
X158805952Y-130350000D01*
X158758333Y-130397619D01*
X158710714Y-130492857D01*
X158663095Y-130683333D01*
X158663095Y-130921428D01*
X158710714Y-131111904D01*
X158758333Y-131207142D01*
X158805952Y-131254761D01*
X158901190Y-131302380D01*
X158996428Y-131302380D01*
X159091666Y-131254761D01*
X159139285Y-131207142D01*
X159186904Y-131111904D01*
X159234523Y-130921428D01*
X159234523Y-130683333D01*
X159186904Y-130492857D01*
X159139285Y-130397619D01*
X159091666Y-130350000D01*
X158996428Y-130302380D01*
%TO.C,D31*%
X146534285Y-128762380D02*
X146534285Y-127762380D01*
X146296190Y-127762380D01*
X146153333Y-127810000D01*
X146058095Y-127905238D01*
X146010476Y-128000476D01*
X145962857Y-128190952D01*
X145962857Y-128333809D01*
X146010476Y-128524285D01*
X146058095Y-128619523D01*
X146153333Y-128714761D01*
X146296190Y-128762380D01*
X146534285Y-128762380D01*
X145629523Y-127762380D02*
X145010476Y-127762380D01*
X145343809Y-128143333D01*
X145200952Y-128143333D01*
X145105714Y-128190952D01*
X145058095Y-128238571D01*
X145010476Y-128333809D01*
X145010476Y-128571904D01*
X145058095Y-128667142D01*
X145105714Y-128714761D01*
X145200952Y-128762380D01*
X145486666Y-128762380D01*
X145581904Y-128714761D01*
X145629523Y-128667142D01*
X144058095Y-128762380D02*
X144629523Y-128762380D01*
X144343809Y-128762380D02*
X144343809Y-127762380D01*
X144439047Y-127905238D01*
X144534285Y-128000476D01*
X144629523Y-128048095D01*
%TO.C,J1*%
X184547380Y-138116666D02*
X185261666Y-138116666D01*
X185404523Y-138069047D01*
X185499761Y-137973809D01*
X185547380Y-137830952D01*
X185547380Y-137735714D01*
X185547380Y-139116666D02*
X185547380Y-138545238D01*
X185547380Y-138830952D02*
X184547380Y-138830952D01*
X184690238Y-138735714D01*
X184785476Y-138640476D01*
X184833095Y-138545238D01*
%TO.C,R1*%
X118722380Y-141043333D02*
X118246190Y-140710000D01*
X118722380Y-140471904D02*
X117722380Y-140471904D01*
X117722380Y-140852857D01*
X117770000Y-140948095D01*
X117817619Y-140995714D01*
X117912857Y-141043333D01*
X118055714Y-141043333D01*
X118150952Y-140995714D01*
X118198571Y-140948095D01*
X118246190Y-140852857D01*
X118246190Y-140471904D01*
X118722380Y-141995714D02*
X118722380Y-141424285D01*
X118722380Y-141710000D02*
X117722380Y-141710000D01*
X117865238Y-141614761D01*
X117960476Y-141519523D01*
X118008095Y-141424285D01*
%TO.C,R2*%
X132692380Y-141043333D02*
X132216190Y-140710000D01*
X132692380Y-140471904D02*
X131692380Y-140471904D01*
X131692380Y-140852857D01*
X131740000Y-140948095D01*
X131787619Y-140995714D01*
X131882857Y-141043333D01*
X132025714Y-141043333D01*
X132120952Y-140995714D01*
X132168571Y-140948095D01*
X132216190Y-140852857D01*
X132216190Y-140471904D01*
X131787619Y-141424285D02*
X131740000Y-141471904D01*
X131692380Y-141567142D01*
X131692380Y-141805238D01*
X131740000Y-141900476D01*
X131787619Y-141948095D01*
X131882857Y-141995714D01*
X131978095Y-141995714D01*
X132120952Y-141948095D01*
X132692380Y-141376666D01*
X132692380Y-141995714D01*
%TO.C,R3*%
X172886666Y-92687380D02*
X173220000Y-92211190D01*
X173458095Y-92687380D02*
X173458095Y-91687380D01*
X173077142Y-91687380D01*
X172981904Y-91735000D01*
X172934285Y-91782619D01*
X172886666Y-91877857D01*
X172886666Y-92020714D01*
X172934285Y-92115952D01*
X172981904Y-92163571D01*
X173077142Y-92211190D01*
X173458095Y-92211190D01*
X172553333Y-91687380D02*
X171934285Y-91687380D01*
X172267619Y-92068333D01*
X172124761Y-92068333D01*
X172029523Y-92115952D01*
X171981904Y-92163571D01*
X171934285Y-92258809D01*
X171934285Y-92496904D01*
X171981904Y-92592142D01*
X172029523Y-92639761D01*
X172124761Y-92687380D01*
X172410476Y-92687380D01*
X172505714Y-92639761D01*
X172553333Y-92592142D01*
%TO.C,R4*%
X173521666Y-79352380D02*
X173855000Y-78876190D01*
X174093095Y-79352380D02*
X174093095Y-78352380D01*
X173712142Y-78352380D01*
X173616904Y-78400000D01*
X173569285Y-78447619D01*
X173521666Y-78542857D01*
X173521666Y-78685714D01*
X173569285Y-78780952D01*
X173616904Y-78828571D01*
X173712142Y-78876190D01*
X174093095Y-78876190D01*
X172664523Y-78685714D02*
X172664523Y-79352380D01*
X172902619Y-78304761D02*
X173140714Y-79019047D01*
X172521666Y-79019047D01*
%TO.C,R5*%
X160632380Y-141198333D02*
X160156190Y-140865000D01*
X160632380Y-140626904D02*
X159632380Y-140626904D01*
X159632380Y-141007857D01*
X159680000Y-141103095D01*
X159727619Y-141150714D01*
X159822857Y-141198333D01*
X159965714Y-141198333D01*
X160060952Y-141150714D01*
X160108571Y-141103095D01*
X160156190Y-141007857D01*
X160156190Y-140626904D01*
X159632380Y-142103095D02*
X159632380Y-141626904D01*
X160108571Y-141579285D01*
X160060952Y-141626904D01*
X160013333Y-141722142D01*
X160013333Y-141960238D01*
X160060952Y-142055476D01*
X160108571Y-142103095D01*
X160203809Y-142150714D01*
X160441904Y-142150714D01*
X160537142Y-142103095D01*
X160584761Y-142055476D01*
X160632380Y-141960238D01*
X160632380Y-141722142D01*
X160584761Y-141626904D01*
X160537142Y-141579285D01*
%TO.C,R6*%
X146662380Y-141198333D02*
X146186190Y-140865000D01*
X146662380Y-140626904D02*
X145662380Y-140626904D01*
X145662380Y-141007857D01*
X145710000Y-141103095D01*
X145757619Y-141150714D01*
X145852857Y-141198333D01*
X145995714Y-141198333D01*
X146090952Y-141150714D01*
X146138571Y-141103095D01*
X146186190Y-141007857D01*
X146186190Y-140626904D01*
X145662380Y-142055476D02*
X145662380Y-141865000D01*
X145710000Y-141769761D01*
X145757619Y-141722142D01*
X145900476Y-141626904D01*
X146090952Y-141579285D01*
X146471904Y-141579285D01*
X146567142Y-141626904D01*
X146614761Y-141674523D01*
X146662380Y-141769761D01*
X146662380Y-141960238D01*
X146614761Y-142055476D01*
X146567142Y-142103095D01*
X146471904Y-142150714D01*
X146233809Y-142150714D01*
X146138571Y-142103095D01*
X146090952Y-142055476D01*
X146043333Y-141960238D01*
X146043333Y-141769761D01*
X146090952Y-141674523D01*
X146138571Y-141626904D01*
X146233809Y-141579285D01*
%TO.C,R7*%
X172886666Y-123167380D02*
X173220000Y-122691190D01*
X173458095Y-123167380D02*
X173458095Y-122167380D01*
X173077142Y-122167380D01*
X172981904Y-122215000D01*
X172934285Y-122262619D01*
X172886666Y-122357857D01*
X172886666Y-122500714D01*
X172934285Y-122595952D01*
X172981904Y-122643571D01*
X173077142Y-122691190D01*
X173458095Y-122691190D01*
X172553333Y-122167380D02*
X171886666Y-122167380D01*
X172315238Y-123167380D01*
%TO.C,R8*%
X154757380Y-151753333D02*
X154281190Y-151420000D01*
X154757380Y-151181904D02*
X153757380Y-151181904D01*
X153757380Y-151562857D01*
X153805000Y-151658095D01*
X153852619Y-151705714D01*
X153947857Y-151753333D01*
X154090714Y-151753333D01*
X154185952Y-151705714D01*
X154233571Y-151658095D01*
X154281190Y-151562857D01*
X154281190Y-151181904D01*
X154185952Y-152324761D02*
X154138333Y-152229523D01*
X154090714Y-152181904D01*
X153995476Y-152134285D01*
X153947857Y-152134285D01*
X153852619Y-152181904D01*
X153805000Y-152229523D01*
X153757380Y-152324761D01*
X153757380Y-152515238D01*
X153805000Y-152610476D01*
X153852619Y-152658095D01*
X153947857Y-152705714D01*
X153995476Y-152705714D01*
X154090714Y-152658095D01*
X154138333Y-152610476D01*
X154185952Y-152515238D01*
X154185952Y-152324761D01*
X154233571Y-152229523D01*
X154281190Y-152181904D01*
X154376428Y-152134285D01*
X154566904Y-152134285D01*
X154662142Y-152181904D01*
X154709761Y-152229523D01*
X154757380Y-152324761D01*
X154757380Y-152515238D01*
X154709761Y-152610476D01*
X154662142Y-152658095D01*
X154566904Y-152705714D01*
X154376428Y-152705714D01*
X154281190Y-152658095D01*
X154233571Y-152610476D01*
X154185952Y-152515238D01*
%TO.C,R9*%
X173521666Y-109832380D02*
X173855000Y-109356190D01*
X174093095Y-109832380D02*
X174093095Y-108832380D01*
X173712142Y-108832380D01*
X173616904Y-108880000D01*
X173569285Y-108927619D01*
X173521666Y-109022857D01*
X173521666Y-109165714D01*
X173569285Y-109260952D01*
X173616904Y-109308571D01*
X173712142Y-109356190D01*
X174093095Y-109356190D01*
X173045476Y-109832380D02*
X172855000Y-109832380D01*
X172759761Y-109784761D01*
X172712142Y-109737142D01*
X172616904Y-109594285D01*
X172569285Y-109403809D01*
X172569285Y-109022857D01*
X172616904Y-108927619D01*
X172664523Y-108880000D01*
X172759761Y-108832380D01*
X172950238Y-108832380D01*
X173045476Y-108880000D01*
X173093095Y-108927619D01*
X173140714Y-109022857D01*
X173140714Y-109260952D01*
X173093095Y-109356190D01*
X173045476Y-109403809D01*
X172950238Y-109451428D01*
X172759761Y-109451428D01*
X172664523Y-109403809D01*
X172616904Y-109356190D01*
X172569285Y-109260952D01*
%TO.C,R10*%
X156781381Y-151597143D02*
X156305191Y-151263810D01*
X156781381Y-151025715D02*
X155781381Y-151025715D01*
X155781381Y-151406667D01*
X155829001Y-151501905D01*
X155876620Y-151549524D01*
X155971858Y-151597143D01*
X156114715Y-151597143D01*
X156209953Y-151549524D01*
X156257572Y-151501905D01*
X156305191Y-151406667D01*
X156305191Y-151025715D01*
X156781381Y-152549524D02*
X156781381Y-151978096D01*
X156781381Y-152263810D02*
X155781381Y-152263810D01*
X155924239Y-152168572D01*
X156019477Y-152073334D01*
X156067096Y-151978096D01*
X155781381Y-153168572D02*
X155781381Y-153263810D01*
X155829001Y-153359048D01*
X155876620Y-153406667D01*
X155971858Y-153454286D01*
X156162334Y-153501905D01*
X156400429Y-153501905D01*
X156590905Y-153454286D01*
X156686143Y-153406667D01*
X156733762Y-153359048D01*
X156781381Y-153263810D01*
X156781381Y-153168572D01*
X156733762Y-153073334D01*
X156686143Y-153025715D01*
X156590905Y-152978096D01*
X156400429Y-152930477D01*
X156162334Y-152930477D01*
X155971858Y-152978096D01*
X155876620Y-153025715D01*
X155829001Y-153073334D01*
X155781381Y-153168572D01*
%TO.C,R11*%
X158716381Y-151597143D02*
X158240191Y-151263810D01*
X158716381Y-151025715D02*
X157716381Y-151025715D01*
X157716381Y-151406667D01*
X157764001Y-151501905D01*
X157811620Y-151549524D01*
X157906858Y-151597143D01*
X158049715Y-151597143D01*
X158144953Y-151549524D01*
X158192572Y-151501905D01*
X158240191Y-151406667D01*
X158240191Y-151025715D01*
X158716381Y-152549524D02*
X158716381Y-151978096D01*
X158716381Y-152263810D02*
X157716381Y-152263810D01*
X157859239Y-152168572D01*
X157954477Y-152073334D01*
X158002096Y-151978096D01*
X158716381Y-153501905D02*
X158716381Y-152930477D01*
X158716381Y-153216191D02*
X157716381Y-153216191D01*
X157859239Y-153120953D01*
X157954477Y-153025715D01*
X158002096Y-152930477D01*
%TO.C,R12*%
X160472380Y-151277142D02*
X159996190Y-150943809D01*
X160472380Y-150705714D02*
X159472380Y-150705714D01*
X159472380Y-151086666D01*
X159520000Y-151181904D01*
X159567619Y-151229523D01*
X159662857Y-151277142D01*
X159805714Y-151277142D01*
X159900952Y-151229523D01*
X159948571Y-151181904D01*
X159996190Y-151086666D01*
X159996190Y-150705714D01*
X160472380Y-152229523D02*
X160472380Y-151658095D01*
X160472380Y-151943809D02*
X159472380Y-151943809D01*
X159615238Y-151848571D01*
X159710476Y-151753333D01*
X159758095Y-151658095D01*
X159567619Y-152610476D02*
X159520000Y-152658095D01*
X159472380Y-152753333D01*
X159472380Y-152991428D01*
X159520000Y-153086666D01*
X159567619Y-153134285D01*
X159662857Y-153181904D01*
X159758095Y-153181904D01*
X159900952Y-153134285D01*
X160472380Y-152562857D01*
X160472380Y-153181904D01*
%TO.C,R13*%
X162556381Y-151597143D02*
X162080191Y-151263810D01*
X162556381Y-151025715D02*
X161556381Y-151025715D01*
X161556381Y-151406667D01*
X161604001Y-151501905D01*
X161651620Y-151549524D01*
X161746858Y-151597143D01*
X161889715Y-151597143D01*
X161984953Y-151549524D01*
X162032572Y-151501905D01*
X162080191Y-151406667D01*
X162080191Y-151025715D01*
X162556381Y-152549524D02*
X162556381Y-151978096D01*
X162556381Y-152263810D02*
X161556381Y-152263810D01*
X161699239Y-152168572D01*
X161794477Y-152073334D01*
X161842096Y-151978096D01*
X161556381Y-152882858D02*
X161556381Y-153501905D01*
X161937334Y-153168572D01*
X161937334Y-153311429D01*
X161984953Y-153406667D01*
X162032572Y-153454286D01*
X162127810Y-153501905D01*
X162365905Y-153501905D01*
X162461143Y-153454286D01*
X162508762Y-153406667D01*
X162556381Y-153311429D01*
X162556381Y-153025715D01*
X162508762Y-152930477D01*
X162461143Y-152882858D01*
%TO.C,R14*%
X164491381Y-151597143D02*
X164015191Y-151263810D01*
X164491381Y-151025715D02*
X163491381Y-151025715D01*
X163491381Y-151406667D01*
X163539001Y-151501905D01*
X163586620Y-151549524D01*
X163681858Y-151597143D01*
X163824715Y-151597143D01*
X163919953Y-151549524D01*
X163967572Y-151501905D01*
X164015191Y-151406667D01*
X164015191Y-151025715D01*
X164491381Y-152549524D02*
X164491381Y-151978096D01*
X164491381Y-152263810D02*
X163491381Y-152263810D01*
X163634239Y-152168572D01*
X163729477Y-152073334D01*
X163777096Y-151978096D01*
X163824715Y-153406667D02*
X164491381Y-153406667D01*
X163443762Y-153168572D02*
X164158048Y-152930477D01*
X164158048Y-153549524D01*
%TO.C,R15*%
X166426381Y-151597143D02*
X165950191Y-151263810D01*
X166426381Y-151025715D02*
X165426381Y-151025715D01*
X165426381Y-151406667D01*
X165474001Y-151501905D01*
X165521620Y-151549524D01*
X165616858Y-151597143D01*
X165759715Y-151597143D01*
X165854953Y-151549524D01*
X165902572Y-151501905D01*
X165950191Y-151406667D01*
X165950191Y-151025715D01*
X166426381Y-152549524D02*
X166426381Y-151978096D01*
X166426381Y-152263810D02*
X165426381Y-152263810D01*
X165569239Y-152168572D01*
X165664477Y-152073334D01*
X165712096Y-151978096D01*
X165426381Y-153454286D02*
X165426381Y-152978096D01*
X165902572Y-152930477D01*
X165854953Y-152978096D01*
X165807334Y-153073334D01*
X165807334Y-153311429D01*
X165854953Y-153406667D01*
X165902572Y-153454286D01*
X165997810Y-153501905D01*
X166235905Y-153501905D01*
X166331143Y-153454286D01*
X166378762Y-153406667D01*
X166426381Y-153311429D01*
X166426381Y-153073334D01*
X166378762Y-152978096D01*
X166331143Y-152930477D01*
%TO.C,U1*%
X175386904Y-128617380D02*
X175386904Y-129426904D01*
X175339285Y-129522142D01*
X175291666Y-129569761D01*
X175196428Y-129617380D01*
X175005952Y-129617380D01*
X174910714Y-129569761D01*
X174863095Y-129522142D01*
X174815476Y-129426904D01*
X174815476Y-128617380D01*
X173815476Y-129617380D02*
X174386904Y-129617380D01*
X174101190Y-129617380D02*
X174101190Y-128617380D01*
X174196428Y-128760238D01*
X174291666Y-128855476D01*
X174386904Y-128903095D01*
%TD*%
M02*
