%TF.GenerationSoftware,KiCad,Pcbnew,(5.1.6)-1*%
%TF.CreationDate,2021-04-12T23:45:45+02:00*%
%TF.ProjectId,08_Main_Gauche,30385f4d-6169-46e5-9f47-61756368652e,rev?*%
%TF.SameCoordinates,Original*%
%TF.FileFunction,Other,Fab,Top*%
%FSLAX46Y46*%
G04 Gerber Fmt 4.6, Leading zero omitted, Abs format (unit mm)*
G04 Created by KiCad (PCBNEW (5.1.6)-1) date 2021-04-12 23:45:45*
%MOMM*%
%LPD*%
G01*
G04 APERTURE LIST*
%TA.AperFunction,Profile*%
%ADD10C,0.150000*%
%TD*%
%ADD11C,0.100000*%
%ADD12C,0.120000*%
%ADD13C,0.150000*%
G04 APERTURE END LIST*
D10*
X180000000Y-55000000D02*
X195000000Y-55000000D01*
X157000000Y-55000000D02*
X180000000Y-55000000D01*
X195000000Y-55000000D02*
G75*
G02*
X200000000Y-60000000I0J-5000000D01*
G01*
X200000000Y-150000000D02*
G75*
G02*
X195000000Y-155000000I-5000000J0D01*
G01*
X105000000Y-155000000D02*
G75*
G02*
X100000000Y-150000000I0J5000000D01*
G01*
X100000000Y-60000000D02*
G75*
G02*
X105000000Y-55000000I5000000J0D01*
G01*
X100000000Y-150000000D02*
X100000000Y-60000000D01*
X195000000Y-155000000D02*
X105000000Y-155000000D01*
X200000000Y-60000000D02*
X200000000Y-150000000D01*
X105000000Y-55000000D02*
X157000000Y-55000000D01*
D11*
%TO.C,SW1*%
X101600000Y-66040000D02*
X114300000Y-66040000D01*
X114300000Y-66040000D02*
X114300000Y-78740000D01*
X114300000Y-78740000D02*
X101600000Y-78740000D01*
X101600000Y-78740000D02*
X101600000Y-66040000D01*
%TO.C,SW2*%
X116840000Y-78740000D02*
X116840000Y-66040000D01*
X129540000Y-78740000D02*
X116840000Y-78740000D01*
X129540000Y-66040000D02*
X129540000Y-78740000D01*
X116840000Y-66040000D02*
X129540000Y-66040000D01*
%TO.C,SW3*%
X132080000Y-66040000D02*
X144780000Y-66040000D01*
X144780000Y-66040000D02*
X144780000Y-78740000D01*
X144780000Y-78740000D02*
X132080000Y-78740000D01*
X132080000Y-78740000D02*
X132080000Y-66040000D01*
%TO.C,SW4*%
X147320000Y-78740000D02*
X147320000Y-66040000D01*
X160020000Y-78740000D02*
X147320000Y-78740000D01*
X160020000Y-66040000D02*
X160020000Y-78740000D01*
X147320000Y-66040000D02*
X160020000Y-66040000D01*
%TO.C,SW6*%
X184150000Y-78740000D02*
X184150000Y-66040000D01*
X196850000Y-78740000D02*
X184150000Y-78740000D01*
X196850000Y-66040000D02*
X196850000Y-78740000D01*
X184150000Y-66040000D02*
X196850000Y-66040000D01*
%TO.C,SW7*%
X101600000Y-81280000D02*
X114300000Y-81280000D01*
X114300000Y-81280000D02*
X114300000Y-93980000D01*
X114300000Y-93980000D02*
X101600000Y-93980000D01*
X101600000Y-93980000D02*
X101600000Y-81280000D01*
%TO.C,SW8*%
X116840000Y-93980000D02*
X116840000Y-81280000D01*
X129540000Y-93980000D02*
X116840000Y-93980000D01*
X129540000Y-81280000D02*
X129540000Y-93980000D01*
X116840000Y-81280000D02*
X129540000Y-81280000D01*
%TO.C,SW9*%
X132080000Y-81280000D02*
X144780000Y-81280000D01*
X144780000Y-81280000D02*
X144780000Y-93980000D01*
X144780000Y-93980000D02*
X132080000Y-93980000D01*
X132080000Y-93980000D02*
X132080000Y-81280000D01*
%TO.C,SW10*%
X147320000Y-93980000D02*
X147320000Y-81280000D01*
X160020000Y-93980000D02*
X147320000Y-93980000D01*
X160020000Y-81280000D02*
X160020000Y-93980000D01*
X147320000Y-81280000D02*
X160020000Y-81280000D01*
%TO.C,SW12*%
X184150000Y-81280000D02*
X196850000Y-81280000D01*
X196850000Y-81280000D02*
X196850000Y-93980000D01*
X196850000Y-93980000D02*
X184150000Y-93980000D01*
X184150000Y-93980000D02*
X184150000Y-81280000D01*
%TO.C,SW13*%
X101600000Y-109220000D02*
X101600000Y-96520000D01*
X114300000Y-109220000D02*
X101600000Y-109220000D01*
X114300000Y-96520000D02*
X114300000Y-109220000D01*
X101600000Y-96520000D02*
X114300000Y-96520000D01*
%TO.C,SW14*%
X116840000Y-96520000D02*
X129540000Y-96520000D01*
X129540000Y-96520000D02*
X129540000Y-109220000D01*
X129540000Y-109220000D02*
X116840000Y-109220000D01*
X116840000Y-109220000D02*
X116840000Y-96520000D01*
%TO.C,SW15*%
X132080000Y-109220000D02*
X132080000Y-96520000D01*
X144780000Y-109220000D02*
X132080000Y-109220000D01*
X144780000Y-96520000D02*
X144780000Y-109220000D01*
X132080000Y-96520000D02*
X144780000Y-96520000D01*
%TO.C,SW16*%
X147320000Y-96520000D02*
X160020000Y-96520000D01*
X160020000Y-96520000D02*
X160020000Y-109220000D01*
X160020000Y-109220000D02*
X147320000Y-109220000D01*
X147320000Y-109220000D02*
X147320000Y-96520000D01*
%TO.C,SW18*%
X184150000Y-109220000D02*
X184150000Y-96520000D01*
X196850000Y-109220000D02*
X184150000Y-109220000D01*
X196850000Y-96520000D02*
X196850000Y-109220000D01*
X184150000Y-96520000D02*
X196850000Y-96520000D01*
%TO.C,SW24*%
X184150000Y-111760000D02*
X196850000Y-111760000D01*
X196850000Y-111760000D02*
X196850000Y-124460000D01*
X196850000Y-124460000D02*
X184150000Y-124460000D01*
X184150000Y-124460000D02*
X184150000Y-111760000D01*
%TO.C,SW19*%
X101600000Y-124460000D02*
X101600000Y-111760000D01*
X114300000Y-124460000D02*
X101600000Y-124460000D01*
X114300000Y-111760000D02*
X114300000Y-124460000D01*
X101600000Y-111760000D02*
X114300000Y-111760000D01*
%TO.C,SW20*%
X116840000Y-124460000D02*
X116840000Y-111760000D01*
X129540000Y-124460000D02*
X116840000Y-124460000D01*
X129540000Y-111760000D02*
X129540000Y-124460000D01*
X116840000Y-111760000D02*
X129540000Y-111760000D01*
%TO.C,SW21*%
X132080000Y-124460000D02*
X132080000Y-111760000D01*
X144780000Y-124460000D02*
X132080000Y-124460000D01*
X144780000Y-111760000D02*
X144780000Y-124460000D01*
X132080000Y-111760000D02*
X144780000Y-111760000D01*
%TO.C,SW22*%
X147320000Y-111760000D02*
X160020000Y-111760000D01*
X160020000Y-111760000D02*
X160020000Y-124460000D01*
X160020000Y-124460000D02*
X147320000Y-124460000D01*
X147320000Y-124460000D02*
X147320000Y-111760000D01*
D12*
%TO.C,SW25*%
X109475000Y-129795000D02*
X123475000Y-129795000D01*
X123475000Y-129795000D02*
X123475000Y-144795000D01*
X123475000Y-144795000D02*
X109475000Y-144795000D01*
X109475000Y-144795000D02*
X109475000Y-129795000D01*
%TO.C,SW26*%
X124000000Y-144795000D02*
X124000000Y-129795000D01*
X138000000Y-144795000D02*
X124000000Y-144795000D01*
X138000000Y-129795000D02*
X138000000Y-144795000D01*
X124000000Y-129795000D02*
X138000000Y-129795000D01*
%TO.C,SW27*%
X153020000Y-129795000D02*
X167020000Y-129795000D01*
X167020000Y-129795000D02*
X167020000Y-144795000D01*
X167020000Y-144795000D02*
X153020000Y-144795000D01*
X153020000Y-144795000D02*
X153020000Y-129795000D01*
%TO.C,SW28*%
X138605000Y-144810000D02*
X138605000Y-129810000D01*
X152605000Y-144810000D02*
X138605000Y-144810000D01*
X152605000Y-129810000D02*
X152605000Y-144810000D01*
X138605000Y-129810000D02*
X152605000Y-129810000D01*
D11*
%TO.C,SW5*%
X162560000Y-66040000D02*
X175260000Y-66040000D01*
X175260000Y-66040000D02*
X175260000Y-78740000D01*
X175260000Y-78740000D02*
X162560000Y-78740000D01*
X162560000Y-78740000D02*
X162560000Y-66040000D01*
%TO.C,SW11*%
X162560000Y-93980000D02*
X162560000Y-81280000D01*
X175260000Y-93980000D02*
X162560000Y-93980000D01*
X175260000Y-81280000D02*
X175260000Y-93980000D01*
X162560000Y-81280000D02*
X175260000Y-81280000D01*
%TO.C,SW17*%
X162560000Y-96520000D02*
X175260000Y-96520000D01*
X175260000Y-96520000D02*
X175260000Y-109220000D01*
X175260000Y-109220000D02*
X162560000Y-109220000D01*
X162560000Y-109220000D02*
X162560000Y-96520000D01*
%TO.C,SW23*%
X162560000Y-124460000D02*
X162560000Y-111760000D01*
X175260000Y-124460000D02*
X162560000Y-124460000D01*
X175260000Y-111760000D02*
X175260000Y-124460000D01*
X162560000Y-111760000D02*
X175260000Y-111760000D01*
%TD*%
%TO.C,H3*%
D13*
X188428571Y-154652380D02*
X188428571Y-153652380D01*
X188761904Y-154366666D01*
X189095238Y-153652380D01*
X189095238Y-154652380D01*
X189714285Y-154652380D02*
X189619047Y-154604761D01*
X189571428Y-154557142D01*
X189523809Y-154461904D01*
X189523809Y-154176190D01*
X189571428Y-154080952D01*
X189619047Y-154033333D01*
X189714285Y-153985714D01*
X189857142Y-153985714D01*
X189952380Y-154033333D01*
X190000000Y-154080952D01*
X190047619Y-154176190D01*
X190047619Y-154461904D01*
X190000000Y-154557142D01*
X189952380Y-154604761D01*
X189857142Y-154652380D01*
X189714285Y-154652380D01*
X190904761Y-153985714D02*
X190904761Y-154652380D01*
X190476190Y-153985714D02*
X190476190Y-154509523D01*
X190523809Y-154604761D01*
X190619047Y-154652380D01*
X190761904Y-154652380D01*
X190857142Y-154604761D01*
X190904761Y-154557142D01*
X191380952Y-153985714D02*
X191380952Y-154652380D01*
X191380952Y-154080952D02*
X191428571Y-154033333D01*
X191523809Y-153985714D01*
X191666666Y-153985714D01*
X191761904Y-154033333D01*
X191809523Y-154128571D01*
X191809523Y-154652380D01*
X192142857Y-153985714D02*
X192523809Y-153985714D01*
X192285714Y-153652380D02*
X192285714Y-154509523D01*
X192333333Y-154604761D01*
X192428571Y-154652380D01*
X192523809Y-154652380D01*
X192857142Y-154652380D02*
X192857142Y-153985714D01*
X192857142Y-153652380D02*
X192809523Y-153700000D01*
X192857142Y-153747619D01*
X192904761Y-153700000D01*
X192857142Y-153652380D01*
X192857142Y-153747619D01*
X193333333Y-153985714D02*
X193333333Y-154652380D01*
X193333333Y-154080952D02*
X193380952Y-154033333D01*
X193476190Y-153985714D01*
X193619047Y-153985714D01*
X193714285Y-154033333D01*
X193761904Y-154128571D01*
X193761904Y-154652380D01*
X194666666Y-153985714D02*
X194666666Y-154795238D01*
X194619047Y-154890476D01*
X194571428Y-154938095D01*
X194476190Y-154985714D01*
X194333333Y-154985714D01*
X194238095Y-154938095D01*
X194666666Y-154604761D02*
X194571428Y-154652380D01*
X194380952Y-154652380D01*
X194285714Y-154604761D01*
X194238095Y-154557142D01*
X194190476Y-154461904D01*
X194190476Y-154176190D01*
X194238095Y-154080952D01*
X194285714Y-154033333D01*
X194380952Y-153985714D01*
X194571428Y-153985714D01*
X194666666Y-154033333D01*
X195142857Y-154652380D02*
X195142857Y-153652380D01*
X195142857Y-154128571D02*
X195714285Y-154128571D01*
X195714285Y-154652380D02*
X195714285Y-153652380D01*
X196333333Y-154652380D02*
X196238095Y-154604761D01*
X196190476Y-154557142D01*
X196142857Y-154461904D01*
X196142857Y-154176190D01*
X196190476Y-154080952D01*
X196238095Y-154033333D01*
X196333333Y-153985714D01*
X196476190Y-153985714D01*
X196571428Y-154033333D01*
X196619047Y-154080952D01*
X196666666Y-154176190D01*
X196666666Y-154461904D01*
X196619047Y-154557142D01*
X196571428Y-154604761D01*
X196476190Y-154652380D01*
X196333333Y-154652380D01*
X197238095Y-154652380D02*
X197142857Y-154604761D01*
X197095238Y-154509523D01*
X197095238Y-153652380D01*
X198000000Y-154604761D02*
X197904761Y-154652380D01*
X197714285Y-154652380D01*
X197619047Y-154604761D01*
X197571428Y-154509523D01*
X197571428Y-154128571D01*
X197619047Y-154033333D01*
X197714285Y-153985714D01*
X197904761Y-153985714D01*
X198000000Y-154033333D01*
X198047619Y-154128571D01*
X198047619Y-154223809D01*
X197571428Y-154319047D01*
X198238095Y-154747619D02*
X199000000Y-154747619D01*
X199238095Y-154652380D02*
X199238095Y-153652380D01*
X199619047Y-153652380D01*
X199714285Y-153700000D01*
X199761904Y-153747619D01*
X199809523Y-153842857D01*
X199809523Y-153985714D01*
X199761904Y-154080952D01*
X199714285Y-154128571D01*
X199619047Y-154176190D01*
X199238095Y-154176190D01*
X200666666Y-154652380D02*
X200666666Y-154128571D01*
X200619047Y-154033333D01*
X200523809Y-153985714D01*
X200333333Y-153985714D01*
X200238095Y-154033333D01*
X200666666Y-154604761D02*
X200571428Y-154652380D01*
X200333333Y-154652380D01*
X200238095Y-154604761D01*
X200190476Y-154509523D01*
X200190476Y-154414285D01*
X200238095Y-154319047D01*
X200333333Y-154271428D01*
X200571428Y-154271428D01*
X200666666Y-154223809D01*
X201571428Y-154652380D02*
X201571428Y-153652380D01*
X201571428Y-154604761D02*
X201476190Y-154652380D01*
X201285714Y-154652380D01*
X201190476Y-154604761D01*
X201142857Y-154557142D01*
X201095238Y-154461904D01*
X201095238Y-154176190D01*
X201142857Y-154080952D01*
X201190476Y-154033333D01*
X201285714Y-153985714D01*
X201476190Y-153985714D01*
X201571428Y-154033333D01*
X194538095Y-150452380D02*
X194538095Y-149452380D01*
X194538095Y-149928571D02*
X195109523Y-149928571D01*
X195109523Y-150452380D02*
X195109523Y-149452380D01*
X195490476Y-149452380D02*
X196109523Y-149452380D01*
X195776190Y-149833333D01*
X195919047Y-149833333D01*
X196014285Y-149880952D01*
X196061904Y-149928571D01*
X196109523Y-150023809D01*
X196109523Y-150261904D01*
X196061904Y-150357142D01*
X196014285Y-150404761D01*
X195919047Y-150452380D01*
X195633333Y-150452380D01*
X195538095Y-150404761D01*
X195490476Y-150357142D01*
%TO.C,H1*%
X98428571Y-64652380D02*
X98428571Y-63652380D01*
X98761904Y-64366666D01*
X99095238Y-63652380D01*
X99095238Y-64652380D01*
X99714285Y-64652380D02*
X99619047Y-64604761D01*
X99571428Y-64557142D01*
X99523809Y-64461904D01*
X99523809Y-64176190D01*
X99571428Y-64080952D01*
X99619047Y-64033333D01*
X99714285Y-63985714D01*
X99857142Y-63985714D01*
X99952380Y-64033333D01*
X100000000Y-64080952D01*
X100047619Y-64176190D01*
X100047619Y-64461904D01*
X100000000Y-64557142D01*
X99952380Y-64604761D01*
X99857142Y-64652380D01*
X99714285Y-64652380D01*
X100904761Y-63985714D02*
X100904761Y-64652380D01*
X100476190Y-63985714D02*
X100476190Y-64509523D01*
X100523809Y-64604761D01*
X100619047Y-64652380D01*
X100761904Y-64652380D01*
X100857142Y-64604761D01*
X100904761Y-64557142D01*
X101380952Y-63985714D02*
X101380952Y-64652380D01*
X101380952Y-64080952D02*
X101428571Y-64033333D01*
X101523809Y-63985714D01*
X101666666Y-63985714D01*
X101761904Y-64033333D01*
X101809523Y-64128571D01*
X101809523Y-64652380D01*
X102142857Y-63985714D02*
X102523809Y-63985714D01*
X102285714Y-63652380D02*
X102285714Y-64509523D01*
X102333333Y-64604761D01*
X102428571Y-64652380D01*
X102523809Y-64652380D01*
X102857142Y-64652380D02*
X102857142Y-63985714D01*
X102857142Y-63652380D02*
X102809523Y-63700000D01*
X102857142Y-63747619D01*
X102904761Y-63700000D01*
X102857142Y-63652380D01*
X102857142Y-63747619D01*
X103333333Y-63985714D02*
X103333333Y-64652380D01*
X103333333Y-64080952D02*
X103380952Y-64033333D01*
X103476190Y-63985714D01*
X103619047Y-63985714D01*
X103714285Y-64033333D01*
X103761904Y-64128571D01*
X103761904Y-64652380D01*
X104666666Y-63985714D02*
X104666666Y-64795238D01*
X104619047Y-64890476D01*
X104571428Y-64938095D01*
X104476190Y-64985714D01*
X104333333Y-64985714D01*
X104238095Y-64938095D01*
X104666666Y-64604761D02*
X104571428Y-64652380D01*
X104380952Y-64652380D01*
X104285714Y-64604761D01*
X104238095Y-64557142D01*
X104190476Y-64461904D01*
X104190476Y-64176190D01*
X104238095Y-64080952D01*
X104285714Y-64033333D01*
X104380952Y-63985714D01*
X104571428Y-63985714D01*
X104666666Y-64033333D01*
X105142857Y-64652380D02*
X105142857Y-63652380D01*
X105142857Y-64128571D02*
X105714285Y-64128571D01*
X105714285Y-64652380D02*
X105714285Y-63652380D01*
X106333333Y-64652380D02*
X106238095Y-64604761D01*
X106190476Y-64557142D01*
X106142857Y-64461904D01*
X106142857Y-64176190D01*
X106190476Y-64080952D01*
X106238095Y-64033333D01*
X106333333Y-63985714D01*
X106476190Y-63985714D01*
X106571428Y-64033333D01*
X106619047Y-64080952D01*
X106666666Y-64176190D01*
X106666666Y-64461904D01*
X106619047Y-64557142D01*
X106571428Y-64604761D01*
X106476190Y-64652380D01*
X106333333Y-64652380D01*
X107238095Y-64652380D02*
X107142857Y-64604761D01*
X107095238Y-64509523D01*
X107095238Y-63652380D01*
X108000000Y-64604761D02*
X107904761Y-64652380D01*
X107714285Y-64652380D01*
X107619047Y-64604761D01*
X107571428Y-64509523D01*
X107571428Y-64128571D01*
X107619047Y-64033333D01*
X107714285Y-63985714D01*
X107904761Y-63985714D01*
X108000000Y-64033333D01*
X108047619Y-64128571D01*
X108047619Y-64223809D01*
X107571428Y-64319047D01*
X108238095Y-64747619D02*
X109000000Y-64747619D01*
X109238095Y-64652380D02*
X109238095Y-63652380D01*
X109619047Y-63652380D01*
X109714285Y-63700000D01*
X109761904Y-63747619D01*
X109809523Y-63842857D01*
X109809523Y-63985714D01*
X109761904Y-64080952D01*
X109714285Y-64128571D01*
X109619047Y-64176190D01*
X109238095Y-64176190D01*
X110666666Y-64652380D02*
X110666666Y-64128571D01*
X110619047Y-64033333D01*
X110523809Y-63985714D01*
X110333333Y-63985714D01*
X110238095Y-64033333D01*
X110666666Y-64604761D02*
X110571428Y-64652380D01*
X110333333Y-64652380D01*
X110238095Y-64604761D01*
X110190476Y-64509523D01*
X110190476Y-64414285D01*
X110238095Y-64319047D01*
X110333333Y-64271428D01*
X110571428Y-64271428D01*
X110666666Y-64223809D01*
X111571428Y-64652380D02*
X111571428Y-63652380D01*
X111571428Y-64604761D02*
X111476190Y-64652380D01*
X111285714Y-64652380D01*
X111190476Y-64604761D01*
X111142857Y-64557142D01*
X111095238Y-64461904D01*
X111095238Y-64176190D01*
X111142857Y-64080952D01*
X111190476Y-64033333D01*
X111285714Y-63985714D01*
X111476190Y-63985714D01*
X111571428Y-64033333D01*
X104538095Y-60452380D02*
X104538095Y-59452380D01*
X104538095Y-59928571D02*
X105109523Y-59928571D01*
X105109523Y-60452380D02*
X105109523Y-59452380D01*
X106109523Y-60452380D02*
X105538095Y-60452380D01*
X105823809Y-60452380D02*
X105823809Y-59452380D01*
X105728571Y-59595238D01*
X105633333Y-59690476D01*
X105538095Y-59738095D01*
%TO.C,H2*%
X188428571Y-64652380D02*
X188428571Y-63652380D01*
X188761904Y-64366666D01*
X189095238Y-63652380D01*
X189095238Y-64652380D01*
X189714285Y-64652380D02*
X189619047Y-64604761D01*
X189571428Y-64557142D01*
X189523809Y-64461904D01*
X189523809Y-64176190D01*
X189571428Y-64080952D01*
X189619047Y-64033333D01*
X189714285Y-63985714D01*
X189857142Y-63985714D01*
X189952380Y-64033333D01*
X190000000Y-64080952D01*
X190047619Y-64176190D01*
X190047619Y-64461904D01*
X190000000Y-64557142D01*
X189952380Y-64604761D01*
X189857142Y-64652380D01*
X189714285Y-64652380D01*
X190904761Y-63985714D02*
X190904761Y-64652380D01*
X190476190Y-63985714D02*
X190476190Y-64509523D01*
X190523809Y-64604761D01*
X190619047Y-64652380D01*
X190761904Y-64652380D01*
X190857142Y-64604761D01*
X190904761Y-64557142D01*
X191380952Y-63985714D02*
X191380952Y-64652380D01*
X191380952Y-64080952D02*
X191428571Y-64033333D01*
X191523809Y-63985714D01*
X191666666Y-63985714D01*
X191761904Y-64033333D01*
X191809523Y-64128571D01*
X191809523Y-64652380D01*
X192142857Y-63985714D02*
X192523809Y-63985714D01*
X192285714Y-63652380D02*
X192285714Y-64509523D01*
X192333333Y-64604761D01*
X192428571Y-64652380D01*
X192523809Y-64652380D01*
X192857142Y-64652380D02*
X192857142Y-63985714D01*
X192857142Y-63652380D02*
X192809523Y-63700000D01*
X192857142Y-63747619D01*
X192904761Y-63700000D01*
X192857142Y-63652380D01*
X192857142Y-63747619D01*
X193333333Y-63985714D02*
X193333333Y-64652380D01*
X193333333Y-64080952D02*
X193380952Y-64033333D01*
X193476190Y-63985714D01*
X193619047Y-63985714D01*
X193714285Y-64033333D01*
X193761904Y-64128571D01*
X193761904Y-64652380D01*
X194666666Y-63985714D02*
X194666666Y-64795238D01*
X194619047Y-64890476D01*
X194571428Y-64938095D01*
X194476190Y-64985714D01*
X194333333Y-64985714D01*
X194238095Y-64938095D01*
X194666666Y-64604761D02*
X194571428Y-64652380D01*
X194380952Y-64652380D01*
X194285714Y-64604761D01*
X194238095Y-64557142D01*
X194190476Y-64461904D01*
X194190476Y-64176190D01*
X194238095Y-64080952D01*
X194285714Y-64033333D01*
X194380952Y-63985714D01*
X194571428Y-63985714D01*
X194666666Y-64033333D01*
X195142857Y-64652380D02*
X195142857Y-63652380D01*
X195142857Y-64128571D02*
X195714285Y-64128571D01*
X195714285Y-64652380D02*
X195714285Y-63652380D01*
X196333333Y-64652380D02*
X196238095Y-64604761D01*
X196190476Y-64557142D01*
X196142857Y-64461904D01*
X196142857Y-64176190D01*
X196190476Y-64080952D01*
X196238095Y-64033333D01*
X196333333Y-63985714D01*
X196476190Y-63985714D01*
X196571428Y-64033333D01*
X196619047Y-64080952D01*
X196666666Y-64176190D01*
X196666666Y-64461904D01*
X196619047Y-64557142D01*
X196571428Y-64604761D01*
X196476190Y-64652380D01*
X196333333Y-64652380D01*
X197238095Y-64652380D02*
X197142857Y-64604761D01*
X197095238Y-64509523D01*
X197095238Y-63652380D01*
X198000000Y-64604761D02*
X197904761Y-64652380D01*
X197714285Y-64652380D01*
X197619047Y-64604761D01*
X197571428Y-64509523D01*
X197571428Y-64128571D01*
X197619047Y-64033333D01*
X197714285Y-63985714D01*
X197904761Y-63985714D01*
X198000000Y-64033333D01*
X198047619Y-64128571D01*
X198047619Y-64223809D01*
X197571428Y-64319047D01*
X198238095Y-64747619D02*
X199000000Y-64747619D01*
X199238095Y-64652380D02*
X199238095Y-63652380D01*
X199619047Y-63652380D01*
X199714285Y-63700000D01*
X199761904Y-63747619D01*
X199809523Y-63842857D01*
X199809523Y-63985714D01*
X199761904Y-64080952D01*
X199714285Y-64128571D01*
X199619047Y-64176190D01*
X199238095Y-64176190D01*
X200666666Y-64652380D02*
X200666666Y-64128571D01*
X200619047Y-64033333D01*
X200523809Y-63985714D01*
X200333333Y-63985714D01*
X200238095Y-64033333D01*
X200666666Y-64604761D02*
X200571428Y-64652380D01*
X200333333Y-64652380D01*
X200238095Y-64604761D01*
X200190476Y-64509523D01*
X200190476Y-64414285D01*
X200238095Y-64319047D01*
X200333333Y-64271428D01*
X200571428Y-64271428D01*
X200666666Y-64223809D01*
X201571428Y-64652380D02*
X201571428Y-63652380D01*
X201571428Y-64604761D02*
X201476190Y-64652380D01*
X201285714Y-64652380D01*
X201190476Y-64604761D01*
X201142857Y-64557142D01*
X201095238Y-64461904D01*
X201095238Y-64176190D01*
X201142857Y-64080952D01*
X201190476Y-64033333D01*
X201285714Y-63985714D01*
X201476190Y-63985714D01*
X201571428Y-64033333D01*
X194538095Y-60452380D02*
X194538095Y-59452380D01*
X194538095Y-59928571D02*
X195109523Y-59928571D01*
X195109523Y-60452380D02*
X195109523Y-59452380D01*
X195538095Y-59547619D02*
X195585714Y-59500000D01*
X195680952Y-59452380D01*
X195919047Y-59452380D01*
X196014285Y-59500000D01*
X196061904Y-59547619D01*
X196109523Y-59642857D01*
X196109523Y-59738095D01*
X196061904Y-59880952D01*
X195490476Y-60452380D01*
X196109523Y-60452380D01*
%TO.C,H4*%
X98428571Y-154652380D02*
X98428571Y-153652380D01*
X98761904Y-154366666D01*
X99095238Y-153652380D01*
X99095238Y-154652380D01*
X99714285Y-154652380D02*
X99619047Y-154604761D01*
X99571428Y-154557142D01*
X99523809Y-154461904D01*
X99523809Y-154176190D01*
X99571428Y-154080952D01*
X99619047Y-154033333D01*
X99714285Y-153985714D01*
X99857142Y-153985714D01*
X99952380Y-154033333D01*
X100000000Y-154080952D01*
X100047619Y-154176190D01*
X100047619Y-154461904D01*
X100000000Y-154557142D01*
X99952380Y-154604761D01*
X99857142Y-154652380D01*
X99714285Y-154652380D01*
X100904761Y-153985714D02*
X100904761Y-154652380D01*
X100476190Y-153985714D02*
X100476190Y-154509523D01*
X100523809Y-154604761D01*
X100619047Y-154652380D01*
X100761904Y-154652380D01*
X100857142Y-154604761D01*
X100904761Y-154557142D01*
X101380952Y-153985714D02*
X101380952Y-154652380D01*
X101380952Y-154080952D02*
X101428571Y-154033333D01*
X101523809Y-153985714D01*
X101666666Y-153985714D01*
X101761904Y-154033333D01*
X101809523Y-154128571D01*
X101809523Y-154652380D01*
X102142857Y-153985714D02*
X102523809Y-153985714D01*
X102285714Y-153652380D02*
X102285714Y-154509523D01*
X102333333Y-154604761D01*
X102428571Y-154652380D01*
X102523809Y-154652380D01*
X102857142Y-154652380D02*
X102857142Y-153985714D01*
X102857142Y-153652380D02*
X102809523Y-153700000D01*
X102857142Y-153747619D01*
X102904761Y-153700000D01*
X102857142Y-153652380D01*
X102857142Y-153747619D01*
X103333333Y-153985714D02*
X103333333Y-154652380D01*
X103333333Y-154080952D02*
X103380952Y-154033333D01*
X103476190Y-153985714D01*
X103619047Y-153985714D01*
X103714285Y-154033333D01*
X103761904Y-154128571D01*
X103761904Y-154652380D01*
X104666666Y-153985714D02*
X104666666Y-154795238D01*
X104619047Y-154890476D01*
X104571428Y-154938095D01*
X104476190Y-154985714D01*
X104333333Y-154985714D01*
X104238095Y-154938095D01*
X104666666Y-154604761D02*
X104571428Y-154652380D01*
X104380952Y-154652380D01*
X104285714Y-154604761D01*
X104238095Y-154557142D01*
X104190476Y-154461904D01*
X104190476Y-154176190D01*
X104238095Y-154080952D01*
X104285714Y-154033333D01*
X104380952Y-153985714D01*
X104571428Y-153985714D01*
X104666666Y-154033333D01*
X105142857Y-154652380D02*
X105142857Y-153652380D01*
X105142857Y-154128571D02*
X105714285Y-154128571D01*
X105714285Y-154652380D02*
X105714285Y-153652380D01*
X106333333Y-154652380D02*
X106238095Y-154604761D01*
X106190476Y-154557142D01*
X106142857Y-154461904D01*
X106142857Y-154176190D01*
X106190476Y-154080952D01*
X106238095Y-154033333D01*
X106333333Y-153985714D01*
X106476190Y-153985714D01*
X106571428Y-154033333D01*
X106619047Y-154080952D01*
X106666666Y-154176190D01*
X106666666Y-154461904D01*
X106619047Y-154557142D01*
X106571428Y-154604761D01*
X106476190Y-154652380D01*
X106333333Y-154652380D01*
X107238095Y-154652380D02*
X107142857Y-154604761D01*
X107095238Y-154509523D01*
X107095238Y-153652380D01*
X108000000Y-154604761D02*
X107904761Y-154652380D01*
X107714285Y-154652380D01*
X107619047Y-154604761D01*
X107571428Y-154509523D01*
X107571428Y-154128571D01*
X107619047Y-154033333D01*
X107714285Y-153985714D01*
X107904761Y-153985714D01*
X108000000Y-154033333D01*
X108047619Y-154128571D01*
X108047619Y-154223809D01*
X107571428Y-154319047D01*
X108238095Y-154747619D02*
X109000000Y-154747619D01*
X109238095Y-154652380D02*
X109238095Y-153652380D01*
X109619047Y-153652380D01*
X109714285Y-153700000D01*
X109761904Y-153747619D01*
X109809523Y-153842857D01*
X109809523Y-153985714D01*
X109761904Y-154080952D01*
X109714285Y-154128571D01*
X109619047Y-154176190D01*
X109238095Y-154176190D01*
X110666666Y-154652380D02*
X110666666Y-154128571D01*
X110619047Y-154033333D01*
X110523809Y-153985714D01*
X110333333Y-153985714D01*
X110238095Y-154033333D01*
X110666666Y-154604761D02*
X110571428Y-154652380D01*
X110333333Y-154652380D01*
X110238095Y-154604761D01*
X110190476Y-154509523D01*
X110190476Y-154414285D01*
X110238095Y-154319047D01*
X110333333Y-154271428D01*
X110571428Y-154271428D01*
X110666666Y-154223809D01*
X111571428Y-154652380D02*
X111571428Y-153652380D01*
X111571428Y-154604761D02*
X111476190Y-154652380D01*
X111285714Y-154652380D01*
X111190476Y-154604761D01*
X111142857Y-154557142D01*
X111095238Y-154461904D01*
X111095238Y-154176190D01*
X111142857Y-154080952D01*
X111190476Y-154033333D01*
X111285714Y-153985714D01*
X111476190Y-153985714D01*
X111571428Y-154033333D01*
X104538095Y-150452380D02*
X104538095Y-149452380D01*
X104538095Y-149928571D02*
X105109523Y-149928571D01*
X105109523Y-150452380D02*
X105109523Y-149452380D01*
X106014285Y-149785714D02*
X106014285Y-150452380D01*
X105776190Y-149404761D02*
X105538095Y-150119047D01*
X106157142Y-150119047D01*
%TO.C,SW1*%
X105830952Y-80716380D02*
X105830952Y-79716380D01*
X106164285Y-80430666D01*
X106497619Y-79716380D01*
X106497619Y-80716380D01*
X106878571Y-79716380D02*
X107545238Y-80716380D01*
X107545238Y-79716380D02*
X106878571Y-80716380D01*
X107688095Y-80811619D02*
X108450000Y-80811619D01*
X109211904Y-80716380D02*
X108640476Y-80716380D01*
X108926190Y-80716380D02*
X108926190Y-79716380D01*
X108830952Y-79859238D01*
X108735714Y-79954476D01*
X108640476Y-80002095D01*
X110069047Y-80049714D02*
X110069047Y-80716380D01*
X109640476Y-80049714D02*
X109640476Y-80573523D01*
X109688095Y-80668761D01*
X109783333Y-80716380D01*
X109926190Y-80716380D01*
X110021428Y-80668761D01*
X110069047Y-80621142D01*
X106616666Y-64920761D02*
X106759523Y-64968380D01*
X106997619Y-64968380D01*
X107092857Y-64920761D01*
X107140476Y-64873142D01*
X107188095Y-64777904D01*
X107188095Y-64682666D01*
X107140476Y-64587428D01*
X107092857Y-64539809D01*
X106997619Y-64492190D01*
X106807142Y-64444571D01*
X106711904Y-64396952D01*
X106664285Y-64349333D01*
X106616666Y-64254095D01*
X106616666Y-64158857D01*
X106664285Y-64063619D01*
X106711904Y-64016000D01*
X106807142Y-63968380D01*
X107045238Y-63968380D01*
X107188095Y-64016000D01*
X107521428Y-63968380D02*
X107759523Y-64968380D01*
X107950000Y-64254095D01*
X108140476Y-64968380D01*
X108378571Y-63968380D01*
X109283333Y-64968380D02*
X108711904Y-64968380D01*
X108997619Y-64968380D02*
X108997619Y-63968380D01*
X108902380Y-64111238D01*
X108807142Y-64206476D01*
X108711904Y-64254095D01*
%TO.C,SW2*%
X121070952Y-80716380D02*
X121070952Y-79716380D01*
X121404285Y-80430666D01*
X121737619Y-79716380D01*
X121737619Y-80716380D01*
X122118571Y-79716380D02*
X122785238Y-80716380D01*
X122785238Y-79716380D02*
X122118571Y-80716380D01*
X122928095Y-80811619D02*
X123690000Y-80811619D01*
X124451904Y-80716380D02*
X123880476Y-80716380D01*
X124166190Y-80716380D02*
X124166190Y-79716380D01*
X124070952Y-79859238D01*
X123975714Y-79954476D01*
X123880476Y-80002095D01*
X125309047Y-80049714D02*
X125309047Y-80716380D01*
X124880476Y-80049714D02*
X124880476Y-80573523D01*
X124928095Y-80668761D01*
X125023333Y-80716380D01*
X125166190Y-80716380D01*
X125261428Y-80668761D01*
X125309047Y-80621142D01*
X121856666Y-64920761D02*
X121999523Y-64968380D01*
X122237619Y-64968380D01*
X122332857Y-64920761D01*
X122380476Y-64873142D01*
X122428095Y-64777904D01*
X122428095Y-64682666D01*
X122380476Y-64587428D01*
X122332857Y-64539809D01*
X122237619Y-64492190D01*
X122047142Y-64444571D01*
X121951904Y-64396952D01*
X121904285Y-64349333D01*
X121856666Y-64254095D01*
X121856666Y-64158857D01*
X121904285Y-64063619D01*
X121951904Y-64016000D01*
X122047142Y-63968380D01*
X122285238Y-63968380D01*
X122428095Y-64016000D01*
X122761428Y-63968380D02*
X122999523Y-64968380D01*
X123190000Y-64254095D01*
X123380476Y-64968380D01*
X123618571Y-63968380D01*
X123951904Y-64063619D02*
X123999523Y-64016000D01*
X124094761Y-63968380D01*
X124332857Y-63968380D01*
X124428095Y-64016000D01*
X124475714Y-64063619D01*
X124523333Y-64158857D01*
X124523333Y-64254095D01*
X124475714Y-64396952D01*
X123904285Y-64968380D01*
X124523333Y-64968380D01*
%TO.C,SW3*%
X136310952Y-80716380D02*
X136310952Y-79716380D01*
X136644285Y-80430666D01*
X136977619Y-79716380D01*
X136977619Y-80716380D01*
X137358571Y-79716380D02*
X138025238Y-80716380D01*
X138025238Y-79716380D02*
X137358571Y-80716380D01*
X138168095Y-80811619D02*
X138930000Y-80811619D01*
X139691904Y-80716380D02*
X139120476Y-80716380D01*
X139406190Y-80716380D02*
X139406190Y-79716380D01*
X139310952Y-79859238D01*
X139215714Y-79954476D01*
X139120476Y-80002095D01*
X140549047Y-80049714D02*
X140549047Y-80716380D01*
X140120476Y-80049714D02*
X140120476Y-80573523D01*
X140168095Y-80668761D01*
X140263333Y-80716380D01*
X140406190Y-80716380D01*
X140501428Y-80668761D01*
X140549047Y-80621142D01*
X137096666Y-64920761D02*
X137239523Y-64968380D01*
X137477619Y-64968380D01*
X137572857Y-64920761D01*
X137620476Y-64873142D01*
X137668095Y-64777904D01*
X137668095Y-64682666D01*
X137620476Y-64587428D01*
X137572857Y-64539809D01*
X137477619Y-64492190D01*
X137287142Y-64444571D01*
X137191904Y-64396952D01*
X137144285Y-64349333D01*
X137096666Y-64254095D01*
X137096666Y-64158857D01*
X137144285Y-64063619D01*
X137191904Y-64016000D01*
X137287142Y-63968380D01*
X137525238Y-63968380D01*
X137668095Y-64016000D01*
X138001428Y-63968380D02*
X138239523Y-64968380D01*
X138430000Y-64254095D01*
X138620476Y-64968380D01*
X138858571Y-63968380D01*
X139144285Y-63968380D02*
X139763333Y-63968380D01*
X139430000Y-64349333D01*
X139572857Y-64349333D01*
X139668095Y-64396952D01*
X139715714Y-64444571D01*
X139763333Y-64539809D01*
X139763333Y-64777904D01*
X139715714Y-64873142D01*
X139668095Y-64920761D01*
X139572857Y-64968380D01*
X139287142Y-64968380D01*
X139191904Y-64920761D01*
X139144285Y-64873142D01*
%TO.C,SW4*%
X151550952Y-80716380D02*
X151550952Y-79716380D01*
X151884285Y-80430666D01*
X152217619Y-79716380D01*
X152217619Y-80716380D01*
X152598571Y-79716380D02*
X153265238Y-80716380D01*
X153265238Y-79716380D02*
X152598571Y-80716380D01*
X153408095Y-80811619D02*
X154170000Y-80811619D01*
X154931904Y-80716380D02*
X154360476Y-80716380D01*
X154646190Y-80716380D02*
X154646190Y-79716380D01*
X154550952Y-79859238D01*
X154455714Y-79954476D01*
X154360476Y-80002095D01*
X155789047Y-80049714D02*
X155789047Y-80716380D01*
X155360476Y-80049714D02*
X155360476Y-80573523D01*
X155408095Y-80668761D01*
X155503333Y-80716380D01*
X155646190Y-80716380D01*
X155741428Y-80668761D01*
X155789047Y-80621142D01*
X152336666Y-64920761D02*
X152479523Y-64968380D01*
X152717619Y-64968380D01*
X152812857Y-64920761D01*
X152860476Y-64873142D01*
X152908095Y-64777904D01*
X152908095Y-64682666D01*
X152860476Y-64587428D01*
X152812857Y-64539809D01*
X152717619Y-64492190D01*
X152527142Y-64444571D01*
X152431904Y-64396952D01*
X152384285Y-64349333D01*
X152336666Y-64254095D01*
X152336666Y-64158857D01*
X152384285Y-64063619D01*
X152431904Y-64016000D01*
X152527142Y-63968380D01*
X152765238Y-63968380D01*
X152908095Y-64016000D01*
X153241428Y-63968380D02*
X153479523Y-64968380D01*
X153670000Y-64254095D01*
X153860476Y-64968380D01*
X154098571Y-63968380D01*
X154908095Y-64301714D02*
X154908095Y-64968380D01*
X154670000Y-63920761D02*
X154431904Y-64635047D01*
X155050952Y-64635047D01*
%TO.C,SW6*%
X188380952Y-80716380D02*
X188380952Y-79716380D01*
X188714285Y-80430666D01*
X189047619Y-79716380D01*
X189047619Y-80716380D01*
X189428571Y-79716380D02*
X190095238Y-80716380D01*
X190095238Y-79716380D02*
X189428571Y-80716380D01*
X190238095Y-80811619D02*
X191000000Y-80811619D01*
X191761904Y-80716380D02*
X191190476Y-80716380D01*
X191476190Y-80716380D02*
X191476190Y-79716380D01*
X191380952Y-79859238D01*
X191285714Y-79954476D01*
X191190476Y-80002095D01*
X192619047Y-80049714D02*
X192619047Y-80716380D01*
X192190476Y-80049714D02*
X192190476Y-80573523D01*
X192238095Y-80668761D01*
X192333333Y-80716380D01*
X192476190Y-80716380D01*
X192571428Y-80668761D01*
X192619047Y-80621142D01*
X189166666Y-64920761D02*
X189309523Y-64968380D01*
X189547619Y-64968380D01*
X189642857Y-64920761D01*
X189690476Y-64873142D01*
X189738095Y-64777904D01*
X189738095Y-64682666D01*
X189690476Y-64587428D01*
X189642857Y-64539809D01*
X189547619Y-64492190D01*
X189357142Y-64444571D01*
X189261904Y-64396952D01*
X189214285Y-64349333D01*
X189166666Y-64254095D01*
X189166666Y-64158857D01*
X189214285Y-64063619D01*
X189261904Y-64016000D01*
X189357142Y-63968380D01*
X189595238Y-63968380D01*
X189738095Y-64016000D01*
X190071428Y-63968380D02*
X190309523Y-64968380D01*
X190500000Y-64254095D01*
X190690476Y-64968380D01*
X190928571Y-63968380D01*
X191738095Y-63968380D02*
X191547619Y-63968380D01*
X191452380Y-64016000D01*
X191404761Y-64063619D01*
X191309523Y-64206476D01*
X191261904Y-64396952D01*
X191261904Y-64777904D01*
X191309523Y-64873142D01*
X191357142Y-64920761D01*
X191452380Y-64968380D01*
X191642857Y-64968380D01*
X191738095Y-64920761D01*
X191785714Y-64873142D01*
X191833333Y-64777904D01*
X191833333Y-64539809D01*
X191785714Y-64444571D01*
X191738095Y-64396952D01*
X191642857Y-64349333D01*
X191452380Y-64349333D01*
X191357142Y-64396952D01*
X191309523Y-64444571D01*
X191261904Y-64539809D01*
%TO.C,SW7*%
X105830952Y-95956380D02*
X105830952Y-94956380D01*
X106164285Y-95670666D01*
X106497619Y-94956380D01*
X106497619Y-95956380D01*
X106878571Y-94956380D02*
X107545238Y-95956380D01*
X107545238Y-94956380D02*
X106878571Y-95956380D01*
X107688095Y-96051619D02*
X108450000Y-96051619D01*
X109211904Y-95956380D02*
X108640476Y-95956380D01*
X108926190Y-95956380D02*
X108926190Y-94956380D01*
X108830952Y-95099238D01*
X108735714Y-95194476D01*
X108640476Y-95242095D01*
X110069047Y-95289714D02*
X110069047Y-95956380D01*
X109640476Y-95289714D02*
X109640476Y-95813523D01*
X109688095Y-95908761D01*
X109783333Y-95956380D01*
X109926190Y-95956380D01*
X110021428Y-95908761D01*
X110069047Y-95861142D01*
X106616666Y-80160761D02*
X106759523Y-80208380D01*
X106997619Y-80208380D01*
X107092857Y-80160761D01*
X107140476Y-80113142D01*
X107188095Y-80017904D01*
X107188095Y-79922666D01*
X107140476Y-79827428D01*
X107092857Y-79779809D01*
X106997619Y-79732190D01*
X106807142Y-79684571D01*
X106711904Y-79636952D01*
X106664285Y-79589333D01*
X106616666Y-79494095D01*
X106616666Y-79398857D01*
X106664285Y-79303619D01*
X106711904Y-79256000D01*
X106807142Y-79208380D01*
X107045238Y-79208380D01*
X107188095Y-79256000D01*
X107521428Y-79208380D02*
X107759523Y-80208380D01*
X107950000Y-79494095D01*
X108140476Y-80208380D01*
X108378571Y-79208380D01*
X108664285Y-79208380D02*
X109330952Y-79208380D01*
X108902380Y-80208380D01*
%TO.C,SW8*%
X121070952Y-95956380D02*
X121070952Y-94956380D01*
X121404285Y-95670666D01*
X121737619Y-94956380D01*
X121737619Y-95956380D01*
X122118571Y-94956380D02*
X122785238Y-95956380D01*
X122785238Y-94956380D02*
X122118571Y-95956380D01*
X122928095Y-96051619D02*
X123690000Y-96051619D01*
X124451904Y-95956380D02*
X123880476Y-95956380D01*
X124166190Y-95956380D02*
X124166190Y-94956380D01*
X124070952Y-95099238D01*
X123975714Y-95194476D01*
X123880476Y-95242095D01*
X125309047Y-95289714D02*
X125309047Y-95956380D01*
X124880476Y-95289714D02*
X124880476Y-95813523D01*
X124928095Y-95908761D01*
X125023333Y-95956380D01*
X125166190Y-95956380D01*
X125261428Y-95908761D01*
X125309047Y-95861142D01*
X121856666Y-80160761D02*
X121999523Y-80208380D01*
X122237619Y-80208380D01*
X122332857Y-80160761D01*
X122380476Y-80113142D01*
X122428095Y-80017904D01*
X122428095Y-79922666D01*
X122380476Y-79827428D01*
X122332857Y-79779809D01*
X122237619Y-79732190D01*
X122047142Y-79684571D01*
X121951904Y-79636952D01*
X121904285Y-79589333D01*
X121856666Y-79494095D01*
X121856666Y-79398857D01*
X121904285Y-79303619D01*
X121951904Y-79256000D01*
X122047142Y-79208380D01*
X122285238Y-79208380D01*
X122428095Y-79256000D01*
X122761428Y-79208380D02*
X122999523Y-80208380D01*
X123190000Y-79494095D01*
X123380476Y-80208380D01*
X123618571Y-79208380D01*
X124142380Y-79636952D02*
X124047142Y-79589333D01*
X123999523Y-79541714D01*
X123951904Y-79446476D01*
X123951904Y-79398857D01*
X123999523Y-79303619D01*
X124047142Y-79256000D01*
X124142380Y-79208380D01*
X124332857Y-79208380D01*
X124428095Y-79256000D01*
X124475714Y-79303619D01*
X124523333Y-79398857D01*
X124523333Y-79446476D01*
X124475714Y-79541714D01*
X124428095Y-79589333D01*
X124332857Y-79636952D01*
X124142380Y-79636952D01*
X124047142Y-79684571D01*
X123999523Y-79732190D01*
X123951904Y-79827428D01*
X123951904Y-80017904D01*
X123999523Y-80113142D01*
X124047142Y-80160761D01*
X124142380Y-80208380D01*
X124332857Y-80208380D01*
X124428095Y-80160761D01*
X124475714Y-80113142D01*
X124523333Y-80017904D01*
X124523333Y-79827428D01*
X124475714Y-79732190D01*
X124428095Y-79684571D01*
X124332857Y-79636952D01*
%TO.C,SW9*%
X136310952Y-95956380D02*
X136310952Y-94956380D01*
X136644285Y-95670666D01*
X136977619Y-94956380D01*
X136977619Y-95956380D01*
X137358571Y-94956380D02*
X138025238Y-95956380D01*
X138025238Y-94956380D02*
X137358571Y-95956380D01*
X138168095Y-96051619D02*
X138930000Y-96051619D01*
X139691904Y-95956380D02*
X139120476Y-95956380D01*
X139406190Y-95956380D02*
X139406190Y-94956380D01*
X139310952Y-95099238D01*
X139215714Y-95194476D01*
X139120476Y-95242095D01*
X140549047Y-95289714D02*
X140549047Y-95956380D01*
X140120476Y-95289714D02*
X140120476Y-95813523D01*
X140168095Y-95908761D01*
X140263333Y-95956380D01*
X140406190Y-95956380D01*
X140501428Y-95908761D01*
X140549047Y-95861142D01*
X137096666Y-80160761D02*
X137239523Y-80208380D01*
X137477619Y-80208380D01*
X137572857Y-80160761D01*
X137620476Y-80113142D01*
X137668095Y-80017904D01*
X137668095Y-79922666D01*
X137620476Y-79827428D01*
X137572857Y-79779809D01*
X137477619Y-79732190D01*
X137287142Y-79684571D01*
X137191904Y-79636952D01*
X137144285Y-79589333D01*
X137096666Y-79494095D01*
X137096666Y-79398857D01*
X137144285Y-79303619D01*
X137191904Y-79256000D01*
X137287142Y-79208380D01*
X137525238Y-79208380D01*
X137668095Y-79256000D01*
X138001428Y-79208380D02*
X138239523Y-80208380D01*
X138430000Y-79494095D01*
X138620476Y-80208380D01*
X138858571Y-79208380D01*
X139287142Y-80208380D02*
X139477619Y-80208380D01*
X139572857Y-80160761D01*
X139620476Y-80113142D01*
X139715714Y-79970285D01*
X139763333Y-79779809D01*
X139763333Y-79398857D01*
X139715714Y-79303619D01*
X139668095Y-79256000D01*
X139572857Y-79208380D01*
X139382380Y-79208380D01*
X139287142Y-79256000D01*
X139239523Y-79303619D01*
X139191904Y-79398857D01*
X139191904Y-79636952D01*
X139239523Y-79732190D01*
X139287142Y-79779809D01*
X139382380Y-79827428D01*
X139572857Y-79827428D01*
X139668095Y-79779809D01*
X139715714Y-79732190D01*
X139763333Y-79636952D01*
%TO.C,SW10*%
X151550952Y-95956380D02*
X151550952Y-94956380D01*
X151884285Y-95670666D01*
X152217619Y-94956380D01*
X152217619Y-95956380D01*
X152598571Y-94956380D02*
X153265238Y-95956380D01*
X153265238Y-94956380D02*
X152598571Y-95956380D01*
X153408095Y-96051619D02*
X154170000Y-96051619D01*
X154931904Y-95956380D02*
X154360476Y-95956380D01*
X154646190Y-95956380D02*
X154646190Y-94956380D01*
X154550952Y-95099238D01*
X154455714Y-95194476D01*
X154360476Y-95242095D01*
X155789047Y-95289714D02*
X155789047Y-95956380D01*
X155360476Y-95289714D02*
X155360476Y-95813523D01*
X155408095Y-95908761D01*
X155503333Y-95956380D01*
X155646190Y-95956380D01*
X155741428Y-95908761D01*
X155789047Y-95861142D01*
X151860476Y-80160761D02*
X152003333Y-80208380D01*
X152241428Y-80208380D01*
X152336666Y-80160761D01*
X152384285Y-80113142D01*
X152431904Y-80017904D01*
X152431904Y-79922666D01*
X152384285Y-79827428D01*
X152336666Y-79779809D01*
X152241428Y-79732190D01*
X152050952Y-79684571D01*
X151955714Y-79636952D01*
X151908095Y-79589333D01*
X151860476Y-79494095D01*
X151860476Y-79398857D01*
X151908095Y-79303619D01*
X151955714Y-79256000D01*
X152050952Y-79208380D01*
X152289047Y-79208380D01*
X152431904Y-79256000D01*
X152765238Y-79208380D02*
X153003333Y-80208380D01*
X153193809Y-79494095D01*
X153384285Y-80208380D01*
X153622380Y-79208380D01*
X154527142Y-80208380D02*
X153955714Y-80208380D01*
X154241428Y-80208380D02*
X154241428Y-79208380D01*
X154146190Y-79351238D01*
X154050952Y-79446476D01*
X153955714Y-79494095D01*
X155146190Y-79208380D02*
X155241428Y-79208380D01*
X155336666Y-79256000D01*
X155384285Y-79303619D01*
X155431904Y-79398857D01*
X155479523Y-79589333D01*
X155479523Y-79827428D01*
X155431904Y-80017904D01*
X155384285Y-80113142D01*
X155336666Y-80160761D01*
X155241428Y-80208380D01*
X155146190Y-80208380D01*
X155050952Y-80160761D01*
X155003333Y-80113142D01*
X154955714Y-80017904D01*
X154908095Y-79827428D01*
X154908095Y-79589333D01*
X154955714Y-79398857D01*
X155003333Y-79303619D01*
X155050952Y-79256000D01*
X155146190Y-79208380D01*
%TO.C,SW12*%
X188380952Y-95956380D02*
X188380952Y-94956380D01*
X188714285Y-95670666D01*
X189047619Y-94956380D01*
X189047619Y-95956380D01*
X189428571Y-94956380D02*
X190095238Y-95956380D01*
X190095238Y-94956380D02*
X189428571Y-95956380D01*
X190238095Y-96051619D02*
X191000000Y-96051619D01*
X191761904Y-95956380D02*
X191190476Y-95956380D01*
X191476190Y-95956380D02*
X191476190Y-94956380D01*
X191380952Y-95099238D01*
X191285714Y-95194476D01*
X191190476Y-95242095D01*
X192619047Y-95289714D02*
X192619047Y-95956380D01*
X192190476Y-95289714D02*
X192190476Y-95813523D01*
X192238095Y-95908761D01*
X192333333Y-95956380D01*
X192476190Y-95956380D01*
X192571428Y-95908761D01*
X192619047Y-95861142D01*
X188690476Y-80160761D02*
X188833333Y-80208380D01*
X189071428Y-80208380D01*
X189166666Y-80160761D01*
X189214285Y-80113142D01*
X189261904Y-80017904D01*
X189261904Y-79922666D01*
X189214285Y-79827428D01*
X189166666Y-79779809D01*
X189071428Y-79732190D01*
X188880952Y-79684571D01*
X188785714Y-79636952D01*
X188738095Y-79589333D01*
X188690476Y-79494095D01*
X188690476Y-79398857D01*
X188738095Y-79303619D01*
X188785714Y-79256000D01*
X188880952Y-79208380D01*
X189119047Y-79208380D01*
X189261904Y-79256000D01*
X189595238Y-79208380D02*
X189833333Y-80208380D01*
X190023809Y-79494095D01*
X190214285Y-80208380D01*
X190452380Y-79208380D01*
X191357142Y-80208380D02*
X190785714Y-80208380D01*
X191071428Y-80208380D02*
X191071428Y-79208380D01*
X190976190Y-79351238D01*
X190880952Y-79446476D01*
X190785714Y-79494095D01*
X191738095Y-79303619D02*
X191785714Y-79256000D01*
X191880952Y-79208380D01*
X192119047Y-79208380D01*
X192214285Y-79256000D01*
X192261904Y-79303619D01*
X192309523Y-79398857D01*
X192309523Y-79494095D01*
X192261904Y-79636952D01*
X191690476Y-80208380D01*
X192309523Y-80208380D01*
%TO.C,SW13*%
X105830952Y-111196380D02*
X105830952Y-110196380D01*
X106164285Y-110910666D01*
X106497619Y-110196380D01*
X106497619Y-111196380D01*
X106878571Y-110196380D02*
X107545238Y-111196380D01*
X107545238Y-110196380D02*
X106878571Y-111196380D01*
X107688095Y-111291619D02*
X108450000Y-111291619D01*
X109211904Y-111196380D02*
X108640476Y-111196380D01*
X108926190Y-111196380D02*
X108926190Y-110196380D01*
X108830952Y-110339238D01*
X108735714Y-110434476D01*
X108640476Y-110482095D01*
X110069047Y-110529714D02*
X110069047Y-111196380D01*
X109640476Y-110529714D02*
X109640476Y-111053523D01*
X109688095Y-111148761D01*
X109783333Y-111196380D01*
X109926190Y-111196380D01*
X110021428Y-111148761D01*
X110069047Y-111101142D01*
X106140476Y-95400761D02*
X106283333Y-95448380D01*
X106521428Y-95448380D01*
X106616666Y-95400761D01*
X106664285Y-95353142D01*
X106711904Y-95257904D01*
X106711904Y-95162666D01*
X106664285Y-95067428D01*
X106616666Y-95019809D01*
X106521428Y-94972190D01*
X106330952Y-94924571D01*
X106235714Y-94876952D01*
X106188095Y-94829333D01*
X106140476Y-94734095D01*
X106140476Y-94638857D01*
X106188095Y-94543619D01*
X106235714Y-94496000D01*
X106330952Y-94448380D01*
X106569047Y-94448380D01*
X106711904Y-94496000D01*
X107045238Y-94448380D02*
X107283333Y-95448380D01*
X107473809Y-94734095D01*
X107664285Y-95448380D01*
X107902380Y-94448380D01*
X108807142Y-95448380D02*
X108235714Y-95448380D01*
X108521428Y-95448380D02*
X108521428Y-94448380D01*
X108426190Y-94591238D01*
X108330952Y-94686476D01*
X108235714Y-94734095D01*
X109140476Y-94448380D02*
X109759523Y-94448380D01*
X109426190Y-94829333D01*
X109569047Y-94829333D01*
X109664285Y-94876952D01*
X109711904Y-94924571D01*
X109759523Y-95019809D01*
X109759523Y-95257904D01*
X109711904Y-95353142D01*
X109664285Y-95400761D01*
X109569047Y-95448380D01*
X109283333Y-95448380D01*
X109188095Y-95400761D01*
X109140476Y-95353142D01*
%TO.C,SW14*%
X121070952Y-111196380D02*
X121070952Y-110196380D01*
X121404285Y-110910666D01*
X121737619Y-110196380D01*
X121737619Y-111196380D01*
X122118571Y-110196380D02*
X122785238Y-111196380D01*
X122785238Y-110196380D02*
X122118571Y-111196380D01*
X122928095Y-111291619D02*
X123690000Y-111291619D01*
X124451904Y-111196380D02*
X123880476Y-111196380D01*
X124166190Y-111196380D02*
X124166190Y-110196380D01*
X124070952Y-110339238D01*
X123975714Y-110434476D01*
X123880476Y-110482095D01*
X125309047Y-110529714D02*
X125309047Y-111196380D01*
X124880476Y-110529714D02*
X124880476Y-111053523D01*
X124928095Y-111148761D01*
X125023333Y-111196380D01*
X125166190Y-111196380D01*
X125261428Y-111148761D01*
X125309047Y-111101142D01*
X121380476Y-95400761D02*
X121523333Y-95448380D01*
X121761428Y-95448380D01*
X121856666Y-95400761D01*
X121904285Y-95353142D01*
X121951904Y-95257904D01*
X121951904Y-95162666D01*
X121904285Y-95067428D01*
X121856666Y-95019809D01*
X121761428Y-94972190D01*
X121570952Y-94924571D01*
X121475714Y-94876952D01*
X121428095Y-94829333D01*
X121380476Y-94734095D01*
X121380476Y-94638857D01*
X121428095Y-94543619D01*
X121475714Y-94496000D01*
X121570952Y-94448380D01*
X121809047Y-94448380D01*
X121951904Y-94496000D01*
X122285238Y-94448380D02*
X122523333Y-95448380D01*
X122713809Y-94734095D01*
X122904285Y-95448380D01*
X123142380Y-94448380D01*
X124047142Y-95448380D02*
X123475714Y-95448380D01*
X123761428Y-95448380D02*
X123761428Y-94448380D01*
X123666190Y-94591238D01*
X123570952Y-94686476D01*
X123475714Y-94734095D01*
X124904285Y-94781714D02*
X124904285Y-95448380D01*
X124666190Y-94400761D02*
X124428095Y-95115047D01*
X125047142Y-95115047D01*
%TO.C,SW15*%
X136310952Y-111196380D02*
X136310952Y-110196380D01*
X136644285Y-110910666D01*
X136977619Y-110196380D01*
X136977619Y-111196380D01*
X137358571Y-110196380D02*
X138025238Y-111196380D01*
X138025238Y-110196380D02*
X137358571Y-111196380D01*
X138168095Y-111291619D02*
X138930000Y-111291619D01*
X139691904Y-111196380D02*
X139120476Y-111196380D01*
X139406190Y-111196380D02*
X139406190Y-110196380D01*
X139310952Y-110339238D01*
X139215714Y-110434476D01*
X139120476Y-110482095D01*
X140549047Y-110529714D02*
X140549047Y-111196380D01*
X140120476Y-110529714D02*
X140120476Y-111053523D01*
X140168095Y-111148761D01*
X140263333Y-111196380D01*
X140406190Y-111196380D01*
X140501428Y-111148761D01*
X140549047Y-111101142D01*
X136620476Y-95400761D02*
X136763333Y-95448380D01*
X137001428Y-95448380D01*
X137096666Y-95400761D01*
X137144285Y-95353142D01*
X137191904Y-95257904D01*
X137191904Y-95162666D01*
X137144285Y-95067428D01*
X137096666Y-95019809D01*
X137001428Y-94972190D01*
X136810952Y-94924571D01*
X136715714Y-94876952D01*
X136668095Y-94829333D01*
X136620476Y-94734095D01*
X136620476Y-94638857D01*
X136668095Y-94543619D01*
X136715714Y-94496000D01*
X136810952Y-94448380D01*
X137049047Y-94448380D01*
X137191904Y-94496000D01*
X137525238Y-94448380D02*
X137763333Y-95448380D01*
X137953809Y-94734095D01*
X138144285Y-95448380D01*
X138382380Y-94448380D01*
X139287142Y-95448380D02*
X138715714Y-95448380D01*
X139001428Y-95448380D02*
X139001428Y-94448380D01*
X138906190Y-94591238D01*
X138810952Y-94686476D01*
X138715714Y-94734095D01*
X140191904Y-94448380D02*
X139715714Y-94448380D01*
X139668095Y-94924571D01*
X139715714Y-94876952D01*
X139810952Y-94829333D01*
X140049047Y-94829333D01*
X140144285Y-94876952D01*
X140191904Y-94924571D01*
X140239523Y-95019809D01*
X140239523Y-95257904D01*
X140191904Y-95353142D01*
X140144285Y-95400761D01*
X140049047Y-95448380D01*
X139810952Y-95448380D01*
X139715714Y-95400761D01*
X139668095Y-95353142D01*
%TO.C,SW16*%
X151550952Y-111196380D02*
X151550952Y-110196380D01*
X151884285Y-110910666D01*
X152217619Y-110196380D01*
X152217619Y-111196380D01*
X152598571Y-110196380D02*
X153265238Y-111196380D01*
X153265238Y-110196380D02*
X152598571Y-111196380D01*
X153408095Y-111291619D02*
X154170000Y-111291619D01*
X154931904Y-111196380D02*
X154360476Y-111196380D01*
X154646190Y-111196380D02*
X154646190Y-110196380D01*
X154550952Y-110339238D01*
X154455714Y-110434476D01*
X154360476Y-110482095D01*
X155789047Y-110529714D02*
X155789047Y-111196380D01*
X155360476Y-110529714D02*
X155360476Y-111053523D01*
X155408095Y-111148761D01*
X155503333Y-111196380D01*
X155646190Y-111196380D01*
X155741428Y-111148761D01*
X155789047Y-111101142D01*
X151860476Y-95400761D02*
X152003333Y-95448380D01*
X152241428Y-95448380D01*
X152336666Y-95400761D01*
X152384285Y-95353142D01*
X152431904Y-95257904D01*
X152431904Y-95162666D01*
X152384285Y-95067428D01*
X152336666Y-95019809D01*
X152241428Y-94972190D01*
X152050952Y-94924571D01*
X151955714Y-94876952D01*
X151908095Y-94829333D01*
X151860476Y-94734095D01*
X151860476Y-94638857D01*
X151908095Y-94543619D01*
X151955714Y-94496000D01*
X152050952Y-94448380D01*
X152289047Y-94448380D01*
X152431904Y-94496000D01*
X152765238Y-94448380D02*
X153003333Y-95448380D01*
X153193809Y-94734095D01*
X153384285Y-95448380D01*
X153622380Y-94448380D01*
X154527142Y-95448380D02*
X153955714Y-95448380D01*
X154241428Y-95448380D02*
X154241428Y-94448380D01*
X154146190Y-94591238D01*
X154050952Y-94686476D01*
X153955714Y-94734095D01*
X155384285Y-94448380D02*
X155193809Y-94448380D01*
X155098571Y-94496000D01*
X155050952Y-94543619D01*
X154955714Y-94686476D01*
X154908095Y-94876952D01*
X154908095Y-95257904D01*
X154955714Y-95353142D01*
X155003333Y-95400761D01*
X155098571Y-95448380D01*
X155289047Y-95448380D01*
X155384285Y-95400761D01*
X155431904Y-95353142D01*
X155479523Y-95257904D01*
X155479523Y-95019809D01*
X155431904Y-94924571D01*
X155384285Y-94876952D01*
X155289047Y-94829333D01*
X155098571Y-94829333D01*
X155003333Y-94876952D01*
X154955714Y-94924571D01*
X154908095Y-95019809D01*
%TO.C,SW18*%
X188380952Y-111196380D02*
X188380952Y-110196380D01*
X188714285Y-110910666D01*
X189047619Y-110196380D01*
X189047619Y-111196380D01*
X189428571Y-110196380D02*
X190095238Y-111196380D01*
X190095238Y-110196380D02*
X189428571Y-111196380D01*
X190238095Y-111291619D02*
X191000000Y-111291619D01*
X191761904Y-111196380D02*
X191190476Y-111196380D01*
X191476190Y-111196380D02*
X191476190Y-110196380D01*
X191380952Y-110339238D01*
X191285714Y-110434476D01*
X191190476Y-110482095D01*
X192619047Y-110529714D02*
X192619047Y-111196380D01*
X192190476Y-110529714D02*
X192190476Y-111053523D01*
X192238095Y-111148761D01*
X192333333Y-111196380D01*
X192476190Y-111196380D01*
X192571428Y-111148761D01*
X192619047Y-111101142D01*
X188690476Y-95400761D02*
X188833333Y-95448380D01*
X189071428Y-95448380D01*
X189166666Y-95400761D01*
X189214285Y-95353142D01*
X189261904Y-95257904D01*
X189261904Y-95162666D01*
X189214285Y-95067428D01*
X189166666Y-95019809D01*
X189071428Y-94972190D01*
X188880952Y-94924571D01*
X188785714Y-94876952D01*
X188738095Y-94829333D01*
X188690476Y-94734095D01*
X188690476Y-94638857D01*
X188738095Y-94543619D01*
X188785714Y-94496000D01*
X188880952Y-94448380D01*
X189119047Y-94448380D01*
X189261904Y-94496000D01*
X189595238Y-94448380D02*
X189833333Y-95448380D01*
X190023809Y-94734095D01*
X190214285Y-95448380D01*
X190452380Y-94448380D01*
X191357142Y-95448380D02*
X190785714Y-95448380D01*
X191071428Y-95448380D02*
X191071428Y-94448380D01*
X190976190Y-94591238D01*
X190880952Y-94686476D01*
X190785714Y-94734095D01*
X191928571Y-94876952D02*
X191833333Y-94829333D01*
X191785714Y-94781714D01*
X191738095Y-94686476D01*
X191738095Y-94638857D01*
X191785714Y-94543619D01*
X191833333Y-94496000D01*
X191928571Y-94448380D01*
X192119047Y-94448380D01*
X192214285Y-94496000D01*
X192261904Y-94543619D01*
X192309523Y-94638857D01*
X192309523Y-94686476D01*
X192261904Y-94781714D01*
X192214285Y-94829333D01*
X192119047Y-94876952D01*
X191928571Y-94876952D01*
X191833333Y-94924571D01*
X191785714Y-94972190D01*
X191738095Y-95067428D01*
X191738095Y-95257904D01*
X191785714Y-95353142D01*
X191833333Y-95400761D01*
X191928571Y-95448380D01*
X192119047Y-95448380D01*
X192214285Y-95400761D01*
X192261904Y-95353142D01*
X192309523Y-95257904D01*
X192309523Y-95067428D01*
X192261904Y-94972190D01*
X192214285Y-94924571D01*
X192119047Y-94876952D01*
%TO.C,SW24*%
X188380952Y-126436380D02*
X188380952Y-125436380D01*
X188714285Y-126150666D01*
X189047619Y-125436380D01*
X189047619Y-126436380D01*
X189428571Y-125436380D02*
X190095238Y-126436380D01*
X190095238Y-125436380D02*
X189428571Y-126436380D01*
X190238095Y-126531619D02*
X191000000Y-126531619D01*
X191761904Y-126436380D02*
X191190476Y-126436380D01*
X191476190Y-126436380D02*
X191476190Y-125436380D01*
X191380952Y-125579238D01*
X191285714Y-125674476D01*
X191190476Y-125722095D01*
X192619047Y-125769714D02*
X192619047Y-126436380D01*
X192190476Y-125769714D02*
X192190476Y-126293523D01*
X192238095Y-126388761D01*
X192333333Y-126436380D01*
X192476190Y-126436380D01*
X192571428Y-126388761D01*
X192619047Y-126341142D01*
X188690476Y-110640761D02*
X188833333Y-110688380D01*
X189071428Y-110688380D01*
X189166666Y-110640761D01*
X189214285Y-110593142D01*
X189261904Y-110497904D01*
X189261904Y-110402666D01*
X189214285Y-110307428D01*
X189166666Y-110259809D01*
X189071428Y-110212190D01*
X188880952Y-110164571D01*
X188785714Y-110116952D01*
X188738095Y-110069333D01*
X188690476Y-109974095D01*
X188690476Y-109878857D01*
X188738095Y-109783619D01*
X188785714Y-109736000D01*
X188880952Y-109688380D01*
X189119047Y-109688380D01*
X189261904Y-109736000D01*
X189595238Y-109688380D02*
X189833333Y-110688380D01*
X190023809Y-109974095D01*
X190214285Y-110688380D01*
X190452380Y-109688380D01*
X190785714Y-109783619D02*
X190833333Y-109736000D01*
X190928571Y-109688380D01*
X191166666Y-109688380D01*
X191261904Y-109736000D01*
X191309523Y-109783619D01*
X191357142Y-109878857D01*
X191357142Y-109974095D01*
X191309523Y-110116952D01*
X190738095Y-110688380D01*
X191357142Y-110688380D01*
X192214285Y-110021714D02*
X192214285Y-110688380D01*
X191976190Y-109640761D02*
X191738095Y-110355047D01*
X192357142Y-110355047D01*
%TO.C,SW19*%
X105830952Y-126436380D02*
X105830952Y-125436380D01*
X106164285Y-126150666D01*
X106497619Y-125436380D01*
X106497619Y-126436380D01*
X106878571Y-125436380D02*
X107545238Y-126436380D01*
X107545238Y-125436380D02*
X106878571Y-126436380D01*
X107688095Y-126531619D02*
X108450000Y-126531619D01*
X109211904Y-126436380D02*
X108640476Y-126436380D01*
X108926190Y-126436380D02*
X108926190Y-125436380D01*
X108830952Y-125579238D01*
X108735714Y-125674476D01*
X108640476Y-125722095D01*
X110069047Y-125769714D02*
X110069047Y-126436380D01*
X109640476Y-125769714D02*
X109640476Y-126293523D01*
X109688095Y-126388761D01*
X109783333Y-126436380D01*
X109926190Y-126436380D01*
X110021428Y-126388761D01*
X110069047Y-126341142D01*
X106140476Y-110640761D02*
X106283333Y-110688380D01*
X106521428Y-110688380D01*
X106616666Y-110640761D01*
X106664285Y-110593142D01*
X106711904Y-110497904D01*
X106711904Y-110402666D01*
X106664285Y-110307428D01*
X106616666Y-110259809D01*
X106521428Y-110212190D01*
X106330952Y-110164571D01*
X106235714Y-110116952D01*
X106188095Y-110069333D01*
X106140476Y-109974095D01*
X106140476Y-109878857D01*
X106188095Y-109783619D01*
X106235714Y-109736000D01*
X106330952Y-109688380D01*
X106569047Y-109688380D01*
X106711904Y-109736000D01*
X107045238Y-109688380D02*
X107283333Y-110688380D01*
X107473809Y-109974095D01*
X107664285Y-110688380D01*
X107902380Y-109688380D01*
X108807142Y-110688380D02*
X108235714Y-110688380D01*
X108521428Y-110688380D02*
X108521428Y-109688380D01*
X108426190Y-109831238D01*
X108330952Y-109926476D01*
X108235714Y-109974095D01*
X109283333Y-110688380D02*
X109473809Y-110688380D01*
X109569047Y-110640761D01*
X109616666Y-110593142D01*
X109711904Y-110450285D01*
X109759523Y-110259809D01*
X109759523Y-109878857D01*
X109711904Y-109783619D01*
X109664285Y-109736000D01*
X109569047Y-109688380D01*
X109378571Y-109688380D01*
X109283333Y-109736000D01*
X109235714Y-109783619D01*
X109188095Y-109878857D01*
X109188095Y-110116952D01*
X109235714Y-110212190D01*
X109283333Y-110259809D01*
X109378571Y-110307428D01*
X109569047Y-110307428D01*
X109664285Y-110259809D01*
X109711904Y-110212190D01*
X109759523Y-110116952D01*
%TO.C,SW20*%
X121070952Y-126436380D02*
X121070952Y-125436380D01*
X121404285Y-126150666D01*
X121737619Y-125436380D01*
X121737619Y-126436380D01*
X122118571Y-125436380D02*
X122785238Y-126436380D01*
X122785238Y-125436380D02*
X122118571Y-126436380D01*
X122928095Y-126531619D02*
X123690000Y-126531619D01*
X124451904Y-126436380D02*
X123880476Y-126436380D01*
X124166190Y-126436380D02*
X124166190Y-125436380D01*
X124070952Y-125579238D01*
X123975714Y-125674476D01*
X123880476Y-125722095D01*
X125309047Y-125769714D02*
X125309047Y-126436380D01*
X124880476Y-125769714D02*
X124880476Y-126293523D01*
X124928095Y-126388761D01*
X125023333Y-126436380D01*
X125166190Y-126436380D01*
X125261428Y-126388761D01*
X125309047Y-126341142D01*
X121380476Y-110640761D02*
X121523333Y-110688380D01*
X121761428Y-110688380D01*
X121856666Y-110640761D01*
X121904285Y-110593142D01*
X121951904Y-110497904D01*
X121951904Y-110402666D01*
X121904285Y-110307428D01*
X121856666Y-110259809D01*
X121761428Y-110212190D01*
X121570952Y-110164571D01*
X121475714Y-110116952D01*
X121428095Y-110069333D01*
X121380476Y-109974095D01*
X121380476Y-109878857D01*
X121428095Y-109783619D01*
X121475714Y-109736000D01*
X121570952Y-109688380D01*
X121809047Y-109688380D01*
X121951904Y-109736000D01*
X122285238Y-109688380D02*
X122523333Y-110688380D01*
X122713809Y-109974095D01*
X122904285Y-110688380D01*
X123142380Y-109688380D01*
X123475714Y-109783619D02*
X123523333Y-109736000D01*
X123618571Y-109688380D01*
X123856666Y-109688380D01*
X123951904Y-109736000D01*
X123999523Y-109783619D01*
X124047142Y-109878857D01*
X124047142Y-109974095D01*
X123999523Y-110116952D01*
X123428095Y-110688380D01*
X124047142Y-110688380D01*
X124666190Y-109688380D02*
X124761428Y-109688380D01*
X124856666Y-109736000D01*
X124904285Y-109783619D01*
X124951904Y-109878857D01*
X124999523Y-110069333D01*
X124999523Y-110307428D01*
X124951904Y-110497904D01*
X124904285Y-110593142D01*
X124856666Y-110640761D01*
X124761428Y-110688380D01*
X124666190Y-110688380D01*
X124570952Y-110640761D01*
X124523333Y-110593142D01*
X124475714Y-110497904D01*
X124428095Y-110307428D01*
X124428095Y-110069333D01*
X124475714Y-109878857D01*
X124523333Y-109783619D01*
X124570952Y-109736000D01*
X124666190Y-109688380D01*
%TO.C,SW21*%
X136310952Y-126436380D02*
X136310952Y-125436380D01*
X136644285Y-126150666D01*
X136977619Y-125436380D01*
X136977619Y-126436380D01*
X137358571Y-125436380D02*
X138025238Y-126436380D01*
X138025238Y-125436380D02*
X137358571Y-126436380D01*
X138168095Y-126531619D02*
X138930000Y-126531619D01*
X139691904Y-126436380D02*
X139120476Y-126436380D01*
X139406190Y-126436380D02*
X139406190Y-125436380D01*
X139310952Y-125579238D01*
X139215714Y-125674476D01*
X139120476Y-125722095D01*
X140549047Y-125769714D02*
X140549047Y-126436380D01*
X140120476Y-125769714D02*
X140120476Y-126293523D01*
X140168095Y-126388761D01*
X140263333Y-126436380D01*
X140406190Y-126436380D01*
X140501428Y-126388761D01*
X140549047Y-126341142D01*
X136620476Y-110640761D02*
X136763333Y-110688380D01*
X137001428Y-110688380D01*
X137096666Y-110640761D01*
X137144285Y-110593142D01*
X137191904Y-110497904D01*
X137191904Y-110402666D01*
X137144285Y-110307428D01*
X137096666Y-110259809D01*
X137001428Y-110212190D01*
X136810952Y-110164571D01*
X136715714Y-110116952D01*
X136668095Y-110069333D01*
X136620476Y-109974095D01*
X136620476Y-109878857D01*
X136668095Y-109783619D01*
X136715714Y-109736000D01*
X136810952Y-109688380D01*
X137049047Y-109688380D01*
X137191904Y-109736000D01*
X137525238Y-109688380D02*
X137763333Y-110688380D01*
X137953809Y-109974095D01*
X138144285Y-110688380D01*
X138382380Y-109688380D01*
X138715714Y-109783619D02*
X138763333Y-109736000D01*
X138858571Y-109688380D01*
X139096666Y-109688380D01*
X139191904Y-109736000D01*
X139239523Y-109783619D01*
X139287142Y-109878857D01*
X139287142Y-109974095D01*
X139239523Y-110116952D01*
X138668095Y-110688380D01*
X139287142Y-110688380D01*
X140239523Y-110688380D02*
X139668095Y-110688380D01*
X139953809Y-110688380D02*
X139953809Y-109688380D01*
X139858571Y-109831238D01*
X139763333Y-109926476D01*
X139668095Y-109974095D01*
%TO.C,SW22*%
X151550952Y-126436380D02*
X151550952Y-125436380D01*
X151884285Y-126150666D01*
X152217619Y-125436380D01*
X152217619Y-126436380D01*
X152598571Y-125436380D02*
X153265238Y-126436380D01*
X153265238Y-125436380D02*
X152598571Y-126436380D01*
X153408095Y-126531619D02*
X154170000Y-126531619D01*
X154931904Y-126436380D02*
X154360476Y-126436380D01*
X154646190Y-126436380D02*
X154646190Y-125436380D01*
X154550952Y-125579238D01*
X154455714Y-125674476D01*
X154360476Y-125722095D01*
X155789047Y-125769714D02*
X155789047Y-126436380D01*
X155360476Y-125769714D02*
X155360476Y-126293523D01*
X155408095Y-126388761D01*
X155503333Y-126436380D01*
X155646190Y-126436380D01*
X155741428Y-126388761D01*
X155789047Y-126341142D01*
X151860476Y-110640761D02*
X152003333Y-110688380D01*
X152241428Y-110688380D01*
X152336666Y-110640761D01*
X152384285Y-110593142D01*
X152431904Y-110497904D01*
X152431904Y-110402666D01*
X152384285Y-110307428D01*
X152336666Y-110259809D01*
X152241428Y-110212190D01*
X152050952Y-110164571D01*
X151955714Y-110116952D01*
X151908095Y-110069333D01*
X151860476Y-109974095D01*
X151860476Y-109878857D01*
X151908095Y-109783619D01*
X151955714Y-109736000D01*
X152050952Y-109688380D01*
X152289047Y-109688380D01*
X152431904Y-109736000D01*
X152765238Y-109688380D02*
X153003333Y-110688380D01*
X153193809Y-109974095D01*
X153384285Y-110688380D01*
X153622380Y-109688380D01*
X153955714Y-109783619D02*
X154003333Y-109736000D01*
X154098571Y-109688380D01*
X154336666Y-109688380D01*
X154431904Y-109736000D01*
X154479523Y-109783619D01*
X154527142Y-109878857D01*
X154527142Y-109974095D01*
X154479523Y-110116952D01*
X153908095Y-110688380D01*
X154527142Y-110688380D01*
X154908095Y-109783619D02*
X154955714Y-109736000D01*
X155050952Y-109688380D01*
X155289047Y-109688380D01*
X155384285Y-109736000D01*
X155431904Y-109783619D01*
X155479523Y-109878857D01*
X155479523Y-109974095D01*
X155431904Y-110116952D01*
X154860476Y-110688380D01*
X155479523Y-110688380D01*
%TO.C,SW25*%
X115427380Y-142199761D02*
X115570238Y-142247380D01*
X115808333Y-142247380D01*
X115903571Y-142199761D01*
X115951190Y-142152142D01*
X115998809Y-142056904D01*
X115998809Y-141961666D01*
X115951190Y-141866428D01*
X115903571Y-141818809D01*
X115808333Y-141771190D01*
X115617857Y-141723571D01*
X115522619Y-141675952D01*
X115475000Y-141628333D01*
X115427380Y-141533095D01*
X115427380Y-141437857D01*
X115475000Y-141342619D01*
X115522619Y-141295000D01*
X115617857Y-141247380D01*
X115855952Y-141247380D01*
X115998809Y-141295000D01*
X116332142Y-141247380D02*
X116570238Y-142247380D01*
X116760714Y-141533095D01*
X116951190Y-142247380D01*
X117189285Y-141247380D01*
X117332142Y-142342619D02*
X118094047Y-142342619D01*
X118332142Y-142247380D02*
X118332142Y-141247380D01*
X118713095Y-141247380D01*
X118808333Y-141295000D01*
X118855952Y-141342619D01*
X118903571Y-141437857D01*
X118903571Y-141580714D01*
X118855952Y-141675952D01*
X118808333Y-141723571D01*
X118713095Y-141771190D01*
X118332142Y-141771190D01*
X119760714Y-141580714D02*
X119760714Y-142247380D01*
X119332142Y-141580714D02*
X119332142Y-142104523D01*
X119379761Y-142199761D01*
X119475000Y-142247380D01*
X119617857Y-142247380D01*
X119713095Y-142199761D01*
X119760714Y-142152142D01*
X120189285Y-142199761D02*
X120284523Y-142247380D01*
X120475000Y-142247380D01*
X120570238Y-142199761D01*
X120617857Y-142104523D01*
X120617857Y-142056904D01*
X120570238Y-141961666D01*
X120475000Y-141914047D01*
X120332142Y-141914047D01*
X120236904Y-141866428D01*
X120189285Y-141771190D01*
X120189285Y-141723571D01*
X120236904Y-141628333D01*
X120332142Y-141580714D01*
X120475000Y-141580714D01*
X120570238Y-141628333D01*
X121046428Y-142247380D02*
X121046428Y-141247380D01*
X121475000Y-142247380D02*
X121475000Y-141723571D01*
X121427380Y-141628333D01*
X121332142Y-141580714D01*
X121189285Y-141580714D01*
X121094047Y-141628333D01*
X121046428Y-141675952D01*
%TO.C,SW26*%
X129952380Y-142199761D02*
X130095238Y-142247380D01*
X130333333Y-142247380D01*
X130428571Y-142199761D01*
X130476190Y-142152142D01*
X130523809Y-142056904D01*
X130523809Y-141961666D01*
X130476190Y-141866428D01*
X130428571Y-141818809D01*
X130333333Y-141771190D01*
X130142857Y-141723571D01*
X130047619Y-141675952D01*
X130000000Y-141628333D01*
X129952380Y-141533095D01*
X129952380Y-141437857D01*
X130000000Y-141342619D01*
X130047619Y-141295000D01*
X130142857Y-141247380D01*
X130380952Y-141247380D01*
X130523809Y-141295000D01*
X130857142Y-141247380D02*
X131095238Y-142247380D01*
X131285714Y-141533095D01*
X131476190Y-142247380D01*
X131714285Y-141247380D01*
X131857142Y-142342619D02*
X132619047Y-142342619D01*
X132857142Y-142247380D02*
X132857142Y-141247380D01*
X133238095Y-141247380D01*
X133333333Y-141295000D01*
X133380952Y-141342619D01*
X133428571Y-141437857D01*
X133428571Y-141580714D01*
X133380952Y-141675952D01*
X133333333Y-141723571D01*
X133238095Y-141771190D01*
X132857142Y-141771190D01*
X134285714Y-141580714D02*
X134285714Y-142247380D01*
X133857142Y-141580714D02*
X133857142Y-142104523D01*
X133904761Y-142199761D01*
X134000000Y-142247380D01*
X134142857Y-142247380D01*
X134238095Y-142199761D01*
X134285714Y-142152142D01*
X134714285Y-142199761D02*
X134809523Y-142247380D01*
X135000000Y-142247380D01*
X135095238Y-142199761D01*
X135142857Y-142104523D01*
X135142857Y-142056904D01*
X135095238Y-141961666D01*
X135000000Y-141914047D01*
X134857142Y-141914047D01*
X134761904Y-141866428D01*
X134714285Y-141771190D01*
X134714285Y-141723571D01*
X134761904Y-141628333D01*
X134857142Y-141580714D01*
X135000000Y-141580714D01*
X135095238Y-141628333D01*
X135571428Y-142247380D02*
X135571428Y-141247380D01*
X136000000Y-142247380D02*
X136000000Y-141723571D01*
X135952380Y-141628333D01*
X135857142Y-141580714D01*
X135714285Y-141580714D01*
X135619047Y-141628333D01*
X135571428Y-141675952D01*
%TO.C,SW27*%
X158972380Y-142199761D02*
X159115238Y-142247380D01*
X159353333Y-142247380D01*
X159448571Y-142199761D01*
X159496190Y-142152142D01*
X159543809Y-142056904D01*
X159543809Y-141961666D01*
X159496190Y-141866428D01*
X159448571Y-141818809D01*
X159353333Y-141771190D01*
X159162857Y-141723571D01*
X159067619Y-141675952D01*
X159020000Y-141628333D01*
X158972380Y-141533095D01*
X158972380Y-141437857D01*
X159020000Y-141342619D01*
X159067619Y-141295000D01*
X159162857Y-141247380D01*
X159400952Y-141247380D01*
X159543809Y-141295000D01*
X159877142Y-141247380D02*
X160115238Y-142247380D01*
X160305714Y-141533095D01*
X160496190Y-142247380D01*
X160734285Y-141247380D01*
X160877142Y-142342619D02*
X161639047Y-142342619D01*
X161877142Y-142247380D02*
X161877142Y-141247380D01*
X162258095Y-141247380D01*
X162353333Y-141295000D01*
X162400952Y-141342619D01*
X162448571Y-141437857D01*
X162448571Y-141580714D01*
X162400952Y-141675952D01*
X162353333Y-141723571D01*
X162258095Y-141771190D01*
X161877142Y-141771190D01*
X163305714Y-141580714D02*
X163305714Y-142247380D01*
X162877142Y-141580714D02*
X162877142Y-142104523D01*
X162924761Y-142199761D01*
X163020000Y-142247380D01*
X163162857Y-142247380D01*
X163258095Y-142199761D01*
X163305714Y-142152142D01*
X163734285Y-142199761D02*
X163829523Y-142247380D01*
X164020000Y-142247380D01*
X164115238Y-142199761D01*
X164162857Y-142104523D01*
X164162857Y-142056904D01*
X164115238Y-141961666D01*
X164020000Y-141914047D01*
X163877142Y-141914047D01*
X163781904Y-141866428D01*
X163734285Y-141771190D01*
X163734285Y-141723571D01*
X163781904Y-141628333D01*
X163877142Y-141580714D01*
X164020000Y-141580714D01*
X164115238Y-141628333D01*
X164591428Y-142247380D02*
X164591428Y-141247380D01*
X165020000Y-142247380D02*
X165020000Y-141723571D01*
X164972380Y-141628333D01*
X164877142Y-141580714D01*
X164734285Y-141580714D01*
X164639047Y-141628333D01*
X164591428Y-141675952D01*
%TO.C,SW28*%
X144557380Y-142214761D02*
X144700238Y-142262380D01*
X144938333Y-142262380D01*
X145033571Y-142214761D01*
X145081190Y-142167142D01*
X145128809Y-142071904D01*
X145128809Y-141976666D01*
X145081190Y-141881428D01*
X145033571Y-141833809D01*
X144938333Y-141786190D01*
X144747857Y-141738571D01*
X144652619Y-141690952D01*
X144605000Y-141643333D01*
X144557380Y-141548095D01*
X144557380Y-141452857D01*
X144605000Y-141357619D01*
X144652619Y-141310000D01*
X144747857Y-141262380D01*
X144985952Y-141262380D01*
X145128809Y-141310000D01*
X145462142Y-141262380D02*
X145700238Y-142262380D01*
X145890714Y-141548095D01*
X146081190Y-142262380D01*
X146319285Y-141262380D01*
X146462142Y-142357619D02*
X147224047Y-142357619D01*
X147462142Y-142262380D02*
X147462142Y-141262380D01*
X147843095Y-141262380D01*
X147938333Y-141310000D01*
X147985952Y-141357619D01*
X148033571Y-141452857D01*
X148033571Y-141595714D01*
X147985952Y-141690952D01*
X147938333Y-141738571D01*
X147843095Y-141786190D01*
X147462142Y-141786190D01*
X148890714Y-141595714D02*
X148890714Y-142262380D01*
X148462142Y-141595714D02*
X148462142Y-142119523D01*
X148509761Y-142214761D01*
X148605000Y-142262380D01*
X148747857Y-142262380D01*
X148843095Y-142214761D01*
X148890714Y-142167142D01*
X149319285Y-142214761D02*
X149414523Y-142262380D01*
X149605000Y-142262380D01*
X149700238Y-142214761D01*
X149747857Y-142119523D01*
X149747857Y-142071904D01*
X149700238Y-141976666D01*
X149605000Y-141929047D01*
X149462142Y-141929047D01*
X149366904Y-141881428D01*
X149319285Y-141786190D01*
X149319285Y-141738571D01*
X149366904Y-141643333D01*
X149462142Y-141595714D01*
X149605000Y-141595714D01*
X149700238Y-141643333D01*
X150176428Y-142262380D02*
X150176428Y-141262380D01*
X150605000Y-142262380D02*
X150605000Y-141738571D01*
X150557380Y-141643333D01*
X150462142Y-141595714D01*
X150319285Y-141595714D01*
X150224047Y-141643333D01*
X150176428Y-141690952D01*
%TO.C,SW5*%
X164124285Y-80668761D02*
X164267142Y-80716380D01*
X164505238Y-80716380D01*
X164600476Y-80668761D01*
X164648095Y-80621142D01*
X164695714Y-80525904D01*
X164695714Y-80430666D01*
X164648095Y-80335428D01*
X164600476Y-80287809D01*
X164505238Y-80240190D01*
X164314761Y-80192571D01*
X164219523Y-80144952D01*
X164171904Y-80097333D01*
X164124285Y-80002095D01*
X164124285Y-79906857D01*
X164171904Y-79811619D01*
X164219523Y-79764000D01*
X164314761Y-79716380D01*
X164552857Y-79716380D01*
X164695714Y-79764000D01*
X165029047Y-79716380D02*
X165267142Y-80716380D01*
X165457619Y-80002095D01*
X165648095Y-80716380D01*
X165886190Y-79716380D01*
X166029047Y-80811619D02*
X166790952Y-80811619D01*
X167029047Y-80716380D02*
X167029047Y-79716380D01*
X167410000Y-79716380D01*
X167505238Y-79764000D01*
X167552857Y-79811619D01*
X167600476Y-79906857D01*
X167600476Y-80049714D01*
X167552857Y-80144952D01*
X167505238Y-80192571D01*
X167410000Y-80240190D01*
X167029047Y-80240190D01*
X168457619Y-80049714D02*
X168457619Y-80716380D01*
X168029047Y-80049714D02*
X168029047Y-80573523D01*
X168076666Y-80668761D01*
X168171904Y-80716380D01*
X168314761Y-80716380D01*
X168410000Y-80668761D01*
X168457619Y-80621142D01*
X168886190Y-80668761D02*
X168981428Y-80716380D01*
X169171904Y-80716380D01*
X169267142Y-80668761D01*
X169314761Y-80573523D01*
X169314761Y-80525904D01*
X169267142Y-80430666D01*
X169171904Y-80383047D01*
X169029047Y-80383047D01*
X168933809Y-80335428D01*
X168886190Y-80240190D01*
X168886190Y-80192571D01*
X168933809Y-80097333D01*
X169029047Y-80049714D01*
X169171904Y-80049714D01*
X169267142Y-80097333D01*
X169743333Y-80716380D02*
X169743333Y-79716380D01*
X170171904Y-80716380D02*
X170171904Y-80192571D01*
X170124285Y-80097333D01*
X170029047Y-80049714D01*
X169886190Y-80049714D01*
X169790952Y-80097333D01*
X169743333Y-80144952D01*
X170410000Y-80811619D02*
X171171904Y-80811619D01*
X171886190Y-80716380D02*
X171410000Y-80716380D01*
X171410000Y-79716380D01*
X172219523Y-80192571D02*
X172552857Y-80192571D01*
X172695714Y-80716380D02*
X172219523Y-80716380D01*
X172219523Y-79716380D01*
X172695714Y-79716380D01*
X173124285Y-80716380D02*
X173124285Y-79716380D01*
X173362380Y-79716380D01*
X173505238Y-79764000D01*
X173600476Y-79859238D01*
X173648095Y-79954476D01*
X173695714Y-80144952D01*
X173695714Y-80287809D01*
X173648095Y-80478285D01*
X173600476Y-80573523D01*
X173505238Y-80668761D01*
X173362380Y-80716380D01*
X173124285Y-80716380D01*
X167576666Y-64920761D02*
X167719523Y-64968380D01*
X167957619Y-64968380D01*
X168052857Y-64920761D01*
X168100476Y-64873142D01*
X168148095Y-64777904D01*
X168148095Y-64682666D01*
X168100476Y-64587428D01*
X168052857Y-64539809D01*
X167957619Y-64492190D01*
X167767142Y-64444571D01*
X167671904Y-64396952D01*
X167624285Y-64349333D01*
X167576666Y-64254095D01*
X167576666Y-64158857D01*
X167624285Y-64063619D01*
X167671904Y-64016000D01*
X167767142Y-63968380D01*
X168005238Y-63968380D01*
X168148095Y-64016000D01*
X168481428Y-63968380D02*
X168719523Y-64968380D01*
X168910000Y-64254095D01*
X169100476Y-64968380D01*
X169338571Y-63968380D01*
X170195714Y-63968380D02*
X169719523Y-63968380D01*
X169671904Y-64444571D01*
X169719523Y-64396952D01*
X169814761Y-64349333D01*
X170052857Y-64349333D01*
X170148095Y-64396952D01*
X170195714Y-64444571D01*
X170243333Y-64539809D01*
X170243333Y-64777904D01*
X170195714Y-64873142D01*
X170148095Y-64920761D01*
X170052857Y-64968380D01*
X169814761Y-64968380D01*
X169719523Y-64920761D01*
X169671904Y-64873142D01*
%TO.C,SW11*%
X164124285Y-95908761D02*
X164267142Y-95956380D01*
X164505238Y-95956380D01*
X164600476Y-95908761D01*
X164648095Y-95861142D01*
X164695714Y-95765904D01*
X164695714Y-95670666D01*
X164648095Y-95575428D01*
X164600476Y-95527809D01*
X164505238Y-95480190D01*
X164314761Y-95432571D01*
X164219523Y-95384952D01*
X164171904Y-95337333D01*
X164124285Y-95242095D01*
X164124285Y-95146857D01*
X164171904Y-95051619D01*
X164219523Y-95004000D01*
X164314761Y-94956380D01*
X164552857Y-94956380D01*
X164695714Y-95004000D01*
X165029047Y-94956380D02*
X165267142Y-95956380D01*
X165457619Y-95242095D01*
X165648095Y-95956380D01*
X165886190Y-94956380D01*
X166029047Y-96051619D02*
X166790952Y-96051619D01*
X167029047Y-95956380D02*
X167029047Y-94956380D01*
X167410000Y-94956380D01*
X167505238Y-95004000D01*
X167552857Y-95051619D01*
X167600476Y-95146857D01*
X167600476Y-95289714D01*
X167552857Y-95384952D01*
X167505238Y-95432571D01*
X167410000Y-95480190D01*
X167029047Y-95480190D01*
X168457619Y-95289714D02*
X168457619Y-95956380D01*
X168029047Y-95289714D02*
X168029047Y-95813523D01*
X168076666Y-95908761D01*
X168171904Y-95956380D01*
X168314761Y-95956380D01*
X168410000Y-95908761D01*
X168457619Y-95861142D01*
X168886190Y-95908761D02*
X168981428Y-95956380D01*
X169171904Y-95956380D01*
X169267142Y-95908761D01*
X169314761Y-95813523D01*
X169314761Y-95765904D01*
X169267142Y-95670666D01*
X169171904Y-95623047D01*
X169029047Y-95623047D01*
X168933809Y-95575428D01*
X168886190Y-95480190D01*
X168886190Y-95432571D01*
X168933809Y-95337333D01*
X169029047Y-95289714D01*
X169171904Y-95289714D01*
X169267142Y-95337333D01*
X169743333Y-95956380D02*
X169743333Y-94956380D01*
X170171904Y-95956380D02*
X170171904Y-95432571D01*
X170124285Y-95337333D01*
X170029047Y-95289714D01*
X169886190Y-95289714D01*
X169790952Y-95337333D01*
X169743333Y-95384952D01*
X170410000Y-96051619D02*
X171171904Y-96051619D01*
X171886190Y-95956380D02*
X171410000Y-95956380D01*
X171410000Y-94956380D01*
X172219523Y-95432571D02*
X172552857Y-95432571D01*
X172695714Y-95956380D02*
X172219523Y-95956380D01*
X172219523Y-94956380D01*
X172695714Y-94956380D01*
X173124285Y-95956380D02*
X173124285Y-94956380D01*
X173362380Y-94956380D01*
X173505238Y-95004000D01*
X173600476Y-95099238D01*
X173648095Y-95194476D01*
X173695714Y-95384952D01*
X173695714Y-95527809D01*
X173648095Y-95718285D01*
X173600476Y-95813523D01*
X173505238Y-95908761D01*
X173362380Y-95956380D01*
X173124285Y-95956380D01*
X167100476Y-80160761D02*
X167243333Y-80208380D01*
X167481428Y-80208380D01*
X167576666Y-80160761D01*
X167624285Y-80113142D01*
X167671904Y-80017904D01*
X167671904Y-79922666D01*
X167624285Y-79827428D01*
X167576666Y-79779809D01*
X167481428Y-79732190D01*
X167290952Y-79684571D01*
X167195714Y-79636952D01*
X167148095Y-79589333D01*
X167100476Y-79494095D01*
X167100476Y-79398857D01*
X167148095Y-79303619D01*
X167195714Y-79256000D01*
X167290952Y-79208380D01*
X167529047Y-79208380D01*
X167671904Y-79256000D01*
X168005238Y-79208380D02*
X168243333Y-80208380D01*
X168433809Y-79494095D01*
X168624285Y-80208380D01*
X168862380Y-79208380D01*
X169767142Y-80208380D02*
X169195714Y-80208380D01*
X169481428Y-80208380D02*
X169481428Y-79208380D01*
X169386190Y-79351238D01*
X169290952Y-79446476D01*
X169195714Y-79494095D01*
X170719523Y-80208380D02*
X170148095Y-80208380D01*
X170433809Y-80208380D02*
X170433809Y-79208380D01*
X170338571Y-79351238D01*
X170243333Y-79446476D01*
X170148095Y-79494095D01*
%TO.C,SW17*%
X164124285Y-111148761D02*
X164267142Y-111196380D01*
X164505238Y-111196380D01*
X164600476Y-111148761D01*
X164648095Y-111101142D01*
X164695714Y-111005904D01*
X164695714Y-110910666D01*
X164648095Y-110815428D01*
X164600476Y-110767809D01*
X164505238Y-110720190D01*
X164314761Y-110672571D01*
X164219523Y-110624952D01*
X164171904Y-110577333D01*
X164124285Y-110482095D01*
X164124285Y-110386857D01*
X164171904Y-110291619D01*
X164219523Y-110244000D01*
X164314761Y-110196380D01*
X164552857Y-110196380D01*
X164695714Y-110244000D01*
X165029047Y-110196380D02*
X165267142Y-111196380D01*
X165457619Y-110482095D01*
X165648095Y-111196380D01*
X165886190Y-110196380D01*
X166029047Y-111291619D02*
X166790952Y-111291619D01*
X167029047Y-111196380D02*
X167029047Y-110196380D01*
X167410000Y-110196380D01*
X167505238Y-110244000D01*
X167552857Y-110291619D01*
X167600476Y-110386857D01*
X167600476Y-110529714D01*
X167552857Y-110624952D01*
X167505238Y-110672571D01*
X167410000Y-110720190D01*
X167029047Y-110720190D01*
X168457619Y-110529714D02*
X168457619Y-111196380D01*
X168029047Y-110529714D02*
X168029047Y-111053523D01*
X168076666Y-111148761D01*
X168171904Y-111196380D01*
X168314761Y-111196380D01*
X168410000Y-111148761D01*
X168457619Y-111101142D01*
X168886190Y-111148761D02*
X168981428Y-111196380D01*
X169171904Y-111196380D01*
X169267142Y-111148761D01*
X169314761Y-111053523D01*
X169314761Y-111005904D01*
X169267142Y-110910666D01*
X169171904Y-110863047D01*
X169029047Y-110863047D01*
X168933809Y-110815428D01*
X168886190Y-110720190D01*
X168886190Y-110672571D01*
X168933809Y-110577333D01*
X169029047Y-110529714D01*
X169171904Y-110529714D01*
X169267142Y-110577333D01*
X169743333Y-111196380D02*
X169743333Y-110196380D01*
X170171904Y-111196380D02*
X170171904Y-110672571D01*
X170124285Y-110577333D01*
X170029047Y-110529714D01*
X169886190Y-110529714D01*
X169790952Y-110577333D01*
X169743333Y-110624952D01*
X170410000Y-111291619D02*
X171171904Y-111291619D01*
X171886190Y-111196380D02*
X171410000Y-111196380D01*
X171410000Y-110196380D01*
X172219523Y-110672571D02*
X172552857Y-110672571D01*
X172695714Y-111196380D02*
X172219523Y-111196380D01*
X172219523Y-110196380D01*
X172695714Y-110196380D01*
X173124285Y-111196380D02*
X173124285Y-110196380D01*
X173362380Y-110196380D01*
X173505238Y-110244000D01*
X173600476Y-110339238D01*
X173648095Y-110434476D01*
X173695714Y-110624952D01*
X173695714Y-110767809D01*
X173648095Y-110958285D01*
X173600476Y-111053523D01*
X173505238Y-111148761D01*
X173362380Y-111196380D01*
X173124285Y-111196380D01*
X167100476Y-95400761D02*
X167243333Y-95448380D01*
X167481428Y-95448380D01*
X167576666Y-95400761D01*
X167624285Y-95353142D01*
X167671904Y-95257904D01*
X167671904Y-95162666D01*
X167624285Y-95067428D01*
X167576666Y-95019809D01*
X167481428Y-94972190D01*
X167290952Y-94924571D01*
X167195714Y-94876952D01*
X167148095Y-94829333D01*
X167100476Y-94734095D01*
X167100476Y-94638857D01*
X167148095Y-94543619D01*
X167195714Y-94496000D01*
X167290952Y-94448380D01*
X167529047Y-94448380D01*
X167671904Y-94496000D01*
X168005238Y-94448380D02*
X168243333Y-95448380D01*
X168433809Y-94734095D01*
X168624285Y-95448380D01*
X168862380Y-94448380D01*
X169767142Y-95448380D02*
X169195714Y-95448380D01*
X169481428Y-95448380D02*
X169481428Y-94448380D01*
X169386190Y-94591238D01*
X169290952Y-94686476D01*
X169195714Y-94734095D01*
X170100476Y-94448380D02*
X170767142Y-94448380D01*
X170338571Y-95448380D01*
%TO.C,SW23*%
X164124285Y-126388761D02*
X164267142Y-126436380D01*
X164505238Y-126436380D01*
X164600476Y-126388761D01*
X164648095Y-126341142D01*
X164695714Y-126245904D01*
X164695714Y-126150666D01*
X164648095Y-126055428D01*
X164600476Y-126007809D01*
X164505238Y-125960190D01*
X164314761Y-125912571D01*
X164219523Y-125864952D01*
X164171904Y-125817333D01*
X164124285Y-125722095D01*
X164124285Y-125626857D01*
X164171904Y-125531619D01*
X164219523Y-125484000D01*
X164314761Y-125436380D01*
X164552857Y-125436380D01*
X164695714Y-125484000D01*
X165029047Y-125436380D02*
X165267142Y-126436380D01*
X165457619Y-125722095D01*
X165648095Y-126436380D01*
X165886190Y-125436380D01*
X166029047Y-126531619D02*
X166790952Y-126531619D01*
X167029047Y-126436380D02*
X167029047Y-125436380D01*
X167410000Y-125436380D01*
X167505238Y-125484000D01*
X167552857Y-125531619D01*
X167600476Y-125626857D01*
X167600476Y-125769714D01*
X167552857Y-125864952D01*
X167505238Y-125912571D01*
X167410000Y-125960190D01*
X167029047Y-125960190D01*
X168457619Y-125769714D02*
X168457619Y-126436380D01*
X168029047Y-125769714D02*
X168029047Y-126293523D01*
X168076666Y-126388761D01*
X168171904Y-126436380D01*
X168314761Y-126436380D01*
X168410000Y-126388761D01*
X168457619Y-126341142D01*
X168886190Y-126388761D02*
X168981428Y-126436380D01*
X169171904Y-126436380D01*
X169267142Y-126388761D01*
X169314761Y-126293523D01*
X169314761Y-126245904D01*
X169267142Y-126150666D01*
X169171904Y-126103047D01*
X169029047Y-126103047D01*
X168933809Y-126055428D01*
X168886190Y-125960190D01*
X168886190Y-125912571D01*
X168933809Y-125817333D01*
X169029047Y-125769714D01*
X169171904Y-125769714D01*
X169267142Y-125817333D01*
X169743333Y-126436380D02*
X169743333Y-125436380D01*
X170171904Y-126436380D02*
X170171904Y-125912571D01*
X170124285Y-125817333D01*
X170029047Y-125769714D01*
X169886190Y-125769714D01*
X169790952Y-125817333D01*
X169743333Y-125864952D01*
X170410000Y-126531619D02*
X171171904Y-126531619D01*
X171886190Y-126436380D02*
X171410000Y-126436380D01*
X171410000Y-125436380D01*
X172219523Y-125912571D02*
X172552857Y-125912571D01*
X172695714Y-126436380D02*
X172219523Y-126436380D01*
X172219523Y-125436380D01*
X172695714Y-125436380D01*
X173124285Y-126436380D02*
X173124285Y-125436380D01*
X173362380Y-125436380D01*
X173505238Y-125484000D01*
X173600476Y-125579238D01*
X173648095Y-125674476D01*
X173695714Y-125864952D01*
X173695714Y-126007809D01*
X173648095Y-126198285D01*
X173600476Y-126293523D01*
X173505238Y-126388761D01*
X173362380Y-126436380D01*
X173124285Y-126436380D01*
X167100476Y-110640761D02*
X167243333Y-110688380D01*
X167481428Y-110688380D01*
X167576666Y-110640761D01*
X167624285Y-110593142D01*
X167671904Y-110497904D01*
X167671904Y-110402666D01*
X167624285Y-110307428D01*
X167576666Y-110259809D01*
X167481428Y-110212190D01*
X167290952Y-110164571D01*
X167195714Y-110116952D01*
X167148095Y-110069333D01*
X167100476Y-109974095D01*
X167100476Y-109878857D01*
X167148095Y-109783619D01*
X167195714Y-109736000D01*
X167290952Y-109688380D01*
X167529047Y-109688380D01*
X167671904Y-109736000D01*
X168005238Y-109688380D02*
X168243333Y-110688380D01*
X168433809Y-109974095D01*
X168624285Y-110688380D01*
X168862380Y-109688380D01*
X169195714Y-109783619D02*
X169243333Y-109736000D01*
X169338571Y-109688380D01*
X169576666Y-109688380D01*
X169671904Y-109736000D01*
X169719523Y-109783619D01*
X169767142Y-109878857D01*
X169767142Y-109974095D01*
X169719523Y-110116952D01*
X169148095Y-110688380D01*
X169767142Y-110688380D01*
X170100476Y-109688380D02*
X170719523Y-109688380D01*
X170386190Y-110069333D01*
X170529047Y-110069333D01*
X170624285Y-110116952D01*
X170671904Y-110164571D01*
X170719523Y-110259809D01*
X170719523Y-110497904D01*
X170671904Y-110593142D01*
X170624285Y-110640761D01*
X170529047Y-110688380D01*
X170243333Y-110688380D01*
X170148095Y-110640761D01*
X170100476Y-110593142D01*
%TD*%
M02*
