M48
; DRILL file {KiCad (5.1.9)-1} date 06/11/21 11:51:19
; FORMAT={-:-/ absolute / inch / decimal}
; #@! TF.CreationDate,2021-06-11T11:51:19+02:00
; #@! TF.GenerationSoftware,Kicad,Pcbnew,(5.1.9)-1
; #@! TF.FileFunction,Plated,1,2,PTH
FMAT,2
INCH
T1C0.0197
T2C0.0236
T3C0.0300
T4C0.0374
T5C0.0394
T6C0.0591
T7C0.1260
%
G90
G05
T1
X0.8898Y-1.1811
X0.8917Y-6.8878
X0.9174Y-1.1143
X0.9174Y-1.2479
X0.9194Y-6.821
X0.9194Y-6.9546
X0.9843Y-1.0866
X0.9843Y-1.2756
X0.9862Y-6.7933
X0.9862Y-6.9823
X1.0511Y-1.1143
X1.0511Y-1.2479
X1.053Y-6.821
X1.053Y-6.9546
X1.0787Y-1.1811
X1.0807Y-6.8878
X6.4035Y-1.1811
X6.4035Y-6.8878
X6.4312Y-1.1143
X6.4312Y-1.2479
X6.4312Y-6.821
X6.4312Y-6.9546
X6.498Y-1.0866
X6.498Y-1.2756
X6.498Y-6.7933
X6.498Y-6.9823
X6.5648Y-1.1143
X6.5648Y-1.2479
X6.5648Y-6.821
X6.5648Y-6.9546
X6.5925Y-1.1811
X6.5925Y-6.8878
T2
X0.9843Y-1.9882
X2.1457Y-1.9882
X2.5787Y-1.3189
X2.6772Y-1.9882
X2.7953Y-1.9882
X3.0906Y-1.8701
X3.3858Y-2.1063
X3.4449Y-1.7913
X3.4449Y-1.9488
X3.6024Y-1.8898
X3.6024Y-2.0472
X4.6457Y-1.8898
X5.0394Y-1.1024
X5.374Y-1.1909
X5.374Y-1.2677
X5.374Y-1.3465
X5.374Y-1.4252
X5.374Y-1.5039
X5.3937Y-1.1024
X5.3937Y-6.1417
X5.3937Y-6.2992
X5.3937Y-6.4173
X5.7087Y-5.3543
X6.0236Y-6.1417
X6.0236Y-6.4173
T3
X3.3953Y-4.335
X3.4953Y-4.335
T4
X2.2559Y-1.2087
X2.2559Y-1.3071
X2.2559Y-1.4055
X2.2559Y-1.5039
T5
X2.6969Y-1.0429
X2.6969Y-1.6435
X2.7969Y-1.0429
X2.7969Y-1.6435
X2.8969Y-1.0429
X2.8969Y-1.6435
X2.9969Y-1.0429
X2.9969Y-1.6435
X3.0969Y-1.0429
X3.0969Y-1.6435
X3.1969Y-1.0429
X3.1969Y-1.6435
X3.2969Y-1.0429
X3.2969Y-1.6435
X3.3969Y-1.0429
X3.3969Y-1.6435
X3.4969Y-1.0429
X3.4969Y-1.6435
X3.5969Y-1.0429
X3.5969Y-1.6435
X3.6969Y-1.0429
X3.6969Y-1.6435
X3.7969Y-1.0429
X3.7969Y-1.6435
X3.8969Y-1.0429
X3.8969Y-1.6435
X3.9969Y-1.0429
X3.9969Y-1.6435
X4.0969Y-1.0429
X4.0969Y-1.6435
X4.1969Y-1.0429
X4.1969Y-1.6435
X4.2969Y-1.0429
X4.2969Y-1.6435
T6
X1.5236Y-2.2634
X1.5236Y-3.2476
X1.5236Y-4.035
X1.5236Y-4.8224
X1.7736Y-2.1634
X1.7736Y-3.1476
X1.7736Y-3.935
X1.7736Y-4.7224
X2.5079Y-2.2634
X2.5079Y-3.2476
X2.5079Y-4.035
X2.5079Y-4.8224
X2.7579Y-2.1634
X2.7579Y-3.1476
X2.7579Y-3.935
X2.7579Y-4.7224
X3.2953Y-2.2634
X3.2953Y-3.2476
X3.2953Y-4.035
X3.2953Y-4.8224
X3.5453Y-2.1634
X3.5453Y-3.1476
X3.5453Y-3.935
X3.5453Y-4.7224
X4.0827Y-2.2634
X4.0827Y-3.2476
X4.0827Y-4.035
X4.0827Y-4.8224
X4.3327Y-2.1634
X4.3327Y-3.1476
X4.3327Y-3.935
X4.3327Y-4.7224
X5.0669Y-2.2634
X5.0669Y-3.2476
X5.0669Y-4.035
X5.0669Y-4.8224
X5.3169Y-2.1634
X5.3169Y-3.1476
X5.3169Y-3.935
X5.3169Y-4.7224
T7
X0.9843Y-1.1811
X0.9862Y-6.8878
X6.498Y-1.1811
X6.498Y-6.8878
T0
M30
